<?xml version="1.0" encoding="utf-8"?>
<svg xmlns="http://www.w3.org/2000/svg" xmlns:xlink="http://www.w3.org/1999/xlink" width="600" height="400" viewBox="0 0 2400 1600">
<defs>
  <clipPath id="clip670">
    <rect x="0" y="0" width="2400" height="1600"/>
  </clipPath>
</defs>
<path clip-path="url(#clip670)" d="M0 1600 L2400 1600 L2400 0 L0 0  Z" fill="#ffffff" fill-rule="evenodd" fill-opacity="1"/>
<defs>
  <clipPath id="clip671">
    <rect x="480" y="0" width="1681" height="1600"/>
  </clipPath>
</defs>
<path clip-path="url(#clip670)" d="M203.964 1397.55 L2352.76 1397.55 L2352.76 156.084 L203.964 156.084  Z" fill="#ffffff" fill-rule="evenodd" fill-opacity="1"/>
<defs>
  <clipPath id="clip672">
    <rect x="203" y="156" width="2150" height="1242"/>
  </clipPath>
</defs>
<polyline clip-path="url(#clip672)" style="stroke:#000000; stroke-linecap:round; stroke-linejoin:round; stroke-width:2; stroke-opacity:0.1; fill:none" points="322.151,1397.55 322.151,156.084 "/>
<polyline clip-path="url(#clip672)" style="stroke:#000000; stroke-linecap:round; stroke-linejoin:round; stroke-width:2; stroke-opacity:0.1; fill:none" points="640.887,1397.55 640.887,156.084 "/>
<polyline clip-path="url(#clip672)" style="stroke:#000000; stroke-linecap:round; stroke-linejoin:round; stroke-width:2; stroke-opacity:0.1; fill:none" points="959.623,1397.55 959.623,156.084 "/>
<polyline clip-path="url(#clip672)" style="stroke:#000000; stroke-linecap:round; stroke-linejoin:round; stroke-width:2; stroke-opacity:0.1; fill:none" points="1278.36,1397.55 1278.36,156.084 "/>
<polyline clip-path="url(#clip672)" style="stroke:#000000; stroke-linecap:round; stroke-linejoin:round; stroke-width:2; stroke-opacity:0.1; fill:none" points="1597.1,1397.55 1597.1,156.084 "/>
<polyline clip-path="url(#clip672)" style="stroke:#000000; stroke-linecap:round; stroke-linejoin:round; stroke-width:2; stroke-opacity:0.1; fill:none" points="1915.83,1397.55 1915.83,156.084 "/>
<polyline clip-path="url(#clip672)" style="stroke:#000000; stroke-linecap:round; stroke-linejoin:round; stroke-width:2; stroke-opacity:0.1; fill:none" points="2234.57,1397.55 2234.57,156.084 "/>
<polyline clip-path="url(#clip672)" style="stroke:#000000; stroke-linecap:round; stroke-linejoin:round; stroke-width:2; stroke-opacity:0.1; fill:none" points="322.151,1397.55 322.151,156.084 "/>
<polyline clip-path="url(#clip672)" style="stroke:#000000; stroke-linecap:round; stroke-linejoin:round; stroke-width:2; stroke-opacity:0.1; fill:none" points="640.887,1397.55 640.887,156.084 "/>
<polyline clip-path="url(#clip672)" style="stroke:#000000; stroke-linecap:round; stroke-linejoin:round; stroke-width:2; stroke-opacity:0.1; fill:none" points="959.623,1397.55 959.623,156.084 "/>
<polyline clip-path="url(#clip672)" style="stroke:#000000; stroke-linecap:round; stroke-linejoin:round; stroke-width:2; stroke-opacity:0.1; fill:none" points="1278.36,1397.55 1278.36,156.084 "/>
<polyline clip-path="url(#clip672)" style="stroke:#000000; stroke-linecap:round; stroke-linejoin:round; stroke-width:2; stroke-opacity:0.1; fill:none" points="1597.1,1397.55 1597.1,156.084 "/>
<polyline clip-path="url(#clip672)" style="stroke:#000000; stroke-linecap:round; stroke-linejoin:round; stroke-width:2; stroke-opacity:0.1; fill:none" points="1915.83,1397.55 1915.83,156.084 "/>
<polyline clip-path="url(#clip672)" style="stroke:#000000; stroke-linecap:round; stroke-linejoin:round; stroke-width:2; stroke-opacity:0.1; fill:none" points="2234.57,1397.55 2234.57,156.084 "/>
<polyline clip-path="url(#clip672)" style="stroke:#000000; stroke-linecap:round; stroke-linejoin:round; stroke-width:2; stroke-opacity:0.1; fill:none" points="203.964,1397.55 2352.76,1397.55 "/>
<polyline clip-path="url(#clip672)" style="stroke:#000000; stroke-linecap:round; stroke-linejoin:round; stroke-width:2; stroke-opacity:0.1; fill:none" points="203.964,1183.51 2352.76,1183.51 "/>
<polyline clip-path="url(#clip672)" style="stroke:#000000; stroke-linecap:round; stroke-linejoin:round; stroke-width:2; stroke-opacity:0.1; fill:none" points="203.964,969.462 2352.76,969.462 "/>
<polyline clip-path="url(#clip672)" style="stroke:#000000; stroke-linecap:round; stroke-linejoin:round; stroke-width:2; stroke-opacity:0.1; fill:none" points="203.964,755.415 2352.76,755.415 "/>
<polyline clip-path="url(#clip672)" style="stroke:#000000; stroke-linecap:round; stroke-linejoin:round; stroke-width:2; stroke-opacity:0.1; fill:none" points="203.964,541.368 2352.76,541.368 "/>
<polyline clip-path="url(#clip672)" style="stroke:#000000; stroke-linecap:round; stroke-linejoin:round; stroke-width:2; stroke-opacity:0.1; fill:none" points="203.964,327.322 2352.76,327.322 "/>
<polyline clip-path="url(#clip672)" style="stroke:#000000; stroke-linecap:round; stroke-linejoin:round; stroke-width:2; stroke-opacity:0.1; fill:none" points="203.964,1397.55 2352.76,1397.55 "/>
<polyline clip-path="url(#clip672)" style="stroke:#000000; stroke-linecap:round; stroke-linejoin:round; stroke-width:2; stroke-opacity:0.1; fill:none" points="203.964,1183.51 2352.76,1183.51 "/>
<polyline clip-path="url(#clip672)" style="stroke:#000000; stroke-linecap:round; stroke-linejoin:round; stroke-width:2; stroke-opacity:0.1; fill:none" points="203.964,969.462 2352.76,969.462 "/>
<polyline clip-path="url(#clip672)" style="stroke:#000000; stroke-linecap:round; stroke-linejoin:round; stroke-width:2; stroke-opacity:0.1; fill:none" points="203.964,755.415 2352.76,755.415 "/>
<polyline clip-path="url(#clip672)" style="stroke:#000000; stroke-linecap:round; stroke-linejoin:round; stroke-width:2; stroke-opacity:0.1; fill:none" points="203.964,541.368 2352.76,541.368 "/>
<polyline clip-path="url(#clip672)" style="stroke:#000000; stroke-linecap:round; stroke-linejoin:round; stroke-width:2; stroke-opacity:0.1; fill:none" points="203.964,327.322 2352.76,327.322 "/>
<polyline clip-path="url(#clip670)" style="stroke:#000000; stroke-linecap:round; stroke-linejoin:round; stroke-width:4; stroke-opacity:1; fill:none" points="203.964,1397.55 2352.76,1397.55 "/>
<polyline clip-path="url(#clip670)" style="stroke:#000000; stroke-linecap:round; stroke-linejoin:round; stroke-width:4; stroke-opacity:1; fill:none" points="203.964,156.084 2352.76,156.084 "/>
<polyline clip-path="url(#clip670)" style="stroke:#000000; stroke-linecap:round; stroke-linejoin:round; stroke-width:4; stroke-opacity:1; fill:none" points="322.151,1397.55 322.151,1378.66 "/>
<polyline clip-path="url(#clip670)" style="stroke:#000000; stroke-linecap:round; stroke-linejoin:round; stroke-width:4; stroke-opacity:1; fill:none" points="640.887,1397.55 640.887,1378.66 "/>
<polyline clip-path="url(#clip670)" style="stroke:#000000; stroke-linecap:round; stroke-linejoin:round; stroke-width:4; stroke-opacity:1; fill:none" points="959.623,1397.55 959.623,1378.66 "/>
<polyline clip-path="url(#clip670)" style="stroke:#000000; stroke-linecap:round; stroke-linejoin:round; stroke-width:4; stroke-opacity:1; fill:none" points="1278.36,1397.55 1278.36,1378.66 "/>
<polyline clip-path="url(#clip670)" style="stroke:#000000; stroke-linecap:round; stroke-linejoin:round; stroke-width:4; stroke-opacity:1; fill:none" points="1597.1,1397.55 1597.1,1378.66 "/>
<polyline clip-path="url(#clip670)" style="stroke:#000000; stroke-linecap:round; stroke-linejoin:round; stroke-width:4; stroke-opacity:1; fill:none" points="1915.83,1397.55 1915.83,1378.66 "/>
<polyline clip-path="url(#clip670)" style="stroke:#000000; stroke-linecap:round; stroke-linejoin:round; stroke-width:4; stroke-opacity:1; fill:none" points="2234.57,1397.55 2234.57,1378.66 "/>
<polyline clip-path="url(#clip670)" style="stroke:#000000; stroke-linecap:round; stroke-linejoin:round; stroke-width:4; stroke-opacity:1; fill:none" points="322.151,156.084 322.151,174.982 "/>
<polyline clip-path="url(#clip670)" style="stroke:#000000; stroke-linecap:round; stroke-linejoin:round; stroke-width:4; stroke-opacity:1; fill:none" points="640.887,156.084 640.887,174.982 "/>
<polyline clip-path="url(#clip670)" style="stroke:#000000; stroke-linecap:round; stroke-linejoin:round; stroke-width:4; stroke-opacity:1; fill:none" points="959.623,156.084 959.623,174.982 "/>
<polyline clip-path="url(#clip670)" style="stroke:#000000; stroke-linecap:round; stroke-linejoin:round; stroke-width:4; stroke-opacity:1; fill:none" points="1278.36,156.084 1278.36,174.982 "/>
<polyline clip-path="url(#clip670)" style="stroke:#000000; stroke-linecap:round; stroke-linejoin:round; stroke-width:4; stroke-opacity:1; fill:none" points="1597.1,156.084 1597.1,174.982 "/>
<polyline clip-path="url(#clip670)" style="stroke:#000000; stroke-linecap:round; stroke-linejoin:round; stroke-width:4; stroke-opacity:1; fill:none" points="1915.83,156.084 1915.83,174.982 "/>
<polyline clip-path="url(#clip670)" style="stroke:#000000; stroke-linecap:round; stroke-linejoin:round; stroke-width:4; stroke-opacity:1; fill:none" points="2234.57,156.084 2234.57,174.982 "/>
<path clip-path="url(#clip670)" d="M269.177 1443.13 L298.852 1443.13 L298.852 1447.06 L269.177 1447.06 L269.177 1443.13 Z" fill="#000000" fill-rule="nonzero" fill-opacity="1" /><path clip-path="url(#clip670)" d="M309.755 1456.02 L317.394 1456.02 L317.394 1429.65 L309.084 1431.32 L309.084 1427.06 L317.348 1425.39 L322.024 1425.39 L322.024 1456.02 L329.663 1456.02 L329.663 1459.95 L309.755 1459.95 L309.755 1456.02 Z" fill="#000000" fill-rule="nonzero" fill-opacity="1" /><path clip-path="url(#clip670)" d="M339.107 1454.08 L343.991 1454.08 L343.991 1459.95 L339.107 1459.95 L339.107 1454.08 Z" fill="#000000" fill-rule="nonzero" fill-opacity="1" /><path clip-path="url(#clip670)" d="M354.223 1425.39 L372.579 1425.39 L372.579 1429.33 L358.505 1429.33 L358.505 1437.8 Q359.523 1437.45 360.542 1437.29 Q361.56 1437.11 362.579 1437.11 Q368.366 1437.11 371.746 1440.28 Q375.125 1443.45 375.125 1448.87 Q375.125 1454.45 371.653 1457.55 Q368.181 1460.63 361.861 1460.63 Q359.685 1460.63 357.417 1460.26 Q355.172 1459.89 352.764 1459.14 L352.764 1454.45 Q354.848 1455.58 357.07 1456.14 Q359.292 1456.69 361.769 1456.69 Q365.773 1456.69 368.111 1454.58 Q370.449 1452.48 370.449 1448.87 Q370.449 1445.26 368.111 1443.15 Q365.773 1441.04 361.769 1441.04 Q359.894 1441.04 358.019 1441.46 Q356.167 1441.88 354.223 1442.76 L354.223 1425.39 Z" fill="#000000" fill-rule="nonzero" fill-opacity="1" /><path clip-path="url(#clip670)" d="M587.415 1443.13 L617.091 1443.13 L617.091 1447.06 L587.415 1447.06 L587.415 1443.13 Z" fill="#000000" fill-rule="nonzero" fill-opacity="1" /><path clip-path="url(#clip670)" d="M627.994 1456.02 L635.633 1456.02 L635.633 1429.65 L627.322 1431.32 L627.322 1427.06 L635.586 1425.39 L640.262 1425.39 L640.262 1456.02 L647.901 1456.02 L647.901 1459.95 L627.994 1459.95 L627.994 1456.02 Z" fill="#000000" fill-rule="nonzero" fill-opacity="1" /><path clip-path="url(#clip670)" d="M657.345 1454.08 L662.23 1454.08 L662.23 1459.95 L657.345 1459.95 L657.345 1454.08 Z" fill="#000000" fill-rule="nonzero" fill-opacity="1" /><path clip-path="url(#clip670)" d="M682.415 1428.47 Q678.804 1428.47 676.975 1432.04 Q675.169 1435.58 675.169 1442.71 Q675.169 1449.82 676.975 1453.38 Q678.804 1456.92 682.415 1456.92 Q686.049 1456.92 687.855 1453.38 Q689.683 1449.82 689.683 1442.71 Q689.683 1435.58 687.855 1432.04 Q686.049 1428.47 682.415 1428.47 M682.415 1424.77 Q688.225 1424.77 691.28 1429.38 Q694.359 1433.96 694.359 1442.71 Q694.359 1451.44 691.28 1456.04 Q688.225 1460.63 682.415 1460.63 Q676.605 1460.63 673.526 1456.04 Q670.47 1451.44 670.47 1442.71 Q670.47 1433.96 673.526 1429.38 Q676.605 1424.77 682.415 1424.77 Z" fill="#000000" fill-rule="nonzero" fill-opacity="1" /><path clip-path="url(#clip670)" d="M906.649 1443.13 L936.325 1443.13 L936.325 1447.06 L906.649 1447.06 L906.649 1443.13 Z" fill="#000000" fill-rule="nonzero" fill-opacity="1" /><path clip-path="url(#clip670)" d="M956.417 1428.47 Q952.806 1428.47 950.978 1432.04 Q949.172 1435.58 949.172 1442.71 Q949.172 1449.82 950.978 1453.38 Q952.806 1456.92 956.417 1456.92 Q960.052 1456.92 961.857 1453.38 Q963.686 1449.82 963.686 1442.71 Q963.686 1435.58 961.857 1432.04 Q960.052 1428.47 956.417 1428.47 M956.417 1424.77 Q962.228 1424.77 965.283 1429.38 Q968.362 1433.96 968.362 1442.71 Q968.362 1451.44 965.283 1456.04 Q962.228 1460.63 956.417 1460.63 Q950.607 1460.63 947.529 1456.04 Q944.473 1451.44 944.473 1442.71 Q944.473 1433.96 947.529 1429.38 Q950.607 1424.77 956.417 1424.77 Z" fill="#000000" fill-rule="nonzero" fill-opacity="1" /><path clip-path="url(#clip670)" d="M976.579 1454.08 L981.464 1454.08 L981.464 1459.95 L976.579 1459.95 L976.579 1454.08 Z" fill="#000000" fill-rule="nonzero" fill-opacity="1" /><path clip-path="url(#clip670)" d="M991.695 1425.39 L1010.05 1425.39 L1010.05 1429.33 L995.977 1429.33 L995.977 1437.8 Q996.996 1437.45 998.014 1437.29 Q999.033 1437.11 1000.05 1437.11 Q1005.84 1437.11 1009.22 1440.28 Q1012.6 1443.45 1012.6 1448.87 Q1012.6 1454.45 1009.13 1457.55 Q1005.65 1460.63 999.334 1460.63 Q997.158 1460.63 994.889 1460.26 Q992.644 1459.89 990.237 1459.14 L990.237 1454.45 Q992.32 1455.58 994.542 1456.14 Q996.764 1456.69 999.241 1456.69 Q1003.25 1456.69 1005.58 1454.58 Q1007.92 1452.48 1007.92 1448.87 Q1007.92 1445.26 1005.58 1443.15 Q1003.25 1441.04 999.241 1441.04 Q997.366 1441.04 995.491 1441.46 Q993.64 1441.88 991.695 1442.76 L991.695 1425.39 Z" fill="#000000" fill-rule="nonzero" fill-opacity="1" /><path clip-path="url(#clip670)" d="M1255.74 1428.47 Q1252.13 1428.47 1250.3 1432.04 Q1248.5 1435.58 1248.5 1442.71 Q1248.5 1449.82 1250.3 1453.38 Q1252.13 1456.92 1255.74 1456.92 Q1259.38 1456.92 1261.18 1453.38 Q1263.01 1449.82 1263.01 1442.71 Q1263.01 1435.58 1261.18 1432.04 Q1259.38 1428.47 1255.74 1428.47 M1255.74 1424.77 Q1261.55 1424.77 1264.61 1429.38 Q1267.69 1433.96 1267.69 1442.71 Q1267.69 1451.44 1264.61 1456.04 Q1261.55 1460.63 1255.74 1460.63 Q1249.93 1460.63 1246.86 1456.04 Q1243.8 1451.44 1243.8 1442.71 Q1243.8 1433.96 1246.86 1429.38 Q1249.93 1424.77 1255.74 1424.77 Z" fill="#000000" fill-rule="nonzero" fill-opacity="1" /><path clip-path="url(#clip670)" d="M1275.91 1454.08 L1280.79 1454.08 L1280.79 1459.95 L1275.91 1459.95 L1275.91 1454.08 Z" fill="#000000" fill-rule="nonzero" fill-opacity="1" /><path clip-path="url(#clip670)" d="M1300.98 1428.47 Q1297.36 1428.47 1295.54 1432.04 Q1293.73 1435.58 1293.73 1442.71 Q1293.73 1449.82 1295.54 1453.38 Q1297.36 1456.92 1300.98 1456.92 Q1304.61 1456.92 1306.42 1453.38 Q1308.24 1449.82 1308.24 1442.71 Q1308.24 1435.58 1306.42 1432.04 Q1304.61 1428.47 1300.98 1428.47 M1300.98 1424.77 Q1306.79 1424.77 1309.84 1429.38 Q1312.92 1433.96 1312.92 1442.71 Q1312.92 1451.44 1309.84 1456.04 Q1306.79 1460.63 1300.98 1460.63 Q1295.17 1460.63 1292.09 1456.04 Q1289.03 1451.44 1289.03 1442.71 Q1289.03 1433.96 1292.09 1429.38 Q1295.17 1424.77 1300.98 1424.77 Z" fill="#000000" fill-rule="nonzero" fill-opacity="1" /><path clip-path="url(#clip670)" d="M1574.98 1428.47 Q1571.37 1428.47 1569.54 1432.04 Q1567.73 1435.58 1567.73 1442.71 Q1567.73 1449.82 1569.54 1453.38 Q1571.37 1456.92 1574.98 1456.92 Q1578.61 1456.92 1580.42 1453.38 Q1582.25 1449.82 1582.25 1442.71 Q1582.25 1435.58 1580.42 1432.04 Q1578.61 1428.47 1574.98 1428.47 M1574.98 1424.77 Q1580.79 1424.77 1583.84 1429.38 Q1586.92 1433.96 1586.92 1442.71 Q1586.92 1451.44 1583.84 1456.04 Q1580.79 1460.63 1574.98 1460.63 Q1569.17 1460.63 1566.09 1456.04 Q1563.03 1451.44 1563.03 1442.71 Q1563.03 1433.96 1566.09 1429.38 Q1569.17 1424.77 1574.98 1424.77 Z" fill="#000000" fill-rule="nonzero" fill-opacity="1" /><path clip-path="url(#clip670)" d="M1595.14 1454.08 L1600.02 1454.08 L1600.02 1459.95 L1595.14 1459.95 L1595.14 1454.08 Z" fill="#000000" fill-rule="nonzero" fill-opacity="1" /><path clip-path="url(#clip670)" d="M1610.26 1425.39 L1628.61 1425.39 L1628.61 1429.33 L1614.54 1429.33 L1614.54 1437.8 Q1615.56 1437.45 1616.58 1437.29 Q1617.59 1437.11 1618.61 1437.11 Q1624.4 1437.11 1627.78 1440.28 Q1631.16 1443.45 1631.16 1448.87 Q1631.16 1454.45 1627.69 1457.55 Q1624.21 1460.63 1617.89 1460.63 Q1615.72 1460.63 1613.45 1460.26 Q1611.2 1459.89 1608.8 1459.14 L1608.8 1454.45 Q1610.88 1455.58 1613.1 1456.14 Q1615.33 1456.69 1617.8 1456.69 Q1621.81 1456.69 1624.14 1454.58 Q1626.48 1452.48 1626.48 1448.87 Q1626.48 1445.26 1624.14 1443.15 Q1621.81 1441.04 1617.8 1441.04 Q1615.93 1441.04 1614.05 1441.46 Q1612.2 1441.88 1610.26 1442.76 L1610.26 1425.39 Z" fill="#000000" fill-rule="nonzero" fill-opacity="1" /><path clip-path="url(#clip670)" d="M1882.99 1456.02 L1890.62 1456.02 L1890.62 1429.65 L1882.31 1431.32 L1882.31 1427.06 L1890.58 1425.39 L1895.25 1425.39 L1895.25 1456.02 L1902.89 1456.02 L1902.89 1459.95 L1882.99 1459.95 L1882.99 1456.02 Z" fill="#000000" fill-rule="nonzero" fill-opacity="1" /><path clip-path="url(#clip670)" d="M1912.34 1454.08 L1917.22 1454.08 L1917.22 1459.95 L1912.34 1459.95 L1912.34 1454.08 Z" fill="#000000" fill-rule="nonzero" fill-opacity="1" /><path clip-path="url(#clip670)" d="M1937.41 1428.47 Q1933.8 1428.47 1931.97 1432.04 Q1930.16 1435.58 1930.16 1442.71 Q1930.16 1449.82 1931.97 1453.38 Q1933.8 1456.92 1937.41 1456.92 Q1941.04 1456.92 1942.85 1453.38 Q1944.67 1449.82 1944.67 1442.71 Q1944.67 1435.58 1942.85 1432.04 Q1941.04 1428.47 1937.41 1428.47 M1937.41 1424.77 Q1943.22 1424.77 1946.27 1429.38 Q1949.35 1433.96 1949.35 1442.71 Q1949.35 1451.44 1946.27 1456.04 Q1943.22 1460.63 1937.41 1460.63 Q1931.6 1460.63 1928.52 1456.04 Q1925.46 1451.44 1925.46 1442.71 Q1925.46 1433.96 1928.52 1429.38 Q1931.6 1424.77 1937.41 1424.77 Z" fill="#000000" fill-rule="nonzero" fill-opacity="1" /><path clip-path="url(#clip670)" d="M2202.22 1456.02 L2209.86 1456.02 L2209.86 1429.65 L2201.55 1431.32 L2201.55 1427.06 L2209.81 1425.39 L2214.49 1425.39 L2214.49 1456.02 L2222.13 1456.02 L2222.13 1459.95 L2202.22 1459.95 L2202.22 1456.02 Z" fill="#000000" fill-rule="nonzero" fill-opacity="1" /><path clip-path="url(#clip670)" d="M2231.57 1454.08 L2236.46 1454.08 L2236.46 1459.95 L2231.57 1459.95 L2231.57 1454.08 Z" fill="#000000" fill-rule="nonzero" fill-opacity="1" /><path clip-path="url(#clip670)" d="M2246.69 1425.39 L2265.04 1425.39 L2265.04 1429.33 L2250.97 1429.33 L2250.97 1437.8 Q2251.99 1437.45 2253.01 1437.29 Q2254.02 1437.11 2255.04 1437.11 Q2260.83 1437.11 2264.21 1440.28 Q2267.59 1443.45 2267.59 1448.87 Q2267.59 1454.45 2264.12 1457.55 Q2260.64 1460.63 2254.33 1460.63 Q2252.15 1460.63 2249.88 1460.26 Q2247.64 1459.89 2245.23 1459.14 L2245.23 1454.45 Q2247.31 1455.58 2249.53 1456.14 Q2251.76 1456.69 2254.23 1456.69 Q2258.24 1456.69 2260.58 1454.58 Q2262.91 1452.48 2262.91 1448.87 Q2262.91 1445.26 2260.58 1443.15 Q2258.24 1441.04 2254.23 1441.04 Q2252.36 1441.04 2250.48 1441.46 Q2248.63 1441.88 2246.69 1442.76 L2246.69 1425.39 Z" fill="#000000" fill-rule="nonzero" fill-opacity="1" /><path clip-path="url(#clip670)" d="M1262.31 1555.31 Q1262.31 1555.92 1262.06 1556.24 Q1261.83 1556.53 1261.6 1556.6 Q1261.41 1556.63 1261.12 1556.63 Q1260.28 1556.63 1257.39 1556.53 Q1254.49 1556.44 1253.65 1556.44 Q1252.3 1556.44 1249.53 1556.53 Q1246.76 1556.63 1245.4 1556.63 Q1244.5 1556.63 1244.5 1555.89 Q1244.5 1555.4 1244.6 1555.15 Q1244.7 1554.86 1244.95 1554.76 Q1245.24 1554.63 1245.4 1554.63 Q1245.6 1554.6 1246.08 1554.6 Q1246.73 1554.6 1247.4 1554.54 Q1248.08 1554.44 1248.92 1554.25 Q1249.75 1554.05 1250.27 1553.57 Q1250.82 1553.09 1250.82 1552.41 Q1250.82 1552.12 1250.59 1549.74 Q1250.36 1547.35 1250.07 1544.58 Q1249.78 1541.78 1249.75 1541.4 L1233.2 1541.4 Q1231.68 1544 1230.62 1545.81 Q1229.56 1547.61 1229.17 1548.22 Q1228.79 1548.83 1228.56 1549.22 Q1228.34 1549.61 1228.21 1549.83 Q1227.27 1551.54 1227.27 1552.28 Q1227.27 1554.34 1230.36 1554.6 Q1231.43 1554.6 1231.43 1555.37 Q1231.43 1555.95 1231.17 1556.27 Q1230.91 1556.56 1230.69 1556.6 Q1230.49 1556.63 1230.17 1556.63 Q1229.11 1556.63 1226.89 1556.53 Q1224.66 1556.44 1223.57 1556.44 Q1222.64 1556.44 1220.7 1556.53 Q1218.77 1556.63 1217.9 1556.63 Q1217.51 1556.63 1217.29 1556.4 Q1217.06 1556.18 1217.06 1555.89 Q1217.06 1555.44 1217.13 1555.18 Q1217.22 1554.92 1217.48 1554.79 Q1217.74 1554.66 1217.87 1554.66 Q1218 1554.63 1218.45 1554.6 Q1220.9 1554.44 1222.8 1553.28 Q1224.73 1552.09 1226.56 1549.03 L1249.49 1510.51 Q1249.72 1510.12 1249.88 1509.93 Q1250.04 1509.74 1250.36 1509.58 Q1250.72 1509.41 1251.23 1509.41 Q1252.04 1509.41 1252.2 1509.67 Q1252.36 1509.9 1252.46 1510.99 L1256.48 1552.22 Q1256.58 1553.09 1256.64 1553.44 Q1256.74 1553.76 1257.16 1554.12 Q1257.61 1554.44 1258.42 1554.54 Q1259.25 1554.6 1260.8 1554.6 Q1261.38 1554.6 1261.6 1554.63 Q1261.83 1554.63 1262.06 1554.79 Q1262.31 1554.95 1262.31 1555.31 M1249.56 1539.33 L1247.47 1517.59 L1234.45 1539.33 L1249.56 1539.33 Z" fill="#000000" fill-rule="nonzero" fill-opacity="1" /><path clip-path="url(#clip670)" d="M1268.92 1497.18 Q1268.92 1489.38 1271.82 1483.09 Q1273.06 1480.45 1274.8 1478.24 Q1276.54 1476.03 1277.69 1475.06 Q1278.84 1474.1 1279.15 1474.1 Q1279.6 1474.1 1279.62 1474.55 Q1279.62 1474.77 1279.02 1475.34 Q1271.58 1482.91 1271.6 1497.18 Q1271.6 1511.5 1278.84 1518.78 Q1279.62 1519.57 1279.62 1519.81 Q1279.62 1520.27 1279.15 1520.27 Q1278.84 1520.27 1277.73 1519.34 Q1276.63 1518.42 1274.91 1516.3 Q1273.2 1514.18 1271.96 1511.59 Q1268.92 1505.3 1268.92 1497.18 Z" fill="#000000" fill-rule="nonzero" fill-opacity="1" /><path clip-path="url(#clip670)" d="M1285.72 1482.37 L1285.72 1480.93 Q1291.27 1480.93 1294.13 1477.97 Q1294.92 1477.97 1295.05 1478.15 Q1295.19 1478.33 1295.19 1479.17 L1295.19 1505.07 Q1295.19 1506.45 1295.87 1506.87 Q1296.54 1507.3 1299.5 1507.3 L1300.96 1507.3 L1300.96 1508.72 Q1299.34 1508.59 1293.48 1508.59 Q1287.61 1508.59 1286.01 1508.72 L1286.01 1507.3 L1287.48 1507.3 Q1290.39 1507.3 1291.09 1506.9 Q1291.79 1506.47 1291.79 1505.07 L1291.79 1481.15 Q1289.37 1482.37 1285.72 1482.37 Z" fill="#000000" fill-rule="nonzero" fill-opacity="1" /><path clip-path="url(#clip670)" d="M1307.85 1519.81 Q1307.85 1519.59 1308.43 1519.03 Q1315.87 1511.45 1315.87 1497.18 Q1315.87 1482.87 1308.73 1475.63 Q1307.85 1474.79 1307.85 1474.55 Q1307.85 1474.1 1308.3 1474.1 Q1308.61 1474.1 1309.72 1475.02 Q1310.85 1475.94 1312.54 1478.06 Q1314.25 1480.18 1315.51 1482.77 Q1318.56 1489.06 1318.56 1497.18 Q1318.56 1504.98 1315.65 1511.27 Q1314.41 1513.91 1312.67 1516.12 Q1310.94 1518.33 1309.79 1519.3 Q1308.64 1520.27 1308.3 1520.27 Q1307.85 1520.27 1307.85 1519.81 Z" fill="#000000" fill-rule="nonzero" fill-opacity="1" /><path clip-path="url(#clip670)" d="M1280.71 1545.91 Q1280.71 1546.9 1279.89 1547.65 Q1279.11 1548.37 1278.25 1548.37 Q1277.46 1548.37 1276.96 1547.89 Q1276.49 1547.4 1276.49 1546.7 Q1276.49 1545.78 1277.28 1545.01 Q1278.07 1544.24 1278.99 1544.24 Q1279.76 1544.24 1280.23 1544.72 Q1280.71 1545.19 1280.71 1545.91 M1281.11 1568.16 Q1281.11 1568.34 1280.91 1569.06 Q1280.71 1569.76 1280.21 1570.84 Q1279.74 1571.9 1279.08 1572.9 Q1278.43 1573.89 1277.35 1574.59 Q1276.29 1575.29 1275.07 1575.29 Q1273.42 1575.29 1272.34 1574.2 Q1271.28 1573.12 1271.28 1571.5 Q1271.28 1570.62 1272.34 1567.8 Q1275.41 1559.59 1275.52 1559.26 Q1276.04 1557.97 1276.04 1556.84 Q1276.04 1556.33 1275.93 1556.01 Q1275.81 1555.67 1275.59 1555.56 Q1275.36 1555.42 1275.23 1555.4 Q1275.12 1555.38 1274.89 1555.38 Q1273.56 1555.38 1272.32 1556.73 Q1271.08 1558.08 1270.22 1561.11 Q1270.04 1561.67 1269.93 1561.8 Q1269.82 1561.94 1269.48 1561.94 Q1268.92 1561.92 1268.92 1561.47 Q1268.92 1561.33 1269.07 1560.81 Q1269.23 1560.27 1269.52 1559.46 Q1269.82 1558.63 1270.34 1557.77 Q1270.85 1556.89 1271.49 1556.12 Q1272.14 1555.36 1273.06 1554.86 Q1273.99 1554.36 1275.03 1554.36 Q1276.72 1554.36 1277.75 1555.47 Q1278.81 1556.55 1278.81 1558.15 Q1278.81 1559.03 1278.2 1560.59 Q1277.46 1562.62 1277.19 1563.27 L1275.39 1568.12 Q1274.73 1569.88 1274.53 1570.42 Q1274.35 1570.93 1274.19 1571.57 Q1274.06 1572.17 1274.06 1572.74 Q1274.06 1573.53 1274.3 1573.89 Q1274.57 1574.25 1275.16 1574.25 Q1276.78 1574.25 1277.98 1572.65 Q1279.17 1571.02 1279.87 1568.54 Q1279.89 1568.48 1279.92 1568.36 Q1280.1 1567.8 1280.28 1567.73 Q1280.37 1567.71 1280.55 1567.71 Q1281.11 1567.71 1281.11 1568.16 Z" fill="#000000" fill-rule="nonzero" fill-opacity="1" /><path clip-path="url(#clip670)" d="M1296.54 1545.91 Q1296.54 1546.84 1295.75 1547.6 Q1294.96 1548.37 1294.04 1548.37 Q1293.27 1548.37 1292.8 1547.89 Q1292.35 1547.42 1292.35 1546.7 Q1292.35 1545.71 1293.13 1544.99 Q1293.92 1544.24 1294.78 1544.24 Q1295.57 1544.24 1296.04 1544.74 Q1296.54 1545.21 1296.54 1545.91 M1294.83 1558.6 Q1294.83 1559.39 1294.6 1560.32 L1290.36 1577.22 Q1289.96 1578.87 1288.99 1580.22 Q1288.02 1581.6 1286.78 1582.45 Q1285.56 1583.31 1284.23 1583.76 Q1282.92 1584.24 1281.68 1584.24 Q1279.95 1584.24 1278.77 1583.47 Q1277.6 1582.7 1277.6 1581.37 Q1277.6 1580.2 1278.37 1579.46 Q1279.16 1578.73 1280.1 1578.73 Q1280.96 1578.73 1281.41 1579.23 Q1281.86 1579.73 1281.86 1580.36 Q1281.86 1581.12 1281.3 1581.85 Q1280.76 1582.57 1279.79 1582.79 Q1280.67 1583.22 1281.59 1583.22 Q1283.49 1583.22 1285.02 1581.49 Q1286.57 1579.77 1287.25 1577.07 L1291.6 1559.84 Q1291.92 1558.47 1291.92 1557.5 Q1291.92 1556.6 1291.67 1556.1 Q1291.42 1555.6 1291.13 1555.49 Q1290.86 1555.38 1290.45 1555.38 Q1288.67 1555.38 1287.14 1557.02 Q1285.6 1558.65 1284.64 1561.02 Q1284.37 1561.67 1284.23 1561.8 Q1284.12 1561.94 1283.8 1561.94 Q1283.24 1561.92 1283.24 1561.47 Q1283.24 1561.33 1283.46 1560.79 Q1283.69 1560.25 1284.09 1559.46 Q1284.5 1558.65 1285.15 1557.77 Q1285.81 1556.89 1286.57 1556.12 Q1287.36 1555.36 1288.42 1554.86 Q1289.48 1554.36 1290.59 1554.36 Q1292.37 1554.36 1293.59 1555.54 Q1294.83 1556.69 1294.83 1558.6 Z" fill="#000000" fill-rule="nonzero" fill-opacity="1" /><polyline clip-path="url(#clip670)" style="stroke:#000000; stroke-linecap:round; stroke-linejoin:round; stroke-width:4; stroke-opacity:1; fill:none" points="203.964,1397.55 203.964,156.084 "/>
<polyline clip-path="url(#clip670)" style="stroke:#000000; stroke-linecap:round; stroke-linejoin:round; stroke-width:4; stroke-opacity:1; fill:none" points="2352.76,1397.55 2352.76,156.084 "/>
<polyline clip-path="url(#clip670)" style="stroke:#000000; stroke-linecap:round; stroke-linejoin:round; stroke-width:4; stroke-opacity:1; fill:none" points="203.964,1397.55 222.861,1397.55 "/>
<polyline clip-path="url(#clip670)" style="stroke:#000000; stroke-linecap:round; stroke-linejoin:round; stroke-width:4; stroke-opacity:1; fill:none" points="203.964,1183.51 222.861,1183.51 "/>
<polyline clip-path="url(#clip670)" style="stroke:#000000; stroke-linecap:round; stroke-linejoin:round; stroke-width:4; stroke-opacity:1; fill:none" points="203.964,969.462 222.861,969.462 "/>
<polyline clip-path="url(#clip670)" style="stroke:#000000; stroke-linecap:round; stroke-linejoin:round; stroke-width:4; stroke-opacity:1; fill:none" points="203.964,755.415 222.861,755.415 "/>
<polyline clip-path="url(#clip670)" style="stroke:#000000; stroke-linecap:round; stroke-linejoin:round; stroke-width:4; stroke-opacity:1; fill:none" points="203.964,541.368 222.861,541.368 "/>
<polyline clip-path="url(#clip670)" style="stroke:#000000; stroke-linecap:round; stroke-linejoin:round; stroke-width:4; stroke-opacity:1; fill:none" points="203.964,327.322 222.861,327.322 "/>
<polyline clip-path="url(#clip670)" style="stroke:#000000; stroke-linecap:round; stroke-linejoin:round; stroke-width:4; stroke-opacity:1; fill:none" points="2352.76,1397.55 2333.86,1397.55 "/>
<polyline clip-path="url(#clip670)" style="stroke:#000000; stroke-linecap:round; stroke-linejoin:round; stroke-width:4; stroke-opacity:1; fill:none" points="2352.76,1183.51 2333.86,1183.51 "/>
<polyline clip-path="url(#clip670)" style="stroke:#000000; stroke-linecap:round; stroke-linejoin:round; stroke-width:4; stroke-opacity:1; fill:none" points="2352.76,969.462 2333.86,969.462 "/>
<polyline clip-path="url(#clip670)" style="stroke:#000000; stroke-linecap:round; stroke-linejoin:round; stroke-width:4; stroke-opacity:1; fill:none" points="2352.76,755.415 2333.86,755.415 "/>
<polyline clip-path="url(#clip670)" style="stroke:#000000; stroke-linecap:round; stroke-linejoin:round; stroke-width:4; stroke-opacity:1; fill:none" points="2352.76,541.368 2333.86,541.368 "/>
<polyline clip-path="url(#clip670)" style="stroke:#000000; stroke-linecap:round; stroke-linejoin:round; stroke-width:4; stroke-opacity:1; fill:none" points="2352.76,327.322 2333.86,327.322 "/>
<path clip-path="url(#clip670)" d="M156.019 1383.35 Q152.408 1383.35 150.579 1386.92 Q148.774 1390.46 148.774 1397.59 Q148.774 1404.7 150.579 1408.26 Q152.408 1411.8 156.019 1411.8 Q159.653 1411.8 161.459 1408.26 Q163.288 1404.7 163.288 1397.59 Q163.288 1390.46 161.459 1386.92 Q159.653 1383.35 156.019 1383.35 M156.019 1379.65 Q161.829 1379.65 164.885 1384.26 Q167.964 1388.84 167.964 1397.59 Q167.964 1406.32 164.885 1410.92 Q161.829 1415.51 156.019 1415.51 Q150.209 1415.51 147.13 1410.92 Q144.075 1406.32 144.075 1397.59 Q144.075 1388.84 147.13 1384.26 Q150.209 1379.65 156.019 1379.65 Z" fill="#000000" fill-rule="nonzero" fill-opacity="1" /><path clip-path="url(#clip670)" d="M147.061 1166.23 L165.417 1166.23 L165.417 1170.16 L151.343 1170.16 L151.343 1178.64 Q152.362 1178.29 153.38 1178.13 Q154.399 1177.94 155.417 1177.94 Q161.204 1177.94 164.584 1181.11 Q167.964 1184.28 167.964 1189.7 Q167.964 1195.28 164.491 1198.38 Q161.019 1201.46 154.7 1201.46 Q152.524 1201.46 150.255 1201.09 Q148.01 1200.72 145.603 1199.98 L145.603 1195.28 Q147.686 1196.41 149.908 1196.97 Q152.13 1197.52 154.607 1197.52 Q158.612 1197.52 160.95 1195.42 Q163.288 1193.31 163.288 1189.7 Q163.288 1186.09 160.95 1183.98 Q158.612 1181.88 154.607 1181.88 Q152.732 1181.88 150.857 1182.29 Q149.005 1182.71 147.061 1183.59 L147.061 1166.23 Z" fill="#000000" fill-rule="nonzero" fill-opacity="1" /><path clip-path="url(#clip670)" d="M116.668 982.806 L124.306 982.806 L124.306 956.441 L115.996 958.107 L115.996 953.848 L124.26 952.182 L128.936 952.182 L128.936 982.806 L136.575 982.806 L136.575 986.742 L116.668 986.742 L116.668 982.806 Z" fill="#000000" fill-rule="nonzero" fill-opacity="1" /><path clip-path="url(#clip670)" d="M156.019 955.26 Q152.408 955.26 150.579 958.825 Q148.774 962.367 148.774 969.496 Q148.774 976.603 150.579 980.168 Q152.408 983.709 156.019 983.709 Q159.653 983.709 161.459 980.168 Q163.288 976.603 163.288 969.496 Q163.288 962.367 161.459 958.825 Q159.653 955.26 156.019 955.26 M156.019 951.557 Q161.829 951.557 164.885 956.163 Q167.964 960.746 167.964 969.496 Q167.964 978.223 164.885 982.83 Q161.829 987.413 156.019 987.413 Q150.209 987.413 147.13 982.83 Q144.075 978.223 144.075 969.496 Q144.075 960.746 147.13 956.163 Q150.209 951.557 156.019 951.557 Z" fill="#000000" fill-rule="nonzero" fill-opacity="1" /><path clip-path="url(#clip670)" d="M117.663 768.76 L125.302 768.76 L125.302 742.394 L116.992 744.061 L116.992 739.802 L125.255 738.135 L129.931 738.135 L129.931 768.76 L137.57 768.76 L137.57 772.695 L117.663 772.695 L117.663 768.76 Z" fill="#000000" fill-rule="nonzero" fill-opacity="1" /><path clip-path="url(#clip670)" d="M147.061 738.135 L165.417 738.135 L165.417 742.07 L151.343 742.07 L151.343 750.542 Q152.362 750.195 153.38 750.033 Q154.399 749.848 155.417 749.848 Q161.204 749.848 164.584 753.019 Q167.964 756.19 167.964 761.607 Q167.964 767.186 164.491 770.288 Q161.019 773.366 154.7 773.366 Q152.524 773.366 150.255 772.996 Q148.01 772.625 145.603 771.885 L145.603 767.186 Q147.686 768.32 149.908 768.875 Q152.13 769.431 154.607 769.431 Q158.612 769.431 160.95 767.325 Q163.288 765.218 163.288 761.607 Q163.288 757.996 160.95 755.889 Q158.612 753.783 154.607 753.783 Q152.732 753.783 150.857 754.2 Q149.005 754.616 147.061 755.496 L147.061 738.135 Z" fill="#000000" fill-rule="nonzero" fill-opacity="1" /><path clip-path="url(#clip670)" d="M119.885 554.713 L136.204 554.713 L136.204 558.648 L114.26 558.648 L114.26 554.713 Q116.922 551.958 121.505 547.329 Q126.112 542.676 127.292 541.334 Q129.538 538.81 130.417 537.074 Q131.32 535.315 131.32 533.625 Q131.32 530.871 129.376 529.135 Q127.455 527.398 124.353 527.398 Q122.154 527.398 119.7 528.162 Q117.269 528.926 114.492 530.477 L114.492 525.755 Q117.316 524.621 119.769 524.042 Q122.223 523.463 124.26 523.463 Q129.63 523.463 132.825 526.148 Q136.019 528.834 136.019 533.324 Q136.019 535.454 135.209 537.375 Q134.422 539.273 132.316 541.866 Q131.737 542.537 128.635 545.755 Q125.533 548.949 119.885 554.713 Z" fill="#000000" fill-rule="nonzero" fill-opacity="1" /><path clip-path="url(#clip670)" d="M156.019 527.167 Q152.408 527.167 150.579 530.732 Q148.774 534.273 148.774 541.403 Q148.774 548.509 150.579 552.074 Q152.408 555.616 156.019 555.616 Q159.653 555.616 161.459 552.074 Q163.288 548.509 163.288 541.403 Q163.288 534.273 161.459 530.732 Q159.653 527.167 156.019 527.167 M156.019 523.463 Q161.829 523.463 164.885 528.07 Q167.964 532.653 167.964 541.403 Q167.964 550.13 164.885 554.736 Q161.829 559.32 156.019 559.32 Q150.209 559.32 147.13 554.736 Q144.075 550.13 144.075 541.403 Q144.075 532.653 147.13 528.07 Q150.209 523.463 156.019 523.463 Z" fill="#000000" fill-rule="nonzero" fill-opacity="1" /><path clip-path="url(#clip670)" d="M120.88 340.666 L137.2 340.666 L137.2 344.602 L115.256 344.602 L115.256 340.666 Q117.918 337.912 122.501 333.282 Q127.107 328.629 128.288 327.287 Q130.533 324.764 131.413 323.028 Q132.316 321.268 132.316 319.579 Q132.316 316.824 130.371 315.088 Q128.45 313.352 125.348 313.352 Q123.149 313.352 120.695 314.116 Q118.265 314.88 115.487 316.43 L115.487 311.708 Q118.311 310.574 120.765 309.995 Q123.218 309.417 125.255 309.417 Q130.626 309.417 133.82 312.102 Q137.015 314.787 137.015 319.278 Q137.015 321.407 136.204 323.329 Q135.417 325.227 133.311 327.819 Q132.732 328.491 129.63 331.708 Q126.529 334.903 120.88 340.666 Z" fill="#000000" fill-rule="nonzero" fill-opacity="1" /><path clip-path="url(#clip670)" d="M147.061 310.042 L165.417 310.042 L165.417 313.977 L151.343 313.977 L151.343 322.449 Q152.362 322.102 153.38 321.94 Q154.399 321.755 155.417 321.755 Q161.204 321.755 164.584 324.926 Q167.964 328.097 167.964 333.514 Q167.964 339.092 164.491 342.194 Q161.019 345.273 154.7 345.273 Q152.524 345.273 150.255 344.903 Q148.01 344.532 145.603 343.791 L145.603 339.092 Q147.686 340.227 149.908 340.782 Q152.13 341.338 154.607 341.338 Q158.612 341.338 160.95 339.231 Q163.288 337.125 163.288 333.514 Q163.288 329.903 160.95 327.796 Q158.612 325.69 154.607 325.69 Q152.732 325.69 150.857 326.106 Q149.005 326.523 147.061 327.403 L147.061 310.042 Z" fill="#000000" fill-rule="nonzero" fill-opacity="1" /><path clip-path="url(#clip670)" d="M20.1444 832.679 L26.9239 832.679 Q23.9002 835.925 22.4043 839.617 Q20.9083 843.278 20.9083 847.415 Q20.9083 855.563 25.9054 859.892 Q30.8707 864.221 40.2919 864.221 Q49.6813 864.221 54.6784 859.892 Q59.6436 855.563 59.6436 847.415 Q59.6436 843.278 58.1477 839.617 Q56.6518 835.925 53.6281 832.679 L60.3439 832.679 Q62.6355 836.052 63.7814 839.84 Q64.9272 843.596 64.9272 847.797 Q64.9272 858.587 58.3387 864.794 Q51.7183 871 40.2919 871 Q28.8336 871 22.2451 864.794 Q15.6248 858.587 15.6248 847.797 Q15.6248 843.532 16.7706 839.776 Q17.8846 835.989 20.1444 832.679 Z" fill="#000000" fill-rule="nonzero" fill-opacity="1" /><path clip-path="url(#clip670)" d="M32.4621 809.189 Q32.4621 813.9 36.1542 816.637 Q39.8145 819.374 46.212 819.374 Q52.6095 819.374 56.3017 816.669 Q59.9619 813.932 59.9619 809.189 Q59.9619 804.51 56.2698 801.773 Q52.5777 799.036 46.212 799.036 Q39.8781 799.036 36.186 801.773 Q32.4621 804.51 32.4621 809.189 M27.4968 809.189 Q27.4968 801.55 32.4621 797.19 Q37.4273 792.829 46.212 792.829 Q54.9649 792.829 59.9619 797.19 Q64.9272 801.55 64.9272 809.189 Q64.9272 816.86 59.9619 821.22 Q54.9649 825.549 46.212 825.549 Q37.4273 825.549 32.4621 821.22 Q27.4968 816.86 27.4968 809.189 Z" fill="#000000" fill-rule="nonzero" fill-opacity="1" /><path clip-path="url(#clip670)" d="M49.9359 783.726 L28.3562 783.726 L28.3562 777.87 L49.7131 777.87 Q54.7739 777.87 57.3202 775.897 Q59.8346 773.923 59.8346 769.976 Q59.8346 765.234 56.8109 762.497 Q53.7872 759.728 48.5673 759.728 L28.3562 759.728 L28.3562 753.871 L64.0042 753.871 L64.0042 759.728 L58.5296 759.728 Q61.7762 761.86 63.3676 764.693 Q64.9272 767.494 64.9272 771.218 Q64.9272 777.361 61.1078 780.544 Q57.2883 783.726 49.9359 783.726 M27.4968 768.99 L27.4968 768.99 Z" fill="#000000" fill-rule="nonzero" fill-opacity="1" /><path clip-path="url(#clip670)" d="M42.4881 712.176 L64.0042 712.176 L64.0042 718.032 L42.679 718.032 Q37.6183 718.032 35.1038 720.006 Q32.5894 721.979 32.5894 725.926 Q32.5894 730.668 35.6131 733.405 Q38.6368 736.143 43.8567 736.143 L64.0042 736.143 L64.0042 742.031 L28.3562 742.031 L28.3562 736.143 L33.8944 736.143 Q30.6797 734.042 29.0883 731.209 Q27.4968 728.345 27.4968 724.621 Q27.4968 718.478 31.3163 715.327 Q35.1038 712.176 42.4881 712.176 Z" fill="#000000" fill-rule="nonzero" fill-opacity="1" /><path clip-path="url(#clip670)" d="M18.2347 694.702 L28.3562 694.702 L28.3562 682.639 L32.9077 682.639 L32.9077 694.702 L52.2594 694.702 Q56.6199 694.702 57.8613 693.524 Q59.1026 692.315 59.1026 688.655 L59.1026 682.639 L64.0042 682.639 L64.0042 688.655 Q64.0042 695.434 61.4897 698.012 Q58.9434 700.59 52.2594 700.59 L32.9077 700.59 L32.9077 704.887 L28.3562 704.887 L28.3562 700.59 L18.2347 700.59 L18.2347 694.702 Z" fill="#000000" fill-rule="nonzero" fill-opacity="1" /><path clip-path="url(#clip670)" d="M1111.86 116.902 Q1111.86 117.681 1111.54 118.091 Q1111.25 118.459 1110.96 118.541 Q1110.72 118.582 1110.35 118.582 Q1109.28 118.582 1105.59 118.459 Q1101.9 118.336 1100.84 118.336 Q1099.12 118.336 1095.59 118.459 Q1092.07 118.582 1090.34 118.582 Q1089.2 118.582 1089.2 117.64 Q1089.2 117.025 1089.32 116.697 Q1089.44 116.328 1089.77 116.205 Q1090.14 116.041 1090.34 116.041 Q1090.59 116 1091.21 116 Q1092.03 116 1092.89 115.918 Q1093.75 115.795 1094.81 115.549 Q1095.88 115.303 1096.53 114.688 Q1097.23 114.074 1097.23 113.213 Q1097.23 112.844 1096.94 109.811 Q1096.66 106.778 1096.29 103.252 Q1095.92 99.6864 1095.88 99.1945 L1074.81 99.1945 Q1072.88 102.515 1071.53 104.81 Q1070.18 107.105 1069.69 107.884 Q1069.19 108.663 1068.91 109.155 Q1068.62 109.647 1068.46 109.934 Q1067.27 112.106 1067.27 113.049 Q1067.27 115.672 1071.2 116 Q1072.56 116 1072.56 116.984 Q1072.56 117.722 1072.23 118.132 Q1071.9 118.5 1071.61 118.541 Q1071.37 118.582 1070.96 118.582 Q1069.6 118.582 1066.78 118.459 Q1063.95 118.336 1062.55 118.336 Q1061.37 118.336 1058.91 118.459 Q1056.45 118.582 1055.34 118.582 Q1054.85 118.582 1054.56 118.295 Q1054.27 118.009 1054.27 117.64 Q1054.27 117.066 1054.36 116.738 Q1054.48 116.41 1054.81 116.246 Q1055.13 116.082 1055.3 116.082 Q1055.46 116.041 1056.04 116 Q1059.15 115.795 1061.57 114.32 Q1064.03 112.803 1066.37 108.909 L1095.55 59.8858 Q1095.84 59.3939 1096.04 59.148 Q1096.25 58.902 1096.66 58.6971 Q1097.11 58.4921 1097.76 58.4921 Q1098.79 58.4921 1098.99 58.8201 Q1099.2 59.107 1099.32 60.5006 L1104.44 112.967 Q1104.57 114.074 1104.65 114.524 Q1104.77 114.934 1105.31 115.385 Q1105.88 115.795 1106.9 115.918 Q1107.97 116 1109.94 116 Q1110.68 116 1110.96 116.041 Q1111.25 116.041 1111.54 116.246 Q1111.86 116.451 1111.86 116.902 M1095.63 96.5712 L1092.97 68.9034 L1076.41 96.5712 L1095.63 96.5712 Z" fill="#000000" fill-rule="nonzero" fill-opacity="1" /><path clip-path="url(#clip670)" d="M1120.27 42.9248 Q1120.27 32.9972 1123.97 24.992 Q1125.54 21.635 1127.75 18.8231 Q1129.96 16.0113 1131.43 14.7775 Q1132.89 13.5437 1133.29 13.5437 Q1133.87 13.5437 1133.89 14.1176 Q1133.89 14.4045 1133.12 15.1218 Q1123.65 24.7625 1123.68 42.9248 Q1123.68 61.1446 1132.89 70.4122 Q1133.89 71.4165 1133.89 71.7321 Q1133.89 72.3059 1133.29 72.3059 Q1132.89 72.3059 1131.48 71.1296 Q1130.08 69.9532 1127.9 67.2561 Q1125.72 64.559 1124.14 61.2593 Q1120.27 53.2541 1120.27 42.9248 Z" fill="#000000" fill-rule="nonzero" fill-opacity="1" /><path clip-path="url(#clip670)" d="M1141.65 24.0739 L1141.65 22.2375 Q1148.71 22.2375 1152.35 18.4788 Q1153.36 18.4788 1153.53 18.7084 Q1153.7 18.9379 1153.7 19.9995 L1153.7 52.9672 Q1153.7 54.7174 1154.56 55.2626 Q1155.42 55.8078 1159.18 55.8078 L1161.05 55.8078 L1161.05 57.6154 Q1158.98 57.4432 1151.52 57.4432 Q1144.06 57.4432 1142.03 57.6154 L1142.03 55.8078 L1143.89 55.8078 Q1147.59 55.8078 1148.48 55.2913 Q1149.37 54.7461 1149.37 52.9672 L1149.37 22.5245 Q1146.3 24.0739 1141.65 24.0739 Z" fill="#000000" fill-rule="nonzero" fill-opacity="1" /><path clip-path="url(#clip670)" d="M1169.81 71.7321 Q1169.81 71.4452 1170.56 70.7279 Q1180.03 61.0872 1180.03 42.9248 Q1180.03 24.7051 1170.93 15.4948 Q1169.81 14.4332 1169.81 14.1176 Q1169.81 13.5437 1170.38 13.5437 Q1170.79 13.5437 1172.19 14.7201 Q1173.63 15.8965 1175.78 18.5936 Q1177.96 21.2907 1179.57 24.5903 Q1183.44 32.5955 1183.44 42.9248 Q1183.44 52.8524 1179.74 60.8576 Q1178.16 64.2147 1175.95 67.0265 Q1173.74 69.8384 1172.28 71.0722 Q1170.82 72.3059 1170.38 72.3059 Q1169.81 72.3059 1169.81 71.7321 Z" fill="#000000" fill-rule="nonzero" fill-opacity="1" /><path clip-path="url(#clip670)" d="M1135.27 104.943 Q1135.27 106.205 1134.24 107.152 Q1133.23 108.07 1132.14 108.07 Q1131.14 108.07 1130.51 107.468 Q1129.91 106.837 1129.91 105.947 Q1129.91 104.771 1130.91 103.795 Q1131.91 102.82 1133.09 102.82 Q1134.07 102.82 1134.67 103.422 Q1135.27 104.025 1135.27 104.943 M1135.79 133.262 Q1135.79 133.492 1135.53 134.41 Q1135.27 135.3 1134.64 136.677 Q1134.04 138.025 1133.21 139.288 Q1132.37 140.55 1131 141.44 Q1129.65 142.329 1128.1 142.329 Q1126 142.329 1124.63 140.952 Q1123.28 139.575 1123.28 137.509 Q1123.28 136.39 1124.63 132.803 Q1128.53 122.359 1128.67 121.929 Q1129.33 120.293 1129.33 118.859 Q1129.33 118.199 1129.19 117.797 Q1129.05 117.367 1128.76 117.223 Q1128.47 117.051 1128.3 117.022 Q1128.16 116.994 1127.87 116.994 Q1126.18 116.994 1124.6 118.715 Q1123.02 120.437 1121.93 124.282 Q1121.7 124.999 1121.56 125.171 Q1121.41 125.343 1120.98 125.343 Q1120.27 125.315 1120.27 124.741 Q1120.27 124.569 1120.47 123.909 Q1120.67 123.22 1121.04 122.187 Q1121.41 121.125 1122.07 120.035 Q1122.73 118.916 1123.54 117.941 Q1124.37 116.965 1125.54 116.334 Q1126.72 115.703 1128.04 115.703 Q1130.19 115.703 1131.51 117.109 Q1132.86 118.486 1132.86 120.523 Q1132.86 121.642 1132.09 123.622 Q1131.14 126.204 1130.8 127.036 L1128.5 133.205 Q1127.67 135.443 1127.41 136.132 Q1127.18 136.792 1126.98 137.595 Q1126.81 138.37 1126.81 139.087 Q1126.81 140.091 1127.12 140.55 Q1127.47 141.009 1128.21 141.009 Q1130.28 141.009 1131.8 138.972 Q1133.32 136.906 1134.21 133.75 Q1134.24 133.664 1134.27 133.521 Q1134.5 132.803 1134.73 132.717 Q1134.84 132.689 1135.07 132.689 Q1135.79 132.689 1135.79 133.262 Z" fill="#000000" fill-rule="nonzero" fill-opacity="1" /><path clip-path="url(#clip670)" d="M1155.46 104.943 Q1155.46 106.119 1154.46 107.095 Q1153.45 108.07 1152.28 108.07 Q1151.3 108.07 1150.7 107.468 Q1150.12 106.865 1150.12 105.947 Q1150.12 104.685 1151.13 103.767 Q1152.13 102.82 1153.22 102.82 Q1154.23 102.82 1154.83 103.451 Q1155.46 104.053 1155.46 104.943 M1153.28 121.097 Q1153.28 122.101 1152.99 123.277 L1147.6 144.797 Q1147.08 146.891 1145.85 148.613 Q1144.61 150.363 1143.04 151.453 Q1141.49 152.544 1139.79 153.118 Q1138.13 153.72 1136.55 153.72 Q1134.34 153.72 1132.85 152.745 Q1131.36 151.769 1131.36 150.076 Q1131.36 148.584 1132.33 147.637 Q1133.34 146.719 1134.54 146.719 Q1135.63 146.719 1136.21 147.35 Q1136.78 147.982 1136.78 148.785 Q1136.78 149.761 1136.06 150.679 Q1135.38 151.597 1134.14 151.884 Q1135.26 152.429 1136.44 152.429 Q1138.85 152.429 1140.8 150.22 Q1142.78 148.039 1143.64 144.596 L1149.18 122.675 Q1149.58 120.925 1149.58 119.691 Q1149.58 118.543 1149.26 117.912 Q1148.95 117.281 1148.57 117.137 Q1148.23 116.994 1147.71 116.994 Q1145.45 116.994 1143.5 119.088 Q1141.54 121.154 1140.31 124.167 Q1139.97 124.999 1139.79 125.171 Q1139.65 125.343 1139.25 125.343 Q1138.53 125.315 1138.53 124.741 Q1138.53 124.569 1138.82 123.88 Q1139.11 123.191 1139.62 122.187 Q1140.14 121.154 1140.97 120.035 Q1141.8 118.916 1142.78 117.941 Q1143.78 116.965 1145.13 116.334 Q1146.48 115.703 1147.89 115.703 Q1150.15 115.703 1151.7 117.195 Q1153.28 118.658 1153.28 121.097 Z" fill="#000000" fill-rule="nonzero" fill-opacity="1" /><path clip-path="url(#clip670)" d="M1239.14 73.2123 L1247.04 73.2123 L1261.21 111.291 L1275.39 73.2123 L1283.29 73.2123 L1266.28 118.582 L1256.15 118.582 L1239.14 73.2123 Z" fill="#000000" fill-rule="nonzero" fill-opacity="1" /><path clip-path="url(#clip670)" d="M1314.2 95.7758 Q1305.17 95.7758 1301.68 97.8418 Q1298.2 99.9078 1298.2 104.89 Q1298.2 108.86 1300.79 111.21 Q1303.42 113.519 1307.92 113.519 Q1314.12 113.519 1317.85 109.144 Q1321.61 104.728 1321.61 97.4367 L1321.61 95.7758 L1314.2 95.7758 M1329.07 92.6971 L1329.07 118.582 L1321.61 118.582 L1321.61 111.696 Q1319.06 115.828 1315.25 117.813 Q1311.45 119.757 1305.94 119.757 Q1298.97 119.757 1294.84 115.868 Q1290.75 111.939 1290.75 105.376 Q1290.75 97.7203 1295.85 93.8314 Q1300.99 89.9425 1311.16 89.9425 L1321.61 89.9425 L1321.61 89.2134 Q1321.61 84.0687 1318.21 81.2736 Q1314.85 78.438 1308.73 78.438 Q1304.84 78.438 1301.16 79.3697 Q1297.47 80.3014 1294.07 82.1648 L1294.07 75.2783 Q1298.16 73.6984 1302.01 72.9287 Q1305.86 72.1186 1309.5 72.1186 Q1319.34 72.1186 1324.21 77.2227 Q1329.07 82.3268 1329.07 92.6971 Z" fill="#000000" fill-rule="nonzero" fill-opacity="1" /><path clip-path="url(#clip670)" d="M1344.42 55.5504 L1351.87 55.5504 L1351.87 118.582 L1344.42 118.582 L1344.42 55.5504 Z" fill="#000000" fill-rule="nonzero" fill-opacity="1" /><path clip-path="url(#clip670)" d="M1366.7 100.677 L1366.7 73.2123 L1374.15 73.2123 L1374.15 100.394 Q1374.15 106.835 1376.66 110.076 Q1379.18 113.276 1384.2 113.276 Q1390.24 113.276 1393.72 109.427 Q1397.24 105.579 1397.24 98.9355 L1397.24 73.2123 L1404.7 73.2123 L1404.7 118.582 L1397.24 118.582 L1397.24 111.615 Q1394.53 115.747 1390.92 117.772 Q1387.36 119.757 1382.62 119.757 Q1374.8 119.757 1370.75 114.896 Q1366.7 110.035 1366.7 100.677 M1385.46 72.1186 L1385.46 72.1186 Z" fill="#000000" fill-rule="nonzero" fill-opacity="1" /><path clip-path="url(#clip670)" d="M1458.86 94.0339 L1458.86 97.6798 L1424.59 97.6798 Q1425.07 105.376 1429.21 109.427 Q1433.38 113.438 1440.79 113.438 Q1445.08 113.438 1449.1 112.385 Q1453.15 111.331 1457.12 109.225 L1457.12 116.273 Q1453.11 117.975 1448.89 118.866 Q1444.68 119.757 1440.35 119.757 Q1429.49 119.757 1423.13 113.438 Q1416.81 107.118 1416.81 96.343 Q1416.81 85.203 1422.8 78.681 Q1428.84 72.1186 1439.05 72.1186 Q1448.2 72.1186 1453.51 78.0329 Q1458.86 83.9067 1458.86 94.0339 M1451.4 91.8465 Q1451.32 85.7296 1447.96 82.0838 Q1444.64 78.438 1439.13 78.438 Q1432.89 78.438 1429.12 81.9622 Q1425.4 85.4865 1424.83 91.887 L1451.4 91.8465 Z" fill="#000000" fill-rule="nonzero" fill-opacity="1" /><path clip-path="url(#clip670)" d="M1500.01 74.5491 L1500.01 81.5977 Q1496.86 79.9773 1493.45 79.1671 Q1490.05 78.3569 1486.4 78.3569 Q1480.85 78.3569 1478.06 80.0583 Q1475.3 81.7597 1475.3 85.1625 Q1475.3 87.755 1477.29 89.2539 Q1479.27 90.7122 1485.27 92.049 L1487.82 92.6161 Q1495.76 94.3175 1499.08 97.4367 Q1502.45 100.515 1502.45 106.065 Q1502.45 112.385 1497.42 116.071 Q1492.44 119.757 1483.69 119.757 Q1480.04 119.757 1476.07 119.028 Q1472.14 118.339 1467.77 116.922 L1467.77 109.225 Q1471.9 111.372 1475.91 112.466 Q1479.92 113.519 1483.85 113.519 Q1489.12 113.519 1491.95 111.736 Q1494.79 109.913 1494.79 106.632 Q1494.79 103.594 1492.72 101.974 Q1490.7 100.353 1483.77 98.8545 L1481.18 98.2469 Q1474.25 96.7886 1471.17 93.7909 Q1468.09 90.7527 1468.09 85.4865 Q1468.09 79.0861 1472.63 75.6023 Q1477.17 72.1186 1485.51 72.1186 Q1489.64 72.1186 1493.29 72.7262 Q1496.94 73.3338 1500.01 74.5491 Z" fill="#000000" fill-rule="nonzero" fill-opacity="1" /><path clip-path="url(#clip672)" d="M322.151 1354.75 L322.151 1397.55 L640.887 1397.55 L640.887 1354.75 L322.151 1354.75 L322.151 1354.75  Z" fill="#009af9" fill-rule="evenodd" fill-opacity="1"/>
<polyline clip-path="url(#clip672)" style="stroke:#000000; stroke-linecap:round; stroke-linejoin:round; stroke-width:4; stroke-opacity:1; fill:none" points="322.151,1354.75 322.151,1397.55 640.887,1397.55 640.887,1354.75 322.151,1354.75 "/>
<path clip-path="url(#clip672)" d="M640.887 1097.89 L640.887 1397.55 L959.623 1397.55 L959.623 1097.89 L640.887 1097.89 L640.887 1097.89  Z" fill="#009af9" fill-rule="evenodd" fill-opacity="1"/>
<polyline clip-path="url(#clip672)" style="stroke:#000000; stroke-linecap:round; stroke-linejoin:round; stroke-width:4; stroke-opacity:1; fill:none" points="640.887,1097.89 640.887,1397.55 959.623,1397.55 959.623,1097.89 640.887,1097.89 "/>
<path clip-path="url(#clip672)" d="M959.623 156.084 L959.623 1397.55 L1278.36 1397.55 L1278.36 156.084 L959.623 156.084 L959.623 156.084  Z" fill="#009af9" fill-rule="evenodd" fill-opacity="1"/>
<polyline clip-path="url(#clip672)" style="stroke:#000000; stroke-linecap:round; stroke-linejoin:round; stroke-width:4; stroke-opacity:1; fill:none" points="959.623,156.084 959.623,1397.55 1278.36,1397.55 1278.36,156.084 959.623,156.084 "/>
<path clip-path="url(#clip672)" d="M1278.36 198.894 L1278.36 1397.55 L1597.1 1397.55 L1597.1 198.894 L1278.36 198.894 L1278.36 198.894  Z" fill="#009af9" fill-rule="evenodd" fill-opacity="1"/>
<polyline clip-path="url(#clip672)" style="stroke:#000000; stroke-linecap:round; stroke-linejoin:round; stroke-width:4; stroke-opacity:1; fill:none" points="1278.36,198.894 1278.36,1397.55 1597.1,1397.55 1597.1,198.894 1278.36,198.894 "/>
<path clip-path="url(#clip672)" d="M1597.1 883.843 L1597.1 1397.55 L1915.83 1397.55 L1915.83 883.843 L1597.1 883.843 L1597.1 883.843  Z" fill="#009af9" fill-rule="evenodd" fill-opacity="1"/>
<polyline clip-path="url(#clip672)" style="stroke:#000000; stroke-linecap:round; stroke-linejoin:round; stroke-width:4; stroke-opacity:1; fill:none" points="1597.1,883.843 1597.1,1397.55 1915.83,1397.55 1915.83,883.843 1597.1,883.843 "/>
<path clip-path="url(#clip672)" d="M1915.83 1354.75 L1915.83 1397.55 L2234.57 1397.55 L2234.57 1354.75 L1915.83 1354.75 L1915.83 1354.75  Z" fill="#009af9" fill-rule="evenodd" fill-opacity="1"/>
<polyline clip-path="url(#clip672)" style="stroke:#000000; stroke-linecap:round; stroke-linejoin:round; stroke-width:4; stroke-opacity:1; fill:none" points="1915.83,1354.75 1915.83,1397.55 2234.57,1397.55 2234.57,1354.75 1915.83,1354.75 "/>
<circle clip-path="url(#clip672)" style="fill:#009af9; stroke:none; fill-opacity:0" cx="481.519" cy="1354.75" r="2"/>
<circle clip-path="url(#clip672)" style="fill:#009af9; stroke:none; fill-opacity:0" cx="800.255" cy="1097.89" r="2"/>
<circle clip-path="url(#clip672)" style="fill:#009af9; stroke:none; fill-opacity:0" cx="1118.99" cy="156.084" r="2"/>
<circle clip-path="url(#clip672)" style="fill:#009af9; stroke:none; fill-opacity:0" cx="1437.73" cy="198.894" r="2"/>
<circle clip-path="url(#clip672)" style="fill:#009af9; stroke:none; fill-opacity:0" cx="1756.46" cy="883.843" r="2"/>
<circle clip-path="url(#clip672)" style="fill:#009af9; stroke:none; fill-opacity:0" cx="2075.2" cy="1354.75" r="2"/>
</svg>
