<?xml version="1.0" encoding="utf-8"?>
<svg xmlns="http://www.w3.org/2000/svg" xmlns:xlink="http://www.w3.org/1999/xlink" width="600" height="400" viewBox="0 0 2400 1600">
<defs>
  <clipPath id="clip910">
    <rect x="0" y="0" width="2400" height="1600"/>
  </clipPath>
</defs>
<path clip-path="url(#clip910)" d="M0 1600 L2400 1600 L2400 0 L0 0  Z" fill="#ffffff" fill-rule="evenodd" fill-opacity="1"/>
<defs>
  <clipPath id="clip911">
    <rect x="480" y="0" width="1681" height="1600"/>
  </clipPath>
</defs>
<path clip-path="url(#clip910)" d="M234.125 1396.96 L2352.76 1396.96 L2352.76 156.846 L234.125 156.846  Z" fill="#ffffff" fill-rule="evenodd" fill-opacity="1"/>
<defs>
  <clipPath id="clip912">
    <rect x="234" y="156" width="2120" height="1241"/>
  </clipPath>
</defs>
<polyline clip-path="url(#clip912)" style="stroke:#000000; stroke-linecap:round; stroke-linejoin:round; stroke-width:2; stroke-opacity:0.1; fill:none" points="501.5,1396.96 501.5,156.846 "/>
<polyline clip-path="url(#clip912)" style="stroke:#000000; stroke-linecap:round; stroke-linejoin:round; stroke-width:2; stroke-opacity:0.1; fill:none" points="878.614,1396.96 878.614,156.846 "/>
<polyline clip-path="url(#clip912)" style="stroke:#000000; stroke-linecap:round; stroke-linejoin:round; stroke-width:2; stroke-opacity:0.1; fill:none" points="1255.73,1396.96 1255.73,156.846 "/>
<polyline clip-path="url(#clip912)" style="stroke:#000000; stroke-linecap:round; stroke-linejoin:round; stroke-width:2; stroke-opacity:0.1; fill:none" points="1632.84,1396.96 1632.84,156.846 "/>
<polyline clip-path="url(#clip912)" style="stroke:#000000; stroke-linecap:round; stroke-linejoin:round; stroke-width:2; stroke-opacity:0.1; fill:none" points="2009.96,1396.96 2009.96,156.846 "/>
<polyline clip-path="url(#clip912)" style="stroke:#000000; stroke-linecap:round; stroke-linejoin:round; stroke-width:2; stroke-opacity:0.1; fill:none" points="501.5,1396.96 501.5,156.846 "/>
<polyline clip-path="url(#clip912)" style="stroke:#000000; stroke-linecap:round; stroke-linejoin:round; stroke-width:2; stroke-opacity:0.1; fill:none" points="878.614,1396.96 878.614,156.846 "/>
<polyline clip-path="url(#clip912)" style="stroke:#000000; stroke-linecap:round; stroke-linejoin:round; stroke-width:2; stroke-opacity:0.1; fill:none" points="1255.73,1396.96 1255.73,156.846 "/>
<polyline clip-path="url(#clip912)" style="stroke:#000000; stroke-linecap:round; stroke-linejoin:round; stroke-width:2; stroke-opacity:0.1; fill:none" points="1632.84,1396.96 1632.84,156.846 "/>
<polyline clip-path="url(#clip912)" style="stroke:#000000; stroke-linecap:round; stroke-linejoin:round; stroke-width:2; stroke-opacity:0.1; fill:none" points="2009.96,1396.96 2009.96,156.846 "/>
<polyline clip-path="url(#clip912)" style="stroke:#000000; stroke-linecap:round; stroke-linejoin:round; stroke-width:2; stroke-opacity:0.1; fill:none" points="234.125,1396.96 2352.76,1396.96 "/>
<polyline clip-path="url(#clip912)" style="stroke:#000000; stroke-linecap:round; stroke-linejoin:round; stroke-width:2; stroke-opacity:0.1; fill:none" points="234.125,1152.84 2352.76,1152.84 "/>
<polyline clip-path="url(#clip912)" style="stroke:#000000; stroke-linecap:round; stroke-linejoin:round; stroke-width:2; stroke-opacity:0.1; fill:none" points="234.125,908.723 2352.76,908.723 "/>
<polyline clip-path="url(#clip912)" style="stroke:#000000; stroke-linecap:round; stroke-linejoin:round; stroke-width:2; stroke-opacity:0.1; fill:none" points="234.125,664.607 2352.76,664.607 "/>
<polyline clip-path="url(#clip912)" style="stroke:#000000; stroke-linecap:round; stroke-linejoin:round; stroke-width:2; stroke-opacity:0.1; fill:none" points="234.125,420.491 2352.76,420.491 "/>
<polyline clip-path="url(#clip912)" style="stroke:#000000; stroke-linecap:round; stroke-linejoin:round; stroke-width:2; stroke-opacity:0.1; fill:none" points="234.125,176.375 2352.76,176.375 "/>
<polyline clip-path="url(#clip912)" style="stroke:#000000; stroke-linecap:round; stroke-linejoin:round; stroke-width:2; stroke-opacity:0.1; fill:none" points="234.125,1396.96 2352.76,1396.96 "/>
<polyline clip-path="url(#clip912)" style="stroke:#000000; stroke-linecap:round; stroke-linejoin:round; stroke-width:2; stroke-opacity:0.1; fill:none" points="234.125,1152.84 2352.76,1152.84 "/>
<polyline clip-path="url(#clip912)" style="stroke:#000000; stroke-linecap:round; stroke-linejoin:round; stroke-width:2; stroke-opacity:0.1; fill:none" points="234.125,908.723 2352.76,908.723 "/>
<polyline clip-path="url(#clip912)" style="stroke:#000000; stroke-linecap:round; stroke-linejoin:round; stroke-width:2; stroke-opacity:0.1; fill:none" points="234.125,664.607 2352.76,664.607 "/>
<polyline clip-path="url(#clip912)" style="stroke:#000000; stroke-linecap:round; stroke-linejoin:round; stroke-width:2; stroke-opacity:0.1; fill:none" points="234.125,420.491 2352.76,420.491 "/>
<polyline clip-path="url(#clip912)" style="stroke:#000000; stroke-linecap:round; stroke-linejoin:round; stroke-width:2; stroke-opacity:0.1; fill:none" points="234.125,176.375 2352.76,176.375 "/>
<polyline clip-path="url(#clip910)" style="stroke:#000000; stroke-linecap:round; stroke-linejoin:round; stroke-width:4; stroke-opacity:1; fill:none" points="234.125,1396.96 2352.76,1396.96 "/>
<polyline clip-path="url(#clip910)" style="stroke:#000000; stroke-linecap:round; stroke-linejoin:round; stroke-width:4; stroke-opacity:1; fill:none" points="234.125,156.846 2352.76,156.846 "/>
<polyline clip-path="url(#clip910)" style="stroke:#000000; stroke-linecap:round; stroke-linejoin:round; stroke-width:4; stroke-opacity:1; fill:none" points="501.5,1396.96 501.5,1378.06 "/>
<polyline clip-path="url(#clip910)" style="stroke:#000000; stroke-linecap:round; stroke-linejoin:round; stroke-width:4; stroke-opacity:1; fill:none" points="878.614,1396.96 878.614,1378.06 "/>
<polyline clip-path="url(#clip910)" style="stroke:#000000; stroke-linecap:round; stroke-linejoin:round; stroke-width:4; stroke-opacity:1; fill:none" points="1255.73,1396.96 1255.73,1378.06 "/>
<polyline clip-path="url(#clip910)" style="stroke:#000000; stroke-linecap:round; stroke-linejoin:round; stroke-width:4; stroke-opacity:1; fill:none" points="1632.84,1396.96 1632.84,1378.06 "/>
<polyline clip-path="url(#clip910)" style="stroke:#000000; stroke-linecap:round; stroke-linejoin:round; stroke-width:4; stroke-opacity:1; fill:none" points="2009.96,1396.96 2009.96,1378.06 "/>
<polyline clip-path="url(#clip910)" style="stroke:#000000; stroke-linecap:round; stroke-linejoin:round; stroke-width:4; stroke-opacity:1; fill:none" points="501.5,156.846 501.5,175.743 "/>
<polyline clip-path="url(#clip910)" style="stroke:#000000; stroke-linecap:round; stroke-linejoin:round; stroke-width:4; stroke-opacity:1; fill:none" points="878.614,156.846 878.614,175.743 "/>
<polyline clip-path="url(#clip910)" style="stroke:#000000; stroke-linecap:round; stroke-linejoin:round; stroke-width:4; stroke-opacity:1; fill:none" points="1255.73,156.846 1255.73,175.743 "/>
<polyline clip-path="url(#clip910)" style="stroke:#000000; stroke-linecap:round; stroke-linejoin:round; stroke-width:4; stroke-opacity:1; fill:none" points="1632.84,156.846 1632.84,175.743 "/>
<polyline clip-path="url(#clip910)" style="stroke:#000000; stroke-linecap:round; stroke-linejoin:round; stroke-width:4; stroke-opacity:1; fill:none" points="2009.96,156.846 2009.96,175.743 "/>
<path clip-path="url(#clip910)" d="M432.947 1442.53 L462.623 1442.53 L462.623 1446.46 L432.947 1446.46 L432.947 1442.53 Z" fill="#000000" fill-rule="nonzero" fill-opacity="1" /><path clip-path="url(#clip910)" d="M482.715 1427.87 Q479.104 1427.87 477.275 1431.44 Q475.47 1434.98 475.47 1442.11 Q475.47 1449.22 477.275 1452.78 Q479.104 1456.32 482.715 1456.32 Q486.349 1456.32 488.155 1452.78 Q489.984 1449.22 489.984 1442.11 Q489.984 1434.98 488.155 1431.44 Q486.349 1427.87 482.715 1427.87 M482.715 1424.17 Q488.525 1424.17 491.581 1428.78 Q494.66 1433.36 494.66 1442.11 Q494.66 1450.84 491.581 1455.44 Q488.525 1460.03 482.715 1460.03 Q476.905 1460.03 473.826 1455.44 Q470.771 1450.84 470.771 1442.11 Q470.771 1433.36 473.826 1428.78 Q476.905 1424.17 482.715 1424.17 Z" fill="#000000" fill-rule="nonzero" fill-opacity="1" /><path clip-path="url(#clip910)" d="M502.877 1453.48 L507.761 1453.48 L507.761 1459.36 L502.877 1459.36 L502.877 1453.48 Z" fill="#000000" fill-rule="nonzero" fill-opacity="1" /><path clip-path="url(#clip910)" d="M517.993 1424.8 L536.349 1424.8 L536.349 1428.73 L522.275 1428.73 L522.275 1437.2 Q523.294 1436.86 524.312 1436.69 Q525.331 1436.51 526.349 1436.51 Q532.136 1436.51 535.516 1439.68 Q538.895 1442.85 538.895 1448.27 Q538.895 1453.85 535.423 1456.95 Q531.951 1460.03 525.632 1460.03 Q523.456 1460.03 521.187 1459.66 Q518.942 1459.29 516.534 1458.55 L516.534 1453.85 Q518.618 1454.98 520.84 1455.54 Q523.062 1456.09 525.539 1456.09 Q529.544 1456.09 531.882 1453.99 Q534.22 1451.88 534.22 1448.27 Q534.22 1444.66 531.882 1442.55 Q529.544 1440.44 525.539 1440.44 Q523.664 1440.44 521.789 1440.86 Q519.937 1441.28 517.993 1442.16 L517.993 1424.8 Z" fill="#000000" fill-rule="nonzero" fill-opacity="1" /><path clip-path="url(#clip910)" d="M558.108 1427.87 Q554.497 1427.87 552.668 1431.44 Q550.863 1434.98 550.863 1442.11 Q550.863 1449.22 552.668 1452.78 Q554.497 1456.32 558.108 1456.32 Q561.743 1456.32 563.548 1452.78 Q565.377 1449.22 565.377 1442.11 Q565.377 1434.98 563.548 1431.44 Q561.743 1427.87 558.108 1427.87 M558.108 1424.17 Q563.918 1424.17 566.974 1428.78 Q570.053 1433.36 570.053 1442.11 Q570.053 1450.84 566.974 1455.44 Q563.918 1460.03 558.108 1460.03 Q552.298 1460.03 549.219 1455.44 Q546.164 1450.84 546.164 1442.11 Q546.164 1433.36 549.219 1428.78 Q552.298 1424.17 558.108 1424.17 Z" fill="#000000" fill-rule="nonzero" fill-opacity="1" /><path clip-path="url(#clip910)" d="M810.559 1442.53 L840.235 1442.53 L840.235 1446.46 L810.559 1446.46 L810.559 1442.53 Z" fill="#000000" fill-rule="nonzero" fill-opacity="1" /><path clip-path="url(#clip910)" d="M860.328 1427.87 Q856.716 1427.87 854.888 1431.44 Q853.082 1434.98 853.082 1442.11 Q853.082 1449.22 854.888 1452.78 Q856.716 1456.32 860.328 1456.32 Q863.962 1456.32 865.767 1452.78 Q867.596 1449.22 867.596 1442.11 Q867.596 1434.98 865.767 1431.44 Q863.962 1427.87 860.328 1427.87 M860.328 1424.17 Q866.138 1424.17 869.193 1428.78 Q872.272 1433.36 872.272 1442.11 Q872.272 1450.84 869.193 1455.44 Q866.138 1460.03 860.328 1460.03 Q854.517 1460.03 851.439 1455.44 Q848.383 1450.84 848.383 1442.11 Q848.383 1433.36 851.439 1428.78 Q854.517 1424.17 860.328 1424.17 Z" fill="#000000" fill-rule="nonzero" fill-opacity="1" /><path clip-path="url(#clip910)" d="M880.489 1453.48 L885.374 1453.48 L885.374 1459.36 L880.489 1459.36 L880.489 1453.48 Z" fill="#000000" fill-rule="nonzero" fill-opacity="1" /><path clip-path="url(#clip910)" d="M899.587 1455.42 L915.906 1455.42 L915.906 1459.36 L893.962 1459.36 L893.962 1455.42 Q896.624 1452.67 901.207 1448.04 Q905.813 1443.38 906.994 1442.04 Q909.239 1439.52 910.119 1437.78 Q911.022 1436.02 911.022 1434.33 Q911.022 1431.58 909.077 1429.84 Q907.156 1428.11 904.054 1428.11 Q901.855 1428.11 899.401 1428.87 Q896.971 1429.63 894.193 1431.18 L894.193 1426.46 Q897.017 1425.33 899.471 1424.75 Q901.925 1424.17 903.962 1424.17 Q909.332 1424.17 912.526 1426.86 Q915.721 1429.54 915.721 1434.03 Q915.721 1436.16 914.911 1438.08 Q914.124 1439.98 912.017 1442.57 Q911.438 1443.24 908.337 1446.46 Q905.235 1449.66 899.587 1455.42 Z" fill="#000000" fill-rule="nonzero" fill-opacity="1" /><path clip-path="url(#clip910)" d="M925.767 1424.8 L944.123 1424.8 L944.123 1428.73 L930.049 1428.73 L930.049 1437.2 Q931.068 1436.86 932.086 1436.69 Q933.105 1436.51 934.123 1436.51 Q939.91 1436.51 943.29 1439.68 Q946.67 1442.85 946.67 1448.27 Q946.67 1453.85 943.197 1456.95 Q939.725 1460.03 933.406 1460.03 Q931.23 1460.03 928.961 1459.66 Q926.716 1459.29 924.309 1458.55 L924.309 1453.85 Q926.392 1454.98 928.614 1455.54 Q930.836 1456.09 933.313 1456.09 Q937.318 1456.09 939.656 1453.99 Q941.994 1451.88 941.994 1448.27 Q941.994 1444.66 939.656 1442.55 Q937.318 1440.44 933.313 1440.44 Q931.438 1440.44 929.563 1440.86 Q927.711 1441.28 925.767 1442.16 L925.767 1424.8 Z" fill="#000000" fill-rule="nonzero" fill-opacity="1" /><path clip-path="url(#clip910)" d="M1218.03 1427.87 Q1214.42 1427.87 1212.59 1431.44 Q1210.79 1434.98 1210.79 1442.11 Q1210.79 1449.22 1212.59 1452.78 Q1214.42 1456.32 1218.03 1456.32 Q1221.67 1456.32 1223.47 1452.78 Q1225.3 1449.22 1225.3 1442.11 Q1225.3 1434.98 1223.47 1431.44 Q1221.67 1427.87 1218.03 1427.87 M1218.03 1424.17 Q1223.84 1424.17 1226.9 1428.78 Q1229.98 1433.36 1229.98 1442.11 Q1229.98 1450.84 1226.9 1455.44 Q1223.84 1460.03 1218.03 1460.03 Q1212.22 1460.03 1209.14 1455.44 Q1206.09 1450.84 1206.09 1442.11 Q1206.09 1433.36 1209.14 1428.78 Q1212.22 1424.17 1218.03 1424.17 Z" fill="#000000" fill-rule="nonzero" fill-opacity="1" /><path clip-path="url(#clip910)" d="M1238.19 1453.48 L1243.08 1453.48 L1243.08 1459.36 L1238.19 1459.36 L1238.19 1453.48 Z" fill="#000000" fill-rule="nonzero" fill-opacity="1" /><path clip-path="url(#clip910)" d="M1263.26 1427.87 Q1259.65 1427.87 1257.82 1431.44 Q1256.02 1434.98 1256.02 1442.11 Q1256.02 1449.22 1257.82 1452.78 Q1259.65 1456.32 1263.26 1456.32 Q1266.9 1456.32 1268.7 1452.78 Q1270.53 1449.22 1270.53 1442.11 Q1270.53 1434.98 1268.7 1431.44 Q1266.9 1427.87 1263.26 1427.87 M1263.26 1424.17 Q1269.07 1424.17 1272.13 1428.78 Q1275.21 1433.36 1275.21 1442.11 Q1275.21 1450.84 1272.13 1455.44 Q1269.07 1460.03 1263.26 1460.03 Q1257.45 1460.03 1254.38 1455.44 Q1251.32 1450.84 1251.32 1442.11 Q1251.32 1433.36 1254.38 1428.78 Q1257.45 1424.17 1263.26 1424.17 Z" fill="#000000" fill-rule="nonzero" fill-opacity="1" /><path clip-path="url(#clip910)" d="M1293.43 1427.87 Q1289.81 1427.87 1287.99 1431.44 Q1286.18 1434.98 1286.18 1442.11 Q1286.18 1449.22 1287.99 1452.78 Q1289.81 1456.32 1293.43 1456.32 Q1297.06 1456.32 1298.87 1452.78 Q1300.69 1449.22 1300.69 1442.11 Q1300.69 1434.98 1298.87 1431.44 Q1297.06 1427.87 1293.43 1427.87 M1293.43 1424.17 Q1299.24 1424.17 1302.29 1428.78 Q1305.37 1433.36 1305.37 1442.11 Q1305.37 1450.84 1302.29 1455.44 Q1299.24 1460.03 1293.43 1460.03 Q1287.62 1460.03 1284.54 1455.44 Q1281.48 1450.84 1281.48 1442.11 Q1281.48 1433.36 1284.54 1428.78 Q1287.62 1424.17 1293.43 1424.17 Z" fill="#000000" fill-rule="nonzero" fill-opacity="1" /><path clip-path="url(#clip910)" d="M1595.65 1427.87 Q1592.03 1427.87 1590.21 1431.44 Q1588.4 1434.98 1588.4 1442.11 Q1588.4 1449.22 1590.21 1452.78 Q1592.03 1456.32 1595.65 1456.32 Q1599.28 1456.32 1601.08 1452.78 Q1602.91 1449.22 1602.91 1442.11 Q1602.91 1434.98 1601.08 1431.44 Q1599.28 1427.87 1595.65 1427.87 M1595.65 1424.17 Q1601.46 1424.17 1604.51 1428.78 Q1607.59 1433.36 1607.59 1442.11 Q1607.59 1450.84 1604.51 1455.44 Q1601.46 1460.03 1595.65 1460.03 Q1589.83 1460.03 1586.76 1455.44 Q1583.7 1450.84 1583.7 1442.11 Q1583.7 1433.36 1586.76 1428.78 Q1589.83 1424.17 1595.65 1424.17 Z" fill="#000000" fill-rule="nonzero" fill-opacity="1" /><path clip-path="url(#clip910)" d="M1615.81 1453.48 L1620.69 1453.48 L1620.69 1459.36 L1615.81 1459.36 L1615.81 1453.48 Z" fill="#000000" fill-rule="nonzero" fill-opacity="1" /><path clip-path="url(#clip910)" d="M1634.9 1455.42 L1651.22 1455.42 L1651.22 1459.36 L1629.28 1459.36 L1629.28 1455.42 Q1631.94 1452.67 1636.52 1448.04 Q1641.13 1443.38 1642.31 1442.04 Q1644.56 1439.52 1645.44 1437.78 Q1646.34 1436.02 1646.34 1434.33 Q1646.34 1431.58 1644.39 1429.84 Q1642.47 1428.11 1639.37 1428.11 Q1637.17 1428.11 1634.72 1428.87 Q1632.29 1429.63 1629.51 1431.18 L1629.51 1426.46 Q1632.33 1425.33 1634.79 1424.75 Q1637.24 1424.17 1639.28 1424.17 Q1644.65 1424.17 1647.84 1426.86 Q1651.04 1429.54 1651.04 1434.03 Q1651.04 1436.16 1650.23 1438.08 Q1649.44 1439.98 1647.33 1442.57 Q1646.76 1443.24 1643.65 1446.46 Q1640.55 1449.66 1634.9 1455.42 Z" fill="#000000" fill-rule="nonzero" fill-opacity="1" /><path clip-path="url(#clip910)" d="M1661.08 1424.8 L1679.44 1424.8 L1679.44 1428.73 L1665.37 1428.73 L1665.37 1437.2 Q1666.39 1436.86 1667.4 1436.69 Q1668.42 1436.51 1669.44 1436.51 Q1675.23 1436.51 1678.61 1439.68 Q1681.99 1442.85 1681.99 1448.27 Q1681.99 1453.85 1678.51 1456.95 Q1675.04 1460.03 1668.72 1460.03 Q1666.55 1460.03 1664.28 1459.66 Q1662.03 1459.29 1659.63 1458.55 L1659.63 1453.85 Q1661.71 1454.98 1663.93 1455.54 Q1666.15 1456.09 1668.63 1456.09 Q1672.64 1456.09 1674.97 1453.99 Q1677.31 1451.88 1677.31 1448.27 Q1677.31 1444.66 1674.97 1442.55 Q1672.64 1440.44 1668.63 1440.44 Q1666.76 1440.44 1664.88 1440.86 Q1663.03 1441.28 1661.08 1442.16 L1661.08 1424.8 Z" fill="#000000" fill-rule="nonzero" fill-opacity="1" /><path clip-path="url(#clip910)" d="M1972.26 1427.87 Q1968.65 1427.87 1966.82 1431.44 Q1965.02 1434.98 1965.02 1442.11 Q1965.02 1449.22 1966.82 1452.78 Q1968.65 1456.32 1972.26 1456.32 Q1975.9 1456.32 1977.7 1452.78 Q1979.53 1449.22 1979.53 1442.11 Q1979.53 1434.98 1977.7 1431.44 Q1975.9 1427.87 1972.26 1427.87 M1972.26 1424.17 Q1978.07 1424.17 1981.13 1428.78 Q1984.21 1433.36 1984.21 1442.11 Q1984.21 1450.84 1981.13 1455.44 Q1978.07 1460.03 1972.26 1460.03 Q1966.45 1460.03 1963.37 1455.44 Q1960.32 1450.84 1960.32 1442.11 Q1960.32 1433.36 1963.37 1428.78 Q1966.45 1424.17 1972.26 1424.17 Z" fill="#000000" fill-rule="nonzero" fill-opacity="1" /><path clip-path="url(#clip910)" d="M1992.42 1453.48 L1997.31 1453.48 L1997.31 1459.36 L1992.42 1459.36 L1992.42 1453.48 Z" fill="#000000" fill-rule="nonzero" fill-opacity="1" /><path clip-path="url(#clip910)" d="M2007.54 1424.8 L2025.9 1424.8 L2025.9 1428.73 L2011.82 1428.73 L2011.82 1437.2 Q2012.84 1436.86 2013.86 1436.69 Q2014.88 1436.51 2015.9 1436.51 Q2021.68 1436.51 2025.06 1439.68 Q2028.44 1442.85 2028.44 1448.27 Q2028.44 1453.85 2024.97 1456.95 Q2021.5 1460.03 2015.18 1460.03 Q2013 1460.03 2010.73 1459.66 Q2008.49 1459.29 2006.08 1458.55 L2006.08 1453.85 Q2008.16 1454.98 2010.39 1455.54 Q2012.61 1456.09 2015.09 1456.09 Q2019.09 1456.09 2021.43 1453.99 Q2023.77 1451.88 2023.77 1448.27 Q2023.77 1444.66 2021.43 1442.55 Q2019.09 1440.44 2015.09 1440.44 Q2013.21 1440.44 2011.34 1440.86 Q2009.48 1441.28 2007.54 1442.16 L2007.54 1424.8 Z" fill="#000000" fill-rule="nonzero" fill-opacity="1" /><path clip-path="url(#clip910)" d="M2047.66 1427.87 Q2044.04 1427.87 2042.22 1431.44 Q2040.41 1434.98 2040.41 1442.11 Q2040.41 1449.22 2042.22 1452.78 Q2044.04 1456.32 2047.66 1456.32 Q2051.29 1456.32 2053.09 1452.78 Q2054.92 1449.22 2054.92 1442.11 Q2054.92 1434.98 2053.09 1431.44 Q2051.29 1427.87 2047.66 1427.87 M2047.66 1424.17 Q2053.47 1424.17 2056.52 1428.78 Q2059.6 1433.36 2059.6 1442.11 Q2059.6 1450.84 2056.52 1455.44 Q2053.47 1460.03 2047.66 1460.03 Q2041.85 1460.03 2038.77 1455.44 Q2035.71 1450.84 2035.71 1442.11 Q2035.71 1433.36 2038.77 1428.78 Q2041.85 1424.17 2047.66 1424.17 Z" fill="#000000" fill-rule="nonzero" fill-opacity="1" /><path clip-path="url(#clip910)" d="M1273.72 1554.62 Q1273.72 1555.23 1273.46 1555.55 Q1273.23 1555.84 1273.01 1555.91 Q1272.82 1555.94 1272.53 1555.94 Q1271.69 1555.94 1268.79 1555.84 Q1265.89 1555.75 1265.05 1555.75 Q1263.7 1555.75 1260.93 1555.84 Q1258.16 1555.94 1256.81 1555.94 Q1255.91 1555.94 1255.91 1555.2 Q1255.91 1554.72 1256 1554.46 Q1256.1 1554.17 1256.36 1554.07 Q1256.65 1553.94 1256.81 1553.94 Q1257 1553.91 1257.49 1553.91 Q1258.13 1553.91 1258.81 1553.85 Q1259.48 1553.75 1260.32 1553.56 Q1261.16 1553.36 1261.67 1552.88 Q1262.22 1552.4 1262.22 1551.72 Q1262.22 1551.43 1261.99 1549.05 Q1261.77 1546.66 1261.48 1543.89 Q1261.19 1541.09 1261.16 1540.71 L1244.6 1540.71 Q1243.09 1543.31 1242.03 1545.12 Q1240.96 1546.92 1240.58 1547.53 Q1240.19 1548.15 1239.97 1548.53 Q1239.74 1548.92 1239.61 1549.14 Q1238.68 1550.85 1238.68 1551.59 Q1238.68 1553.65 1241.77 1553.91 Q1242.83 1553.91 1242.83 1554.68 Q1242.83 1555.26 1242.57 1555.58 Q1242.32 1555.87 1242.09 1555.91 Q1241.9 1555.94 1241.58 1555.94 Q1240.51 1555.94 1238.29 1555.84 Q1236.07 1555.75 1234.97 1555.75 Q1234.04 1555.75 1232.11 1555.84 Q1230.17 1555.94 1229.31 1555.94 Q1228.92 1555.94 1228.69 1555.71 Q1228.47 1555.49 1228.47 1555.2 Q1228.47 1554.75 1228.53 1554.49 Q1228.63 1554.23 1228.89 1554.1 Q1229.14 1553.97 1229.27 1553.97 Q1229.4 1553.94 1229.85 1553.91 Q1232.3 1553.75 1234.2 1552.59 Q1236.13 1551.4 1237.97 1548.34 L1260.9 1509.82 Q1261.12 1509.43 1261.29 1509.24 Q1261.45 1509.05 1261.77 1508.89 Q1262.12 1508.73 1262.64 1508.73 Q1263.44 1508.73 1263.6 1508.98 Q1263.77 1509.21 1263.86 1510.3 L1267.89 1551.53 Q1267.98 1552.4 1268.05 1552.75 Q1268.15 1553.07 1268.56 1553.43 Q1269.02 1553.75 1269.82 1553.85 Q1270.66 1553.91 1272.2 1553.91 Q1272.78 1553.91 1273.01 1553.94 Q1273.23 1553.94 1273.46 1554.1 Q1273.72 1554.26 1273.72 1554.62 M1260.96 1538.64 L1258.87 1516.91 L1245.86 1538.64 L1260.96 1538.64 Z" fill="#000000" fill-rule="nonzero" fill-opacity="1" /><path clip-path="url(#clip910)" d="M1280.32 1496.49 Q1280.32 1488.69 1283.23 1482.4 Q1284.47 1479.76 1286.2 1477.55 Q1287.94 1475.34 1289.09 1474.38 Q1290.24 1473.41 1290.56 1473.41 Q1291.01 1473.41 1291.03 1473.86 Q1291.03 1474.08 1290.42 1474.65 Q1282.98 1482.22 1283 1496.49 Q1283 1510.81 1290.24 1518.09 Q1291.03 1518.88 1291.03 1519.13 Q1291.03 1519.58 1290.56 1519.58 Q1290.24 1519.58 1289.14 1518.65 Q1288.03 1517.73 1286.32 1515.61 Q1284.6 1513.49 1283.36 1510.9 Q1280.32 1504.61 1280.32 1496.49 Z" fill="#000000" fill-rule="nonzero" fill-opacity="1" /><path clip-path="url(#clip910)" d="M1295.46 1508.03 Q1295.46 1507.2 1295.53 1506.95 Q1295.62 1506.7 1295.98 1506.32 L1304.84 1496.45 Q1309.69 1490.99 1309.69 1486.23 Q1309.69 1483.15 1308.06 1480.94 Q1306.46 1478.73 1303.51 1478.73 Q1301.48 1478.73 1299.77 1479.97 Q1298.05 1481.21 1297.27 1483.42 Q1297.4 1483.37 1297.87 1483.37 Q1299.02 1483.37 1299.66 1484.09 Q1300.31 1484.81 1300.31 1485.78 Q1300.31 1487.02 1299.5 1487.63 Q1298.71 1488.22 1297.92 1488.22 Q1297.6 1488.22 1297.18 1488.15 Q1296.77 1488.08 1296.12 1487.45 Q1295.46 1486.8 1295.46 1485.65 Q1295.46 1482.42 1297.9 1479.85 Q1300.35 1477.28 1304.1 1477.28 Q1308.34 1477.28 1311.11 1479.81 Q1313.9 1482.31 1313.9 1486.23 Q1313.9 1487.61 1313.48 1488.87 Q1313.07 1490.11 1312.51 1491.08 Q1311.96 1492.05 1310.48 1493.61 Q1308.99 1495.16 1307.79 1496.27 Q1306.6 1497.37 1303.92 1499.72 L1299.02 1504.47 L1307.34 1504.47 Q1311.4 1504.47 1311.72 1504.11 Q1312.17 1503.46 1312.73 1500.01 L1313.9 1500.01 L1312.6 1508.03 L1295.46 1508.03 Z" fill="#000000" fill-rule="nonzero" fill-opacity="1" /><path clip-path="url(#clip910)" d="M1319.44 1519.13 Q1319.44 1518.9 1320.02 1518.34 Q1327.46 1510.76 1327.46 1496.49 Q1327.46 1482.18 1320.32 1474.94 Q1319.44 1474.1 1319.44 1473.86 Q1319.44 1473.41 1319.89 1473.41 Q1320.2 1473.41 1321.31 1474.33 Q1322.43 1475.25 1324.13 1477.37 Q1325.84 1479.49 1327.1 1482.09 Q1330.14 1488.38 1330.14 1496.49 Q1330.14 1504.29 1327.24 1510.58 Q1326 1513.22 1324.26 1515.43 Q1322.52 1517.64 1321.37 1518.61 Q1320.23 1519.58 1319.89 1519.58 Q1319.44 1519.58 1319.44 1519.13 Z" fill="#000000" fill-rule="nonzero" fill-opacity="1" /><path clip-path="url(#clip910)" d="M1292.11 1546.12 Q1292.11 1547.11 1291.3 1547.86 Q1290.51 1548.58 1289.65 1548.58 Q1288.86 1548.58 1288.37 1548.1 Q1287.9 1547.61 1287.9 1546.91 Q1287.9 1545.99 1288.68 1545.22 Q1289.47 1544.45 1290.4 1544.45 Q1291.16 1544.45 1291.64 1544.93 Q1292.11 1545.4 1292.11 1546.12 M1292.52 1568.37 Q1292.52 1568.55 1292.31 1569.27 Q1292.11 1569.97 1291.61 1571.05 Q1291.14 1572.11 1290.49 1573.11 Q1289.83 1574.1 1288.75 1574.8 Q1287.69 1575.5 1286.47 1575.5 Q1284.83 1575.5 1283.75 1574.41 Q1282.69 1573.33 1282.69 1571.71 Q1282.69 1570.83 1283.75 1568.01 Q1286.81 1559.8 1286.93 1559.47 Q1287.44 1558.18 1287.44 1557.05 Q1287.44 1556.54 1287.33 1556.22 Q1287.22 1555.88 1286.99 1555.77 Q1286.77 1555.63 1286.63 1555.61 Q1286.52 1555.59 1286.29 1555.59 Q1284.96 1555.59 1283.72 1556.94 Q1282.48 1558.29 1281.63 1561.32 Q1281.45 1561.88 1281.33 1562.01 Q1281.22 1562.15 1280.88 1562.15 Q1280.32 1562.13 1280.32 1561.68 Q1280.32 1561.54 1280.48 1561.02 Q1280.64 1560.48 1280.93 1559.67 Q1281.22 1558.84 1281.74 1557.98 Q1282.26 1557.1 1282.89 1556.33 Q1283.54 1555.57 1284.47 1555.07 Q1285.39 1554.57 1286.43 1554.57 Q1288.12 1554.57 1289.16 1555.68 Q1290.22 1556.76 1290.22 1558.36 Q1290.22 1559.24 1289.61 1560.8 Q1288.86 1562.83 1288.59 1563.48 L1286.79 1568.33 Q1286.14 1570.08 1285.93 1570.63 Q1285.75 1571.14 1285.6 1571.78 Q1285.46 1572.38 1285.46 1572.95 Q1285.46 1573.74 1285.71 1574.1 Q1285.98 1574.46 1286.57 1574.46 Q1288.19 1574.46 1289.38 1572.86 Q1290.58 1571.23 1291.28 1568.75 Q1291.3 1568.69 1291.32 1568.57 Q1291.5 1568.01 1291.68 1567.94 Q1291.77 1567.92 1291.95 1567.92 Q1292.52 1567.92 1292.52 1568.37 Z" fill="#000000" fill-rule="nonzero" fill-opacity="1" /><path clip-path="url(#clip910)" d="M1307.94 1546.12 Q1307.94 1547.04 1307.15 1547.81 Q1306.37 1548.58 1305.44 1548.58 Q1304.67 1548.58 1304.2 1548.1 Q1303.75 1547.63 1303.75 1546.91 Q1303.75 1545.92 1304.54 1545.2 Q1305.33 1544.45 1306.18 1544.45 Q1306.97 1544.45 1307.45 1544.95 Q1307.94 1545.42 1307.94 1546.12 M1306.23 1558.81 Q1306.23 1559.6 1306 1560.53 L1301.77 1577.43 Q1301.36 1579.08 1300.39 1580.43 Q1299.42 1581.81 1298.18 1582.66 Q1296.96 1583.52 1295.63 1583.97 Q1294.33 1584.45 1293.09 1584.45 Q1291.35 1584.45 1290.18 1583.68 Q1289.01 1582.91 1289.01 1581.58 Q1289.01 1580.41 1289.77 1579.67 Q1290.56 1578.94 1291.51 1578.94 Q1292.37 1578.94 1292.82 1579.44 Q1293.27 1579.94 1293.27 1580.57 Q1293.27 1581.33 1292.7 1582.06 Q1292.16 1582.78 1291.19 1583 Q1292.07 1583.43 1293 1583.43 Q1294.89 1583.43 1296.42 1581.7 Q1297.98 1579.98 1298.66 1577.28 L1303.01 1560.05 Q1303.32 1558.68 1303.32 1557.71 Q1303.32 1556.81 1303.07 1556.31 Q1302.83 1555.81 1302.53 1555.7 Q1302.26 1555.59 1301.86 1555.59 Q1300.08 1555.59 1298.54 1557.23 Q1297.01 1558.86 1296.04 1561.23 Q1295.77 1561.88 1295.63 1562.01 Q1295.52 1562.15 1295.21 1562.15 Q1294.64 1562.13 1294.64 1561.68 Q1294.64 1561.54 1294.87 1561 Q1295.09 1560.46 1295.5 1559.67 Q1295.9 1558.86 1296.56 1557.98 Q1297.21 1557.1 1297.98 1556.33 Q1298.77 1555.57 1299.83 1555.07 Q1300.89 1554.57 1301.99 1554.57 Q1303.77 1554.57 1304.99 1555.75 Q1306.23 1556.9 1306.23 1558.81 Z" fill="#000000" fill-rule="nonzero" fill-opacity="1" /><path clip-path="url(#clip910)" d="M1333.72 1557.48 Q1333.72 1558.77 1332.93 1559.53 Q1332.16 1560.3 1331.19 1560.3 Q1330.34 1560.3 1329.88 1559.8 Q1329.43 1559.31 1329.43 1558.68 Q1329.43 1558.41 1329.55 1558.07 Q1329.66 1557.71 1329.91 1557.28 Q1330.18 1556.85 1330.74 1556.54 Q1331.31 1556.22 1332.07 1556.18 Q1331.91 1556.02 1331.87 1555.99 Q1331.53 1555.72 1330.9 1555.63 Q1330.81 1555.59 1330.49 1555.59 Q1328.94 1555.59 1327.36 1556.74 Q1325.8 1557.87 1323.89 1560.01 Q1321.48 1562.51 1319.92 1563.43 Q1326.75 1564.34 1326.75 1568.28 Q1326.75 1568.94 1326.57 1569.72 Q1326.21 1571.21 1326.21 1572.29 Q1326.21 1574.46 1327.68 1574.46 Q1329.1 1574.46 1330 1573.02 Q1330.92 1571.57 1331.69 1568.75 Q1331.8 1568.24 1331.91 1568.08 Q1332.03 1567.92 1332.34 1567.92 Q1332.91 1567.92 1332.91 1568.37 Q1332.39 1571.01 1331.24 1573.04 Q1329.77 1575.5 1327.59 1575.5 Q1325.76 1575.5 1324.54 1574.23 Q1323.35 1572.95 1323.35 1570.92 Q1323.35 1570.42 1323.53 1569.3 Q1323.66 1568.84 1323.66 1568.33 Q1323.66 1567.27 1323.08 1566.48 Q1322.49 1565.67 1321.54 1565.26 Q1320.6 1564.85 1319.81 1564.67 Q1319.04 1564.47 1318.3 1564.4 Q1316.04 1573.94 1315.73 1574.53 Q1315.52 1574.93 1315.07 1575.2 Q1314.62 1575.5 1314.15 1575.5 Q1313.7 1575.5 1313.25 1575.18 Q1312.82 1574.89 1312.82 1574.19 Q1312.82 1573.83 1313 1573.17 L1319.7 1546.57 L1319.83 1545.67 Q1319.83 1545.4 1319.72 1545.26 Q1319.63 1545.11 1319.09 1544.99 Q1318.57 1544.88 1317.53 1544.88 Q1317.1 1544.88 1316.9 1544.86 Q1316.72 1544.84 1316.56 1544.72 Q1316.4 1544.59 1316.4 1544.32 Q1316.4 1543.93 1316.56 1543.73 Q1316.74 1543.51 1316.88 1543.46 Q1317.01 1543.42 1317.28 1543.39 Q1317.67 1543.37 1318.95 1543.26 Q1320.24 1543.12 1321.34 1543.03 Q1322.45 1542.94 1322.92 1542.94 Q1323.19 1542.94 1323.32 1543.08 Q1323.48 1543.19 1323.5 1543.33 L1323.53 1543.44 L1318.73 1562.92 Q1320.71 1562.13 1323.84 1558.63 Q1327.47 1554.57 1330.58 1554.57 Q1332.05 1554.57 1332.88 1555.48 Q1333.72 1556.36 1333.72 1557.48 Z" fill="#000000" fill-rule="nonzero" fill-opacity="1" /><path clip-path="url(#clip910)" d="M1347.63 1543.44 L1340.98 1570.13 Q1340.71 1571.19 1340.71 1572.34 Q1340.71 1574.46 1342.1 1574.46 Q1342.76 1574.46 1343.3 1574.03 Q1343.84 1573.58 1344.25 1572.7 Q1344.67 1571.8 1344.94 1570.94 Q1345.24 1570.08 1345.6 1568.75 Q1345.71 1568.24 1345.82 1568.08 Q1345.94 1567.92 1346.25 1567.92 Q1346.82 1567.92 1346.82 1568.37 Q1346.25 1571.14 1345.42 1572.9 Q1344.2 1575.5 1341.95 1575.5 Q1340.26 1575.5 1338.99 1574.32 Q1337.75 1573.13 1337.75 1571.23 Q1337.75 1570.51 1337.98 1569.66 L1343.79 1546.57 L1343.95 1545.67 Q1343.95 1545.42 1343.86 1545.29 Q1343.77 1545.15 1343.23 1545.02 Q1342.71 1544.88 1341.68 1544.88 Q1341.25 1544.88 1341.04 1544.86 Q1340.86 1544.84 1340.68 1544.72 Q1340.53 1544.61 1340.53 1544.36 Q1340.53 1543.96 1340.68 1543.73 Q1340.86 1543.51 1341 1543.46 Q1341.13 1543.42 1341.41 1543.39 Q1341.79 1543.37 1343.07 1543.26 Q1344.36 1543.12 1345.46 1543.03 Q1346.57 1542.94 1347.04 1542.94 Q1347.31 1542.94 1347.45 1543.08 Q1347.6 1543.19 1347.63 1543.33 L1347.63 1543.44 Z" fill="#000000" fill-rule="nonzero" fill-opacity="1" /><polyline clip-path="url(#clip910)" style="stroke:#000000; stroke-linecap:round; stroke-linejoin:round; stroke-width:4; stroke-opacity:1; fill:none" points="234.125,1396.96 234.125,156.846 "/>
<polyline clip-path="url(#clip910)" style="stroke:#000000; stroke-linecap:round; stroke-linejoin:round; stroke-width:4; stroke-opacity:1; fill:none" points="2352.76,1396.96 2352.76,156.846 "/>
<polyline clip-path="url(#clip910)" style="stroke:#000000; stroke-linecap:round; stroke-linejoin:round; stroke-width:4; stroke-opacity:1; fill:none" points="234.125,1396.96 253.023,1396.96 "/>
<polyline clip-path="url(#clip910)" style="stroke:#000000; stroke-linecap:round; stroke-linejoin:round; stroke-width:4; stroke-opacity:1; fill:none" points="234.125,1152.84 253.023,1152.84 "/>
<polyline clip-path="url(#clip910)" style="stroke:#000000; stroke-linecap:round; stroke-linejoin:round; stroke-width:4; stroke-opacity:1; fill:none" points="234.125,908.723 253.023,908.723 "/>
<polyline clip-path="url(#clip910)" style="stroke:#000000; stroke-linecap:round; stroke-linejoin:round; stroke-width:4; stroke-opacity:1; fill:none" points="234.125,664.607 253.023,664.607 "/>
<polyline clip-path="url(#clip910)" style="stroke:#000000; stroke-linecap:round; stroke-linejoin:round; stroke-width:4; stroke-opacity:1; fill:none" points="234.125,420.491 253.023,420.491 "/>
<polyline clip-path="url(#clip910)" style="stroke:#000000; stroke-linecap:round; stroke-linejoin:round; stroke-width:4; stroke-opacity:1; fill:none" points="234.125,176.375 253.023,176.375 "/>
<polyline clip-path="url(#clip910)" style="stroke:#000000; stroke-linecap:round; stroke-linejoin:round; stroke-width:4; stroke-opacity:1; fill:none" points="2352.76,1396.96 2333.86,1396.96 "/>
<polyline clip-path="url(#clip910)" style="stroke:#000000; stroke-linecap:round; stroke-linejoin:round; stroke-width:4; stroke-opacity:1; fill:none" points="2352.76,1152.84 2333.86,1152.84 "/>
<polyline clip-path="url(#clip910)" style="stroke:#000000; stroke-linecap:round; stroke-linejoin:round; stroke-width:4; stroke-opacity:1; fill:none" points="2352.76,908.723 2333.86,908.723 "/>
<polyline clip-path="url(#clip910)" style="stroke:#000000; stroke-linecap:round; stroke-linejoin:round; stroke-width:4; stroke-opacity:1; fill:none" points="2352.76,664.607 2333.86,664.607 "/>
<polyline clip-path="url(#clip910)" style="stroke:#000000; stroke-linecap:round; stroke-linejoin:round; stroke-width:4; stroke-opacity:1; fill:none" points="2352.76,420.491 2333.86,420.491 "/>
<polyline clip-path="url(#clip910)" style="stroke:#000000; stroke-linecap:round; stroke-linejoin:round; stroke-width:4; stroke-opacity:1; fill:none" points="2352.76,176.375 2333.86,176.375 "/>
<path clip-path="url(#clip910)" d="M186.181 1382.75 Q182.57 1382.75 180.741 1386.32 Q178.936 1389.86 178.936 1396.99 Q178.936 1404.1 180.741 1407.66 Q182.57 1411.2 186.181 1411.2 Q189.815 1411.2 191.621 1407.66 Q193.45 1404.1 193.45 1396.99 Q193.45 1389.86 191.621 1386.32 Q189.815 1382.75 186.181 1382.75 M186.181 1379.05 Q191.991 1379.05 195.047 1383.66 Q198.125 1388.24 198.125 1396.99 Q198.125 1405.72 195.047 1410.32 Q191.991 1414.91 186.181 1414.91 Q180.371 1414.91 177.292 1410.32 Q174.237 1405.72 174.237 1396.99 Q174.237 1388.24 177.292 1383.66 Q180.371 1379.05 186.181 1379.05 Z" fill="#000000" fill-rule="nonzero" fill-opacity="1" /><path clip-path="url(#clip910)" d="M146.066 1135.56 L164.422 1135.56 L164.422 1139.49 L150.348 1139.49 L150.348 1147.97 Q151.366 1147.62 152.385 1147.46 Q153.403 1147.27 154.422 1147.27 Q160.209 1147.27 163.589 1150.44 Q166.968 1153.61 166.968 1159.03 Q166.968 1164.61 163.496 1167.71 Q160.024 1170.79 153.704 1170.79 Q151.528 1170.79 149.26 1170.42 Q147.015 1170.05 144.607 1169.31 L144.607 1164.61 Q146.691 1165.74 148.913 1166.3 Q151.135 1166.86 153.612 1166.86 Q157.616 1166.86 159.954 1164.75 Q162.292 1162.64 162.292 1159.03 Q162.292 1155.42 159.954 1153.31 Q157.616 1151.21 153.612 1151.21 Q151.737 1151.21 149.862 1151.62 Q148.01 1152.04 146.066 1152.92 L146.066 1135.56 Z" fill="#000000" fill-rule="nonzero" fill-opacity="1" /><path clip-path="url(#clip910)" d="M186.181 1138.64 Q182.57 1138.64 180.741 1142.2 Q178.936 1145.74 178.936 1152.87 Q178.936 1159.98 180.741 1163.55 Q182.57 1167.09 186.181 1167.09 Q189.815 1167.09 191.621 1163.55 Q193.45 1159.98 193.45 1152.87 Q193.45 1145.74 191.621 1142.2 Q189.815 1138.64 186.181 1138.64 M186.181 1134.93 Q191.991 1134.93 195.047 1139.54 Q198.125 1144.12 198.125 1152.87 Q198.125 1161.6 195.047 1166.21 Q191.991 1170.79 186.181 1170.79 Q180.371 1170.79 177.292 1166.21 Q174.237 1161.6 174.237 1152.87 Q174.237 1144.12 177.292 1139.54 Q180.371 1134.93 186.181 1134.93 Z" fill="#000000" fill-rule="nonzero" fill-opacity="1" /><path clip-path="url(#clip910)" d="M116.668 922.068 L124.306 922.068 L124.306 895.702 L115.996 897.369 L115.996 893.11 L124.26 891.443 L128.936 891.443 L128.936 922.068 L136.575 922.068 L136.575 926.003 L116.668 926.003 L116.668 922.068 Z" fill="#000000" fill-rule="nonzero" fill-opacity="1" /><path clip-path="url(#clip910)" d="M156.019 894.522 Q152.408 894.522 150.579 898.087 Q148.774 901.628 148.774 908.758 Q148.774 915.864 150.579 919.429 Q152.408 922.971 156.019 922.971 Q159.653 922.971 161.459 919.429 Q163.288 915.864 163.288 908.758 Q163.288 901.628 161.459 898.087 Q159.653 894.522 156.019 894.522 M156.019 890.818 Q161.829 890.818 164.885 895.425 Q167.964 900.008 167.964 908.758 Q167.964 917.485 164.885 922.091 Q161.829 926.675 156.019 926.675 Q150.209 926.675 147.13 922.091 Q144.075 917.485 144.075 908.758 Q144.075 900.008 147.13 895.425 Q150.209 890.818 156.019 890.818 Z" fill="#000000" fill-rule="nonzero" fill-opacity="1" /><path clip-path="url(#clip910)" d="M186.181 894.522 Q182.57 894.522 180.741 898.087 Q178.936 901.628 178.936 908.758 Q178.936 915.864 180.741 919.429 Q182.57 922.971 186.181 922.971 Q189.815 922.971 191.621 919.429 Q193.45 915.864 193.45 908.758 Q193.45 901.628 191.621 898.087 Q189.815 894.522 186.181 894.522 M186.181 890.818 Q191.991 890.818 195.047 895.425 Q198.125 900.008 198.125 908.758 Q198.125 917.485 195.047 922.091 Q191.991 926.675 186.181 926.675 Q180.371 926.675 177.292 922.091 Q174.237 917.485 174.237 908.758 Q174.237 900.008 177.292 895.425 Q180.371 890.818 186.181 890.818 Z" fill="#000000" fill-rule="nonzero" fill-opacity="1" /><path clip-path="url(#clip910)" d="M116.668 677.952 L124.306 677.952 L124.306 651.586 L115.996 653.253 L115.996 648.994 L124.26 647.327 L128.936 647.327 L128.936 677.952 L136.575 677.952 L136.575 681.887 L116.668 681.887 L116.668 677.952 Z" fill="#000000" fill-rule="nonzero" fill-opacity="1" /><path clip-path="url(#clip910)" d="M146.066 647.327 L164.422 647.327 L164.422 651.262 L150.348 651.262 L150.348 659.734 Q151.366 659.387 152.385 659.225 Q153.403 659.04 154.422 659.04 Q160.209 659.04 163.589 662.211 Q166.968 665.383 166.968 670.799 Q166.968 676.378 163.496 679.48 Q160.024 682.558 153.704 682.558 Q151.528 682.558 149.26 682.188 Q147.015 681.818 144.607 681.077 L144.607 676.378 Q146.691 677.512 148.913 678.068 Q151.135 678.623 153.612 678.623 Q157.616 678.623 159.954 676.517 Q162.292 674.41 162.292 670.799 Q162.292 667.188 159.954 665.082 Q157.616 662.975 153.612 662.975 Q151.737 662.975 149.862 663.392 Q148.01 663.808 146.066 664.688 L146.066 647.327 Z" fill="#000000" fill-rule="nonzero" fill-opacity="1" /><path clip-path="url(#clip910)" d="M186.181 650.406 Q182.57 650.406 180.741 653.971 Q178.936 657.512 178.936 664.642 Q178.936 671.748 180.741 675.313 Q182.57 678.855 186.181 678.855 Q189.815 678.855 191.621 675.313 Q193.45 671.748 193.45 664.642 Q193.45 657.512 191.621 653.971 Q189.815 650.406 186.181 650.406 M186.181 646.702 Q191.991 646.702 195.047 651.309 Q198.125 655.892 198.125 664.642 Q198.125 673.369 195.047 677.975 Q191.991 682.558 186.181 682.558 Q180.371 682.558 177.292 677.975 Q174.237 673.369 174.237 664.642 Q174.237 655.892 177.292 651.309 Q180.371 646.702 186.181 646.702 Z" fill="#000000" fill-rule="nonzero" fill-opacity="1" /><path clip-path="url(#clip910)" d="M119.885 433.836 L136.204 433.836 L136.204 437.771 L114.26 437.771 L114.26 433.836 Q116.922 431.081 121.505 426.452 Q126.112 421.799 127.292 420.456 Q129.538 417.933 130.417 416.197 Q131.32 414.438 131.32 412.748 Q131.32 409.993 129.376 408.257 Q127.455 406.521 124.353 406.521 Q122.154 406.521 119.7 407.285 Q117.269 408.049 114.492 409.6 L114.492 404.878 Q117.316 403.743 119.769 403.165 Q122.223 402.586 124.26 402.586 Q129.63 402.586 132.825 405.271 Q136.019 407.956 136.019 412.447 Q136.019 414.577 135.209 416.498 Q134.422 418.396 132.316 420.989 Q131.737 421.66 128.635 424.878 Q125.533 428.072 119.885 433.836 Z" fill="#000000" fill-rule="nonzero" fill-opacity="1" /><path clip-path="url(#clip910)" d="M156.019 406.29 Q152.408 406.29 150.579 409.854 Q148.774 413.396 148.774 420.526 Q148.774 427.632 150.579 431.197 Q152.408 434.739 156.019 434.739 Q159.653 434.739 161.459 431.197 Q163.288 427.632 163.288 420.526 Q163.288 413.396 161.459 409.854 Q159.653 406.29 156.019 406.29 M156.019 402.586 Q161.829 402.586 164.885 407.192 Q167.964 411.776 167.964 420.526 Q167.964 429.253 164.885 433.859 Q161.829 438.442 156.019 438.442 Q150.209 438.442 147.13 433.859 Q144.075 429.253 144.075 420.526 Q144.075 411.776 147.13 407.192 Q150.209 402.586 156.019 402.586 Z" fill="#000000" fill-rule="nonzero" fill-opacity="1" /><path clip-path="url(#clip910)" d="M186.181 406.29 Q182.57 406.29 180.741 409.854 Q178.936 413.396 178.936 420.526 Q178.936 427.632 180.741 431.197 Q182.57 434.739 186.181 434.739 Q189.815 434.739 191.621 431.197 Q193.45 427.632 193.45 420.526 Q193.45 413.396 191.621 409.854 Q189.815 406.29 186.181 406.29 M186.181 402.586 Q191.991 402.586 195.047 407.192 Q198.125 411.776 198.125 420.526 Q198.125 429.253 195.047 433.859 Q191.991 438.442 186.181 438.442 Q180.371 438.442 177.292 433.859 Q174.237 429.253 174.237 420.526 Q174.237 411.776 177.292 407.192 Q180.371 402.586 186.181 402.586 Z" fill="#000000" fill-rule="nonzero" fill-opacity="1" /><path clip-path="url(#clip910)" d="M119.885 189.72 L136.204 189.72 L136.204 193.655 L114.26 193.655 L114.26 189.72 Q116.922 186.965 121.505 182.335 Q126.112 177.683 127.292 176.34 Q129.538 173.817 130.417 172.081 Q131.32 170.322 131.32 168.632 Q131.32 165.877 129.376 164.141 Q127.455 162.405 124.353 162.405 Q122.154 162.405 119.7 163.169 Q117.269 163.933 114.492 165.484 L114.492 160.762 Q117.316 159.627 119.769 159.049 Q122.223 158.47 124.26 158.47 Q129.63 158.47 132.825 161.155 Q136.019 163.84 136.019 168.331 Q136.019 170.461 135.209 172.382 Q134.422 174.28 132.316 176.873 Q131.737 177.544 128.635 180.761 Q125.533 183.956 119.885 189.72 Z" fill="#000000" fill-rule="nonzero" fill-opacity="1" /><path clip-path="url(#clip910)" d="M146.066 159.095 L164.422 159.095 L164.422 163.03 L150.348 163.03 L150.348 171.502 Q151.366 171.155 152.385 170.993 Q153.403 170.808 154.422 170.808 Q160.209 170.808 163.589 173.979 Q166.968 177.15 166.968 182.567 Q166.968 188.146 163.496 191.247 Q160.024 194.326 153.704 194.326 Q151.528 194.326 149.26 193.956 Q147.015 193.585 144.607 192.845 L144.607 188.146 Q146.691 189.28 148.913 189.835 Q151.135 190.391 153.612 190.391 Q157.616 190.391 159.954 188.285 Q162.292 186.178 162.292 182.567 Q162.292 178.956 159.954 176.849 Q157.616 174.743 153.612 174.743 Q151.737 174.743 149.862 175.16 Q148.01 175.576 146.066 176.456 L146.066 159.095 Z" fill="#000000" fill-rule="nonzero" fill-opacity="1" /><path clip-path="url(#clip910)" d="M186.181 162.174 Q182.57 162.174 180.741 165.738 Q178.936 169.28 178.936 176.41 Q178.936 183.516 180.741 187.081 Q182.57 190.622 186.181 190.622 Q189.815 190.622 191.621 187.081 Q193.45 183.516 193.45 176.41 Q193.45 169.28 191.621 165.738 Q189.815 162.174 186.181 162.174 M186.181 158.47 Q191.991 158.47 195.047 163.076 Q198.125 167.66 198.125 176.41 Q198.125 185.136 195.047 189.743 Q191.991 194.326 186.181 194.326 Q180.371 194.326 177.292 189.743 Q174.237 185.136 174.237 176.41 Q174.237 167.66 177.292 163.076 Q180.371 158.47 186.181 158.47 Z" fill="#000000" fill-rule="nonzero" fill-opacity="1" /><path clip-path="url(#clip910)" d="M20.1444 832.76 L26.9239 832.76 Q23.9002 836.006 22.4043 839.698 Q20.9083 843.358 20.9083 847.496 Q20.9083 855.644 25.9054 859.973 Q30.8707 864.302 40.2919 864.302 Q49.6813 864.302 54.6784 859.973 Q59.6436 855.644 59.6436 847.496 Q59.6436 843.358 58.1477 839.698 Q56.6518 836.006 53.6281 832.76 L60.3439 832.76 Q62.6355 836.133 63.7814 839.921 Q64.9272 843.677 64.9272 847.878 Q64.9272 858.668 58.3387 864.875 Q51.7183 871.081 40.2919 871.081 Q28.8336 871.081 22.2451 864.875 Q15.6248 858.668 15.6248 847.878 Q15.6248 843.613 16.7706 839.857 Q17.8846 836.07 20.1444 832.76 Z" fill="#000000" fill-rule="nonzero" fill-opacity="1" /><path clip-path="url(#clip910)" d="M32.4621 809.27 Q32.4621 813.981 36.1542 816.718 Q39.8145 819.455 46.212 819.455 Q52.6095 819.455 56.3017 816.75 Q59.9619 814.013 59.9619 809.27 Q59.9619 804.591 56.2698 801.854 Q52.5777 799.117 46.212 799.117 Q39.8781 799.117 36.186 801.854 Q32.4621 804.591 32.4621 809.27 M27.4968 809.27 Q27.4968 801.631 32.4621 797.271 Q37.4273 792.91 46.212 792.91 Q54.9649 792.91 59.9619 797.271 Q64.9272 801.631 64.9272 809.27 Q64.9272 816.941 59.9619 821.301 Q54.9649 825.63 46.212 825.63 Q37.4273 825.63 32.4621 821.301 Q27.4968 816.941 27.4968 809.27 Z" fill="#000000" fill-rule="nonzero" fill-opacity="1" /><path clip-path="url(#clip910)" d="M49.9359 783.807 L28.3562 783.807 L28.3562 777.951 L49.7131 777.951 Q54.7739 777.951 57.3202 775.977 Q59.8346 774.004 59.8346 770.057 Q59.8346 765.315 56.8109 762.578 Q53.7872 759.809 48.5673 759.809 L28.3562 759.809 L28.3562 753.952 L64.0042 753.952 L64.0042 759.809 L58.5296 759.809 Q61.7762 761.941 63.3676 764.774 Q64.9272 767.575 64.9272 771.299 Q64.9272 777.442 61.1078 780.624 Q57.2883 783.807 49.9359 783.807 M27.4968 769.071 L27.4968 769.071 Z" fill="#000000" fill-rule="nonzero" fill-opacity="1" /><path clip-path="url(#clip910)" d="M42.4881 712.257 L64.0042 712.257 L64.0042 718.113 L42.679 718.113 Q37.6183 718.113 35.1038 720.087 Q32.5894 722.06 32.5894 726.007 Q32.5894 730.749 35.6131 733.486 Q38.6368 736.224 43.8567 736.224 L64.0042 736.224 L64.0042 742.112 L28.3562 742.112 L28.3562 736.224 L33.8944 736.224 Q30.6797 734.123 29.0883 731.29 Q27.4968 728.426 27.4968 724.702 Q27.4968 718.559 31.3163 715.408 Q35.1038 712.257 42.4881 712.257 Z" fill="#000000" fill-rule="nonzero" fill-opacity="1" /><path clip-path="url(#clip910)" d="M18.2347 694.783 L28.3562 694.783 L28.3562 682.72 L32.9077 682.72 L32.9077 694.783 L52.2594 694.783 Q56.6199 694.783 57.8613 693.605 Q59.1026 692.396 59.1026 688.735 L59.1026 682.72 L64.0042 682.72 L64.0042 688.735 Q64.0042 695.515 61.4897 698.093 Q58.9434 700.671 52.2594 700.671 L32.9077 700.671 L32.9077 704.968 L28.3562 704.968 L28.3562 700.671 L18.2347 700.671 L18.2347 694.783 Z" fill="#000000" fill-rule="nonzero" fill-opacity="1" /><path clip-path="url(#clip910)" d="M1122.25 117.016 Q1122.25 117.795 1121.92 118.205 Q1121.63 118.574 1121.34 118.656 Q1121.1 118.697 1120.73 118.697 Q1119.66 118.697 1115.97 118.574 Q1112.29 118.451 1111.22 118.451 Q1109.5 118.451 1105.97 118.574 Q1102.45 118.697 1100.73 118.697 Q1099.58 118.697 1099.58 117.754 Q1099.58 117.139 1099.7 116.811 Q1099.83 116.442 1100.15 116.319 Q1100.52 116.155 1100.73 116.155 Q1100.97 116.114 1101.59 116.114 Q1102.41 116.114 1103.27 116.032 Q1104.13 115.909 1105.19 115.663 Q1106.26 115.417 1106.92 114.803 Q1107.61 114.188 1107.61 113.327 Q1107.61 112.958 1107.33 109.925 Q1107.04 106.892 1106.67 103.367 Q1106.3 99.8006 1106.26 99.3087 L1085.19 99.3087 Q1083.27 102.629 1081.91 104.924 Q1080.56 107.22 1080.07 107.998 Q1079.58 108.777 1079.29 109.269 Q1079 109.761 1078.84 110.048 Q1077.65 112.22 1077.65 113.163 Q1077.65 115.786 1081.58 116.114 Q1082.94 116.114 1082.94 117.098 Q1082.94 117.836 1082.61 118.246 Q1082.28 118.615 1081.99 118.656 Q1081.75 118.697 1081.34 118.697 Q1079.99 118.697 1077.16 118.574 Q1074.33 118.451 1072.94 118.451 Q1071.75 118.451 1069.29 118.574 Q1066.83 118.697 1065.72 118.697 Q1065.23 118.697 1064.94 118.41 Q1064.66 118.123 1064.66 117.754 Q1064.66 117.18 1064.74 116.852 Q1064.86 116.524 1065.19 116.36 Q1065.52 116.196 1065.68 116.196 Q1065.84 116.155 1066.42 116.114 Q1069.53 115.909 1071.95 114.434 Q1074.41 112.917 1076.75 109.023 L1105.93 60 Q1106.22 59.5081 1106.42 59.2622 Q1106.63 59.0162 1107.04 58.8113 Q1107.49 58.6063 1108.15 58.6063 Q1109.17 58.6063 1109.38 58.9342 Q1109.58 59.2212 1109.7 60.6148 L1114.83 113.081 Q1114.95 114.188 1115.03 114.639 Q1115.16 115.049 1115.69 115.499 Q1116.26 115.909 1117.29 116.032 Q1118.35 116.114 1120.32 116.114 Q1121.06 116.114 1121.34 116.155 Q1121.63 116.155 1121.92 116.36 Q1122.25 116.565 1122.25 117.016 M1106.01 96.6854 L1103.35 69.0176 L1086.79 96.6854 L1106.01 96.6854 Z" fill="#000000" fill-rule="nonzero" fill-opacity="1" /><path clip-path="url(#clip910)" d="M1130.65 43.039 Q1130.65 33.1114 1134.35 25.1062 Q1135.93 21.7492 1138.14 18.9373 Q1140.35 16.1255 1141.81 14.8917 Q1143.27 13.6579 1143.67 13.6579 Q1144.25 13.6579 1144.28 14.2318 Q1144.28 14.5187 1143.5 15.236 Q1134.03 24.8767 1134.06 43.039 Q1134.06 61.2588 1143.27 70.5264 Q1144.28 71.5307 1144.28 71.8463 Q1144.28 72.4201 1143.67 72.4201 Q1143.27 72.4201 1141.87 71.2437 Q1140.46 70.0674 1138.28 67.3703 Q1136.1 64.6732 1134.52 61.3735 Q1130.65 53.3683 1130.65 43.039 Z" fill="#000000" fill-rule="nonzero" fill-opacity="1" /><path clip-path="url(#clip910)" d="M1149.92 57.7296 Q1149.92 56.668 1150 56.3523 Q1150.12 56.0367 1150.58 55.5489 L1161.85 42.9816 Q1168.02 36.0381 1168.02 29.9839 Q1168.02 26.0531 1165.96 23.2412 Q1163.92 20.4293 1160.16 20.4293 Q1157.58 20.4293 1155.4 22.0074 Q1153.22 23.5855 1152.21 26.3974 Q1152.39 26.34 1152.99 26.34 Q1154.45 26.34 1155.25 27.2581 Q1156.09 28.1763 1156.09 29.4101 Q1156.09 30.9882 1155.05 31.7629 Q1154.05 32.5089 1153.05 32.5089 Q1152.64 32.5089 1152.1 32.4228 Q1151.58 32.3367 1150.75 31.5333 Q1149.92 30.7012 1149.92 29.2379 Q1149.92 25.1349 1153.02 21.864 Q1156.14 18.593 1160.91 18.593 Q1166.3 18.593 1169.83 21.8066 Q1173.39 24.9914 1173.39 29.9839 Q1173.39 31.7342 1172.84 33.341 Q1172.33 34.919 1171.61 36.1528 Q1170.92 37.3866 1169.03 39.3664 Q1167.13 41.3462 1165.61 42.7521 Q1164.09 44.158 1160.68 47.142 L1154.45 53.1962 L1165.04 53.1962 Q1170.2 53.1962 1170.61 52.7371 Q1171.18 51.905 1171.9 47.5151 L1173.39 47.5151 L1171.72 57.7296 L1149.92 57.7296 Z" fill="#000000" fill-rule="nonzero" fill-opacity="1" /><path clip-path="url(#clip910)" d="M1180.43 71.8463 Q1180.43 71.5594 1181.17 70.842 Q1190.64 61.2014 1190.64 43.039 Q1190.64 24.8193 1181.55 15.609 Q1180.43 14.5474 1180.43 14.2318 Q1180.43 13.6579 1181 13.6579 Q1181.4 13.6579 1182.81 14.8343 Q1184.24 16.0107 1186.4 18.7078 Q1188.58 21.4049 1190.18 24.7045 Q1194.06 32.7097 1194.06 43.039 Q1194.06 52.9666 1190.36 60.9718 Q1188.78 64.3289 1186.57 67.1407 Q1184.36 69.9526 1182.9 71.1864 Q1181.43 72.4201 1181 72.4201 Q1180.43 72.4201 1180.43 71.8463 Z" fill="#000000" fill-rule="nonzero" fill-opacity="1" /><path clip-path="url(#clip910)" d="M1145.65 106.199 Q1145.65 107.461 1144.62 108.408 Q1143.62 109.326 1142.53 109.326 Q1141.52 109.326 1140.89 108.724 Q1140.29 108.093 1140.29 107.203 Q1140.29 106.027 1141.29 105.051 Q1142.3 104.076 1143.47 104.076 Q1144.45 104.076 1145.05 104.678 Q1145.65 105.281 1145.65 106.199 M1146.17 134.518 Q1146.17 134.748 1145.91 135.666 Q1145.65 136.556 1145.02 137.933 Q1144.42 139.281 1143.59 140.544 Q1142.76 141.806 1141.38 142.696 Q1140.03 143.585 1138.48 143.585 Q1136.39 143.585 1135.01 142.208 Q1133.66 140.831 1133.66 138.765 Q1133.66 137.646 1135.01 134.059 Q1138.91 123.615 1139.05 123.185 Q1139.71 121.549 1139.71 120.115 Q1139.71 119.455 1139.57 119.053 Q1139.43 118.623 1139.14 118.479 Q1138.85 118.307 1138.68 118.279 Q1138.54 118.25 1138.25 118.25 Q1136.56 118.25 1134.98 119.971 Q1133.4 121.693 1132.31 125.538 Q1132.08 126.255 1131.94 126.427 Q1131.8 126.599 1131.36 126.599 Q1130.65 126.571 1130.65 125.997 Q1130.65 125.825 1130.85 125.165 Q1131.05 124.476 1131.42 123.443 Q1131.8 122.382 1132.46 121.291 Q1133.12 120.172 1133.92 119.197 Q1134.75 118.221 1135.93 117.59 Q1137.1 116.959 1138.42 116.959 Q1140.58 116.959 1141.89 118.365 Q1143.24 119.742 1143.24 121.779 Q1143.24 122.898 1142.47 124.878 Q1141.52 127.46 1141.18 128.292 L1138.88 134.461 Q1138.05 136.699 1137.79 137.388 Q1137.56 138.048 1137.36 138.851 Q1137.19 139.626 1137.19 140.343 Q1137.19 141.347 1137.51 141.806 Q1137.85 142.265 1138.6 142.265 Q1140.66 142.265 1142.18 140.228 Q1143.7 138.162 1144.59 135.006 Q1144.62 134.92 1144.65 134.777 Q1144.88 134.059 1145.11 133.973 Q1145.22 133.945 1145.45 133.945 Q1146.17 133.945 1146.17 134.518 Z" fill="#000000" fill-rule="nonzero" fill-opacity="1" /><path clip-path="url(#clip910)" d="M1165.84 106.199 Q1165.84 107.375 1164.84 108.351 Q1163.83 109.326 1162.66 109.326 Q1161.68 109.326 1161.08 108.724 Q1160.51 108.121 1160.51 107.203 Q1160.51 105.941 1161.51 105.023 Q1162.51 104.076 1163.6 104.076 Q1164.61 104.076 1165.21 104.707 Q1165.84 105.309 1165.84 106.199 M1163.66 122.353 Q1163.66 123.357 1163.38 124.533 L1157.98 146.053 Q1157.46 148.147 1156.23 149.869 Q1155 151.619 1153.42 152.71 Q1151.87 153.8 1150.18 154.374 Q1148.51 154.976 1146.93 154.976 Q1144.72 154.976 1143.23 154.001 Q1141.74 153.025 1141.74 151.332 Q1141.74 149.84 1142.72 148.893 Q1143.72 147.975 1144.93 147.975 Q1146.02 147.975 1146.59 148.606 Q1147.16 149.238 1147.16 150.041 Q1147.16 151.017 1146.45 151.935 Q1145.76 152.853 1144.52 153.14 Q1145.64 153.685 1146.82 153.685 Q1149.23 153.685 1151.18 151.476 Q1153.16 149.295 1154.02 145.852 L1159.56 123.931 Q1159.96 122.181 1159.96 120.947 Q1159.96 119.799 1159.65 119.168 Q1159.33 118.537 1158.96 118.393 Q1158.61 118.25 1158.1 118.25 Q1155.83 118.25 1153.88 120.344 Q1151.93 122.41 1150.69 125.423 Q1150.35 126.255 1150.18 126.427 Q1150.03 126.599 1149.63 126.599 Q1148.91 126.571 1148.91 125.997 Q1148.91 125.825 1149.2 125.136 Q1149.49 124.447 1150 123.443 Q1150.52 122.41 1151.35 121.291 Q1152.19 120.172 1153.16 119.197 Q1154.16 118.221 1155.51 117.59 Q1156.86 116.959 1158.27 116.959 Q1160.53 116.959 1162.08 118.451 Q1163.66 119.914 1163.66 122.353 Z" fill="#000000" fill-rule="nonzero" fill-opacity="1" /><path clip-path="url(#clip910)" d="M1198.64 120.66 Q1198.64 122.295 1197.64 123.271 Q1196.67 124.247 1195.43 124.247 Q1194.34 124.247 1193.77 123.615 Q1193.19 122.984 1193.19 122.181 Q1193.19 121.836 1193.34 121.406 Q1193.48 120.947 1193.8 120.402 Q1194.14 119.857 1194.86 119.455 Q1195.57 119.053 1196.55 118.996 Q1196.35 118.795 1196.29 118.766 Q1195.86 118.422 1195.06 118.307 Q1194.94 118.25 1194.54 118.25 Q1192.56 118.25 1190.55 119.713 Q1188.57 121.148 1186.14 123.874 Q1183.06 127.058 1181.09 128.235 Q1189.78 129.383 1189.78 134.404 Q1189.78 135.236 1189.55 136.24 Q1189.09 138.134 1189.09 139.511 Q1189.09 142.265 1190.96 142.265 Q1192.76 142.265 1193.91 140.429 Q1195.09 138.593 1196.06 135.006 Q1196.21 134.346 1196.35 134.145 Q1196.49 133.945 1196.89 133.945 Q1197.61 133.945 1197.61 134.518 Q1196.95 137.875 1195.49 140.458 Q1193.62 143.585 1190.84 143.585 Q1188.52 143.585 1186.97 141.979 Q1185.45 140.343 1185.45 137.761 Q1185.45 137.129 1185.68 135.695 Q1185.85 135.121 1185.85 134.461 Q1185.85 133.113 1185.1 132.108 Q1184.36 131.075 1183.15 130.559 Q1181.95 130.042 1180.94 129.813 Q1179.97 129.555 1179.02 129.469 Q1176.15 141.606 1175.75 142.352 Q1175.49 142.868 1174.92 143.212 Q1174.34 143.585 1173.74 143.585 Q1173.17 143.585 1172.59 143.184 Q1172.05 142.811 1172.05 141.921 Q1172.05 141.462 1172.28 140.63 L1180.8 106.773 L1180.97 105.625 Q1180.97 105.281 1180.83 105.109 Q1180.71 104.908 1180.02 104.764 Q1179.36 104.621 1178.04 104.621 Q1177.5 104.621 1177.24 104.592 Q1177.01 104.563 1176.81 104.42 Q1176.61 104.248 1176.61 103.904 Q1176.61 103.416 1176.81 103.158 Q1177.04 102.871 1177.21 102.813 Q1177.38 102.756 1177.73 102.727 Q1178.22 102.698 1179.85 102.555 Q1181.49 102.383 1182.89 102.268 Q1184.3 102.153 1184.9 102.153 Q1185.25 102.153 1185.42 102.325 Q1185.62 102.469 1185.65 102.641 L1185.68 102.785 L1179.56 127.575 Q1182.09 126.571 1186.08 122.123 Q1190.7 116.959 1194.66 116.959 Q1196.52 116.959 1197.58 118.106 Q1198.64 119.225 1198.64 120.66 Z" fill="#000000" fill-rule="nonzero" fill-opacity="1" /><path clip-path="url(#clip910)" d="M1216.35 102.785 L1207.88 136.756 Q1207.54 138.105 1207.54 139.568 Q1207.54 142.265 1209.32 142.265 Q1210.15 142.265 1210.84 141.72 Q1211.53 141.146 1212.04 140.027 Q1212.59 138.88 1212.93 137.789 Q1213.31 136.699 1213.76 135.006 Q1213.91 134.346 1214.05 134.145 Q1214.19 133.945 1214.6 133.945 Q1215.31 133.945 1215.31 134.518 Q1214.6 138.048 1213.53 140.286 Q1211.99 143.585 1209.12 143.585 Q1206.96 143.585 1205.36 142.093 Q1203.78 140.573 1203.78 138.162 Q1203.78 137.244 1204.07 136.154 L1211.47 106.773 L1211.67 105.625 Q1211.67 105.309 1211.56 105.137 Q1211.44 104.965 1210.75 104.793 Q1210.09 104.621 1208.77 104.621 Q1208.23 104.621 1207.97 104.592 Q1207.74 104.563 1207.51 104.42 Q1207.31 104.277 1207.31 103.961 Q1207.31 103.444 1207.51 103.158 Q1207.74 102.871 1207.91 102.813 Q1208.08 102.756 1208.43 102.727 Q1208.92 102.698 1210.55 102.555 Q1212.19 102.383 1213.59 102.268 Q1215 102.153 1215.6 102.153 Q1215.95 102.153 1216.12 102.325 Q1216.32 102.469 1216.35 102.641 L1216.35 102.785 Z" fill="#000000" fill-rule="nonzero" fill-opacity="1" /><path clip-path="url(#clip910)" d="M1258.92 73.3265 L1266.82 73.3265 L1280.99 111.405 L1295.17 73.3265 L1303.07 73.3265 L1286.06 118.697 L1275.93 118.697 L1258.92 73.3265 Z" fill="#000000" fill-rule="nonzero" fill-opacity="1" /><path clip-path="url(#clip910)" d="M1333.98 95.89 Q1324.95 95.89 1321.46 97.956 Q1317.98 100.022 1317.98 105.005 Q1317.98 108.974 1320.57 111.324 Q1323.2 113.633 1327.7 113.633 Q1333.9 113.633 1337.63 109.258 Q1341.39 104.843 1341.39 97.5509 L1341.39 95.89 L1333.98 95.89 M1348.85 92.8113 L1348.85 118.697 L1341.39 118.697 L1341.39 111.81 Q1338.84 115.942 1335.03 117.927 Q1331.22 119.871 1325.72 119.871 Q1318.75 119.871 1314.62 115.983 Q1310.52 112.053 1310.52 105.491 Q1310.52 97.8345 1315.63 93.9456 Q1320.77 90.0567 1330.94 90.0567 L1341.39 90.0567 L1341.39 89.3276 Q1341.39 84.1829 1337.99 81.3878 Q1334.63 78.5521 1328.51 78.5521 Q1324.62 78.5521 1320.94 79.4839 Q1317.25 80.4156 1313.85 82.279 L1313.85 75.3924 Q1317.94 73.8126 1321.79 73.0429 Q1325.63 72.2327 1329.28 72.2327 Q1339.12 72.2327 1343.99 77.3369 Q1348.85 82.441 1348.85 92.8113 Z" fill="#000000" fill-rule="nonzero" fill-opacity="1" /><path clip-path="url(#clip910)" d="M1364.2 55.6645 L1371.65 55.6645 L1371.65 118.697 L1364.2 118.697 L1364.2 55.6645 Z" fill="#000000" fill-rule="nonzero" fill-opacity="1" /><path clip-path="url(#clip910)" d="M1386.48 100.792 L1386.48 73.3265 L1393.93 73.3265 L1393.93 100.508 Q1393.93 106.949 1396.44 110.19 Q1398.96 113.39 1403.98 113.39 Q1410.02 113.39 1413.5 109.542 Q1417.02 105.693 1417.02 99.0497 L1417.02 73.3265 L1424.48 73.3265 L1424.48 118.697 L1417.02 118.697 L1417.02 111.729 Q1414.31 115.861 1410.7 117.886 Q1407.14 119.871 1402.4 119.871 Q1394.58 119.871 1390.53 115.01 Q1386.48 110.149 1386.48 100.792 M1405.23 72.2327 L1405.23 72.2327 Z" fill="#000000" fill-rule="nonzero" fill-opacity="1" /><path clip-path="url(#clip910)" d="M1478.64 94.1481 L1478.64 97.7939 L1444.37 97.7939 Q1444.85 105.491 1448.98 109.542 Q1453.16 113.552 1460.57 113.552 Q1464.86 113.552 1468.87 112.499 Q1472.93 111.445 1476.9 109.339 L1476.9 116.388 Q1472.89 118.089 1468.67 118.98 Q1464.46 119.871 1460.12 119.871 Q1449.27 119.871 1442.91 113.552 Q1436.59 107.233 1436.59 96.4571 Q1436.59 85.3172 1442.58 78.7952 Q1448.62 72.2327 1458.83 72.2327 Q1467.98 72.2327 1473.29 78.1471 Q1478.64 84.0209 1478.64 94.1481 M1471.18 91.9606 Q1471.1 85.8438 1467.74 82.198 Q1464.42 78.5521 1458.91 78.5521 Q1452.67 78.5521 1448.9 82.0764 Q1445.18 85.6007 1444.61 92.0012 L1471.18 91.9606 Z" fill="#000000" fill-rule="nonzero" fill-opacity="1" /><path clip-path="url(#clip910)" d="M1519.79 74.6633 L1519.79 81.7119 Q1516.63 80.0915 1513.23 79.2813 Q1509.83 78.4711 1506.18 78.4711 Q1500.63 78.4711 1497.84 80.1725 Q1495.08 81.8739 1495.08 85.2766 Q1495.08 87.8692 1497.07 89.3681 Q1499.05 90.8264 1505.05 92.1632 L1507.6 92.7303 Q1515.54 94.4317 1518.86 97.5509 Q1522.23 100.63 1522.23 106.179 Q1522.23 112.499 1517.2 116.185 Q1512.22 119.871 1503.47 119.871 Q1499.82 119.871 1495.85 119.142 Q1491.92 118.454 1487.55 117.036 L1487.55 109.339 Q1491.68 111.486 1495.69 112.58 Q1499.7 113.633 1503.63 113.633 Q1508.9 113.633 1511.73 111.851 Q1514.57 110.028 1514.57 106.746 Q1514.57 103.708 1512.5 102.088 Q1510.48 100.468 1503.55 98.9687 L1500.96 98.3611 Q1494.03 96.9027 1490.95 93.9051 Q1487.87 90.8669 1487.87 85.6007 Q1487.87 79.2003 1492.41 75.7165 Q1496.95 72.2327 1505.29 72.2327 Q1509.42 72.2327 1513.07 72.8404 Q1516.72 73.448 1519.79 74.6633 Z" fill="#000000" fill-rule="nonzero" fill-opacity="1" /><path clip-path="url(#clip912)" d="M350.654 1392.07 L350.654 1396.96 L426.077 1396.96 L426.077 1392.07 L350.654 1392.07 L350.654 1392.07  Z" fill="#009af9" fill-rule="evenodd" fill-opacity="1"/>
<polyline clip-path="url(#clip912)" style="stroke:#000000; stroke-linecap:round; stroke-linejoin:round; stroke-width:4; stroke-opacity:1; fill:none" points="350.654,1392.07 350.654,1396.96 426.077,1396.96 426.077,1392.07 350.654,1392.07 "/>
<path clip-path="url(#clip912)" d="M426.077 1382.31 L426.077 1396.96 L501.5 1396.96 L501.5 1382.31 L426.077 1382.31 L426.077 1382.31  Z" fill="#009af9" fill-rule="evenodd" fill-opacity="1"/>
<polyline clip-path="url(#clip912)" style="stroke:#000000; stroke-linecap:round; stroke-linejoin:round; stroke-width:4; stroke-opacity:1; fill:none" points="426.077,1382.31 426.077,1396.96 501.5,1396.96 501.5,1382.31 426.077,1382.31 "/>
<path clip-path="url(#clip912)" d="M501.5 1377.43 L501.5 1396.96 L576.923 1396.96 L576.923 1377.43 L501.5 1377.43 L501.5 1377.43  Z" fill="#009af9" fill-rule="evenodd" fill-opacity="1"/>
<polyline clip-path="url(#clip912)" style="stroke:#000000; stroke-linecap:round; stroke-linejoin:round; stroke-width:4; stroke-opacity:1; fill:none" points="501.5,1377.43 501.5,1396.96 576.923,1396.96 576.923,1377.43 501.5,1377.43 "/>
<path clip-path="url(#clip912)" d="M576.923 1279.78 L576.923 1396.96 L652.346 1396.96 L652.346 1279.78 L576.923 1279.78 L576.923 1279.78  Z" fill="#009af9" fill-rule="evenodd" fill-opacity="1"/>
<polyline clip-path="url(#clip912)" style="stroke:#000000; stroke-linecap:round; stroke-linejoin:round; stroke-width:4; stroke-opacity:1; fill:none" points="576.923,1279.78 576.923,1396.96 652.346,1396.96 652.346,1279.78 576.923,1279.78 "/>
<path clip-path="url(#clip912)" d="M652.346 1284.66 L652.346 1396.96 L727.769 1396.96 L727.769 1284.66 L652.346 1284.66 L652.346 1284.66  Z" fill="#009af9" fill-rule="evenodd" fill-opacity="1"/>
<polyline clip-path="url(#clip912)" style="stroke:#000000; stroke-linecap:round; stroke-linejoin:round; stroke-width:4; stroke-opacity:1; fill:none" points="652.346,1284.66 652.346,1396.96 727.769,1396.96 727.769,1284.66 652.346,1284.66 "/>
<path clip-path="url(#clip912)" d="M727.769 1084.49 L727.769 1396.96 L803.192 1396.96 L803.192 1084.49 L727.769 1084.49 L727.769 1084.49  Z" fill="#009af9" fill-rule="evenodd" fill-opacity="1"/>
<polyline clip-path="url(#clip912)" style="stroke:#000000; stroke-linecap:round; stroke-linejoin:round; stroke-width:4; stroke-opacity:1; fill:none" points="727.769,1084.49 727.769,1396.96 803.192,1396.96 803.192,1084.49 727.769,1084.49 "/>
<path clip-path="url(#clip912)" d="M803.192 1016.13 L803.192 1396.96 L878.614 1396.96 L878.614 1016.13 L803.192 1016.13 L803.192 1016.13  Z" fill="#009af9" fill-rule="evenodd" fill-opacity="1"/>
<polyline clip-path="url(#clip912)" style="stroke:#000000; stroke-linecap:round; stroke-linejoin:round; stroke-width:4; stroke-opacity:1; fill:none" points="803.192,1016.13 803.192,1396.96 878.614,1396.96 878.614,1016.13 803.192,1016.13 "/>
<path clip-path="url(#clip912)" d="M878.614 845.253 L878.614 1396.96 L954.037 1396.96 L954.037 845.253 L878.614 845.253 L878.614 845.253  Z" fill="#009af9" fill-rule="evenodd" fill-opacity="1"/>
<polyline clip-path="url(#clip912)" style="stroke:#000000; stroke-linecap:round; stroke-linejoin:round; stroke-width:4; stroke-opacity:1; fill:none" points="878.614,845.253 878.614,1396.96 954.037,1396.96 954.037,845.253 878.614,845.253 "/>
<path clip-path="url(#clip912)" d="M954.037 664.607 L954.037 1396.96 L1029.46 1396.96 L1029.46 664.607 L954.037 664.607 L954.037 664.607  Z" fill="#009af9" fill-rule="evenodd" fill-opacity="1"/>
<polyline clip-path="url(#clip912)" style="stroke:#000000; stroke-linecap:round; stroke-linejoin:round; stroke-width:4; stroke-opacity:1; fill:none" points="954.037,664.607 954.037,1396.96 1029.46,1396.96 1029.46,664.607 954.037,664.607 "/>
<path clip-path="url(#clip912)" d="M1029.46 610.902 L1029.46 1396.96 L1104.88 1396.96 L1104.88 610.902 L1029.46 610.902 L1029.46 610.902  Z" fill="#009af9" fill-rule="evenodd" fill-opacity="1"/>
<polyline clip-path="url(#clip912)" style="stroke:#000000; stroke-linecap:round; stroke-linejoin:round; stroke-width:4; stroke-opacity:1; fill:none" points="1029.46,610.902 1029.46,1396.96 1104.88,1396.96 1104.88,610.902 1029.46,610.902 "/>
<path clip-path="url(#clip912)" d="M1104.88 259.374 L1104.88 1396.96 L1180.31 1396.96 L1180.31 259.374 L1104.88 259.374 L1104.88 259.374  Z" fill="#009af9" fill-rule="evenodd" fill-opacity="1"/>
<polyline clip-path="url(#clip912)" style="stroke:#000000; stroke-linecap:round; stroke-linejoin:round; stroke-width:4; stroke-opacity:1; fill:none" points="1104.88,259.374 1104.88,1396.96 1180.31,1396.96 1180.31,259.374 1104.88,259.374 "/>
<path clip-path="url(#clip912)" d="M1180.31 156.846 L1180.31 1396.96 L1255.73 1396.96 L1255.73 156.846 L1180.31 156.846 L1180.31 156.846  Z" fill="#009af9" fill-rule="evenodd" fill-opacity="1"/>
<polyline clip-path="url(#clip912)" style="stroke:#000000; stroke-linecap:round; stroke-linejoin:round; stroke-width:4; stroke-opacity:1; fill:none" points="1180.31,156.846 1180.31,1396.96 1255.73,1396.96 1255.73,156.846 1180.31,156.846 "/>
<path clip-path="url(#clip912)" d="M1255.73 166.61 L1255.73 1396.96 L1331.15 1396.96 L1331.15 166.61 L1255.73 166.61 L1255.73 166.61  Z" fill="#009af9" fill-rule="evenodd" fill-opacity="1"/>
<polyline clip-path="url(#clip912)" style="stroke:#000000; stroke-linecap:round; stroke-linejoin:round; stroke-width:4; stroke-opacity:1; fill:none" points="1255.73,166.61 1255.73,1396.96 1331.15,1396.96 1331.15,166.61 1255.73,166.61 "/>
<path clip-path="url(#clip912)" d="M1331.15 278.904 L1331.15 1396.96 L1406.58 1396.96 L1406.58 278.904 L1331.15 278.904 L1331.15 278.904  Z" fill="#009af9" fill-rule="evenodd" fill-opacity="1"/>
<polyline clip-path="url(#clip912)" style="stroke:#000000; stroke-linecap:round; stroke-linejoin:round; stroke-width:4; stroke-opacity:1; fill:none" points="1331.15,278.904 1331.15,1396.96 1406.58,1396.96 1406.58,278.904 1331.15,278.904 "/>
<path clip-path="url(#clip912)" d="M1406.58 474.197 L1406.58 1396.96 L1482 1396.96 L1482 474.197 L1406.58 474.197 L1406.58 474.197  Z" fill="#009af9" fill-rule="evenodd" fill-opacity="1"/>
<polyline clip-path="url(#clip912)" style="stroke:#000000; stroke-linecap:round; stroke-linejoin:round; stroke-width:4; stroke-opacity:1; fill:none" points="1406.58,474.197 1406.58,1396.96 1482,1396.96 1482,474.197 1406.58,474.197 "/>
<path clip-path="url(#clip912)" d="M1482 664.607 L1482 1396.96 L1557.42 1396.96 L1557.42 664.607 L1482 664.607 L1482 664.607  Z" fill="#009af9" fill-rule="evenodd" fill-opacity="1"/>
<polyline clip-path="url(#clip912)" style="stroke:#000000; stroke-linecap:round; stroke-linejoin:round; stroke-width:4; stroke-opacity:1; fill:none" points="1482,664.607 1482,1396.96 1557.42,1396.96 1557.42,664.607 1482,664.607 "/>
<path clip-path="url(#clip912)" d="M1557.42 835.488 L1557.42 1396.96 L1632.84 1396.96 L1632.84 835.488 L1557.42 835.488 L1557.42 835.488  Z" fill="#009af9" fill-rule="evenodd" fill-opacity="1"/>
<polyline clip-path="url(#clip912)" style="stroke:#000000; stroke-linecap:round; stroke-linejoin:round; stroke-width:4; stroke-opacity:1; fill:none" points="1557.42,835.488 1557.42,1396.96 1632.84,1396.96 1632.84,835.488 1557.42,835.488 "/>
<path clip-path="url(#clip912)" d="M1632.84 1030.78 L1632.84 1396.96 L1708.27 1396.96 L1708.27 1030.78 L1632.84 1030.78 L1632.84 1030.78  Z" fill="#009af9" fill-rule="evenodd" fill-opacity="1"/>
<polyline clip-path="url(#clip912)" style="stroke:#000000; stroke-linecap:round; stroke-linejoin:round; stroke-width:4; stroke-opacity:1; fill:none" points="1632.84,1030.78 1632.84,1396.96 1708.27,1396.96 1708.27,1030.78 1632.84,1030.78 "/>
<path clip-path="url(#clip912)" d="M1708.27 1211.43 L1708.27 1396.96 L1783.69 1396.96 L1783.69 1211.43 L1708.27 1211.43 L1708.27 1211.43  Z" fill="#009af9" fill-rule="evenodd" fill-opacity="1"/>
<polyline clip-path="url(#clip912)" style="stroke:#000000; stroke-linecap:round; stroke-linejoin:round; stroke-width:4; stroke-opacity:1; fill:none" points="1708.27,1211.43 1708.27,1396.96 1783.69,1396.96 1783.69,1211.43 1708.27,1211.43 "/>
<path clip-path="url(#clip912)" d="M1783.69 1274.9 L1783.69 1396.96 L1859.11 1396.96 L1859.11 1274.9 L1783.69 1274.9 L1783.69 1274.9  Z" fill="#009af9" fill-rule="evenodd" fill-opacity="1"/>
<polyline clip-path="url(#clip912)" style="stroke:#000000; stroke-linecap:round; stroke-linejoin:round; stroke-width:4; stroke-opacity:1; fill:none" points="1783.69,1274.9 1783.69,1396.96 1859.11,1396.96 1859.11,1274.9 1783.69,1274.9 "/>
<path clip-path="url(#clip912)" d="M1859.11 1313.96 L1859.11 1396.96 L1934.54 1396.96 L1934.54 1313.96 L1859.11 1313.96 L1859.11 1313.96  Z" fill="#009af9" fill-rule="evenodd" fill-opacity="1"/>
<polyline clip-path="url(#clip912)" style="stroke:#000000; stroke-linecap:round; stroke-linejoin:round; stroke-width:4; stroke-opacity:1; fill:none" points="1859.11,1313.96 1859.11,1396.96 1934.54,1396.96 1934.54,1313.96 1859.11,1313.96 "/>
<path clip-path="url(#clip912)" d="M1934.54 1357.9 L1934.54 1396.96 L2009.96 1396.96 L2009.96 1357.9 L1934.54 1357.9 L1934.54 1357.9  Z" fill="#009af9" fill-rule="evenodd" fill-opacity="1"/>
<polyline clip-path="url(#clip912)" style="stroke:#000000; stroke-linecap:round; stroke-linejoin:round; stroke-width:4; stroke-opacity:1; fill:none" points="1934.54,1357.9 1934.54,1396.96 2009.96,1396.96 2009.96,1357.9 1934.54,1357.9 "/>
<path clip-path="url(#clip912)" d="M2009.96 1382.31 L2009.96 1396.96 L2085.38 1396.96 L2085.38 1382.31 L2009.96 1382.31 L2009.96 1382.31  Z" fill="#009af9" fill-rule="evenodd" fill-opacity="1"/>
<polyline clip-path="url(#clip912)" style="stroke:#000000; stroke-linecap:round; stroke-linejoin:round; stroke-width:4; stroke-opacity:1; fill:none" points="2009.96,1382.31 2009.96,1396.96 2085.38,1396.96 2085.38,1382.31 2009.96,1382.31 "/>
<path clip-path="url(#clip912)" d="M2085.38 1392.07 L2085.38 1396.96 L2160.8 1396.96 L2160.8 1392.07 L2085.38 1392.07 L2085.38 1392.07  Z" fill="#009af9" fill-rule="evenodd" fill-opacity="1"/>
<polyline clip-path="url(#clip912)" style="stroke:#000000; stroke-linecap:round; stroke-linejoin:round; stroke-width:4; stroke-opacity:1; fill:none" points="2085.38,1392.07 2085.38,1396.96 2160.8,1396.96 2160.8,1392.07 2085.38,1392.07 "/>
<path clip-path="url(#clip912)" d="M2160.8 1392.07 L2160.8 1396.96 L2236.23 1396.96 L2236.23 1392.07 L2160.8 1392.07 L2160.8 1392.07  Z" fill="#009af9" fill-rule="evenodd" fill-opacity="1"/>
<polyline clip-path="url(#clip912)" style="stroke:#000000; stroke-linecap:round; stroke-linejoin:round; stroke-width:4; stroke-opacity:1; fill:none" points="2160.8,1392.07 2160.8,1396.96 2236.23,1396.96 2236.23,1392.07 2160.8,1392.07 "/>
<circle clip-path="url(#clip912)" style="fill:#009af9; stroke:none; fill-opacity:0" cx="388.365" cy="1392.07" r="2"/>
<circle clip-path="url(#clip912)" style="fill:#009af9; stroke:none; fill-opacity:0" cx="463.788" cy="1382.31" r="2"/>
<circle clip-path="url(#clip912)" style="fill:#009af9; stroke:none; fill-opacity:0" cx="539.211" cy="1377.43" r="2"/>
<circle clip-path="url(#clip912)" style="fill:#009af9; stroke:none; fill-opacity:0" cx="614.634" cy="1279.78" r="2"/>
<circle clip-path="url(#clip912)" style="fill:#009af9; stroke:none; fill-opacity:0" cx="690.057" cy="1284.66" r="2"/>
<circle clip-path="url(#clip912)" style="fill:#009af9; stroke:none; fill-opacity:0" cx="765.48" cy="1084.49" r="2"/>
<circle clip-path="url(#clip912)" style="fill:#009af9; stroke:none; fill-opacity:0" cx="840.903" cy="1016.13" r="2"/>
<circle clip-path="url(#clip912)" style="fill:#009af9; stroke:none; fill-opacity:0" cx="916.326" cy="845.253" r="2"/>
<circle clip-path="url(#clip912)" style="fill:#009af9; stroke:none; fill-opacity:0" cx="991.749" cy="664.607" r="2"/>
<circle clip-path="url(#clip912)" style="fill:#009af9; stroke:none; fill-opacity:0" cx="1067.17" cy="610.902" r="2"/>
<circle clip-path="url(#clip912)" style="fill:#009af9; stroke:none; fill-opacity:0" cx="1142.59" cy="259.374" r="2"/>
<circle clip-path="url(#clip912)" style="fill:#009af9; stroke:none; fill-opacity:0" cx="1218.02" cy="156.846" r="2"/>
<circle clip-path="url(#clip912)" style="fill:#009af9; stroke:none; fill-opacity:0" cx="1293.44" cy="166.61" r="2"/>
<circle clip-path="url(#clip912)" style="fill:#009af9; stroke:none; fill-opacity:0" cx="1368.86" cy="278.904" r="2"/>
<circle clip-path="url(#clip912)" style="fill:#009af9; stroke:none; fill-opacity:0" cx="1444.29" cy="474.197" r="2"/>
<circle clip-path="url(#clip912)" style="fill:#009af9; stroke:none; fill-opacity:0" cx="1519.71" cy="664.607" r="2"/>
<circle clip-path="url(#clip912)" style="fill:#009af9; stroke:none; fill-opacity:0" cx="1595.13" cy="835.488" r="2"/>
<circle clip-path="url(#clip912)" style="fill:#009af9; stroke:none; fill-opacity:0" cx="1670.56" cy="1030.78" r="2"/>
<circle clip-path="url(#clip912)" style="fill:#009af9; stroke:none; fill-opacity:0" cx="1745.98" cy="1211.43" r="2"/>
<circle clip-path="url(#clip912)" style="fill:#009af9; stroke:none; fill-opacity:0" cx="1821.4" cy="1274.9" r="2"/>
<circle clip-path="url(#clip912)" style="fill:#009af9; stroke:none; fill-opacity:0" cx="1896.82" cy="1313.96" r="2"/>
<circle clip-path="url(#clip912)" style="fill:#009af9; stroke:none; fill-opacity:0" cx="1972.25" cy="1357.9" r="2"/>
<circle clip-path="url(#clip912)" style="fill:#009af9; stroke:none; fill-opacity:0" cx="2047.67" cy="1382.31" r="2"/>
<circle clip-path="url(#clip912)" style="fill:#009af9; stroke:none; fill-opacity:0" cx="2123.09" cy="1392.07" r="2"/>
<circle clip-path="url(#clip912)" style="fill:#009af9; stroke:none; fill-opacity:0" cx="2198.52" cy="1392.07" r="2"/>
</svg>
