<?xml version="1.0" encoding="utf-8"?>
<svg xmlns="http://www.w3.org/2000/svg" xmlns:xlink="http://www.w3.org/1999/xlink" width="600" height="400" viewBox="0 0 2400 1600">
<defs>
  <clipPath id="clip150">
    <rect x="0" y="0" width="2400" height="1600"/>
  </clipPath>
</defs>
<path clip-path="url(#clip150)" d="M0 1600 L2400 1600 L2400 0 L0 0  Z" fill="#ffffff" fill-rule="evenodd" fill-opacity="1"/>
<defs>
  <clipPath id="clip151">
    <rect x="480" y="0" width="1681" height="1600"/>
  </clipPath>
</defs>
<path clip-path="url(#clip150)" d="M221.637 1397.55 L2352.76 1397.55 L2352.76 156.084 L221.637 156.084  Z" fill="#ffffff" fill-rule="evenodd" fill-opacity="1"/>
<defs>
  <clipPath id="clip152">
    <rect x="221" y="156" width="2132" height="1242"/>
  </clipPath>
</defs>
<polyline clip-path="url(#clip152)" style="stroke:#000000; stroke-linecap:round; stroke-linejoin:round; stroke-width:2; stroke-opacity:0.1; fill:none" points="338.852,1397.55 338.852,156.084 "/>
<polyline clip-path="url(#clip152)" style="stroke:#000000; stroke-linecap:round; stroke-linejoin:round; stroke-width:2; stroke-opacity:0.1; fill:none" points="844.636,1397.55 844.636,156.084 "/>
<polyline clip-path="url(#clip152)" style="stroke:#000000; stroke-linecap:round; stroke-linejoin:round; stroke-width:2; stroke-opacity:0.1; fill:none" points="1350.42,1397.55 1350.42,156.084 "/>
<polyline clip-path="url(#clip152)" style="stroke:#000000; stroke-linecap:round; stroke-linejoin:round; stroke-width:2; stroke-opacity:0.1; fill:none" points="1856.2,1397.55 1856.2,156.084 "/>
<polyline clip-path="url(#clip152)" style="stroke:#000000; stroke-linecap:round; stroke-linejoin:round; stroke-width:2; stroke-opacity:0.1; fill:none" points="221.637,1112.58 2352.76,1112.58 "/>
<polyline clip-path="url(#clip152)" style="stroke:#000000; stroke-linecap:round; stroke-linejoin:round; stroke-width:2; stroke-opacity:0.1; fill:none" points="221.637,542.628 2352.76,542.628 "/>
<polyline clip-path="url(#clip150)" style="stroke:#000000; stroke-linecap:round; stroke-linejoin:round; stroke-width:4; stroke-opacity:1; fill:none" points="221.637,1397.55 2352.76,1397.55 "/>
<polyline clip-path="url(#clip150)" style="stroke:#000000; stroke-linecap:round; stroke-linejoin:round; stroke-width:4; stroke-opacity:1; fill:none" points="338.852,1397.55 338.852,1378.66 "/>
<polyline clip-path="url(#clip150)" style="stroke:#000000; stroke-linecap:round; stroke-linejoin:round; stroke-width:4; stroke-opacity:1; fill:none" points="844.636,1397.55 844.636,1378.66 "/>
<polyline clip-path="url(#clip150)" style="stroke:#000000; stroke-linecap:round; stroke-linejoin:round; stroke-width:4; stroke-opacity:1; fill:none" points="1350.42,1397.55 1350.42,1378.66 "/>
<polyline clip-path="url(#clip150)" style="stroke:#000000; stroke-linecap:round; stroke-linejoin:round; stroke-width:4; stroke-opacity:1; fill:none" points="1856.2,1397.55 1856.2,1378.66 "/>
<path clip-path="url(#clip150)" d="M271.098 1443.13 L300.774 1443.13 L300.774 1447.06 L271.098 1447.06 L271.098 1443.13 Z" fill="#000000" fill-rule="nonzero" fill-opacity="1" /><path clip-path="url(#clip150)" d="M320.866 1428.47 Q317.255 1428.47 315.427 1432.04 Q313.621 1435.58 313.621 1442.71 Q313.621 1449.82 315.427 1453.38 Q317.255 1456.92 320.866 1456.92 Q324.501 1456.92 326.306 1453.38 Q328.135 1449.82 328.135 1442.71 Q328.135 1435.58 326.306 1432.04 Q324.501 1428.47 320.866 1428.47 M320.866 1424.77 Q326.677 1424.77 329.732 1429.38 Q332.811 1433.96 332.811 1442.71 Q332.811 1451.44 329.732 1456.04 Q326.677 1460.63 320.866 1460.63 Q315.056 1460.63 311.978 1456.04 Q308.922 1451.44 308.922 1442.71 Q308.922 1433.96 311.978 1429.38 Q315.056 1424.77 320.866 1424.77 Z" fill="#000000" fill-rule="nonzero" fill-opacity="1" /><path clip-path="url(#clip150)" d="M341.028 1454.08 L345.913 1454.08 L345.913 1459.95 L341.028 1459.95 L341.028 1454.08 Z" fill="#000000" fill-rule="nonzero" fill-opacity="1" /><path clip-path="url(#clip150)" d="M366.098 1428.47 Q362.487 1428.47 360.658 1432.04 Q358.852 1435.58 358.852 1442.71 Q358.852 1449.82 360.658 1453.38 Q362.487 1456.92 366.098 1456.92 Q369.732 1456.92 371.537 1453.38 Q373.366 1449.82 373.366 1442.71 Q373.366 1435.58 371.537 1432.04 Q369.732 1428.47 366.098 1428.47 M366.098 1424.77 Q371.908 1424.77 374.963 1429.38 Q378.042 1433.96 378.042 1442.71 Q378.042 1451.44 374.963 1456.04 Q371.908 1460.63 366.098 1460.63 Q360.287 1460.63 357.209 1456.04 Q354.153 1451.44 354.153 1442.71 Q354.153 1433.96 357.209 1429.38 Q360.287 1424.77 366.098 1424.77 Z" fill="#000000" fill-rule="nonzero" fill-opacity="1" /><path clip-path="url(#clip150)" d="M390.287 1456.02 L406.607 1456.02 L406.607 1459.95 L384.662 1459.95 L384.662 1456.02 Q387.324 1453.27 391.908 1448.64 Q396.514 1443.98 397.695 1442.64 Q399.94 1440.12 400.82 1438.38 Q401.722 1436.62 401.722 1434.93 Q401.722 1432.18 399.778 1430.44 Q397.857 1428.71 394.755 1428.71 Q392.556 1428.71 390.102 1429.47 Q387.672 1430.23 384.894 1431.78 L384.894 1427.06 Q387.718 1425.93 390.172 1425.35 Q392.625 1424.77 394.662 1424.77 Q400.033 1424.77 403.227 1427.46 Q406.422 1430.14 406.422 1434.63 Q406.422 1436.76 405.611 1438.68 Q404.824 1440.58 402.718 1443.17 Q402.139 1443.84 399.037 1447.06 Q395.935 1450.26 390.287 1456.02 Z" fill="#000000" fill-rule="nonzero" fill-opacity="1" /><path clip-path="url(#clip150)" d="M776.696 1443.13 L806.372 1443.13 L806.372 1447.06 L776.696 1447.06 L776.696 1443.13 Z" fill="#000000" fill-rule="nonzero" fill-opacity="1" /><path clip-path="url(#clip150)" d="M826.465 1428.47 Q822.854 1428.47 821.025 1432.04 Q819.219 1435.58 819.219 1442.71 Q819.219 1449.82 821.025 1453.38 Q822.854 1456.92 826.465 1456.92 Q830.099 1456.92 831.905 1453.38 Q833.733 1449.82 833.733 1442.71 Q833.733 1435.58 831.905 1432.04 Q830.099 1428.47 826.465 1428.47 M826.465 1424.77 Q832.275 1424.77 835.33 1429.38 Q838.409 1433.96 838.409 1442.71 Q838.409 1451.44 835.33 1456.04 Q832.275 1460.63 826.465 1460.63 Q820.655 1460.63 817.576 1456.04 Q814.52 1451.44 814.52 1442.71 Q814.52 1433.96 817.576 1429.38 Q820.655 1424.77 826.465 1424.77 Z" fill="#000000" fill-rule="nonzero" fill-opacity="1" /><path clip-path="url(#clip150)" d="M846.627 1454.08 L851.511 1454.08 L851.511 1459.95 L846.627 1459.95 L846.627 1454.08 Z" fill="#000000" fill-rule="nonzero" fill-opacity="1" /><path clip-path="url(#clip150)" d="M871.696 1428.47 Q868.085 1428.47 866.256 1432.04 Q864.451 1435.58 864.451 1442.71 Q864.451 1449.82 866.256 1453.38 Q868.085 1456.92 871.696 1456.92 Q875.33 1456.92 877.136 1453.38 Q878.964 1449.82 878.964 1442.71 Q878.964 1435.58 877.136 1432.04 Q875.33 1428.47 871.696 1428.47 M871.696 1424.77 Q877.506 1424.77 880.562 1429.38 Q883.64 1433.96 883.64 1442.71 Q883.64 1451.44 880.562 1456.04 Q877.506 1460.63 871.696 1460.63 Q865.886 1460.63 862.807 1456.04 Q859.752 1451.44 859.752 1442.71 Q859.752 1433.96 862.807 1429.38 Q865.886 1424.77 871.696 1424.77 Z" fill="#000000" fill-rule="nonzero" fill-opacity="1" /><path clip-path="url(#clip150)" d="M892.668 1456.02 L900.307 1456.02 L900.307 1429.65 L891.997 1431.32 L891.997 1427.06 L900.261 1425.39 L904.937 1425.39 L904.937 1456.02 L912.575 1456.02 L912.575 1459.95 L892.668 1459.95 L892.668 1456.02 Z" fill="#000000" fill-rule="nonzero" fill-opacity="1" /><path clip-path="url(#clip150)" d="M1312.72 1428.47 Q1309.11 1428.47 1307.28 1432.04 Q1305.48 1435.58 1305.48 1442.71 Q1305.48 1449.82 1307.28 1453.38 Q1309.11 1456.92 1312.72 1456.92 Q1316.36 1456.92 1318.16 1453.38 Q1319.99 1449.82 1319.99 1442.71 Q1319.99 1435.58 1318.16 1432.04 Q1316.36 1428.47 1312.72 1428.47 M1312.72 1424.77 Q1318.53 1424.77 1321.59 1429.38 Q1324.67 1433.96 1324.67 1442.71 Q1324.67 1451.44 1321.59 1456.04 Q1318.53 1460.63 1312.72 1460.63 Q1306.91 1460.63 1303.83 1456.04 Q1300.78 1451.44 1300.78 1442.71 Q1300.78 1433.96 1303.83 1429.38 Q1306.91 1424.77 1312.72 1424.77 Z" fill="#000000" fill-rule="nonzero" fill-opacity="1" /><path clip-path="url(#clip150)" d="M1332.88 1454.08 L1337.77 1454.08 L1337.77 1459.95 L1332.88 1459.95 L1332.88 1454.08 Z" fill="#000000" fill-rule="nonzero" fill-opacity="1" /><path clip-path="url(#clip150)" d="M1357.95 1428.47 Q1354.34 1428.47 1352.51 1432.04 Q1350.71 1435.58 1350.71 1442.71 Q1350.71 1449.82 1352.51 1453.38 Q1354.34 1456.92 1357.95 1456.92 Q1361.59 1456.92 1363.39 1453.38 Q1365.22 1449.82 1365.22 1442.71 Q1365.22 1435.58 1363.39 1432.04 Q1361.59 1428.47 1357.95 1428.47 M1357.95 1424.77 Q1363.76 1424.77 1366.82 1429.38 Q1369.9 1433.96 1369.9 1442.71 Q1369.9 1451.44 1366.82 1456.04 Q1363.76 1460.63 1357.95 1460.63 Q1352.14 1460.63 1349.07 1456.04 Q1346.01 1451.44 1346.01 1442.71 Q1346.01 1433.96 1349.07 1429.38 Q1352.14 1424.77 1357.95 1424.77 Z" fill="#000000" fill-rule="nonzero" fill-opacity="1" /><path clip-path="url(#clip150)" d="M1388.12 1428.47 Q1384.5 1428.47 1382.68 1432.04 Q1380.87 1435.58 1380.87 1442.71 Q1380.87 1449.82 1382.68 1453.38 Q1384.5 1456.92 1388.12 1456.92 Q1391.75 1456.92 1393.56 1453.38 Q1395.38 1449.82 1395.38 1442.71 Q1395.38 1435.58 1393.56 1432.04 Q1391.75 1428.47 1388.12 1428.47 M1388.12 1424.77 Q1393.93 1424.77 1396.98 1429.38 Q1400.06 1433.96 1400.06 1442.71 Q1400.06 1451.44 1396.98 1456.04 Q1393.93 1460.63 1388.12 1460.63 Q1382.31 1460.63 1379.23 1456.04 Q1376.17 1451.44 1376.17 1442.71 Q1376.17 1433.96 1379.23 1429.38 Q1382.31 1424.77 1388.12 1424.77 Z" fill="#000000" fill-rule="nonzero" fill-opacity="1" /><path clip-path="url(#clip150)" d="M1819.12 1428.47 Q1815.51 1428.47 1813.68 1432.04 Q1811.87 1435.58 1811.87 1442.71 Q1811.87 1449.82 1813.68 1453.38 Q1815.51 1456.92 1819.12 1456.92 Q1822.75 1456.92 1824.56 1453.38 Q1826.39 1449.82 1826.39 1442.71 Q1826.39 1435.58 1824.56 1432.04 Q1822.75 1428.47 1819.12 1428.47 M1819.12 1424.77 Q1824.93 1424.77 1827.99 1429.38 Q1831.06 1433.96 1831.06 1442.71 Q1831.06 1451.44 1827.99 1456.04 Q1824.93 1460.63 1819.12 1460.63 Q1813.31 1460.63 1810.23 1456.04 Q1807.18 1451.44 1807.18 1442.71 Q1807.18 1433.96 1810.23 1429.38 Q1813.31 1424.77 1819.12 1424.77 Z" fill="#000000" fill-rule="nonzero" fill-opacity="1" /><path clip-path="url(#clip150)" d="M1839.28 1454.08 L1844.17 1454.08 L1844.17 1459.95 L1839.28 1459.95 L1839.28 1454.08 Z" fill="#000000" fill-rule="nonzero" fill-opacity="1" /><path clip-path="url(#clip150)" d="M1864.35 1428.47 Q1860.74 1428.47 1858.91 1432.04 Q1857.11 1435.58 1857.11 1442.71 Q1857.11 1449.82 1858.91 1453.38 Q1860.74 1456.92 1864.35 1456.92 Q1867.99 1456.92 1869.79 1453.38 Q1871.62 1449.82 1871.62 1442.71 Q1871.62 1435.58 1869.79 1432.04 Q1867.99 1428.47 1864.35 1428.47 M1864.35 1424.77 Q1870.16 1424.77 1873.22 1429.38 Q1876.3 1433.96 1876.3 1442.71 Q1876.3 1451.44 1873.22 1456.04 Q1870.16 1460.63 1864.35 1460.63 Q1858.54 1460.63 1855.46 1456.04 Q1852.41 1451.44 1852.41 1442.71 Q1852.41 1433.96 1855.46 1429.38 Q1858.54 1424.77 1864.35 1424.77 Z" fill="#000000" fill-rule="nonzero" fill-opacity="1" /><path clip-path="url(#clip150)" d="M1885.32 1456.02 L1892.96 1456.02 L1892.96 1429.65 L1884.65 1431.32 L1884.65 1427.06 L1892.92 1425.39 L1897.59 1425.39 L1897.59 1456.02 L1905.23 1456.02 L1905.23 1459.95 L1885.32 1459.95 L1885.32 1456.02 Z" fill="#000000" fill-rule="nonzero" fill-opacity="1" /><path clip-path="url(#clip150)" d="M1271.15 1555.31 Q1271.15 1555.92 1270.89 1556.24 Q1270.67 1556.53 1270.44 1556.6 Q1270.25 1556.63 1269.96 1556.63 Q1269.12 1556.63 1266.22 1556.53 Q1263.32 1556.44 1262.49 1556.44 Q1261.13 1556.44 1258.36 1556.53 Q1255.59 1556.63 1254.24 1556.63 Q1253.34 1556.63 1253.34 1555.89 Q1253.34 1555.4 1253.44 1555.15 Q1253.53 1554.86 1253.79 1554.76 Q1254.08 1554.63 1254.24 1554.63 Q1254.43 1554.6 1254.92 1554.6 Q1255.56 1554.6 1256.24 1554.54 Q1256.91 1554.44 1257.75 1554.25 Q1258.59 1554.05 1259.1 1553.57 Q1259.65 1553.09 1259.65 1552.41 Q1259.65 1552.12 1259.43 1549.74 Q1259.2 1547.35 1258.91 1544.58 Q1258.62 1541.78 1258.59 1541.4 L1242.04 1541.4 Q1240.52 1544 1239.46 1545.81 Q1238.4 1547.61 1238.01 1548.22 Q1237.62 1548.83 1237.4 1549.22 Q1237.17 1549.61 1237.04 1549.83 Q1236.11 1551.54 1236.11 1552.28 Q1236.11 1554.34 1239.2 1554.6 Q1240.26 1554.6 1240.26 1555.37 Q1240.26 1555.95 1240.01 1556.27 Q1239.75 1556.56 1239.52 1556.6 Q1239.33 1556.63 1239.01 1556.63 Q1237.95 1556.63 1235.72 1556.53 Q1233.5 1556.44 1232.41 1556.44 Q1231.47 1556.44 1229.54 1556.53 Q1227.61 1556.63 1226.74 1556.63 Q1226.35 1556.63 1226.13 1556.4 Q1225.9 1556.18 1225.9 1555.89 Q1225.9 1555.44 1225.96 1555.18 Q1226.06 1554.92 1226.32 1554.79 Q1226.58 1554.66 1226.71 1554.66 Q1226.83 1554.63 1227.29 1554.6 Q1229.73 1554.44 1231.63 1553.28 Q1233.57 1552.09 1235.4 1549.03 L1258.33 1510.51 Q1258.56 1510.12 1258.72 1509.93 Q1258.88 1509.74 1259.2 1509.58 Q1259.56 1509.41 1260.07 1509.41 Q1260.88 1509.41 1261.04 1509.67 Q1261.2 1509.9 1261.29 1510.99 L1265.32 1552.22 Q1265.42 1553.09 1265.48 1553.44 Q1265.58 1553.76 1266 1554.12 Q1266.45 1554.44 1267.25 1554.54 Q1268.09 1554.6 1269.64 1554.6 Q1270.22 1554.6 1270.44 1554.63 Q1270.67 1554.63 1270.89 1554.79 Q1271.15 1554.95 1271.15 1555.31 M1258.4 1539.33 L1256.3 1517.59 L1243.29 1539.33 L1258.4 1539.33 Z" fill="#000000" fill-rule="nonzero" fill-opacity="1" /><path clip-path="url(#clip150)" d="M1277.75 1497.18 Q1277.75 1489.38 1280.66 1483.09 Q1281.9 1480.45 1283.64 1478.24 Q1285.37 1476.03 1286.52 1475.06 Q1287.67 1474.1 1287.99 1474.1 Q1288.44 1474.1 1288.46 1474.55 Q1288.46 1474.77 1287.85 1475.34 Q1280.41 1482.91 1280.44 1497.18 Q1280.44 1511.5 1287.67 1518.78 Q1288.46 1519.57 1288.46 1519.81 Q1288.46 1520.27 1287.99 1520.27 Q1287.67 1520.27 1286.57 1519.34 Q1285.46 1518.42 1283.75 1516.3 Q1282.04 1514.18 1280.8 1511.59 Q1277.75 1505.3 1277.75 1497.18 Z" fill="#000000" fill-rule="nonzero" fill-opacity="1" /><path clip-path="url(#clip150)" d="M1294.56 1482.37 L1294.56 1480.93 Q1300.1 1480.93 1302.97 1477.97 Q1303.76 1477.97 1303.89 1478.15 Q1304.03 1478.33 1304.03 1479.17 L1304.03 1505.07 Q1304.03 1506.45 1304.7 1506.87 Q1305.38 1507.3 1308.33 1507.3 L1309.8 1507.3 L1309.8 1508.72 Q1308.17 1508.59 1302.31 1508.59 Q1296.45 1508.59 1294.85 1508.72 L1294.85 1507.3 L1296.32 1507.3 Q1299.22 1507.3 1299.92 1506.9 Q1300.62 1506.47 1300.62 1505.07 L1300.62 1481.15 Q1298.21 1482.37 1294.56 1482.37 Z" fill="#000000" fill-rule="nonzero" fill-opacity="1" /><path clip-path="url(#clip150)" d="M1316.68 1519.81 Q1316.68 1519.59 1317.27 1519.03 Q1324.71 1511.45 1324.71 1497.18 Q1324.71 1482.87 1317.56 1475.63 Q1316.68 1474.79 1316.68 1474.55 Q1316.68 1474.1 1317.13 1474.1 Q1317.45 1474.1 1318.55 1475.02 Q1319.68 1475.94 1321.37 1478.06 Q1323.09 1480.18 1324.35 1482.77 Q1327.39 1489.06 1327.39 1497.18 Q1327.39 1504.98 1324.48 1511.27 Q1323.24 1513.91 1321.51 1516.12 Q1319.77 1518.33 1318.62 1519.3 Q1317.47 1520.27 1317.13 1520.27 Q1316.68 1520.27 1316.68 1519.81 Z" fill="#000000" fill-rule="nonzero" fill-opacity="1" /><path clip-path="url(#clip150)" d="M1289.54 1545.91 Q1289.54 1546.9 1288.73 1547.65 Q1287.94 1548.37 1287.09 1548.37 Q1286.3 1548.37 1285.8 1547.89 Q1285.33 1547.4 1285.33 1546.7 Q1285.33 1545.78 1286.12 1545.01 Q1286.91 1544.24 1287.83 1544.24 Q1288.6 1544.24 1289.07 1544.72 Q1289.54 1545.19 1289.54 1545.91 M1289.95 1568.16 Q1289.95 1568.34 1289.75 1569.06 Q1289.54 1569.76 1289.05 1570.84 Q1288.57 1571.9 1287.92 1572.9 Q1287.27 1573.89 1286.18 1574.59 Q1285.12 1575.29 1283.91 1575.29 Q1282.26 1575.29 1281.18 1574.2 Q1280.12 1573.12 1280.12 1571.5 Q1280.12 1570.62 1281.18 1567.8 Q1284.25 1559.59 1284.36 1559.26 Q1284.88 1557.97 1284.88 1556.84 Q1284.88 1556.33 1284.76 1556.01 Q1284.65 1555.67 1284.43 1555.56 Q1284.2 1555.42 1284.07 1555.4 Q1283.95 1555.38 1283.73 1555.38 Q1282.4 1555.38 1281.16 1556.73 Q1279.92 1558.08 1279.06 1561.11 Q1278.88 1561.67 1278.77 1561.8 Q1278.65 1561.94 1278.32 1561.94 Q1277.75 1561.92 1277.75 1561.47 Q1277.75 1561.33 1277.91 1560.81 Q1278.07 1560.27 1278.36 1559.46 Q1278.65 1558.63 1279.17 1557.77 Q1279.69 1556.89 1280.32 1556.12 Q1280.98 1555.36 1281.9 1554.86 Q1282.83 1554.36 1283.86 1554.36 Q1285.55 1554.36 1286.59 1555.47 Q1287.65 1556.55 1287.65 1558.15 Q1287.65 1559.03 1287.04 1560.59 Q1286.3 1562.62 1286.03 1563.27 L1284.22 1568.12 Q1283.57 1569.88 1283.37 1570.42 Q1283.19 1570.93 1283.03 1571.57 Q1282.89 1572.17 1282.89 1572.74 Q1282.89 1573.53 1283.14 1573.89 Q1283.41 1574.25 1284 1574.25 Q1285.62 1574.25 1286.82 1572.65 Q1288.01 1571.02 1288.71 1568.54 Q1288.73 1568.48 1288.75 1568.36 Q1288.93 1567.8 1289.11 1567.73 Q1289.21 1567.71 1289.39 1567.71 Q1289.95 1567.71 1289.95 1568.16 Z" fill="#000000" fill-rule="nonzero" fill-opacity="1" /><path clip-path="url(#clip150)" d="M1305.38 1545.91 Q1305.38 1546.84 1304.59 1547.6 Q1303.8 1548.37 1302.87 1548.37 Q1302.11 1548.37 1301.63 1547.89 Q1301.18 1547.42 1301.18 1546.7 Q1301.18 1545.71 1301.97 1544.99 Q1302.76 1544.24 1303.62 1544.24 Q1304.41 1544.24 1304.88 1544.74 Q1305.38 1545.21 1305.38 1545.91 M1303.66 1558.6 Q1303.66 1559.39 1303.44 1560.32 L1299.2 1577.22 Q1298.79 1578.87 1297.82 1580.22 Q1296.85 1581.6 1295.61 1582.45 Q1294.4 1583.31 1293.07 1583.76 Q1291.76 1584.24 1290.52 1584.24 Q1288.78 1584.24 1287.61 1583.47 Q1286.44 1582.7 1286.44 1581.37 Q1286.44 1580.2 1287.21 1579.46 Q1287.99 1578.73 1288.94 1578.73 Q1289.8 1578.73 1290.25 1579.23 Q1290.7 1579.73 1290.7 1580.36 Q1290.7 1581.12 1290.14 1581.85 Q1289.59 1582.57 1288.63 1582.79 Q1289.5 1583.22 1290.43 1583.22 Q1292.32 1583.22 1293.86 1581.49 Q1295.41 1579.77 1296.09 1577.07 L1300.44 1559.84 Q1300.75 1558.47 1300.75 1557.5 Q1300.75 1556.6 1300.51 1556.1 Q1300.26 1555.6 1299.97 1555.49 Q1299.69 1555.38 1299.29 1555.38 Q1297.51 1555.38 1295.97 1557.02 Q1294.44 1558.65 1293.47 1561.02 Q1293.2 1561.67 1293.07 1561.8 Q1292.95 1561.94 1292.64 1561.94 Q1292.07 1561.92 1292.07 1561.47 Q1292.07 1561.33 1292.3 1560.79 Q1292.53 1560.25 1292.93 1559.46 Q1293.34 1558.65 1293.99 1557.77 Q1294.64 1556.89 1295.41 1556.12 Q1296.2 1555.36 1297.26 1554.86 Q1298.32 1554.36 1299.42 1554.36 Q1301.2 1554.36 1302.42 1555.54 Q1303.66 1556.69 1303.66 1558.6 Z" fill="#000000" fill-rule="nonzero" fill-opacity="1" /><polyline clip-path="url(#clip150)" style="stroke:#000000; stroke-linecap:round; stroke-linejoin:round; stroke-width:4; stroke-opacity:1; fill:none" points="221.637,1397.55 221.637,156.084 "/>
<polyline clip-path="url(#clip150)" style="stroke:#000000; stroke-linecap:round; stroke-linejoin:round; stroke-width:4; stroke-opacity:1; fill:none" points="221.637,1112.58 240.535,1112.58 "/>
<polyline clip-path="url(#clip150)" style="stroke:#000000; stroke-linecap:round; stroke-linejoin:round; stroke-width:4; stroke-opacity:1; fill:none" points="221.637,542.628 240.535,542.628 "/>
<path clip-path="url(#clip150)" d="M114.931 1132.37 L122.57 1132.37 L122.57 1106.01 L114.26 1107.67 L114.26 1103.41 L122.524 1101.75 L127.2 1101.75 L127.2 1132.37 L134.839 1132.37 L134.839 1136.31 L114.931 1136.31 L114.931 1132.37 Z" fill="#000000" fill-rule="nonzero" fill-opacity="1" /><path clip-path="url(#clip150)" d="M154.283 1104.83 Q150.672 1104.83 148.843 1108.39 Q147.038 1111.93 147.038 1119.06 Q147.038 1126.17 148.843 1129.73 Q150.672 1133.27 154.283 1133.27 Q157.917 1133.27 159.723 1129.73 Q161.552 1126.17 161.552 1119.06 Q161.552 1111.93 159.723 1108.39 Q157.917 1104.83 154.283 1104.83 M154.283 1101.12 Q160.093 1101.12 163.149 1105.73 Q166.227 1110.31 166.227 1119.06 Q166.227 1127.79 163.149 1132.39 Q160.093 1136.98 154.283 1136.98 Q148.473 1136.98 145.394 1132.39 Q142.339 1127.79 142.339 1119.06 Q142.339 1110.31 145.394 1105.73 Q148.473 1101.12 154.283 1101.12 Z" fill="#000000" fill-rule="nonzero" fill-opacity="1" /><path clip-path="url(#clip150)" d="M175.932 1083.32 Q172.998 1083.32 171.512 1086.21 Q170.045 1089.09 170.045 1094.88 Q170.045 1100.66 171.512 1103.55 Q172.998 1106.43 175.932 1106.43 Q178.885 1106.43 180.352 1103.55 Q181.838 1100.66 181.838 1094.88 Q181.838 1089.09 180.352 1086.21 Q178.885 1083.32 175.932 1083.32 M175.932 1080.31 Q180.653 1080.31 183.136 1084.05 Q185.637 1087.78 185.637 1094.88 Q185.637 1101.98 183.136 1105.72 Q180.653 1109.44 175.932 1109.44 Q171.212 1109.44 168.71 1105.72 Q166.227 1101.98 166.227 1094.88 Q166.227 1087.78 168.71 1084.05 Q171.212 1080.31 175.932 1080.31 Z" fill="#000000" fill-rule="nonzero" fill-opacity="1" /><path clip-path="url(#clip150)" d="M116.511 562.42 L124.15 562.42 L124.15 536.055 L115.84 537.721 L115.84 533.462 L124.104 531.795 L128.78 531.795 L128.78 562.42 L136.419 562.42 L136.419 566.355 L116.511 566.355 L116.511 562.42 Z" fill="#000000" fill-rule="nonzero" fill-opacity="1" /><path clip-path="url(#clip150)" d="M155.863 534.874 Q152.252 534.874 150.423 538.439 Q148.618 541.98 148.618 549.11 Q148.618 556.216 150.423 559.781 Q152.252 563.323 155.863 563.323 Q159.497 563.323 161.303 559.781 Q163.131 556.216 163.131 549.11 Q163.131 541.98 161.303 538.439 Q159.497 534.874 155.863 534.874 M155.863 531.17 Q161.673 531.17 164.729 535.777 Q167.807 540.36 167.807 549.11 Q167.807 557.837 164.729 562.443 Q161.673 567.027 155.863 567.027 Q150.053 567.027 146.974 562.443 Q143.919 557.837 143.919 549.11 Q143.919 540.36 146.974 535.777 Q150.053 531.17 155.863 531.17 Z" fill="#000000" fill-rule="nonzero" fill-opacity="1" /><path clip-path="url(#clip150)" d="M172.378 535.748 L185.637 535.748 L185.637 538.945 L167.807 538.945 L167.807 535.748 Q169.97 533.509 173.694 529.748 Q177.437 525.968 178.396 524.877 Q180.22 522.827 180.935 521.416 Q181.669 519.987 181.669 518.614 Q181.669 516.376 180.089 514.965 Q178.528 513.554 176.008 513.554 Q174.221 513.554 172.227 514.175 Q170.252 514.796 167.995 516.056 L167.995 512.219 Q170.29 511.298 172.284 510.827 Q174.277 510.357 175.932 510.357 Q180.296 510.357 182.891 512.539 Q185.487 514.721 185.487 518.369 Q185.487 520.1 184.828 521.661 Q184.189 523.203 182.477 525.309 Q182.007 525.855 179.487 528.469 Q176.967 531.064 172.378 535.748 Z" fill="#000000" fill-rule="nonzero" fill-opacity="1" /><path clip-path="url(#clip150)" d="M20.1444 832.679 L26.9239 832.679 Q23.9002 835.925 22.4043 839.617 Q20.9083 843.278 20.9083 847.415 Q20.9083 855.563 25.9054 859.892 Q30.8707 864.221 40.2919 864.221 Q49.6813 864.221 54.6784 859.892 Q59.6436 855.563 59.6436 847.415 Q59.6436 843.278 58.1477 839.617 Q56.6518 835.925 53.6281 832.679 L60.3439 832.679 Q62.6355 836.052 63.7814 839.84 Q64.9272 843.596 64.9272 847.797 Q64.9272 858.587 58.3387 864.794 Q51.7183 871 40.2919 871 Q28.8336 871 22.2451 864.794 Q15.6248 858.587 15.6248 847.797 Q15.6248 843.532 16.7706 839.776 Q17.8846 835.989 20.1444 832.679 Z" fill="#000000" fill-rule="nonzero" fill-opacity="1" /><path clip-path="url(#clip150)" d="M32.4621 809.189 Q32.4621 813.9 36.1542 816.637 Q39.8145 819.374 46.212 819.374 Q52.6095 819.374 56.3017 816.669 Q59.9619 813.932 59.9619 809.189 Q59.9619 804.51 56.2698 801.773 Q52.5777 799.036 46.212 799.036 Q39.8781 799.036 36.186 801.773 Q32.4621 804.51 32.4621 809.189 M27.4968 809.189 Q27.4968 801.55 32.4621 797.19 Q37.4273 792.829 46.212 792.829 Q54.9649 792.829 59.9619 797.19 Q64.9272 801.55 64.9272 809.189 Q64.9272 816.86 59.9619 821.22 Q54.9649 825.549 46.212 825.549 Q37.4273 825.549 32.4621 821.22 Q27.4968 816.86 27.4968 809.189 Z" fill="#000000" fill-rule="nonzero" fill-opacity="1" /><path clip-path="url(#clip150)" d="M49.9359 783.726 L28.3562 783.726 L28.3562 777.87 L49.7131 777.87 Q54.7739 777.87 57.3202 775.897 Q59.8346 773.923 59.8346 769.976 Q59.8346 765.234 56.8109 762.497 Q53.7872 759.728 48.5673 759.728 L28.3562 759.728 L28.3562 753.871 L64.0042 753.871 L64.0042 759.728 L58.5296 759.728 Q61.7762 761.86 63.3676 764.693 Q64.9272 767.494 64.9272 771.218 Q64.9272 777.361 61.1078 780.544 Q57.2883 783.726 49.9359 783.726 M27.4968 768.99 L27.4968 768.99 Z" fill="#000000" fill-rule="nonzero" fill-opacity="1" /><path clip-path="url(#clip150)" d="M42.4881 712.176 L64.0042 712.176 L64.0042 718.032 L42.679 718.032 Q37.6183 718.032 35.1038 720.006 Q32.5894 721.979 32.5894 725.926 Q32.5894 730.668 35.6131 733.405 Q38.6368 736.143 43.8567 736.143 L64.0042 736.143 L64.0042 742.031 L28.3562 742.031 L28.3562 736.143 L33.8944 736.143 Q30.6797 734.042 29.0883 731.209 Q27.4968 728.345 27.4968 724.621 Q27.4968 718.478 31.3163 715.327 Q35.1038 712.176 42.4881 712.176 Z" fill="#000000" fill-rule="nonzero" fill-opacity="1" /><path clip-path="url(#clip150)" d="M18.2347 694.702 L28.3562 694.702 L28.3562 682.639 L32.9077 682.639 L32.9077 694.702 L52.2594 694.702 Q56.6199 694.702 57.8613 693.524 Q59.1026 692.315 59.1026 688.655 L59.1026 682.639 L64.0042 682.639 L64.0042 688.655 Q64.0042 695.434 61.4897 698.012 Q58.9434 700.59 52.2594 700.59 L32.9077 700.59 L32.9077 704.887 L28.3562 704.887 L28.3562 700.59 L18.2347 700.59 L18.2347 694.702 Z" fill="#000000" fill-rule="nonzero" fill-opacity="1" /><path clip-path="url(#clip150)" d="M867.513 58.1024 L878.531 58.1024 L905.348 108.698 L905.348 58.1024 L913.288 58.1024 L913.288 118.582 L902.27 118.582 L875.453 67.9866 L875.453 118.582 L867.513 118.582 L867.513 58.1024 Z" fill="#000000" fill-rule="nonzero" fill-opacity="1" /><path clip-path="url(#clip150)" d="M946.83 78.438 Q940.834 78.438 937.35 83.137 Q933.867 87.7955 933.867 95.9379 Q933.867 104.08 937.31 108.779 Q940.794 113.438 946.83 113.438 Q952.784 113.438 956.268 108.739 Q959.752 104.04 959.752 95.9379 Q959.752 87.8766 956.268 83.1775 Q952.784 78.438 946.83 78.438 M946.83 72.1186 Q956.552 72.1186 962.101 78.438 Q967.651 84.7574 967.651 95.9379 Q967.651 107.078 962.101 113.438 Q956.552 119.757 946.83 119.757 Q937.067 119.757 931.517 113.438 Q926.008 107.078 926.008 95.9379 Q926.008 84.7574 931.517 78.438 Q937.067 72.1186 946.83 72.1186 Z" fill="#000000" fill-rule="nonzero" fill-opacity="1" /><path clip-path="url(#clip150)" d="M1017.72 91.1983 L1017.72 118.582 L1010.27 118.582 L1010.27 91.4414 Q1010.27 85.0004 1007.76 81.8002 Q1005.24 78.6 1000.22 78.6 Q994.185 78.6 990.701 82.4484 Q987.217 86.2967 987.217 92.9402 L987.217 118.582 L979.723 118.582 L979.723 73.2123 L987.217 73.2123 L987.217 80.2609 Q989.891 76.1695 993.496 74.144 Q997.142 72.1186 1001.88 72.1186 Q1009.7 72.1186 1013.71 76.9796 Q1017.72 81.8002 1017.72 91.1983 Z" fill="#000000" fill-rule="nonzero" fill-opacity="1" /><path clip-path="url(#clip150)" d="M1028.82 92.5351 L1050.65 92.5351 L1050.65 99.1786 L1028.82 99.1786 L1028.82 92.5351 Z" fill="#000000" fill-rule="nonzero" fill-opacity="1" /><path clip-path="url(#clip150)" d="M1059.28 73.2123 L1094.69 73.2123 L1094.69 80.0178 L1066.66 112.628 L1094.69 112.628 L1094.69 118.582 L1058.27 118.582 L1058.27 111.777 L1086.3 79.1671 L1059.28 79.1671 L1059.28 73.2123 Z" fill="#000000" fill-rule="nonzero" fill-opacity="1" /><path clip-path="url(#clip150)" d="M1144.88 94.0339 L1144.88 97.6798 L1110.61 97.6798 Q1111.09 105.376 1115.23 109.427 Q1119.4 113.438 1126.81 113.438 Q1131.11 113.438 1135.12 112.385 Q1139.17 111.331 1143.14 109.225 L1143.14 116.273 Q1139.13 117.975 1134.91 118.866 Q1130.7 119.757 1126.37 119.757 Q1115.51 119.757 1109.15 113.438 Q1102.83 107.118 1102.83 96.343 Q1102.83 85.203 1108.83 78.681 Q1114.86 72.1186 1125.07 72.1186 Q1134.22 72.1186 1139.53 78.0329 Q1144.88 83.9067 1144.88 94.0339 M1137.42 91.8465 Q1137.34 85.7296 1133.98 82.0838 Q1130.66 78.438 1125.15 78.438 Q1118.91 78.438 1115.14 81.9622 Q1111.42 85.4865 1110.85 91.887 L1137.42 91.8465 Z" fill="#000000" fill-rule="nonzero" fill-opacity="1" /><path clip-path="url(#clip150)" d="M1183.4 80.1798 Q1182.15 79.4507 1180.65 79.1266 Q1179.19 78.762 1177.41 78.762 Q1171.09 78.762 1167.68 82.894 Q1164.32 86.9854 1164.32 94.6821 L1164.32 118.582 L1156.83 118.582 L1156.83 73.2123 L1164.32 73.2123 L1164.32 80.2609 Q1166.67 76.1289 1170.44 74.144 Q1174.21 72.1186 1179.59 72.1186 Q1180.36 72.1186 1181.3 72.2401 Q1182.23 72.3211 1183.36 72.5236 L1183.4 80.1798 Z" fill="#000000" fill-rule="nonzero" fill-opacity="1" /><path clip-path="url(#clip150)" d="M1206.98 78.438 Q1200.98 78.438 1197.5 83.137 Q1194.02 87.7955 1194.02 95.9379 Q1194.02 104.08 1197.46 108.779 Q1200.94 113.438 1206.98 113.438 Q1212.93 113.438 1216.42 108.739 Q1219.9 104.04 1219.9 95.9379 Q1219.9 87.8766 1216.42 83.1775 Q1212.93 78.438 1206.98 78.438 M1206.98 72.1186 Q1216.7 72.1186 1222.25 78.438 Q1227.8 84.7574 1227.8 95.9379 Q1227.8 107.078 1222.25 113.438 Q1216.7 119.757 1206.98 119.757 Q1197.22 119.757 1191.67 113.438 Q1186.16 107.078 1186.16 95.9379 Q1186.16 84.7574 1191.67 78.438 Q1197.22 72.1186 1206.98 72.1186 Z" fill="#000000" fill-rule="nonzero" fill-opacity="1" /><path clip-path="url(#clip150)" d="M1316.3 116.902 Q1316.3 117.681 1315.97 118.091 Q1315.68 118.459 1315.4 118.541 Q1315.15 118.582 1314.78 118.582 Q1313.72 118.582 1310.03 118.459 Q1306.34 118.336 1305.27 118.336 Q1303.55 118.336 1300.03 118.459 Q1296.5 118.582 1294.78 118.582 Q1293.63 118.582 1293.63 117.64 Q1293.63 117.025 1293.75 116.697 Q1293.88 116.328 1294.21 116.205 Q1294.57 116.041 1294.78 116.041 Q1295.03 116 1295.64 116 Q1296.46 116 1297.32 115.918 Q1298.18 115.795 1299.25 115.549 Q1300.31 115.303 1300.97 114.688 Q1301.67 114.074 1301.67 113.213 Q1301.67 112.844 1301.38 109.811 Q1301.09 106.778 1300.72 103.252 Q1300.35 99.6864 1300.31 99.1945 L1279.24 99.1945 Q1277.32 102.515 1275.97 104.81 Q1274.61 107.105 1274.12 107.884 Q1273.63 108.663 1273.34 109.155 Q1273.05 109.647 1272.89 109.934 Q1271.7 112.106 1271.7 113.049 Q1271.7 115.672 1275.64 116 Q1276.99 116 1276.99 116.984 Q1276.99 117.722 1276.66 118.132 Q1276.33 118.5 1276.05 118.541 Q1275.8 118.582 1275.39 118.582 Q1274.04 118.582 1271.21 118.459 Q1268.38 118.336 1266.99 118.336 Q1265.8 118.336 1263.34 118.459 Q1260.88 118.582 1259.77 118.582 Q1259.28 118.582 1259 118.295 Q1258.71 118.009 1258.71 117.64 Q1258.71 117.066 1258.79 116.738 Q1258.91 116.41 1259.24 116.246 Q1259.57 116.082 1259.73 116.082 Q1259.9 116.041 1260.47 116 Q1263.59 115.795 1266 114.32 Q1268.46 112.803 1270.8 108.909 L1299.98 59.8858 Q1300.27 59.3939 1300.48 59.148 Q1300.68 58.902 1301.09 58.6971 Q1301.54 58.4921 1302.2 58.4921 Q1303.22 58.4921 1303.43 58.8201 Q1303.63 59.107 1303.76 60.5006 L1308.88 112.967 Q1309 114.074 1309.08 114.524 Q1309.21 114.934 1309.74 115.385 Q1310.31 115.795 1311.34 115.918 Q1312.4 116 1314.37 116 Q1315.11 116 1315.4 116.041 Q1315.68 116.041 1315.97 116.246 Q1316.3 116.451 1316.3 116.902 M1300.07 96.5712 L1297.4 68.9034 L1280.84 96.5712 L1300.07 96.5712 Z" fill="#000000" fill-rule="nonzero" fill-opacity="1" /><path clip-path="url(#clip150)" d="M1324.7 42.9248 Q1324.7 32.9972 1328.4 24.992 Q1329.98 21.635 1332.19 18.8231 Q1334.4 16.0113 1335.86 14.7775 Q1337.32 13.5437 1337.73 13.5437 Q1338.3 13.5437 1338.33 14.1176 Q1338.33 14.4045 1337.55 15.1218 Q1328.09 24.7625 1328.11 42.9248 Q1328.11 61.1446 1337.32 70.4122 Q1338.33 71.4165 1338.33 71.7321 Q1338.33 72.3059 1337.73 72.3059 Q1337.32 72.3059 1335.92 71.1296 Q1334.51 69.9532 1332.33 67.2561 Q1330.15 64.559 1328.57 61.2593 Q1324.7 53.2541 1324.7 42.9248 Z" fill="#000000" fill-rule="nonzero" fill-opacity="1" /><path clip-path="url(#clip150)" d="M1346.09 24.0739 L1346.09 22.2375 Q1353.15 22.2375 1356.79 18.4788 Q1357.79 18.4788 1357.97 18.7084 Q1358.14 18.9379 1358.14 19.9995 L1358.14 52.9672 Q1358.14 54.7174 1359 55.2626 Q1359.86 55.8078 1363.62 55.8078 L1365.48 55.8078 L1365.48 57.6154 Q1363.42 57.4432 1355.96 57.4432 Q1348.5 57.4432 1346.46 57.6154 L1346.46 55.8078 L1348.33 55.8078 Q1352.03 55.8078 1352.92 55.2913 Q1353.81 54.7461 1353.81 52.9672 L1353.81 22.5245 Q1350.74 24.0739 1346.09 24.0739 Z" fill="#000000" fill-rule="nonzero" fill-opacity="1" /><path clip-path="url(#clip150)" d="M1374.25 71.7321 Q1374.25 71.4452 1374.99 70.7279 Q1384.46 61.0872 1384.46 42.9248 Q1384.46 24.7051 1375.36 15.4948 Q1374.25 14.4332 1374.25 14.1176 Q1374.25 13.5437 1374.82 13.5437 Q1375.22 13.5437 1376.63 14.7201 Q1378.06 15.8965 1380.21 18.5936 Q1382.39 21.2907 1384 24.5903 Q1387.87 32.5955 1387.87 42.9248 Q1387.87 52.8524 1384.17 60.8576 Q1382.6 64.2147 1380.39 67.0265 Q1378.18 69.8384 1376.71 71.0722 Q1375.25 72.3059 1374.82 72.3059 Q1374.25 72.3059 1374.25 71.7321 Z" fill="#000000" fill-rule="nonzero" fill-opacity="1" /><path clip-path="url(#clip150)" d="M1339.71 104.943 Q1339.71 106.205 1338.67 107.152 Q1337.67 108.07 1336.58 108.07 Q1335.57 108.07 1334.94 107.468 Q1334.34 106.837 1334.34 105.947 Q1334.34 104.771 1335.34 103.795 Q1336.35 102.82 1337.53 102.82 Q1338.5 102.82 1339.1 103.422 Q1339.71 104.025 1339.71 104.943 M1340.22 133.262 Q1340.22 133.492 1339.96 134.41 Q1339.71 135.3 1339.07 136.677 Q1338.47 138.025 1337.64 139.288 Q1336.81 140.55 1335.43 141.44 Q1334.08 142.329 1332.53 142.329 Q1330.44 142.329 1329.06 140.952 Q1327.71 139.575 1327.71 137.509 Q1327.71 136.39 1329.06 132.803 Q1332.96 122.359 1333.11 121.929 Q1333.77 120.293 1333.77 118.859 Q1333.77 118.199 1333.62 117.797 Q1333.48 117.367 1333.19 117.223 Q1332.91 117.051 1332.73 117.022 Q1332.59 116.994 1332.3 116.994 Q1330.61 116.994 1329.03 118.715 Q1327.45 120.437 1326.36 124.282 Q1326.13 124.999 1325.99 125.171 Q1325.85 125.343 1325.42 125.343 Q1324.7 125.315 1324.7 124.741 Q1324.7 124.569 1324.9 123.909 Q1325.1 123.22 1325.47 122.187 Q1325.85 121.125 1326.51 120.035 Q1327.17 118.916 1327.97 117.941 Q1328.8 116.965 1329.98 116.334 Q1331.16 115.703 1332.48 115.703 Q1334.63 115.703 1335.95 117.109 Q1337.3 118.486 1337.3 120.523 Q1337.3 121.642 1336.52 123.622 Q1335.57 126.204 1335.23 127.036 L1332.93 133.205 Q1332.1 135.443 1331.84 136.132 Q1331.61 136.792 1331.41 137.595 Q1331.24 138.37 1331.24 139.087 Q1331.24 140.091 1331.56 140.55 Q1331.9 141.009 1332.65 141.009 Q1334.71 141.009 1336.23 138.972 Q1337.76 136.906 1338.64 133.75 Q1338.67 133.664 1338.7 133.521 Q1338.93 132.803 1339.16 132.717 Q1339.28 132.689 1339.51 132.689 Q1340.22 132.689 1340.22 133.262 Z" fill="#000000" fill-rule="nonzero" fill-opacity="1" /><path clip-path="url(#clip150)" d="M1359.9 104.943 Q1359.9 106.119 1358.89 107.095 Q1357.89 108.07 1356.71 108.07 Q1355.73 108.07 1355.13 107.468 Q1354.56 106.865 1354.56 105.947 Q1354.56 104.685 1355.56 103.767 Q1356.57 102.82 1357.66 102.82 Q1358.66 102.82 1359.26 103.451 Q1359.9 104.053 1359.9 104.943 M1357.71 121.097 Q1357.71 122.101 1357.43 123.277 L1352.03 144.797 Q1351.52 146.891 1350.28 148.613 Q1349.05 150.363 1347.47 151.453 Q1345.92 152.544 1344.23 153.118 Q1342.56 153.72 1340.99 153.72 Q1338.78 153.72 1337.29 152.745 Q1335.79 151.769 1335.79 150.076 Q1335.79 148.584 1336.77 147.637 Q1337.77 146.719 1338.98 146.719 Q1340.07 146.719 1340.64 147.35 Q1341.22 147.982 1341.22 148.785 Q1341.22 149.761 1340.5 150.679 Q1339.81 151.597 1338.58 151.884 Q1339.7 152.429 1340.87 152.429 Q1343.28 152.429 1345.23 150.22 Q1347.21 148.039 1348.07 144.596 L1353.61 122.675 Q1354.01 120.925 1354.01 119.691 Q1354.01 118.543 1353.7 117.912 Q1353.38 117.281 1353.01 117.137 Q1352.66 116.994 1352.15 116.994 Q1349.88 116.994 1347.93 119.088 Q1345.98 121.154 1344.75 124.167 Q1344.4 124.999 1344.23 125.171 Q1344.09 125.343 1343.68 125.343 Q1342.97 125.315 1342.97 124.741 Q1342.97 124.569 1343.25 123.88 Q1343.54 123.191 1344.06 122.187 Q1344.57 121.154 1345.41 120.035 Q1346.24 118.916 1347.21 117.941 Q1348.22 116.965 1349.57 116.334 Q1350.91 115.703 1352.32 115.703 Q1354.59 115.703 1356.14 117.195 Q1357.71 118.658 1357.71 121.097 Z" fill="#000000" fill-rule="nonzero" fill-opacity="1" /><path clip-path="url(#clip150)" d="M1443.57 73.2123 L1451.47 73.2123 L1465.65 111.291 L1479.83 73.2123 L1487.73 73.2123 L1470.71 118.582 L1460.59 118.582 L1443.57 73.2123 Z" fill="#000000" fill-rule="nonzero" fill-opacity="1" /><path clip-path="url(#clip150)" d="M1518.63 95.7758 Q1509.6 95.7758 1506.12 97.8418 Q1502.63 99.9078 1502.63 104.89 Q1502.63 108.86 1505.23 111.21 Q1507.86 113.519 1512.36 113.519 Q1518.55 113.519 1522.28 109.144 Q1526.05 104.728 1526.05 97.4367 L1526.05 95.7758 L1518.63 95.7758 M1533.5 92.6971 L1533.5 118.582 L1526.05 118.582 L1526.05 111.696 Q1523.5 115.828 1519.69 117.813 Q1515.88 119.757 1510.37 119.757 Q1503.4 119.757 1499.27 115.868 Q1495.18 111.939 1495.18 105.376 Q1495.18 97.7203 1500.28 93.8314 Q1505.43 89.9425 1515.6 89.9425 L1526.05 89.9425 L1526.05 89.2134 Q1526.05 84.0687 1522.64 81.2736 Q1519.28 78.438 1513.17 78.438 Q1509.28 78.438 1505.59 79.3697 Q1501.9 80.3014 1498.5 82.1648 L1498.5 75.2783 Q1502.59 73.6984 1506.44 72.9287 Q1510.29 72.1186 1513.94 72.1186 Q1523.78 72.1186 1528.64 77.2227 Q1533.5 82.3268 1533.5 92.6971 Z" fill="#000000" fill-rule="nonzero" fill-opacity="1" /><path clip-path="url(#clip150)" d="M1548.85 55.5504 L1556.31 55.5504 L1556.31 118.582 L1548.85 118.582 L1548.85 55.5504 Z" fill="#000000" fill-rule="nonzero" fill-opacity="1" /><path clip-path="url(#clip150)" d="M1571.13 100.677 L1571.13 73.2123 L1578.59 73.2123 L1578.59 100.394 Q1578.59 106.835 1581.1 110.076 Q1583.61 113.276 1588.63 113.276 Q1594.67 113.276 1598.15 109.427 Q1601.68 105.579 1601.68 98.9355 L1601.68 73.2123 L1609.13 73.2123 L1609.13 118.582 L1601.68 118.582 L1601.68 111.615 Q1598.96 115.747 1595.36 117.772 Q1591.79 119.757 1587.05 119.757 Q1579.24 119.757 1575.19 114.896 Q1571.13 110.035 1571.13 100.677 M1589.89 72.1186 L1589.89 72.1186 Z" fill="#000000" fill-rule="nonzero" fill-opacity="1" /><path clip-path="url(#clip150)" d="M1663.29 94.0339 L1663.29 97.6798 L1629.02 97.6798 Q1629.51 105.376 1633.64 109.427 Q1637.81 113.438 1645.23 113.438 Q1649.52 113.438 1653.53 112.385 Q1657.58 111.331 1661.55 109.225 L1661.55 116.273 Q1657.54 117.975 1653.33 118.866 Q1649.11 119.757 1644.78 119.757 Q1633.92 119.757 1627.56 113.438 Q1621.24 107.118 1621.24 96.343 Q1621.24 85.203 1627.24 78.681 Q1633.28 72.1186 1643.48 72.1186 Q1652.64 72.1186 1657.95 78.0329 Q1663.29 83.9067 1663.29 94.0339 M1655.84 91.8465 Q1655.76 85.7296 1652.4 82.0838 Q1649.07 78.438 1643.56 78.438 Q1637.33 78.438 1633.56 81.9622 Q1629.83 85.4865 1629.26 91.887 L1655.84 91.8465 Z" fill="#000000" fill-rule="nonzero" fill-opacity="1" /><path clip-path="url(#clip150)" d="M1704.45 74.5491 L1704.45 81.5977 Q1701.29 79.9773 1697.89 79.1671 Q1694.48 78.3569 1690.84 78.3569 Q1685.29 78.3569 1682.49 80.0583 Q1679.74 81.7597 1679.74 85.1625 Q1679.74 87.755 1681.72 89.2539 Q1683.71 90.7122 1689.7 92.049 L1692.26 92.6161 Q1700.2 94.3175 1703.52 97.4367 Q1706.88 100.515 1706.88 106.065 Q1706.88 112.385 1701.86 116.071 Q1696.87 119.757 1688.12 119.757 Q1684.48 119.757 1680.51 119.028 Q1676.58 118.339 1672.2 116.922 L1672.2 109.225 Q1676.34 111.372 1680.35 112.466 Q1684.36 113.519 1688.29 113.519 Q1693.55 113.519 1696.39 111.736 Q1699.22 109.913 1699.22 106.632 Q1699.22 103.594 1697.16 101.974 Q1695.13 100.353 1688.21 98.8545 L1685.61 98.2469 Q1678.69 96.7886 1675.61 93.7909 Q1672.53 90.7527 1672.53 85.4865 Q1672.53 79.0861 1677.07 75.6023 Q1681.6 72.1186 1689.95 72.1186 Q1694.08 72.1186 1697.73 72.7262 Q1701.37 73.3338 1704.45 74.5491 Z" fill="#000000" fill-rule="nonzero" fill-opacity="1" /><path clip-path="url(#clip152)" d="M338.852 469.881 L338.852 1397.55 L364.142 1397.55 L364.142 469.881 L338.852 469.881 L338.852 469.881  Z" fill="#009af9" fill-rule="evenodd" fill-opacity="1"/>
<polyline clip-path="url(#clip152)" style="stroke:#000000; stroke-linecap:round; stroke-linejoin:round; stroke-width:4; stroke-opacity:1; fill:none" points="338.852,469.881 338.852,1397.55 364.142,1397.55 364.142,469.881 338.852,469.881 "/>
<path clip-path="url(#clip152)" d="M465.298 547.68 L465.298 1397.55 L490.587 1397.55 L490.587 547.68 L465.298 547.68 L465.298 547.68  Z" fill="#009af9" fill-rule="evenodd" fill-opacity="1"/>
<polyline clip-path="url(#clip152)" style="stroke:#000000; stroke-linecap:round; stroke-linejoin:round; stroke-width:4; stroke-opacity:1; fill:none" points="465.298,547.68 465.298,1397.55 490.587,1397.55 490.587,547.68 465.298,547.68 "/>
<path clip-path="url(#clip152)" d="M642.323 469.881 L642.323 1397.55 L667.612 1397.55 L667.612 469.881 L642.323 469.881 L642.323 469.881  Z" fill="#009af9" fill-rule="evenodd" fill-opacity="1"/>
<polyline clip-path="url(#clip152)" style="stroke:#000000; stroke-linecap:round; stroke-linejoin:round; stroke-width:4; stroke-opacity:1; fill:none" points="642.323,469.881 642.323,1397.55 667.612,1397.55 667.612,469.881 642.323,469.881 "/>
<path clip-path="url(#clip152)" d="M692.901 1112.58 L692.901 1397.55 L718.19 1397.55 L718.19 1112.58 L692.901 1112.58 L692.901 1112.58  Z" fill="#009af9" fill-rule="evenodd" fill-opacity="1"/>
<polyline clip-path="url(#clip152)" style="stroke:#000000; stroke-linecap:round; stroke-linejoin:round; stroke-width:4; stroke-opacity:1; fill:none" points="692.901,1112.58 692.901,1397.55 718.19,1397.55 718.19,1112.58 692.901,1112.58 "/>
<path clip-path="url(#clip152)" d="M718.19 1112.58 L718.19 1397.55 L743.479 1397.55 L743.479 1112.58 L718.19 1112.58 L718.19 1112.58  Z" fill="#009af9" fill-rule="evenodd" fill-opacity="1"/>
<polyline clip-path="url(#clip152)" style="stroke:#000000; stroke-linecap:round; stroke-linejoin:round; stroke-width:4; stroke-opacity:1; fill:none" points="718.19,1112.58 718.19,1397.55 743.479,1397.55 743.479,1112.58 718.19,1112.58 "/>
<path clip-path="url(#clip152)" d="M768.768 1026.79 L768.768 1397.55 L794.058 1397.55 L794.058 1026.79 L768.768 1026.79 L768.768 1026.79  Z" fill="#009af9" fill-rule="evenodd" fill-opacity="1"/>
<polyline clip-path="url(#clip152)" style="stroke:#000000; stroke-linecap:round; stroke-linejoin:round; stroke-width:4; stroke-opacity:1; fill:none" points="768.768,1026.79 768.768,1397.55 794.058,1397.55 794.058,1026.79 768.768,1026.79 "/>
<path clip-path="url(#clip152)" d="M794.058 1112.58 L794.058 1397.55 L819.347 1397.55 L819.347 1112.58 L794.058 1112.58 L794.058 1112.58  Z" fill="#009af9" fill-rule="evenodd" fill-opacity="1"/>
<polyline clip-path="url(#clip152)" style="stroke:#000000; stroke-linecap:round; stroke-linejoin:round; stroke-width:4; stroke-opacity:1; fill:none" points="794.058,1112.58 794.058,1397.55 819.347,1397.55 819.347,1112.58 794.058,1112.58 "/>
<path clip-path="url(#clip152)" d="M819.347 1112.58 L819.347 1397.55 L844.636 1397.55 L844.636 1112.58 L819.347 1112.58 L819.347 1112.58  Z" fill="#009af9" fill-rule="evenodd" fill-opacity="1"/>
<polyline clip-path="url(#clip152)" style="stroke:#000000; stroke-linecap:round; stroke-linejoin:round; stroke-width:4; stroke-opacity:1; fill:none" points="819.347,1112.58 819.347,1397.55 844.636,1397.55 844.636,1112.58 819.347,1112.58 "/>
<path clip-path="url(#clip152)" d="M844.636 913.39 L844.636 1397.55 L869.925 1397.55 L869.925 913.39 L844.636 913.39 L844.636 913.39  Z" fill="#009af9" fill-rule="evenodd" fill-opacity="1"/>
<polyline clip-path="url(#clip152)" style="stroke:#000000; stroke-linecap:round; stroke-linejoin:round; stroke-width:4; stroke-opacity:1; fill:none" points="844.636,913.39 844.636,1397.55 869.925,1397.55 869.925,913.39 844.636,913.39 "/>
<path clip-path="url(#clip152)" d="M869.925 557.05 L869.925 1397.55 L895.214 1397.55 L895.214 557.05 L869.925 557.05 L869.925 557.05  Z" fill="#009af9" fill-rule="evenodd" fill-opacity="1"/>
<polyline clip-path="url(#clip152)" style="stroke:#000000; stroke-linecap:round; stroke-linejoin:round; stroke-width:4; stroke-opacity:1; fill:none" points="869.925,557.05 869.925,1397.55 895.214,1397.55 895.214,557.05 869.925,557.05 "/>
<path clip-path="url(#clip152)" d="M895.214 913.39 L895.214 1397.55 L920.503 1397.55 L920.503 913.39 L895.214 913.39 L895.214 913.39  Z" fill="#009af9" fill-rule="evenodd" fill-opacity="1"/>
<polyline clip-path="url(#clip152)" style="stroke:#000000; stroke-linecap:round; stroke-linejoin:round; stroke-width:4; stroke-opacity:1; fill:none" points="895.214,913.39 895.214,1397.55 920.503,1397.55 920.503,913.39 895.214,913.39 "/>
<path clip-path="url(#clip152)" d="M920.503 890.825 L920.503 1397.55 L945.793 1397.55 L945.793 890.825 L920.503 890.825 L920.503 890.825  Z" fill="#009af9" fill-rule="evenodd" fill-opacity="1"/>
<polyline clip-path="url(#clip152)" style="stroke:#000000; stroke-linecap:round; stroke-linejoin:round; stroke-width:4; stroke-opacity:1; fill:none" points="920.503,890.825 920.503,1397.55 945.793,1397.55 945.793,890.825 920.503,890.825 "/>
<path clip-path="url(#clip152)" d="M945.793 941.007 L945.793 1397.55 L971.082 1397.55 L971.082 941.007 L945.793 941.007 L945.793 941.007  Z" fill="#009af9" fill-rule="evenodd" fill-opacity="1"/>
<polyline clip-path="url(#clip152)" style="stroke:#000000; stroke-linecap:round; stroke-linejoin:round; stroke-width:4; stroke-opacity:1; fill:none" points="945.793,941.007 945.793,1397.55 971.082,1397.55 971.082,941.007 945.793,941.007 "/>
<path clip-path="url(#clip152)" d="M971.082 913.39 L971.082 1397.55 L996.371 1397.55 L996.371 913.39 L971.082 913.39 L971.082 913.39  Z" fill="#009af9" fill-rule="evenodd" fill-opacity="1"/>
<polyline clip-path="url(#clip152)" style="stroke:#000000; stroke-linecap:round; stroke-linejoin:round; stroke-width:4; stroke-opacity:1; fill:none" points="971.082,913.39 971.082,1397.55 996.371,1397.55 996.371,913.39 971.082,913.39 "/>
<path clip-path="url(#clip152)" d="M996.371 827.603 L996.371 1397.55 L1021.66 1397.55 L1021.66 827.603 L996.371 827.603 L996.371 827.603  Z" fill="#009af9" fill-rule="evenodd" fill-opacity="1"/>
<polyline clip-path="url(#clip152)" style="stroke:#000000; stroke-linecap:round; stroke-linejoin:round; stroke-width:4; stroke-opacity:1; fill:none" points="996.371,827.603 996.371,1397.55 1021.66,1397.55 1021.66,827.603 996.371,827.603 "/>
<path clip-path="url(#clip152)" d="M1021.66 871.747 L1021.66 1397.55 L1046.95 1397.55 L1046.95 871.747 L1021.66 871.747 L1021.66 871.747  Z" fill="#009af9" fill-rule="evenodd" fill-opacity="1"/>
<polyline clip-path="url(#clip152)" style="stroke:#000000; stroke-linecap:round; stroke-linejoin:round; stroke-width:4; stroke-opacity:1; fill:none" points="1021.66,871.747 1021.66,1397.55 1046.95,1397.55 1046.95,871.747 1021.66,871.747 "/>
<path clip-path="url(#clip152)" d="M1046.95 805.039 L1046.95 1397.55 L1072.24 1397.55 L1072.24 805.039 L1046.95 805.039 L1046.95 805.039  Z" fill="#009af9" fill-rule="evenodd" fill-opacity="1"/>
<polyline clip-path="url(#clip152)" style="stroke:#000000; stroke-linecap:round; stroke-linejoin:round; stroke-width:4; stroke-opacity:1; fill:none" points="1046.95,805.039 1046.95,1397.55 1072.24,1397.55 1072.24,805.039 1046.95,805.039 "/>
<path clip-path="url(#clip152)" d="M1072.24 827.603 L1072.24 1397.55 L1097.53 1397.55 L1097.53 827.603 L1072.24 827.603 L1072.24 827.603  Z" fill="#009af9" fill-rule="evenodd" fill-opacity="1"/>
<polyline clip-path="url(#clip152)" style="stroke:#000000; stroke-linecap:round; stroke-linejoin:round; stroke-width:4; stroke-opacity:1; fill:none" points="1072.24,827.603 1072.24,1397.55 1097.53,1397.55 1097.53,827.603 1072.24,827.603 "/>
<path clip-path="url(#clip152)" d="M1097.53 890.825 L1097.53 1397.55 L1122.82 1397.55 L1122.82 890.825 L1097.53 890.825 L1097.53 890.825  Z" fill="#009af9" fill-rule="evenodd" fill-opacity="1"/>
<polyline clip-path="url(#clip152)" style="stroke:#000000; stroke-linecap:round; stroke-linejoin:round; stroke-width:4; stroke-opacity:1; fill:none" points="1097.53,890.825 1097.53,1397.55 1122.82,1397.55 1122.82,890.825 1097.53,890.825 "/>
<path clip-path="url(#clip152)" d="M1122.82 840.643 L1122.82 1397.55 L1148.11 1397.55 L1148.11 840.643 L1122.82 840.643 L1122.82 840.643  Z" fill="#009af9" fill-rule="evenodd" fill-opacity="1"/>
<polyline clip-path="url(#clip152)" style="stroke:#000000; stroke-linecap:round; stroke-linejoin:round; stroke-width:4; stroke-opacity:1; fill:none" points="1122.82,840.643 1122.82,1397.55 1148.11,1397.55 1148.11,840.643 1122.82,840.643 "/>
<path clip-path="url(#clip152)" d="M1148.11 537.774 L1148.11 1397.55 L1173.4 1397.55 L1173.4 537.774 L1148.11 537.774 L1148.11 537.774  Z" fill="#009af9" fill-rule="evenodd" fill-opacity="1"/>
<polyline clip-path="url(#clip152)" style="stroke:#000000; stroke-linecap:round; stroke-linejoin:round; stroke-width:4; stroke-opacity:1; fill:none" points="1148.11,537.774 1148.11,1397.55 1173.4,1397.55 1173.4,537.774 1148.11,537.774 "/>
<path clip-path="url(#clip152)" d="M1173.4 548.976 L1173.4 1397.55 L1198.68 1397.55 L1198.68 548.976 L1173.4 548.976 L1173.4 548.976  Z" fill="#009af9" fill-rule="evenodd" fill-opacity="1"/>
<polyline clip-path="url(#clip152)" style="stroke:#000000; stroke-linecap:round; stroke-linejoin:round; stroke-width:4; stroke-opacity:1; fill:none" points="1173.4,548.976 1173.4,1397.55 1198.68,1397.55 1198.68,548.976 1173.4,548.976 "/>
<path clip-path="url(#clip152)" d="M1198.68 785.96 L1198.68 1397.55 L1223.97 1397.55 L1223.97 785.96 L1198.68 785.96 L1198.68 785.96  Z" fill="#009af9" fill-rule="evenodd" fill-opacity="1"/>
<polyline clip-path="url(#clip152)" style="stroke:#000000; stroke-linecap:round; stroke-linejoin:round; stroke-width:4; stroke-opacity:1; fill:none" points="1198.68,785.96 1198.68,1397.55 1223.97,1397.55 1223.97,785.96 1198.68,785.96 "/>
<path clip-path="url(#clip152)" d="M1223.97 541.396 L1223.97 1397.55 L1249.26 1397.55 L1249.26 541.396 L1223.97 541.396 L1223.97 541.396  Z" fill="#009af9" fill-rule="evenodd" fill-opacity="1"/>
<polyline clip-path="url(#clip152)" style="stroke:#000000; stroke-linecap:round; stroke-linejoin:round; stroke-width:4; stroke-opacity:1; fill:none" points="1223.97,541.396 1223.97,1397.55 1249.26,1397.55 1249.26,541.396 1223.97,541.396 "/>
<path clip-path="url(#clip152)" d="M1249.26 890.825 L1249.26 1397.55 L1274.55 1397.55 L1274.55 890.825 L1249.26 890.825 L1249.26 890.825  Z" fill="#009af9" fill-rule="evenodd" fill-opacity="1"/>
<polyline clip-path="url(#clip152)" style="stroke:#000000; stroke-linecap:round; stroke-linejoin:round; stroke-width:4; stroke-opacity:1; fill:none" points="1249.26,890.825 1249.26,1397.55 1274.55,1397.55 1274.55,890.825 1249.26,890.825 "/>
<path clip-path="url(#clip152)" d="M1274.55 815.808 L1274.55 1397.55 L1299.84 1397.55 L1299.84 815.808 L1274.55 815.808 L1274.55 815.808  Z" fill="#009af9" fill-rule="evenodd" fill-opacity="1"/>
<polyline clip-path="url(#clip152)" style="stroke:#000000; stroke-linecap:round; stroke-linejoin:round; stroke-width:4; stroke-opacity:1; fill:none" points="1274.55,815.808 1274.55,1397.55 1299.84,1397.55 1299.84,815.808 1274.55,815.808 "/>
<path clip-path="url(#clip152)" d="M1299.84 827.603 L1299.84 1397.55 L1325.13 1397.55 L1325.13 827.603 L1299.84 827.603 L1299.84 827.603  Z" fill="#009af9" fill-rule="evenodd" fill-opacity="1"/>
<polyline clip-path="url(#clip152)" style="stroke:#000000; stroke-linecap:round; stroke-linejoin:round; stroke-width:4; stroke-opacity:1; fill:none" points="1299.84,827.603 1299.84,1397.55 1325.13,1397.55 1325.13,827.603 1299.84,827.603 "/>
<path clip-path="url(#clip152)" d="M1325.13 156.084 L1325.13 1397.55 L1350.42 1397.55 L1350.42 156.084 L1325.13 156.084 L1325.13 156.084  Z" fill="#009af9" fill-rule="evenodd" fill-opacity="1"/>
<polyline clip-path="url(#clip152)" style="stroke:#000000; stroke-linecap:round; stroke-linejoin:round; stroke-width:4; stroke-opacity:1; fill:none" points="1325.13,156.084 1325.13,1397.55 1350.42,1397.55 1350.42,156.084 1325.13,156.084 "/>
<path clip-path="url(#clip152)" d="M1350.42 157.509 L1350.42 1397.55 L1375.71 1397.55 L1375.71 157.509 L1350.42 157.509 L1350.42 157.509  Z" fill="#009af9" fill-rule="evenodd" fill-opacity="1"/>
<polyline clip-path="url(#clip152)" style="stroke:#000000; stroke-linecap:round; stroke-linejoin:round; stroke-width:4; stroke-opacity:1; fill:none" points="1350.42,157.509 1350.42,1397.55 1375.71,1397.55 1375.71,157.509 1350.42,157.509 "/>
<path clip-path="url(#clip152)" d="M1375.71 913.39 L1375.71 1397.55 L1401 1397.55 L1401 913.39 L1375.71 913.39 L1375.71 913.39  Z" fill="#009af9" fill-rule="evenodd" fill-opacity="1"/>
<polyline clip-path="url(#clip152)" style="stroke:#000000; stroke-linecap:round; stroke-linejoin:round; stroke-width:4; stroke-opacity:1; fill:none" points="1375.71,913.39 1375.71,1397.55 1401,1397.55 1401,913.39 1375.71,913.39 "/>
<path clip-path="url(#clip152)" d="M1401 913.39 L1401 1397.55 L1426.29 1397.55 L1426.29 913.39 L1401 913.39 L1401 913.39  Z" fill="#009af9" fill-rule="evenodd" fill-opacity="1"/>
<polyline clip-path="url(#clip152)" style="stroke:#000000; stroke-linecap:round; stroke-linejoin:round; stroke-width:4; stroke-opacity:1; fill:none" points="1401,913.39 1401,1397.55 1426.29,1397.55 1426.29,913.39 1401,913.39 "/>
<path clip-path="url(#clip152)" d="M1426.29 976.611 L1426.29 1397.55 L1451.58 1397.55 L1451.58 976.611 L1426.29 976.611 L1426.29 976.611  Z" fill="#009af9" fill-rule="evenodd" fill-opacity="1"/>
<polyline clip-path="url(#clip152)" style="stroke:#000000; stroke-linecap:round; stroke-linejoin:round; stroke-width:4; stroke-opacity:1; fill:none" points="1426.29,976.611 1426.29,1397.55 1451.58,1397.55 1451.58,976.611 1426.29,976.611 "/>
<path clip-path="url(#clip152)" d="M1451.58 547.68 L1451.58 1397.55 L1476.87 1397.55 L1476.87 547.68 L1451.58 547.68 L1451.58 547.68  Z" fill="#009af9" fill-rule="evenodd" fill-opacity="1"/>
<polyline clip-path="url(#clip152)" style="stroke:#000000; stroke-linecap:round; stroke-linejoin:round; stroke-width:4; stroke-opacity:1; fill:none" points="1451.58,547.68 1451.58,1397.55 1476.87,1397.55 1476.87,547.68 1451.58,547.68 "/>
<path clip-path="url(#clip152)" d="M1476.87 890.825 L1476.87 1397.55 L1502.15 1397.55 L1502.15 890.825 L1476.87 890.825 L1476.87 890.825  Z" fill="#009af9" fill-rule="evenodd" fill-opacity="1"/>
<polyline clip-path="url(#clip152)" style="stroke:#000000; stroke-linecap:round; stroke-linejoin:round; stroke-width:4; stroke-opacity:1; fill:none" points="1476.87,890.825 1476.87,1397.55 1502.15,1397.55 1502.15,890.825 1476.87,890.825 "/>
<path clip-path="url(#clip152)" d="M1502.15 543.872 L1502.15 1397.55 L1527.44 1397.55 L1527.44 543.872 L1502.15 543.872 L1502.15 543.872  Z" fill="#009af9" fill-rule="evenodd" fill-opacity="1"/>
<polyline clip-path="url(#clip152)" style="stroke:#000000; stroke-linecap:round; stroke-linejoin:round; stroke-width:4; stroke-opacity:1; fill:none" points="1502.15,543.872 1502.15,1397.55 1527.44,1397.55 1527.44,543.872 1502.15,543.872 "/>
<path clip-path="url(#clip152)" d="M1527.44 552.947 L1527.44 1397.55 L1552.73 1397.55 L1552.73 552.947 L1527.44 552.947 L1527.44 552.947  Z" fill="#009af9" fill-rule="evenodd" fill-opacity="1"/>
<polyline clip-path="url(#clip152)" style="stroke:#000000; stroke-linecap:round; stroke-linejoin:round; stroke-width:4; stroke-opacity:1; fill:none" points="1527.44,552.947 1527.44,1397.55 1552.73,1397.55 1552.73,552.947 1527.44,552.947 "/>
<path clip-path="url(#clip152)" d="M1552.73 1112.58 L1552.73 1397.55 L1578.02 1397.55 L1578.02 1112.58 L1552.73 1112.58 L1552.73 1112.58  Z" fill="#009af9" fill-rule="evenodd" fill-opacity="1"/>
<polyline clip-path="url(#clip152)" style="stroke:#000000; stroke-linecap:round; stroke-linejoin:round; stroke-width:4; stroke-opacity:1; fill:none" points="1552.73,1112.58 1552.73,1397.55 1578.02,1397.55 1578.02,1112.58 1552.73,1112.58 "/>
<path clip-path="url(#clip152)" d="M1578.02 1026.79 L1578.02 1397.55 L1603.31 1397.55 L1603.31 1026.79 L1578.02 1026.79 L1578.02 1026.79  Z" fill="#009af9" fill-rule="evenodd" fill-opacity="1"/>
<polyline clip-path="url(#clip152)" style="stroke:#000000; stroke-linecap:round; stroke-linejoin:round; stroke-width:4; stroke-opacity:1; fill:none" points="1578.02,1026.79 1578.02,1397.55 1603.31,1397.55 1603.31,1026.79 1578.02,1026.79 "/>
<path clip-path="url(#clip152)" d="M1628.6 1112.58 L1628.6 1397.55 L1653.89 1397.55 L1653.89 1112.58 L1628.6 1112.58 L1628.6 1112.58  Z" fill="#009af9" fill-rule="evenodd" fill-opacity="1"/>
<polyline clip-path="url(#clip152)" style="stroke:#000000; stroke-linecap:round; stroke-linejoin:round; stroke-width:4; stroke-opacity:1; fill:none" points="1628.6,1112.58 1628.6,1397.55 1653.89,1397.55 1653.89,1112.58 1628.6,1112.58 "/>
<path clip-path="url(#clip152)" d="M1653.89 1112.58 L1653.89 1397.55 L1679.18 1397.55 L1679.18 1112.58 L1653.89 1112.58 L1653.89 1112.58  Z" fill="#009af9" fill-rule="evenodd" fill-opacity="1"/>
<polyline clip-path="url(#clip152)" style="stroke:#000000; stroke-linecap:round; stroke-linejoin:round; stroke-width:4; stroke-opacity:1; fill:none" points="1653.89,1112.58 1653.89,1397.55 1679.18,1397.55 1679.18,1112.58 1653.89,1112.58 "/>
<path clip-path="url(#clip152)" d="M1679.18 469.881 L1679.18 1397.55 L1704.47 1397.55 L1704.47 469.881 L1679.18 469.881 L1679.18 469.881  Z" fill="#009af9" fill-rule="evenodd" fill-opacity="1"/>
<polyline clip-path="url(#clip152)" style="stroke:#000000; stroke-linecap:round; stroke-linejoin:round; stroke-width:4; stroke-opacity:1; fill:none" points="1679.18,469.881 1679.18,1397.55 1704.47,1397.55 1704.47,469.881 1679.18,469.881 "/>
<path clip-path="url(#clip152)" d="M1805.62 547.68 L1805.62 1397.55 L1830.91 1397.55 L1830.91 547.68 L1805.62 547.68 L1805.62 547.68  Z" fill="#009af9" fill-rule="evenodd" fill-opacity="1"/>
<polyline clip-path="url(#clip152)" style="stroke:#000000; stroke-linecap:round; stroke-linejoin:round; stroke-width:4; stroke-opacity:1; fill:none" points="1805.62,547.68 1805.62,1397.55 1830.91,1397.55 1830.91,547.68 1805.62,547.68 "/>
<path clip-path="url(#clip152)" d="M2210.25 564.206 L2210.25 1397.55 L2235.54 1397.55 L2235.54 564.206 L2210.25 564.206 L2210.25 564.206  Z" fill="#009af9" fill-rule="evenodd" fill-opacity="1"/>
<polyline clip-path="url(#clip152)" style="stroke:#000000; stroke-linecap:round; stroke-linejoin:round; stroke-width:4; stroke-opacity:1; fill:none" points="2210.25,564.206 2210.25,1397.55 2235.54,1397.55 2235.54,564.206 2210.25,564.206 "/>
<circle clip-path="url(#clip152)" style="fill:#009af9; stroke:none; fill-opacity:0" cx="351.497" cy="469.881" r="2"/>
<circle clip-path="url(#clip152)" style="fill:#009af9; stroke:none; fill-opacity:0" cx="477.943" cy="547.68" r="2"/>
<circle clip-path="url(#clip152)" style="fill:#009af9; stroke:none; fill-opacity:0" cx="654.967" cy="469.881" r="2"/>
<circle clip-path="url(#clip152)" style="fill:#009af9; stroke:none; fill-opacity:0" cx="705.545" cy="1112.58" r="2"/>
<circle clip-path="url(#clip152)" style="fill:#009af9; stroke:none; fill-opacity:0" cx="730.835" cy="1112.58" r="2"/>
<circle clip-path="url(#clip152)" style="fill:#009af9; stroke:none; fill-opacity:0" cx="781.413" cy="1026.79" r="2"/>
<circle clip-path="url(#clip152)" style="fill:#009af9; stroke:none; fill-opacity:0" cx="806.702" cy="1112.58" r="2"/>
<circle clip-path="url(#clip152)" style="fill:#009af9; stroke:none; fill-opacity:0" cx="831.991" cy="1112.58" r="2"/>
<circle clip-path="url(#clip152)" style="fill:#009af9; stroke:none; fill-opacity:0" cx="857.281" cy="913.39" r="2"/>
<circle clip-path="url(#clip152)" style="fill:#009af9; stroke:none; fill-opacity:0" cx="882.57" cy="557.05" r="2"/>
<circle clip-path="url(#clip152)" style="fill:#009af9; stroke:none; fill-opacity:0" cx="907.859" cy="913.39" r="2"/>
<circle clip-path="url(#clip152)" style="fill:#009af9; stroke:none; fill-opacity:0" cx="933.148" cy="890.825" r="2"/>
<circle clip-path="url(#clip152)" style="fill:#009af9; stroke:none; fill-opacity:0" cx="958.437" cy="941.007" r="2"/>
<circle clip-path="url(#clip152)" style="fill:#009af9; stroke:none; fill-opacity:0" cx="983.726" cy="913.39" r="2"/>
<circle clip-path="url(#clip152)" style="fill:#009af9; stroke:none; fill-opacity:0" cx="1009.02" cy="827.603" r="2"/>
<circle clip-path="url(#clip152)" style="fill:#009af9; stroke:none; fill-opacity:0" cx="1034.3" cy="871.747" r="2"/>
<circle clip-path="url(#clip152)" style="fill:#009af9; stroke:none; fill-opacity:0" cx="1059.59" cy="805.039" r="2"/>
<circle clip-path="url(#clip152)" style="fill:#009af9; stroke:none; fill-opacity:0" cx="1084.88" cy="827.603" r="2"/>
<circle clip-path="url(#clip152)" style="fill:#009af9; stroke:none; fill-opacity:0" cx="1110.17" cy="890.825" r="2"/>
<circle clip-path="url(#clip152)" style="fill:#009af9; stroke:none; fill-opacity:0" cx="1135.46" cy="840.643" r="2"/>
<circle clip-path="url(#clip152)" style="fill:#009af9; stroke:none; fill-opacity:0" cx="1160.75" cy="537.774" r="2"/>
<circle clip-path="url(#clip152)" style="fill:#009af9; stroke:none; fill-opacity:0" cx="1186.04" cy="548.976" r="2"/>
<circle clip-path="url(#clip152)" style="fill:#009af9; stroke:none; fill-opacity:0" cx="1211.33" cy="785.96" r="2"/>
<circle clip-path="url(#clip152)" style="fill:#009af9; stroke:none; fill-opacity:0" cx="1236.62" cy="541.396" r="2"/>
<circle clip-path="url(#clip152)" style="fill:#009af9; stroke:none; fill-opacity:0" cx="1261.91" cy="890.825" r="2"/>
<circle clip-path="url(#clip152)" style="fill:#009af9; stroke:none; fill-opacity:0" cx="1287.2" cy="815.808" r="2"/>
<circle clip-path="url(#clip152)" style="fill:#009af9; stroke:none; fill-opacity:0" cx="1312.49" cy="827.603" r="2"/>
<circle clip-path="url(#clip152)" style="fill:#009af9; stroke:none; fill-opacity:0" cx="1337.77" cy="156.084" r="2"/>
<circle clip-path="url(#clip152)" style="fill:#009af9; stroke:none; fill-opacity:0" cx="1363.06" cy="157.509" r="2"/>
<circle clip-path="url(#clip152)" style="fill:#009af9; stroke:none; fill-opacity:0" cx="1388.35" cy="913.39" r="2"/>
<circle clip-path="url(#clip152)" style="fill:#009af9; stroke:none; fill-opacity:0" cx="1413.64" cy="913.39" r="2"/>
<circle clip-path="url(#clip152)" style="fill:#009af9; stroke:none; fill-opacity:0" cx="1438.93" cy="976.611" r="2"/>
<circle clip-path="url(#clip152)" style="fill:#009af9; stroke:none; fill-opacity:0" cx="1464.22" cy="547.68" r="2"/>
<circle clip-path="url(#clip152)" style="fill:#009af9; stroke:none; fill-opacity:0" cx="1489.51" cy="890.825" r="2"/>
<circle clip-path="url(#clip152)" style="fill:#009af9; stroke:none; fill-opacity:0" cx="1514.8" cy="543.872" r="2"/>
<circle clip-path="url(#clip152)" style="fill:#009af9; stroke:none; fill-opacity:0" cx="1540.09" cy="552.947" r="2"/>
<circle clip-path="url(#clip152)" style="fill:#009af9; stroke:none; fill-opacity:0" cx="1565.38" cy="1112.58" r="2"/>
<circle clip-path="url(#clip152)" style="fill:#009af9; stroke:none; fill-opacity:0" cx="1590.67" cy="1026.79" r="2"/>
<circle clip-path="url(#clip152)" style="fill:#009af9; stroke:none; fill-opacity:0" cx="1641.24" cy="1112.58" r="2"/>
<circle clip-path="url(#clip152)" style="fill:#009af9; stroke:none; fill-opacity:0" cx="1666.53" cy="1112.58" r="2"/>
<circle clip-path="url(#clip152)" style="fill:#009af9; stroke:none; fill-opacity:0" cx="1691.82" cy="469.881" r="2"/>
<circle clip-path="url(#clip152)" style="fill:#009af9; stroke:none; fill-opacity:0" cx="1818.27" cy="547.68" r="2"/>
<circle clip-path="url(#clip152)" style="fill:#009af9; stroke:none; fill-opacity:0" cx="2222.9" cy="564.206" r="2"/>
</svg>
