<?xml version="1.0" encoding="utf-8"?>
<svg xmlns="http://www.w3.org/2000/svg" xmlns:xlink="http://www.w3.org/1999/xlink" width="600" height="400" viewBox="0 0 2400 1600">
<defs>
  <clipPath id="clip390">
    <rect x="0" y="0" width="2400" height="1600"/>
  </clipPath>
</defs>
<path clip-path="url(#clip390)" d="M0 1600 L2400 1600 L2400 0 L0 0  Z" fill="#ffffff" fill-rule="evenodd" fill-opacity="1"/>
<defs>
  <clipPath id="clip391">
    <rect x="480" y="0" width="1681" height="1600"/>
  </clipPath>
</defs>
<path clip-path="url(#clip390)" d="M221.637 1396.96 L2352.76 1396.96 L2352.76 156.846 L221.637 156.846  Z" fill="#ffffff" fill-rule="evenodd" fill-opacity="1"/>
<defs>
  <clipPath id="clip392">
    <rect x="221" y="156" width="2132" height="1241"/>
  </clipPath>
</defs>
<polyline clip-path="url(#clip392)" style="stroke:#000000; stroke-linecap:round; stroke-linejoin:round; stroke-width:2; stroke-opacity:0.1; fill:none" points="462.549,1396.96 462.549,156.846 "/>
<polyline clip-path="url(#clip392)" style="stroke:#000000; stroke-linecap:round; stroke-linejoin:round; stroke-width:2; stroke-opacity:0.1; fill:none" points="874.873,1396.96 874.873,156.846 "/>
<polyline clip-path="url(#clip392)" style="stroke:#000000; stroke-linecap:round; stroke-linejoin:round; stroke-width:2; stroke-opacity:0.1; fill:none" points="1287.2,1396.96 1287.2,156.846 "/>
<polyline clip-path="url(#clip392)" style="stroke:#000000; stroke-linecap:round; stroke-linejoin:round; stroke-width:2; stroke-opacity:0.1; fill:none" points="1699.52,1396.96 1699.52,156.846 "/>
<polyline clip-path="url(#clip392)" style="stroke:#000000; stroke-linecap:round; stroke-linejoin:round; stroke-width:2; stroke-opacity:0.1; fill:none" points="2111.84,1396.96 2111.84,156.846 "/>
<polyline clip-path="url(#clip392)" style="stroke:#000000; stroke-linecap:round; stroke-linejoin:round; stroke-width:2; stroke-opacity:0.1; fill:none" points="221.637,1396.96 2352.76,1396.96 "/>
<polyline clip-path="url(#clip392)" style="stroke:#000000; stroke-linecap:round; stroke-linejoin:round; stroke-width:2; stroke-opacity:0.1; fill:none" points="221.637,669.604 2352.76,669.604 "/>
<polyline clip-path="url(#clip390)" style="stroke:#000000; stroke-linecap:round; stroke-linejoin:round; stroke-width:4; stroke-opacity:1; fill:none" points="221.637,1396.96 2352.76,1396.96 "/>
<polyline clip-path="url(#clip390)" style="stroke:#000000; stroke-linecap:round; stroke-linejoin:round; stroke-width:4; stroke-opacity:1; fill:none" points="462.549,1396.96 462.549,1378.06 "/>
<polyline clip-path="url(#clip390)" style="stroke:#000000; stroke-linecap:round; stroke-linejoin:round; stroke-width:4; stroke-opacity:1; fill:none" points="874.873,1396.96 874.873,1378.06 "/>
<polyline clip-path="url(#clip390)" style="stroke:#000000; stroke-linecap:round; stroke-linejoin:round; stroke-width:4; stroke-opacity:1; fill:none" points="1287.2,1396.96 1287.2,1378.06 "/>
<polyline clip-path="url(#clip390)" style="stroke:#000000; stroke-linecap:round; stroke-linejoin:round; stroke-width:4; stroke-opacity:1; fill:none" points="1699.52,1396.96 1699.52,1378.06 "/>
<polyline clip-path="url(#clip390)" style="stroke:#000000; stroke-linecap:round; stroke-linejoin:round; stroke-width:4; stroke-opacity:1; fill:none" points="2111.84,1396.96 2111.84,1378.06 "/>
<path clip-path="url(#clip390)" d="M393.997 1442.53 L423.672 1442.53 L423.672 1446.46 L393.997 1446.46 L393.997 1442.53 Z" fill="#000000" fill-rule="nonzero" fill-opacity="1" /><path clip-path="url(#clip390)" d="M443.765 1427.87 Q440.154 1427.87 438.325 1431.44 Q436.52 1434.98 436.52 1442.11 Q436.52 1449.22 438.325 1452.78 Q440.154 1456.32 443.765 1456.32 Q447.399 1456.32 449.205 1452.78 Q451.033 1449.22 451.033 1442.11 Q451.033 1434.98 449.205 1431.44 Q447.399 1427.87 443.765 1427.87 M443.765 1424.17 Q449.575 1424.17 452.631 1428.78 Q455.709 1433.36 455.709 1442.11 Q455.709 1450.84 452.631 1455.44 Q449.575 1460.03 443.765 1460.03 Q437.955 1460.03 434.876 1455.44 Q431.82 1450.84 431.82 1442.11 Q431.82 1433.36 434.876 1428.78 Q437.955 1424.17 443.765 1424.17 Z" fill="#000000" fill-rule="nonzero" fill-opacity="1" /><path clip-path="url(#clip390)" d="M463.927 1453.48 L468.811 1453.48 L468.811 1459.36 L463.927 1459.36 L463.927 1453.48 Z" fill="#000000" fill-rule="nonzero" fill-opacity="1" /><path clip-path="url(#clip390)" d="M479.806 1455.42 L487.445 1455.42 L487.445 1429.05 L479.135 1430.72 L479.135 1426.46 L487.399 1424.8 L492.075 1424.8 L492.075 1455.42 L499.714 1455.42 L499.714 1459.36 L479.806 1459.36 L479.806 1455.42 Z" fill="#000000" fill-rule="nonzero" fill-opacity="1" /><path clip-path="url(#clip390)" d="M519.158 1427.87 Q515.547 1427.87 513.718 1431.44 Q511.913 1434.98 511.913 1442.11 Q511.913 1449.22 513.718 1452.78 Q515.547 1456.32 519.158 1456.32 Q522.792 1456.32 524.598 1452.78 Q526.426 1449.22 526.426 1442.11 Q526.426 1434.98 524.598 1431.44 Q522.792 1427.87 519.158 1427.87 M519.158 1424.17 Q524.968 1424.17 528.024 1428.78 Q531.102 1433.36 531.102 1442.11 Q531.102 1450.84 528.024 1455.44 Q524.968 1460.03 519.158 1460.03 Q513.348 1460.03 510.269 1455.44 Q507.214 1450.84 507.214 1442.11 Q507.214 1433.36 510.269 1428.78 Q513.348 1424.17 519.158 1424.17 Z" fill="#000000" fill-rule="nonzero" fill-opacity="1" /><path clip-path="url(#clip390)" d="M806.818 1442.53 L836.494 1442.53 L836.494 1446.46 L806.818 1446.46 L806.818 1442.53 Z" fill="#000000" fill-rule="nonzero" fill-opacity="1" /><path clip-path="url(#clip390)" d="M856.586 1427.87 Q852.975 1427.87 851.146 1431.44 Q849.341 1434.98 849.341 1442.11 Q849.341 1449.22 851.146 1452.78 Q852.975 1456.32 856.586 1456.32 Q860.22 1456.32 862.026 1452.78 Q863.855 1449.22 863.855 1442.11 Q863.855 1434.98 862.026 1431.44 Q860.22 1427.87 856.586 1427.87 M856.586 1424.17 Q862.396 1424.17 865.452 1428.78 Q868.53 1433.36 868.53 1442.11 Q868.53 1450.84 865.452 1455.44 Q862.396 1460.03 856.586 1460.03 Q850.776 1460.03 847.697 1455.44 Q844.642 1450.84 844.642 1442.11 Q844.642 1433.36 847.697 1428.78 Q850.776 1424.17 856.586 1424.17 Z" fill="#000000" fill-rule="nonzero" fill-opacity="1" /><path clip-path="url(#clip390)" d="M876.748 1453.48 L881.632 1453.48 L881.632 1459.36 L876.748 1459.36 L876.748 1453.48 Z" fill="#000000" fill-rule="nonzero" fill-opacity="1" /><path clip-path="url(#clip390)" d="M901.817 1427.87 Q898.206 1427.87 896.377 1431.44 Q894.572 1434.98 894.572 1442.11 Q894.572 1449.22 896.377 1452.78 Q898.206 1456.32 901.817 1456.32 Q905.452 1456.32 907.257 1452.78 Q909.086 1449.22 909.086 1442.11 Q909.086 1434.98 907.257 1431.44 Q905.452 1427.87 901.817 1427.87 M901.817 1424.17 Q907.627 1424.17 910.683 1428.78 Q913.762 1433.36 913.762 1442.11 Q913.762 1450.84 910.683 1455.44 Q907.627 1460.03 901.817 1460.03 Q896.007 1460.03 892.928 1455.44 Q889.873 1450.84 889.873 1442.11 Q889.873 1433.36 892.928 1428.78 Q896.007 1424.17 901.817 1424.17 Z" fill="#000000" fill-rule="nonzero" fill-opacity="1" /><path clip-path="url(#clip390)" d="M922.026 1424.8 L940.382 1424.8 L940.382 1428.73 L926.308 1428.73 L926.308 1437.2 Q927.326 1436.86 928.345 1436.69 Q929.363 1436.51 930.382 1436.51 Q936.169 1436.51 939.549 1439.68 Q942.928 1442.85 942.928 1448.27 Q942.928 1453.85 939.456 1456.95 Q935.984 1460.03 929.664 1460.03 Q927.488 1460.03 925.22 1459.66 Q922.975 1459.29 920.567 1458.55 L920.567 1453.85 Q922.651 1454.98 924.873 1455.54 Q927.095 1456.09 929.572 1456.09 Q933.576 1456.09 935.914 1453.99 Q938.252 1451.88 938.252 1448.27 Q938.252 1444.66 935.914 1442.55 Q933.576 1440.44 929.572 1440.44 Q927.697 1440.44 925.822 1440.86 Q923.97 1441.28 922.026 1442.16 L922.026 1424.8 Z" fill="#000000" fill-rule="nonzero" fill-opacity="1" /><path clip-path="url(#clip390)" d="M1249.5 1427.87 Q1245.89 1427.87 1244.06 1431.44 Q1242.25 1434.98 1242.25 1442.11 Q1242.25 1449.22 1244.06 1452.78 Q1245.89 1456.32 1249.5 1456.32 Q1253.13 1456.32 1254.94 1452.78 Q1256.77 1449.22 1256.77 1442.11 Q1256.77 1434.98 1254.94 1431.44 Q1253.13 1427.87 1249.5 1427.87 M1249.5 1424.17 Q1255.31 1424.17 1258.37 1428.78 Q1261.44 1433.36 1261.44 1442.11 Q1261.44 1450.84 1258.37 1455.44 Q1255.31 1460.03 1249.5 1460.03 Q1243.69 1460.03 1240.61 1455.44 Q1237.56 1450.84 1237.56 1442.11 Q1237.56 1433.36 1240.61 1428.78 Q1243.69 1424.17 1249.5 1424.17 Z" fill="#000000" fill-rule="nonzero" fill-opacity="1" /><path clip-path="url(#clip390)" d="M1269.66 1453.48 L1274.55 1453.48 L1274.55 1459.36 L1269.66 1459.36 L1269.66 1453.48 Z" fill="#000000" fill-rule="nonzero" fill-opacity="1" /><path clip-path="url(#clip390)" d="M1294.73 1427.87 Q1291.12 1427.87 1289.29 1431.44 Q1287.49 1434.98 1287.49 1442.11 Q1287.49 1449.22 1289.29 1452.78 Q1291.12 1456.32 1294.73 1456.32 Q1298.37 1456.32 1300.17 1452.78 Q1302 1449.22 1302 1442.11 Q1302 1434.98 1300.17 1431.44 Q1298.37 1427.87 1294.73 1427.87 M1294.73 1424.17 Q1300.54 1424.17 1303.6 1428.78 Q1306.68 1433.36 1306.68 1442.11 Q1306.68 1450.84 1303.6 1455.44 Q1300.54 1460.03 1294.73 1460.03 Q1288.92 1460.03 1285.84 1455.44 Q1282.79 1450.84 1282.79 1442.11 Q1282.79 1433.36 1285.84 1428.78 Q1288.92 1424.17 1294.73 1424.17 Z" fill="#000000" fill-rule="nonzero" fill-opacity="1" /><path clip-path="url(#clip390)" d="M1324.89 1427.87 Q1321.28 1427.87 1319.45 1431.44 Q1317.65 1434.98 1317.65 1442.11 Q1317.65 1449.22 1319.45 1452.78 Q1321.28 1456.32 1324.89 1456.32 Q1328.53 1456.32 1330.33 1452.78 Q1332.16 1449.22 1332.16 1442.11 Q1332.16 1434.98 1330.33 1431.44 Q1328.53 1427.87 1324.89 1427.87 M1324.89 1424.17 Q1330.7 1424.17 1333.76 1428.78 Q1336.84 1433.36 1336.84 1442.11 Q1336.84 1450.84 1333.76 1455.44 Q1330.7 1460.03 1324.89 1460.03 Q1319.08 1460.03 1316 1455.44 Q1312.95 1450.84 1312.95 1442.11 Q1312.95 1433.36 1316 1428.78 Q1319.08 1424.17 1324.89 1424.17 Z" fill="#000000" fill-rule="nonzero" fill-opacity="1" /><path clip-path="url(#clip390)" d="M1662.32 1427.87 Q1658.71 1427.87 1656.88 1431.44 Q1655.08 1434.98 1655.08 1442.11 Q1655.08 1449.22 1656.88 1452.78 Q1658.71 1456.32 1662.32 1456.32 Q1665.96 1456.32 1667.76 1452.78 Q1669.59 1449.22 1669.59 1442.11 Q1669.59 1434.98 1667.76 1431.44 Q1665.96 1427.87 1662.32 1427.87 M1662.32 1424.17 Q1668.13 1424.17 1671.19 1428.78 Q1674.27 1433.36 1674.27 1442.11 Q1674.27 1450.84 1671.19 1455.44 Q1668.13 1460.03 1662.32 1460.03 Q1656.51 1460.03 1653.43 1455.44 Q1650.38 1450.84 1650.38 1442.11 Q1650.38 1433.36 1653.43 1428.78 Q1656.51 1424.17 1662.32 1424.17 Z" fill="#000000" fill-rule="nonzero" fill-opacity="1" /><path clip-path="url(#clip390)" d="M1682.48 1453.48 L1687.37 1453.48 L1687.37 1459.36 L1682.48 1459.36 L1682.48 1453.48 Z" fill="#000000" fill-rule="nonzero" fill-opacity="1" /><path clip-path="url(#clip390)" d="M1707.55 1427.87 Q1703.94 1427.87 1702.11 1431.44 Q1700.31 1434.98 1700.31 1442.11 Q1700.31 1449.22 1702.11 1452.78 Q1703.94 1456.32 1707.55 1456.32 Q1711.19 1456.32 1712.99 1452.78 Q1714.82 1449.22 1714.82 1442.11 Q1714.82 1434.98 1712.99 1431.44 Q1711.19 1427.87 1707.55 1427.87 M1707.55 1424.17 Q1713.36 1424.17 1716.42 1428.78 Q1719.5 1433.36 1719.5 1442.11 Q1719.5 1450.84 1716.42 1455.44 Q1713.36 1460.03 1707.55 1460.03 Q1701.74 1460.03 1698.66 1455.44 Q1695.61 1450.84 1695.61 1442.11 Q1695.61 1433.36 1698.66 1428.78 Q1701.74 1424.17 1707.55 1424.17 Z" fill="#000000" fill-rule="nonzero" fill-opacity="1" /><path clip-path="url(#clip390)" d="M1727.76 1424.8 L1746.12 1424.8 L1746.12 1428.73 L1732.04 1428.73 L1732.04 1437.2 Q1733.06 1436.86 1734.08 1436.69 Q1735.1 1436.51 1736.12 1436.51 Q1741.9 1436.51 1745.28 1439.68 Q1748.66 1442.85 1748.66 1448.27 Q1748.66 1453.85 1745.19 1456.95 Q1741.72 1460.03 1735.4 1460.03 Q1733.22 1460.03 1730.96 1459.66 Q1728.71 1459.29 1726.3 1458.55 L1726.3 1453.85 Q1728.39 1454.98 1730.61 1455.54 Q1732.83 1456.09 1735.31 1456.09 Q1739.31 1456.09 1741.65 1453.99 Q1743.99 1451.88 1743.99 1448.27 Q1743.99 1444.66 1741.65 1442.55 Q1739.31 1440.44 1735.31 1440.44 Q1733.43 1440.44 1731.56 1440.86 Q1729.71 1441.28 1727.76 1442.16 L1727.76 1424.8 Z" fill="#000000" fill-rule="nonzero" fill-opacity="1" /><path clip-path="url(#clip390)" d="M2074.15 1427.87 Q2070.54 1427.87 2068.71 1431.44 Q2066.9 1434.98 2066.9 1442.11 Q2066.9 1449.22 2068.71 1452.78 Q2070.54 1456.32 2074.15 1456.32 Q2077.78 1456.32 2079.59 1452.78 Q2081.42 1449.22 2081.42 1442.11 Q2081.42 1434.98 2079.59 1431.44 Q2077.78 1427.87 2074.15 1427.87 M2074.15 1424.17 Q2079.96 1424.17 2083.01 1428.78 Q2086.09 1433.36 2086.09 1442.11 Q2086.09 1450.84 2083.01 1455.44 Q2079.96 1460.03 2074.15 1460.03 Q2068.34 1460.03 2065.26 1455.44 Q2062.2 1450.84 2062.2 1442.11 Q2062.2 1433.36 2065.26 1428.78 Q2068.34 1424.17 2074.15 1424.17 Z" fill="#000000" fill-rule="nonzero" fill-opacity="1" /><path clip-path="url(#clip390)" d="M2094.31 1453.48 L2099.19 1453.48 L2099.19 1459.36 L2094.31 1459.36 L2094.31 1453.48 Z" fill="#000000" fill-rule="nonzero" fill-opacity="1" /><path clip-path="url(#clip390)" d="M2110.19 1455.42 L2117.83 1455.42 L2117.83 1429.05 L2109.52 1430.72 L2109.52 1426.46 L2117.78 1424.8 L2122.46 1424.8 L2122.46 1455.42 L2130.1 1455.42 L2130.1 1459.36 L2110.19 1459.36 L2110.19 1455.42 Z" fill="#000000" fill-rule="nonzero" fill-opacity="1" /><path clip-path="url(#clip390)" d="M2149.54 1427.87 Q2145.93 1427.87 2144.1 1431.44 Q2142.29 1434.98 2142.29 1442.11 Q2142.29 1449.22 2144.1 1452.78 Q2145.93 1456.32 2149.54 1456.32 Q2153.17 1456.32 2154.98 1452.78 Q2156.81 1449.22 2156.81 1442.11 Q2156.81 1434.98 2154.98 1431.44 Q2153.17 1427.87 2149.54 1427.87 M2149.54 1424.17 Q2155.35 1424.17 2158.41 1428.78 Q2161.48 1433.36 2161.48 1442.11 Q2161.48 1450.84 2158.41 1455.44 Q2155.35 1460.03 2149.54 1460.03 Q2143.73 1460.03 2140.65 1455.44 Q2137.6 1450.84 2137.6 1442.11 Q2137.6 1433.36 2140.65 1428.78 Q2143.73 1424.17 2149.54 1424.17 Z" fill="#000000" fill-rule="nonzero" fill-opacity="1" /><path clip-path="url(#clip390)" d="M1267.47 1554.62 Q1267.47 1555.23 1267.22 1555.55 Q1266.99 1555.84 1266.76 1555.91 Q1266.57 1555.94 1266.28 1555.94 Q1265.44 1555.94 1262.55 1555.84 Q1259.65 1555.75 1258.81 1555.75 Q1257.46 1555.75 1254.69 1555.84 Q1251.92 1555.94 1250.56 1555.94 Q1249.66 1555.94 1249.66 1555.2 Q1249.66 1554.72 1249.76 1554.46 Q1249.86 1554.17 1250.11 1554.07 Q1250.4 1553.94 1250.56 1553.94 Q1250.76 1553.91 1251.24 1553.91 Q1251.89 1553.91 1252.56 1553.85 Q1253.24 1553.75 1254.08 1553.56 Q1254.91 1553.36 1255.43 1552.88 Q1255.98 1552.4 1255.98 1551.72 Q1255.98 1551.43 1255.75 1549.05 Q1255.52 1546.66 1255.23 1543.89 Q1254.94 1541.09 1254.91 1540.71 L1238.36 1540.71 Q1236.85 1543.31 1235.78 1545.12 Q1234.72 1546.92 1234.33 1547.53 Q1233.95 1548.15 1233.72 1548.53 Q1233.5 1548.92 1233.37 1549.14 Q1232.43 1550.85 1232.43 1551.59 Q1232.43 1553.65 1235.52 1553.91 Q1236.59 1553.91 1236.59 1554.68 Q1236.59 1555.26 1236.33 1555.58 Q1236.07 1555.87 1235.85 1555.91 Q1235.65 1555.94 1235.33 1555.94 Q1234.27 1555.94 1232.05 1555.84 Q1229.82 1555.75 1228.73 1555.75 Q1227.8 1555.75 1225.86 1555.84 Q1223.93 1555.94 1223.06 1555.94 Q1222.67 1555.94 1222.45 1555.71 Q1222.22 1555.49 1222.22 1555.2 Q1222.22 1554.75 1222.29 1554.49 Q1222.38 1554.23 1222.64 1554.1 Q1222.9 1553.97 1223.03 1553.97 Q1223.16 1553.94 1223.61 1553.91 Q1226.06 1553.75 1227.96 1552.59 Q1229.89 1551.4 1231.72 1548.34 L1254.65 1509.82 Q1254.88 1509.43 1255.04 1509.24 Q1255.2 1509.05 1255.52 1508.89 Q1255.88 1508.73 1256.39 1508.73 Q1257.2 1508.73 1257.36 1508.98 Q1257.52 1509.21 1257.62 1510.3 L1261.64 1551.53 Q1261.74 1552.4 1261.8 1552.75 Q1261.9 1553.07 1262.32 1553.43 Q1262.77 1553.75 1263.58 1553.85 Q1264.41 1553.91 1265.96 1553.91 Q1266.54 1553.91 1266.76 1553.94 Q1266.99 1553.94 1267.22 1554.1 Q1267.47 1554.26 1267.47 1554.62 M1254.72 1538.64 L1252.63 1516.91 L1239.61 1538.64 L1254.72 1538.64 Z" fill="#000000" fill-rule="nonzero" fill-opacity="1" /><path clip-path="url(#clip390)" d="M1274.08 1496.49 Q1274.08 1488.69 1276.98 1482.4 Q1278.22 1479.76 1279.96 1477.55 Q1281.7 1475.34 1282.85 1474.38 Q1284 1473.41 1284.31 1473.41 Q1284.76 1473.41 1284.78 1473.86 Q1284.78 1474.08 1284.18 1474.65 Q1276.74 1482.22 1276.76 1496.49 Q1276.76 1510.81 1284 1518.09 Q1284.78 1518.88 1284.78 1519.13 Q1284.78 1519.58 1284.31 1519.58 Q1284 1519.58 1282.89 1518.65 Q1281.79 1517.73 1280.07 1515.61 Q1278.36 1513.49 1277.12 1510.9 Q1274.08 1504.61 1274.08 1496.49 Z" fill="#000000" fill-rule="nonzero" fill-opacity="1" /><path clip-path="url(#clip390)" d="M1289.22 1508.03 Q1289.22 1507.2 1289.29 1506.95 Q1289.38 1506.7 1289.74 1506.32 L1298.6 1496.45 Q1303.44 1490.99 1303.44 1486.23 Q1303.44 1483.15 1301.82 1480.94 Q1300.22 1478.73 1297.27 1478.73 Q1295.24 1478.73 1293.52 1479.97 Q1291.81 1481.21 1291.02 1483.42 Q1291.16 1483.37 1291.63 1483.37 Q1292.78 1483.37 1293.41 1484.09 Q1294.07 1484.81 1294.07 1485.78 Q1294.07 1487.02 1293.25 1487.63 Q1292.46 1488.22 1291.68 1488.22 Q1291.36 1488.22 1290.93 1488.15 Q1290.53 1488.08 1289.87 1487.45 Q1289.22 1486.8 1289.22 1485.65 Q1289.22 1482.42 1291.65 1479.85 Q1294.11 1477.28 1297.85 1477.28 Q1302.09 1477.28 1304.86 1479.81 Q1307.66 1482.31 1307.66 1486.23 Q1307.66 1487.61 1307.23 1488.87 Q1306.83 1490.11 1306.26 1491.08 Q1305.72 1492.05 1304.23 1493.61 Q1302.74 1495.16 1301.55 1496.27 Q1300.35 1497.37 1297.67 1499.72 L1292.78 1504.47 L1301.1 1504.47 Q1305.16 1504.47 1305.47 1504.11 Q1305.92 1503.46 1306.49 1500.01 L1307.66 1500.01 L1306.35 1508.03 L1289.22 1508.03 Z" fill="#000000" fill-rule="nonzero" fill-opacity="1" /><path clip-path="url(#clip390)" d="M1313.19 1519.13 Q1313.19 1518.9 1313.78 1518.34 Q1321.22 1510.76 1321.22 1496.49 Q1321.22 1482.18 1314.07 1474.94 Q1313.19 1474.1 1313.19 1473.86 Q1313.19 1473.41 1313.64 1473.41 Q1313.96 1473.41 1315.06 1474.33 Q1316.19 1475.25 1317.88 1477.37 Q1319.59 1479.49 1320.86 1482.09 Q1323.9 1488.38 1323.9 1496.49 Q1323.9 1504.29 1320.99 1510.58 Q1319.75 1513.22 1318.02 1515.43 Q1316.28 1517.64 1315.13 1518.61 Q1313.98 1519.58 1313.64 1519.58 Q1313.19 1519.58 1313.19 1519.13 Z" fill="#000000" fill-rule="nonzero" fill-opacity="1" /><path clip-path="url(#clip390)" d="M1285.87 1546.12 Q1285.87 1547.11 1285.06 1547.86 Q1284.27 1548.58 1283.41 1548.58 Q1282.62 1548.58 1282.12 1548.1 Q1281.65 1547.61 1281.65 1546.91 Q1281.65 1545.99 1282.44 1545.22 Q1283.23 1544.45 1284.15 1544.45 Q1284.92 1544.45 1285.39 1544.93 Q1285.87 1545.4 1285.87 1546.12 M1286.27 1568.37 Q1286.27 1568.55 1286.07 1569.27 Q1285.87 1569.97 1285.37 1571.05 Q1284.9 1572.11 1284.24 1573.11 Q1283.59 1574.1 1282.51 1574.8 Q1281.45 1575.5 1280.23 1575.5 Q1278.58 1575.5 1277.5 1574.41 Q1276.44 1573.33 1276.44 1571.71 Q1276.44 1570.83 1277.5 1568.01 Q1280.57 1559.8 1280.68 1559.47 Q1281.2 1558.18 1281.2 1557.05 Q1281.2 1556.54 1281.09 1556.22 Q1280.97 1555.88 1280.75 1555.77 Q1280.52 1555.63 1280.39 1555.61 Q1280.28 1555.59 1280.05 1555.59 Q1278.72 1555.59 1277.48 1556.94 Q1276.24 1558.29 1275.38 1561.32 Q1275.2 1561.88 1275.09 1562.01 Q1274.98 1562.15 1274.64 1562.15 Q1274.08 1562.13 1274.08 1561.68 Q1274.08 1561.54 1274.23 1561.02 Q1274.39 1560.48 1274.68 1559.67 Q1274.98 1558.84 1275.5 1557.98 Q1276.01 1557.1 1276.65 1556.33 Q1277.3 1555.57 1278.22 1555.07 Q1279.15 1554.57 1280.19 1554.57 Q1281.88 1554.57 1282.91 1555.68 Q1283.97 1556.76 1283.97 1558.36 Q1283.97 1559.24 1283.36 1560.8 Q1282.62 1562.83 1282.35 1563.48 L1280.55 1568.33 Q1279.89 1570.08 1279.69 1570.63 Q1279.51 1571.14 1279.35 1571.78 Q1279.22 1572.38 1279.22 1572.95 Q1279.22 1573.74 1279.46 1574.1 Q1279.73 1574.46 1280.32 1574.46 Q1281.94 1574.46 1283.14 1572.86 Q1284.33 1571.23 1285.03 1568.75 Q1285.06 1568.69 1285.08 1568.57 Q1285.26 1568.01 1285.44 1567.94 Q1285.53 1567.92 1285.71 1567.92 Q1286.27 1567.92 1286.27 1568.37 Z" fill="#000000" fill-rule="nonzero" fill-opacity="1" /><path clip-path="url(#clip390)" d="M1301.7 1546.12 Q1301.7 1547.04 1300.91 1547.81 Q1300.12 1548.58 1299.2 1548.58 Q1298.43 1548.58 1297.96 1548.1 Q1297.51 1547.63 1297.51 1546.91 Q1297.51 1545.92 1298.29 1545.2 Q1299.08 1544.45 1299.94 1544.45 Q1300.73 1544.45 1301.2 1544.95 Q1301.7 1545.42 1301.7 1546.12 M1299.99 1558.81 Q1299.99 1559.6 1299.76 1560.53 L1295.52 1577.43 Q1295.12 1579.08 1294.15 1580.43 Q1293.18 1581.81 1291.94 1582.66 Q1290.72 1583.52 1289.39 1583.97 Q1288.08 1584.45 1286.84 1584.45 Q1285.11 1584.45 1283.93 1583.68 Q1282.76 1582.91 1282.76 1581.58 Q1282.76 1580.41 1283.53 1579.67 Q1284.32 1578.94 1285.26 1578.94 Q1286.12 1578.94 1286.57 1579.44 Q1287.02 1579.94 1287.02 1580.57 Q1287.02 1581.33 1286.46 1582.06 Q1285.92 1582.78 1284.95 1583 Q1285.83 1583.43 1286.75 1583.43 Q1288.65 1583.43 1290.18 1581.7 Q1291.73 1579.98 1292.41 1577.28 L1296.76 1560.05 Q1297.08 1558.68 1297.08 1557.71 Q1297.08 1556.81 1296.83 1556.31 Q1296.58 1555.81 1296.29 1555.7 Q1296.02 1555.59 1295.61 1555.59 Q1293.83 1555.59 1292.3 1557.23 Q1290.77 1558.86 1289.8 1561.23 Q1289.53 1561.88 1289.39 1562.01 Q1289.28 1562.15 1288.96 1562.15 Q1288.4 1562.13 1288.4 1561.68 Q1288.4 1561.54 1288.62 1561 Q1288.85 1560.46 1289.25 1559.67 Q1289.66 1558.86 1290.31 1557.98 Q1290.97 1557.1 1291.73 1556.33 Q1292.52 1555.57 1293.58 1555.07 Q1294.64 1554.57 1295.75 1554.57 Q1297.53 1554.57 1298.75 1555.75 Q1299.99 1556.9 1299.99 1558.81 Z" fill="#000000" fill-rule="nonzero" fill-opacity="1" /><path clip-path="url(#clip390)" d="M1327.47 1557.48 Q1327.47 1558.77 1326.68 1559.53 Q1325.92 1560.3 1324.95 1560.3 Q1324.09 1560.3 1323.64 1559.8 Q1323.19 1559.31 1323.19 1558.68 Q1323.19 1558.41 1323.3 1558.07 Q1323.42 1557.71 1323.66 1557.28 Q1323.93 1556.85 1324.5 1556.54 Q1325.06 1556.22 1325.83 1556.18 Q1325.67 1556.02 1325.62 1555.99 Q1325.29 1555.72 1324.66 1555.63 Q1324.57 1555.59 1324.25 1555.59 Q1322.69 1555.59 1321.12 1556.74 Q1319.56 1557.87 1317.64 1560.01 Q1315.23 1562.51 1313.68 1563.43 Q1320.51 1564.34 1320.51 1568.28 Q1320.51 1568.94 1320.33 1569.72 Q1319.97 1571.21 1319.97 1572.29 Q1319.97 1574.46 1321.43 1574.46 Q1322.85 1574.46 1323.75 1573.02 Q1324.68 1571.57 1325.44 1568.75 Q1325.56 1568.24 1325.67 1568.08 Q1325.78 1567.92 1326.1 1567.92 Q1326.66 1567.92 1326.66 1568.37 Q1326.14 1571.01 1324.99 1573.04 Q1323.53 1575.5 1321.34 1575.5 Q1319.52 1575.5 1318.3 1574.23 Q1317.1 1572.95 1317.1 1570.92 Q1317.1 1570.42 1317.28 1569.3 Q1317.42 1568.84 1317.42 1568.33 Q1317.42 1567.27 1316.83 1566.48 Q1316.25 1565.67 1315.3 1565.26 Q1314.35 1564.85 1313.56 1564.67 Q1312.8 1564.47 1312.05 1564.4 Q1309.8 1573.94 1309.48 1574.53 Q1309.28 1574.93 1308.83 1575.2 Q1308.38 1575.5 1307.9 1575.5 Q1307.45 1575.5 1307 1575.18 Q1306.57 1574.89 1306.57 1574.19 Q1306.57 1573.83 1306.76 1573.17 L1313.45 1546.57 L1313.59 1545.67 Q1313.59 1545.4 1313.47 1545.26 Q1313.38 1545.11 1312.84 1544.99 Q1312.32 1544.88 1311.29 1544.88 Q1310.86 1544.88 1310.66 1544.86 Q1310.48 1544.84 1310.32 1544.72 Q1310.16 1544.59 1310.16 1544.32 Q1310.16 1543.93 1310.32 1543.73 Q1310.5 1543.51 1310.63 1543.46 Q1310.77 1543.42 1311.04 1543.39 Q1311.42 1543.37 1312.71 1543.26 Q1313.99 1543.12 1315.1 1543.03 Q1316.2 1542.94 1316.67 1542.94 Q1316.95 1542.94 1317.08 1543.08 Q1317.24 1543.19 1317.26 1543.33 L1317.28 1543.44 L1312.48 1562.92 Q1314.47 1562.13 1317.6 1558.63 Q1321.23 1554.57 1324.34 1554.57 Q1325.81 1554.57 1326.64 1555.48 Q1327.47 1556.36 1327.47 1557.48 Z" fill="#000000" fill-rule="nonzero" fill-opacity="1" /><path clip-path="url(#clip390)" d="M1341.38 1543.44 L1334.73 1570.13 Q1334.46 1571.19 1334.46 1572.34 Q1334.46 1574.46 1335.86 1574.46 Q1336.51 1574.46 1337.05 1574.03 Q1337.6 1573.58 1338 1572.7 Q1338.43 1571.8 1338.7 1570.94 Q1338.99 1570.08 1339.35 1568.75 Q1339.47 1568.24 1339.58 1568.08 Q1339.69 1567.92 1340.01 1567.92 Q1340.57 1567.92 1340.57 1568.37 Q1340.01 1571.14 1339.17 1572.9 Q1337.96 1575.5 1335.7 1575.5 Q1334.01 1575.5 1332.75 1574.32 Q1331.51 1573.13 1331.51 1571.23 Q1331.51 1570.51 1331.73 1569.66 L1337.55 1546.57 L1337.71 1545.67 Q1337.71 1545.42 1337.62 1545.29 Q1337.53 1545.15 1336.99 1545.02 Q1336.47 1544.88 1335.43 1544.88 Q1335 1544.88 1334.8 1544.86 Q1334.62 1544.84 1334.44 1544.72 Q1334.28 1544.61 1334.28 1544.36 Q1334.28 1543.96 1334.44 1543.73 Q1334.62 1543.51 1334.76 1543.46 Q1334.89 1543.42 1335.16 1543.39 Q1335.54 1543.37 1336.83 1543.26 Q1338.11 1543.12 1339.22 1543.03 Q1340.32 1542.94 1340.8 1542.94 Q1341.07 1542.94 1341.2 1543.08 Q1341.36 1543.19 1341.38 1543.33 L1341.38 1543.44 Z" fill="#000000" fill-rule="nonzero" fill-opacity="1" /><polyline clip-path="url(#clip390)" style="stroke:#000000; stroke-linecap:round; stroke-linejoin:round; stroke-width:4; stroke-opacity:1; fill:none" points="221.637,1396.96 221.637,156.846 "/>
<polyline clip-path="url(#clip390)" style="stroke:#000000; stroke-linecap:round; stroke-linejoin:round; stroke-width:4; stroke-opacity:1; fill:none" points="221.637,1396.96 240.535,1396.96 "/>
<polyline clip-path="url(#clip390)" style="stroke:#000000; stroke-linecap:round; stroke-linejoin:round; stroke-width:4; stroke-opacity:1; fill:none" points="221.637,669.604 240.535,669.604 "/>
<path clip-path="url(#clip390)" d="M114.931 1416.75 L122.57 1416.75 L122.57 1390.38 L114.26 1392.05 L114.26 1387.79 L122.524 1386.12 L127.2 1386.12 L127.2 1416.75 L134.839 1416.75 L134.839 1420.68 L114.931 1420.68 L114.931 1416.75 Z" fill="#000000" fill-rule="nonzero" fill-opacity="1" /><path clip-path="url(#clip390)" d="M154.283 1389.2 Q150.672 1389.2 148.843 1392.77 Q147.038 1396.31 147.038 1403.44 Q147.038 1410.54 148.843 1414.11 Q150.672 1417.65 154.283 1417.65 Q157.917 1417.65 159.723 1414.11 Q161.552 1410.54 161.552 1403.44 Q161.552 1396.31 159.723 1392.77 Q157.917 1389.2 154.283 1389.2 M154.283 1385.5 Q160.093 1385.5 163.149 1390.1 Q166.227 1394.69 166.227 1403.44 Q166.227 1412.16 163.149 1416.77 Q160.093 1421.35 154.283 1421.35 Q148.473 1421.35 145.394 1416.77 Q142.339 1412.16 142.339 1403.44 Q142.339 1394.69 145.394 1390.1 Q148.473 1385.5 154.283 1385.5 Z" fill="#000000" fill-rule="nonzero" fill-opacity="1" /><path clip-path="url(#clip390)" d="M175.932 1367.69 Q172.998 1367.69 171.512 1370.59 Q170.045 1373.47 170.045 1379.26 Q170.045 1385.03 171.512 1387.93 Q172.998 1390.81 175.932 1390.81 Q178.885 1390.81 180.352 1387.93 Q181.838 1385.03 181.838 1379.26 Q181.838 1373.47 180.352 1370.59 Q178.885 1367.69 175.932 1367.69 M175.932 1364.68 Q180.653 1364.68 183.136 1368.43 Q185.637 1372.15 185.637 1379.26 Q185.637 1386.35 183.136 1390.09 Q180.653 1393.82 175.932 1393.82 Q171.212 1393.82 168.71 1390.09 Q166.227 1386.35 166.227 1379.26 Q166.227 1372.15 168.71 1368.43 Q171.212 1364.68 175.932 1364.68 Z" fill="#000000" fill-rule="nonzero" fill-opacity="1" /><path clip-path="url(#clip390)" d="M116.511 689.396 L124.15 689.396 L124.15 663.031 L115.84 664.698 L115.84 660.438 L124.104 658.772 L128.78 658.772 L128.78 689.396 L136.419 689.396 L136.419 693.332 L116.511 693.332 L116.511 689.396 Z" fill="#000000" fill-rule="nonzero" fill-opacity="1" /><path clip-path="url(#clip390)" d="M155.863 661.85 Q152.252 661.85 150.423 665.415 Q148.618 668.957 148.618 676.086 Q148.618 683.193 150.423 686.758 Q152.252 690.299 155.863 690.299 Q159.497 690.299 161.303 686.758 Q163.131 683.193 163.131 676.086 Q163.131 668.957 161.303 665.415 Q159.497 661.85 155.863 661.85 M155.863 658.147 Q161.673 658.147 164.729 662.753 Q167.807 667.336 167.807 676.086 Q167.807 684.813 164.729 689.42 Q161.673 694.003 155.863 694.003 Q150.053 694.003 146.974 689.42 Q143.919 684.813 143.919 676.086 Q143.919 667.336 146.974 662.753 Q150.053 658.147 155.863 658.147 Z" fill="#000000" fill-rule="nonzero" fill-opacity="1" /><path clip-path="url(#clip390)" d="M172.378 662.724 L185.637 662.724 L185.637 665.921 L167.807 665.921 L167.807 662.724 Q169.97 660.486 173.694 656.724 Q177.437 652.944 178.396 651.853 Q180.22 649.803 180.935 648.392 Q181.669 646.963 181.669 645.59 Q181.669 643.352 180.089 641.941 Q178.528 640.531 176.008 640.531 Q174.221 640.531 172.227 641.151 Q170.252 641.772 167.995 643.032 L167.995 639.195 Q170.29 638.274 172.284 637.804 Q174.277 637.333 175.932 637.333 Q180.296 637.333 182.891 639.515 Q185.487 641.697 185.487 645.346 Q185.487 647.076 184.828 648.637 Q184.189 650.179 182.477 652.286 Q182.007 652.831 179.487 655.445 Q176.967 658.041 172.378 662.724 Z" fill="#000000" fill-rule="nonzero" fill-opacity="1" /><path clip-path="url(#clip390)" d="M20.1444 832.76 L26.9239 832.76 Q23.9002 836.006 22.4043 839.698 Q20.9083 843.358 20.9083 847.496 Q20.9083 855.644 25.9054 859.973 Q30.8707 864.302 40.2919 864.302 Q49.6813 864.302 54.6784 859.973 Q59.6436 855.644 59.6436 847.496 Q59.6436 843.358 58.1477 839.698 Q56.6518 836.006 53.6281 832.76 L60.3439 832.76 Q62.6355 836.133 63.7814 839.921 Q64.9272 843.677 64.9272 847.878 Q64.9272 858.668 58.3387 864.875 Q51.7183 871.081 40.2919 871.081 Q28.8336 871.081 22.2451 864.875 Q15.6248 858.668 15.6248 847.878 Q15.6248 843.613 16.7706 839.857 Q17.8846 836.07 20.1444 832.76 Z" fill="#000000" fill-rule="nonzero" fill-opacity="1" /><path clip-path="url(#clip390)" d="M32.4621 809.27 Q32.4621 813.981 36.1542 816.718 Q39.8145 819.455 46.212 819.455 Q52.6095 819.455 56.3017 816.75 Q59.9619 814.013 59.9619 809.27 Q59.9619 804.591 56.2698 801.854 Q52.5777 799.117 46.212 799.117 Q39.8781 799.117 36.186 801.854 Q32.4621 804.591 32.4621 809.27 M27.4968 809.27 Q27.4968 801.631 32.4621 797.271 Q37.4273 792.91 46.212 792.91 Q54.9649 792.91 59.9619 797.271 Q64.9272 801.631 64.9272 809.27 Q64.9272 816.941 59.9619 821.301 Q54.9649 825.63 46.212 825.63 Q37.4273 825.63 32.4621 821.301 Q27.4968 816.941 27.4968 809.27 Z" fill="#000000" fill-rule="nonzero" fill-opacity="1" /><path clip-path="url(#clip390)" d="M49.9359 783.807 L28.3562 783.807 L28.3562 777.951 L49.7131 777.951 Q54.7739 777.951 57.3202 775.977 Q59.8346 774.004 59.8346 770.057 Q59.8346 765.315 56.8109 762.578 Q53.7872 759.809 48.5673 759.809 L28.3562 759.809 L28.3562 753.952 L64.0042 753.952 L64.0042 759.809 L58.5296 759.809 Q61.7762 761.941 63.3676 764.774 Q64.9272 767.575 64.9272 771.299 Q64.9272 777.442 61.1078 780.624 Q57.2883 783.807 49.9359 783.807 M27.4968 769.071 L27.4968 769.071 Z" fill="#000000" fill-rule="nonzero" fill-opacity="1" /><path clip-path="url(#clip390)" d="M42.4881 712.257 L64.0042 712.257 L64.0042 718.113 L42.679 718.113 Q37.6183 718.113 35.1038 720.087 Q32.5894 722.06 32.5894 726.007 Q32.5894 730.749 35.6131 733.486 Q38.6368 736.224 43.8567 736.224 L64.0042 736.224 L64.0042 742.112 L28.3562 742.112 L28.3562 736.224 L33.8944 736.224 Q30.6797 734.123 29.0883 731.29 Q27.4968 728.426 27.4968 724.702 Q27.4968 718.559 31.3163 715.408 Q35.1038 712.257 42.4881 712.257 Z" fill="#000000" fill-rule="nonzero" fill-opacity="1" /><path clip-path="url(#clip390)" d="M18.2347 694.783 L28.3562 694.783 L28.3562 682.72 L32.9077 682.72 L32.9077 694.783 L52.2594 694.783 Q56.6199 694.783 57.8613 693.605 Q59.1026 692.396 59.1026 688.735 L59.1026 682.72 L64.0042 682.72 L64.0042 688.735 Q64.0042 695.515 61.4897 698.093 Q58.9434 700.671 52.2594 700.671 L32.9077 700.671 L32.9077 704.968 L28.3562 704.968 L28.3562 700.671 L18.2347 700.671 L18.2347 694.783 Z" fill="#000000" fill-rule="nonzero" fill-opacity="1" /><path clip-path="url(#clip390)" d="M862.814 58.2166 L873.833 58.2166 L900.65 108.812 L900.65 58.2166 L908.589 58.2166 L908.589 118.697 L897.571 118.697 L870.754 68.1008 L870.754 118.697 L862.814 118.697 L862.814 58.2166 Z" fill="#000000" fill-rule="nonzero" fill-opacity="1" /><path clip-path="url(#clip390)" d="M942.131 78.5521 Q936.136 78.5521 932.652 83.2512 Q929.168 87.9097 929.168 96.0521 Q929.168 104.194 932.611 108.893 Q936.095 113.552 942.131 113.552 Q948.086 113.552 951.569 108.853 Q955.053 104.154 955.053 96.0521 Q955.053 87.9908 951.569 83.2917 Q948.086 78.5521 942.131 78.5521 M942.131 72.2327 Q951.853 72.2327 957.403 78.5521 Q962.953 84.8716 962.953 96.0521 Q962.953 107.192 957.403 113.552 Q951.853 119.871 942.131 119.871 Q932.368 119.871 926.818 113.552 Q921.309 107.192 921.309 96.0521 Q921.309 84.8716 926.818 78.5521 Q932.368 72.2327 942.131 72.2327 Z" fill="#000000" fill-rule="nonzero" fill-opacity="1" /><path clip-path="url(#clip390)" d="M1013.02 91.3125 L1013.02 118.697 L1005.57 118.697 L1005.57 91.5556 Q1005.57 85.1146 1003.06 81.9144 Q1000.54 78.7142 995.522 78.7142 Q989.486 78.7142 986.002 82.5625 Q982.518 86.4109 982.518 93.0544 L982.518 118.697 L975.024 118.697 L975.024 73.3265 L982.518 73.3265 L982.518 80.3751 Q985.192 76.2836 988.797 74.2582 Q992.443 72.2327 997.183 72.2327 Q1005 72.2327 1009.01 77.0938 Q1013.02 81.9144 1013.02 91.3125 Z" fill="#000000" fill-rule="nonzero" fill-opacity="1" /><path clip-path="url(#clip390)" d="M1024.12 92.6493 L1045.96 92.6493 L1045.96 99.2928 L1024.12 99.2928 L1024.12 92.6493 Z" fill="#000000" fill-rule="nonzero" fill-opacity="1" /><path clip-path="url(#clip390)" d="M1054.58 73.3265 L1089.99 73.3265 L1089.99 80.132 L1061.96 112.742 L1089.99 112.742 L1089.99 118.697 L1053.57 118.697 L1053.57 111.891 L1081.6 79.2813 L1054.58 79.2813 L1054.58 73.3265 Z" fill="#000000" fill-rule="nonzero" fill-opacity="1" /><path clip-path="url(#clip390)" d="M1140.18 94.1481 L1140.18 97.7939 L1105.91 97.7939 Q1106.4 105.491 1110.53 109.542 Q1114.7 113.552 1122.11 113.552 Q1126.41 113.552 1130.42 112.499 Q1134.47 111.445 1138.44 109.339 L1138.44 116.388 Q1134.43 118.089 1130.21 118.98 Q1126 119.871 1121.67 119.871 Q1110.81 119.871 1104.45 113.552 Q1098.13 107.233 1098.13 96.4571 Q1098.13 85.3172 1104.13 78.7952 Q1110.16 72.2327 1120.37 72.2327 Q1129.53 72.2327 1134.83 78.1471 Q1140.18 84.0209 1140.18 94.1481 M1132.73 91.9606 Q1132.64 85.8438 1129.28 82.198 Q1125.96 78.5521 1120.45 78.5521 Q1114.21 78.5521 1110.45 82.0764 Q1106.72 85.6007 1106.15 92.0012 L1132.73 91.9606 Z" fill="#000000" fill-rule="nonzero" fill-opacity="1" /><path clip-path="url(#clip390)" d="M1178.7 80.294 Q1177.45 79.5649 1175.95 79.2408 Q1174.49 78.8762 1172.71 78.8762 Q1166.39 78.8762 1162.99 83.0081 Q1159.62 87.0996 1159.62 94.7963 L1159.62 118.697 L1152.13 118.697 L1152.13 73.3265 L1159.62 73.3265 L1159.62 80.3751 Q1161.97 76.2431 1165.74 74.2582 Q1169.51 72.2327 1174.9 72.2327 Q1175.67 72.2327 1176.6 72.3543 Q1177.53 72.4353 1178.66 72.6378 L1178.7 80.294 Z" fill="#000000" fill-rule="nonzero" fill-opacity="1" /><path clip-path="url(#clip390)" d="M1202.28 78.5521 Q1196.28 78.5521 1192.8 83.2512 Q1189.32 87.9097 1189.32 96.0521 Q1189.32 104.194 1192.76 108.893 Q1196.24 113.552 1202.28 113.552 Q1208.23 113.552 1211.72 108.853 Q1215.2 104.154 1215.2 96.0521 Q1215.2 87.9908 1211.72 83.2917 Q1208.23 78.5521 1202.28 78.5521 M1202.28 72.2327 Q1212 72.2327 1217.55 78.5521 Q1223.1 84.8716 1223.1 96.0521 Q1223.1 107.192 1217.55 113.552 Q1212 119.871 1202.28 119.871 Q1192.52 119.871 1186.97 113.552 Q1181.46 107.192 1181.46 96.0521 Q1181.46 84.8716 1186.97 78.5521 Q1192.52 72.2327 1202.28 72.2327 Z" fill="#000000" fill-rule="nonzero" fill-opacity="1" /><path clip-path="url(#clip390)" d="M1311.6 117.016 Q1311.6 117.795 1311.27 118.205 Q1310.99 118.574 1310.7 118.656 Q1310.45 118.697 1310.08 118.697 Q1309.02 118.697 1305.33 118.574 Q1301.64 118.451 1300.57 118.451 Q1298.85 118.451 1295.33 118.574 Q1291.8 118.697 1290.08 118.697 Q1288.93 118.697 1288.93 117.754 Q1288.93 117.139 1289.06 116.811 Q1289.18 116.442 1289.51 116.319 Q1289.88 116.155 1290.08 116.155 Q1290.33 116.114 1290.94 116.114 Q1291.76 116.114 1292.62 116.032 Q1293.48 115.909 1294.55 115.663 Q1295.61 115.417 1296.27 114.803 Q1296.97 114.188 1296.97 113.327 Q1296.97 112.958 1296.68 109.925 Q1296.39 106.892 1296.02 103.367 Q1295.66 99.8006 1295.61 99.3087 L1274.55 99.3087 Q1272.62 102.629 1271.27 104.924 Q1269.91 107.22 1269.42 107.998 Q1268.93 108.777 1268.64 109.269 Q1268.36 109.761 1268.19 110.048 Q1267 112.22 1267 113.163 Q1267 115.786 1270.94 116.114 Q1272.29 116.114 1272.29 117.098 Q1272.29 117.836 1271.96 118.246 Q1271.64 118.615 1271.35 118.656 Q1271.1 118.697 1270.69 118.697 Q1269.34 118.697 1266.51 118.574 Q1263.68 118.451 1262.29 118.451 Q1261.1 118.451 1258.64 118.574 Q1256.18 118.697 1255.08 118.697 Q1254.58 118.697 1254.3 118.41 Q1254.01 118.123 1254.01 117.754 Q1254.01 117.18 1254.09 116.852 Q1254.21 116.524 1254.54 116.36 Q1254.87 116.196 1255.03 116.196 Q1255.2 116.155 1255.77 116.114 Q1258.89 115.909 1261.31 114.434 Q1263.77 112.917 1266.1 109.023 L1295.29 60 Q1295.57 59.5081 1295.78 59.2622 Q1295.98 59.0162 1296.39 58.8113 Q1296.84 58.6063 1297.5 58.6063 Q1298.52 58.6063 1298.73 58.9342 Q1298.93 59.2212 1299.06 60.6148 L1304.18 113.081 Q1304.3 114.188 1304.39 114.639 Q1304.51 115.049 1305.04 115.499 Q1305.62 115.909 1306.64 116.032 Q1307.71 116.114 1309.67 116.114 Q1310.41 116.114 1310.7 116.155 Q1310.99 116.155 1311.27 116.36 Q1311.6 116.565 1311.6 117.016 M1295.37 96.6854 L1292.7 69.0176 L1276.14 96.6854 L1295.37 96.6854 Z" fill="#000000" fill-rule="nonzero" fill-opacity="1" /><path clip-path="url(#clip390)" d="M1320 43.039 Q1320 33.1114 1323.7 25.1062 Q1325.28 21.7492 1327.49 18.9373 Q1329.7 16.1255 1331.16 14.8917 Q1332.63 13.6579 1333.03 13.6579 Q1333.6 13.6579 1333.63 14.2318 Q1333.63 14.5187 1332.86 15.236 Q1323.39 24.8767 1323.42 43.039 Q1323.42 61.2588 1332.63 70.5264 Q1333.63 71.5307 1333.63 71.8463 Q1333.63 72.4201 1333.03 72.4201 Q1332.63 72.4201 1331.22 71.2437 Q1329.81 70.0674 1327.63 67.3703 Q1325.45 64.6732 1323.87 61.3735 Q1320 53.3683 1320 43.039 Z" fill="#000000" fill-rule="nonzero" fill-opacity="1" /><path clip-path="url(#clip390)" d="M1339.27 57.7296 Q1339.27 56.668 1339.36 56.3523 Q1339.47 56.0367 1339.93 55.5489 L1351.21 42.9816 Q1357.38 36.0381 1357.38 29.9839 Q1357.38 26.0531 1355.31 23.2412 Q1353.27 20.4293 1349.51 20.4293 Q1346.93 20.4293 1344.75 22.0074 Q1342.57 23.5855 1341.57 26.3974 Q1341.74 26.34 1342.34 26.34 Q1343.81 26.34 1344.61 27.2581 Q1345.44 28.1763 1345.44 29.4101 Q1345.44 30.9882 1344.41 31.7629 Q1343.4 32.5089 1342.4 32.5089 Q1342 32.5089 1341.45 32.4228 Q1340.94 32.3367 1340.1 31.5333 Q1339.27 30.7012 1339.27 29.2379 Q1339.27 25.1349 1342.37 21.864 Q1345.5 18.593 1350.26 18.593 Q1355.66 18.593 1359.18 21.8066 Q1362.74 24.9914 1362.74 29.9839 Q1362.74 31.7342 1362.2 33.341 Q1361.68 34.919 1360.96 36.1528 Q1360.27 37.3866 1358.38 39.3664 Q1356.49 41.3462 1354.97 42.7521 Q1353.45 44.158 1350.03 47.142 L1343.81 53.1962 L1354.39 53.1962 Q1359.56 53.1962 1359.96 52.7371 Q1360.53 51.905 1361.25 47.5151 L1362.74 47.5151 L1361.08 57.7296 L1339.27 57.7296 Z" fill="#000000" fill-rule="nonzero" fill-opacity="1" /><path clip-path="url(#clip390)" d="M1369.78 71.8463 Q1369.78 71.5594 1370.53 70.842 Q1380 61.2014 1380 43.039 Q1380 24.8193 1370.9 15.609 Q1369.78 14.5474 1369.78 14.2318 Q1369.78 13.6579 1370.36 13.6579 Q1370.76 13.6579 1372.16 14.8343 Q1373.6 16.0107 1375.75 18.7078 Q1377.93 21.4049 1379.54 24.7045 Q1383.41 32.7097 1383.41 43.039 Q1383.41 52.9666 1379.71 60.9718 Q1378.13 64.3289 1375.92 67.1407 Q1373.71 69.9526 1372.25 71.1864 Q1370.79 72.4201 1370.36 72.4201 Q1369.78 72.4201 1369.78 71.8463 Z" fill="#000000" fill-rule="nonzero" fill-opacity="1" /><path clip-path="url(#clip390)" d="M1335.01 106.199 Q1335.01 107.461 1333.97 108.408 Q1332.97 109.326 1331.88 109.326 Q1330.88 109.326 1330.24 108.724 Q1329.64 108.093 1329.64 107.203 Q1329.64 106.027 1330.65 105.051 Q1331.65 104.076 1332.83 104.076 Q1333.8 104.076 1334.4 104.678 Q1335.01 105.281 1335.01 106.199 M1335.52 134.518 Q1335.52 134.748 1335.27 135.666 Q1335.01 136.556 1334.38 137.933 Q1333.77 139.281 1332.94 140.544 Q1332.11 141.806 1330.73 142.696 Q1329.38 143.585 1327.83 143.585 Q1325.74 143.585 1324.36 142.208 Q1323.01 140.831 1323.01 138.765 Q1323.01 137.646 1324.36 134.059 Q1328.26 123.615 1328.41 123.185 Q1329.07 121.549 1329.07 120.115 Q1329.07 119.455 1328.92 119.053 Q1328.78 118.623 1328.49 118.479 Q1328.21 118.307 1328.04 118.279 Q1327.89 118.25 1327.6 118.25 Q1325.91 118.25 1324.33 119.971 Q1322.76 121.693 1321.67 125.538 Q1321.44 126.255 1321.29 126.427 Q1321.15 126.599 1320.72 126.599 Q1320 126.571 1320 125.997 Q1320 125.825 1320.2 125.165 Q1320.4 124.476 1320.78 123.443 Q1321.15 122.382 1321.81 121.291 Q1322.47 120.172 1323.27 119.197 Q1324.1 118.221 1325.28 117.59 Q1326.46 116.959 1327.78 116.959 Q1329.93 116.959 1331.25 118.365 Q1332.6 119.742 1332.6 121.779 Q1332.6 122.898 1331.82 124.878 Q1330.88 127.46 1330.53 128.292 L1328.24 134.461 Q1327.4 136.699 1327.15 137.388 Q1326.92 138.048 1326.72 138.851 Q1326.54 139.626 1326.54 140.343 Q1326.54 141.347 1326.86 141.806 Q1327.2 142.265 1327.95 142.265 Q1330.01 142.265 1331.54 140.228 Q1333.06 138.162 1333.95 135.006 Q1333.97 134.92 1334 134.777 Q1334.23 134.059 1334.46 133.973 Q1334.58 133.945 1334.81 133.945 Q1335.52 133.945 1335.52 134.518 Z" fill="#000000" fill-rule="nonzero" fill-opacity="1" /><path clip-path="url(#clip390)" d="M1355.2 106.199 Q1355.2 107.375 1354.19 108.351 Q1353.19 109.326 1352.01 109.326 Q1351.04 109.326 1350.43 108.724 Q1349.86 108.121 1349.86 107.203 Q1349.86 105.941 1350.86 105.023 Q1351.87 104.076 1352.96 104.076 Q1353.96 104.076 1354.57 104.707 Q1355.2 105.309 1355.2 106.199 M1353.02 122.353 Q1353.02 123.357 1352.73 124.533 L1347.33 146.053 Q1346.82 148.147 1345.58 149.869 Q1344.35 151.619 1342.77 152.71 Q1341.22 153.8 1339.53 154.374 Q1337.87 154.976 1336.29 154.976 Q1334.08 154.976 1332.59 154.001 Q1331.09 153.025 1331.09 151.332 Q1331.09 149.84 1332.07 148.893 Q1333.07 147.975 1334.28 147.975 Q1335.37 147.975 1335.94 148.606 Q1336.52 149.238 1336.52 150.041 Q1336.52 151.017 1335.8 151.935 Q1335.11 152.853 1333.88 153.14 Q1335 153.685 1336.17 153.685 Q1338.58 153.685 1340.53 151.476 Q1342.51 149.295 1343.38 145.852 L1348.91 123.931 Q1349.31 122.181 1349.31 120.947 Q1349.31 119.799 1349 119.168 Q1348.68 118.537 1348.31 118.393 Q1347.97 118.25 1347.45 118.25 Q1345.18 118.25 1343.23 120.344 Q1341.28 122.41 1340.05 125.423 Q1339.7 126.255 1339.53 126.427 Q1339.39 126.599 1338.99 126.599 Q1338.27 126.571 1338.27 125.997 Q1338.27 125.825 1338.55 125.136 Q1338.84 124.447 1339.36 123.443 Q1339.87 122.41 1340.71 121.291 Q1341.54 120.172 1342.51 119.197 Q1343.52 118.221 1344.87 117.59 Q1346.22 116.959 1347.62 116.959 Q1349.89 116.959 1351.44 118.451 Q1353.02 119.914 1353.02 122.353 Z" fill="#000000" fill-rule="nonzero" fill-opacity="1" /><path clip-path="url(#clip390)" d="M1388 120.66 Q1388 122.295 1386.99 123.271 Q1386.02 124.247 1384.79 124.247 Q1383.69 124.247 1383.12 123.615 Q1382.55 122.984 1382.55 122.181 Q1382.55 121.836 1382.69 121.406 Q1382.83 120.947 1383.15 120.402 Q1383.49 119.857 1384.21 119.455 Q1384.93 119.053 1385.9 118.996 Q1385.7 118.795 1385.65 118.766 Q1385.22 118.422 1384.41 118.307 Q1384.3 118.25 1383.9 118.25 Q1381.92 118.25 1379.91 119.713 Q1377.93 121.148 1375.49 123.874 Q1372.42 127.058 1370.44 128.235 Q1379.13 129.383 1379.13 134.404 Q1379.13 135.236 1378.9 136.24 Q1378.44 138.134 1378.44 139.511 Q1378.44 142.265 1380.31 142.265 Q1382.12 142.265 1383.26 140.429 Q1384.44 138.593 1385.42 135.006 Q1385.56 134.346 1385.7 134.145 Q1385.85 133.945 1386.25 133.945 Q1386.97 133.945 1386.97 134.518 Q1386.31 137.875 1384.84 140.458 Q1382.98 143.585 1380.19 143.585 Q1377.87 143.585 1376.32 141.979 Q1374.8 140.343 1374.8 137.761 Q1374.8 137.129 1375.03 135.695 Q1375.2 135.121 1375.2 134.461 Q1375.2 133.113 1374.46 132.108 Q1373.71 131.075 1372.5 130.559 Q1371.3 130.042 1370.3 129.813 Q1369.32 129.555 1368.37 129.469 Q1365.5 141.606 1365.1 142.352 Q1364.84 142.868 1364.27 143.212 Q1363.7 143.585 1363.09 143.585 Q1362.52 143.585 1361.95 143.184 Q1361.4 142.811 1361.4 141.921 Q1361.4 141.462 1361.63 140.63 L1370.15 106.773 L1370.32 105.625 Q1370.32 105.281 1370.18 105.109 Q1370.07 104.908 1369.38 104.764 Q1368.72 104.621 1367.4 104.621 Q1366.85 104.621 1366.59 104.592 Q1366.36 104.563 1366.16 104.42 Q1365.96 104.248 1365.96 103.904 Q1365.96 103.416 1366.16 103.158 Q1366.39 102.871 1366.57 102.813 Q1366.74 102.756 1367.08 102.727 Q1367.57 102.698 1369.21 102.555 Q1370.84 102.383 1372.25 102.268 Q1373.65 102.153 1374.26 102.153 Q1374.6 102.153 1374.77 102.325 Q1374.97 102.469 1375 102.641 L1375.03 102.785 L1368.92 127.575 Q1371.44 126.571 1375.43 122.123 Q1380.05 116.959 1384.01 116.959 Q1385.88 116.959 1386.94 118.106 Q1388 119.225 1388 120.66 Z" fill="#000000" fill-rule="nonzero" fill-opacity="1" /><path clip-path="url(#clip390)" d="M1405.7 102.785 L1397.24 136.756 Q1396.89 138.105 1396.89 139.568 Q1396.89 142.265 1398.67 142.265 Q1399.5 142.265 1400.19 141.72 Q1400.88 141.146 1401.4 140.027 Q1401.94 138.88 1402.29 137.789 Q1402.66 136.699 1403.12 135.006 Q1403.26 134.346 1403.41 134.145 Q1403.55 133.945 1403.95 133.945 Q1404.67 133.945 1404.67 134.518 Q1403.95 138.048 1402.89 140.286 Q1401.34 143.585 1398.47 143.585 Q1396.32 143.585 1394.71 142.093 Q1393.13 140.573 1393.13 138.162 Q1393.13 137.244 1393.42 136.154 L1400.82 106.773 L1401.02 105.625 Q1401.02 105.309 1400.91 105.137 Q1400.79 104.965 1400.11 104.793 Q1399.45 104.621 1398.13 104.621 Q1397.58 104.621 1397.32 104.592 Q1397.09 104.563 1396.86 104.42 Q1396.66 104.277 1396.66 103.961 Q1396.66 103.444 1396.86 103.158 Q1397.09 102.871 1397.26 102.813 Q1397.44 102.756 1397.78 102.727 Q1398.27 102.698 1399.9 102.555 Q1401.54 102.383 1402.95 102.268 Q1404.35 102.153 1404.95 102.153 Q1405.3 102.153 1405.47 102.325 Q1405.67 102.469 1405.7 102.641 L1405.7 102.785 Z" fill="#000000" fill-rule="nonzero" fill-opacity="1" /><path clip-path="url(#clip390)" d="M1448.27 73.3265 L1456.17 73.3265 L1470.35 111.405 L1484.53 73.3265 L1492.42 73.3265 L1475.41 118.697 L1465.28 118.697 L1448.27 73.3265 Z" fill="#000000" fill-rule="nonzero" fill-opacity="1" /><path clip-path="url(#clip390)" d="M1523.33 95.89 Q1514.3 95.89 1510.82 97.956 Q1507.33 100.022 1507.33 105.005 Q1507.33 108.974 1509.92 111.324 Q1512.56 113.633 1517.05 113.633 Q1523.25 113.633 1526.98 109.258 Q1530.75 104.843 1530.75 97.5509 L1530.75 95.89 L1523.33 95.89 M1538.2 92.8113 L1538.2 118.697 L1530.75 118.697 L1530.75 111.81 Q1528.19 115.942 1524.39 117.927 Q1520.58 119.871 1515.07 119.871 Q1508.1 119.871 1503.97 115.983 Q1499.88 112.053 1499.88 105.491 Q1499.88 97.8345 1504.98 93.9456 Q1510.13 90.0567 1520.3 90.0567 L1530.75 90.0567 L1530.75 89.3276 Q1530.75 84.1829 1527.34 81.3878 Q1523.98 78.5521 1517.86 78.5521 Q1513.98 78.5521 1510.29 79.4839 Q1506.6 80.4156 1503.2 82.279 L1503.2 75.3924 Q1507.29 73.8126 1511.14 73.0429 Q1514.99 72.2327 1518.63 72.2327 Q1528.48 72.2327 1533.34 77.3369 Q1538.2 82.441 1538.2 92.8113 Z" fill="#000000" fill-rule="nonzero" fill-opacity="1" /><path clip-path="url(#clip390)" d="M1553.55 55.6645 L1561.01 55.6645 L1561.01 118.697 L1553.55 118.697 L1553.55 55.6645 Z" fill="#000000" fill-rule="nonzero" fill-opacity="1" /><path clip-path="url(#clip390)" d="M1575.83 100.792 L1575.83 73.3265 L1583.29 73.3265 L1583.29 100.508 Q1583.29 106.949 1585.8 110.19 Q1588.31 113.39 1593.33 113.39 Q1599.37 113.39 1602.85 109.542 Q1606.38 105.693 1606.38 99.0497 L1606.38 73.3265 L1613.83 73.3265 L1613.83 118.697 L1606.38 118.697 L1606.38 111.729 Q1603.66 115.861 1600.06 117.886 Q1596.49 119.871 1591.75 119.871 Q1583.93 119.871 1579.88 115.01 Q1575.83 110.149 1575.83 100.792 M1594.59 72.2327 L1594.59 72.2327 Z" fill="#000000" fill-rule="nonzero" fill-opacity="1" /><path clip-path="url(#clip390)" d="M1667.99 94.1481 L1667.99 97.7939 L1633.72 97.7939 Q1634.21 105.491 1638.34 109.542 Q1642.51 113.552 1649.92 113.552 Q1654.22 113.552 1658.23 112.499 Q1662.28 111.445 1666.25 109.339 L1666.25 116.388 Q1662.24 118.089 1658.03 118.98 Q1653.81 119.871 1649.48 119.871 Q1638.62 119.871 1632.26 113.552 Q1625.94 107.233 1625.94 96.4571 Q1625.94 85.3172 1631.94 78.7952 Q1637.97 72.2327 1648.18 72.2327 Q1657.34 72.2327 1662.64 78.1471 Q1667.99 84.0209 1667.99 94.1481 M1660.54 91.9606 Q1660.46 85.8438 1657.09 82.198 Q1653.77 78.5521 1648.26 78.5521 Q1642.02 78.5521 1638.26 82.0764 Q1634.53 85.6007 1633.96 92.0012 L1660.54 91.9606 Z" fill="#000000" fill-rule="nonzero" fill-opacity="1" /><path clip-path="url(#clip390)" d="M1709.15 74.6633 L1709.15 81.7119 Q1705.99 80.0915 1702.59 79.2813 Q1699.18 78.4711 1695.54 78.4711 Q1689.99 78.4711 1687.19 80.1725 Q1684.44 81.8739 1684.44 85.2766 Q1684.44 87.8692 1686.42 89.3681 Q1688.41 90.8264 1694.4 92.1632 L1696.96 92.7303 Q1704.89 94.4317 1708.22 97.5509 Q1711.58 100.63 1711.58 106.179 Q1711.58 112.499 1706.56 116.185 Q1701.57 119.871 1692.82 119.871 Q1689.18 119.871 1685.21 119.142 Q1681.28 118.454 1676.9 117.036 L1676.9 109.339 Q1681.04 111.486 1685.05 112.58 Q1689.06 113.633 1692.99 113.633 Q1698.25 113.633 1701.09 111.851 Q1703.92 110.028 1703.92 106.746 Q1703.92 103.708 1701.86 102.088 Q1699.83 100.468 1692.9 98.9687 L1690.31 98.3611 Q1683.38 96.9027 1680.31 93.9051 Q1677.23 90.8669 1677.23 85.6007 Q1677.23 79.2003 1681.76 75.7165 Q1686.3 72.2327 1694.65 72.2327 Q1698.78 72.2327 1702.42 72.8404 Q1706.07 73.448 1709.15 74.6633 Z" fill="#000000" fill-rule="nonzero" fill-opacity="1" /><path clip-path="url(#clip392)" d="M338.852 1287.48 L338.852 1396.96 L380.085 1396.96 L380.085 1287.48 L338.852 1287.48 L338.852 1287.48  Z" fill="#009af9" fill-rule="evenodd" fill-opacity="1"/>
<polyline clip-path="url(#clip392)" style="stroke:#000000; stroke-linecap:round; stroke-linejoin:round; stroke-width:4; stroke-opacity:1; fill:none" points="338.852,1287.48 338.852,1396.96 380.085,1396.96 380.085,1287.48 338.852,1287.48 "/>
<path clip-path="url(#clip392)" d="M462.549 1287.48 L462.549 1396.96 L503.782 1396.96 L503.782 1287.48 L462.549 1287.48 L462.549 1287.48  Z" fill="#009af9" fill-rule="evenodd" fill-opacity="1"/>
<polyline clip-path="url(#clip392)" style="stroke:#000000; stroke-linecap:round; stroke-linejoin:round; stroke-width:4; stroke-opacity:1; fill:none" points="462.549,1287.48 462.549,1396.96 503.782,1396.96 503.782,1287.48 462.549,1287.48 "/>
<path clip-path="url(#clip392)" d="M545.014 1178 L545.014 1396.96 L586.247 1396.96 L586.247 1178 L545.014 1178 L545.014 1178  Z" fill="#009af9" fill-rule="evenodd" fill-opacity="1"/>
<polyline clip-path="url(#clip392)" style="stroke:#000000; stroke-linecap:round; stroke-linejoin:round; stroke-width:4; stroke-opacity:1; fill:none" points="545.014,1178 545.014,1396.96 586.247,1396.96 586.247,1178 545.014,1178 "/>
<path clip-path="url(#clip392)" d="M586.247 1178 L586.247 1396.96 L627.479 1396.96 L627.479 1178 L586.247 1178 L586.247 1178  Z" fill="#009af9" fill-rule="evenodd" fill-opacity="1"/>
<polyline clip-path="url(#clip392)" style="stroke:#000000; stroke-linecap:round; stroke-linejoin:round; stroke-width:4; stroke-opacity:1; fill:none" points="586.247,1178 586.247,1396.96 627.479,1396.96 627.479,1178 586.247,1178 "/>
<path clip-path="url(#clip392)" d="M627.479 959.046 L627.479 1396.96 L668.711 1396.96 L668.711 959.046 L627.479 959.046 L627.479 959.046  Z" fill="#009af9" fill-rule="evenodd" fill-opacity="1"/>
<polyline clip-path="url(#clip392)" style="stroke:#000000; stroke-linecap:round; stroke-linejoin:round; stroke-width:4; stroke-opacity:1; fill:none" points="627.479,959.046 627.479,1396.96 668.711,1396.96 668.711,959.046 627.479,959.046 "/>
<path clip-path="url(#clip392)" d="M668.711 854.583 L668.711 1396.96 L709.944 1396.96 L709.944 854.583 L668.711 854.583 L668.711 854.583  Z" fill="#009af9" fill-rule="evenodd" fill-opacity="1"/>
<polyline clip-path="url(#clip392)" style="stroke:#000000; stroke-linecap:round; stroke-linejoin:round; stroke-width:4; stroke-opacity:1; fill:none" points="668.711,854.583 668.711,1396.96 709.944,1396.96 709.944,854.583 668.711,854.583 "/>
<path clip-path="url(#clip392)" d="M709.944 908.749 L709.944 1396.96 L751.176 1396.96 L751.176 908.749 L709.944 908.749 L709.944 908.749  Z" fill="#009af9" fill-rule="evenodd" fill-opacity="1"/>
<polyline clip-path="url(#clip392)" style="stroke:#000000; stroke-linecap:round; stroke-linejoin:round; stroke-width:4; stroke-opacity:1; fill:none" points="709.944,908.749 709.944,1396.96 751.176,1396.96 751.176,908.749 709.944,908.749 "/>
<path clip-path="url(#clip392)" d="M751.176 681.066 L751.176 1396.96 L792.408 1396.96 L792.408 681.066 L751.176 681.066 L751.176 681.066  Z" fill="#009af9" fill-rule="evenodd" fill-opacity="1"/>
<polyline clip-path="url(#clip392)" style="stroke:#000000; stroke-linecap:round; stroke-linejoin:round; stroke-width:4; stroke-opacity:1; fill:none" points="751.176,681.066 751.176,1396.96 792.408,1396.96 792.408,681.066 751.176,681.066 "/>
<path clip-path="url(#clip392)" d="M792.408 643.462 L792.408 1396.96 L833.641 1396.96 L833.641 643.462 L792.408 643.462 L792.408 643.462  Z" fill="#009af9" fill-rule="evenodd" fill-opacity="1"/>
<polyline clip-path="url(#clip392)" style="stroke:#000000; stroke-linecap:round; stroke-linejoin:round; stroke-width:4; stroke-opacity:1; fill:none" points="792.408,643.462 792.408,1396.96 833.641,1396.96 833.641,643.462 792.408,643.462 "/>
<path clip-path="url(#clip392)" d="M833.641 533.985 L833.641 1396.96 L874.873 1396.96 L874.873 533.985 L833.641 533.985 L833.641 533.985  Z" fill="#009af9" fill-rule="evenodd" fill-opacity="1"/>
<polyline clip-path="url(#clip392)" style="stroke:#000000; stroke-linecap:round; stroke-linejoin:round; stroke-width:4; stroke-opacity:1; fill:none" points="833.641,533.985 833.641,1396.96 874.873,1396.96 874.873,533.985 833.641,533.985 "/>
<path clip-path="url(#clip392)" d="M874.873 526.152 L874.873 1396.96 L916.105 1396.96 L916.105 526.152 L874.873 526.152 L874.873 526.152  Z" fill="#009af9" fill-rule="evenodd" fill-opacity="1"/>
<polyline clip-path="url(#clip392)" style="stroke:#000000; stroke-linecap:round; stroke-linejoin:round; stroke-width:4; stroke-opacity:1; fill:none" points="874.873,526.152 874.873,1396.96 916.105,1396.96 916.105,526.152 874.873,526.152 "/>
<path clip-path="url(#clip392)" d="M916.105 479.604 L916.105 1396.96 L957.338 1396.96 L957.338 479.604 L916.105 479.604 L916.105 479.604  Z" fill="#009af9" fill-rule="evenodd" fill-opacity="1"/>
<polyline clip-path="url(#clip392)" style="stroke:#000000; stroke-linecap:round; stroke-linejoin:round; stroke-width:4; stroke-opacity:1; fill:none" points="916.105,479.604 916.105,1396.96 957.338,1396.96 957.338,479.604 916.105,479.604 "/>
<path clip-path="url(#clip392)" d="M957.338 430.301 L957.338 1396.96 L998.57 1396.96 L998.57 430.301 L957.338 430.301 L957.338 430.301  Z" fill="#009af9" fill-rule="evenodd" fill-opacity="1"/>
<polyline clip-path="url(#clip392)" style="stroke:#000000; stroke-linecap:round; stroke-linejoin:round; stroke-width:4; stroke-opacity:1; fill:none" points="957.338,430.301 957.338,1396.96 998.57,1396.96 998.57,430.301 957.338,430.301 "/>
<path clip-path="url(#clip392)" d="M998.57 335.358 L998.57 1396.96 L1039.8 1396.96 L1039.8 335.358 L998.57 335.358 L998.57 335.358  Z" fill="#009af9" fill-rule="evenodd" fill-opacity="1"/>
<polyline clip-path="url(#clip392)" style="stroke:#000000; stroke-linecap:round; stroke-linejoin:round; stroke-width:4; stroke-opacity:1; fill:none" points="998.57,335.358 998.57,1396.96 1039.8,1396.96 1039.8,335.358 998.57,335.358 "/>
<path clip-path="url(#clip392)" d="M1039.8 275.952 L1039.8 1396.96 L1081.03 1396.96 L1081.03 275.952 L1039.8 275.952 L1039.8 275.952  Z" fill="#009af9" fill-rule="evenodd" fill-opacity="1"/>
<polyline clip-path="url(#clip392)" style="stroke:#000000; stroke-linecap:round; stroke-linejoin:round; stroke-width:4; stroke-opacity:1; fill:none" points="1039.8,275.952 1039.8,1396.96 1081.03,1396.96 1081.03,275.952 1039.8,275.952 "/>
<path clip-path="url(#clip392)" d="M1081.03 222.958 L1081.03 1396.96 L1122.27 1396.96 L1122.27 222.958 L1081.03 222.958 L1081.03 222.958  Z" fill="#009af9" fill-rule="evenodd" fill-opacity="1"/>
<polyline clip-path="url(#clip392)" style="stroke:#000000; stroke-linecap:round; stroke-linejoin:round; stroke-width:4; stroke-opacity:1; fill:none" points="1081.03,222.958 1081.03,1396.96 1122.27,1396.96 1122.27,222.958 1081.03,222.958 "/>
<path clip-path="url(#clip392)" d="M1122.27 181.685 L1122.27 1396.96 L1163.5 1396.96 L1163.5 181.685 L1122.27 181.685 L1122.27 181.685  Z" fill="#009af9" fill-rule="evenodd" fill-opacity="1"/>
<polyline clip-path="url(#clip392)" style="stroke:#000000; stroke-linecap:round; stroke-linejoin:round; stroke-width:4; stroke-opacity:1; fill:none" points="1122.27,181.685 1122.27,1396.96 1163.5,1396.96 1163.5,181.685 1122.27,181.685 "/>
<path clip-path="url(#clip392)" d="M1163.5 162.412 L1163.5 1396.96 L1204.73 1396.96 L1204.73 162.412 L1163.5 162.412 L1163.5 162.412  Z" fill="#009af9" fill-rule="evenodd" fill-opacity="1"/>
<polyline clip-path="url(#clip392)" style="stroke:#000000; stroke-linecap:round; stroke-linejoin:round; stroke-width:4; stroke-opacity:1; fill:none" points="1163.5,162.412 1163.5,1396.96 1204.73,1396.96 1204.73,162.412 1163.5,162.412 "/>
<path clip-path="url(#clip392)" d="M1204.73 156.846 L1204.73 1396.96 L1245.96 1396.96 L1245.96 156.846 L1204.73 156.846 L1204.73 156.846  Z" fill="#009af9" fill-rule="evenodd" fill-opacity="1"/>
<polyline clip-path="url(#clip392)" style="stroke:#000000; stroke-linecap:round; stroke-linejoin:round; stroke-width:4; stroke-opacity:1; fill:none" points="1204.73,156.846 1204.73,1396.96 1245.96,1396.96 1245.96,156.846 1204.73,156.846 "/>
<path clip-path="url(#clip392)" d="M1245.96 157.276 L1245.96 1396.96 L1287.2 1396.96 L1287.2 157.276 L1245.96 157.276 L1245.96 157.276  Z" fill="#009af9" fill-rule="evenodd" fill-opacity="1"/>
<polyline clip-path="url(#clip392)" style="stroke:#000000; stroke-linecap:round; stroke-linejoin:round; stroke-width:4; stroke-opacity:1; fill:none" points="1245.96,157.276 1245.96,1396.96 1287.2,1396.96 1287.2,157.276 1245.96,157.276 "/>
<path clip-path="url(#clip392)" d="M1287.2 164.85 L1287.2 1396.96 L1328.43 1396.96 L1328.43 164.85 L1287.2 164.85 L1287.2 164.85  Z" fill="#009af9" fill-rule="evenodd" fill-opacity="1"/>
<polyline clip-path="url(#clip392)" style="stroke:#000000; stroke-linecap:round; stroke-linejoin:round; stroke-width:4; stroke-opacity:1; fill:none" points="1287.2,164.85 1287.2,1396.96 1328.43,1396.96 1328.43,164.85 1287.2,164.85 "/>
<path clip-path="url(#clip392)" d="M1328.43 161.144 L1328.43 1396.96 L1369.66 1396.96 L1369.66 161.144 L1328.43 161.144 L1328.43 161.144  Z" fill="#009af9" fill-rule="evenodd" fill-opacity="1"/>
<polyline clip-path="url(#clip392)" style="stroke:#000000; stroke-linecap:round; stroke-linejoin:round; stroke-width:4; stroke-opacity:1; fill:none" points="1328.43,161.144 1328.43,1396.96 1369.66,1396.96 1369.66,161.144 1328.43,161.144 "/>
<path clip-path="url(#clip392)" d="M1369.66 157.461 L1369.66 1396.96 L1410.89 1396.96 L1410.89 157.461 L1369.66 157.461 L1369.66 157.461  Z" fill="#009af9" fill-rule="evenodd" fill-opacity="1"/>
<polyline clip-path="url(#clip392)" style="stroke:#000000; stroke-linecap:round; stroke-linejoin:round; stroke-width:4; stroke-opacity:1; fill:none" points="1369.66,157.461 1369.66,1396.96 1410.89,1396.96 1410.89,157.461 1369.66,157.461 "/>
<path clip-path="url(#clip392)" d="M1410.89 177.427 L1410.89 1396.96 L1452.13 1396.96 L1452.13 177.427 L1410.89 177.427 L1410.89 177.427  Z" fill="#009af9" fill-rule="evenodd" fill-opacity="1"/>
<polyline clip-path="url(#clip392)" style="stroke:#000000; stroke-linecap:round; stroke-linejoin:round; stroke-width:4; stroke-opacity:1; fill:none" points="1410.89,177.427 1410.89,1396.96 1452.13,1396.96 1452.13,177.427 1410.89,177.427 "/>
<path clip-path="url(#clip392)" d="M1452.13 223.519 L1452.13 1396.96 L1493.36 1396.96 L1493.36 223.519 L1452.13 223.519 L1452.13 223.519  Z" fill="#009af9" fill-rule="evenodd" fill-opacity="1"/>
<polyline clip-path="url(#clip392)" style="stroke:#000000; stroke-linecap:round; stroke-linejoin:round; stroke-width:4; stroke-opacity:1; fill:none" points="1452.13,223.519 1452.13,1396.96 1493.36,1396.96 1493.36,223.519 1452.13,223.519 "/>
<path clip-path="url(#clip392)" d="M1493.36 284.957 L1493.36 1396.96 L1534.59 1396.96 L1534.59 284.957 L1493.36 284.957 L1493.36 284.957  Z" fill="#009af9" fill-rule="evenodd" fill-opacity="1"/>
<polyline clip-path="url(#clip392)" style="stroke:#000000; stroke-linecap:round; stroke-linejoin:round; stroke-width:4; stroke-opacity:1; fill:none" points="1493.36,284.957 1493.36,1396.96 1534.59,1396.96 1534.59,284.957 1493.36,284.957 "/>
<path clip-path="url(#clip392)" d="M1534.59 362.037 L1534.59 1396.96 L1575.82 1396.96 L1575.82 362.037 L1534.59 362.037 L1534.59 362.037  Z" fill="#009af9" fill-rule="evenodd" fill-opacity="1"/>
<polyline clip-path="url(#clip392)" style="stroke:#000000; stroke-linecap:round; stroke-linejoin:round; stroke-width:4; stroke-opacity:1; fill:none" points="1534.59,362.037 1534.59,1396.96 1575.82,1396.96 1575.82,362.037 1534.59,362.037 "/>
<path clip-path="url(#clip392)" d="M1575.82 438.86 L1575.82 1396.96 L1617.06 1396.96 L1617.06 438.86 L1575.82 438.86 L1575.82 438.86  Z" fill="#009af9" fill-rule="evenodd" fill-opacity="1"/>
<polyline clip-path="url(#clip392)" style="stroke:#000000; stroke-linecap:round; stroke-linejoin:round; stroke-width:4; stroke-opacity:1; fill:none" points="1575.82,438.86 1575.82,1396.96 1617.06,1396.96 1617.06,438.86 1575.82,438.86 "/>
<path clip-path="url(#clip392)" d="M1617.06 452.636 L1617.06 1396.96 L1658.29 1396.96 L1658.29 452.636 L1617.06 452.636 L1617.06 452.636  Z" fill="#009af9" fill-rule="evenodd" fill-opacity="1"/>
<polyline clip-path="url(#clip392)" style="stroke:#000000; stroke-linecap:round; stroke-linejoin:round; stroke-width:4; stroke-opacity:1; fill:none" points="1617.06,452.636 1617.06,1396.96 1658.29,1396.96 1658.29,452.636 1617.06,452.636 "/>
<path clip-path="url(#clip392)" d="M1658.29 556.227 L1658.29 1396.96 L1699.52 1396.96 L1699.52 556.227 L1658.29 556.227 L1658.29 556.227  Z" fill="#009af9" fill-rule="evenodd" fill-opacity="1"/>
<polyline clip-path="url(#clip392)" style="stroke:#000000; stroke-linecap:round; stroke-linejoin:round; stroke-width:4; stroke-opacity:1; fill:none" points="1658.29,556.227 1658.29,1396.96 1699.52,1396.96 1699.52,556.227 1658.29,556.227 "/>
<path clip-path="url(#clip392)" d="M1699.52 591.471 L1699.52 1396.96 L1740.75 1396.96 L1740.75 591.471 L1699.52 591.471 L1699.52 591.471  Z" fill="#009af9" fill-rule="evenodd" fill-opacity="1"/>
<polyline clip-path="url(#clip392)" style="stroke:#000000; stroke-linecap:round; stroke-linejoin:round; stroke-width:4; stroke-opacity:1; fill:none" points="1699.52,591.471 1699.52,1396.96 1740.75,1396.96 1740.75,591.471 1699.52,591.471 "/>
<path clip-path="url(#clip392)" d="M1740.75 633.102 L1740.75 1396.96 L1781.98 1396.96 L1781.98 633.102 L1740.75 633.102 L1740.75 633.102  Z" fill="#009af9" fill-rule="evenodd" fill-opacity="1"/>
<polyline clip-path="url(#clip392)" style="stroke:#000000; stroke-linecap:round; stroke-linejoin:round; stroke-width:4; stroke-opacity:1; fill:none" points="1740.75,633.102 1740.75,1396.96 1781.98,1396.96 1781.98,633.102 1740.75,633.102 "/>
<path clip-path="url(#clip392)" d="M1781.98 653.121 L1781.98 1396.96 L1823.22 1396.96 L1823.22 653.121 L1781.98 653.121 L1781.98 653.121  Z" fill="#009af9" fill-rule="evenodd" fill-opacity="1"/>
<polyline clip-path="url(#clip392)" style="stroke:#000000; stroke-linecap:round; stroke-linejoin:round; stroke-width:4; stroke-opacity:1; fill:none" points="1781.98,653.121 1781.98,1396.96 1823.22,1396.96 1823.22,653.121 1781.98,653.121 "/>
<path clip-path="url(#clip392)" d="M1823.22 830.966 L1823.22 1396.96 L1864.45 1396.96 L1864.45 830.966 L1823.22 830.966 L1823.22 830.966  Z" fill="#009af9" fill-rule="evenodd" fill-opacity="1"/>
<polyline clip-path="url(#clip392)" style="stroke:#000000; stroke-linecap:round; stroke-linejoin:round; stroke-width:4; stroke-opacity:1; fill:none" points="1823.22,830.966 1823.22,1396.96 1864.45,1396.96 1864.45,830.966 1823.22,830.966 "/>
<path clip-path="url(#clip392)" d="M1864.45 870.659 L1864.45 1396.96 L1905.68 1396.96 L1905.68 870.659 L1864.45 870.659 L1864.45 870.659  Z" fill="#009af9" fill-rule="evenodd" fill-opacity="1"/>
<polyline clip-path="url(#clip392)" style="stroke:#000000; stroke-linecap:round; stroke-linejoin:round; stroke-width:4; stroke-opacity:1; fill:none" points="1864.45,870.659 1864.45,1396.96 1905.68,1396.96 1905.68,870.659 1864.45,870.659 "/>
<path clip-path="url(#clip392)" d="M1905.68 1068.52 L1905.68 1396.96 L1946.91 1396.96 L1946.91 1068.52 L1905.68 1068.52 L1905.68 1068.52  Z" fill="#009af9" fill-rule="evenodd" fill-opacity="1"/>
<polyline clip-path="url(#clip392)" style="stroke:#000000; stroke-linecap:round; stroke-linejoin:round; stroke-width:4; stroke-opacity:1; fill:none" points="1905.68,1068.52 1905.68,1396.96 1946.91,1396.96 1946.91,1068.52 1905.68,1068.52 "/>
<path clip-path="url(#clip392)" d="M1946.91 1033.28 L1946.91 1396.96 L1988.15 1396.96 L1988.15 1033.28 L1946.91 1033.28 L1946.91 1033.28  Z" fill="#009af9" fill-rule="evenodd" fill-opacity="1"/>
<polyline clip-path="url(#clip392)" style="stroke:#000000; stroke-linecap:round; stroke-linejoin:round; stroke-width:4; stroke-opacity:1; fill:none" points="1946.91,1033.28 1946.91,1396.96 1988.15,1396.96 1988.15,1033.28 1946.91,1033.28 "/>
<path clip-path="url(#clip392)" d="M1988.15 1178 L1988.15 1396.96 L2029.38 1396.96 L2029.38 1178 L1988.15 1178 L1988.15 1178  Z" fill="#009af9" fill-rule="evenodd" fill-opacity="1"/>
<polyline clip-path="url(#clip392)" style="stroke:#000000; stroke-linecap:round; stroke-linejoin:round; stroke-width:4; stroke-opacity:1; fill:none" points="1988.15,1178 1988.15,1396.96 2029.38,1396.96 2029.38,1178 1988.15,1178 "/>
<path clip-path="url(#clip392)" d="M2029.38 1178 L2029.38 1396.96 L2070.61 1396.96 L2070.61 1178 L2029.38 1178 L2029.38 1178  Z" fill="#009af9" fill-rule="evenodd" fill-opacity="1"/>
<polyline clip-path="url(#clip392)" style="stroke:#000000; stroke-linecap:round; stroke-linejoin:round; stroke-width:4; stroke-opacity:1; fill:none" points="2029.38,1178 2029.38,1396.96 2070.61,1396.96 2070.61,1178 2029.38,1178 "/>
<path clip-path="url(#clip392)" d="M2070.61 1287.48 L2070.61 1396.96 L2111.84 1396.96 L2111.84 1287.48 L2070.61 1287.48 L2070.61 1287.48  Z" fill="#009af9" fill-rule="evenodd" fill-opacity="1"/>
<polyline clip-path="url(#clip392)" style="stroke:#000000; stroke-linecap:round; stroke-linejoin:round; stroke-width:4; stroke-opacity:1; fill:none" points="2070.61,1287.48 2070.61,1396.96 2111.84,1396.96 2111.84,1287.48 2070.61,1287.48 "/>
<path clip-path="url(#clip392)" d="M2153.08 1287.48 L2153.08 1396.96 L2194.31 1396.96 L2194.31 1287.48 L2153.08 1287.48 L2153.08 1287.48  Z" fill="#009af9" fill-rule="evenodd" fill-opacity="1"/>
<polyline clip-path="url(#clip392)" style="stroke:#000000; stroke-linecap:round; stroke-linejoin:round; stroke-width:4; stroke-opacity:1; fill:none" points="2153.08,1287.48 2153.08,1396.96 2194.31,1396.96 2194.31,1287.48 2153.08,1287.48 "/>
<path clip-path="url(#clip392)" d="M2194.31 1287.48 L2194.31 1396.96 L2235.54 1396.96 L2235.54 1287.48 L2194.31 1287.48 L2194.31 1287.48  Z" fill="#009af9" fill-rule="evenodd" fill-opacity="1"/>
<polyline clip-path="url(#clip392)" style="stroke:#000000; stroke-linecap:round; stroke-linejoin:round; stroke-width:4; stroke-opacity:1; fill:none" points="2194.31,1287.48 2194.31,1396.96 2235.54,1396.96 2235.54,1287.48 2194.31,1287.48 "/>
<circle clip-path="url(#clip392)" style="fill:#009af9; stroke:none; fill-opacity:0" cx="359.469" cy="1287.48" r="2"/>
<circle clip-path="url(#clip392)" style="fill:#009af9; stroke:none; fill-opacity:0" cx="483.166" cy="1287.48" r="2"/>
<circle clip-path="url(#clip392)" style="fill:#009af9; stroke:none; fill-opacity:0" cx="565.63" cy="1178" r="2"/>
<circle clip-path="url(#clip392)" style="fill:#009af9; stroke:none; fill-opacity:0" cx="606.863" cy="1178" r="2"/>
<circle clip-path="url(#clip392)" style="fill:#009af9; stroke:none; fill-opacity:0" cx="648.095" cy="959.046" r="2"/>
<circle clip-path="url(#clip392)" style="fill:#009af9; stroke:none; fill-opacity:0" cx="689.327" cy="854.583" r="2"/>
<circle clip-path="url(#clip392)" style="fill:#009af9; stroke:none; fill-opacity:0" cx="730.56" cy="908.749" r="2"/>
<circle clip-path="url(#clip392)" style="fill:#009af9; stroke:none; fill-opacity:0" cx="771.792" cy="681.066" r="2"/>
<circle clip-path="url(#clip392)" style="fill:#009af9; stroke:none; fill-opacity:0" cx="813.024" cy="643.462" r="2"/>
<circle clip-path="url(#clip392)" style="fill:#009af9; stroke:none; fill-opacity:0" cx="854.257" cy="533.985" r="2"/>
<circle clip-path="url(#clip392)" style="fill:#009af9; stroke:none; fill-opacity:0" cx="895.489" cy="526.152" r="2"/>
<circle clip-path="url(#clip392)" style="fill:#009af9; stroke:none; fill-opacity:0" cx="936.722" cy="479.604" r="2"/>
<circle clip-path="url(#clip392)" style="fill:#009af9; stroke:none; fill-opacity:0" cx="977.954" cy="430.301" r="2"/>
<circle clip-path="url(#clip392)" style="fill:#009af9; stroke:none; fill-opacity:0" cx="1019.19" cy="335.358" r="2"/>
<circle clip-path="url(#clip392)" style="fill:#009af9; stroke:none; fill-opacity:0" cx="1060.42" cy="275.952" r="2"/>
<circle clip-path="url(#clip392)" style="fill:#009af9; stroke:none; fill-opacity:0" cx="1101.65" cy="222.958" r="2"/>
<circle clip-path="url(#clip392)" style="fill:#009af9; stroke:none; fill-opacity:0" cx="1142.88" cy="181.685" r="2"/>
<circle clip-path="url(#clip392)" style="fill:#009af9; stroke:none; fill-opacity:0" cx="1184.12" cy="162.412" r="2"/>
<circle clip-path="url(#clip392)" style="fill:#009af9; stroke:none; fill-opacity:0" cx="1225.35" cy="156.846" r="2"/>
<circle clip-path="url(#clip392)" style="fill:#009af9; stroke:none; fill-opacity:0" cx="1266.58" cy="157.276" r="2"/>
<circle clip-path="url(#clip392)" style="fill:#009af9; stroke:none; fill-opacity:0" cx="1307.81" cy="164.85" r="2"/>
<circle clip-path="url(#clip392)" style="fill:#009af9; stroke:none; fill-opacity:0" cx="1349.05" cy="161.144" r="2"/>
<circle clip-path="url(#clip392)" style="fill:#009af9; stroke:none; fill-opacity:0" cx="1390.28" cy="157.461" r="2"/>
<circle clip-path="url(#clip392)" style="fill:#009af9; stroke:none; fill-opacity:0" cx="1431.51" cy="177.427" r="2"/>
<circle clip-path="url(#clip392)" style="fill:#009af9; stroke:none; fill-opacity:0" cx="1472.74" cy="223.519" r="2"/>
<circle clip-path="url(#clip392)" style="fill:#009af9; stroke:none; fill-opacity:0" cx="1513.97" cy="284.957" r="2"/>
<circle clip-path="url(#clip392)" style="fill:#009af9; stroke:none; fill-opacity:0" cx="1555.21" cy="362.037" r="2"/>
<circle clip-path="url(#clip392)" style="fill:#009af9; stroke:none; fill-opacity:0" cx="1596.44" cy="438.86" r="2"/>
<circle clip-path="url(#clip392)" style="fill:#009af9; stroke:none; fill-opacity:0" cx="1637.67" cy="452.636" r="2"/>
<circle clip-path="url(#clip392)" style="fill:#009af9; stroke:none; fill-opacity:0" cx="1678.9" cy="556.227" r="2"/>
<circle clip-path="url(#clip392)" style="fill:#009af9; stroke:none; fill-opacity:0" cx="1720.14" cy="591.471" r="2"/>
<circle clip-path="url(#clip392)" style="fill:#009af9; stroke:none; fill-opacity:0" cx="1761.37" cy="633.102" r="2"/>
<circle clip-path="url(#clip392)" style="fill:#009af9; stroke:none; fill-opacity:0" cx="1802.6" cy="653.121" r="2"/>
<circle clip-path="url(#clip392)" style="fill:#009af9; stroke:none; fill-opacity:0" cx="1843.83" cy="830.966" r="2"/>
<circle clip-path="url(#clip392)" style="fill:#009af9; stroke:none; fill-opacity:0" cx="1885.07" cy="870.659" r="2"/>
<circle clip-path="url(#clip392)" style="fill:#009af9; stroke:none; fill-opacity:0" cx="1926.3" cy="1068.52" r="2"/>
<circle clip-path="url(#clip392)" style="fill:#009af9; stroke:none; fill-opacity:0" cx="1967.53" cy="1033.28" r="2"/>
<circle clip-path="url(#clip392)" style="fill:#009af9; stroke:none; fill-opacity:0" cx="2008.76" cy="1178" r="2"/>
<circle clip-path="url(#clip392)" style="fill:#009af9; stroke:none; fill-opacity:0" cx="2049.99" cy="1178" r="2"/>
<circle clip-path="url(#clip392)" style="fill:#009af9; stroke:none; fill-opacity:0" cx="2091.23" cy="1287.48" r="2"/>
<circle clip-path="url(#clip392)" style="fill:#009af9; stroke:none; fill-opacity:0" cx="2173.69" cy="1287.48" r="2"/>
<circle clip-path="url(#clip392)" style="fill:#009af9; stroke:none; fill-opacity:0" cx="2214.92" cy="1287.48" r="2"/>
</svg>
