<?xml version="1.0" encoding="utf-8"?>
<svg xmlns="http://www.w3.org/2000/svg" xmlns:xlink="http://www.w3.org/1999/xlink" width="600" height="400" viewBox="0 0 2400 1600">
<defs>
  <clipPath id="clip190">
    <rect x="0" y="0" width="2400" height="1600"/>
  </clipPath>
</defs>
<path clip-path="url(#clip190)" d="M0 1600 L2400 1600 L2400 0 L0 0  Z" fill="#ffffff" fill-rule="evenodd" fill-opacity="1"/>
<defs>
  <clipPath id="clip191">
    <rect x="480" y="0" width="1681" height="1600"/>
  </clipPath>
</defs>
<path clip-path="url(#clip190)" d="M234.125 1396.96 L2352.76 1396.96 L2352.76 156.846 L234.125 156.846  Z" fill="#ffffff" fill-rule="evenodd" fill-opacity="1"/>
<defs>
  <clipPath id="clip192">
    <rect x="234" y="156" width="2120" height="1241"/>
  </clipPath>
</defs>
<polyline clip-path="url(#clip192)" style="stroke:#000000; stroke-linecap:round; stroke-linejoin:round; stroke-width:2; stroke-opacity:0.1; fill:none" points="420.49,1396.96 420.49,156.846 "/>
<polyline clip-path="url(#clip192)" style="stroke:#000000; stroke-linecap:round; stroke-linejoin:round; stroke-width:2; stroke-opacity:0.1; fill:none" points="856.965,1396.96 856.965,156.846 "/>
<polyline clip-path="url(#clip192)" style="stroke:#000000; stroke-linecap:round; stroke-linejoin:round; stroke-width:2; stroke-opacity:0.1; fill:none" points="1293.44,1396.96 1293.44,156.846 "/>
<polyline clip-path="url(#clip192)" style="stroke:#000000; stroke-linecap:round; stroke-linejoin:round; stroke-width:2; stroke-opacity:0.1; fill:none" points="1729.92,1396.96 1729.92,156.846 "/>
<polyline clip-path="url(#clip192)" style="stroke:#000000; stroke-linecap:round; stroke-linejoin:round; stroke-width:2; stroke-opacity:0.1; fill:none" points="2166.39,1396.96 2166.39,156.846 "/>
<polyline clip-path="url(#clip192)" style="stroke:#000000; stroke-linecap:round; stroke-linejoin:round; stroke-width:2; stroke-opacity:0.1; fill:none" points="420.49,1396.96 420.49,156.846 "/>
<polyline clip-path="url(#clip192)" style="stroke:#000000; stroke-linecap:round; stroke-linejoin:round; stroke-width:2; stroke-opacity:0.1; fill:none" points="856.965,1396.96 856.965,156.846 "/>
<polyline clip-path="url(#clip192)" style="stroke:#000000; stroke-linecap:round; stroke-linejoin:round; stroke-width:2; stroke-opacity:0.1; fill:none" points="1293.44,1396.96 1293.44,156.846 "/>
<polyline clip-path="url(#clip192)" style="stroke:#000000; stroke-linecap:round; stroke-linejoin:round; stroke-width:2; stroke-opacity:0.1; fill:none" points="1729.92,1396.96 1729.92,156.846 "/>
<polyline clip-path="url(#clip192)" style="stroke:#000000; stroke-linecap:round; stroke-linejoin:round; stroke-width:2; stroke-opacity:0.1; fill:none" points="2166.39,1396.96 2166.39,156.846 "/>
<polyline clip-path="url(#clip192)" style="stroke:#000000; stroke-linecap:round; stroke-linejoin:round; stroke-width:2; stroke-opacity:0.1; fill:none" points="234.125,1396.96 2352.76,1396.96 "/>
<polyline clip-path="url(#clip192)" style="stroke:#000000; stroke-linecap:round; stroke-linejoin:round; stroke-width:2; stroke-opacity:0.1; fill:none" points="234.125,1134.22 2352.76,1134.22 "/>
<polyline clip-path="url(#clip192)" style="stroke:#000000; stroke-linecap:round; stroke-linejoin:round; stroke-width:2; stroke-opacity:0.1; fill:none" points="234.125,871.485 2352.76,871.485 "/>
<polyline clip-path="url(#clip192)" style="stroke:#000000; stroke-linecap:round; stroke-linejoin:round; stroke-width:2; stroke-opacity:0.1; fill:none" points="234.125,608.75 2352.76,608.75 "/>
<polyline clip-path="url(#clip192)" style="stroke:#000000; stroke-linecap:round; stroke-linejoin:round; stroke-width:2; stroke-opacity:0.1; fill:none" points="234.125,346.015 2352.76,346.015 "/>
<polyline clip-path="url(#clip192)" style="stroke:#000000; stroke-linecap:round; stroke-linejoin:round; stroke-width:2; stroke-opacity:0.1; fill:none" points="234.125,1396.96 2352.76,1396.96 "/>
<polyline clip-path="url(#clip192)" style="stroke:#000000; stroke-linecap:round; stroke-linejoin:round; stroke-width:2; stroke-opacity:0.1; fill:none" points="234.125,1134.22 2352.76,1134.22 "/>
<polyline clip-path="url(#clip192)" style="stroke:#000000; stroke-linecap:round; stroke-linejoin:round; stroke-width:2; stroke-opacity:0.1; fill:none" points="234.125,871.485 2352.76,871.485 "/>
<polyline clip-path="url(#clip192)" style="stroke:#000000; stroke-linecap:round; stroke-linejoin:round; stroke-width:2; stroke-opacity:0.1; fill:none" points="234.125,608.75 2352.76,608.75 "/>
<polyline clip-path="url(#clip192)" style="stroke:#000000; stroke-linecap:round; stroke-linejoin:round; stroke-width:2; stroke-opacity:0.1; fill:none" points="234.125,346.015 2352.76,346.015 "/>
<polyline clip-path="url(#clip190)" style="stroke:#000000; stroke-linecap:round; stroke-linejoin:round; stroke-width:4; stroke-opacity:1; fill:none" points="234.125,1396.96 2352.76,1396.96 "/>
<polyline clip-path="url(#clip190)" style="stroke:#000000; stroke-linecap:round; stroke-linejoin:round; stroke-width:4; stroke-opacity:1; fill:none" points="234.125,156.846 2352.76,156.846 "/>
<polyline clip-path="url(#clip190)" style="stroke:#000000; stroke-linecap:round; stroke-linejoin:round; stroke-width:4; stroke-opacity:1; fill:none" points="420.49,1396.96 420.49,1378.06 "/>
<polyline clip-path="url(#clip190)" style="stroke:#000000; stroke-linecap:round; stroke-linejoin:round; stroke-width:4; stroke-opacity:1; fill:none" points="856.965,1396.96 856.965,1378.06 "/>
<polyline clip-path="url(#clip190)" style="stroke:#000000; stroke-linecap:round; stroke-linejoin:round; stroke-width:4; stroke-opacity:1; fill:none" points="1293.44,1396.96 1293.44,1378.06 "/>
<polyline clip-path="url(#clip190)" style="stroke:#000000; stroke-linecap:round; stroke-linejoin:round; stroke-width:4; stroke-opacity:1; fill:none" points="1729.92,1396.96 1729.92,1378.06 "/>
<polyline clip-path="url(#clip190)" style="stroke:#000000; stroke-linecap:round; stroke-linejoin:round; stroke-width:4; stroke-opacity:1; fill:none" points="2166.39,1396.96 2166.39,1378.06 "/>
<polyline clip-path="url(#clip190)" style="stroke:#000000; stroke-linecap:round; stroke-linejoin:round; stroke-width:4; stroke-opacity:1; fill:none" points="420.49,156.846 420.49,175.743 "/>
<polyline clip-path="url(#clip190)" style="stroke:#000000; stroke-linecap:round; stroke-linejoin:round; stroke-width:4; stroke-opacity:1; fill:none" points="856.965,156.846 856.965,175.743 "/>
<polyline clip-path="url(#clip190)" style="stroke:#000000; stroke-linecap:round; stroke-linejoin:round; stroke-width:4; stroke-opacity:1; fill:none" points="1293.44,156.846 1293.44,175.743 "/>
<polyline clip-path="url(#clip190)" style="stroke:#000000; stroke-linecap:round; stroke-linejoin:round; stroke-width:4; stroke-opacity:1; fill:none" points="1729.92,156.846 1729.92,175.743 "/>
<polyline clip-path="url(#clip190)" style="stroke:#000000; stroke-linecap:round; stroke-linejoin:round; stroke-width:4; stroke-opacity:1; fill:none" points="2166.39,156.846 2166.39,175.743 "/>
<path clip-path="url(#clip190)" d="M336.856 1442.53 L366.532 1442.53 L366.532 1446.46 L336.856 1446.46 L336.856 1442.53 Z" fill="#000000" fill-rule="nonzero" fill-opacity="1" /><path clip-path="url(#clip190)" d="M386.624 1427.87 Q383.013 1427.87 381.185 1431.44 Q379.379 1434.98 379.379 1442.11 Q379.379 1449.22 381.185 1452.78 Q383.013 1456.32 386.624 1456.32 Q390.259 1456.32 392.064 1452.78 Q393.893 1449.22 393.893 1442.11 Q393.893 1434.98 392.064 1431.44 Q390.259 1427.87 386.624 1427.87 M386.624 1424.17 Q392.435 1424.17 395.49 1428.78 Q398.569 1433.36 398.569 1442.11 Q398.569 1450.84 395.49 1455.44 Q392.435 1460.03 386.624 1460.03 Q380.814 1460.03 377.736 1455.44 Q374.68 1450.84 374.68 1442.11 Q374.68 1433.36 377.736 1428.78 Q380.814 1424.17 386.624 1424.17 Z" fill="#000000" fill-rule="nonzero" fill-opacity="1" /><path clip-path="url(#clip190)" d="M406.786 1453.48 L411.671 1453.48 L411.671 1459.36 L406.786 1459.36 L406.786 1453.48 Z" fill="#000000" fill-rule="nonzero" fill-opacity="1" /><path clip-path="url(#clip190)" d="M431.856 1427.87 Q428.245 1427.87 426.416 1431.44 Q424.61 1434.98 424.61 1442.11 Q424.61 1449.22 426.416 1452.78 Q428.245 1456.32 431.856 1456.32 Q435.49 1456.32 437.295 1452.78 Q439.124 1449.22 439.124 1442.11 Q439.124 1434.98 437.295 1431.44 Q435.49 1427.87 431.856 1427.87 M431.856 1424.17 Q437.666 1424.17 440.721 1428.78 Q443.8 1433.36 443.8 1442.11 Q443.8 1450.84 440.721 1455.44 Q437.666 1460.03 431.856 1460.03 Q426.045 1460.03 422.967 1455.44 Q419.911 1450.84 419.911 1442.11 Q419.911 1433.36 422.967 1428.78 Q426.045 1424.17 431.856 1424.17 Z" fill="#000000" fill-rule="nonzero" fill-opacity="1" /><path clip-path="url(#clip190)" d="M452.064 1424.8 L470.42 1424.8 L470.42 1428.73 L456.346 1428.73 L456.346 1437.2 Q457.365 1436.86 458.383 1436.69 Q459.402 1436.51 460.42 1436.51 Q466.207 1436.51 469.587 1439.68 Q472.967 1442.85 472.967 1448.27 Q472.967 1453.85 469.494 1456.95 Q466.022 1460.03 459.703 1460.03 Q457.527 1460.03 455.258 1459.66 Q453.013 1459.29 450.606 1458.55 L450.606 1453.85 Q452.689 1454.98 454.911 1455.54 Q457.133 1456.09 459.61 1456.09 Q463.615 1456.09 465.953 1453.99 Q468.291 1451.88 468.291 1448.27 Q468.291 1444.66 465.953 1442.55 Q463.615 1440.44 459.61 1440.44 Q457.735 1440.44 455.86 1440.86 Q454.008 1441.28 452.064 1442.16 L452.064 1424.8 Z" fill="#000000" fill-rule="nonzero" fill-opacity="1" /><path clip-path="url(#clip190)" d="M492.179 1427.87 Q488.568 1427.87 486.74 1431.44 Q484.934 1434.98 484.934 1442.11 Q484.934 1449.22 486.74 1452.78 Q488.568 1456.32 492.179 1456.32 Q495.814 1456.32 497.619 1452.78 Q499.448 1449.22 499.448 1442.11 Q499.448 1434.98 497.619 1431.44 Q495.814 1427.87 492.179 1427.87 M492.179 1424.17 Q497.99 1424.17 501.045 1428.78 Q504.124 1433.36 504.124 1442.11 Q504.124 1450.84 501.045 1455.44 Q497.99 1460.03 492.179 1460.03 Q486.369 1460.03 483.291 1455.44 Q480.235 1450.84 480.235 1442.11 Q480.235 1433.36 483.291 1428.78 Q486.369 1424.17 492.179 1424.17 Z" fill="#000000" fill-rule="nonzero" fill-opacity="1" /><path clip-path="url(#clip190)" d="M773.829 1442.53 L803.505 1442.53 L803.505 1446.46 L773.829 1446.46 L773.829 1442.53 Z" fill="#000000" fill-rule="nonzero" fill-opacity="1" /><path clip-path="url(#clip190)" d="M823.597 1427.87 Q819.986 1427.87 818.158 1431.44 Q816.352 1434.98 816.352 1442.11 Q816.352 1449.22 818.158 1452.78 Q819.986 1456.32 823.597 1456.32 Q827.232 1456.32 829.037 1452.78 Q830.866 1449.22 830.866 1442.11 Q830.866 1434.98 829.037 1431.44 Q827.232 1427.87 823.597 1427.87 M823.597 1424.17 Q829.408 1424.17 832.463 1428.78 Q835.542 1433.36 835.542 1442.11 Q835.542 1450.84 832.463 1455.44 Q829.408 1460.03 823.597 1460.03 Q817.787 1460.03 814.709 1455.44 Q811.653 1450.84 811.653 1442.11 Q811.653 1433.36 814.709 1428.78 Q817.787 1424.17 823.597 1424.17 Z" fill="#000000" fill-rule="nonzero" fill-opacity="1" /><path clip-path="url(#clip190)" d="M843.759 1453.48 L848.644 1453.48 L848.644 1459.36 L843.759 1459.36 L843.759 1453.48 Z" fill="#000000" fill-rule="nonzero" fill-opacity="1" /><path clip-path="url(#clip190)" d="M868.829 1427.87 Q865.218 1427.87 863.389 1431.44 Q861.583 1434.98 861.583 1442.11 Q861.583 1449.22 863.389 1452.78 Q865.218 1456.32 868.829 1456.32 Q872.463 1456.32 874.268 1452.78 Q876.097 1449.22 876.097 1442.11 Q876.097 1434.98 874.268 1431.44 Q872.463 1427.87 868.829 1427.87 M868.829 1424.17 Q874.639 1424.17 877.694 1428.78 Q880.773 1433.36 880.773 1442.11 Q880.773 1450.84 877.694 1455.44 Q874.639 1460.03 868.829 1460.03 Q863.019 1460.03 859.94 1455.44 Q856.884 1450.84 856.884 1442.11 Q856.884 1433.36 859.94 1428.78 Q863.019 1424.17 868.829 1424.17 Z" fill="#000000" fill-rule="nonzero" fill-opacity="1" /><path clip-path="url(#clip190)" d="M893.018 1455.42 L909.338 1455.42 L909.338 1459.36 L887.393 1459.36 L887.393 1455.42 Q890.055 1452.67 894.639 1448.04 Q899.245 1443.38 900.426 1442.04 Q902.671 1439.52 903.551 1437.78 Q904.453 1436.02 904.453 1434.33 Q904.453 1431.58 902.509 1429.84 Q900.588 1428.11 897.486 1428.11 Q895.287 1428.11 892.833 1428.87 Q890.403 1429.63 887.625 1431.18 L887.625 1426.46 Q890.449 1425.33 892.903 1424.75 Q895.356 1424.17 897.393 1424.17 Q902.764 1424.17 905.958 1426.86 Q909.153 1429.54 909.153 1434.03 Q909.153 1436.16 908.342 1438.08 Q907.555 1439.98 905.449 1442.57 Q904.87 1443.24 901.768 1446.46 Q898.666 1449.66 893.018 1455.42 Z" fill="#000000" fill-rule="nonzero" fill-opacity="1" /><path clip-path="url(#clip190)" d="M919.199 1424.8 L937.555 1424.8 L937.555 1428.73 L923.481 1428.73 L923.481 1437.2 Q924.5 1436.86 925.518 1436.69 Q926.537 1436.51 927.555 1436.51 Q933.342 1436.51 936.722 1439.68 Q940.101 1442.85 940.101 1448.27 Q940.101 1453.85 936.629 1456.95 Q933.157 1460.03 926.838 1460.03 Q924.662 1460.03 922.393 1459.66 Q920.148 1459.29 917.74 1458.55 L917.74 1453.85 Q919.824 1454.98 922.046 1455.54 Q924.268 1456.09 926.745 1456.09 Q930.75 1456.09 933.088 1453.99 Q935.426 1451.88 935.426 1448.27 Q935.426 1444.66 933.088 1442.55 Q930.75 1440.44 926.745 1440.44 Q924.87 1440.44 922.995 1440.86 Q921.143 1441.28 919.199 1442.16 L919.199 1424.8 Z" fill="#000000" fill-rule="nonzero" fill-opacity="1" /><path clip-path="url(#clip190)" d="M1240.66 1427.87 Q1237.05 1427.87 1235.22 1431.44 Q1233.42 1434.98 1233.42 1442.11 Q1233.42 1449.22 1235.22 1452.78 Q1237.05 1456.32 1240.66 1456.32 Q1244.3 1456.32 1246.1 1452.78 Q1247.93 1449.22 1247.93 1442.11 Q1247.93 1434.98 1246.1 1431.44 Q1244.3 1427.87 1240.66 1427.87 M1240.66 1424.17 Q1246.47 1424.17 1249.53 1428.78 Q1252.61 1433.36 1252.61 1442.11 Q1252.61 1450.84 1249.53 1455.44 Q1246.47 1460.03 1240.66 1460.03 Q1234.85 1460.03 1231.77 1455.44 Q1228.72 1450.84 1228.72 1442.11 Q1228.72 1433.36 1231.77 1428.78 Q1234.85 1424.17 1240.66 1424.17 Z" fill="#000000" fill-rule="nonzero" fill-opacity="1" /><path clip-path="url(#clip190)" d="M1260.83 1453.48 L1265.71 1453.48 L1265.71 1459.36 L1260.83 1459.36 L1260.83 1453.48 Z" fill="#000000" fill-rule="nonzero" fill-opacity="1" /><path clip-path="url(#clip190)" d="M1285.89 1427.87 Q1282.28 1427.87 1280.45 1431.44 Q1278.65 1434.98 1278.65 1442.11 Q1278.65 1449.22 1280.45 1452.78 Q1282.28 1456.32 1285.89 1456.32 Q1289.53 1456.32 1291.33 1452.78 Q1293.16 1449.22 1293.16 1442.11 Q1293.16 1434.98 1291.33 1431.44 Q1289.53 1427.87 1285.89 1427.87 M1285.89 1424.17 Q1291.7 1424.17 1294.76 1428.78 Q1297.84 1433.36 1297.84 1442.11 Q1297.84 1450.84 1294.76 1455.44 Q1291.7 1460.03 1285.89 1460.03 Q1280.08 1460.03 1277.01 1455.44 Q1273.95 1450.84 1273.95 1442.11 Q1273.95 1433.36 1277.01 1428.78 Q1280.08 1424.17 1285.89 1424.17 Z" fill="#000000" fill-rule="nonzero" fill-opacity="1" /><path clip-path="url(#clip190)" d="M1316.06 1427.87 Q1312.45 1427.87 1310.62 1431.44 Q1308.81 1434.98 1308.81 1442.11 Q1308.81 1449.22 1310.62 1452.78 Q1312.45 1456.32 1316.06 1456.32 Q1319.69 1456.32 1321.5 1452.78 Q1323.32 1449.22 1323.32 1442.11 Q1323.32 1434.98 1321.5 1431.44 Q1319.69 1427.87 1316.06 1427.87 M1316.06 1424.17 Q1321.87 1424.17 1324.92 1428.78 Q1328 1433.36 1328 1442.11 Q1328 1450.84 1324.92 1455.44 Q1321.87 1460.03 1316.06 1460.03 Q1310.25 1460.03 1307.17 1455.44 Q1304.11 1450.84 1304.11 1442.11 Q1304.11 1433.36 1307.17 1428.78 Q1310.25 1424.17 1316.06 1424.17 Z" fill="#000000" fill-rule="nonzero" fill-opacity="1" /><path clip-path="url(#clip190)" d="M1346.22 1427.87 Q1342.61 1427.87 1340.78 1431.44 Q1338.97 1434.98 1338.97 1442.11 Q1338.97 1449.22 1340.78 1452.78 Q1342.61 1456.32 1346.22 1456.32 Q1349.85 1456.32 1351.66 1452.78 Q1353.49 1449.22 1353.49 1442.11 Q1353.49 1434.98 1351.66 1431.44 Q1349.85 1427.87 1346.22 1427.87 M1346.22 1424.17 Q1352.03 1424.17 1355.08 1428.78 Q1358.16 1433.36 1358.16 1442.11 Q1358.16 1450.84 1355.08 1455.44 Q1352.03 1460.03 1346.22 1460.03 Q1340.41 1460.03 1337.33 1455.44 Q1334.27 1450.84 1334.27 1442.11 Q1334.27 1433.36 1337.33 1428.78 Q1340.41 1424.17 1346.22 1424.17 Z" fill="#000000" fill-rule="nonzero" fill-opacity="1" /><path clip-path="url(#clip190)" d="M1677.64 1427.87 Q1674.03 1427.87 1672.2 1431.44 Q1670.39 1434.98 1670.39 1442.11 Q1670.39 1449.22 1672.2 1452.78 Q1674.03 1456.32 1677.64 1456.32 Q1681.27 1456.32 1683.08 1452.78 Q1684.9 1449.22 1684.9 1442.11 Q1684.9 1434.98 1683.08 1431.44 Q1681.27 1427.87 1677.64 1427.87 M1677.64 1424.17 Q1683.45 1424.17 1686.5 1428.78 Q1689.58 1433.36 1689.58 1442.11 Q1689.58 1450.84 1686.5 1455.44 Q1683.45 1460.03 1677.64 1460.03 Q1671.83 1460.03 1668.75 1455.44 Q1665.69 1450.84 1665.69 1442.11 Q1665.69 1433.36 1668.75 1428.78 Q1671.83 1424.17 1677.64 1424.17 Z" fill="#000000" fill-rule="nonzero" fill-opacity="1" /><path clip-path="url(#clip190)" d="M1697.8 1453.48 L1702.68 1453.48 L1702.68 1459.36 L1697.8 1459.36 L1697.8 1453.48 Z" fill="#000000" fill-rule="nonzero" fill-opacity="1" /><path clip-path="url(#clip190)" d="M1722.87 1427.87 Q1719.26 1427.87 1717.43 1431.44 Q1715.62 1434.98 1715.62 1442.11 Q1715.62 1449.22 1717.43 1452.78 Q1719.26 1456.32 1722.87 1456.32 Q1726.5 1456.32 1728.31 1452.78 Q1730.14 1449.22 1730.14 1442.11 Q1730.14 1434.98 1728.31 1431.44 Q1726.5 1427.87 1722.87 1427.87 M1722.87 1424.17 Q1728.68 1424.17 1731.73 1428.78 Q1734.81 1433.36 1734.81 1442.11 Q1734.81 1450.84 1731.73 1455.44 Q1728.68 1460.03 1722.87 1460.03 Q1717.06 1460.03 1713.98 1455.44 Q1710.92 1450.84 1710.92 1442.11 Q1710.92 1433.36 1713.98 1428.78 Q1717.06 1424.17 1722.87 1424.17 Z" fill="#000000" fill-rule="nonzero" fill-opacity="1" /><path clip-path="url(#clip190)" d="M1747.06 1455.42 L1763.38 1455.42 L1763.38 1459.36 L1741.43 1459.36 L1741.43 1455.42 Q1744.09 1452.67 1748.68 1448.04 Q1753.28 1443.38 1754.46 1442.04 Q1756.71 1439.52 1757.59 1437.78 Q1758.49 1436.02 1758.49 1434.33 Q1758.49 1431.58 1756.55 1429.84 Q1754.63 1428.11 1751.52 1428.11 Q1749.33 1428.11 1746.87 1428.87 Q1744.44 1429.63 1741.66 1431.18 L1741.66 1426.46 Q1744.49 1425.33 1746.94 1424.75 Q1749.4 1424.17 1751.43 1424.17 Q1756.8 1424.17 1760 1426.86 Q1763.19 1429.54 1763.19 1434.03 Q1763.19 1436.16 1762.38 1438.08 Q1761.59 1439.98 1759.49 1442.57 Q1758.91 1443.24 1755.81 1446.46 Q1752.71 1449.66 1747.06 1455.42 Z" fill="#000000" fill-rule="nonzero" fill-opacity="1" /><path clip-path="url(#clip190)" d="M1773.24 1424.8 L1791.59 1424.8 L1791.59 1428.73 L1777.52 1428.73 L1777.52 1437.2 Q1778.54 1436.86 1779.56 1436.69 Q1780.58 1436.51 1781.59 1436.51 Q1787.38 1436.51 1790.76 1439.68 Q1794.14 1442.85 1794.14 1448.27 Q1794.14 1453.85 1790.67 1456.95 Q1787.2 1460.03 1780.88 1460.03 Q1778.7 1460.03 1776.43 1459.66 Q1774.19 1459.29 1771.78 1458.55 L1771.78 1453.85 Q1773.86 1454.98 1776.08 1455.54 Q1778.31 1456.09 1780.78 1456.09 Q1784.79 1456.09 1787.13 1453.99 Q1789.46 1451.88 1789.46 1448.27 Q1789.46 1444.66 1787.13 1442.55 Q1784.79 1440.44 1780.78 1440.44 Q1778.91 1440.44 1777.03 1440.86 Q1775.18 1441.28 1773.24 1442.16 L1773.24 1424.8 Z" fill="#000000" fill-rule="nonzero" fill-opacity="1" /><path clip-path="url(#clip190)" d="M2113.61 1427.87 Q2110 1427.87 2108.17 1431.44 Q2106.37 1434.98 2106.37 1442.11 Q2106.37 1449.22 2108.17 1452.78 Q2110 1456.32 2113.61 1456.32 Q2117.25 1456.32 2119.05 1452.78 Q2120.88 1449.22 2120.88 1442.11 Q2120.88 1434.98 2119.05 1431.44 Q2117.25 1427.87 2113.61 1427.87 M2113.61 1424.17 Q2119.42 1424.17 2122.48 1428.78 Q2125.56 1433.36 2125.56 1442.11 Q2125.56 1450.84 2122.48 1455.44 Q2119.42 1460.03 2113.61 1460.03 Q2107.8 1460.03 2104.73 1455.44 Q2101.67 1450.84 2101.67 1442.11 Q2101.67 1433.36 2104.73 1428.78 Q2107.8 1424.17 2113.61 1424.17 Z" fill="#000000" fill-rule="nonzero" fill-opacity="1" /><path clip-path="url(#clip190)" d="M2133.78 1453.48 L2138.66 1453.48 L2138.66 1459.36 L2133.78 1459.36 L2133.78 1453.48 Z" fill="#000000" fill-rule="nonzero" fill-opacity="1" /><path clip-path="url(#clip190)" d="M2158.85 1427.87 Q2155.23 1427.87 2153.41 1431.44 Q2151.6 1434.98 2151.6 1442.11 Q2151.6 1449.22 2153.41 1452.78 Q2155.23 1456.32 2158.85 1456.32 Q2162.48 1456.32 2164.28 1452.78 Q2166.11 1449.22 2166.11 1442.11 Q2166.11 1434.98 2164.28 1431.44 Q2162.48 1427.87 2158.85 1427.87 M2158.85 1424.17 Q2164.66 1424.17 2167.71 1428.78 Q2170.79 1433.36 2170.79 1442.11 Q2170.79 1450.84 2167.71 1455.44 Q2164.66 1460.03 2158.85 1460.03 Q2153.03 1460.03 2149.96 1455.44 Q2146.9 1450.84 2146.9 1442.11 Q2146.9 1433.36 2149.96 1428.78 Q2153.03 1424.17 2158.85 1424.17 Z" fill="#000000" fill-rule="nonzero" fill-opacity="1" /><path clip-path="url(#clip190)" d="M2179.05 1424.8 L2197.41 1424.8 L2197.41 1428.73 L2183.34 1428.73 L2183.34 1437.2 Q2184.35 1436.86 2185.37 1436.69 Q2186.39 1436.51 2187.41 1436.51 Q2193.2 1436.51 2196.58 1439.68 Q2199.96 1442.85 2199.96 1448.27 Q2199.96 1453.85 2196.48 1456.95 Q2193.01 1460.03 2186.69 1460.03 Q2184.52 1460.03 2182.25 1459.66 Q2180 1459.29 2177.6 1458.55 L2177.6 1453.85 Q2179.68 1454.98 2181.9 1455.54 Q2184.12 1456.09 2186.6 1456.09 Q2190.6 1456.09 2192.94 1453.99 Q2195.28 1451.88 2195.28 1448.27 Q2195.28 1444.66 2192.94 1442.55 Q2190.6 1440.44 2186.6 1440.44 Q2184.72 1440.44 2182.85 1440.86 Q2181 1441.28 2179.05 1442.16 L2179.05 1424.8 Z" fill="#000000" fill-rule="nonzero" fill-opacity="1" /><path clip-path="url(#clip190)" d="M2219.17 1427.87 Q2215.56 1427.87 2213.73 1431.44 Q2211.92 1434.98 2211.92 1442.11 Q2211.92 1449.22 2213.73 1452.78 Q2215.56 1456.32 2219.17 1456.32 Q2222.8 1456.32 2224.61 1452.78 Q2226.44 1449.22 2226.44 1442.11 Q2226.44 1434.98 2224.61 1431.44 Q2222.8 1427.87 2219.17 1427.87 M2219.17 1424.17 Q2224.98 1424.17 2228.03 1428.78 Q2231.11 1433.36 2231.11 1442.11 Q2231.11 1450.84 2228.03 1455.44 Q2224.98 1460.03 2219.17 1460.03 Q2213.36 1460.03 2210.28 1455.44 Q2207.22 1450.84 2207.22 1442.11 Q2207.22 1433.36 2210.28 1428.78 Q2213.36 1424.17 2219.17 1424.17 Z" fill="#000000" fill-rule="nonzero" fill-opacity="1" /><path clip-path="url(#clip190)" d="M1273.72 1554.62 Q1273.72 1555.23 1273.46 1555.55 Q1273.23 1555.84 1273.01 1555.91 Q1272.82 1555.94 1272.53 1555.94 Q1271.69 1555.94 1268.79 1555.84 Q1265.89 1555.75 1265.05 1555.75 Q1263.7 1555.75 1260.93 1555.84 Q1258.16 1555.94 1256.81 1555.94 Q1255.91 1555.94 1255.91 1555.2 Q1255.91 1554.72 1256 1554.46 Q1256.1 1554.17 1256.36 1554.07 Q1256.65 1553.94 1256.81 1553.94 Q1257 1553.91 1257.49 1553.91 Q1258.13 1553.91 1258.81 1553.85 Q1259.48 1553.75 1260.32 1553.56 Q1261.16 1553.36 1261.67 1552.88 Q1262.22 1552.4 1262.22 1551.72 Q1262.22 1551.43 1261.99 1549.05 Q1261.77 1546.66 1261.48 1543.89 Q1261.19 1541.09 1261.16 1540.71 L1244.6 1540.71 Q1243.09 1543.31 1242.03 1545.12 Q1240.96 1546.92 1240.58 1547.53 Q1240.19 1548.15 1239.97 1548.53 Q1239.74 1548.92 1239.61 1549.14 Q1238.68 1550.85 1238.68 1551.59 Q1238.68 1553.65 1241.77 1553.91 Q1242.83 1553.91 1242.83 1554.68 Q1242.83 1555.26 1242.57 1555.58 Q1242.32 1555.87 1242.09 1555.91 Q1241.9 1555.94 1241.58 1555.94 Q1240.51 1555.94 1238.29 1555.84 Q1236.07 1555.75 1234.97 1555.75 Q1234.04 1555.75 1232.11 1555.84 Q1230.17 1555.94 1229.31 1555.94 Q1228.92 1555.94 1228.69 1555.71 Q1228.47 1555.49 1228.47 1555.2 Q1228.47 1554.75 1228.53 1554.49 Q1228.63 1554.23 1228.89 1554.1 Q1229.14 1553.97 1229.27 1553.97 Q1229.4 1553.94 1229.85 1553.91 Q1232.3 1553.75 1234.2 1552.59 Q1236.13 1551.4 1237.97 1548.34 L1260.9 1509.82 Q1261.12 1509.43 1261.29 1509.24 Q1261.45 1509.05 1261.77 1508.89 Q1262.12 1508.73 1262.64 1508.73 Q1263.44 1508.73 1263.6 1508.98 Q1263.77 1509.21 1263.86 1510.3 L1267.89 1551.53 Q1267.98 1552.4 1268.05 1552.75 Q1268.15 1553.07 1268.56 1553.43 Q1269.02 1553.75 1269.82 1553.85 Q1270.66 1553.91 1272.2 1553.91 Q1272.78 1553.91 1273.01 1553.94 Q1273.23 1553.94 1273.46 1554.1 Q1273.72 1554.26 1273.72 1554.62 M1260.96 1538.64 L1258.87 1516.91 L1245.86 1538.64 L1260.96 1538.64 Z" fill="#000000" fill-rule="nonzero" fill-opacity="1" /><path clip-path="url(#clip190)" d="M1280.32 1496.49 Q1280.32 1488.69 1283.23 1482.4 Q1284.47 1479.76 1286.2 1477.55 Q1287.94 1475.34 1289.09 1474.38 Q1290.24 1473.41 1290.56 1473.41 Q1291.01 1473.41 1291.03 1473.86 Q1291.03 1474.08 1290.42 1474.65 Q1282.98 1482.22 1283 1496.49 Q1283 1510.81 1290.24 1518.09 Q1291.03 1518.88 1291.03 1519.13 Q1291.03 1519.58 1290.56 1519.58 Q1290.24 1519.58 1289.14 1518.65 Q1288.03 1517.73 1286.32 1515.61 Q1284.6 1513.49 1283.36 1510.9 Q1280.32 1504.61 1280.32 1496.49 Z" fill="#000000" fill-rule="nonzero" fill-opacity="1" /><path clip-path="url(#clip190)" d="M1295.46 1508.03 Q1295.46 1507.2 1295.53 1506.95 Q1295.62 1506.7 1295.98 1506.32 L1304.84 1496.45 Q1309.69 1490.99 1309.69 1486.23 Q1309.69 1483.15 1308.06 1480.94 Q1306.46 1478.73 1303.51 1478.73 Q1301.48 1478.73 1299.77 1479.97 Q1298.05 1481.21 1297.27 1483.42 Q1297.4 1483.37 1297.87 1483.37 Q1299.02 1483.37 1299.66 1484.09 Q1300.31 1484.81 1300.31 1485.78 Q1300.31 1487.02 1299.5 1487.63 Q1298.71 1488.22 1297.92 1488.22 Q1297.6 1488.22 1297.18 1488.15 Q1296.77 1488.08 1296.12 1487.45 Q1295.46 1486.8 1295.46 1485.65 Q1295.46 1482.42 1297.9 1479.85 Q1300.35 1477.28 1304.1 1477.28 Q1308.34 1477.28 1311.11 1479.81 Q1313.9 1482.31 1313.9 1486.23 Q1313.9 1487.61 1313.48 1488.87 Q1313.07 1490.11 1312.51 1491.08 Q1311.96 1492.05 1310.48 1493.61 Q1308.99 1495.16 1307.79 1496.27 Q1306.6 1497.37 1303.92 1499.72 L1299.02 1504.47 L1307.34 1504.47 Q1311.4 1504.47 1311.72 1504.11 Q1312.17 1503.46 1312.73 1500.01 L1313.9 1500.01 L1312.6 1508.03 L1295.46 1508.03 Z" fill="#000000" fill-rule="nonzero" fill-opacity="1" /><path clip-path="url(#clip190)" d="M1319.44 1519.13 Q1319.44 1518.9 1320.02 1518.34 Q1327.46 1510.76 1327.46 1496.49 Q1327.46 1482.18 1320.32 1474.94 Q1319.44 1474.1 1319.44 1473.86 Q1319.44 1473.41 1319.89 1473.41 Q1320.2 1473.41 1321.31 1474.33 Q1322.43 1475.25 1324.13 1477.37 Q1325.84 1479.49 1327.1 1482.09 Q1330.14 1488.38 1330.14 1496.49 Q1330.14 1504.29 1327.24 1510.58 Q1326 1513.22 1324.26 1515.43 Q1322.52 1517.64 1321.37 1518.61 Q1320.23 1519.58 1319.89 1519.58 Q1319.44 1519.58 1319.44 1519.13 Z" fill="#000000" fill-rule="nonzero" fill-opacity="1" /><path clip-path="url(#clip190)" d="M1292.11 1546.12 Q1292.11 1547.11 1291.3 1547.86 Q1290.51 1548.58 1289.65 1548.58 Q1288.86 1548.58 1288.37 1548.1 Q1287.9 1547.61 1287.9 1546.91 Q1287.9 1545.99 1288.68 1545.22 Q1289.47 1544.45 1290.4 1544.45 Q1291.16 1544.45 1291.64 1544.93 Q1292.11 1545.4 1292.11 1546.12 M1292.52 1568.37 Q1292.52 1568.55 1292.31 1569.27 Q1292.11 1569.97 1291.61 1571.05 Q1291.14 1572.11 1290.49 1573.11 Q1289.83 1574.1 1288.75 1574.8 Q1287.69 1575.5 1286.47 1575.5 Q1284.83 1575.5 1283.75 1574.41 Q1282.69 1573.33 1282.69 1571.71 Q1282.69 1570.83 1283.75 1568.01 Q1286.81 1559.8 1286.93 1559.47 Q1287.44 1558.18 1287.44 1557.05 Q1287.44 1556.54 1287.33 1556.22 Q1287.22 1555.88 1286.99 1555.77 Q1286.77 1555.63 1286.63 1555.61 Q1286.52 1555.59 1286.29 1555.59 Q1284.96 1555.59 1283.72 1556.94 Q1282.48 1558.29 1281.63 1561.32 Q1281.45 1561.88 1281.33 1562.01 Q1281.22 1562.15 1280.88 1562.15 Q1280.32 1562.13 1280.32 1561.68 Q1280.32 1561.54 1280.48 1561.02 Q1280.64 1560.48 1280.93 1559.67 Q1281.22 1558.84 1281.74 1557.98 Q1282.26 1557.1 1282.89 1556.33 Q1283.54 1555.57 1284.47 1555.07 Q1285.39 1554.57 1286.43 1554.57 Q1288.12 1554.57 1289.16 1555.68 Q1290.22 1556.76 1290.22 1558.36 Q1290.22 1559.24 1289.61 1560.8 Q1288.86 1562.83 1288.59 1563.48 L1286.79 1568.33 Q1286.14 1570.08 1285.93 1570.63 Q1285.75 1571.14 1285.6 1571.78 Q1285.46 1572.38 1285.46 1572.95 Q1285.46 1573.74 1285.71 1574.1 Q1285.98 1574.46 1286.57 1574.46 Q1288.19 1574.46 1289.38 1572.86 Q1290.58 1571.23 1291.28 1568.75 Q1291.3 1568.69 1291.32 1568.57 Q1291.5 1568.01 1291.68 1567.94 Q1291.77 1567.92 1291.95 1567.92 Q1292.52 1567.92 1292.52 1568.37 Z" fill="#000000" fill-rule="nonzero" fill-opacity="1" /><path clip-path="url(#clip190)" d="M1307.94 1546.12 Q1307.94 1547.04 1307.15 1547.81 Q1306.37 1548.58 1305.44 1548.58 Q1304.67 1548.58 1304.2 1548.1 Q1303.75 1547.63 1303.75 1546.91 Q1303.75 1545.92 1304.54 1545.2 Q1305.33 1544.45 1306.18 1544.45 Q1306.97 1544.45 1307.45 1544.95 Q1307.94 1545.42 1307.94 1546.12 M1306.23 1558.81 Q1306.23 1559.6 1306 1560.53 L1301.77 1577.43 Q1301.36 1579.08 1300.39 1580.43 Q1299.42 1581.81 1298.18 1582.66 Q1296.96 1583.52 1295.63 1583.97 Q1294.33 1584.45 1293.09 1584.45 Q1291.35 1584.45 1290.18 1583.68 Q1289.01 1582.91 1289.01 1581.58 Q1289.01 1580.41 1289.77 1579.67 Q1290.56 1578.94 1291.51 1578.94 Q1292.37 1578.94 1292.82 1579.44 Q1293.27 1579.94 1293.27 1580.57 Q1293.27 1581.33 1292.7 1582.06 Q1292.16 1582.78 1291.19 1583 Q1292.07 1583.43 1293 1583.43 Q1294.89 1583.43 1296.42 1581.7 Q1297.98 1579.98 1298.66 1577.28 L1303.01 1560.05 Q1303.32 1558.68 1303.32 1557.71 Q1303.32 1556.81 1303.07 1556.31 Q1302.83 1555.81 1302.53 1555.7 Q1302.26 1555.59 1301.86 1555.59 Q1300.08 1555.59 1298.54 1557.23 Q1297.01 1558.86 1296.04 1561.23 Q1295.77 1561.88 1295.63 1562.01 Q1295.52 1562.15 1295.21 1562.15 Q1294.64 1562.13 1294.64 1561.68 Q1294.64 1561.54 1294.87 1561 Q1295.09 1560.46 1295.5 1559.67 Q1295.9 1558.86 1296.56 1557.98 Q1297.21 1557.1 1297.98 1556.33 Q1298.77 1555.57 1299.83 1555.07 Q1300.89 1554.57 1301.99 1554.57 Q1303.77 1554.57 1304.99 1555.75 Q1306.23 1556.9 1306.23 1558.81 Z" fill="#000000" fill-rule="nonzero" fill-opacity="1" /><path clip-path="url(#clip190)" d="M1333.72 1557.48 Q1333.72 1558.77 1332.93 1559.53 Q1332.16 1560.3 1331.19 1560.3 Q1330.34 1560.3 1329.88 1559.8 Q1329.43 1559.31 1329.43 1558.68 Q1329.43 1558.41 1329.55 1558.07 Q1329.66 1557.71 1329.91 1557.28 Q1330.18 1556.85 1330.74 1556.54 Q1331.31 1556.22 1332.07 1556.18 Q1331.91 1556.02 1331.87 1555.99 Q1331.53 1555.72 1330.9 1555.63 Q1330.81 1555.59 1330.49 1555.59 Q1328.94 1555.59 1327.36 1556.74 Q1325.8 1557.87 1323.89 1560.01 Q1321.48 1562.51 1319.92 1563.43 Q1326.75 1564.34 1326.75 1568.28 Q1326.75 1568.94 1326.57 1569.72 Q1326.21 1571.21 1326.21 1572.29 Q1326.21 1574.46 1327.68 1574.46 Q1329.1 1574.46 1330 1573.02 Q1330.92 1571.57 1331.69 1568.75 Q1331.8 1568.24 1331.91 1568.08 Q1332.03 1567.92 1332.34 1567.92 Q1332.91 1567.92 1332.91 1568.37 Q1332.39 1571.01 1331.24 1573.04 Q1329.77 1575.5 1327.59 1575.5 Q1325.76 1575.5 1324.54 1574.23 Q1323.35 1572.95 1323.35 1570.92 Q1323.35 1570.42 1323.53 1569.3 Q1323.66 1568.84 1323.66 1568.33 Q1323.66 1567.27 1323.08 1566.48 Q1322.49 1565.67 1321.54 1565.26 Q1320.6 1564.85 1319.81 1564.67 Q1319.04 1564.47 1318.3 1564.4 Q1316.04 1573.94 1315.73 1574.53 Q1315.52 1574.93 1315.07 1575.2 Q1314.62 1575.5 1314.15 1575.5 Q1313.7 1575.5 1313.25 1575.18 Q1312.82 1574.89 1312.82 1574.19 Q1312.82 1573.83 1313 1573.17 L1319.7 1546.57 L1319.83 1545.67 Q1319.83 1545.4 1319.72 1545.26 Q1319.63 1545.11 1319.09 1544.99 Q1318.57 1544.88 1317.53 1544.88 Q1317.1 1544.88 1316.9 1544.86 Q1316.72 1544.84 1316.56 1544.72 Q1316.4 1544.59 1316.4 1544.32 Q1316.4 1543.93 1316.56 1543.73 Q1316.74 1543.51 1316.88 1543.46 Q1317.01 1543.42 1317.28 1543.39 Q1317.67 1543.37 1318.95 1543.26 Q1320.24 1543.12 1321.34 1543.03 Q1322.45 1542.94 1322.92 1542.94 Q1323.19 1542.94 1323.32 1543.08 Q1323.48 1543.19 1323.5 1543.33 L1323.53 1543.44 L1318.73 1562.92 Q1320.71 1562.13 1323.84 1558.63 Q1327.47 1554.57 1330.58 1554.57 Q1332.05 1554.57 1332.88 1555.48 Q1333.72 1556.36 1333.72 1557.48 Z" fill="#000000" fill-rule="nonzero" fill-opacity="1" /><path clip-path="url(#clip190)" d="M1347.63 1543.44 L1340.98 1570.13 Q1340.71 1571.19 1340.71 1572.34 Q1340.71 1574.46 1342.1 1574.46 Q1342.76 1574.46 1343.3 1574.03 Q1343.84 1573.58 1344.25 1572.7 Q1344.67 1571.8 1344.94 1570.94 Q1345.24 1570.08 1345.6 1568.75 Q1345.71 1568.24 1345.82 1568.08 Q1345.94 1567.92 1346.25 1567.92 Q1346.82 1567.92 1346.82 1568.37 Q1346.25 1571.14 1345.42 1572.9 Q1344.2 1575.5 1341.95 1575.5 Q1340.26 1575.5 1338.99 1574.32 Q1337.75 1573.13 1337.75 1571.23 Q1337.75 1570.51 1337.98 1569.66 L1343.79 1546.57 L1343.95 1545.67 Q1343.95 1545.42 1343.86 1545.29 Q1343.77 1545.15 1343.23 1545.02 Q1342.71 1544.88 1341.68 1544.88 Q1341.25 1544.88 1341.04 1544.86 Q1340.86 1544.84 1340.68 1544.72 Q1340.53 1544.61 1340.53 1544.36 Q1340.53 1543.96 1340.68 1543.73 Q1340.86 1543.51 1341 1543.46 Q1341.13 1543.42 1341.41 1543.39 Q1341.79 1543.37 1343.07 1543.26 Q1344.36 1543.12 1345.46 1543.03 Q1346.57 1542.94 1347.04 1542.94 Q1347.31 1542.94 1347.45 1543.08 Q1347.6 1543.19 1347.63 1543.33 L1347.63 1543.44 Z" fill="#000000" fill-rule="nonzero" fill-opacity="1" /><polyline clip-path="url(#clip190)" style="stroke:#000000; stroke-linecap:round; stroke-linejoin:round; stroke-width:4; stroke-opacity:1; fill:none" points="234.125,1396.96 234.125,156.846 "/>
<polyline clip-path="url(#clip190)" style="stroke:#000000; stroke-linecap:round; stroke-linejoin:round; stroke-width:4; stroke-opacity:1; fill:none" points="2352.76,1396.96 2352.76,156.846 "/>
<polyline clip-path="url(#clip190)" style="stroke:#000000; stroke-linecap:round; stroke-linejoin:round; stroke-width:4; stroke-opacity:1; fill:none" points="234.125,1396.96 253.023,1396.96 "/>
<polyline clip-path="url(#clip190)" style="stroke:#000000; stroke-linecap:round; stroke-linejoin:round; stroke-width:4; stroke-opacity:1; fill:none" points="234.125,1134.22 253.023,1134.22 "/>
<polyline clip-path="url(#clip190)" style="stroke:#000000; stroke-linecap:round; stroke-linejoin:round; stroke-width:4; stroke-opacity:1; fill:none" points="234.125,871.485 253.023,871.485 "/>
<polyline clip-path="url(#clip190)" style="stroke:#000000; stroke-linecap:round; stroke-linejoin:round; stroke-width:4; stroke-opacity:1; fill:none" points="234.125,608.75 253.023,608.75 "/>
<polyline clip-path="url(#clip190)" style="stroke:#000000; stroke-linecap:round; stroke-linejoin:round; stroke-width:4; stroke-opacity:1; fill:none" points="234.125,346.015 253.023,346.015 "/>
<polyline clip-path="url(#clip190)" style="stroke:#000000; stroke-linecap:round; stroke-linejoin:round; stroke-width:4; stroke-opacity:1; fill:none" points="2352.76,1396.96 2333.86,1396.96 "/>
<polyline clip-path="url(#clip190)" style="stroke:#000000; stroke-linecap:round; stroke-linejoin:round; stroke-width:4; stroke-opacity:1; fill:none" points="2352.76,1134.22 2333.86,1134.22 "/>
<polyline clip-path="url(#clip190)" style="stroke:#000000; stroke-linecap:round; stroke-linejoin:round; stroke-width:4; stroke-opacity:1; fill:none" points="2352.76,871.485 2333.86,871.485 "/>
<polyline clip-path="url(#clip190)" style="stroke:#000000; stroke-linecap:round; stroke-linejoin:round; stroke-width:4; stroke-opacity:1; fill:none" points="2352.76,608.75 2333.86,608.75 "/>
<polyline clip-path="url(#clip190)" style="stroke:#000000; stroke-linecap:round; stroke-linejoin:round; stroke-width:4; stroke-opacity:1; fill:none" points="2352.76,346.015 2333.86,346.015 "/>
<path clip-path="url(#clip190)" d="M186.181 1382.75 Q182.57 1382.75 180.741 1386.32 Q178.936 1389.86 178.936 1396.99 Q178.936 1404.1 180.741 1407.66 Q182.57 1411.2 186.181 1411.2 Q189.815 1411.2 191.621 1407.66 Q193.45 1404.1 193.45 1396.99 Q193.45 1389.86 191.621 1386.32 Q189.815 1382.75 186.181 1382.75 M186.181 1379.05 Q191.991 1379.05 195.047 1383.66 Q198.125 1388.24 198.125 1396.99 Q198.125 1405.72 195.047 1410.32 Q191.991 1414.91 186.181 1414.91 Q180.371 1414.91 177.292 1410.32 Q174.237 1405.72 174.237 1396.99 Q174.237 1388.24 177.292 1383.66 Q180.371 1379.05 186.181 1379.05 Z" fill="#000000" fill-rule="nonzero" fill-opacity="1" /><path clip-path="url(#clip190)" d="M146.066 1116.94 L164.422 1116.94 L164.422 1120.88 L150.348 1120.88 L150.348 1129.35 Q151.366 1129 152.385 1128.84 Q153.403 1128.65 154.422 1128.65 Q160.209 1128.65 163.589 1131.82 Q166.968 1135 166.968 1140.41 Q166.968 1145.99 163.496 1149.09 Q160.024 1152.17 153.704 1152.17 Q151.528 1152.17 149.26 1151.8 Q147.015 1151.43 144.607 1150.69 L144.607 1145.99 Q146.691 1147.13 148.913 1147.68 Q151.135 1148.24 153.612 1148.24 Q157.616 1148.24 159.954 1146.13 Q162.292 1144.02 162.292 1140.41 Q162.292 1136.8 159.954 1134.69 Q157.616 1132.59 153.612 1132.59 Q151.737 1132.59 149.862 1133.01 Q148.01 1133.42 146.066 1134.3 L146.066 1116.94 Z" fill="#000000" fill-rule="nonzero" fill-opacity="1" /><path clip-path="url(#clip190)" d="M186.181 1120.02 Q182.57 1120.02 180.741 1123.58 Q178.936 1127.13 178.936 1134.26 Q178.936 1141.36 180.741 1144.93 Q182.57 1148.47 186.181 1148.47 Q189.815 1148.47 191.621 1144.93 Q193.45 1141.36 193.45 1134.26 Q193.45 1127.13 191.621 1123.58 Q189.815 1120.02 186.181 1120.02 M186.181 1116.32 Q191.991 1116.32 195.047 1120.92 Q198.125 1125.51 198.125 1134.26 Q198.125 1142.98 195.047 1147.59 Q191.991 1152.17 186.181 1152.17 Q180.371 1152.17 177.292 1147.59 Q174.237 1142.98 174.237 1134.26 Q174.237 1125.51 177.292 1120.92 Q180.371 1116.32 186.181 1116.32 Z" fill="#000000" fill-rule="nonzero" fill-opacity="1" /><path clip-path="url(#clip190)" d="M116.668 884.83 L124.306 884.83 L124.306 858.464 L115.996 860.131 L115.996 855.872 L124.26 854.205 L128.936 854.205 L128.936 884.83 L136.575 884.83 L136.575 888.765 L116.668 888.765 L116.668 884.83 Z" fill="#000000" fill-rule="nonzero" fill-opacity="1" /><path clip-path="url(#clip190)" d="M156.019 857.284 Q152.408 857.284 150.579 860.849 Q148.774 864.39 148.774 871.52 Q148.774 878.626 150.579 882.191 Q152.408 885.733 156.019 885.733 Q159.653 885.733 161.459 882.191 Q163.288 878.626 163.288 871.52 Q163.288 864.39 161.459 860.849 Q159.653 857.284 156.019 857.284 M156.019 853.58 Q161.829 853.58 164.885 858.187 Q167.964 862.77 167.964 871.52 Q167.964 880.247 164.885 884.853 Q161.829 889.436 156.019 889.436 Q150.209 889.436 147.13 884.853 Q144.075 880.247 144.075 871.52 Q144.075 862.77 147.13 858.187 Q150.209 853.58 156.019 853.58 Z" fill="#000000" fill-rule="nonzero" fill-opacity="1" /><path clip-path="url(#clip190)" d="M186.181 857.284 Q182.57 857.284 180.741 860.849 Q178.936 864.39 178.936 871.52 Q178.936 878.626 180.741 882.191 Q182.57 885.733 186.181 885.733 Q189.815 885.733 191.621 882.191 Q193.45 878.626 193.45 871.52 Q193.45 864.39 191.621 860.849 Q189.815 857.284 186.181 857.284 M186.181 853.58 Q191.991 853.58 195.047 858.187 Q198.125 862.77 198.125 871.52 Q198.125 880.247 195.047 884.853 Q191.991 889.436 186.181 889.436 Q180.371 889.436 177.292 884.853 Q174.237 880.247 174.237 871.52 Q174.237 862.77 177.292 858.187 Q180.371 853.58 186.181 853.58 Z" fill="#000000" fill-rule="nonzero" fill-opacity="1" /><path clip-path="url(#clip190)" d="M116.668 622.095 L124.306 622.095 L124.306 595.729 L115.996 597.396 L115.996 593.137 L124.26 591.47 L128.936 591.47 L128.936 622.095 L136.575 622.095 L136.575 626.03 L116.668 626.03 L116.668 622.095 Z" fill="#000000" fill-rule="nonzero" fill-opacity="1" /><path clip-path="url(#clip190)" d="M146.066 591.47 L164.422 591.47 L164.422 595.405 L150.348 595.405 L150.348 603.877 Q151.366 603.53 152.385 603.368 Q153.403 603.183 154.422 603.183 Q160.209 603.183 163.589 606.354 Q166.968 609.525 166.968 614.942 Q166.968 620.521 163.496 623.623 Q160.024 626.701 153.704 626.701 Q151.528 626.701 149.26 626.331 Q147.015 625.961 144.607 625.22 L144.607 620.521 Q146.691 621.655 148.913 622.211 Q151.135 622.766 153.612 622.766 Q157.616 622.766 159.954 620.66 Q162.292 618.553 162.292 614.942 Q162.292 611.331 159.954 609.225 Q157.616 607.118 153.612 607.118 Q151.737 607.118 149.862 607.535 Q148.01 607.951 146.066 608.831 L146.066 591.47 Z" fill="#000000" fill-rule="nonzero" fill-opacity="1" /><path clip-path="url(#clip190)" d="M186.181 594.549 Q182.57 594.549 180.741 598.114 Q178.936 601.655 178.936 608.785 Q178.936 615.891 180.741 619.456 Q182.57 622.998 186.181 622.998 Q189.815 622.998 191.621 619.456 Q193.45 615.891 193.45 608.785 Q193.45 601.655 191.621 598.114 Q189.815 594.549 186.181 594.549 M186.181 590.845 Q191.991 590.845 195.047 595.451 Q198.125 600.035 198.125 608.785 Q198.125 617.512 195.047 622.118 Q191.991 626.701 186.181 626.701 Q180.371 626.701 177.292 622.118 Q174.237 617.512 174.237 608.785 Q174.237 600.035 177.292 595.451 Q180.371 590.845 186.181 590.845 Z" fill="#000000" fill-rule="nonzero" fill-opacity="1" /><path clip-path="url(#clip190)" d="M119.885 359.36 L136.204 359.36 L136.204 363.295 L114.26 363.295 L114.26 359.36 Q116.922 356.605 121.505 351.975 Q126.112 347.323 127.292 345.98 Q129.538 343.457 130.417 341.721 Q131.32 339.962 131.32 338.272 Q131.32 335.517 129.376 333.781 Q127.455 332.045 124.353 332.045 Q122.154 332.045 119.7 332.809 Q117.269 333.573 114.492 335.124 L114.492 330.402 Q117.316 329.267 119.769 328.689 Q122.223 328.11 124.26 328.11 Q129.63 328.11 132.825 330.795 Q136.019 333.48 136.019 337.971 Q136.019 340.101 135.209 342.022 Q134.422 343.92 132.316 346.513 Q131.737 347.184 128.635 350.401 Q125.533 353.596 119.885 359.36 Z" fill="#000000" fill-rule="nonzero" fill-opacity="1" /><path clip-path="url(#clip190)" d="M156.019 331.814 Q152.408 331.814 150.579 335.378 Q148.774 338.92 148.774 346.05 Q148.774 353.156 150.579 356.721 Q152.408 360.262 156.019 360.262 Q159.653 360.262 161.459 356.721 Q163.288 353.156 163.288 346.05 Q163.288 338.92 161.459 335.378 Q159.653 331.814 156.019 331.814 M156.019 328.11 Q161.829 328.11 164.885 332.716 Q167.964 337.3 167.964 346.05 Q167.964 354.776 164.885 359.383 Q161.829 363.966 156.019 363.966 Q150.209 363.966 147.13 359.383 Q144.075 354.776 144.075 346.05 Q144.075 337.3 147.13 332.716 Q150.209 328.11 156.019 328.11 Z" fill="#000000" fill-rule="nonzero" fill-opacity="1" /><path clip-path="url(#clip190)" d="M186.181 331.814 Q182.57 331.814 180.741 335.378 Q178.936 338.92 178.936 346.05 Q178.936 353.156 180.741 356.721 Q182.57 360.262 186.181 360.262 Q189.815 360.262 191.621 356.721 Q193.45 353.156 193.45 346.05 Q193.45 338.92 191.621 335.378 Q189.815 331.814 186.181 331.814 M186.181 328.11 Q191.991 328.11 195.047 332.716 Q198.125 337.3 198.125 346.05 Q198.125 354.776 195.047 359.383 Q191.991 363.966 186.181 363.966 Q180.371 363.966 177.292 359.383 Q174.237 354.776 174.237 346.05 Q174.237 337.3 177.292 332.716 Q180.371 328.11 186.181 328.11 Z" fill="#000000" fill-rule="nonzero" fill-opacity="1" /><path clip-path="url(#clip190)" d="M20.1444 832.76 L26.9239 832.76 Q23.9002 836.006 22.4043 839.698 Q20.9083 843.358 20.9083 847.496 Q20.9083 855.644 25.9054 859.973 Q30.8707 864.302 40.2919 864.302 Q49.6813 864.302 54.6784 859.973 Q59.6436 855.644 59.6436 847.496 Q59.6436 843.358 58.1477 839.698 Q56.6518 836.006 53.6281 832.76 L60.3439 832.76 Q62.6355 836.133 63.7814 839.921 Q64.9272 843.677 64.9272 847.878 Q64.9272 858.668 58.3387 864.875 Q51.7183 871.081 40.2919 871.081 Q28.8336 871.081 22.2451 864.875 Q15.6248 858.668 15.6248 847.878 Q15.6248 843.613 16.7706 839.857 Q17.8846 836.07 20.1444 832.76 Z" fill="#000000" fill-rule="nonzero" fill-opacity="1" /><path clip-path="url(#clip190)" d="M32.4621 809.27 Q32.4621 813.981 36.1542 816.718 Q39.8145 819.455 46.212 819.455 Q52.6095 819.455 56.3017 816.75 Q59.9619 814.013 59.9619 809.27 Q59.9619 804.591 56.2698 801.854 Q52.5777 799.117 46.212 799.117 Q39.8781 799.117 36.186 801.854 Q32.4621 804.591 32.4621 809.27 M27.4968 809.27 Q27.4968 801.631 32.4621 797.271 Q37.4273 792.91 46.212 792.91 Q54.9649 792.91 59.9619 797.271 Q64.9272 801.631 64.9272 809.27 Q64.9272 816.941 59.9619 821.301 Q54.9649 825.63 46.212 825.63 Q37.4273 825.63 32.4621 821.301 Q27.4968 816.941 27.4968 809.27 Z" fill="#000000" fill-rule="nonzero" fill-opacity="1" /><path clip-path="url(#clip190)" d="M49.9359 783.807 L28.3562 783.807 L28.3562 777.951 L49.7131 777.951 Q54.7739 777.951 57.3202 775.977 Q59.8346 774.004 59.8346 770.057 Q59.8346 765.315 56.8109 762.578 Q53.7872 759.809 48.5673 759.809 L28.3562 759.809 L28.3562 753.952 L64.0042 753.952 L64.0042 759.809 L58.5296 759.809 Q61.7762 761.941 63.3676 764.774 Q64.9272 767.575 64.9272 771.299 Q64.9272 777.442 61.1078 780.624 Q57.2883 783.807 49.9359 783.807 M27.4968 769.071 L27.4968 769.071 Z" fill="#000000" fill-rule="nonzero" fill-opacity="1" /><path clip-path="url(#clip190)" d="M42.4881 712.257 L64.0042 712.257 L64.0042 718.113 L42.679 718.113 Q37.6183 718.113 35.1038 720.087 Q32.5894 722.06 32.5894 726.007 Q32.5894 730.749 35.6131 733.486 Q38.6368 736.224 43.8567 736.224 L64.0042 736.224 L64.0042 742.112 L28.3562 742.112 L28.3562 736.224 L33.8944 736.224 Q30.6797 734.123 29.0883 731.29 Q27.4968 728.426 27.4968 724.702 Q27.4968 718.559 31.3163 715.408 Q35.1038 712.257 42.4881 712.257 Z" fill="#000000" fill-rule="nonzero" fill-opacity="1" /><path clip-path="url(#clip190)" d="M18.2347 694.783 L28.3562 694.783 L28.3562 682.72 L32.9077 682.72 L32.9077 694.783 L52.2594 694.783 Q56.6199 694.783 57.8613 693.605 Q59.1026 692.396 59.1026 688.735 L59.1026 682.72 L64.0042 682.72 L64.0042 688.735 Q64.0042 695.515 61.4897 698.093 Q58.9434 700.671 52.2594 700.671 L32.9077 700.671 L32.9077 704.968 L28.3562 704.968 L28.3562 700.671 L18.2347 700.671 L18.2347 694.783 Z" fill="#000000" fill-rule="nonzero" fill-opacity="1" /><path clip-path="url(#clip190)" d="M1122.25 117.016 Q1122.25 117.795 1121.92 118.205 Q1121.63 118.574 1121.34 118.656 Q1121.1 118.697 1120.73 118.697 Q1119.66 118.697 1115.97 118.574 Q1112.29 118.451 1111.22 118.451 Q1109.5 118.451 1105.97 118.574 Q1102.45 118.697 1100.73 118.697 Q1099.58 118.697 1099.58 117.754 Q1099.58 117.139 1099.7 116.811 Q1099.83 116.442 1100.15 116.319 Q1100.52 116.155 1100.73 116.155 Q1100.97 116.114 1101.59 116.114 Q1102.41 116.114 1103.27 116.032 Q1104.13 115.909 1105.19 115.663 Q1106.26 115.417 1106.92 114.803 Q1107.61 114.188 1107.61 113.327 Q1107.61 112.958 1107.33 109.925 Q1107.04 106.892 1106.67 103.367 Q1106.3 99.8006 1106.26 99.3087 L1085.19 99.3087 Q1083.27 102.629 1081.91 104.924 Q1080.56 107.22 1080.07 107.998 Q1079.58 108.777 1079.29 109.269 Q1079 109.761 1078.84 110.048 Q1077.65 112.22 1077.65 113.163 Q1077.65 115.786 1081.58 116.114 Q1082.94 116.114 1082.94 117.098 Q1082.94 117.836 1082.61 118.246 Q1082.28 118.615 1081.99 118.656 Q1081.75 118.697 1081.34 118.697 Q1079.99 118.697 1077.16 118.574 Q1074.33 118.451 1072.94 118.451 Q1071.75 118.451 1069.29 118.574 Q1066.83 118.697 1065.72 118.697 Q1065.23 118.697 1064.94 118.41 Q1064.66 118.123 1064.66 117.754 Q1064.66 117.18 1064.74 116.852 Q1064.86 116.524 1065.19 116.36 Q1065.52 116.196 1065.68 116.196 Q1065.84 116.155 1066.42 116.114 Q1069.53 115.909 1071.95 114.434 Q1074.41 112.917 1076.75 109.023 L1105.93 60 Q1106.22 59.5081 1106.42 59.2622 Q1106.63 59.0162 1107.04 58.8113 Q1107.49 58.6063 1108.15 58.6063 Q1109.17 58.6063 1109.38 58.9342 Q1109.58 59.2212 1109.7 60.6148 L1114.83 113.081 Q1114.95 114.188 1115.03 114.639 Q1115.16 115.049 1115.69 115.499 Q1116.26 115.909 1117.29 116.032 Q1118.35 116.114 1120.32 116.114 Q1121.06 116.114 1121.34 116.155 Q1121.63 116.155 1121.92 116.36 Q1122.25 116.565 1122.25 117.016 M1106.01 96.6854 L1103.35 69.0176 L1086.79 96.6854 L1106.01 96.6854 Z" fill="#000000" fill-rule="nonzero" fill-opacity="1" /><path clip-path="url(#clip190)" d="M1130.65 43.039 Q1130.65 33.1114 1134.35 25.1062 Q1135.93 21.7492 1138.14 18.9373 Q1140.35 16.1255 1141.81 14.8917 Q1143.27 13.6579 1143.67 13.6579 Q1144.25 13.6579 1144.28 14.2318 Q1144.28 14.5187 1143.5 15.236 Q1134.03 24.8767 1134.06 43.039 Q1134.06 61.2588 1143.27 70.5264 Q1144.28 71.5307 1144.28 71.8463 Q1144.28 72.4201 1143.67 72.4201 Q1143.27 72.4201 1141.87 71.2437 Q1140.46 70.0674 1138.28 67.3703 Q1136.1 64.6732 1134.52 61.3735 Q1130.65 53.3683 1130.65 43.039 Z" fill="#000000" fill-rule="nonzero" fill-opacity="1" /><path clip-path="url(#clip190)" d="M1149.92 57.7296 Q1149.92 56.668 1150 56.3523 Q1150.12 56.0367 1150.58 55.5489 L1161.85 42.9816 Q1168.02 36.0381 1168.02 29.9839 Q1168.02 26.0531 1165.96 23.2412 Q1163.92 20.4293 1160.16 20.4293 Q1157.58 20.4293 1155.4 22.0074 Q1153.22 23.5855 1152.21 26.3974 Q1152.39 26.34 1152.99 26.34 Q1154.45 26.34 1155.25 27.2581 Q1156.09 28.1763 1156.09 29.4101 Q1156.09 30.9882 1155.05 31.7629 Q1154.05 32.5089 1153.05 32.5089 Q1152.64 32.5089 1152.1 32.4228 Q1151.58 32.3367 1150.75 31.5333 Q1149.92 30.7012 1149.92 29.2379 Q1149.92 25.1349 1153.02 21.864 Q1156.14 18.593 1160.91 18.593 Q1166.3 18.593 1169.83 21.8066 Q1173.39 24.9914 1173.39 29.9839 Q1173.39 31.7342 1172.84 33.341 Q1172.33 34.919 1171.61 36.1528 Q1170.92 37.3866 1169.03 39.3664 Q1167.13 41.3462 1165.61 42.7521 Q1164.09 44.158 1160.68 47.142 L1154.45 53.1962 L1165.04 53.1962 Q1170.2 53.1962 1170.61 52.7371 Q1171.18 51.905 1171.9 47.5151 L1173.39 47.5151 L1171.72 57.7296 L1149.92 57.7296 Z" fill="#000000" fill-rule="nonzero" fill-opacity="1" /><path clip-path="url(#clip190)" d="M1180.43 71.8463 Q1180.43 71.5594 1181.17 70.842 Q1190.64 61.2014 1190.64 43.039 Q1190.64 24.8193 1181.55 15.609 Q1180.43 14.5474 1180.43 14.2318 Q1180.43 13.6579 1181 13.6579 Q1181.4 13.6579 1182.81 14.8343 Q1184.24 16.0107 1186.4 18.7078 Q1188.58 21.4049 1190.18 24.7045 Q1194.06 32.7097 1194.06 43.039 Q1194.06 52.9666 1190.36 60.9718 Q1188.78 64.3289 1186.57 67.1407 Q1184.36 69.9526 1182.9 71.1864 Q1181.43 72.4201 1181 72.4201 Q1180.43 72.4201 1180.43 71.8463 Z" fill="#000000" fill-rule="nonzero" fill-opacity="1" /><path clip-path="url(#clip190)" d="M1145.65 106.199 Q1145.65 107.461 1144.62 108.408 Q1143.62 109.326 1142.53 109.326 Q1141.52 109.326 1140.89 108.724 Q1140.29 108.093 1140.29 107.203 Q1140.29 106.027 1141.29 105.051 Q1142.3 104.076 1143.47 104.076 Q1144.45 104.076 1145.05 104.678 Q1145.65 105.281 1145.65 106.199 M1146.17 134.518 Q1146.17 134.748 1145.91 135.666 Q1145.65 136.556 1145.02 137.933 Q1144.42 139.281 1143.59 140.544 Q1142.76 141.806 1141.38 142.696 Q1140.03 143.585 1138.48 143.585 Q1136.39 143.585 1135.01 142.208 Q1133.66 140.831 1133.66 138.765 Q1133.66 137.646 1135.01 134.059 Q1138.91 123.615 1139.05 123.185 Q1139.71 121.549 1139.71 120.115 Q1139.71 119.455 1139.57 119.053 Q1139.43 118.623 1139.14 118.479 Q1138.85 118.307 1138.68 118.279 Q1138.54 118.25 1138.25 118.25 Q1136.56 118.25 1134.98 119.971 Q1133.4 121.693 1132.31 125.538 Q1132.08 126.255 1131.94 126.427 Q1131.8 126.599 1131.36 126.599 Q1130.65 126.571 1130.65 125.997 Q1130.65 125.825 1130.85 125.165 Q1131.05 124.476 1131.42 123.443 Q1131.8 122.382 1132.46 121.291 Q1133.12 120.172 1133.92 119.197 Q1134.75 118.221 1135.93 117.59 Q1137.1 116.959 1138.42 116.959 Q1140.58 116.959 1141.89 118.365 Q1143.24 119.742 1143.24 121.779 Q1143.24 122.898 1142.47 124.878 Q1141.52 127.46 1141.18 128.292 L1138.88 134.461 Q1138.05 136.699 1137.79 137.388 Q1137.56 138.048 1137.36 138.851 Q1137.19 139.626 1137.19 140.343 Q1137.19 141.347 1137.51 141.806 Q1137.85 142.265 1138.6 142.265 Q1140.66 142.265 1142.18 140.228 Q1143.7 138.162 1144.59 135.006 Q1144.62 134.92 1144.65 134.777 Q1144.88 134.059 1145.11 133.973 Q1145.22 133.945 1145.45 133.945 Q1146.17 133.945 1146.17 134.518 Z" fill="#000000" fill-rule="nonzero" fill-opacity="1" /><path clip-path="url(#clip190)" d="M1165.84 106.199 Q1165.84 107.375 1164.84 108.351 Q1163.83 109.326 1162.66 109.326 Q1161.68 109.326 1161.08 108.724 Q1160.51 108.121 1160.51 107.203 Q1160.51 105.941 1161.51 105.023 Q1162.51 104.076 1163.6 104.076 Q1164.61 104.076 1165.21 104.707 Q1165.84 105.309 1165.84 106.199 M1163.66 122.353 Q1163.66 123.357 1163.38 124.533 L1157.98 146.053 Q1157.46 148.147 1156.23 149.869 Q1155 151.619 1153.42 152.71 Q1151.87 153.8 1150.18 154.374 Q1148.51 154.976 1146.93 154.976 Q1144.72 154.976 1143.23 154.001 Q1141.74 153.025 1141.74 151.332 Q1141.74 149.84 1142.72 148.893 Q1143.72 147.975 1144.93 147.975 Q1146.02 147.975 1146.59 148.606 Q1147.16 149.238 1147.16 150.041 Q1147.16 151.017 1146.45 151.935 Q1145.76 152.853 1144.52 153.14 Q1145.64 153.685 1146.82 153.685 Q1149.23 153.685 1151.18 151.476 Q1153.16 149.295 1154.02 145.852 L1159.56 123.931 Q1159.96 122.181 1159.96 120.947 Q1159.96 119.799 1159.65 119.168 Q1159.33 118.537 1158.96 118.393 Q1158.61 118.25 1158.1 118.25 Q1155.83 118.25 1153.88 120.344 Q1151.93 122.41 1150.69 125.423 Q1150.35 126.255 1150.18 126.427 Q1150.03 126.599 1149.63 126.599 Q1148.91 126.571 1148.91 125.997 Q1148.91 125.825 1149.2 125.136 Q1149.49 124.447 1150 123.443 Q1150.52 122.41 1151.35 121.291 Q1152.19 120.172 1153.16 119.197 Q1154.16 118.221 1155.51 117.59 Q1156.86 116.959 1158.27 116.959 Q1160.53 116.959 1162.08 118.451 Q1163.66 119.914 1163.66 122.353 Z" fill="#000000" fill-rule="nonzero" fill-opacity="1" /><path clip-path="url(#clip190)" d="M1198.64 120.66 Q1198.64 122.295 1197.64 123.271 Q1196.67 124.247 1195.43 124.247 Q1194.34 124.247 1193.77 123.615 Q1193.19 122.984 1193.19 122.181 Q1193.19 121.836 1193.34 121.406 Q1193.48 120.947 1193.8 120.402 Q1194.14 119.857 1194.86 119.455 Q1195.57 119.053 1196.55 118.996 Q1196.35 118.795 1196.29 118.766 Q1195.86 118.422 1195.06 118.307 Q1194.94 118.25 1194.54 118.25 Q1192.56 118.25 1190.55 119.713 Q1188.57 121.148 1186.14 123.874 Q1183.06 127.058 1181.09 128.235 Q1189.78 129.383 1189.78 134.404 Q1189.78 135.236 1189.55 136.24 Q1189.09 138.134 1189.09 139.511 Q1189.09 142.265 1190.96 142.265 Q1192.76 142.265 1193.91 140.429 Q1195.09 138.593 1196.06 135.006 Q1196.21 134.346 1196.35 134.145 Q1196.49 133.945 1196.89 133.945 Q1197.61 133.945 1197.61 134.518 Q1196.95 137.875 1195.49 140.458 Q1193.62 143.585 1190.84 143.585 Q1188.52 143.585 1186.97 141.979 Q1185.45 140.343 1185.45 137.761 Q1185.45 137.129 1185.68 135.695 Q1185.85 135.121 1185.85 134.461 Q1185.85 133.113 1185.1 132.108 Q1184.36 131.075 1183.15 130.559 Q1181.95 130.042 1180.94 129.813 Q1179.97 129.555 1179.02 129.469 Q1176.15 141.606 1175.75 142.352 Q1175.49 142.868 1174.92 143.212 Q1174.34 143.585 1173.74 143.585 Q1173.17 143.585 1172.59 143.184 Q1172.05 142.811 1172.05 141.921 Q1172.05 141.462 1172.28 140.63 L1180.8 106.773 L1180.97 105.625 Q1180.97 105.281 1180.83 105.109 Q1180.71 104.908 1180.02 104.764 Q1179.36 104.621 1178.04 104.621 Q1177.5 104.621 1177.24 104.592 Q1177.01 104.563 1176.81 104.42 Q1176.61 104.248 1176.61 103.904 Q1176.61 103.416 1176.81 103.158 Q1177.04 102.871 1177.21 102.813 Q1177.38 102.756 1177.73 102.727 Q1178.22 102.698 1179.85 102.555 Q1181.49 102.383 1182.89 102.268 Q1184.3 102.153 1184.9 102.153 Q1185.25 102.153 1185.42 102.325 Q1185.62 102.469 1185.65 102.641 L1185.68 102.785 L1179.56 127.575 Q1182.09 126.571 1186.08 122.123 Q1190.7 116.959 1194.66 116.959 Q1196.52 116.959 1197.58 118.106 Q1198.64 119.225 1198.64 120.66 Z" fill="#000000" fill-rule="nonzero" fill-opacity="1" /><path clip-path="url(#clip190)" d="M1216.35 102.785 L1207.88 136.756 Q1207.54 138.105 1207.54 139.568 Q1207.54 142.265 1209.32 142.265 Q1210.15 142.265 1210.84 141.72 Q1211.53 141.146 1212.04 140.027 Q1212.59 138.88 1212.93 137.789 Q1213.31 136.699 1213.76 135.006 Q1213.91 134.346 1214.05 134.145 Q1214.19 133.945 1214.6 133.945 Q1215.31 133.945 1215.31 134.518 Q1214.6 138.048 1213.53 140.286 Q1211.99 143.585 1209.12 143.585 Q1206.96 143.585 1205.36 142.093 Q1203.78 140.573 1203.78 138.162 Q1203.78 137.244 1204.07 136.154 L1211.47 106.773 L1211.67 105.625 Q1211.67 105.309 1211.56 105.137 Q1211.44 104.965 1210.75 104.793 Q1210.09 104.621 1208.77 104.621 Q1208.23 104.621 1207.97 104.592 Q1207.74 104.563 1207.51 104.42 Q1207.31 104.277 1207.31 103.961 Q1207.31 103.444 1207.51 103.158 Q1207.74 102.871 1207.91 102.813 Q1208.08 102.756 1208.43 102.727 Q1208.92 102.698 1210.55 102.555 Q1212.19 102.383 1213.59 102.268 Q1215 102.153 1215.6 102.153 Q1215.95 102.153 1216.12 102.325 Q1216.32 102.469 1216.35 102.641 L1216.35 102.785 Z" fill="#000000" fill-rule="nonzero" fill-opacity="1" /><path clip-path="url(#clip190)" d="M1258.92 73.3265 L1266.82 73.3265 L1280.99 111.405 L1295.17 73.3265 L1303.07 73.3265 L1286.06 118.697 L1275.93 118.697 L1258.92 73.3265 Z" fill="#000000" fill-rule="nonzero" fill-opacity="1" /><path clip-path="url(#clip190)" d="M1333.98 95.89 Q1324.95 95.89 1321.46 97.956 Q1317.98 100.022 1317.98 105.005 Q1317.98 108.974 1320.57 111.324 Q1323.2 113.633 1327.7 113.633 Q1333.9 113.633 1337.63 109.258 Q1341.39 104.843 1341.39 97.5509 L1341.39 95.89 L1333.98 95.89 M1348.85 92.8113 L1348.85 118.697 L1341.39 118.697 L1341.39 111.81 Q1338.84 115.942 1335.03 117.927 Q1331.22 119.871 1325.72 119.871 Q1318.75 119.871 1314.62 115.983 Q1310.52 112.053 1310.52 105.491 Q1310.52 97.8345 1315.63 93.9456 Q1320.77 90.0567 1330.94 90.0567 L1341.39 90.0567 L1341.39 89.3276 Q1341.39 84.1829 1337.99 81.3878 Q1334.63 78.5521 1328.51 78.5521 Q1324.62 78.5521 1320.94 79.4839 Q1317.25 80.4156 1313.85 82.279 L1313.85 75.3924 Q1317.94 73.8126 1321.79 73.0429 Q1325.63 72.2327 1329.28 72.2327 Q1339.12 72.2327 1343.99 77.3369 Q1348.85 82.441 1348.85 92.8113 Z" fill="#000000" fill-rule="nonzero" fill-opacity="1" /><path clip-path="url(#clip190)" d="M1364.2 55.6645 L1371.65 55.6645 L1371.65 118.697 L1364.2 118.697 L1364.2 55.6645 Z" fill="#000000" fill-rule="nonzero" fill-opacity="1" /><path clip-path="url(#clip190)" d="M1386.48 100.792 L1386.48 73.3265 L1393.93 73.3265 L1393.93 100.508 Q1393.93 106.949 1396.44 110.19 Q1398.96 113.39 1403.98 113.39 Q1410.02 113.39 1413.5 109.542 Q1417.02 105.693 1417.02 99.0497 L1417.02 73.3265 L1424.48 73.3265 L1424.48 118.697 L1417.02 118.697 L1417.02 111.729 Q1414.31 115.861 1410.7 117.886 Q1407.14 119.871 1402.4 119.871 Q1394.58 119.871 1390.53 115.01 Q1386.48 110.149 1386.48 100.792 M1405.23 72.2327 L1405.23 72.2327 Z" fill="#000000" fill-rule="nonzero" fill-opacity="1" /><path clip-path="url(#clip190)" d="M1478.64 94.1481 L1478.64 97.7939 L1444.37 97.7939 Q1444.85 105.491 1448.98 109.542 Q1453.16 113.552 1460.57 113.552 Q1464.86 113.552 1468.87 112.499 Q1472.93 111.445 1476.9 109.339 L1476.9 116.388 Q1472.89 118.089 1468.67 118.98 Q1464.46 119.871 1460.12 119.871 Q1449.27 119.871 1442.91 113.552 Q1436.59 107.233 1436.59 96.4571 Q1436.59 85.3172 1442.58 78.7952 Q1448.62 72.2327 1458.83 72.2327 Q1467.98 72.2327 1473.29 78.1471 Q1478.64 84.0209 1478.64 94.1481 M1471.18 91.9606 Q1471.1 85.8438 1467.74 82.198 Q1464.42 78.5521 1458.91 78.5521 Q1452.67 78.5521 1448.9 82.0764 Q1445.18 85.6007 1444.61 92.0012 L1471.18 91.9606 Z" fill="#000000" fill-rule="nonzero" fill-opacity="1" /><path clip-path="url(#clip190)" d="M1519.79 74.6633 L1519.79 81.7119 Q1516.63 80.0915 1513.23 79.2813 Q1509.83 78.4711 1506.18 78.4711 Q1500.63 78.4711 1497.84 80.1725 Q1495.08 81.8739 1495.08 85.2766 Q1495.08 87.8692 1497.07 89.3681 Q1499.05 90.8264 1505.05 92.1632 L1507.6 92.7303 Q1515.54 94.4317 1518.86 97.5509 Q1522.23 100.63 1522.23 106.179 Q1522.23 112.499 1517.2 116.185 Q1512.22 119.871 1503.47 119.871 Q1499.82 119.871 1495.85 119.142 Q1491.92 118.454 1487.55 117.036 L1487.55 109.339 Q1491.68 111.486 1495.69 112.58 Q1499.7 113.633 1503.63 113.633 Q1508.9 113.633 1511.73 111.851 Q1514.57 110.028 1514.57 106.746 Q1514.57 103.708 1512.5 102.088 Q1510.48 100.468 1503.55 98.9687 L1500.96 98.3611 Q1494.03 96.9027 1490.95 93.9051 Q1487.87 90.8669 1487.87 85.6007 Q1487.87 79.2003 1492.41 75.7165 Q1496.95 72.2327 1505.29 72.2327 Q1509.42 72.2327 1513.07 72.8404 Q1516.72 73.448 1519.79 74.6633 Z" fill="#000000" fill-rule="nonzero" fill-opacity="1" /><path clip-path="url(#clip192)" d="M350.654 1386.45 L350.654 1396.96 L385.572 1396.96 L385.572 1386.45 L350.654 1386.45 L350.654 1386.45  Z" fill="#009af9" fill-rule="evenodd" fill-opacity="1"/>
<polyline clip-path="url(#clip192)" style="stroke:#000000; stroke-linecap:round; stroke-linejoin:round; stroke-width:4; stroke-opacity:1; fill:none" points="350.654,1386.45 350.654,1396.96 385.572,1396.96 385.572,1386.45 350.654,1386.45 "/>
<path clip-path="url(#clip192)" d="M385.572 1391.7 L385.572 1396.96 L420.49 1396.96 L420.49 1391.7 L385.572 1391.7 L385.572 1391.7  Z" fill="#009af9" fill-rule="evenodd" fill-opacity="1"/>
<polyline clip-path="url(#clip192)" style="stroke:#000000; stroke-linecap:round; stroke-linejoin:round; stroke-width:4; stroke-opacity:1; fill:none" points="385.572,1391.7 385.572,1396.96 420.49,1396.96 420.49,1391.7 385.572,1391.7 "/>
<path clip-path="url(#clip192)" d="M420.49 1396.96 L420.49 1396.96 L455.408 1396.96 L455.408 1396.96 L420.49 1396.96 L420.49 1396.96  Z" fill="#009af9" fill-rule="evenodd" fill-opacity="1"/>
<polyline clip-path="url(#clip192)" style="stroke:#000000; stroke-linecap:round; stroke-linejoin:round; stroke-width:4; stroke-opacity:1; fill:none" points="420.49,1396.96 420.49,1396.96 455.408,1396.96 420.49,1396.96 "/>
<path clip-path="url(#clip192)" d="M455.408 1391.7 L455.408 1396.96 L490.326 1396.96 L490.326 1391.7 L455.408 1391.7 L455.408 1391.7  Z" fill="#009af9" fill-rule="evenodd" fill-opacity="1"/>
<polyline clip-path="url(#clip192)" style="stroke:#000000; stroke-linecap:round; stroke-linejoin:round; stroke-width:4; stroke-opacity:1; fill:none" points="455.408,1391.7 455.408,1396.96 490.326,1396.96 490.326,1391.7 455.408,1391.7 "/>
<path clip-path="url(#clip192)" d="M490.326 1386.45 L490.326 1396.96 L525.244 1396.96 L525.244 1386.45 L490.326 1386.45 L490.326 1386.45  Z" fill="#009af9" fill-rule="evenodd" fill-opacity="1"/>
<polyline clip-path="url(#clip192)" style="stroke:#000000; stroke-linecap:round; stroke-linejoin:round; stroke-width:4; stroke-opacity:1; fill:none" points="490.326,1386.45 490.326,1396.96 525.244,1396.96 525.244,1386.45 490.326,1386.45 "/>
<path clip-path="url(#clip192)" d="M525.244 1354.92 L525.244 1396.96 L560.162 1396.96 L560.162 1354.92 L525.244 1354.92 L525.244 1354.92  Z" fill="#009af9" fill-rule="evenodd" fill-opacity="1"/>
<polyline clip-path="url(#clip192)" style="stroke:#000000; stroke-linecap:round; stroke-linejoin:round; stroke-width:4; stroke-opacity:1; fill:none" points="525.244,1354.92 525.244,1396.96 560.162,1396.96 560.162,1354.92 525.244,1354.92 "/>
<path clip-path="url(#clip192)" d="M560.162 1386.45 L560.162 1396.96 L595.08 1396.96 L595.08 1386.45 L560.162 1386.45 L560.162 1386.45  Z" fill="#009af9" fill-rule="evenodd" fill-opacity="1"/>
<polyline clip-path="url(#clip192)" style="stroke:#000000; stroke-linecap:round; stroke-linejoin:round; stroke-width:4; stroke-opacity:1; fill:none" points="560.162,1386.45 560.162,1396.96 595.08,1396.96 595.08,1386.45 560.162,1386.45 "/>
<path clip-path="url(#clip192)" d="M595.08 1391.7 L595.08 1396.96 L629.998 1396.96 L629.998 1391.7 L595.08 1391.7 L595.08 1391.7  Z" fill="#009af9" fill-rule="evenodd" fill-opacity="1"/>
<polyline clip-path="url(#clip192)" style="stroke:#000000; stroke-linecap:round; stroke-linejoin:round; stroke-width:4; stroke-opacity:1; fill:none" points="595.08,1391.7 595.08,1396.96 629.998,1396.96 629.998,1391.7 595.08,1391.7 "/>
<path clip-path="url(#clip192)" d="M629.998 1365.43 L629.998 1396.96 L664.916 1396.96 L664.916 1365.43 L629.998 1365.43 L629.998 1365.43  Z" fill="#009af9" fill-rule="evenodd" fill-opacity="1"/>
<polyline clip-path="url(#clip192)" style="stroke:#000000; stroke-linecap:round; stroke-linejoin:round; stroke-width:4; stroke-opacity:1; fill:none" points="629.998,1365.43 629.998,1396.96 664.916,1396.96 664.916,1365.43 629.998,1365.43 "/>
<path clip-path="url(#clip192)" d="M664.916 1365.43 L664.916 1396.96 L699.834 1396.96 L699.834 1365.43 L664.916 1365.43 L664.916 1365.43  Z" fill="#009af9" fill-rule="evenodd" fill-opacity="1"/>
<polyline clip-path="url(#clip192)" style="stroke:#000000; stroke-linecap:round; stroke-linejoin:round; stroke-width:4; stroke-opacity:1; fill:none" points="664.916,1365.43 664.916,1396.96 699.834,1396.96 699.834,1365.43 664.916,1365.43 "/>
<path clip-path="url(#clip192)" d="M699.834 1349.66 L699.834 1396.96 L734.752 1396.96 L734.752 1349.66 L699.834 1349.66 L699.834 1349.66  Z" fill="#009af9" fill-rule="evenodd" fill-opacity="1"/>
<polyline clip-path="url(#clip192)" style="stroke:#000000; stroke-linecap:round; stroke-linejoin:round; stroke-width:4; stroke-opacity:1; fill:none" points="699.834,1349.66 699.834,1396.96 734.752,1396.96 734.752,1349.66 699.834,1349.66 "/>
<path clip-path="url(#clip192)" d="M734.752 1339.15 L734.752 1396.96 L769.67 1396.96 L769.67 1339.15 L734.752 1339.15 L734.752 1339.15  Z" fill="#009af9" fill-rule="evenodd" fill-opacity="1"/>
<polyline clip-path="url(#clip192)" style="stroke:#000000; stroke-linecap:round; stroke-linejoin:round; stroke-width:4; stroke-opacity:1; fill:none" points="734.752,1339.15 734.752,1396.96 769.67,1396.96 769.67,1339.15 734.752,1339.15 "/>
<path clip-path="url(#clip192)" d="M769.67 1349.66 L769.67 1396.96 L804.588 1396.96 L804.588 1349.66 L769.67 1349.66 L769.67 1349.66  Z" fill="#009af9" fill-rule="evenodd" fill-opacity="1"/>
<polyline clip-path="url(#clip192)" style="stroke:#000000; stroke-linecap:round; stroke-linejoin:round; stroke-width:4; stroke-opacity:1; fill:none" points="769.67,1349.66 769.67,1396.96 804.588,1396.96 804.588,1349.66 769.67,1349.66 "/>
<path clip-path="url(#clip192)" d="M804.588 1349.66 L804.588 1396.96 L839.506 1396.96 L839.506 1349.66 L804.588 1349.66 L804.588 1349.66  Z" fill="#009af9" fill-rule="evenodd" fill-opacity="1"/>
<polyline clip-path="url(#clip192)" style="stroke:#000000; stroke-linecap:round; stroke-linejoin:round; stroke-width:4; stroke-opacity:1; fill:none" points="804.588,1349.66 804.588,1396.96 839.506,1396.96 839.506,1349.66 804.588,1349.66 "/>
<path clip-path="url(#clip192)" d="M839.506 1328.64 L839.506 1396.96 L874.424 1396.96 L874.424 1328.64 L839.506 1328.64 L839.506 1328.64  Z" fill="#009af9" fill-rule="evenodd" fill-opacity="1"/>
<polyline clip-path="url(#clip192)" style="stroke:#000000; stroke-linecap:round; stroke-linejoin:round; stroke-width:4; stroke-opacity:1; fill:none" points="839.506,1328.64 839.506,1396.96 874.424,1396.96 874.424,1328.64 839.506,1328.64 "/>
<path clip-path="url(#clip192)" d="M874.424 1318.13 L874.424 1396.96 L909.342 1396.96 L909.342 1318.13 L874.424 1318.13 L874.424 1318.13  Z" fill="#009af9" fill-rule="evenodd" fill-opacity="1"/>
<polyline clip-path="url(#clip192)" style="stroke:#000000; stroke-linecap:round; stroke-linejoin:round; stroke-width:4; stroke-opacity:1; fill:none" points="874.424,1318.13 874.424,1396.96 909.342,1396.96 909.342,1318.13 874.424,1318.13 "/>
<path clip-path="url(#clip192)" d="M909.342 1312.88 L909.342 1396.96 L944.26 1396.96 L944.26 1312.88 L909.342 1312.88 L909.342 1312.88  Z" fill="#009af9" fill-rule="evenodd" fill-opacity="1"/>
<polyline clip-path="url(#clip192)" style="stroke:#000000; stroke-linecap:round; stroke-linejoin:round; stroke-width:4; stroke-opacity:1; fill:none" points="909.342,1312.88 909.342,1396.96 944.26,1396.96 944.26,1312.88 909.342,1312.88 "/>
<path clip-path="url(#clip192)" d="M944.26 1286.61 L944.26 1396.96 L979.178 1396.96 L979.178 1286.61 L944.26 1286.61 L944.26 1286.61  Z" fill="#009af9" fill-rule="evenodd" fill-opacity="1"/>
<polyline clip-path="url(#clip192)" style="stroke:#000000; stroke-linecap:round; stroke-linejoin:round; stroke-width:4; stroke-opacity:1; fill:none" points="944.26,1286.61 944.26,1396.96 979.178,1396.96 979.178,1286.61 944.26,1286.61 "/>
<path clip-path="url(#clip192)" d="M979.178 1307.63 L979.178 1396.96 L1014.1 1396.96 L1014.1 1307.63 L979.178 1307.63 L979.178 1307.63  Z" fill="#009af9" fill-rule="evenodd" fill-opacity="1"/>
<polyline clip-path="url(#clip192)" style="stroke:#000000; stroke-linecap:round; stroke-linejoin:round; stroke-width:4; stroke-opacity:1; fill:none" points="979.178,1307.63 979.178,1396.96 1014.1,1396.96 1014.1,1307.63 979.178,1307.63 "/>
<path clip-path="url(#clip192)" d="M1014.1 1260.33 L1014.1 1396.96 L1049.01 1396.96 L1049.01 1260.33 L1014.1 1260.33 L1014.1 1260.33  Z" fill="#009af9" fill-rule="evenodd" fill-opacity="1"/>
<polyline clip-path="url(#clip192)" style="stroke:#000000; stroke-linecap:round; stroke-linejoin:round; stroke-width:4; stroke-opacity:1; fill:none" points="1014.1,1260.33 1014.1,1396.96 1049.01,1396.96 1049.01,1260.33 1014.1,1260.33 "/>
<path clip-path="url(#clip192)" d="M1049.01 1144.73 L1049.01 1396.96 L1083.93 1396.96 L1083.93 1144.73 L1049.01 1144.73 L1049.01 1144.73  Z" fill="#009af9" fill-rule="evenodd" fill-opacity="1"/>
<polyline clip-path="url(#clip192)" style="stroke:#000000; stroke-linecap:round; stroke-linejoin:round; stroke-width:4; stroke-opacity:1; fill:none" points="1049.01,1144.73 1049.01,1396.96 1083.93,1396.96 1083.93,1144.73 1049.01,1144.73 "/>
<path clip-path="url(#clip192)" d="M1083.93 1160.49 L1083.93 1396.96 L1118.85 1396.96 L1118.85 1160.49 L1083.93 1160.49 L1083.93 1160.49  Z" fill="#009af9" fill-rule="evenodd" fill-opacity="1"/>
<polyline clip-path="url(#clip192)" style="stroke:#000000; stroke-linecap:round; stroke-linejoin:round; stroke-width:4; stroke-opacity:1; fill:none" points="1083.93,1160.49 1083.93,1396.96 1118.85,1396.96 1118.85,1160.49 1083.93,1160.49 "/>
<path clip-path="url(#clip192)" d="M1118.85 892.504 L1118.85 1396.96 L1153.77 1396.96 L1153.77 892.504 L1118.85 892.504 L1118.85 892.504  Z" fill="#009af9" fill-rule="evenodd" fill-opacity="1"/>
<polyline clip-path="url(#clip192)" style="stroke:#000000; stroke-linecap:round; stroke-linejoin:round; stroke-width:4; stroke-opacity:1; fill:none" points="1118.85,892.504 1118.85,1396.96 1153.77,1396.96 1153.77,892.504 1118.85,892.504 "/>
<path clip-path="url(#clip192)" d="M1153.77 598.241 L1153.77 1396.96 L1188.69 1396.96 L1188.69 598.241 L1153.77 598.241 L1153.77 598.241  Z" fill="#009af9" fill-rule="evenodd" fill-opacity="1"/>
<polyline clip-path="url(#clip192)" style="stroke:#000000; stroke-linecap:round; stroke-linejoin:round; stroke-width:4; stroke-opacity:1; fill:none" points="1153.77,598.241 1153.77,1396.96 1188.69,1396.96 1188.69,598.241 1153.77,598.241 "/>
<path clip-path="url(#clip192)" d="M1188.69 466.873 L1188.69 1396.96 L1223.6 1396.96 L1223.6 466.873 L1188.69 466.873 L1188.69 466.873  Z" fill="#009af9" fill-rule="evenodd" fill-opacity="1"/>
<polyline clip-path="url(#clip192)" style="stroke:#000000; stroke-linecap:round; stroke-linejoin:round; stroke-width:4; stroke-opacity:1; fill:none" points="1188.69,466.873 1188.69,1396.96 1223.6,1396.96 1223.6,466.873 1188.69,466.873 "/>
<path clip-path="url(#clip192)" d="M1223.6 298.723 L1223.6 1396.96 L1258.52 1396.96 L1258.52 298.723 L1223.6 298.723 L1223.6 298.723  Z" fill="#009af9" fill-rule="evenodd" fill-opacity="1"/>
<polyline clip-path="url(#clip192)" style="stroke:#000000; stroke-linecap:round; stroke-linejoin:round; stroke-width:4; stroke-opacity:1; fill:none" points="1223.6,298.723 1223.6,1396.96 1258.52,1396.96 1258.52,298.723 1223.6,298.723 "/>
<path clip-path="url(#clip192)" d="M1258.52 156.846 L1258.52 1396.96 L1293.44 1396.96 L1293.44 156.846 L1258.52 156.846 L1258.52 156.846  Z" fill="#009af9" fill-rule="evenodd" fill-opacity="1"/>
<polyline clip-path="url(#clip192)" style="stroke:#000000; stroke-linecap:round; stroke-linejoin:round; stroke-width:4; stroke-opacity:1; fill:none" points="1258.52,156.846 1258.52,1396.96 1293.44,1396.96 1293.44,156.846 1258.52,156.846 "/>
<path clip-path="url(#clip192)" d="M1293.44 219.902 L1293.44 1396.96 L1328.36 1396.96 L1328.36 219.902 L1293.44 219.902 L1293.44 219.902  Z" fill="#009af9" fill-rule="evenodd" fill-opacity="1"/>
<polyline clip-path="url(#clip192)" style="stroke:#000000; stroke-linecap:round; stroke-linejoin:round; stroke-width:4; stroke-opacity:1; fill:none" points="1293.44,219.902 1293.44,1396.96 1328.36,1396.96 1328.36,219.902 1293.44,219.902 "/>
<path clip-path="url(#clip192)" d="M1328.36 319.741 L1328.36 1396.96 L1363.28 1396.96 L1363.28 319.741 L1328.36 319.741 L1328.36 319.741  Z" fill="#009af9" fill-rule="evenodd" fill-opacity="1"/>
<polyline clip-path="url(#clip192)" style="stroke:#000000; stroke-linecap:round; stroke-linejoin:round; stroke-width:4; stroke-opacity:1; fill:none" points="1328.36,319.741 1328.36,1396.96 1363.28,1396.96 1363.28,319.741 1328.36,319.741 "/>
<path clip-path="url(#clip192)" d="M1363.28 466.873 L1363.28 1396.96 L1398.19 1396.96 L1398.19 466.873 L1363.28 466.873 L1363.28 466.873  Z" fill="#009af9" fill-rule="evenodd" fill-opacity="1"/>
<polyline clip-path="url(#clip192)" style="stroke:#000000; stroke-linecap:round; stroke-linejoin:round; stroke-width:4; stroke-opacity:1; fill:none" points="1363.28,466.873 1363.28,1396.96 1398.19,1396.96 1398.19,466.873 1363.28,466.873 "/>
<path clip-path="url(#clip192)" d="M1398.19 787.41 L1398.19 1396.96 L1433.11 1396.96 L1433.11 787.41 L1398.19 787.41 L1398.19 787.41  Z" fill="#009af9" fill-rule="evenodd" fill-opacity="1"/>
<polyline clip-path="url(#clip192)" style="stroke:#000000; stroke-linecap:round; stroke-linejoin:round; stroke-width:4; stroke-opacity:1; fill:none" points="1398.19,787.41 1398.19,1396.96 1433.11,1396.96 1433.11,787.41 1398.19,787.41 "/>
<path clip-path="url(#clip192)" d="M1433.11 939.796 L1433.11 1396.96 L1468.03 1396.96 L1468.03 939.796 L1433.11 939.796 L1433.11 939.796  Z" fill="#009af9" fill-rule="evenodd" fill-opacity="1"/>
<polyline clip-path="url(#clip192)" style="stroke:#000000; stroke-linecap:round; stroke-linejoin:round; stroke-width:4; stroke-opacity:1; fill:none" points="1433.11,939.796 1433.11,1396.96 1468.03,1396.96 1468.03,939.796 1433.11,939.796 "/>
<path clip-path="url(#clip192)" d="M1468.03 1171 L1468.03 1396.96 L1502.95 1396.96 L1502.95 1171 L1468.03 1171 L1468.03 1171  Z" fill="#009af9" fill-rule="evenodd" fill-opacity="1"/>
<polyline clip-path="url(#clip192)" style="stroke:#000000; stroke-linecap:round; stroke-linejoin:round; stroke-width:4; stroke-opacity:1; fill:none" points="1468.03,1171 1468.03,1396.96 1502.95,1396.96 1502.95,1171 1468.03,1171 "/>
<path clip-path="url(#clip192)" d="M1502.95 1192.02 L1502.95 1396.96 L1537.87 1396.96 L1537.87 1192.02 L1502.95 1192.02 L1502.95 1192.02  Z" fill="#009af9" fill-rule="evenodd" fill-opacity="1"/>
<polyline clip-path="url(#clip192)" style="stroke:#000000; stroke-linecap:round; stroke-linejoin:round; stroke-width:4; stroke-opacity:1; fill:none" points="1502.95,1192.02 1502.95,1396.96 1537.87,1396.96 1537.87,1192.02 1502.95,1192.02 "/>
<path clip-path="url(#clip192)" d="M1537.87 1234.06 L1537.87 1396.96 L1572.78 1396.96 L1572.78 1234.06 L1537.87 1234.06 L1537.87 1234.06  Z" fill="#009af9" fill-rule="evenodd" fill-opacity="1"/>
<polyline clip-path="url(#clip192)" style="stroke:#000000; stroke-linecap:round; stroke-linejoin:round; stroke-width:4; stroke-opacity:1; fill:none" points="1537.87,1234.06 1537.87,1396.96 1572.78,1396.96 1572.78,1234.06 1537.87,1234.06 "/>
<path clip-path="url(#clip192)" d="M1572.78 1260.33 L1572.78 1396.96 L1607.7 1396.96 L1607.7 1260.33 L1572.78 1260.33 L1572.78 1260.33  Z" fill="#009af9" fill-rule="evenodd" fill-opacity="1"/>
<polyline clip-path="url(#clip192)" style="stroke:#000000; stroke-linecap:round; stroke-linejoin:round; stroke-width:4; stroke-opacity:1; fill:none" points="1572.78,1260.33 1572.78,1396.96 1607.7,1396.96 1607.7,1260.33 1572.78,1260.33 "/>
<path clip-path="url(#clip192)" d="M1607.7 1297.12 L1607.7 1396.96 L1642.62 1396.96 L1642.62 1297.12 L1607.7 1297.12 L1607.7 1297.12  Z" fill="#009af9" fill-rule="evenodd" fill-opacity="1"/>
<polyline clip-path="url(#clip192)" style="stroke:#000000; stroke-linecap:round; stroke-linejoin:round; stroke-width:4; stroke-opacity:1; fill:none" points="1607.7,1297.12 1607.7,1396.96 1642.62,1396.96 1642.62,1297.12 1607.7,1297.12 "/>
<path clip-path="url(#clip192)" d="M1642.62 1328.64 L1642.62 1396.96 L1677.54 1396.96 L1677.54 1328.64 L1642.62 1328.64 L1642.62 1328.64  Z" fill="#009af9" fill-rule="evenodd" fill-opacity="1"/>
<polyline clip-path="url(#clip192)" style="stroke:#000000; stroke-linecap:round; stroke-linejoin:round; stroke-width:4; stroke-opacity:1; fill:none" points="1642.62,1328.64 1642.62,1396.96 1677.54,1396.96 1677.54,1328.64 1642.62,1328.64 "/>
<path clip-path="url(#clip192)" d="M1677.54 1328.64 L1677.54 1396.96 L1712.46 1396.96 L1712.46 1328.64 L1677.54 1328.64 L1677.54 1328.64  Z" fill="#009af9" fill-rule="evenodd" fill-opacity="1"/>
<polyline clip-path="url(#clip192)" style="stroke:#000000; stroke-linecap:round; stroke-linejoin:round; stroke-width:4; stroke-opacity:1; fill:none" points="1677.54,1328.64 1677.54,1396.96 1712.46,1396.96 1712.46,1328.64 1677.54,1328.64 "/>
<path clip-path="url(#clip192)" d="M1712.46 1302.37 L1712.46 1396.96 L1747.38 1396.96 L1747.38 1302.37 L1712.46 1302.37 L1712.46 1302.37  Z" fill="#009af9" fill-rule="evenodd" fill-opacity="1"/>
<polyline clip-path="url(#clip192)" style="stroke:#000000; stroke-linecap:round; stroke-linejoin:round; stroke-width:4; stroke-opacity:1; fill:none" points="1712.46,1302.37 1712.46,1396.96 1747.38,1396.96 1747.38,1302.37 1712.46,1302.37 "/>
<path clip-path="url(#clip192)" d="M1747.38 1354.92 L1747.38 1396.96 L1782.29 1396.96 L1782.29 1354.92 L1747.38 1354.92 L1747.38 1354.92  Z" fill="#009af9" fill-rule="evenodd" fill-opacity="1"/>
<polyline clip-path="url(#clip192)" style="stroke:#000000; stroke-linecap:round; stroke-linejoin:round; stroke-width:4; stroke-opacity:1; fill:none" points="1747.38,1354.92 1747.38,1396.96 1782.29,1396.96 1782.29,1354.92 1747.38,1354.92 "/>
<path clip-path="url(#clip192)" d="M1782.29 1365.43 L1782.29 1396.96 L1817.21 1396.96 L1817.21 1365.43 L1782.29 1365.43 L1782.29 1365.43  Z" fill="#009af9" fill-rule="evenodd" fill-opacity="1"/>
<polyline clip-path="url(#clip192)" style="stroke:#000000; stroke-linecap:round; stroke-linejoin:round; stroke-width:4; stroke-opacity:1; fill:none" points="1782.29,1365.43 1782.29,1396.96 1817.21,1396.96 1817.21,1365.43 1782.29,1365.43 "/>
<path clip-path="url(#clip192)" d="M1817.21 1360.17 L1817.21 1396.96 L1852.13 1396.96 L1852.13 1360.17 L1817.21 1360.17 L1817.21 1360.17  Z" fill="#009af9" fill-rule="evenodd" fill-opacity="1"/>
<polyline clip-path="url(#clip192)" style="stroke:#000000; stroke-linecap:round; stroke-linejoin:round; stroke-width:4; stroke-opacity:1; fill:none" points="1817.21,1360.17 1817.21,1396.96 1852.13,1396.96 1852.13,1360.17 1817.21,1360.17 "/>
<path clip-path="url(#clip192)" d="M1852.13 1375.94 L1852.13 1396.96 L1887.05 1396.96 L1887.05 1375.94 L1852.13 1375.94 L1852.13 1375.94  Z" fill="#009af9" fill-rule="evenodd" fill-opacity="1"/>
<polyline clip-path="url(#clip192)" style="stroke:#000000; stroke-linecap:round; stroke-linejoin:round; stroke-width:4; stroke-opacity:1; fill:none" points="1852.13,1375.94 1852.13,1396.96 1887.05,1396.96 1887.05,1375.94 1852.13,1375.94 "/>
<path clip-path="url(#clip192)" d="M1887.05 1333.9 L1887.05 1396.96 L1921.97 1396.96 L1921.97 1333.9 L1887.05 1333.9 L1887.05 1333.9  Z" fill="#009af9" fill-rule="evenodd" fill-opacity="1"/>
<polyline clip-path="url(#clip192)" style="stroke:#000000; stroke-linecap:round; stroke-linejoin:round; stroke-width:4; stroke-opacity:1; fill:none" points="1887.05,1333.9 1887.05,1396.96 1921.97,1396.96 1921.97,1333.9 1887.05,1333.9 "/>
<path clip-path="url(#clip192)" d="M1921.97 1365.43 L1921.97 1396.96 L1956.88 1396.96 L1956.88 1365.43 L1921.97 1365.43 L1921.97 1365.43  Z" fill="#009af9" fill-rule="evenodd" fill-opacity="1"/>
<polyline clip-path="url(#clip192)" style="stroke:#000000; stroke-linecap:round; stroke-linejoin:round; stroke-width:4; stroke-opacity:1; fill:none" points="1921.97,1365.43 1921.97,1396.96 1956.88,1396.96 1956.88,1365.43 1921.97,1365.43 "/>
<path clip-path="url(#clip192)" d="M1956.88 1365.43 L1956.88 1396.96 L1991.8 1396.96 L1991.8 1365.43 L1956.88 1365.43 L1956.88 1365.43  Z" fill="#009af9" fill-rule="evenodd" fill-opacity="1"/>
<polyline clip-path="url(#clip192)" style="stroke:#000000; stroke-linecap:round; stroke-linejoin:round; stroke-width:4; stroke-opacity:1; fill:none" points="1956.88,1365.43 1956.88,1396.96 1991.8,1396.96 1991.8,1365.43 1956.88,1365.43 "/>
<path clip-path="url(#clip192)" d="M1991.8 1365.43 L1991.8 1396.96 L2026.72 1396.96 L2026.72 1365.43 L1991.8 1365.43 L1991.8 1365.43  Z" fill="#009af9" fill-rule="evenodd" fill-opacity="1"/>
<polyline clip-path="url(#clip192)" style="stroke:#000000; stroke-linecap:round; stroke-linejoin:round; stroke-width:4; stroke-opacity:1; fill:none" points="1991.8,1365.43 1991.8,1396.96 2026.72,1396.96 2026.72,1365.43 1991.8,1365.43 "/>
<path clip-path="url(#clip192)" d="M2026.72 1391.7 L2026.72 1396.96 L2061.64 1396.96 L2061.64 1391.7 L2026.72 1391.7 L2026.72 1391.7  Z" fill="#009af9" fill-rule="evenodd" fill-opacity="1"/>
<polyline clip-path="url(#clip192)" style="stroke:#000000; stroke-linecap:round; stroke-linejoin:round; stroke-width:4; stroke-opacity:1; fill:none" points="2026.72,1391.7 2026.72,1396.96 2061.64,1396.96 2061.64,1391.7 2026.72,1391.7 "/>
<path clip-path="url(#clip192)" d="M2061.64 1391.7 L2061.64 1396.96 L2096.56 1396.96 L2096.56 1391.7 L2061.64 1391.7 L2061.64 1391.7  Z" fill="#009af9" fill-rule="evenodd" fill-opacity="1"/>
<polyline clip-path="url(#clip192)" style="stroke:#000000; stroke-linecap:round; stroke-linejoin:round; stroke-width:4; stroke-opacity:1; fill:none" points="2061.64,1391.7 2061.64,1396.96 2096.56,1396.96 2096.56,1391.7 2061.64,1391.7 "/>
<path clip-path="url(#clip192)" d="M2096.56 1391.7 L2096.56 1396.96 L2131.47 1396.96 L2131.47 1391.7 L2096.56 1391.7 L2096.56 1391.7  Z" fill="#009af9" fill-rule="evenodd" fill-opacity="1"/>
<polyline clip-path="url(#clip192)" style="stroke:#000000; stroke-linecap:round; stroke-linejoin:round; stroke-width:4; stroke-opacity:1; fill:none" points="2096.56,1391.7 2096.56,1396.96 2131.47,1396.96 2131.47,1391.7 2096.56,1391.7 "/>
<path clip-path="url(#clip192)" d="M2131.47 1386.45 L2131.47 1396.96 L2166.39 1396.96 L2166.39 1386.45 L2131.47 1386.45 L2131.47 1386.45  Z" fill="#009af9" fill-rule="evenodd" fill-opacity="1"/>
<polyline clip-path="url(#clip192)" style="stroke:#000000; stroke-linecap:round; stroke-linejoin:round; stroke-width:4; stroke-opacity:1; fill:none" points="2131.47,1386.45 2131.47,1396.96 2166.39,1396.96 2166.39,1386.45 2131.47,1386.45 "/>
<path clip-path="url(#clip192)" d="M2166.39 1391.7 L2166.39 1396.96 L2201.31 1396.96 L2201.31 1391.7 L2166.39 1391.7 L2166.39 1391.7  Z" fill="#009af9" fill-rule="evenodd" fill-opacity="1"/>
<polyline clip-path="url(#clip192)" style="stroke:#000000; stroke-linecap:round; stroke-linejoin:round; stroke-width:4; stroke-opacity:1; fill:none" points="2166.39,1391.7 2166.39,1396.96 2201.31,1396.96 2201.31,1391.7 2166.39,1391.7 "/>
<path clip-path="url(#clip192)" d="M2201.31 1391.7 L2201.31 1396.96 L2236.23 1396.96 L2236.23 1391.7 L2201.31 1391.7 L2201.31 1391.7  Z" fill="#009af9" fill-rule="evenodd" fill-opacity="1"/>
<polyline clip-path="url(#clip192)" style="stroke:#000000; stroke-linecap:round; stroke-linejoin:round; stroke-width:4; stroke-opacity:1; fill:none" points="2201.31,1391.7 2201.31,1396.96 2236.23,1396.96 2236.23,1391.7 2201.31,1391.7 "/>
<circle clip-path="url(#clip192)" style="fill:#009af9; stroke:none; fill-opacity:0" cx="368.113" cy="1386.45" r="2"/>
<circle clip-path="url(#clip192)" style="fill:#009af9; stroke:none; fill-opacity:0" cx="403.031" cy="1391.7" r="2"/>
<circle clip-path="url(#clip192)" style="fill:#009af9; stroke:none; fill-opacity:0" cx="437.949" cy="1396.96" r="2"/>
<circle clip-path="url(#clip192)" style="fill:#009af9; stroke:none; fill-opacity:0" cx="472.867" cy="1391.7" r="2"/>
<circle clip-path="url(#clip192)" style="fill:#009af9; stroke:none; fill-opacity:0" cx="507.785" cy="1386.45" r="2"/>
<circle clip-path="url(#clip192)" style="fill:#009af9; stroke:none; fill-opacity:0" cx="542.703" cy="1354.92" r="2"/>
<circle clip-path="url(#clip192)" style="fill:#009af9; stroke:none; fill-opacity:0" cx="577.621" cy="1386.45" r="2"/>
<circle clip-path="url(#clip192)" style="fill:#009af9; stroke:none; fill-opacity:0" cx="612.539" cy="1391.7" r="2"/>
<circle clip-path="url(#clip192)" style="fill:#009af9; stroke:none; fill-opacity:0" cx="647.457" cy="1365.43" r="2"/>
<circle clip-path="url(#clip192)" style="fill:#009af9; stroke:none; fill-opacity:0" cx="682.375" cy="1365.43" r="2"/>
<circle clip-path="url(#clip192)" style="fill:#009af9; stroke:none; fill-opacity:0" cx="717.293" cy="1349.66" r="2"/>
<circle clip-path="url(#clip192)" style="fill:#009af9; stroke:none; fill-opacity:0" cx="752.211" cy="1339.15" r="2"/>
<circle clip-path="url(#clip192)" style="fill:#009af9; stroke:none; fill-opacity:0" cx="787.129" cy="1349.66" r="2"/>
<circle clip-path="url(#clip192)" style="fill:#009af9; stroke:none; fill-opacity:0" cx="822.047" cy="1349.66" r="2"/>
<circle clip-path="url(#clip192)" style="fill:#009af9; stroke:none; fill-opacity:0" cx="856.965" cy="1328.64" r="2"/>
<circle clip-path="url(#clip192)" style="fill:#009af9; stroke:none; fill-opacity:0" cx="891.883" cy="1318.13" r="2"/>
<circle clip-path="url(#clip192)" style="fill:#009af9; stroke:none; fill-opacity:0" cx="926.801" cy="1312.88" r="2"/>
<circle clip-path="url(#clip192)" style="fill:#009af9; stroke:none; fill-opacity:0" cx="961.719" cy="1286.61" r="2"/>
<circle clip-path="url(#clip192)" style="fill:#009af9; stroke:none; fill-opacity:0" cx="996.637" cy="1307.63" r="2"/>
<circle clip-path="url(#clip192)" style="fill:#009af9; stroke:none; fill-opacity:0" cx="1031.56" cy="1260.33" r="2"/>
<circle clip-path="url(#clip192)" style="fill:#009af9; stroke:none; fill-opacity:0" cx="1066.47" cy="1144.73" r="2"/>
<circle clip-path="url(#clip192)" style="fill:#009af9; stroke:none; fill-opacity:0" cx="1101.39" cy="1160.49" r="2"/>
<circle clip-path="url(#clip192)" style="fill:#009af9; stroke:none; fill-opacity:0" cx="1136.31" cy="892.504" r="2"/>
<circle clip-path="url(#clip192)" style="fill:#009af9; stroke:none; fill-opacity:0" cx="1171.23" cy="598.241" r="2"/>
<circle clip-path="url(#clip192)" style="fill:#009af9; stroke:none; fill-opacity:0" cx="1206.15" cy="466.873" r="2"/>
<circle clip-path="url(#clip192)" style="fill:#009af9; stroke:none; fill-opacity:0" cx="1241.06" cy="298.723" r="2"/>
<circle clip-path="url(#clip192)" style="fill:#009af9; stroke:none; fill-opacity:0" cx="1275.98" cy="156.846" r="2"/>
<circle clip-path="url(#clip192)" style="fill:#009af9; stroke:none; fill-opacity:0" cx="1310.9" cy="219.902" r="2"/>
<circle clip-path="url(#clip192)" style="fill:#009af9; stroke:none; fill-opacity:0" cx="1345.82" cy="319.741" r="2"/>
<circle clip-path="url(#clip192)" style="fill:#009af9; stroke:none; fill-opacity:0" cx="1380.74" cy="466.873" r="2"/>
<circle clip-path="url(#clip192)" style="fill:#009af9; stroke:none; fill-opacity:0" cx="1415.65" cy="787.41" r="2"/>
<circle clip-path="url(#clip192)" style="fill:#009af9; stroke:none; fill-opacity:0" cx="1450.57" cy="939.796" r="2"/>
<circle clip-path="url(#clip192)" style="fill:#009af9; stroke:none; fill-opacity:0" cx="1485.49" cy="1171" r="2"/>
<circle clip-path="url(#clip192)" style="fill:#009af9; stroke:none; fill-opacity:0" cx="1520.41" cy="1192.02" r="2"/>
<circle clip-path="url(#clip192)" style="fill:#009af9; stroke:none; fill-opacity:0" cx="1555.33" cy="1234.06" r="2"/>
<circle clip-path="url(#clip192)" style="fill:#009af9; stroke:none; fill-opacity:0" cx="1590.24" cy="1260.33" r="2"/>
<circle clip-path="url(#clip192)" style="fill:#009af9; stroke:none; fill-opacity:0" cx="1625.16" cy="1297.12" r="2"/>
<circle clip-path="url(#clip192)" style="fill:#009af9; stroke:none; fill-opacity:0" cx="1660.08" cy="1328.64" r="2"/>
<circle clip-path="url(#clip192)" style="fill:#009af9; stroke:none; fill-opacity:0" cx="1695" cy="1328.64" r="2"/>
<circle clip-path="url(#clip192)" style="fill:#009af9; stroke:none; fill-opacity:0" cx="1729.92" cy="1302.37" r="2"/>
<circle clip-path="url(#clip192)" style="fill:#009af9; stroke:none; fill-opacity:0" cx="1764.83" cy="1354.92" r="2"/>
<circle clip-path="url(#clip192)" style="fill:#009af9; stroke:none; fill-opacity:0" cx="1799.75" cy="1365.43" r="2"/>
<circle clip-path="url(#clip192)" style="fill:#009af9; stroke:none; fill-opacity:0" cx="1834.67" cy="1360.17" r="2"/>
<circle clip-path="url(#clip192)" style="fill:#009af9; stroke:none; fill-opacity:0" cx="1869.59" cy="1375.94" r="2"/>
<circle clip-path="url(#clip192)" style="fill:#009af9; stroke:none; fill-opacity:0" cx="1904.51" cy="1333.9" r="2"/>
<circle clip-path="url(#clip192)" style="fill:#009af9; stroke:none; fill-opacity:0" cx="1939.42" cy="1365.43" r="2"/>
<circle clip-path="url(#clip192)" style="fill:#009af9; stroke:none; fill-opacity:0" cx="1974.34" cy="1365.43" r="2"/>
<circle clip-path="url(#clip192)" style="fill:#009af9; stroke:none; fill-opacity:0" cx="2009.26" cy="1365.43" r="2"/>
<circle clip-path="url(#clip192)" style="fill:#009af9; stroke:none; fill-opacity:0" cx="2044.18" cy="1391.7" r="2"/>
<circle clip-path="url(#clip192)" style="fill:#009af9; stroke:none; fill-opacity:0" cx="2079.1" cy="1391.7" r="2"/>
<circle clip-path="url(#clip192)" style="fill:#009af9; stroke:none; fill-opacity:0" cx="2114.01" cy="1391.7" r="2"/>
<circle clip-path="url(#clip192)" style="fill:#009af9; stroke:none; fill-opacity:0" cx="2148.93" cy="1386.45" r="2"/>
<circle clip-path="url(#clip192)" style="fill:#009af9; stroke:none; fill-opacity:0" cx="2183.85" cy="1391.7" r="2"/>
<circle clip-path="url(#clip192)" style="fill:#009af9; stroke:none; fill-opacity:0" cx="2218.77" cy="1391.7" r="2"/>
</svg>
