<?xml version="1.0" encoding="utf-8"?>
<svg xmlns="http://www.w3.org/2000/svg" xmlns:xlink="http://www.w3.org/1999/xlink" width="600" height="400" viewBox="0 0 2400 1600">
<defs>
  <clipPath id="clip060">
    <rect x="0" y="0" width="2400" height="1600"/>
  </clipPath>
</defs>
<path clip-path="url(#clip060)" d="M0 1600 L2400 1600 L2400 0 L0 0  Z" fill="#ffffff" fill-rule="evenodd" fill-opacity="1"/>
<defs>
  <clipPath id="clip061">
    <rect x="480" y="0" width="1681" height="1600"/>
  </clipPath>
</defs>
<path clip-path="url(#clip060)" d="M265.145 1380.58 L2352.76 1380.58 L2352.76 47.2441 L265.145 47.2441  Z" fill="#ffffff" fill-rule="evenodd" fill-opacity="1"/>
<defs>
  <clipPath id="clip062">
    <rect x="265" y="47" width="2089" height="1334"/>
  </clipPath>
</defs>
<polyline clip-path="url(#clip062)" style="stroke:#000000; stroke-linecap:round; stroke-linejoin:round; stroke-width:2; stroke-opacity:0.1; fill:none" points="547.296,1380.58 547.296,47.2441 "/>
<polyline clip-path="url(#clip062)" style="stroke:#000000; stroke-linecap:round; stroke-linejoin:round; stroke-width:2; stroke-opacity:0.1; fill:none" points="1685.23,1380.58 1685.23,47.2441 "/>
<polyline clip-path="url(#clip062)" style="stroke:#000000; stroke-linecap:round; stroke-linejoin:round; stroke-width:2; stroke-opacity:0.1; fill:none" points="265.145,1309.52 2352.76,1309.52 "/>
<polyline clip-path="url(#clip062)" style="stroke:#000000; stroke-linecap:round; stroke-linejoin:round; stroke-width:2; stroke-opacity:0.1; fill:none" points="265.145,1153.01 2352.76,1153.01 "/>
<polyline clip-path="url(#clip062)" style="stroke:#000000; stroke-linecap:round; stroke-linejoin:round; stroke-width:2; stroke-opacity:0.1; fill:none" points="265.145,996.494 2352.76,996.494 "/>
<polyline clip-path="url(#clip062)" style="stroke:#000000; stroke-linecap:round; stroke-linejoin:round; stroke-width:2; stroke-opacity:0.1; fill:none" points="265.145,839.982 2352.76,839.982 "/>
<polyline clip-path="url(#clip062)" style="stroke:#000000; stroke-linecap:round; stroke-linejoin:round; stroke-width:2; stroke-opacity:0.1; fill:none" points="265.145,683.469 2352.76,683.469 "/>
<polyline clip-path="url(#clip062)" style="stroke:#000000; stroke-linecap:round; stroke-linejoin:round; stroke-width:2; stroke-opacity:0.1; fill:none" points="265.145,526.957 2352.76,526.957 "/>
<polyline clip-path="url(#clip062)" style="stroke:#000000; stroke-linecap:round; stroke-linejoin:round; stroke-width:2; stroke-opacity:0.1; fill:none" points="265.145,370.445 2352.76,370.445 "/>
<polyline clip-path="url(#clip062)" style="stroke:#000000; stroke-linecap:round; stroke-linejoin:round; stroke-width:2; stroke-opacity:0.1; fill:none" points="265.145,213.932 2352.76,213.932 "/>
<polyline clip-path="url(#clip062)" style="stroke:#000000; stroke-linecap:round; stroke-linejoin:round; stroke-width:2; stroke-opacity:0.1; fill:none" points="265.145,57.42 2352.76,57.42 "/>
<polyline clip-path="url(#clip060)" style="stroke:#000000; stroke-linecap:round; stroke-linejoin:round; stroke-width:4; stroke-opacity:1; fill:none" points="265.145,1380.58 2352.76,1380.58 "/>
<polyline clip-path="url(#clip060)" style="stroke:#000000; stroke-linecap:round; stroke-linejoin:round; stroke-width:4; stroke-opacity:1; fill:none" points="547.296,1380.58 547.296,1361.69 "/>
<polyline clip-path="url(#clip060)" style="stroke:#000000; stroke-linecap:round; stroke-linejoin:round; stroke-width:4; stroke-opacity:1; fill:none" points="1685.23,1380.58 1685.23,1361.69 "/>
<path clip-path="url(#clip060)" d="M512.74 1454.71 L520.379 1454.71 L520.379 1428.34 L512.069 1430.01 L512.069 1425.75 L520.332 1424.08 L525.008 1424.08 L525.008 1454.71 L532.647 1454.71 L532.647 1458.64 L512.74 1458.64 L512.74 1454.71 Z" fill="#000000" fill-rule="nonzero" fill-opacity="1" /><path clip-path="url(#clip060)" d="M552.092 1427.16 Q548.48 1427.16 546.652 1430.73 Q544.846 1434.27 544.846 1441.4 Q544.846 1448.51 546.652 1452.07 Q548.48 1455.61 552.092 1455.61 Q555.726 1455.61 557.531 1452.07 Q559.36 1448.51 559.36 1441.4 Q559.36 1434.27 557.531 1430.73 Q555.726 1427.16 552.092 1427.16 M552.092 1423.46 Q557.902 1423.46 560.957 1428.07 Q564.036 1432.65 564.036 1441.4 Q564.036 1450.13 560.957 1454.73 Q557.902 1459.32 552.092 1459.32 Q546.281 1459.32 543.203 1454.73 Q540.147 1450.13 540.147 1441.4 Q540.147 1432.65 543.203 1428.07 Q546.281 1423.46 552.092 1423.46 Z" fill="#000000" fill-rule="nonzero" fill-opacity="1" /><path clip-path="url(#clip060)" d="M576.731 1416.09 Q579.458 1416.68 580.982 1418.52 Q582.524 1420.36 582.524 1423.07 Q582.524 1427.23 579.665 1429.5 Q576.806 1431.78 571.54 1431.78 Q569.772 1431.78 567.892 1431.42 Q566.03 1431.08 564.036 1430.39 L564.036 1426.72 Q565.616 1427.64 567.497 1428.11 Q569.377 1428.58 571.427 1428.58 Q575.001 1428.58 576.863 1427.17 Q578.744 1425.76 578.744 1423.07 Q578.744 1420.59 576.994 1419.2 Q575.264 1417.79 572.161 1417.79 L568.888 1417.79 L568.888 1414.66 L572.311 1414.66 Q575.114 1414.66 576.6 1413.56 Q578.085 1412.43 578.085 1410.32 Q578.085 1408.16 576.543 1407.01 Q575.02 1405.84 572.161 1405.84 Q570.6 1405.84 568.813 1406.18 Q567.026 1406.52 564.882 1407.24 L564.882 1403.85 Q567.045 1403.25 568.926 1402.95 Q570.826 1402.65 572.499 1402.65 Q576.825 1402.65 579.345 1404.62 Q581.866 1406.58 581.866 1409.93 Q581.866 1412.26 580.53 1413.88 Q579.195 1415.47 576.731 1416.09 Z" fill="#000000" fill-rule="nonzero" fill-opacity="1" /><path clip-path="url(#clip060)" d="M1649.69 1454.71 L1657.33 1454.71 L1657.33 1428.34 L1649.01 1430.01 L1649.01 1425.75 L1657.28 1424.08 L1661.95 1424.08 L1661.95 1454.71 L1669.59 1454.71 L1669.59 1458.64 L1649.69 1458.64 L1649.69 1454.71 Z" fill="#000000" fill-rule="nonzero" fill-opacity="1" /><path clip-path="url(#clip060)" d="M1689.04 1427.16 Q1685.43 1427.16 1683.6 1430.73 Q1681.79 1434.27 1681.79 1441.4 Q1681.79 1448.51 1683.6 1452.07 Q1685.43 1455.61 1689.04 1455.61 Q1692.67 1455.61 1694.48 1452.07 Q1696.31 1448.51 1696.31 1441.4 Q1696.31 1434.27 1694.48 1430.73 Q1692.67 1427.16 1689.04 1427.16 M1689.04 1423.46 Q1694.85 1423.46 1697.9 1428.07 Q1700.98 1432.65 1700.98 1441.4 Q1700.98 1450.13 1697.9 1454.73 Q1694.85 1459.32 1689.04 1459.32 Q1683.23 1459.32 1680.15 1454.73 Q1677.09 1450.13 1677.09 1441.4 Q1677.09 1432.65 1680.15 1428.07 Q1683.23 1423.46 1689.04 1423.46 Z" fill="#000000" fill-rule="nonzero" fill-opacity="1" /><path clip-path="url(#clip060)" d="M1713.66 1406.46 L1704.07 1421.45 L1713.66 1421.45 L1713.66 1406.46 M1712.66 1403.15 L1717.44 1403.15 L1717.44 1421.45 L1721.45 1421.45 L1721.45 1424.61 L1717.44 1424.61 L1717.44 1431.23 L1713.66 1431.23 L1713.66 1424.61 L1700.98 1424.61 L1700.98 1420.95 L1712.66 1403.15 Z" fill="#000000" fill-rule="nonzero" fill-opacity="1" /><path clip-path="url(#clip060)" d="M1213.07 1571.84 L1213.07 1509.94 Q1213.07 1507.98 1214.39 1507.98 Q1215.71 1507.98 1215.71 1510.04 L1215.71 1571.68 Q1215.71 1573.81 1214.39 1573.81 Q1213.07 1573.81 1213.07 1571.84 M1220.35 1571.84 L1220.35 1510.42 Q1220.35 1507.98 1221.67 1507.98 Q1222.99 1507.98 1222.99 1510.04 L1222.99 1571.68 Q1222.99 1573.81 1221.67 1573.81 Q1220.35 1573.81 1220.35 1571.84 Z" fill="#000000" fill-rule="nonzero" fill-opacity="1" /><path clip-path="url(#clip060)" d="M1290.98 1556.06 Q1290.98 1556.67 1290.73 1556.99 Q1290.5 1557.28 1290.28 1557.35 Q1290.08 1557.38 1289.79 1557.38 Q1288.96 1557.38 1286.06 1557.28 Q1283.16 1557.19 1282.32 1557.19 Q1280.97 1557.19 1278.2 1557.28 Q1275.43 1557.38 1274.08 1557.38 Q1273.17 1557.38 1273.17 1556.64 Q1273.17 1556.16 1273.27 1555.9 Q1273.37 1555.61 1273.63 1555.51 Q1273.92 1555.38 1274.08 1555.38 Q1274.27 1555.35 1274.75 1555.35 Q1275.4 1555.35 1276.07 1555.29 Q1276.75 1555.19 1277.59 1555 Q1278.42 1554.8 1278.94 1554.32 Q1279.49 1553.84 1279.49 1553.16 Q1279.49 1552.87 1279.26 1550.49 Q1279.04 1548.11 1278.75 1545.34 Q1278.46 1542.53 1278.42 1542.15 L1261.87 1542.15 Q1260.36 1544.76 1259.29 1546.56 Q1258.23 1548.36 1257.84 1548.97 Q1257.46 1549.59 1257.23 1549.97 Q1257.01 1550.36 1256.88 1550.58 Q1255.94 1552.29 1255.94 1553.03 Q1255.94 1555.09 1259.04 1555.35 Q1260.1 1555.35 1260.1 1556.12 Q1260.1 1556.7 1259.84 1557.03 Q1259.58 1557.32 1259.36 1557.35 Q1259.17 1557.38 1258.84 1557.38 Q1257.78 1557.38 1255.56 1557.28 Q1253.34 1557.19 1252.24 1557.19 Q1251.31 1557.19 1249.37 1557.28 Q1247.44 1557.38 1246.57 1557.38 Q1246.19 1557.38 1245.96 1557.15 Q1245.74 1556.93 1245.74 1556.64 Q1245.74 1556.19 1245.8 1555.93 Q1245.9 1555.67 1246.15 1555.54 Q1246.41 1555.42 1246.54 1555.42 Q1246.67 1555.38 1247.12 1555.35 Q1249.57 1555.19 1251.47 1554.03 Q1253.4 1552.84 1255.24 1549.78 L1278.17 1511.26 Q1278.39 1510.88 1278.55 1510.68 Q1278.71 1510.49 1279.04 1510.33 Q1279.39 1510.17 1279.91 1510.17 Q1280.71 1510.17 1280.87 1510.42 Q1281.03 1510.65 1281.13 1511.74 L1285.16 1552.97 Q1285.25 1553.84 1285.32 1554.19 Q1285.41 1554.51 1285.83 1554.87 Q1286.28 1555.19 1287.09 1555.29 Q1287.93 1555.35 1289.47 1555.35 Q1290.05 1555.35 1290.28 1555.38 Q1290.5 1555.38 1290.73 1555.54 Q1290.98 1555.71 1290.98 1556.06 M1278.23 1540.09 L1276.14 1518.35 L1263.13 1540.09 L1278.23 1540.09 Z" fill="#000000" fill-rule="nonzero" fill-opacity="1" /><path clip-path="url(#clip060)" d="M1297.59 1497.93 Q1297.59 1490.13 1300.5 1483.84 Q1301.74 1481.2 1303.47 1479 Q1305.21 1476.79 1306.36 1475.82 Q1307.51 1474.85 1307.82 1474.85 Q1308.27 1474.85 1308.3 1475.3 Q1308.3 1475.52 1307.69 1476.09 Q1300.25 1483.66 1300.27 1497.93 Q1300.27 1512.25 1307.51 1519.53 Q1308.3 1520.32 1308.3 1520.57 Q1308.3 1521.02 1307.82 1521.02 Q1307.51 1521.02 1306.4 1520.09 Q1305.3 1519.17 1303.58 1517.05 Q1301.87 1514.93 1300.63 1512.34 Q1297.59 1506.05 1297.59 1497.93 Z" fill="#000000" fill-rule="nonzero" fill-opacity="1" /><path clip-path="url(#clip060)" d="M1336.65 1502.87 Q1336.65 1503.05 1336.44 1503.75 Q1336.24 1504.45 1335.74 1505.53 Q1335.27 1506.61 1334.62 1507.6 Q1333.96 1508.57 1332.88 1509.29 Q1331.82 1509.99 1330.6 1509.99 Q1328.98 1509.99 1327.9 1508.91 Q1326.82 1507.83 1326.82 1506.21 Q1326.82 1505.3 1327.29 1504.06 Q1330.29 1496.06 1330.29 1493.31 Q1330.29 1490.09 1327.79 1490.09 Q1326.55 1490.09 1325.37 1490.56 Q1324.22 1491.01 1323.43 1491.64 Q1322.65 1492.27 1321.92 1493.15 Q1321.22 1494.01 1320.86 1494.6 Q1320.53 1495.16 1320.26 1495.72 L1319.67 1498.02 Q1319.53 1498.65 1318.88 1501.11 L1317.87 1505.28 Q1317.14 1508.39 1316.99 1508.69 Q1316.76 1509.32 1316.27 1509.66 Q1315.77 1509.99 1315.27 1509.99 Q1314.71 1509.99 1314.33 1509.66 Q1313.94 1509.32 1313.94 1508.73 Q1313.94 1508.64 1314.01 1508.3 Q1314.08 1507.96 1314.19 1507.49 Q1314.3 1507.02 1314.35 1506.75 L1317.03 1496.08 Q1317.53 1494.15 1317.64 1493.54 Q1317.78 1492.91 1317.78 1492.21 Q1317.78 1490.09 1316.33 1490.09 Q1315.16 1490.09 1314.39 1491.48 Q1313.63 1492.88 1312.97 1495.59 Q1312.77 1496.33 1312.64 1496.49 Q1312.52 1496.65 1312.18 1496.65 Q1311.62 1496.62 1311.62 1496.17 Q1311.62 1496.06 1311.8 1495.32 Q1311.98 1494.57 1312.32 1493.51 Q1312.68 1492.43 1313.02 1491.71 Q1313.31 1491.17 1313.47 1490.92 Q1313.65 1490.65 1314.08 1490.13 Q1314.53 1489.59 1315.12 1489.34 Q1315.72 1489.07 1316.47 1489.07 Q1318.14 1489.07 1319.35 1490.15 Q1320.57 1491.21 1320.73 1493.09 Q1323.73 1489.07 1327.92 1489.07 Q1330.4 1489.07 1331.82 1490.38 Q1333.24 1491.69 1333.24 1494.01 Q1333.24 1494.55 1333.13 1495.25 Q1333.04 1495.93 1332.81 1496.78 Q1332.61 1497.64 1332.43 1498.29 Q1332.25 1498.95 1331.89 1500.01 Q1331.53 1501.04 1331.37 1501.49 Q1331.21 1501.95 1330.83 1503 Q1330.47 1504.04 1330.42 1504.15 Q1329.59 1506.25 1329.59 1507.45 Q1329.59 1508.24 1329.84 1508.6 Q1330.11 1508.96 1330.69 1508.96 Q1332.27 1508.96 1333.44 1507.4 Q1334.64 1505.82 1335.41 1503.25 Q1335.59 1502.69 1335.68 1502.55 Q1335.79 1502.42 1336.1 1502.42 Q1336.65 1502.42 1336.65 1502.87 Z" fill="#000000" fill-rule="nonzero" fill-opacity="1" /><path clip-path="url(#clip060)" d="M1341.07 1520.57 Q1341.07 1520.34 1341.66 1519.78 Q1349.1 1512.2 1349.1 1497.93 Q1349.1 1483.62 1341.95 1476.38 Q1341.07 1475.55 1341.07 1475.3 Q1341.07 1474.85 1341.52 1474.85 Q1341.84 1474.85 1342.95 1475.77 Q1344.07 1476.7 1345.76 1478.82 Q1347.48 1480.93 1348.74 1483.53 Q1351.78 1489.82 1351.78 1497.93 Q1351.78 1505.73 1348.87 1512.02 Q1347.63 1514.66 1345.9 1516.87 Q1344.16 1519.08 1343.01 1520.05 Q1341.86 1521.02 1341.52 1521.02 Q1341.07 1521.02 1341.07 1520.57 Z" fill="#000000" fill-rule="nonzero" fill-opacity="1" /><path clip-path="url(#clip060)" d="M1365.84 1571.84 L1365.84 1509.94 Q1365.84 1507.98 1367.16 1507.98 Q1368.48 1507.98 1368.48 1510.04 L1368.48 1571.68 Q1368.48 1573.81 1367.16 1573.81 Q1365.84 1573.81 1365.84 1571.84 M1373.12 1571.84 L1373.12 1510.42 Q1373.12 1507.98 1374.44 1507.98 Q1375.76 1507.98 1375.76 1510.04 L1375.76 1571.68 Q1375.76 1573.81 1374.44 1573.81 Q1373.12 1573.81 1373.12 1571.84 Z" fill="#000000" fill-rule="nonzero" fill-opacity="1" /><path clip-path="url(#clip060)" d="M1382.7 1565.57 L1382.7 1564.13 Q1388.24 1564.13 1391.1 1561.17 Q1391.89 1561.17 1392.03 1561.35 Q1392.16 1561.53 1392.16 1562.37 L1392.16 1588.27 Q1392.16 1589.65 1392.84 1590.07 Q1393.52 1590.5 1396.47 1590.5 L1397.94 1590.5 L1397.94 1591.92 Q1396.31 1591.79 1390.45 1591.79 Q1384.59 1591.79 1382.99 1591.92 L1382.99 1590.5 L1384.45 1590.5 Q1387.36 1590.5 1388.06 1590.1 Q1388.76 1589.67 1388.76 1588.27 L1388.76 1564.35 Q1386.35 1565.57 1382.7 1565.57 Z" fill="#000000" fill-rule="nonzero" fill-opacity="1" /><polyline clip-path="url(#clip060)" style="stroke:#000000; stroke-linecap:round; stroke-linejoin:round; stroke-width:4; stroke-opacity:1; fill:none" points="265.145,1380.58 265.145,47.2441 "/>
<polyline clip-path="url(#clip060)" style="stroke:#000000; stroke-linecap:round; stroke-linejoin:round; stroke-width:4; stroke-opacity:1; fill:none" points="265.145,1309.52 284.043,1309.52 "/>
<polyline clip-path="url(#clip060)" style="stroke:#000000; stroke-linecap:round; stroke-linejoin:round; stroke-width:4; stroke-opacity:1; fill:none" points="265.145,1153.01 284.043,1153.01 "/>
<polyline clip-path="url(#clip060)" style="stroke:#000000; stroke-linecap:round; stroke-linejoin:round; stroke-width:4; stroke-opacity:1; fill:none" points="265.145,996.494 284.043,996.494 "/>
<polyline clip-path="url(#clip060)" style="stroke:#000000; stroke-linecap:round; stroke-linejoin:round; stroke-width:4; stroke-opacity:1; fill:none" points="265.145,839.982 284.043,839.982 "/>
<polyline clip-path="url(#clip060)" style="stroke:#000000; stroke-linecap:round; stroke-linejoin:round; stroke-width:4; stroke-opacity:1; fill:none" points="265.145,683.469 284.043,683.469 "/>
<polyline clip-path="url(#clip060)" style="stroke:#000000; stroke-linecap:round; stroke-linejoin:round; stroke-width:4; stroke-opacity:1; fill:none" points="265.145,526.957 284.043,526.957 "/>
<polyline clip-path="url(#clip060)" style="stroke:#000000; stroke-linecap:round; stroke-linejoin:round; stroke-width:4; stroke-opacity:1; fill:none" points="265.145,370.445 284.043,370.445 "/>
<polyline clip-path="url(#clip060)" style="stroke:#000000; stroke-linecap:round; stroke-linejoin:round; stroke-width:4; stroke-opacity:1; fill:none" points="265.145,213.932 284.043,213.932 "/>
<polyline clip-path="url(#clip060)" style="stroke:#000000; stroke-linecap:round; stroke-linejoin:round; stroke-width:4; stroke-opacity:1; fill:none" points="265.145,57.42 284.043,57.42 "/>
<path clip-path="url(#clip060)" d="M127.783 1329.31 L135.421 1329.31 L135.421 1302.95 L127.111 1304.61 L127.111 1300.35 L135.375 1298.69 L140.051 1298.69 L140.051 1329.31 L147.69 1329.31 L147.69 1333.25 L127.783 1333.25 L127.783 1329.31 Z" fill="#000000" fill-rule="nonzero" fill-opacity="1" /><path clip-path="url(#clip060)" d="M167.134 1301.76 Q163.523 1301.76 161.694 1305.33 Q159.889 1308.87 159.889 1316 Q159.889 1323.11 161.694 1326.67 Q163.523 1330.21 167.134 1330.21 Q170.768 1330.21 172.574 1326.67 Q174.403 1323.11 174.403 1316 Q174.403 1308.87 172.574 1305.33 Q170.768 1301.76 167.134 1301.76 M167.134 1298.06 Q172.944 1298.06 176 1302.67 Q179.079 1307.25 179.079 1316 Q179.079 1324.73 176 1329.33 Q172.944 1333.92 167.134 1333.92 Q161.324 1333.92 158.245 1329.33 Q155.19 1324.73 155.19 1316 Q155.19 1307.25 158.245 1302.67 Q161.324 1298.06 167.134 1298.06 Z" fill="#000000" fill-rule="nonzero" fill-opacity="1" /><path clip-path="url(#clip060)" d="M179.079 1292.16 L203.19 1292.16 L203.19 1295.36 L179.079 1295.36 L179.079 1292.16 Z" fill="#000000" fill-rule="nonzero" fill-opacity="1" /><path clip-path="url(#clip060)" d="M219.515 1292.5 Q216.807 1292.5 215.246 1293.95 Q213.704 1295.4 213.704 1297.94 Q213.704 1300.48 215.246 1301.92 Q216.807 1303.37 219.515 1303.37 Q222.224 1303.37 223.785 1301.92 Q225.346 1300.46 225.346 1297.94 Q225.346 1295.4 223.785 1293.95 Q222.242 1292.5 219.515 1292.5 M215.716 1290.88 Q213.271 1290.28 211.898 1288.61 Q210.544 1286.93 210.544 1284.53 Q210.544 1281.16 212.933 1279.2 Q215.34 1277.25 219.515 1277.25 Q223.709 1277.25 226.098 1279.2 Q228.487 1281.16 228.487 1284.53 Q228.487 1286.93 227.114 1288.61 Q225.759 1290.28 223.333 1290.88 Q226.079 1291.52 227.603 1293.39 Q229.145 1295.25 229.145 1297.94 Q229.145 1302.02 226.643 1304.2 Q224.161 1306.38 219.515 1306.38 Q214.87 1306.38 212.368 1304.2 Q209.886 1302.02 209.886 1297.94 Q209.886 1295.25 211.428 1293.39 Q212.97 1291.52 215.716 1290.88 M214.324 1284.88 Q214.324 1287.07 215.679 1288.29 Q217.051 1289.51 219.515 1289.51 Q221.96 1289.51 223.333 1288.29 Q224.725 1287.07 224.725 1284.88 Q224.725 1282.7 223.333 1281.48 Q221.96 1280.26 219.515 1280.26 Q217.051 1280.26 215.679 1281.48 Q214.324 1282.7 214.324 1284.88 Z" fill="#000000" fill-rule="nonzero" fill-opacity="1" /><path clip-path="url(#clip060)" d="M128.441 1172.8 L136.08 1172.8 L136.08 1146.43 L127.77 1148.1 L127.77 1143.84 L136.033 1142.17 L140.709 1142.17 L140.709 1172.8 L148.348 1172.8 L148.348 1176.73 L128.441 1176.73 L128.441 1172.8 Z" fill="#000000" fill-rule="nonzero" fill-opacity="1" /><path clip-path="url(#clip060)" d="M167.792 1145.25 Q164.181 1145.25 162.353 1148.82 Q160.547 1152.36 160.547 1159.49 Q160.547 1166.6 162.353 1170.16 Q164.181 1173.7 167.792 1173.7 Q171.427 1173.7 173.232 1170.16 Q175.061 1166.6 175.061 1159.49 Q175.061 1152.36 173.232 1148.82 Q171.427 1145.25 167.792 1145.25 M167.792 1141.55 Q173.603 1141.55 176.658 1146.16 Q179.737 1150.74 179.737 1159.49 Q179.737 1168.22 176.658 1172.82 Q173.603 1177.41 167.792 1177.41 Q161.982 1177.41 158.904 1172.82 Q155.848 1168.22 155.848 1159.49 Q155.848 1150.74 158.904 1146.16 Q161.982 1141.55 167.792 1141.55 Z" fill="#000000" fill-rule="nonzero" fill-opacity="1" /><path clip-path="url(#clip060)" d="M179.737 1135.65 L203.848 1135.65 L203.848 1138.85 L179.737 1138.85 L179.737 1135.65 Z" fill="#000000" fill-rule="nonzero" fill-opacity="1" /><path clip-path="url(#clip060)" d="M211.089 1121.24 L229.145 1121.24 L229.145 1122.86 L218.951 1149.32 L214.983 1149.32 L224.575 1124.44 L211.089 1124.44 L211.089 1121.24 Z" fill="#000000" fill-rule="nonzero" fill-opacity="1" /><path clip-path="url(#clip060)" d="M127.576 1016.29 L135.215 1016.29 L135.215 989.921 L126.904 991.587 L126.904 987.328 L135.168 985.662 L139.844 985.662 L139.844 1016.29 L147.483 1016.29 L147.483 1020.22 L127.576 1020.22 L127.576 1016.29 Z" fill="#000000" fill-rule="nonzero" fill-opacity="1" /><path clip-path="url(#clip060)" d="M166.927 988.74 Q163.316 988.74 161.488 992.305 Q159.682 995.847 159.682 1002.98 Q159.682 1010.08 161.488 1013.65 Q163.316 1017.19 166.927 1017.19 Q170.562 1017.19 172.367 1013.65 Q174.196 1010.08 174.196 1002.98 Q174.196 995.847 172.367 992.305 Q170.562 988.74 166.927 988.74 M166.927 985.037 Q172.737 985.037 175.793 989.643 Q178.872 994.226 178.872 1002.98 Q178.872 1011.7 175.793 1016.31 Q172.737 1020.89 166.927 1020.89 Q161.117 1020.89 158.038 1016.31 Q154.983 1011.7 154.983 1002.98 Q154.983 994.226 158.038 989.643 Q161.117 985.037 166.927 985.037 Z" fill="#000000" fill-rule="nonzero" fill-opacity="1" /><path clip-path="url(#clip060)" d="M178.872 979.138 L202.983 979.138 L202.983 982.335 L178.872 982.335 L178.872 979.138 Z" fill="#000000" fill-rule="nonzero" fill-opacity="1" /><path clip-path="url(#clip060)" d="M219.779 977.257 Q217.221 977.257 215.716 979.006 Q214.23 980.755 214.23 983.802 Q214.23 986.83 215.716 988.598 Q217.221 990.347 219.779 990.347 Q222.336 990.347 223.822 988.598 Q225.327 986.83 225.327 983.802 Q225.327 980.755 223.822 979.006 Q222.336 977.257 219.779 977.257 M227.321 965.352 L227.321 968.812 Q225.891 968.135 224.424 967.778 Q222.976 967.421 221.547 967.421 Q217.785 967.421 215.791 969.96 Q213.817 972.499 213.534 977.633 Q214.644 975.997 216.318 975.132 Q217.992 974.248 220.004 974.248 Q224.236 974.248 226.681 976.825 Q229.145 979.382 229.145 983.802 Q229.145 988.128 226.587 990.742 Q224.029 993.357 219.779 993.357 Q214.907 993.357 212.331 989.633 Q209.754 985.89 209.754 978.799 Q209.754 972.141 212.914 968.192 Q216.073 964.223 221.396 964.223 Q222.825 964.223 224.274 964.506 Q225.741 964.788 227.321 965.352 Z" fill="#000000" fill-rule="nonzero" fill-opacity="1" /><path clip-path="url(#clip060)" d="M128.516 859.774 L136.155 859.774 L136.155 833.409 L127.845 835.075 L127.845 830.816 L136.109 829.149 L140.785 829.149 L140.785 859.774 L148.423 859.774 L148.423 863.709 L128.516 863.709 L128.516 859.774 Z" fill="#000000" fill-rule="nonzero" fill-opacity="1" /><path clip-path="url(#clip060)" d="M167.868 832.228 Q164.257 832.228 162.428 835.793 Q160.622 839.334 160.622 846.464 Q160.622 853.57 162.428 857.135 Q164.257 860.677 167.868 860.677 Q171.502 860.677 173.308 857.135 Q175.136 853.57 175.136 846.464 Q175.136 839.334 173.308 835.793 Q171.502 832.228 167.868 832.228 M167.868 828.524 Q173.678 828.524 176.733 833.131 Q179.812 837.714 179.812 846.464 Q179.812 855.191 176.733 859.797 Q173.678 864.381 167.868 864.381 Q162.058 864.381 158.979 859.797 Q155.923 855.191 155.923 846.464 Q155.923 837.714 158.979 833.131 Q162.058 828.524 167.868 828.524 Z" fill="#000000" fill-rule="nonzero" fill-opacity="1" /><path clip-path="url(#clip060)" d="M179.812 822.626 L203.924 822.626 L203.924 825.823 L179.812 825.823 L179.812 822.626 Z" fill="#000000" fill-rule="nonzero" fill-opacity="1" /><path clip-path="url(#clip060)" d="M212.161 808.219 L227.076 808.219 L227.076 811.416 L215.641 811.416 L215.641 818.3 Q216.468 818.018 217.296 817.886 Q218.124 817.736 218.951 817.736 Q223.653 817.736 226.399 820.312 Q229.145 822.889 229.145 827.29 Q229.145 831.823 226.324 834.343 Q223.503 836.844 218.368 836.844 Q216.6 836.844 214.757 836.543 Q212.933 836.242 210.977 835.641 L210.977 831.823 Q212.669 832.744 214.475 833.196 Q216.28 833.647 218.293 833.647 Q221.547 833.647 223.446 831.935 Q225.346 830.224 225.346 827.29 Q225.346 824.356 223.446 822.644 Q221.547 820.933 218.293 820.933 Q216.769 820.933 215.246 821.271 Q213.741 821.61 212.161 822.325 L212.161 808.219 Z" fill="#000000" fill-rule="nonzero" fill-opacity="1" /><path clip-path="url(#clip060)" d="M127.312 703.262 L134.951 703.262 L134.951 676.896 L126.641 678.563 L126.641 674.304 L134.905 672.637 L139.581 672.637 L139.581 703.262 L147.22 703.262 L147.22 707.197 L127.312 707.197 L127.312 703.262 Z" fill="#000000" fill-rule="nonzero" fill-opacity="1" /><path clip-path="url(#clip060)" d="M166.664 675.716 Q163.053 675.716 161.224 679.28 Q159.419 682.822 159.419 689.952 Q159.419 697.058 161.224 700.623 Q163.053 704.165 166.664 704.165 Q170.298 704.165 172.104 700.623 Q173.933 697.058 173.933 689.952 Q173.933 682.822 172.104 679.28 Q170.298 675.716 166.664 675.716 M166.664 672.012 Q172.474 672.012 175.53 676.618 Q178.608 681.202 178.608 689.952 Q178.608 698.678 175.53 703.285 Q172.474 707.868 166.664 707.868 Q160.854 707.868 157.775 703.285 Q154.72 698.678 154.72 689.952 Q154.72 681.202 157.775 676.618 Q160.854 672.012 166.664 672.012 Z" fill="#000000" fill-rule="nonzero" fill-opacity="1" /><path clip-path="url(#clip060)" d="M178.608 666.113 L202.72 666.113 L202.72 669.311 L178.608 669.311 L178.608 666.113 Z" fill="#000000" fill-rule="nonzero" fill-opacity="1" /><path clip-path="url(#clip060)" d="M221.358 655.017 L211.767 670.006 L221.358 670.006 L221.358 655.017 M220.362 651.707 L225.139 651.707 L225.139 670.006 L229.145 670.006 L229.145 673.166 L225.139 673.166 L225.139 679.787 L221.358 679.787 L221.358 673.166 L208.682 673.166 L208.682 669.499 L220.362 651.707 Z" fill="#000000" fill-rule="nonzero" fill-opacity="1" /><path clip-path="url(#clip060)" d="M128.234 546.749 L135.873 546.749 L135.873 520.384 L127.563 522.05 L127.563 517.791 L135.827 516.125 L140.502 516.125 L140.502 546.749 L148.141 546.749 L148.141 550.685 L128.234 550.685 L128.234 546.749 Z" fill="#000000" fill-rule="nonzero" fill-opacity="1" /><path clip-path="url(#clip060)" d="M167.586 519.203 Q163.975 519.203 162.146 522.768 Q160.34 526.31 160.34 533.439 Q160.34 540.546 162.146 544.111 Q163.975 547.652 167.586 547.652 Q171.22 547.652 173.025 544.111 Q174.854 540.546 174.854 533.439 Q174.854 526.31 173.025 522.768 Q171.22 519.203 167.586 519.203 M167.586 515.5 Q173.396 515.5 176.451 520.106 Q179.53 524.689 179.53 533.439 Q179.53 542.166 176.451 546.773 Q173.396 551.356 167.586 551.356 Q161.775 551.356 158.697 546.773 Q155.641 542.166 155.641 533.439 Q155.641 524.689 158.697 520.106 Q161.775 515.5 167.586 515.5 Z" fill="#000000" fill-rule="nonzero" fill-opacity="1" /><path clip-path="url(#clip060)" d="M179.53 509.601 L203.642 509.601 L203.642 512.798 L179.53 512.798 L179.53 509.601 Z" fill="#000000" fill-rule="nonzero" fill-opacity="1" /><path clip-path="url(#clip060)" d="M223.352 508.134 Q226.079 508.717 227.603 510.56 Q229.145 512.403 229.145 515.112 Q229.145 519.268 226.286 521.544 Q223.427 523.82 218.161 523.82 Q216.393 523.82 214.512 523.462 Q212.65 523.124 210.657 522.428 L210.657 518.76 Q212.237 519.682 214.117 520.152 Q215.998 520.622 218.048 520.622 Q221.622 520.622 223.484 519.212 Q225.365 517.801 225.365 515.112 Q225.365 512.629 223.615 511.237 Q221.885 509.827 218.782 509.827 L215.509 509.827 L215.509 506.705 L218.932 506.705 Q221.735 506.705 223.22 505.595 Q224.706 504.466 224.706 502.36 Q224.706 500.197 223.164 499.05 Q221.641 497.884 218.782 497.884 Q217.221 497.884 215.434 498.222 Q213.647 498.561 211.503 499.275 L211.503 495.89 Q213.666 495.288 215.547 494.987 Q217.446 494.686 219.12 494.686 Q223.446 494.686 225.966 496.661 Q228.487 498.617 228.487 501.965 Q228.487 504.297 227.151 505.915 Q225.816 507.513 223.352 508.134 Z" fill="#000000" fill-rule="nonzero" fill-opacity="1" /><path clip-path="url(#clip060)" d="M129.005 390.237 L136.644 390.237 L136.644 363.871 L128.334 365.538 L128.334 361.279 L136.598 359.612 L141.274 359.612 L141.274 390.237 L148.912 390.237 L148.912 394.172 L129.005 394.172 L129.005 390.237 Z" fill="#000000" fill-rule="nonzero" fill-opacity="1" /><path clip-path="url(#clip060)" d="M168.357 362.691 Q164.746 362.691 162.917 366.256 Q161.111 369.797 161.111 376.927 Q161.111 384.033 162.917 387.598 Q164.746 391.14 168.357 391.14 Q171.991 391.14 173.797 387.598 Q175.625 384.033 175.625 376.927 Q175.625 369.797 173.797 366.256 Q171.991 362.691 168.357 362.691 M168.357 358.987 Q174.167 358.987 177.222 363.594 Q180.301 368.177 180.301 376.927 Q180.301 385.654 177.222 390.26 Q174.167 394.844 168.357 394.844 Q162.547 394.844 159.468 390.26 Q156.412 385.654 156.412 376.927 Q156.412 368.177 159.468 363.594 Q162.547 358.987 168.357 358.987 Z" fill="#000000" fill-rule="nonzero" fill-opacity="1" /><path clip-path="url(#clip060)" d="M180.301 353.089 L204.413 353.089 L204.413 356.286 L180.301 356.286 L180.301 353.089 Z" fill="#000000" fill-rule="nonzero" fill-opacity="1" /><path clip-path="url(#clip060)" d="M215.885 363.565 L229.145 363.565 L229.145 366.762 L211.315 366.762 L211.315 363.565 Q213.478 361.326 217.202 357.565 Q220.945 353.784 221.904 352.694 Q223.728 350.644 224.443 349.233 Q225.176 347.804 225.176 346.431 Q225.176 344.193 223.597 342.782 Q222.036 341.371 219.515 341.371 Q217.729 341.371 215.735 341.992 Q213.76 342.613 211.503 343.873 L211.503 340.036 Q213.798 339.114 215.791 338.644 Q217.785 338.174 219.44 338.174 Q223.803 338.174 226.399 340.356 Q228.994 342.537 228.994 346.186 Q228.994 347.916 228.336 349.478 Q227.697 351.02 225.985 353.126 Q225.515 353.672 222.995 356.286 Q220.475 358.881 215.885 363.565 Z" fill="#000000" fill-rule="nonzero" fill-opacity="1" /><path clip-path="url(#clip060)" d="M128.704 233.725 L136.343 233.725 L136.343 207.359 L128.033 209.026 L128.033 204.767 L136.297 203.1 L140.973 203.1 L140.973 233.725 L148.611 233.725 L148.611 237.66 L128.704 237.66 L128.704 233.725 Z" fill="#000000" fill-rule="nonzero" fill-opacity="1" /><path clip-path="url(#clip060)" d="M168.056 206.179 Q164.445 206.179 162.616 209.743 Q160.81 213.285 160.81 220.415 Q160.81 227.521 162.616 231.086 Q164.445 234.628 168.056 234.628 Q171.69 234.628 173.496 231.086 Q175.324 227.521 175.324 220.415 Q175.324 213.285 173.496 209.743 Q171.69 206.179 168.056 206.179 M168.056 202.475 Q173.866 202.475 176.921 207.081 Q180 211.665 180 220.415 Q180 229.141 176.921 233.748 Q173.866 238.331 168.056 238.331 Q162.246 238.331 159.167 233.748 Q156.111 229.141 156.111 220.415 Q156.111 211.665 159.167 207.081 Q162.246 202.475 168.056 202.475 Z" fill="#000000" fill-rule="nonzero" fill-opacity="1" /><path clip-path="url(#clip060)" d="M180 196.576 L204.112 196.576 L204.112 199.774 L180 199.774 L180 196.576 Z" fill="#000000" fill-rule="nonzero" fill-opacity="1" /><path clip-path="url(#clip060)" d="M212.97 207.052 L219.177 207.052 L219.177 185.63 L212.425 186.984 L212.425 183.524 L219.139 182.17 L222.938 182.17 L222.938 207.052 L229.145 207.052 L229.145 210.25 L212.97 210.25 L212.97 207.052 Z" fill="#000000" fill-rule="nonzero" fill-opacity="1" /><path clip-path="url(#clip060)" d="M158.439 77.2124 L166.078 77.2124 L166.078 50.8468 L157.768 52.5135 L157.768 48.2542 L166.032 46.5876 L170.708 46.5876 L170.708 77.2124 L178.347 77.2124 L178.347 81.1476 L158.439 81.1476 L158.439 77.2124 Z" fill="#000000" fill-rule="nonzero" fill-opacity="1" /><path clip-path="url(#clip060)" d="M197.791 49.6663 Q194.18 49.6663 192.351 53.2311 Q190.546 56.7727 190.546 63.9023 Q190.546 71.0087 192.351 74.5735 Q194.18 78.1152 197.791 78.1152 Q201.425 78.1152 203.231 74.5735 Q205.059 71.0087 205.059 63.9023 Q205.059 56.7727 203.231 53.2311 Q201.425 49.6663 197.791 49.6663 M197.791 45.9626 Q203.601 45.9626 206.657 50.569 Q209.735 55.1524 209.735 63.9023 Q209.735 72.6291 206.657 77.2356 Q203.601 81.8189 197.791 81.8189 Q191.981 81.8189 188.902 77.2356 Q185.847 72.6291 185.847 63.9023 Q185.847 55.1524 188.902 50.569 Q191.981 45.9626 197.791 45.9626 Z" fill="#000000" fill-rule="nonzero" fill-opacity="1" /><path clip-path="url(#clip060)" d="M219.44 28.1586 Q216.506 28.1586 215.02 31.055 Q213.553 33.9326 213.553 39.7254 Q213.553 45.4994 215.02 48.3958 Q216.506 51.2734 219.44 51.2734 Q222.393 51.2734 223.86 48.3958 Q225.346 45.4994 225.346 39.7254 Q225.346 33.9326 223.86 31.055 Q222.393 28.1586 219.44 28.1586 M219.44 25.1494 Q224.161 25.1494 226.643 28.8921 Q229.145 32.6161 229.145 39.7254 Q229.145 46.8159 226.643 50.5587 Q224.161 54.2826 219.44 54.2826 Q214.719 54.2826 212.218 50.5587 Q209.735 46.8159 209.735 39.7254 Q209.735 32.6161 212.218 28.8921 Q214.719 25.1494 219.44 25.1494 Z" fill="#000000" fill-rule="nonzero" fill-opacity="1" /><path clip-path="url(#clip060)" d="M42.3863 1164.47 L40.3252 1164.47 Q40.3252 1156.55 36.1062 1152.46 Q36.1062 1151.33 36.3638 1151.14 Q36.6215 1150.95 37.8131 1150.95 L74.8176 1150.95 Q76.7822 1150.95 77.3941 1149.98 Q78.006 1149.01 78.006 1144.8 L78.006 1142.7 L80.035 1142.7 Q79.8418 1145.02 79.8418 1153.39 Q79.8418 1161.77 80.035 1164.06 L78.006 1164.06 L78.006 1161.96 Q78.006 1157.81 77.4263 1156.81 Q76.8144 1155.81 74.8176 1155.81 L40.6472 1155.81 Q42.3863 1159.26 42.3863 1164.47 Z" fill="#000000" fill-rule="nonzero" fill-opacity="1" /><path clip-path="url(#clip060)" d="M62.6116 1069.96 Q62.9981 1069.58 63.5456 1069.58 Q64.0931 1069.58 64.4796 1069.96 Q64.866 1070.35 64.866 1070.9 L64.866 1112.19 Q64.866 1112.73 64.4796 1113.12 Q64.0931 1113.51 63.5456 1113.51 Q62.9981 1113.51 62.6116 1113.12 Q62.2251 1112.73 62.2251 1112.19 L62.2251 1070.9 Q62.2251 1070.35 62.6116 1069.96 Z" fill="#000000" fill-rule="nonzero" fill-opacity="1" /><path clip-path="url(#clip060)" d="M94.4954 1044.39 L33.0788 1044.39 Q30.6312 1044.39 30.6312 1043.07 Q30.6312 1041.75 32.5958 1041.75 L94.0123 1041.75 Q96.46 1041.75 96.46 1043.07 Q96.46 1044.39 94.4954 1044.39 Z" fill="#000000" fill-rule="nonzero" fill-opacity="1" /><path clip-path="url(#clip060)" d="M95.2039 1002.25 Q95.7514 1002.25 96.1379 1002.64 Q96.5244 1003.03 96.5244 1003.57 Q96.5244 1004.51 95.6548 1004.83 L63.9965 1017.1 Q63.8676 1017.16 63.5456 1017.16 Q63.2235 1017.16 63.0947 1017.1 L31.4363 1004.83 Q30.5668 1004.51 30.5668 1003.57 Q30.5668 1003.03 30.9533 1002.64 Q31.3397 1002.25 31.8872 1002.25 Q32.2093 1002.25 32.3381 1002.32 L63.5456 1014.46 L94.7531 1002.32 Q94.8819 1002.25 95.2039 1002.25 Z" fill="#000000" fill-rule="nonzero" fill-opacity="1" /><path clip-path="url(#clip060)" d="M36.9757 943.948 L48.3766 945.268 Q49.4072 945.365 49.7293 945.526 Q50.0191 945.687 50.0191 946.202 Q50.0191 946.589 49.7937 946.814 Q49.536 947.007 49.2462 947.007 Q49.0852 947.007 48.6665 946.975 Q48.2478 946.943 48.0546 946.943 Q46.0578 946.653 44.5441 946.653 Q41.7422 946.653 40.2285 947.491 Q38.6827 948.328 37.9741 950.486 Q37.2334 952.643 37.2334 956.701 L37.2334 965.977 Q37.2334 968.102 37.6199 968.618 Q38.0063 969.101 39.8099 969.552 L55.6874 973.513 L55.6874 967.297 Q55.6874 964.978 55.3975 963.593 Q55.1076 962.176 54.3025 961.242 Q53.4652 960.276 52.3379 959.761 Q51.2107 959.213 49.1818 958.666 Q48.5054 958.505 48.2478 958.344 Q47.9902 958.151 47.9902 957.732 Q47.9902 957.41 48.2156 957.185 Q48.4088 956.959 48.6987 956.959 L64.1253 960.727 Q64.8982 960.92 65.1881 961.114 Q65.4457 961.307 65.4457 961.693 Q65.4457 962.112 65.2203 962.337 Q64.9948 962.563 64.7372 962.563 Q64.4796 962.563 63.9965 962.37 Q61.9031 961.887 60.7759 961.887 Q60.1318 961.887 59.8097 961.951 Q59.4876 961.983 59.0368 962.273 Q58.5537 962.531 58.3282 963.11 Q58.1028 963.69 57.9418 964.785 Q57.7485 965.88 57.7485 967.523 L57.7485 974.028 L75.7516 978.537 Q76.9432 978.859 77.2653 978.859 Q77.6195 978.859 77.7484 978.698 Q77.845 978.505 77.9094 977.99 Q78.006 977.41 78.006 976.54 L78.006 966.911 Q78.006 964.785 77.8128 963.078 Q77.6195 961.371 77.1365 959.954 Q76.6534 958.505 76.1059 957.41 Q75.5584 956.315 74.56 955.284 Q73.5294 954.254 72.6276 953.545 Q71.6937 952.805 70.1156 951.935 Q68.5375 951.065 67.2493 950.454 Q65.9288 949.842 63.8032 948.908 Q63.0303 948.65 63.0303 948.038 Q63.0303 947.684 63.2235 947.491 Q63.3846 947.297 63.5456 947.265 L63.7388 947.265 Q64.3507 947.458 64.6728 947.587 L78.9078 953.642 Q79.7129 953.996 79.874 954.286 Q80.035 954.576 80.035 955.703 L80.035 989.938 Q80.035 990.711 80.0028 991.033 Q79.9706 991.323 79.8095 991.548 Q79.6163 991.774 79.2298 991.774 Q78.6179 991.774 78.3603 991.516 Q78.0704 991.258 78.0382 990.968 Q78.006 990.679 78.006 989.938 Q78.006 988.328 77.9094 987.361 Q77.8128 986.395 77.684 985.783 Q77.5229 985.139 77.072 984.817 Q76.6212 984.463 76.2347 984.302 Q75.816 984.141 74.882 983.915 L40.0031 975.22 Q38.8115 974.898 38.425 974.898 Q38.0063 974.898 37.7487 975.188 Q37.491 975.445 37.3944 976.154 Q37.2656 976.862 37.2656 977.442 Q37.2334 977.99 37.2334 979.181 Q37.2334 979.954 37.2012 980.276 Q37.169 980.566 37.008 980.791 Q36.8469 981.017 36.4927 981.017 Q35.5909 981.017 35.3977 980.63 Q35.1722 980.212 35.1722 979.052 L35.1722 945.751 Q35.1722 944.431 35.4621 944.141 Q35.7197 943.819 36.9757 943.948 Z" fill="#000000" fill-rule="nonzero" fill-opacity="1" /><path clip-path="url(#clip060)" d="M72.2659 937.249 L70.8231 937.249 Q70.8231 931.703 67.8698 928.84 Q67.8698 928.051 68.0502 927.916 Q68.2305 927.781 69.0647 927.781 L94.9678 927.781 Q96.343 927.781 96.7714 927.104 Q97.1997 926.428 97.1997 923.475 L97.1997 922.009 L98.62 922.009 Q98.4847 923.633 98.4847 929.494 Q98.4847 935.356 98.62 936.956 L97.1997 936.956 L97.1997 935.491 Q97.1997 932.583 96.7939 931.884 Q96.3656 931.185 94.9678 931.185 L71.0485 931.185 Q72.2659 933.597 72.2659 937.249 Z" fill="#000000" fill-rule="nonzero" fill-opacity="1" /><path clip-path="url(#clip060)" d="M91.1804 918.488 Q89.8052 918.488 89.2867 917.744 Q88.7457 917 88.7457 916.211 Q88.7457 915.151 89.422 914.543 Q90.0758 913.911 91.0001 913.911 Q91.9244 913.911 92.6007 914.543 Q93.2545 915.151 93.2545 916.211 Q93.2545 916.729 93.1643 917 Q95.2835 916.391 96.8165 914.543 Q98.3495 912.671 98.3495 910.214 Q98.3495 907.126 95.3511 905.277 Q93.4123 904.172 89.0162 904.172 Q85.1386 904.172 83.1998 905.006 Q80.2465 906.291 80.2465 908.929 Q80.2465 912.671 83.4703 914.881 Q83.8761 915.151 83.8987 915.467 Q83.8987 915.918 83.6507 916.03 Q83.3802 916.121 82.6813 916.121 L69.0196 916.121 Q67.9149 916.121 67.9149 915.67 Q67.9149 915.489 68.0502 915.106 Q69.3352 912.198 69.3577 908.974 Q69.3577 905.66 68.0051 902.684 Q67.8698 902.459 67.8698 902.324 Q67.8698 901.873 68.3883 901.85 Q68.5687 901.85 69.1098 902.234 Q69.6283 902.594 70.3271 903.383 Q71.0035 904.172 71.6572 905.187 Q72.311 906.201 72.7619 907.689 Q73.1902 909.155 73.1902 910.778 Q73.1902 912.717 72.5815 914.7 L81.5766 914.7 Q79.2321 912.311 79.2321 908.839 Q79.2321 905.142 82.2079 902.594 Q85.1837 900.047 89.3318 900.047 Q93.6828 900.047 96.6586 903.068 Q99.6345 906.066 99.6345 910.124 Q99.6345 913.821 96.9968 916.166 Q94.3592 918.488 91.1804 918.488 Z" fill="#000000" fill-rule="nonzero" fill-opacity="1" /><path clip-path="url(#clip060)" d="M91.0001 898.559 L89.5798 898.559 L67.9149 884.379 Q67.3513 884.019 67.3739 883.455 Q67.3739 882.936 67.5768 882.824 Q67.7797 882.711 68.5687 882.711 L89.5798 882.711 L89.5798 878.089 L91.0001 878.089 L91.0001 882.711 L95.0129 882.711 Q96.343 882.711 96.7714 882.17 Q97.1997 881.606 97.1997 879.217 L97.1997 878.247 L98.62 878.247 Q98.4847 880.141 98.4847 884.514 Q98.4847 888.865 98.62 890.759 L97.1997 890.759 L97.1997 889.79 Q97.1997 887.4 96.7939 886.837 Q96.3656 886.273 95.0129 886.273 L91.0001 886.273 L91.0001 898.559 M89.5798 897.252 L89.5798 886.002 L72.3561 886.002 L89.5798 897.252 Z" fill="#000000" fill-rule="nonzero" fill-opacity="1" /><path clip-path="url(#clip060)" d="M63.5456 868.655 Q52.4024 868.655 43.4169 864.5 Q39.6488 862.729 36.4927 860.249 Q33.3365 857.769 31.9516 856.127 Q30.5668 854.484 30.5668 854.033 Q30.5668 853.389 31.2109 853.357 Q31.533 853.357 32.3381 854.226 Q43.1593 864.854 63.5456 864.822 Q83.9963 864.822 94.3988 854.484 Q95.526 853.357 95.8803 853.357 Q96.5244 853.357 96.5244 854.033 Q96.5244 854.484 95.2039 856.062 Q93.8835 857.64 90.8562 860.088 Q87.8288 862.536 84.1251 864.307 Q75.1397 868.655 63.5456 868.655 Z" fill="#000000" fill-rule="nonzero" fill-opacity="1" /><path clip-path="url(#clip060)" d="M35.7197 800.267 Q37.0402 800.267 37.0402 801.362 Q37.1046 803.294 37.491 804.615 Q37.8453 805.935 38.5538 806.708 Q39.2624 807.449 40.0353 807.868 Q40.776 808.254 41.9032 808.512 L65.3169 814.373 Q71.9191 816.048 76.7178 821.459 Q81.4842 826.869 81.4842 833.02 Q81.4842 836.531 80.035 839.462 Q78.5857 842.36 75.655 844.164 Q72.7243 845.967 68.8273 845.967 Q66.9594 845.967 64.9948 845.484 L48.6987 841.491 L42.9016 840.009 Q38.6182 838.914 38.2318 838.914 Q37.6199 838.914 37.4588 839.301 Q37.2656 839.655 37.169 840.685 L37.0402 843.198 Q37.0402 843.97 37.008 844.293 Q36.9757 844.582 36.8147 844.808 Q36.6537 845.033 36.2994 845.033 Q35.8485 845.033 35.5587 844.937 Q35.2366 844.808 35.14 844.582 Q35.0434 844.357 35.0112 844.196 Q34.979 844.035 34.979 843.777 L35.1722 835.275 L34.979 826.837 Q34.979 825.903 35.7197 825.903 Q36.6537 825.903 36.8469 826.322 Q37.0402 826.74 37.0402 828.157 Q37.0402 830.573 37.3622 831.668 Q37.6521 832.731 38.1674 833.053 Q38.6505 833.343 40.0675 833.697 L65.7356 840.106 Q67.0238 840.428 68.3121 840.621 Q69.5681 840.782 70.2122 840.782 L70.8563 840.814 Q74.9465 840.814 77.2009 838.56 Q79.4553 836.273 79.4553 832.763 Q79.4553 827.61 75.3651 822.811 Q71.275 817.98 64.866 816.338 L41.3235 810.412 Q40.7438 810.219 39.9387 810.219 Q38.6505 810.219 37.8775 811.185 Q37.0724 812.119 37.0402 814.695 Q37.0402 815.887 36.2994 815.887 Q35.6875 815.887 35.3977 815.661 Q35.0756 815.404 35.0434 815.211 Q34.979 814.985 34.979 814.695 Q34.979 813.6 35.0756 811.281 Q35.1722 808.963 35.1722 807.835 Q35.1722 806.708 35.0756 804.454 Q34.979 802.199 34.979 801.104 Q34.979 800.718 35.1722 800.525 Q35.3333 800.299 35.5265 800.267 L35.7197 800.267 Z" fill="#000000" fill-rule="nonzero" fill-opacity="1" /><path clip-path="url(#clip060)" d="M95.8803 795.301 Q95.5582 795.301 94.7531 794.464 Q83.9319 783.836 63.5456 783.836 Q43.0949 783.836 32.7568 794.045 Q31.5652 795.301 31.2109 795.301 Q30.5668 795.301 30.5668 794.657 Q30.5668 794.206 31.8872 792.628 Q33.2077 791.018 36.235 788.602 Q39.2624 786.155 42.966 784.351 Q51.9515 780.003 63.5456 780.003 Q74.6888 780.003 83.6742 784.158 Q87.4423 785.929 90.5985 788.409 Q93.7547 790.889 95.1395 792.531 Q96.5244 794.174 96.5244 794.657 Q96.5244 795.301 95.8803 795.301 Z" fill="#000000" fill-rule="nonzero" fill-opacity="1" /><path clip-path="url(#clip060)" d="M94.4954 766.278 L33.0788 766.278 Q30.6312 766.278 30.6312 764.957 Q30.6312 763.637 32.5958 763.637 L94.0123 763.637 Q96.46 763.637 96.46 764.957 Q96.46 766.278 94.4954 766.278 Z" fill="#000000" fill-rule="nonzero" fill-opacity="1" /><path clip-path="url(#clip060)" d="M34.6569 695.317 Q35.3977 696.863 36.1062 697.764 Q37.169 699.246 39.198 700.599 Q41.0659 701.919 43.9 703.239 Q52.6278 707.104 64.0609 709.906 Q68.7951 711.098 71.7903 711.162 Q74.9143 711.162 76.2025 710.164 Q76.9432 709.713 76.9432 708.586 Q76.9432 707.297 76.0093 706.138 Q75.0431 704.882 72.5954 702.982 L73.4972 701.855 Q76.8144 704.238 78.3925 706.202 Q80.6147 709.069 80.6147 711.806 Q80.6147 713.9 79.3909 714.705 Q77.3941 716.283 72.9819 716.154 L75.6872 719.407 Q81.0978 726.234 81.0978 732.386 Q81.0978 735.961 78.2637 738.054 Q77.3297 738.795 75.2041 738.924 Q73.2395 738.924 70.4698 738.247 Q65.5101 736.991 58.0706 733.642 Q50.0191 730.002 45.2204 728.843 Q43.739 728.489 42.9016 728.36 Q42.0643 728.199 40.9693 728.36 Q39.8743 728.489 39.0691 729.101 Q38.6505 729.326 38.3606 729.938 Q38.0707 730.518 38.0707 731.13 Q38.0707 732.16 39.0047 733.513 Q40.776 735.606 43.4813 736.283 Q44.4797 736.54 47.6359 737.023 L48.2478 739.052 Q45.2204 738.666 43.0949 738.183 Q38.9081 737.152 36.2994 733.899 Q34.3993 731.548 34.3993 728.36 Q34.3993 725.365 35.9774 724.205 Q36.8791 723.497 39.2624 723.368 Q41.6778 723.368 44.2865 724.012 Q49.2784 725.3 57.9418 729.23 Q64.2863 732.16 67.5069 732.933 Q70.5021 733.674 73.0463 733.577 Q75.1719 733.577 76.6212 732.643 Q78.2637 731.387 78.2637 728.907 Q78.2637 725.172 74.2379 720.18 Q71.7259 717.152 70.4054 715.768 Q59.4554 713.094 38.425 705.623 Q35.5265 700.566 33.9162 696.251 L34.6569 695.317 Z" fill="#000000" fill-rule="nonzero" fill-opacity="1" /><path clip-path="url(#clip060)" d="M94.4954 690.471 L33.0788 690.471 Q30.6312 690.471 30.6312 689.15 Q30.6312 687.83 32.5958 687.83 L94.0123 687.83 Q96.46 687.83 96.46 689.15 Q96.46 690.471 94.4954 690.471 Z" fill="#000000" fill-rule="nonzero" fill-opacity="1" /><path clip-path="url(#clip060)" d="M36.9757 615.42 L48.3766 616.74 Q49.4072 616.837 49.7293 616.998 Q50.0191 617.159 50.0191 617.674 Q50.0191 618.061 49.7937 618.286 Q49.536 618.479 49.2462 618.479 Q49.0852 618.479 48.6665 618.447 Q48.2478 618.415 48.0546 618.415 Q46.0578 618.125 44.5441 618.125 Q41.7422 618.125 40.2285 618.963 Q38.6827 619.8 37.9741 621.958 Q37.2334 624.115 37.2334 628.173 L37.2334 637.449 Q37.2334 639.574 37.6199 640.09 Q38.0063 640.573 39.8099 641.024 L55.6874 644.985 L55.6874 638.769 Q55.6874 636.45 55.3975 635.065 Q55.1076 633.648 54.3025 632.714 Q53.4652 631.748 52.3379 631.233 Q51.2107 630.685 49.1818 630.138 Q48.5054 629.977 48.2478 629.816 Q47.9902 629.623 47.9902 629.204 Q47.9902 628.882 48.2156 628.656 Q48.4088 628.431 48.6987 628.431 L64.1253 632.199 Q64.8982 632.392 65.1881 632.586 Q65.4457 632.779 65.4457 633.165 Q65.4457 633.584 65.2203 633.809 Q64.9948 634.035 64.7372 634.035 Q64.4796 634.035 63.9965 633.842 Q61.9031 633.359 60.7759 633.359 Q60.1318 633.359 59.8097 633.423 Q59.4876 633.455 59.0368 633.745 Q58.5537 634.003 58.3282 634.582 Q58.1028 635.162 57.9418 636.257 Q57.7485 637.352 57.7485 638.995 L57.7485 645.5 L75.7516 650.009 Q76.9432 650.331 77.2653 650.331 Q77.6195 650.331 77.7484 650.17 Q77.845 649.977 77.9094 649.461 Q78.006 648.882 78.006 648.012 L78.006 638.383 Q78.006 636.257 77.8128 634.55 Q77.6195 632.843 77.1365 631.426 Q76.6534 629.977 76.1059 628.882 Q75.5584 627.787 74.56 626.756 Q73.5294 625.726 72.6276 625.017 Q71.6937 624.276 70.1156 623.407 Q68.5375 622.537 67.2493 621.925 Q65.9288 621.314 63.8032 620.38 Q63.0303 620.122 63.0303 619.51 Q63.0303 619.156 63.2235 618.963 Q63.3846 618.769 63.5456 618.737 L63.7388 618.737 Q64.3507 618.93 64.6728 619.059 L78.9078 625.114 Q79.7129 625.468 79.874 625.758 Q80.035 626.048 80.035 627.175 L80.035 661.41 Q80.035 662.183 80.0028 662.505 Q79.9706 662.795 79.8095 663.02 Q79.6163 663.246 79.2298 663.246 Q78.6179 663.246 78.3603 662.988 Q78.0704 662.73 78.0382 662.44 Q78.006 662.151 78.006 661.41 Q78.006 659.8 77.9094 658.833 Q77.8128 657.867 77.684 657.255 Q77.5229 656.611 77.072 656.289 Q76.6212 655.935 76.2347 655.774 Q75.816 655.613 74.882 655.387 L40.0031 646.692 Q38.8115 646.37 38.425 646.37 Q38.0063 646.37 37.7487 646.66 Q37.491 646.917 37.3944 647.626 Q37.2656 648.334 37.2656 648.914 Q37.2334 649.461 37.2334 650.653 Q37.2334 651.426 37.2012 651.748 Q37.169 652.038 37.008 652.263 Q36.8469 652.489 36.4927 652.489 Q35.5909 652.489 35.3977 652.102 Q35.1722 651.684 35.1722 650.524 L35.1722 617.223 Q35.1722 615.903 35.4621 615.613 Q35.7197 615.291 36.9757 615.42 Z" fill="#000000" fill-rule="nonzero" fill-opacity="1" /><path clip-path="url(#clip060)" d="M98.3115 608.721 Q97.4774 608.721 97.2294 608.654 Q96.9814 608.563 96.5982 608.203 L86.7239 599.343 Q81.2682 594.496 76.5114 594.496 Q73.4229 594.496 71.2135 596.119 Q69.0042 597.72 69.0042 600.673 Q69.0042 602.702 70.2441 604.415 Q71.4841 606.129 73.6934 606.918 Q73.6483 606.782 73.6483 606.309 Q73.6483 605.159 74.3697 604.528 Q75.0911 603.874 76.0605 603.874 Q77.3004 603.874 77.9091 604.686 Q78.4953 605.475 78.4953 606.264 Q78.4953 606.58 78.4276 607.008 Q78.36 607.414 77.7288 608.067 Q77.075 608.721 75.9253 608.721 Q72.7014 608.721 70.1314 606.286 Q67.5614 603.829 67.5614 600.087 Q67.5614 595.849 70.0863 593.076 Q72.5887 590.28 76.5114 590.28 Q77.8866 590.28 79.1491 590.708 Q80.389 591.114 81.3584 591.678 Q82.3278 592.219 83.8833 593.707 Q85.4389 595.195 86.5435 596.39 Q87.6482 597.584 89.9928 600.267 L94.7496 605.159 L94.7496 596.84 Q94.7496 592.783 94.3889 592.467 Q93.7351 592.016 90.2858 591.452 L90.2858 590.28 L98.3115 591.588 L98.3115 608.721 Z" fill="#000000" fill-rule="nonzero" fill-opacity="1" /><path clip-path="url(#clip060)" d="M71.9575 586.633 L70.5147 586.633 Q70.5147 581.088 67.5614 578.224 Q67.5614 577.435 67.7417 577.3 Q67.9221 577.165 68.7562 577.165 L94.6594 577.165 Q96.0346 577.165 96.4629 576.489 Q96.8913 575.812 96.8913 572.859 L96.8913 571.394 L98.3115 571.394 Q98.1763 573.017 98.1763 578.878 Q98.1763 584.74 98.3115 586.34 L96.8913 586.34 L96.8913 584.875 Q96.8913 581.967 96.4855 581.268 Q96.0571 580.569 94.6594 580.569 L70.7401 580.569 Q71.9575 582.981 71.9575 586.633 Z" fill="#000000" fill-rule="nonzero" fill-opacity="1" /><path clip-path="url(#clip060)" d="M90.872 567.872 Q89.4968 567.872 88.9783 567.128 Q88.4372 566.384 88.4372 565.595 Q88.4372 564.535 89.1136 563.927 Q89.7673 563.295 90.6916 563.295 Q91.6159 563.295 92.2923 563.927 Q92.9461 564.535 92.9461 565.595 Q92.9461 566.113 92.8559 566.384 Q94.975 565.775 96.508 563.927 Q98.041 562.056 98.041 559.598 Q98.041 556.51 95.0427 554.661 Q93.1039 553.556 88.7078 553.556 Q84.8302 553.556 82.8914 554.391 Q79.9381 555.676 79.9381 558.313 Q79.9381 562.056 83.1619 564.265 Q83.5677 564.535 83.5902 564.851 Q83.5902 565.302 83.3423 565.415 Q83.0717 565.505 82.3729 565.505 L68.7111 565.505 Q67.6065 565.505 67.6065 565.054 Q67.6065 564.874 67.7417 564.49 Q69.0268 561.582 69.0493 558.358 Q69.0493 555.044 67.6967 552.068 Q67.5614 551.843 67.5614 551.708 Q67.5614 551.257 68.0799 551.234 Q68.2603 551.234 68.8013 551.618 Q69.3198 551.978 70.0187 552.767 Q70.695 553.556 71.3488 554.571 Q72.0026 555.585 72.4535 557.073 Q72.8818 558.539 72.8818 560.162 Q72.8818 562.101 72.2731 564.085 L81.2682 564.085 Q78.9236 561.695 78.9236 558.223 Q78.9236 554.526 81.8994 551.978 Q84.8753 549.431 89.0234 549.431 Q93.3744 549.431 96.3502 552.452 Q99.326 555.45 99.326 559.508 Q99.326 563.205 96.6884 565.55 Q94.0507 567.872 90.872 567.872 Z" fill="#000000" fill-rule="nonzero" fill-opacity="1" /><path clip-path="url(#clip060)" d="M63.5456 537.967 Q52.4024 537.967 43.4169 533.813 Q39.6488 532.041 36.4927 529.561 Q33.3365 527.081 31.9516 525.439 Q30.5668 523.796 30.5668 523.346 Q30.5668 522.701 31.2109 522.669 Q31.533 522.669 32.3381 523.539 Q43.1593 534.167 63.5456 534.135 Q83.9963 534.135 94.3988 523.796 Q95.526 522.669 95.8803 522.669 Q96.5244 522.669 96.5244 523.346 Q96.5244 523.796 95.2039 525.375 Q93.8835 526.953 90.8562 529.4 Q87.8288 531.848 84.1251 533.619 Q75.1397 537.967 63.5456 537.967 Z" fill="#000000" fill-rule="nonzero" fill-opacity="1" /><path clip-path="url(#clip060)" d="M35.7197 469.58 Q37.0402 469.58 37.0402 470.675 Q37.1046 472.607 37.491 473.927 Q37.8453 475.248 38.5538 476.021 Q39.2624 476.761 40.0353 477.18 Q40.776 477.567 41.9032 477.824 L65.3169 483.686 Q71.9191 485.36 76.7178 490.771 Q81.4842 496.182 81.4842 502.333 Q81.4842 505.843 80.035 508.774 Q78.5857 511.673 75.655 513.476 Q72.7243 515.28 68.8273 515.28 Q66.9594 515.28 64.9948 514.797 L48.6987 510.803 L42.9016 509.322 Q38.6182 508.227 38.2318 508.227 Q37.6199 508.227 37.4588 508.613 Q37.2656 508.967 37.169 509.998 L37.0402 512.51 Q37.0402 513.283 37.008 513.605 Q36.9757 513.895 36.8147 514.12 Q36.6537 514.346 36.2994 514.346 Q35.8485 514.346 35.5587 514.249 Q35.2366 514.12 35.14 513.895 Q35.0434 513.669 35.0112 513.508 Q34.979 513.347 34.979 513.09 L35.1722 504.587 L34.979 496.149 Q34.979 495.215 35.7197 495.215 Q36.6537 495.215 36.8469 495.634 Q37.0402 496.053 37.0402 497.47 Q37.0402 499.885 37.3622 500.98 Q37.6521 502.043 38.1674 502.365 Q38.6505 502.655 40.0675 503.009 L65.7356 509.418 Q67.0238 509.74 68.3121 509.933 Q69.5681 510.095 70.2122 510.095 L70.8563 510.127 Q74.9465 510.127 77.2009 507.872 Q79.4553 505.586 79.4553 502.075 Q79.4553 496.922 75.3651 492.124 Q71.275 487.293 64.866 485.65 L41.3235 479.724 Q40.7438 479.531 39.9387 479.531 Q38.6505 479.531 37.8775 480.497 Q37.0724 481.431 37.0402 484.008 Q37.0402 485.199 36.2994 485.199 Q35.6875 485.199 35.3977 484.974 Q35.0756 484.716 35.0434 484.523 Q34.979 484.298 34.979 484.008 Q34.979 482.913 35.0756 480.594 Q35.1722 478.275 35.1722 477.148 Q35.1722 476.021 35.0756 473.766 Q34.979 471.512 34.979 470.417 Q34.979 470.03 35.1722 469.837 Q35.3333 469.612 35.5265 469.58 L35.7197 469.58 Z" fill="#000000" fill-rule="nonzero" fill-opacity="1" /><path clip-path="url(#clip060)" d="M70.019 452.383 Q69.2138 452.319 69.2138 451.063 L69.2138 410.644 Q69.2138 408.744 69.9546 408.712 Q70.7597 408.712 70.7275 410.515 L70.7275 450.612 Q70.7597 452.383 70.019 452.383 M57.1366 452.383 Q56.3315 452.383 56.3637 450.998 L56.3637 410.709 Q56.3637 408.744 57.1366 408.712 Q57.8774 408.712 57.8774 410.387 L57.8774 451.063 Q57.8774 452.383 57.1366 452.383 Z" fill="#000000" fill-rule="nonzero" fill-opacity="1" /><path clip-path="url(#clip060)" d="M58.9401 383.266 Q49.2462 383.266 43.9644 380.818 Q36.1062 377.405 36.1062 369.353 Q36.1062 367.646 36.5893 365.875 Q37.0402 364.071 38.8115 361.817 Q40.5828 359.53 43.4813 358.145 Q49.0852 355.505 58.9401 355.505 Q68.5697 355.505 73.8193 357.952 Q81.4842 361.527 81.4842 369.418 Q81.4842 372.38 79.9706 375.408 Q78.4569 378.403 74.8176 380.303 Q69.3748 383.266 58.9401 383.266 M58.135 377.791 Q68.0866 377.791 72.0479 377.083 Q76.3313 376.277 78.1993 374.087 Q80.035 371.865 80.035 369.418 Q80.035 366.777 78.0704 364.587 Q76.0737 362.364 71.7903 361.688 Q67.5713 360.947 58.135 360.98 Q48.9563 360.98 45.2849 361.624 Q41.0015 362.493 39.2946 364.812 Q37.5555 367.099 37.5555 369.418 Q37.5555 370.287 37.8131 371.221 Q38.0707 372.123 38.8115 373.443 Q39.5522 374.764 41.388 375.794 Q43.2237 376.793 45.9934 377.276 Q49.5682 377.791 58.135 377.791 Z" fill="#000000" fill-rule="nonzero" fill-opacity="1" /><path clip-path="url(#clip060)" d="M95.8803 349.018 Q95.5582 349.018 94.7531 348.181 Q83.9319 337.553 63.5456 337.553 Q43.0949 337.553 32.7568 347.762 Q31.5652 349.018 31.2109 349.018 Q30.5668 349.018 30.5668 348.374 Q30.5668 347.923 31.8872 346.345 Q33.2077 344.735 36.235 342.319 Q39.2624 339.872 42.966 338.068 Q51.9515 333.72 63.5456 333.72 Q74.6888 333.72 83.6742 337.875 Q87.4423 339.646 90.5985 342.126 Q93.7547 344.606 95.1395 346.248 Q96.5244 347.891 96.5244 348.374 Q96.5244 349.018 95.8803 349.018 Z" fill="#000000" fill-rule="nonzero" fill-opacity="1" /><path clip-path="url(#clip060)" d="M63.0947 308.876 Q63.2235 308.811 63.5456 308.811 Q63.8676 308.811 63.9965 308.876 L95.6548 321.146 Q96.5244 321.468 96.5244 322.37 Q96.5244 322.918 96.1379 323.304 Q95.7514 323.691 95.2039 323.691 Q94.8819 323.691 94.7531 323.626 L63.5456 311.517 L32.3381 323.626 Q32.2093 323.691 31.8872 323.691 Q31.3397 323.691 30.9533 323.304 Q30.5668 322.918 30.5668 322.37 Q30.5668 321.468 31.4363 321.146 L63.0947 308.876 Z" fill="#000000" fill-rule="nonzero" fill-opacity="1" /><path clip-path="url(#clip060)" d="M94.4954 298.299 L33.0788 298.299 Q30.6312 298.299 30.6312 296.979 Q30.6312 295.658 32.5958 295.658 L94.0123 295.658 Q96.46 295.658 96.46 296.979 Q96.46 298.299 94.4954 298.299 Z" fill="#000000" fill-rule="nonzero" fill-opacity="1" /><path clip-path="url(#clip060)" d="M40.2358 288.65 Q39.4016 288.65 39.1536 288.582 Q38.9057 288.492 38.5224 288.131 L28.6481 279.272 Q23.1924 274.425 18.4356 274.425 Q15.3471 274.425 13.1378 276.048 Q10.9284 277.648 10.9284 280.602 Q10.9284 282.631 12.1684 284.344 Q13.4083 286.057 15.6176 286.846 Q15.5725 286.711 15.5725 286.238 Q15.5725 285.088 16.2939 284.457 Q17.0153 283.803 17.9847 283.803 Q19.2247 283.803 19.8334 284.615 Q20.4195 285.404 20.4195 286.193 Q20.4195 286.508 20.3519 286.937 Q20.2842 287.342 19.653 287.996 Q18.9992 288.65 17.8495 288.65 Q14.6257 288.65 12.0556 286.215 Q9.48561 283.758 9.48561 280.016 Q9.48561 275.777 12.0105 273.004 Q14.5129 270.209 18.4356 270.209 Q19.8108 270.209 21.0733 270.637 Q22.3132 271.043 23.2826 271.607 Q24.252 272.148 25.8075 273.636 Q27.3631 275.124 28.4677 276.318 Q29.5724 277.513 31.917 280.196 L36.6738 285.088 L36.6738 276.769 Q36.6738 272.711 36.3131 272.396 Q35.6593 271.945 32.2101 271.381 L32.2101 270.209 L40.2358 271.516 L40.2358 288.65 Z" fill="#000000" fill-rule="nonzero" fill-opacity="1" /><circle clip-path="url(#clip062)" cx="881.694" cy="84.9804" r="14.4" fill="#009af9" fill-rule="evenodd" fill-opacity="1" stroke="#000000" stroke-opacity="1" stroke-width="3.2"/>
<circle clip-path="url(#clip062)" cx="443.597" cy="84.9804" r="14.4" fill="#009af9" fill-rule="evenodd" fill-opacity="1" stroke="#000000" stroke-opacity="1" stroke-width="3.2"/>
<circle clip-path="url(#clip062)" cx="443.797" cy="84.9804" r="14.4" fill="#009af9" fill-rule="evenodd" fill-opacity="1" stroke="#000000" stroke-opacity="1" stroke-width="3.2"/>
<circle clip-path="url(#clip062)" cx="442.189" cy="84.9804" r="14.4" fill="#009af9" fill-rule="evenodd" fill-opacity="1" stroke="#000000" stroke-opacity="1" stroke-width="3.2"/>
<circle clip-path="url(#clip062)" cx="2293.67" cy="84.9802" r="14.4" fill="#009af9" fill-rule="evenodd" fill-opacity="1" stroke="#000000" stroke-opacity="1" stroke-width="3.2"/>
<circle clip-path="url(#clip062)" cx="409.664" cy="84.9804" r="14.4" fill="#009af9" fill-rule="evenodd" fill-opacity="1" stroke="#000000" stroke-opacity="1" stroke-width="3.2"/>
<circle clip-path="url(#clip062)" cx="449.9" cy="84.9804" r="14.4" fill="#009af9" fill-rule="evenodd" fill-opacity="1" stroke="#000000" stroke-opacity="1" stroke-width="3.2"/>
<circle clip-path="url(#clip062)" cx="573.249" cy="84.9804" r="14.4" fill="#009af9" fill-rule="evenodd" fill-opacity="1" stroke="#000000" stroke-opacity="1" stroke-width="3.2"/>
<circle clip-path="url(#clip062)" cx="808.707" cy="84.9804" r="14.4" fill="#009af9" fill-rule="evenodd" fill-opacity="1" stroke="#000000" stroke-opacity="1" stroke-width="3.2"/>
<circle clip-path="url(#clip062)" cx="381.986" cy="84.9804" r="14.4" fill="#009af9" fill-rule="evenodd" fill-opacity="1" stroke="#000000" stroke-opacity="1" stroke-width="3.2"/>
<circle clip-path="url(#clip062)" cx="1007.91" cy="84.9804" r="14.4" fill="#009af9" fill-rule="evenodd" fill-opacity="1" stroke="#000000" stroke-opacity="1" stroke-width="3.2"/>
<circle clip-path="url(#clip062)" cx="390.365" cy="84.9804" r="14.4" fill="#009af9" fill-rule="evenodd" fill-opacity="1" stroke="#000000" stroke-opacity="1" stroke-width="3.2"/>
<circle clip-path="url(#clip062)" cx="1074.59" cy="84.9804" r="14.4" fill="#009af9" fill-rule="evenodd" fill-opacity="1" stroke="#000000" stroke-opacity="1" stroke-width="3.2"/>
<circle clip-path="url(#clip062)" cx="1024.12" cy="84.9804" r="14.4" fill="#009af9" fill-rule="evenodd" fill-opacity="1" stroke="#000000" stroke-opacity="1" stroke-width="3.2"/>
<circle clip-path="url(#clip062)" cx="682.504" cy="84.9804" r="14.4" fill="#009af9" fill-rule="evenodd" fill-opacity="1" stroke="#000000" stroke-opacity="1" stroke-width="3.2"/>
<circle clip-path="url(#clip062)" cx="434.702" cy="84.9804" r="14.4" fill="#009af9" fill-rule="evenodd" fill-opacity="1" stroke="#000000" stroke-opacity="1" stroke-width="3.2"/>
<circle clip-path="url(#clip062)" cx="380.626" cy="84.9804" r="14.4" fill="#009af9" fill-rule="evenodd" fill-opacity="1" stroke="#000000" stroke-opacity="1" stroke-width="3.2"/>
<circle clip-path="url(#clip062)" cx="324.228" cy="84.9804" r="14.4" fill="#009af9" fill-rule="evenodd" fill-opacity="1" stroke="#000000" stroke-opacity="1" stroke-width="3.2"/>
<circle clip-path="url(#clip062)" cx="945.098" cy="84.9804" r="14.4" fill="#009af9" fill-rule="evenodd" fill-opacity="1" stroke="#000000" stroke-opacity="1" stroke-width="3.2"/>
<circle clip-path="url(#clip062)" cx="493.182" cy="84.9804" r="14.4" fill="#009af9" fill-rule="evenodd" fill-opacity="1" stroke="#000000" stroke-opacity="1" stroke-width="3.2"/>
<circle clip-path="url(#clip062)" cx="450.538" cy="84.9804" r="14.4" fill="#009af9" fill-rule="evenodd" fill-opacity="1" stroke="#000000" stroke-opacity="1" stroke-width="3.2"/>
<circle clip-path="url(#clip062)" cx="803.011" cy="84.9804" r="14.4" fill="#009af9" fill-rule="evenodd" fill-opacity="1" stroke="#000000" stroke-opacity="1" stroke-width="3.2"/>
<circle clip-path="url(#clip062)" cx="411.344" cy="84.9804" r="14.4" fill="#009af9" fill-rule="evenodd" fill-opacity="1" stroke="#000000" stroke-opacity="1" stroke-width="3.2"/>
<circle clip-path="url(#clip062)" cx="442.83" cy="84.9804" r="14.4" fill="#009af9" fill-rule="evenodd" fill-opacity="1" stroke="#000000" stroke-opacity="1" stroke-width="3.2"/>
<circle clip-path="url(#clip062)" cx="390.817" cy="84.9804" r="14.4" fill="#009af9" fill-rule="evenodd" fill-opacity="1" stroke="#000000" stroke-opacity="1" stroke-width="3.2"/>
<circle clip-path="url(#clip062)" cx="416.758" cy="84.9804" r="14.4" fill="#009af9" fill-rule="evenodd" fill-opacity="1" stroke="#000000" stroke-opacity="1" stroke-width="3.2"/>
<circle clip-path="url(#clip062)" cx="448.172" cy="84.9804" r="14.4" fill="#009af9" fill-rule="evenodd" fill-opacity="1" stroke="#000000" stroke-opacity="1" stroke-width="3.2"/>
<circle clip-path="url(#clip062)" cx="482.585" cy="84.9804" r="14.4" fill="#009af9" fill-rule="evenodd" fill-opacity="1" stroke="#000000" stroke-opacity="1" stroke-width="3.2"/>
<circle clip-path="url(#clip062)" cx="372.864" cy="84.9804" r="14.4" fill="#009af9" fill-rule="evenodd" fill-opacity="1" stroke="#000000" stroke-opacity="1" stroke-width="3.2"/>
<circle clip-path="url(#clip062)" cx="476.796" cy="84.9804" r="14.4" fill="#009af9" fill-rule="evenodd" fill-opacity="1" stroke="#000000" stroke-opacity="1" stroke-width="3.2"/>
<circle clip-path="url(#clip062)" cx="452.413" cy="84.9804" r="14.4" fill="#009af9" fill-rule="evenodd" fill-opacity="1" stroke="#000000" stroke-opacity="1" stroke-width="3.2"/>
<circle clip-path="url(#clip062)" cx="457.307" cy="84.9804" r="14.4" fill="#009af9" fill-rule="evenodd" fill-opacity="1" stroke="#000000" stroke-opacity="1" stroke-width="3.2"/>
<circle clip-path="url(#clip062)" cx="475.578" cy="84.9804" r="14.4" fill="#009af9" fill-rule="evenodd" fill-opacity="1" stroke="#000000" stroke-opacity="1" stroke-width="3.2"/>
<circle clip-path="url(#clip062)" cx="2060.75" cy="84.9804" r="14.4" fill="#009af9" fill-rule="evenodd" fill-opacity="1" stroke="#000000" stroke-opacity="1" stroke-width="3.2"/>
<circle clip-path="url(#clip062)" cx="427.772" cy="84.9804" r="14.4" fill="#009af9" fill-rule="evenodd" fill-opacity="1" stroke="#000000" stroke-opacity="1" stroke-width="3.2"/>
<circle clip-path="url(#clip062)" cx="921.797" cy="84.9804" r="14.4" fill="#009af9" fill-rule="evenodd" fill-opacity="1" stroke="#000000" stroke-opacity="1" stroke-width="3.2"/>
<circle clip-path="url(#clip062)" cx="441.469" cy="84.9804" r="14.4" fill="#009af9" fill-rule="evenodd" fill-opacity="1" stroke="#000000" stroke-opacity="1" stroke-width="3.2"/>
<circle clip-path="url(#clip062)" cx="1091.67" cy="1228.65" r="14.4" fill="#e26f46" fill-rule="evenodd" fill-opacity="1" stroke="#000000" stroke-opacity="1" stroke-width="3.2"/>
<circle clip-path="url(#clip062)" cx="1041.49" cy="1191.05" r="14.4" fill="#e26f46" fill-rule="evenodd" fill-opacity="1" stroke="#000000" stroke-opacity="1" stroke-width="3.2"/>
<circle clip-path="url(#clip062)" cx="1046.56" cy="1176.46" r="14.4" fill="#e26f46" fill-rule="evenodd" fill-opacity="1" stroke="#000000" stroke-opacity="1" stroke-width="3.2"/>
<circle clip-path="url(#clip062)" cx="1047.48" cy="1256.11" r="14.4" fill="#e26f46" fill-rule="evenodd" fill-opacity="1" stroke="#000000" stroke-opacity="1" stroke-width="3.2"/>
<circle clip-path="url(#clip062)" cx="2033.86" cy="782.426" r="14.4" fill="#e26f46" fill-rule="evenodd" fill-opacity="1" stroke="#000000" stroke-opacity="1" stroke-width="3.2"/>
<circle clip-path="url(#clip062)" cx="1067.61" cy="1222.78" r="14.4" fill="#e26f46" fill-rule="evenodd" fill-opacity="1" stroke="#000000" stroke-opacity="1" stroke-width="3.2"/>
<circle clip-path="url(#clip062)" cx="1047.89" cy="1278.46" r="14.4" fill="#e26f46" fill-rule="evenodd" fill-opacity="1" stroke="#000000" stroke-opacity="1" stroke-width="3.2"/>
<circle clip-path="url(#clip062)" cx="1063.16" cy="1251.68" r="14.4" fill="#e26f46" fill-rule="evenodd" fill-opacity="1" stroke="#000000" stroke-opacity="1" stroke-width="3.2"/>
<circle clip-path="url(#clip062)" cx="1102.06" cy="1193.39" r="14.4" fill="#e26f46" fill-rule="evenodd" fill-opacity="1" stroke="#000000" stroke-opacity="1" stroke-width="3.2"/>
<circle clip-path="url(#clip062)" cx="1033.81" cy="1277.89" r="14.4" fill="#e26f46" fill-rule="evenodd" fill-opacity="1" stroke="#000000" stroke-opacity="1" stroke-width="3.2"/>
<circle clip-path="url(#clip062)" cx="1126.96" cy="1220.76" r="14.4" fill="#e26f46" fill-rule="evenodd" fill-opacity="1" stroke="#000000" stroke-opacity="1" stroke-width="3.2"/>
<circle clip-path="url(#clip062)" cx="1063.38" cy="1228.88" r="14.4" fill="#e26f46" fill-rule="evenodd" fill-opacity="1" stroke="#000000" stroke-opacity="1" stroke-width="3.2"/>
<circle clip-path="url(#clip062)" cx="1127.27" cy="1202.32" r="14.4" fill="#e26f46" fill-rule="evenodd" fill-opacity="1" stroke="#000000" stroke-opacity="1" stroke-width="3.2"/>
<circle clip-path="url(#clip062)" cx="1153.87" cy="1200.2" r="14.4" fill="#e26f46" fill-rule="evenodd" fill-opacity="1" stroke="#000000" stroke-opacity="1" stroke-width="3.2"/>
<circle clip-path="url(#clip062)" cx="1062.54" cy="1254.11" r="14.4" fill="#e26f46" fill-rule="evenodd" fill-opacity="1" stroke="#000000" stroke-opacity="1" stroke-width="3.2"/>
<circle clip-path="url(#clip062)" cx="1057.11" cy="1259.73" r="14.4" fill="#e26f46" fill-rule="evenodd" fill-opacity="1" stroke="#000000" stroke-opacity="1" stroke-width="3.2"/>
<circle clip-path="url(#clip062)" cx="1023.94" cy="1260.91" r="14.4" fill="#e26f46" fill-rule="evenodd" fill-opacity="1" stroke="#000000" stroke-opacity="1" stroke-width="3.2"/>
<circle clip-path="url(#clip062)" cx="1047.15" cy="1238.73" r="14.4" fill="#e26f46" fill-rule="evenodd" fill-opacity="1" stroke="#000000" stroke-opacity="1" stroke-width="3.2"/>
<circle clip-path="url(#clip062)" cx="1143.23" cy="1250.26" r="14.4" fill="#e26f46" fill-rule="evenodd" fill-opacity="1" stroke="#000000" stroke-opacity="1" stroke-width="3.2"/>
<circle clip-path="url(#clip062)" cx="1057.61" cy="1285.09" r="14.4" fill="#e26f46" fill-rule="evenodd" fill-opacity="1" stroke="#000000" stroke-opacity="1" stroke-width="3.2"/>
<circle clip-path="url(#clip062)" cx="1058.27" cy="1231.92" r="14.4" fill="#e26f46" fill-rule="evenodd" fill-opacity="1" stroke="#000000" stroke-opacity="1" stroke-width="3.2"/>
<circle clip-path="url(#clip062)" cx="1104.16" cy="1235.09" r="14.4" fill="#e26f46" fill-rule="evenodd" fill-opacity="1" stroke="#000000" stroke-opacity="1" stroke-width="3.2"/>
<circle clip-path="url(#clip062)" cx="1059.73" cy="1245.6" r="14.4" fill="#e26f46" fill-rule="evenodd" fill-opacity="1" stroke="#000000" stroke-opacity="1" stroke-width="3.2"/>
<circle clip-path="url(#clip062)" cx="1047.63" cy="1322.14" r="14.4" fill="#e26f46" fill-rule="evenodd" fill-opacity="1" stroke="#000000" stroke-opacity="1" stroke-width="3.2"/>
<circle clip-path="url(#clip062)" cx="1547.11" cy="1251.88" r="14.4" fill="#e26f46" fill-rule="evenodd" fill-opacity="1" stroke="#000000" stroke-opacity="1" stroke-width="3.2"/>
<circle clip-path="url(#clip062)" cx="1056.1" cy="1196.92" r="14.4" fill="#e26f46" fill-rule="evenodd" fill-opacity="1" stroke="#000000" stroke-opacity="1" stroke-width="3.2"/>
<circle clip-path="url(#clip062)" cx="1047.5" cy="1213.5" r="14.4" fill="#e26f46" fill-rule="evenodd" fill-opacity="1" stroke="#000000" stroke-opacity="1" stroke-width="3.2"/>
<circle clip-path="url(#clip062)" cx="1027.4" cy="1224.34" r="14.4" fill="#e26f46" fill-rule="evenodd" fill-opacity="1" stroke="#000000" stroke-opacity="1" stroke-width="3.2"/>
<circle clip-path="url(#clip062)" cx="1067.18" cy="1342.85" r="14.4" fill="#e26f46" fill-rule="evenodd" fill-opacity="1" stroke="#000000" stroke-opacity="1" stroke-width="3.2"/>
<circle clip-path="url(#clip062)" cx="1050.4" cy="1225.27" r="14.4" fill="#e26f46" fill-rule="evenodd" fill-opacity="1" stroke="#000000" stroke-opacity="1" stroke-width="3.2"/>
<circle clip-path="url(#clip062)" cx="1072.41" cy="1184.07" r="14.4" fill="#e26f46" fill-rule="evenodd" fill-opacity="1" stroke="#000000" stroke-opacity="1" stroke-width="3.2"/>
<circle clip-path="url(#clip062)" cx="1213.6" cy="1227.36" r="14.4" fill="#e26f46" fill-rule="evenodd" fill-opacity="1" stroke="#000000" stroke-opacity="1" stroke-width="3.2"/>
<circle clip-path="url(#clip062)" cx="1557.64" cy="1266.07" r="14.4" fill="#e26f46" fill-rule="evenodd" fill-opacity="1" stroke="#000000" stroke-opacity="1" stroke-width="3.2"/>
<circle clip-path="url(#clip062)" cx="1713.34" cy="981.166" r="14.4" fill="#e26f46" fill-rule="evenodd" fill-opacity="1" stroke="#000000" stroke-opacity="1" stroke-width="3.2"/>
<circle clip-path="url(#clip062)" cx="1034.29" cy="1332.95" r="14.4" fill="#e26f46" fill-rule="evenodd" fill-opacity="1" stroke="#000000" stroke-opacity="1" stroke-width="3.2"/>
<circle clip-path="url(#clip062)" cx="1082.64" cy="1239.29" r="14.4" fill="#e26f46" fill-rule="evenodd" fill-opacity="1" stroke="#000000" stroke-opacity="1" stroke-width="3.2"/>
<circle clip-path="url(#clip062)" cx="1544.82" cy="1324.63" r="14.4" fill="#e26f46" fill-rule="evenodd" fill-opacity="1" stroke="#000000" stroke-opacity="1" stroke-width="3.2"/>
<path clip-path="url(#clip060)" d="M334.732 810.199 L659.281 810.199 L659.281 654.679 L334.732 654.679  Z" fill="#ffffff" fill-rule="evenodd" fill-opacity="1"/>
<polyline clip-path="url(#clip060)" style="stroke:#000000; stroke-linecap:round; stroke-linejoin:round; stroke-width:4; stroke-opacity:1; fill:none" points="334.732,810.199 659.281,810.199 659.281,654.679 334.732,654.679 334.732,810.199 "/>
<circle clip-path="url(#clip060)" cx="427.515" cy="706.519" r="20.48" fill="#009af9" fill-rule="evenodd" fill-opacity="1" stroke="#000000" stroke-opacity="1" stroke-width="4.55111"/>
<path clip-path="url(#clip060)" d="M546.296 715.211 Q546.296 715.399 546.085 716.125 Q545.875 716.851 545.359 717.975 Q544.867 719.099 544.188 720.13 Q543.509 721.137 542.385 721.887 Q541.284 722.613 540.019 722.613 Q538.333 722.613 537.208 721.488 Q536.084 720.364 536.084 718.678 Q536.084 717.741 536.576 716.453 Q539.691 708.138 539.691 705.28 Q539.691 701.931 537.091 701.931 Q535.803 701.931 534.585 702.422 Q533.39 702.891 532.571 703.547 Q531.751 704.203 531.001 705.116 Q530.275 706.006 529.901 706.615 Q529.549 707.201 529.268 707.786 L528.659 710.175 Q528.519 710.831 527.839 713.384 L526.785 717.717 Q526.036 720.95 525.872 721.254 Q525.638 721.91 525.122 722.261 Q524.607 722.613 524.092 722.613 Q523.506 722.613 523.108 722.261 Q522.71 721.91 522.71 721.301 Q522.71 721.207 522.78 720.856 Q522.85 720.505 522.968 720.013 Q523.085 719.521 523.131 719.24 L525.919 708.161 Q526.434 706.147 526.551 705.514 Q526.692 704.858 526.692 704.132 Q526.692 701.931 525.193 701.931 Q523.975 701.931 523.178 703.383 Q522.382 704.835 521.703 707.646 Q521.492 708.419 521.351 708.583 Q521.234 708.747 520.883 708.747 Q520.297 708.723 520.297 708.255 Q520.297 708.138 520.485 707.365 Q520.672 706.592 521.023 705.491 Q521.398 704.367 521.75 703.617 Q522.054 703.055 522.218 702.797 Q522.405 702.516 522.85 701.977 Q523.319 701.415 523.928 701.158 Q524.56 700.877 525.333 700.877 Q527.066 700.877 528.331 702.001 Q529.596 703.102 529.76 705.046 Q532.875 700.877 537.232 700.877 Q539.808 700.877 541.284 702.235 Q542.759 703.594 542.759 706.006 Q542.759 706.568 542.642 707.294 Q542.549 707.997 542.314 708.887 Q542.104 709.777 541.916 710.456 Q541.729 711.136 541.354 712.236 Q540.979 713.314 540.815 713.782 Q540.651 714.251 540.253 715.352 Q539.879 716.429 539.832 716.546 Q538.965 718.725 538.965 719.966 Q538.965 720.786 539.223 721.16 Q539.504 721.535 540.113 721.535 Q541.752 721.535 542.97 719.919 Q544.212 718.279 545.008 715.609 Q545.195 715.024 545.289 714.883 Q545.406 714.743 545.734 714.743 Q546.296 714.743 546.296 715.211 Z" fill="#000000" fill-rule="nonzero" fill-opacity="1" /><path clip-path="url(#clip060)" d="M562.083 714.79 Q562.13 714.204 563.044 714.204 L592.439 714.204 Q593.821 714.204 593.844 714.743 Q593.844 715.328 592.533 715.305 L563.372 715.305 Q562.083 715.328 562.083 714.79 M562.083 705.421 Q562.083 704.835 563.091 704.858 L592.392 704.858 Q593.821 704.858 593.844 705.421 Q593.844 705.959 592.626 705.959 L563.044 705.959 Q562.083 705.959 562.083 705.421 Z" fill="#000000" fill-rule="nonzero" fill-opacity="1" /><path clip-path="url(#clip060)" d="M612.335 694.693 L612.335 693.194 Q618.097 693.194 621.072 690.126 Q621.892 690.126 622.032 690.313 Q622.173 690.5 622.173 691.367 L622.173 718.279 Q622.173 719.708 622.875 720.153 Q623.578 720.598 626.646 720.598 L628.169 720.598 L628.169 722.074 Q626.482 721.933 620.393 721.933 Q614.303 721.933 612.64 722.074 L612.64 720.598 L614.162 720.598 Q617.184 720.598 617.91 720.177 Q618.636 719.732 618.636 718.279 L618.636 693.428 Q616.13 694.693 612.335 694.693 Z" fill="#000000" fill-rule="nonzero" fill-opacity="1" /><circle clip-path="url(#clip060)" cx="427.515" cy="758.359" r="20.48" fill="#e26f46" fill-rule="evenodd" fill-opacity="1" stroke="#000000" stroke-opacity="1" stroke-width="4.55111"/>
<path clip-path="url(#clip060)" d="M546.296 767.051 Q546.296 767.239 546.085 767.965 Q545.875 768.691 545.359 769.815 Q544.867 770.939 544.188 771.97 Q543.509 772.977 542.385 773.727 Q541.284 774.453 540.019 774.453 Q538.333 774.453 537.208 773.328 Q536.084 772.204 536.084 770.518 Q536.084 769.581 536.576 768.293 Q539.691 759.978 539.691 757.12 Q539.691 753.771 537.091 753.771 Q535.803 753.771 534.585 754.262 Q533.39 754.731 532.571 755.387 Q531.751 756.043 531.001 756.956 Q530.275 757.846 529.901 758.455 Q529.549 759.041 529.268 759.626 L528.659 762.015 Q528.519 762.671 527.839 765.224 L526.785 769.557 Q526.036 772.79 525.872 773.094 Q525.638 773.75 525.122 774.101 Q524.607 774.453 524.092 774.453 Q523.506 774.453 523.108 774.101 Q522.71 773.75 522.71 773.141 Q522.71 773.047 522.78 772.696 Q522.85 772.345 522.968 771.853 Q523.085 771.361 523.131 771.08 L525.919 760.001 Q526.434 757.987 526.551 757.354 Q526.692 756.698 526.692 755.972 Q526.692 753.771 525.193 753.771 Q523.975 753.771 523.178 755.223 Q522.382 756.675 521.703 759.486 Q521.492 760.259 521.351 760.423 Q521.234 760.587 520.883 760.587 Q520.297 760.563 520.297 760.095 Q520.297 759.978 520.485 759.205 Q520.672 758.432 521.023 757.331 Q521.398 756.207 521.75 755.457 Q522.054 754.895 522.218 754.637 Q522.405 754.356 522.85 753.817 Q523.319 753.255 523.928 752.998 Q524.56 752.717 525.333 752.717 Q527.066 752.717 528.331 753.841 Q529.596 754.942 529.76 756.886 Q532.875 752.717 537.232 752.717 Q539.808 752.717 541.284 754.075 Q542.759 755.434 542.759 757.846 Q542.759 758.408 542.642 759.134 Q542.549 759.837 542.314 760.727 Q542.104 761.617 541.916 762.296 Q541.729 762.976 541.354 764.076 Q540.979 765.154 540.815 765.622 Q540.651 766.091 540.253 767.192 Q539.879 768.269 539.832 768.386 Q538.965 770.565 538.965 771.806 Q538.965 772.626 539.223 773 Q539.504 773.375 540.113 773.375 Q541.752 773.375 542.97 771.759 Q544.212 770.119 545.008 767.449 Q545.195 766.864 545.289 766.723 Q545.406 766.583 545.734 766.583 Q546.296 766.583 546.296 767.051 Z" fill="#000000" fill-rule="nonzero" fill-opacity="1" /><path clip-path="url(#clip060)" d="M562.083 766.63 Q562.13 766.044 563.044 766.044 L592.439 766.044 Q593.821 766.044 593.844 766.583 Q593.844 767.168 592.533 767.145 L563.372 767.145 Q562.083 767.168 562.083 766.63 M562.083 757.261 Q562.083 756.675 563.091 756.698 L592.392 756.698 Q593.821 756.698 593.844 757.261 Q593.844 757.799 592.626 757.799 L563.044 757.799 Q562.083 757.799 562.083 757.261 Z" fill="#000000" fill-rule="nonzero" fill-opacity="1" /><path clip-path="url(#clip060)" d="M612.335 773.914 Q612.335 773.047 612.405 772.79 Q612.499 772.532 612.874 772.134 L622.079 761.875 Q627.115 756.207 627.115 751.264 Q627.115 748.056 625.428 745.76 Q623.765 743.465 620.697 743.465 Q618.589 743.465 616.809 744.753 Q615.029 746.041 614.209 748.337 Q614.35 748.29 614.841 748.29 Q616.036 748.29 616.692 749.039 Q617.371 749.789 617.371 750.796 Q617.371 752.084 616.528 752.717 Q615.708 753.326 614.888 753.326 Q614.56 753.326 614.115 753.255 Q613.694 753.185 613.014 752.529 Q612.335 751.85 612.335 750.655 Q612.335 747.306 614.865 744.636 Q617.418 741.966 621.306 741.966 Q625.709 741.966 628.59 744.589 Q631.495 747.189 631.495 751.264 Q631.495 752.693 631.05 754.005 Q630.628 755.293 630.043 756.3 Q629.48 757.307 627.935 758.924 Q626.389 760.54 625.147 761.687 Q623.906 762.835 621.119 765.271 L616.036 770.213 L624.679 770.213 Q628.895 770.213 629.223 769.838 Q629.691 769.159 630.277 765.576 L631.495 765.576 L630.136 773.914 L612.335 773.914 Z" fill="#000000" fill-rule="nonzero" fill-opacity="1" /></svg>
