<?xml version="1.0" encoding="utf-8"?>
<svg xmlns="http://www.w3.org/2000/svg" xmlns:xlink="http://www.w3.org/1999/xlink" width="600" height="400" viewBox="0 0 2400 1600">
<defs>
  <clipPath id="clip140">
    <rect x="0" y="0" width="2400" height="1600"/>
  </clipPath>
</defs>
<path clip-path="url(#clip140)" d="M0 1600 L2400 1600 L2400 0 L0 0  Z" fill="#ffffff" fill-rule="evenodd" fill-opacity="1"/>
<defs>
  <clipPath id="clip141">
    <rect x="480" y="0" width="1681" height="1600"/>
  </clipPath>
</defs>
<path clip-path="url(#clip140)" d="M264.939 1380.58 L2352.76 1380.58 L2352.76 47.2441 L264.939 47.2441  Z" fill="#ffffff" fill-rule="evenodd" fill-opacity="1"/>
<defs>
  <clipPath id="clip142">
    <rect x="264" y="47" width="2089" height="1334"/>
  </clipPath>
</defs>
<polyline clip-path="url(#clip142)" style="stroke:#000000; stroke-linecap:round; stroke-linejoin:round; stroke-width:2; stroke-opacity:0.1; fill:none" points="547.118,1380.58 547.118,47.2441 "/>
<polyline clip-path="url(#clip142)" style="stroke:#000000; stroke-linecap:round; stroke-linejoin:round; stroke-width:2; stroke-opacity:0.1; fill:none" points="1685.16,1380.58 1685.16,47.2441 "/>
<polyline clip-path="url(#clip142)" style="stroke:#000000; stroke-linecap:round; stroke-linejoin:round; stroke-width:2; stroke-opacity:0.1; fill:none" points="547.118,1380.58 547.118,47.2441 "/>
<polyline clip-path="url(#clip142)" style="stroke:#000000; stroke-linecap:round; stroke-linejoin:round; stroke-width:2; stroke-opacity:0.1; fill:none" points="1685.16,1380.58 1685.16,47.2441 "/>
<polyline clip-path="url(#clip142)" style="stroke:#000000; stroke-linecap:round; stroke-linejoin:round; stroke-width:2; stroke-opacity:0.1; fill:none" points="264.939,1309.52 2352.76,1309.52 "/>
<polyline clip-path="url(#clip142)" style="stroke:#000000; stroke-linecap:round; stroke-linejoin:round; stroke-width:2; stroke-opacity:0.1; fill:none" points="264.939,1153.01 2352.76,1153.01 "/>
<polyline clip-path="url(#clip142)" style="stroke:#000000; stroke-linecap:round; stroke-linejoin:round; stroke-width:2; stroke-opacity:0.1; fill:none" points="264.939,996.494 2352.76,996.494 "/>
<polyline clip-path="url(#clip142)" style="stroke:#000000; stroke-linecap:round; stroke-linejoin:round; stroke-width:2; stroke-opacity:0.1; fill:none" points="264.939,839.982 2352.76,839.982 "/>
<polyline clip-path="url(#clip142)" style="stroke:#000000; stroke-linecap:round; stroke-linejoin:round; stroke-width:2; stroke-opacity:0.1; fill:none" points="264.939,683.469 2352.76,683.469 "/>
<polyline clip-path="url(#clip142)" style="stroke:#000000; stroke-linecap:round; stroke-linejoin:round; stroke-width:2; stroke-opacity:0.1; fill:none" points="264.939,526.957 2352.76,526.957 "/>
<polyline clip-path="url(#clip142)" style="stroke:#000000; stroke-linecap:round; stroke-linejoin:round; stroke-width:2; stroke-opacity:0.1; fill:none" points="264.939,370.445 2352.76,370.445 "/>
<polyline clip-path="url(#clip142)" style="stroke:#000000; stroke-linecap:round; stroke-linejoin:round; stroke-width:2; stroke-opacity:0.1; fill:none" points="264.939,213.932 2352.76,213.932 "/>
<polyline clip-path="url(#clip142)" style="stroke:#000000; stroke-linecap:round; stroke-linejoin:round; stroke-width:2; stroke-opacity:0.1; fill:none" points="264.939,57.42 2352.76,57.42 "/>
<polyline clip-path="url(#clip142)" style="stroke:#000000; stroke-linecap:round; stroke-linejoin:round; stroke-width:2; stroke-opacity:0.1; fill:none" points="264.939,1309.52 2352.76,1309.52 "/>
<polyline clip-path="url(#clip142)" style="stroke:#000000; stroke-linecap:round; stroke-linejoin:round; stroke-width:2; stroke-opacity:0.1; fill:none" points="264.939,1153.01 2352.76,1153.01 "/>
<polyline clip-path="url(#clip142)" style="stroke:#000000; stroke-linecap:round; stroke-linejoin:round; stroke-width:2; stroke-opacity:0.1; fill:none" points="264.939,996.494 2352.76,996.494 "/>
<polyline clip-path="url(#clip142)" style="stroke:#000000; stroke-linecap:round; stroke-linejoin:round; stroke-width:2; stroke-opacity:0.1; fill:none" points="264.939,839.982 2352.76,839.982 "/>
<polyline clip-path="url(#clip142)" style="stroke:#000000; stroke-linecap:round; stroke-linejoin:round; stroke-width:2; stroke-opacity:0.1; fill:none" points="264.939,683.469 2352.76,683.469 "/>
<polyline clip-path="url(#clip142)" style="stroke:#000000; stroke-linecap:round; stroke-linejoin:round; stroke-width:2; stroke-opacity:0.1; fill:none" points="264.939,526.957 2352.76,526.957 "/>
<polyline clip-path="url(#clip142)" style="stroke:#000000; stroke-linecap:round; stroke-linejoin:round; stroke-width:2; stroke-opacity:0.1; fill:none" points="264.939,370.445 2352.76,370.445 "/>
<polyline clip-path="url(#clip142)" style="stroke:#000000; stroke-linecap:round; stroke-linejoin:round; stroke-width:2; stroke-opacity:0.1; fill:none" points="264.939,213.932 2352.76,213.932 "/>
<polyline clip-path="url(#clip142)" style="stroke:#000000; stroke-linecap:round; stroke-linejoin:round; stroke-width:2; stroke-opacity:0.1; fill:none" points="264.939,57.42 2352.76,57.42 "/>
<polyline clip-path="url(#clip140)" style="stroke:#000000; stroke-linecap:round; stroke-linejoin:round; stroke-width:4; stroke-opacity:1; fill:none" points="264.939,1380.58 2352.76,1380.58 "/>
<polyline clip-path="url(#clip140)" style="stroke:#000000; stroke-linecap:round; stroke-linejoin:round; stroke-width:4; stroke-opacity:1; fill:none" points="264.939,47.2441 2352.76,47.2441 "/>
<polyline clip-path="url(#clip140)" style="stroke:#000000; stroke-linecap:round; stroke-linejoin:round; stroke-width:4; stroke-opacity:1; fill:none" points="547.118,1380.58 547.118,1361.69 "/>
<polyline clip-path="url(#clip140)" style="stroke:#000000; stroke-linecap:round; stroke-linejoin:round; stroke-width:4; stroke-opacity:1; fill:none" points="1685.16,1380.58 1685.16,1361.69 "/>
<polyline clip-path="url(#clip140)" style="stroke:#000000; stroke-linecap:round; stroke-linejoin:round; stroke-width:4; stroke-opacity:1; fill:none" points="547.118,47.2441 547.118,66.1417 "/>
<polyline clip-path="url(#clip140)" style="stroke:#000000; stroke-linecap:round; stroke-linejoin:round; stroke-width:4; stroke-opacity:1; fill:none" points="1685.16,47.2441 1685.16,66.1417 "/>
<path clip-path="url(#clip140)" d="M512.562 1454.71 L520.201 1454.71 L520.201 1428.34 L511.891 1430.01 L511.891 1425.75 L520.155 1424.08 L524.831 1424.08 L524.831 1454.71 L532.469 1454.71 L532.469 1458.64 L512.562 1458.64 L512.562 1454.71 Z" fill="#000000" fill-rule="nonzero" fill-opacity="1" /><path clip-path="url(#clip140)" d="M551.914 1427.16 Q548.303 1427.16 546.474 1430.73 Q544.668 1434.27 544.668 1441.4 Q544.668 1448.51 546.474 1452.07 Q548.303 1455.61 551.914 1455.61 Q555.548 1455.61 557.353 1452.07 Q559.182 1448.51 559.182 1441.4 Q559.182 1434.27 557.353 1430.73 Q555.548 1427.16 551.914 1427.16 M551.914 1423.46 Q557.724 1423.46 560.779 1428.07 Q563.858 1432.65 563.858 1441.4 Q563.858 1450.13 560.779 1454.73 Q557.724 1459.32 551.914 1459.32 Q546.104 1459.32 543.025 1454.73 Q539.969 1450.13 539.969 1441.4 Q539.969 1432.65 543.025 1428.07 Q546.104 1423.46 551.914 1423.46 Z" fill="#000000" fill-rule="nonzero" fill-opacity="1" /><path clip-path="url(#clip140)" d="M576.553 1416.09 Q579.28 1416.68 580.804 1418.52 Q582.346 1420.36 582.346 1423.07 Q582.346 1427.23 579.487 1429.5 Q576.629 1431.78 571.362 1431.78 Q569.594 1431.78 567.714 1431.42 Q565.852 1431.08 563.858 1430.39 L563.858 1426.72 Q565.438 1427.64 567.319 1428.11 Q569.199 1428.58 571.25 1428.58 Q574.823 1428.58 576.685 1427.17 Q578.566 1425.76 578.566 1423.07 Q578.566 1420.59 576.817 1419.2 Q575.086 1417.79 571.983 1417.79 L568.71 1417.79 L568.71 1414.66 L572.134 1414.66 Q574.936 1414.66 576.422 1413.56 Q577.907 1412.43 577.907 1410.32 Q577.907 1408.16 576.365 1407.01 Q574.842 1405.84 571.983 1405.84 Q570.422 1405.84 568.635 1406.18 Q566.849 1406.52 564.704 1407.24 L564.704 1403.85 Q566.867 1403.25 568.748 1402.95 Q570.648 1402.65 572.322 1402.65 Q576.647 1402.65 579.168 1404.62 Q581.688 1406.58 581.688 1409.93 Q581.688 1412.26 580.353 1413.88 Q579.017 1415.47 576.553 1416.09 Z" fill="#000000" fill-rule="nonzero" fill-opacity="1" /><path clip-path="url(#clip140)" d="M1649.62 1454.71 L1657.26 1454.71 L1657.26 1428.34 L1648.95 1430.01 L1648.95 1425.75 L1657.21 1424.08 L1661.89 1424.08 L1661.89 1454.71 L1669.53 1454.71 L1669.53 1458.64 L1649.62 1458.64 L1649.62 1454.71 Z" fill="#000000" fill-rule="nonzero" fill-opacity="1" /><path clip-path="url(#clip140)" d="M1688.97 1427.16 Q1685.36 1427.16 1683.53 1430.73 Q1681.73 1434.27 1681.73 1441.4 Q1681.73 1448.51 1683.53 1452.07 Q1685.36 1455.61 1688.97 1455.61 Q1692.61 1455.61 1694.41 1452.07 Q1696.24 1448.51 1696.24 1441.4 Q1696.24 1434.27 1694.41 1430.73 Q1692.61 1427.16 1688.97 1427.16 M1688.97 1423.46 Q1694.78 1423.46 1697.84 1428.07 Q1700.92 1432.65 1700.92 1441.4 Q1700.92 1450.13 1697.84 1454.73 Q1694.78 1459.32 1688.97 1459.32 Q1683.16 1459.32 1680.08 1454.73 Q1677.03 1450.13 1677.03 1441.4 Q1677.03 1432.65 1680.08 1428.07 Q1683.16 1423.46 1688.97 1423.46 Z" fill="#000000" fill-rule="nonzero" fill-opacity="1" /><path clip-path="url(#clip140)" d="M1713.59 1406.46 L1704 1421.45 L1713.59 1421.45 L1713.59 1406.46 M1712.6 1403.15 L1717.37 1403.15 L1717.37 1421.45 L1721.38 1421.45 L1721.38 1424.61 L1717.37 1424.61 L1717.37 1431.23 L1713.59 1431.23 L1713.59 1424.61 L1700.92 1424.61 L1700.92 1420.95 L1712.6 1403.15 Z" fill="#000000" fill-rule="nonzero" fill-opacity="1" /><path clip-path="url(#clip140)" d="M1212.97 1571.84 L1212.97 1509.94 Q1212.97 1507.98 1214.29 1507.98 Q1215.61 1507.98 1215.61 1510.04 L1215.61 1571.68 Q1215.61 1573.81 1214.29 1573.81 Q1212.97 1573.81 1212.97 1571.84 M1220.25 1571.84 L1220.25 1510.42 Q1220.25 1507.98 1221.57 1507.98 Q1222.89 1507.98 1222.89 1510.04 L1222.89 1571.68 Q1222.89 1573.81 1221.57 1573.81 Q1220.25 1573.81 1220.25 1571.84 Z" fill="#000000" fill-rule="nonzero" fill-opacity="1" /><path clip-path="url(#clip140)" d="M1290.88 1556.06 Q1290.88 1556.67 1290.62 1556.99 Q1290.4 1557.28 1290.17 1557.35 Q1289.98 1557.38 1289.69 1557.38 Q1288.85 1557.38 1285.95 1557.28 Q1283.06 1557.19 1282.22 1557.19 Q1280.87 1557.19 1278.1 1557.28 Q1275.33 1557.38 1273.97 1557.38 Q1273.07 1557.38 1273.07 1556.64 Q1273.07 1556.16 1273.17 1555.9 Q1273.27 1555.61 1273.52 1555.51 Q1273.81 1555.38 1273.97 1555.38 Q1274.17 1555.35 1274.65 1555.35 Q1275.29 1555.35 1275.97 1555.29 Q1276.65 1555.19 1277.48 1555 Q1278.32 1554.8 1278.84 1554.32 Q1279.38 1553.84 1279.38 1553.16 Q1279.38 1552.87 1279.16 1550.49 Q1278.93 1548.11 1278.64 1545.34 Q1278.35 1542.53 1278.32 1542.15 L1261.77 1542.15 Q1260.25 1544.76 1259.19 1546.56 Q1258.13 1548.36 1257.74 1548.97 Q1257.36 1549.59 1257.13 1549.97 Q1256.9 1550.36 1256.78 1550.58 Q1255.84 1552.29 1255.84 1553.03 Q1255.84 1555.09 1258.93 1555.35 Q1260 1555.35 1260 1556.12 Q1260 1556.7 1259.74 1557.03 Q1259.48 1557.32 1259.26 1557.35 Q1259.06 1557.38 1258.74 1557.38 Q1257.68 1557.38 1255.46 1557.28 Q1253.23 1557.19 1252.14 1557.19 Q1251.2 1557.19 1249.27 1557.28 Q1247.34 1557.38 1246.47 1557.38 Q1246.08 1557.38 1245.86 1557.15 Q1245.63 1556.93 1245.63 1556.64 Q1245.63 1556.19 1245.7 1555.93 Q1245.79 1555.67 1246.05 1555.54 Q1246.31 1555.42 1246.44 1555.42 Q1246.57 1555.38 1247.02 1555.35 Q1249.47 1555.19 1251.37 1554.03 Q1253.3 1552.84 1255.13 1549.78 L1278.06 1511.26 Q1278.29 1510.88 1278.45 1510.68 Q1278.61 1510.49 1278.93 1510.33 Q1279.29 1510.17 1279.8 1510.17 Q1280.61 1510.17 1280.77 1510.42 Q1280.93 1510.65 1281.03 1511.74 L1285.05 1552.97 Q1285.15 1553.84 1285.21 1554.19 Q1285.31 1554.51 1285.73 1554.87 Q1286.18 1555.19 1286.99 1555.29 Q1287.82 1555.35 1289.37 1555.35 Q1289.95 1555.35 1290.17 1555.38 Q1290.4 1555.38 1290.62 1555.54 Q1290.88 1555.71 1290.88 1556.06 M1278.13 1540.09 L1276.04 1518.35 L1263.02 1540.09 L1278.13 1540.09 Z" fill="#000000" fill-rule="nonzero" fill-opacity="1" /><path clip-path="url(#clip140)" d="M1297.49 1497.93 Q1297.49 1490.13 1300.39 1483.84 Q1301.63 1481.2 1303.37 1479 Q1305.11 1476.79 1306.25 1475.82 Q1307.4 1474.85 1307.72 1474.85 Q1308.17 1474.85 1308.19 1475.3 Q1308.19 1475.52 1307.58 1476.09 Q1300.15 1483.66 1300.17 1497.93 Q1300.17 1512.25 1307.4 1519.53 Q1308.19 1520.32 1308.19 1520.57 Q1308.19 1521.02 1307.72 1521.02 Q1307.4 1521.02 1306.3 1520.09 Q1305.2 1519.17 1303.48 1517.05 Q1301.77 1514.93 1300.53 1512.34 Q1297.49 1506.05 1297.49 1497.93 Z" fill="#000000" fill-rule="nonzero" fill-opacity="1" /><path clip-path="url(#clip140)" d="M1336.54 1502.87 Q1336.54 1503.05 1336.34 1503.75 Q1336.14 1504.45 1335.64 1505.53 Q1335.17 1506.61 1334.51 1507.6 Q1333.86 1508.57 1332.78 1509.29 Q1331.72 1509.99 1330.5 1509.99 Q1328.88 1509.99 1327.8 1508.91 Q1326.71 1507.83 1326.71 1506.21 Q1326.71 1505.3 1327.19 1504.06 Q1330.18 1496.06 1330.18 1493.31 Q1330.18 1490.09 1327.68 1490.09 Q1326.44 1490.09 1325.27 1490.56 Q1324.12 1491.01 1323.33 1491.64 Q1322.54 1492.27 1321.82 1493.15 Q1321.12 1494.01 1320.76 1494.6 Q1320.42 1495.16 1320.15 1495.72 L1319.57 1498.02 Q1319.43 1498.65 1318.78 1501.11 L1317.76 1505.28 Q1317.04 1508.39 1316.88 1508.69 Q1316.66 1509.32 1316.16 1509.66 Q1315.67 1509.99 1315.17 1509.99 Q1314.61 1509.99 1314.22 1509.66 Q1313.84 1509.32 1313.84 1508.73 Q1313.84 1508.64 1313.91 1508.3 Q1313.98 1507.96 1314.09 1507.49 Q1314.2 1507.02 1314.25 1506.75 L1316.93 1496.08 Q1317.42 1494.15 1317.54 1493.54 Q1317.67 1492.91 1317.67 1492.21 Q1317.67 1490.09 1316.23 1490.09 Q1315.06 1490.09 1314.29 1491.48 Q1313.52 1492.88 1312.87 1495.59 Q1312.67 1496.33 1312.53 1496.49 Q1312.42 1496.65 1312.08 1496.65 Q1311.52 1496.62 1311.52 1496.17 Q1311.52 1496.06 1311.7 1495.32 Q1311.88 1494.57 1312.22 1493.51 Q1312.58 1492.43 1312.92 1491.71 Q1313.21 1491.17 1313.37 1490.92 Q1313.55 1490.65 1313.98 1490.13 Q1314.43 1489.59 1315.01 1489.34 Q1315.62 1489.07 1316.37 1489.07 Q1318.03 1489.07 1319.25 1490.15 Q1320.47 1491.21 1320.63 1493.09 Q1323.62 1489.07 1327.82 1489.07 Q1330.3 1489.07 1331.72 1490.38 Q1333.14 1491.69 1333.14 1494.01 Q1333.14 1494.55 1333.03 1495.25 Q1332.94 1495.93 1332.71 1496.78 Q1332.51 1497.64 1332.33 1498.29 Q1332.15 1498.95 1331.79 1500.01 Q1331.42 1501.04 1331.27 1501.49 Q1331.11 1501.95 1330.73 1503 Q1330.37 1504.04 1330.32 1504.15 Q1329.49 1506.25 1329.49 1507.45 Q1329.49 1508.24 1329.73 1508.6 Q1330 1508.96 1330.59 1508.96 Q1332.17 1508.96 1333.34 1507.4 Q1334.54 1505.82 1335.3 1503.25 Q1335.48 1502.69 1335.57 1502.55 Q1335.69 1502.42 1336 1502.42 Q1336.54 1502.42 1336.54 1502.87 Z" fill="#000000" fill-rule="nonzero" fill-opacity="1" /><path clip-path="url(#clip140)" d="M1340.97 1520.57 Q1340.97 1520.34 1341.56 1519.78 Q1349 1512.2 1349 1497.93 Q1349 1483.62 1341.85 1476.38 Q1340.97 1475.55 1340.97 1475.3 Q1340.97 1474.85 1341.42 1474.85 Q1341.74 1474.85 1342.84 1475.77 Q1343.97 1476.7 1345.66 1478.82 Q1347.37 1480.93 1348.64 1483.53 Q1351.68 1489.82 1351.68 1497.93 Q1351.68 1505.73 1348.77 1512.02 Q1347.53 1514.66 1345.8 1516.87 Q1344.06 1519.08 1342.91 1520.05 Q1341.76 1521.02 1341.42 1521.02 Q1340.97 1521.02 1340.97 1520.57 Z" fill="#000000" fill-rule="nonzero" fill-opacity="1" /><path clip-path="url(#clip140)" d="M1365.74 1571.84 L1365.74 1509.94 Q1365.74 1507.98 1367.06 1507.98 Q1368.38 1507.98 1368.38 1510.04 L1368.38 1571.68 Q1368.38 1573.81 1367.06 1573.81 Q1365.74 1573.81 1365.74 1571.84 M1373.02 1571.84 L1373.02 1510.42 Q1373.02 1507.98 1374.34 1507.98 Q1375.66 1507.98 1375.66 1510.04 L1375.66 1571.68 Q1375.66 1573.81 1374.34 1573.81 Q1373.02 1573.81 1373.02 1571.84 Z" fill="#000000" fill-rule="nonzero" fill-opacity="1" /><path clip-path="url(#clip140)" d="M1382.59 1565.57 L1382.59 1564.13 Q1388.14 1564.13 1391 1561.17 Q1391.79 1561.17 1391.93 1561.35 Q1392.06 1561.53 1392.06 1562.37 L1392.06 1588.27 Q1392.06 1589.65 1392.74 1590.07 Q1393.41 1590.5 1396.37 1590.5 L1397.83 1590.5 L1397.83 1591.92 Q1396.21 1591.79 1390.35 1591.79 Q1384.49 1591.79 1382.89 1591.92 L1382.89 1590.5 L1384.35 1590.5 Q1387.26 1590.5 1387.96 1590.1 Q1388.66 1589.67 1388.66 1588.27 L1388.66 1564.35 Q1386.24 1565.57 1382.59 1565.57 Z" fill="#000000" fill-rule="nonzero" fill-opacity="1" /><polyline clip-path="url(#clip140)" style="stroke:#000000; stroke-linecap:round; stroke-linejoin:round; stroke-width:4; stroke-opacity:1; fill:none" points="264.939,1380.58 264.939,47.2441 "/>
<polyline clip-path="url(#clip140)" style="stroke:#000000; stroke-linecap:round; stroke-linejoin:round; stroke-width:4; stroke-opacity:1; fill:none" points="2352.76,1380.58 2352.76,47.2441 "/>
<polyline clip-path="url(#clip140)" style="stroke:#000000; stroke-linecap:round; stroke-linejoin:round; stroke-width:4; stroke-opacity:1; fill:none" points="264.939,1309.52 283.837,1309.52 "/>
<polyline clip-path="url(#clip140)" style="stroke:#000000; stroke-linecap:round; stroke-linejoin:round; stroke-width:4; stroke-opacity:1; fill:none" points="264.939,1153.01 283.837,1153.01 "/>
<polyline clip-path="url(#clip140)" style="stroke:#000000; stroke-linecap:round; stroke-linejoin:round; stroke-width:4; stroke-opacity:1; fill:none" points="264.939,996.494 283.837,996.494 "/>
<polyline clip-path="url(#clip140)" style="stroke:#000000; stroke-linecap:round; stroke-linejoin:round; stroke-width:4; stroke-opacity:1; fill:none" points="264.939,839.982 283.837,839.982 "/>
<polyline clip-path="url(#clip140)" style="stroke:#000000; stroke-linecap:round; stroke-linejoin:round; stroke-width:4; stroke-opacity:1; fill:none" points="264.939,683.469 283.837,683.469 "/>
<polyline clip-path="url(#clip140)" style="stroke:#000000; stroke-linecap:round; stroke-linejoin:round; stroke-width:4; stroke-opacity:1; fill:none" points="264.939,526.957 283.837,526.957 "/>
<polyline clip-path="url(#clip140)" style="stroke:#000000; stroke-linecap:round; stroke-linejoin:round; stroke-width:4; stroke-opacity:1; fill:none" points="264.939,370.445 283.837,370.445 "/>
<polyline clip-path="url(#clip140)" style="stroke:#000000; stroke-linecap:round; stroke-linejoin:round; stroke-width:4; stroke-opacity:1; fill:none" points="264.939,213.932 283.837,213.932 "/>
<polyline clip-path="url(#clip140)" style="stroke:#000000; stroke-linecap:round; stroke-linejoin:round; stroke-width:4; stroke-opacity:1; fill:none" points="264.939,57.42 283.837,57.42 "/>
<polyline clip-path="url(#clip140)" style="stroke:#000000; stroke-linecap:round; stroke-linejoin:round; stroke-width:4; stroke-opacity:1; fill:none" points="2352.76,1309.52 2333.86,1309.52 "/>
<polyline clip-path="url(#clip140)" style="stroke:#000000; stroke-linecap:round; stroke-linejoin:round; stroke-width:4; stroke-opacity:1; fill:none" points="2352.76,1153.01 2333.86,1153.01 "/>
<polyline clip-path="url(#clip140)" style="stroke:#000000; stroke-linecap:round; stroke-linejoin:round; stroke-width:4; stroke-opacity:1; fill:none" points="2352.76,996.494 2333.86,996.494 "/>
<polyline clip-path="url(#clip140)" style="stroke:#000000; stroke-linecap:round; stroke-linejoin:round; stroke-width:4; stroke-opacity:1; fill:none" points="2352.76,839.982 2333.86,839.982 "/>
<polyline clip-path="url(#clip140)" style="stroke:#000000; stroke-linecap:round; stroke-linejoin:round; stroke-width:4; stroke-opacity:1; fill:none" points="2352.76,683.469 2333.86,683.469 "/>
<polyline clip-path="url(#clip140)" style="stroke:#000000; stroke-linecap:round; stroke-linejoin:round; stroke-width:4; stroke-opacity:1; fill:none" points="2352.76,526.957 2333.86,526.957 "/>
<polyline clip-path="url(#clip140)" style="stroke:#000000; stroke-linecap:round; stroke-linejoin:round; stroke-width:4; stroke-opacity:1; fill:none" points="2352.76,370.445 2333.86,370.445 "/>
<polyline clip-path="url(#clip140)" style="stroke:#000000; stroke-linecap:round; stroke-linejoin:round; stroke-width:4; stroke-opacity:1; fill:none" points="2352.76,213.932 2333.86,213.932 "/>
<polyline clip-path="url(#clip140)" style="stroke:#000000; stroke-linecap:round; stroke-linejoin:round; stroke-width:4; stroke-opacity:1; fill:none" points="2352.76,57.42 2333.86,57.42 "/>
<path clip-path="url(#clip140)" d="M127.577 1329.31 L135.216 1329.31 L135.216 1302.95 L126.906 1304.61 L126.906 1300.35 L135.17 1298.69 L139.845 1298.69 L139.845 1329.31 L147.484 1329.31 L147.484 1333.25 L127.577 1333.25 L127.577 1329.31 Z" fill="#000000" fill-rule="nonzero" fill-opacity="1" /><path clip-path="url(#clip140)" d="M166.929 1301.76 Q163.318 1301.76 161.489 1305.33 Q159.683 1308.87 159.683 1316 Q159.683 1323.11 161.489 1326.67 Q163.318 1330.21 166.929 1330.21 Q170.563 1330.21 172.368 1326.67 Q174.197 1323.11 174.197 1316 Q174.197 1308.87 172.368 1305.33 Q170.563 1301.76 166.929 1301.76 M166.929 1298.06 Q172.739 1298.06 175.794 1302.67 Q178.873 1307.25 178.873 1316 Q178.873 1324.73 175.794 1329.33 Q172.739 1333.92 166.929 1333.92 Q161.118 1333.92 158.04 1329.33 Q154.984 1324.73 154.984 1316 Q154.984 1307.25 158.04 1302.67 Q161.118 1298.06 166.929 1298.06 Z" fill="#000000" fill-rule="nonzero" fill-opacity="1" /><path clip-path="url(#clip140)" d="M178.873 1292.16 L202.985 1292.16 L202.985 1295.36 L178.873 1295.36 L178.873 1292.16 Z" fill="#000000" fill-rule="nonzero" fill-opacity="1" /><path clip-path="url(#clip140)" d="M219.31 1292.5 Q216.601 1292.5 215.04 1293.95 Q213.498 1295.4 213.498 1297.94 Q213.498 1300.48 215.04 1301.92 Q216.601 1303.37 219.31 1303.37 Q222.018 1303.37 223.579 1301.92 Q225.14 1300.46 225.14 1297.94 Q225.14 1295.4 223.579 1293.95 Q222.037 1292.5 219.31 1292.5 M215.511 1290.88 Q213.066 1290.28 211.693 1288.61 Q210.338 1286.93 210.338 1284.53 Q210.338 1281.16 212.727 1279.2 Q215.134 1277.25 219.31 1277.25 Q223.504 1277.25 225.892 1279.2 Q228.281 1281.16 228.281 1284.53 Q228.281 1286.93 226.908 1288.61 Q225.554 1290.28 223.128 1290.88 Q225.874 1291.52 227.397 1293.39 Q228.939 1295.25 228.939 1297.94 Q228.939 1302.02 226.438 1304.2 Q223.955 1306.38 219.31 1306.38 Q214.664 1306.38 212.163 1304.2 Q209.68 1302.02 209.68 1297.94 Q209.68 1295.25 211.222 1293.39 Q212.765 1291.52 215.511 1290.88 M214.119 1284.88 Q214.119 1287.07 215.473 1288.29 Q216.846 1289.51 219.31 1289.51 Q221.755 1289.51 223.128 1288.29 Q224.519 1287.07 224.519 1284.88 Q224.519 1282.7 223.128 1281.48 Q221.755 1280.26 219.31 1280.26 Q216.846 1280.26 215.473 1281.48 Q214.119 1282.7 214.119 1284.88 Z" fill="#000000" fill-rule="nonzero" fill-opacity="1" /><path clip-path="url(#clip140)" d="M128.235 1172.8 L135.874 1172.8 L135.874 1146.43 L127.564 1148.1 L127.564 1143.84 L135.828 1142.17 L140.504 1142.17 L140.504 1172.8 L148.143 1172.8 L148.143 1176.73 L128.235 1176.73 L128.235 1172.8 Z" fill="#000000" fill-rule="nonzero" fill-opacity="1" /><path clip-path="url(#clip140)" d="M167.587 1145.25 Q163.976 1145.25 162.147 1148.82 Q160.342 1152.36 160.342 1159.49 Q160.342 1166.6 162.147 1170.16 Q163.976 1173.7 167.587 1173.7 Q171.221 1173.7 173.027 1170.16 Q174.855 1166.6 174.855 1159.49 Q174.855 1152.36 173.027 1148.82 Q171.221 1145.25 167.587 1145.25 M167.587 1141.55 Q173.397 1141.55 176.453 1146.16 Q179.531 1150.74 179.531 1159.49 Q179.531 1168.22 176.453 1172.82 Q173.397 1177.41 167.587 1177.41 Q161.777 1177.41 158.698 1172.82 Q155.642 1168.22 155.642 1159.49 Q155.642 1150.74 158.698 1146.16 Q161.777 1141.55 167.587 1141.55 Z" fill="#000000" fill-rule="nonzero" fill-opacity="1" /><path clip-path="url(#clip140)" d="M179.531 1135.65 L203.643 1135.65 L203.643 1138.85 L179.531 1138.85 L179.531 1135.65 Z" fill="#000000" fill-rule="nonzero" fill-opacity="1" /><path clip-path="url(#clip140)" d="M210.884 1121.24 L228.939 1121.24 L228.939 1122.86 L218.745 1149.32 L214.777 1149.32 L224.369 1124.44 L210.884 1124.44 L210.884 1121.24 Z" fill="#000000" fill-rule="nonzero" fill-opacity="1" /><path clip-path="url(#clip140)" d="M127.37 1016.29 L135.009 1016.29 L135.009 989.921 L126.699 991.587 L126.699 987.328 L134.963 985.662 L139.639 985.662 L139.639 1016.29 L147.277 1016.29 L147.277 1020.22 L127.37 1020.22 L127.37 1016.29 Z" fill="#000000" fill-rule="nonzero" fill-opacity="1" /><path clip-path="url(#clip140)" d="M166.722 988.74 Q163.111 988.74 161.282 992.305 Q159.476 995.847 159.476 1002.98 Q159.476 1010.08 161.282 1013.65 Q163.111 1017.19 166.722 1017.19 Q170.356 1017.19 172.161 1013.65 Q173.99 1010.08 173.99 1002.98 Q173.99 995.847 172.161 992.305 Q170.356 988.74 166.722 988.74 M166.722 985.037 Q172.532 985.037 175.587 989.643 Q178.666 994.226 178.666 1002.98 Q178.666 1011.7 175.587 1016.31 Q172.532 1020.89 166.722 1020.89 Q160.912 1020.89 157.833 1016.31 Q154.777 1011.7 154.777 1002.98 Q154.777 994.226 157.833 989.643 Q160.912 985.037 166.722 985.037 Z" fill="#000000" fill-rule="nonzero" fill-opacity="1" /><path clip-path="url(#clip140)" d="M178.666 979.138 L202.778 979.138 L202.778 982.335 L178.666 982.335 L178.666 979.138 Z" fill="#000000" fill-rule="nonzero" fill-opacity="1" /><path clip-path="url(#clip140)" d="M219.573 977.257 Q217.015 977.257 215.511 979.006 Q214.025 980.755 214.025 983.802 Q214.025 986.83 215.511 988.598 Q217.015 990.347 219.573 990.347 Q222.131 990.347 223.617 988.598 Q225.121 986.83 225.121 983.802 Q225.121 980.755 223.617 979.006 Q222.131 977.257 219.573 977.257 M227.115 965.352 L227.115 968.812 Q225.686 968.135 224.219 967.778 Q222.77 967.421 221.341 967.421 Q217.579 967.421 215.586 969.96 Q213.611 972.499 213.329 977.633 Q214.438 975.997 216.112 975.132 Q217.786 974.248 219.799 974.248 Q224.03 974.248 226.475 976.825 Q228.939 979.382 228.939 983.802 Q228.939 988.128 226.381 990.742 Q223.824 993.357 219.573 993.357 Q214.702 993.357 212.125 989.633 Q209.548 985.89 209.548 978.799 Q209.548 972.141 212.708 968.192 Q215.868 964.223 221.19 964.223 Q222.62 964.223 224.068 964.506 Q225.535 964.788 227.115 965.352 Z" fill="#000000" fill-rule="nonzero" fill-opacity="1" /><path clip-path="url(#clip140)" d="M128.31 859.774 L135.949 859.774 L135.949 833.409 L127.639 835.075 L127.639 830.816 L135.903 829.149 L140.579 829.149 L140.579 859.774 L148.218 859.774 L148.218 863.709 L128.31 863.709 L128.31 859.774 Z" fill="#000000" fill-rule="nonzero" fill-opacity="1" /><path clip-path="url(#clip140)" d="M167.662 832.228 Q164.051 832.228 162.222 835.793 Q160.417 839.334 160.417 846.464 Q160.417 853.57 162.222 857.135 Q164.051 860.677 167.662 860.677 Q171.296 860.677 173.102 857.135 Q174.931 853.57 174.931 846.464 Q174.931 839.334 173.102 835.793 Q171.296 832.228 167.662 832.228 M167.662 828.524 Q173.472 828.524 176.528 833.131 Q179.606 837.714 179.606 846.464 Q179.606 855.191 176.528 859.797 Q173.472 864.381 167.662 864.381 Q161.852 864.381 158.773 859.797 Q155.718 855.191 155.718 846.464 Q155.718 837.714 158.773 833.131 Q161.852 828.524 167.662 828.524 Z" fill="#000000" fill-rule="nonzero" fill-opacity="1" /><path clip-path="url(#clip140)" d="M179.606 822.626 L203.718 822.626 L203.718 825.823 L179.606 825.823 L179.606 822.626 Z" fill="#000000" fill-rule="nonzero" fill-opacity="1" /><path clip-path="url(#clip140)" d="M211.956 808.219 L226.87 808.219 L226.87 811.416 L215.435 811.416 L215.435 818.3 Q216.263 818.018 217.09 817.886 Q217.918 817.736 218.745 817.736 Q223.447 817.736 226.193 820.312 Q228.939 822.889 228.939 827.29 Q228.939 831.823 226.118 834.343 Q223.297 836.844 218.162 836.844 Q216.394 836.844 214.551 836.543 Q212.727 836.242 210.771 835.641 L210.771 831.823 Q212.464 832.744 214.269 833.196 Q216.075 833.647 218.087 833.647 Q221.341 833.647 223.241 831.935 Q225.14 830.224 225.14 827.29 Q225.14 824.356 223.241 822.644 Q221.341 820.933 218.087 820.933 Q216.564 820.933 215.04 821.271 Q213.536 821.61 211.956 822.325 L211.956 808.219 Z" fill="#000000" fill-rule="nonzero" fill-opacity="1" /><path clip-path="url(#clip140)" d="M127.107 703.262 L134.746 703.262 L134.746 676.896 L126.435 678.563 L126.435 674.304 L134.699 672.637 L139.375 672.637 L139.375 703.262 L147.014 703.262 L147.014 707.197 L127.107 707.197 L127.107 703.262 Z" fill="#000000" fill-rule="nonzero" fill-opacity="1" /><path clip-path="url(#clip140)" d="M166.458 675.716 Q162.847 675.716 161.019 679.28 Q159.213 682.822 159.213 689.952 Q159.213 697.058 161.019 700.623 Q162.847 704.165 166.458 704.165 Q170.093 704.165 171.898 700.623 Q173.727 697.058 173.727 689.952 Q173.727 682.822 171.898 679.28 Q170.093 675.716 166.458 675.716 M166.458 672.012 Q172.269 672.012 175.324 676.618 Q178.403 681.202 178.403 689.952 Q178.403 698.678 175.324 703.285 Q172.269 707.868 166.458 707.868 Q160.648 707.868 157.57 703.285 Q154.514 698.678 154.514 689.952 Q154.514 681.202 157.57 676.618 Q160.648 672.012 166.458 672.012 Z" fill="#000000" fill-rule="nonzero" fill-opacity="1" /><path clip-path="url(#clip140)" d="M178.403 666.113 L202.514 666.113 L202.514 669.311 L178.403 669.311 L178.403 666.113 Z" fill="#000000" fill-rule="nonzero" fill-opacity="1" /><path clip-path="url(#clip140)" d="M221.153 655.017 L211.561 670.006 L221.153 670.006 L221.153 655.017 M220.156 651.707 L224.933 651.707 L224.933 670.006 L228.939 670.006 L228.939 673.166 L224.933 673.166 L224.933 679.787 L221.153 679.787 L221.153 673.166 L208.476 673.166 L208.476 669.499 L220.156 651.707 Z" fill="#000000" fill-rule="nonzero" fill-opacity="1" /><path clip-path="url(#clip140)" d="M128.028 546.749 L135.667 546.749 L135.667 520.384 L127.357 522.05 L127.357 517.791 L135.621 516.125 L140.297 516.125 L140.297 546.749 L147.936 546.749 L147.936 550.685 L128.028 550.685 L128.028 546.749 Z" fill="#000000" fill-rule="nonzero" fill-opacity="1" /><path clip-path="url(#clip140)" d="M167.38 519.203 Q163.769 519.203 161.94 522.768 Q160.135 526.31 160.135 533.439 Q160.135 540.546 161.94 544.111 Q163.769 547.652 167.38 547.652 Q171.014 547.652 172.82 544.111 Q174.648 540.546 174.648 533.439 Q174.648 526.31 172.82 522.768 Q171.014 519.203 167.38 519.203 M167.38 515.5 Q173.19 515.5 176.246 520.106 Q179.324 524.689 179.324 533.439 Q179.324 542.166 176.246 546.773 Q173.19 551.356 167.38 551.356 Q161.57 551.356 158.491 546.773 Q155.436 542.166 155.436 533.439 Q155.436 524.689 158.491 520.106 Q161.57 515.5 167.38 515.5 Z" fill="#000000" fill-rule="nonzero" fill-opacity="1" /><path clip-path="url(#clip140)" d="M179.324 509.601 L203.436 509.601 L203.436 512.798 L179.324 512.798 L179.324 509.601 Z" fill="#000000" fill-rule="nonzero" fill-opacity="1" /><path clip-path="url(#clip140)" d="M223.146 508.134 Q225.874 508.717 227.397 510.56 Q228.939 512.403 228.939 515.112 Q228.939 519.268 226.08 521.544 Q223.222 523.82 217.956 523.82 Q216.188 523.82 214.307 523.462 Q212.445 523.124 210.451 522.428 L210.451 518.76 Q212.031 519.682 213.912 520.152 Q215.793 520.622 217.843 520.622 Q221.416 520.622 223.278 519.212 Q225.159 517.801 225.159 515.112 Q225.159 512.629 223.41 511.237 Q221.679 509.827 218.576 509.827 L215.304 509.827 L215.304 506.705 L218.727 506.705 Q221.529 506.705 223.015 505.595 Q224.501 504.466 224.501 502.36 Q224.501 500.197 222.958 499.05 Q221.435 497.884 218.576 497.884 Q217.015 497.884 215.228 498.222 Q213.442 498.561 211.298 499.275 L211.298 495.89 Q213.46 495.288 215.341 494.987 Q217.241 494.686 218.915 494.686 Q223.241 494.686 225.761 496.661 Q228.281 498.617 228.281 501.965 Q228.281 504.297 226.946 505.915 Q225.61 507.513 223.146 508.134 Z" fill="#000000" fill-rule="nonzero" fill-opacity="1" /><path clip-path="url(#clip140)" d="M128.799 390.237 L136.438 390.237 L136.438 363.871 L128.128 365.538 L128.128 361.279 L136.392 359.612 L141.068 359.612 L141.068 390.237 L148.707 390.237 L148.707 394.172 L128.799 394.172 L128.799 390.237 Z" fill="#000000" fill-rule="nonzero" fill-opacity="1" /><path clip-path="url(#clip140)" d="M168.151 362.691 Q164.54 362.691 162.711 366.256 Q160.906 369.797 160.906 376.927 Q160.906 384.033 162.711 387.598 Q164.54 391.14 168.151 391.14 Q171.785 391.14 173.591 387.598 Q175.42 384.033 175.42 376.927 Q175.42 369.797 173.591 366.256 Q171.785 362.691 168.151 362.691 M168.151 358.987 Q173.961 358.987 177.017 363.594 Q180.095 368.177 180.095 376.927 Q180.095 385.654 177.017 390.26 Q173.961 394.844 168.151 394.844 Q162.341 394.844 159.262 390.26 Q156.207 385.654 156.207 376.927 Q156.207 368.177 159.262 363.594 Q162.341 358.987 168.151 358.987 Z" fill="#000000" fill-rule="nonzero" fill-opacity="1" /><path clip-path="url(#clip140)" d="M180.095 353.089 L204.207 353.089 L204.207 356.286 L180.095 356.286 L180.095 353.089 Z" fill="#000000" fill-rule="nonzero" fill-opacity="1" /><path clip-path="url(#clip140)" d="M215.68 363.565 L228.939 363.565 L228.939 366.762 L211.109 366.762 L211.109 363.565 Q213.272 361.326 216.996 357.565 Q220.739 353.784 221.698 352.694 Q223.523 350.644 224.237 349.233 Q224.971 347.804 224.971 346.431 Q224.971 344.193 223.391 342.782 Q221.83 341.371 219.31 341.371 Q217.523 341.371 215.529 341.992 Q213.555 342.613 211.298 343.873 L211.298 340.036 Q213.592 339.114 215.586 338.644 Q217.579 338.174 219.234 338.174 Q223.598 338.174 226.193 340.356 Q228.789 342.537 228.789 346.186 Q228.789 347.916 228.131 349.478 Q227.491 351.02 225.78 353.126 Q225.309 353.672 222.789 356.286 Q220.269 358.881 215.68 363.565 Z" fill="#000000" fill-rule="nonzero" fill-opacity="1" /><path clip-path="url(#clip140)" d="M128.499 233.725 L136.137 233.725 L136.137 207.359 L127.827 209.026 L127.827 204.767 L136.091 203.1 L140.767 203.1 L140.767 233.725 L148.406 233.725 L148.406 237.66 L128.499 237.66 L128.499 233.725 Z" fill="#000000" fill-rule="nonzero" fill-opacity="1" /><path clip-path="url(#clip140)" d="M167.85 206.179 Q164.239 206.179 162.41 209.743 Q160.605 213.285 160.605 220.415 Q160.605 227.521 162.41 231.086 Q164.239 234.628 167.85 234.628 Q171.484 234.628 173.29 231.086 Q175.119 227.521 175.119 220.415 Q175.119 213.285 173.29 209.743 Q171.484 206.179 167.85 206.179 M167.85 202.475 Q173.66 202.475 176.716 207.081 Q179.795 211.665 179.795 220.415 Q179.795 229.141 176.716 233.748 Q173.66 238.331 167.85 238.331 Q162.04 238.331 158.961 233.748 Q155.906 229.141 155.906 220.415 Q155.906 211.665 158.961 207.081 Q162.04 202.475 167.85 202.475 Z" fill="#000000" fill-rule="nonzero" fill-opacity="1" /><path clip-path="url(#clip140)" d="M179.795 196.576 L203.906 196.576 L203.906 199.774 L179.795 199.774 L179.795 196.576 Z" fill="#000000" fill-rule="nonzero" fill-opacity="1" /><path clip-path="url(#clip140)" d="M212.765 207.052 L218.971 207.052 L218.971 185.63 L212.219 186.984 L212.219 183.524 L218.934 182.17 L222.733 182.17 L222.733 207.052 L228.939 207.052 L228.939 210.25 L212.765 210.25 L212.765 207.052 Z" fill="#000000" fill-rule="nonzero" fill-opacity="1" /><path clip-path="url(#clip140)" d="M158.234 77.2124 L165.872 77.2124 L165.872 50.8468 L157.562 52.5135 L157.562 48.2542 L165.826 46.5876 L170.502 46.5876 L170.502 77.2124 L178.141 77.2124 L178.141 81.1476 L158.234 81.1476 L158.234 77.2124 Z" fill="#000000" fill-rule="nonzero" fill-opacity="1" /><path clip-path="url(#clip140)" d="M197.585 49.6663 Q193.974 49.6663 192.145 53.2311 Q190.34 56.7727 190.34 63.9023 Q190.34 71.0087 192.145 74.5735 Q193.974 78.1152 197.585 78.1152 Q201.22 78.1152 203.025 74.5735 Q204.854 71.0087 204.854 63.9023 Q204.854 56.7727 203.025 53.2311 Q201.22 49.6663 197.585 49.6663 M197.585 45.9626 Q203.395 45.9626 206.451 50.569 Q209.53 55.1524 209.53 63.9023 Q209.53 72.6291 206.451 77.2356 Q203.395 81.8189 197.585 81.8189 Q191.775 81.8189 188.696 77.2356 Q185.641 72.6291 185.641 63.9023 Q185.641 55.1524 188.696 50.569 Q191.775 45.9626 197.585 45.9626 Z" fill="#000000" fill-rule="nonzero" fill-opacity="1" /><path clip-path="url(#clip140)" d="M219.234 28.1586 Q216.3 28.1586 214.815 31.055 Q213.348 33.9326 213.348 39.7254 Q213.348 45.4994 214.815 48.3958 Q216.3 51.2734 219.234 51.2734 Q222.187 51.2734 223.654 48.3958 Q225.14 45.4994 225.14 39.7254 Q225.14 33.9326 223.654 31.055 Q222.187 28.1586 219.234 28.1586 M219.234 25.1494 Q223.955 25.1494 226.438 28.8921 Q228.939 32.6161 228.939 39.7254 Q228.939 46.8159 226.438 50.5587 Q223.955 54.2826 219.234 54.2826 Q214.514 54.2826 212.012 50.5587 Q209.53 46.8159 209.53 39.7254 Q209.53 32.6161 212.012 28.8921 Q214.514 25.1494 219.234 25.1494 Z" fill="#000000" fill-rule="nonzero" fill-opacity="1" /><path clip-path="url(#clip140)" d="M42.4583 1153.12 L40.3971 1153.12 Q40.3971 1145.2 36.1782 1141.11 Q36.1782 1139.98 36.4358 1139.79 Q36.6935 1139.59 37.8851 1139.59 L74.8896 1139.59 Q76.8542 1139.59 77.4661 1138.63 Q78.078 1137.66 78.078 1133.44 L78.078 1131.35 L80.107 1131.35 Q79.9137 1133.67 79.9137 1142.04 Q79.9137 1150.41 80.107 1152.7 L78.078 1152.7 L78.078 1150.61 Q78.078 1146.45 77.4983 1145.45 Q76.8864 1144.46 74.8896 1144.46 L40.7192 1144.46 Q42.4583 1147.9 42.4583 1153.12 Z" fill="#000000" fill-rule="nonzero" fill-opacity="1" /><path clip-path="url(#clip140)" d="M62.6836 1058.61 Q63.0701 1058.22 63.6176 1058.22 Q64.1651 1058.22 64.5515 1058.61 Q64.938 1059 64.938 1059.54 L64.938 1100.83 Q64.938 1101.38 64.5515 1101.77 Q64.1651 1102.15 63.6176 1102.15 Q63.0701 1102.15 62.6836 1101.77 Q62.2971 1101.38 62.2971 1100.83 L62.2971 1059.54 Q62.2971 1059 62.6836 1058.61 Z" fill="#000000" fill-rule="nonzero" fill-opacity="1" /><path clip-path="url(#clip140)" d="M94.5674 1033.04 L33.1508 1033.04 Q30.7032 1033.04 30.7032 1031.71 Q30.7032 1030.39 32.6677 1030.39 L94.0843 1030.39 Q96.5319 1030.39 96.5319 1031.71 Q96.5319 1033.04 94.5674 1033.04 Z" fill="#000000" fill-rule="nonzero" fill-opacity="1" /><path clip-path="url(#clip140)" d="M95.2759 990.898 Q95.8234 990.898 96.2099 991.285 Q96.5964 991.671 96.5964 992.219 Q96.5964 993.153 95.7268 993.475 L64.0684 1005.75 Q63.9396 1005.81 63.6176 1005.81 Q63.2955 1005.81 63.1667 1005.75 L31.5083 993.475 Q30.6388 993.153 30.6388 992.219 Q30.6388 991.671 31.0252 991.285 Q31.4117 990.898 31.9592 990.898 Q32.2813 990.898 32.4101 990.963 L63.6176 1003.1 L94.825 990.963 Q94.9539 990.898 95.2759 990.898 Z" fill="#000000" fill-rule="nonzero" fill-opacity="1" /><path clip-path="url(#clip140)" d="M37.0477 932.593 L48.4486 933.913 Q49.4792 934.01 49.8012 934.171 Q50.0911 934.332 50.0911 934.847 Q50.0911 935.234 49.8657 935.459 Q49.608 935.652 49.3182 935.652 Q49.1571 935.652 48.7384 935.62 Q48.3198 935.588 48.1265 935.588 Q46.1298 935.298 44.6161 935.298 Q41.8142 935.298 40.3005 936.135 Q38.7546 936.973 38.0461 939.131 Q37.3054 941.288 37.3054 945.346 L37.3054 954.622 Q37.3054 956.747 37.6918 957.263 Q38.0783 957.746 39.8818 958.197 L55.7593 962.158 L55.7593 955.942 Q55.7593 953.623 55.4695 952.238 Q55.1796 950.821 54.3745 949.887 Q53.5371 948.921 52.4099 948.406 Q51.2827 947.858 49.2537 947.311 Q48.5774 947.15 48.3198 946.989 Q48.0621 946.796 48.0621 946.377 Q48.0621 946.055 48.2876 945.829 Q48.4808 945.604 48.7707 945.604 L64.1973 949.372 Q64.9702 949.565 65.2601 949.759 Q65.5177 949.952 65.5177 950.338 Q65.5177 950.757 65.2923 950.982 Q65.0668 951.208 64.8092 951.208 Q64.5515 951.208 64.0684 951.015 Q61.9751 950.532 60.8478 950.532 Q60.2037 950.532 59.8817 950.596 Q59.5596 950.628 59.1087 950.918 Q58.6256 951.176 58.4002 951.755 Q58.1748 952.335 58.0137 953.43 Q57.8205 954.525 57.8205 956.168 L57.8205 962.673 L75.8236 967.182 Q77.0152 967.504 77.3373 967.504 Q77.6915 967.504 77.8203 967.343 Q77.917 967.15 77.9814 966.634 Q78.078 966.055 78.078 965.185 L78.078 955.556 Q78.078 953.43 77.8847 951.723 Q77.6915 950.016 77.2084 948.599 Q76.7253 947.15 76.1778 946.055 Q75.6303 944.96 74.632 943.929 Q73.6014 942.899 72.6996 942.19 Q71.7656 941.449 70.1875 940.58 Q68.6095 939.71 67.3212 939.098 Q66.0008 938.487 63.8752 937.553 Q63.1023 937.295 63.1023 936.683 Q63.1023 936.329 63.2955 936.135 Q63.4565 935.942 63.6176 935.91 L63.8108 935.91 Q64.4227 936.103 64.7448 936.232 L78.9797 942.287 Q79.7849 942.641 79.9459 942.931 Q80.107 943.221 80.107 944.348 L80.107 978.583 Q80.107 979.356 80.0747 979.678 Q80.0425 979.968 79.8815 980.193 Q79.6883 980.419 79.3018 980.419 Q78.6899 980.419 78.4322 980.161 Q78.1424 979.903 78.1102 979.613 Q78.078 979.324 78.078 978.583 Q78.078 976.973 77.9814 976.006 Q77.8847 975.04 77.7559 974.428 Q77.5949 973.784 77.144 973.462 Q76.6931 973.108 76.3067 972.947 Q75.888 972.786 74.954 972.56 L40.0751 963.865 Q38.8835 963.543 38.497 963.543 Q38.0783 963.543 37.8207 963.833 Q37.563 964.09 37.4664 964.799 Q37.3376 965.507 37.3376 966.087 Q37.3054 966.634 37.3054 967.826 Q37.3054 968.599 37.2732 968.921 Q37.241 969.211 37.0799 969.436 Q36.9189 969.662 36.5646 969.662 Q35.6629 969.662 35.4696 969.275 Q35.2442 968.857 35.2442 967.697 L35.2442 934.396 Q35.2442 933.076 35.534 932.786 Q35.7917 932.464 37.0477 932.593 Z" fill="#000000" fill-rule="nonzero" fill-opacity="1" /><path clip-path="url(#clip140)" d="M72.3379 925.894 L70.8951 925.894 Q70.8951 920.348 67.9418 917.485 Q67.9418 916.696 68.1222 916.561 Q68.3025 916.426 69.1366 916.426 L95.0398 916.426 Q96.415 916.426 96.8433 915.749 Q97.2717 915.073 97.2717 912.12 L97.2717 910.654 L98.692 910.654 Q98.5567 912.278 98.5567 918.139 Q98.5567 924 98.692 925.601 L97.2717 925.601 L97.2717 924.136 Q97.2717 921.228 96.8659 920.529 Q96.4375 919.83 95.0398 919.83 L71.1205 919.83 Q72.3379 922.242 72.3379 925.894 Z" fill="#000000" fill-rule="nonzero" fill-opacity="1" /><path clip-path="url(#clip140)" d="M91.072 910.342 L89.6518 910.342 L67.9869 896.161 Q67.4233 895.801 67.4458 895.237 Q67.4458 894.718 67.6487 894.606 Q67.8516 894.493 68.6407 894.493 L89.6518 894.493 L89.6518 889.871 L91.072 889.871 L91.072 894.493 L95.0849 894.493 Q96.415 894.493 96.8433 893.952 Q97.2717 893.388 97.2717 890.999 L97.2717 890.029 L98.692 890.029 Q98.5567 891.923 98.5567 896.297 Q98.5567 900.648 98.692 902.541 L97.2717 902.541 L97.2717 901.572 Q97.2717 899.182 96.8659 898.619 Q96.4375 898.055 95.0849 898.055 L91.072 898.055 L91.072 910.342 M89.6518 909.034 L89.6518 897.784 L72.4281 897.784 L89.6518 909.034 Z" fill="#000000" fill-rule="nonzero" fill-opacity="1" /><path clip-path="url(#clip140)" d="M63.6176 880.437 Q52.4743 880.437 43.4889 876.282 Q39.7208 874.511 36.5646 872.031 Q33.4085 869.551 32.0236 867.909 Q30.6388 866.266 30.6388 865.815 Q30.6388 865.171 31.2829 865.139 Q31.6049 865.139 32.4101 866.008 Q43.2312 876.636 63.6176 876.604 Q84.0683 876.604 94.4708 866.266 Q95.598 865.139 95.9522 865.139 Q96.5964 865.139 96.5964 865.815 Q96.5964 866.266 95.2759 867.844 Q93.9555 869.422 90.9281 871.87 Q87.9008 874.318 84.1971 876.089 Q75.2117 880.437 63.6176 880.437 Z" fill="#000000" fill-rule="nonzero" fill-opacity="1" /><path clip-path="url(#clip140)" d="M35.7917 812.049 Q37.1121 812.049 37.1121 813.144 Q37.1765 815.077 37.563 816.397 Q37.9173 817.717 38.6258 818.49 Q39.3343 819.231 40.1073 819.65 Q40.848 820.036 41.9752 820.294 L65.3889 826.155 Q71.9911 827.83 76.7898 833.241 Q81.5562 838.651 81.5562 844.803 Q81.5562 848.313 80.107 851.244 Q78.6577 854.142 75.727 855.946 Q72.7962 857.749 68.8993 857.749 Q67.0314 857.749 65.0668 857.266 L48.7707 853.273 L42.9736 851.791 Q38.6902 850.696 38.3037 850.696 Q37.6918 850.696 37.5308 851.083 Q37.3376 851.437 37.241 852.468 L37.1121 854.98 Q37.1121 855.753 37.0799 856.075 Q37.0477 856.364 36.8867 856.59 Q36.7257 856.815 36.3714 856.815 Q35.9205 856.815 35.6307 856.719 Q35.3086 856.59 35.212 856.364 Q35.1154 856.139 35.0832 855.978 Q35.051 855.817 35.051 855.559 L35.2442 847.057 L35.051 838.619 Q35.051 837.685 35.7917 837.685 Q36.7257 837.685 36.9189 838.104 Q37.1121 838.522 37.1121 839.939 Q37.1121 842.355 37.4342 843.45 Q37.724 844.513 38.2393 844.835 Q38.7224 845.125 40.1395 845.479 L65.8076 851.888 Q67.0958 852.21 68.384 852.403 Q69.64 852.564 70.2842 852.564 L70.9283 852.596 Q75.0184 852.596 77.2728 850.342 Q79.5272 848.055 79.5272 844.545 Q79.5272 839.392 75.4371 834.593 Q71.347 829.762 64.938 828.12 L41.3955 822.194 Q40.8158 822.001 40.0107 822.001 Q38.7224 822.001 37.9495 822.967 Q37.1443 823.901 37.1121 826.477 Q37.1121 827.669 36.3714 827.669 Q35.7595 827.669 35.4696 827.444 Q35.1476 827.186 35.1154 826.993 Q35.051 826.767 35.051 826.477 Q35.051 825.382 35.1476 823.064 Q35.2442 820.745 35.2442 819.618 Q35.2442 818.49 35.1476 816.236 Q35.051 813.982 35.051 812.887 Q35.051 812.5 35.2442 812.307 Q35.4052 812.081 35.5985 812.049 L35.7917 812.049 Z" fill="#000000" fill-rule="nonzero" fill-opacity="1" /><path clip-path="url(#clip140)" d="M95.9522 807.083 Q95.6302 807.083 94.825 806.246 Q84.0039 795.618 63.6176 795.618 Q43.1668 795.618 32.8287 805.827 Q31.6371 807.083 31.2829 807.083 Q30.6388 807.083 30.6388 806.439 Q30.6388 805.988 31.9592 804.41 Q33.2796 802.8 36.307 800.384 Q39.3343 797.937 43.038 796.133 Q52.0234 791.785 63.6176 791.785 Q74.7608 791.785 83.7462 795.94 Q87.5143 797.711 90.6705 800.191 Q93.8267 802.671 95.2115 804.313 Q96.5964 805.956 96.5964 806.439 Q96.5964 807.083 95.9522 807.083 Z" fill="#000000" fill-rule="nonzero" fill-opacity="1" /><path clip-path="url(#clip140)" d="M94.5674 778.06 L33.1508 778.06 Q30.7032 778.06 30.7032 776.739 Q30.7032 775.419 32.6677 775.419 L94.0843 775.419 Q96.5319 775.419 96.5319 776.739 Q96.5319 778.06 94.5674 778.06 Z" fill="#000000" fill-rule="nonzero" fill-opacity="1" /><path clip-path="url(#clip140)" d="M34.7289 707.099 Q35.4696 708.645 36.1782 709.546 Q37.241 711.028 39.2699 712.381 Q41.1379 713.701 43.972 715.021 Q52.6998 718.886 64.1328 721.688 Q68.8671 722.88 71.8623 722.944 Q74.9862 722.944 76.2745 721.946 Q77.0152 721.495 77.0152 720.368 Q77.0152 719.079 76.0812 717.92 Q75.115 716.664 72.6674 714.764 L73.5692 713.637 Q76.8864 716.02 78.4645 717.984 Q80.6867 720.851 80.6867 723.588 Q80.6867 725.682 79.4628 726.487 Q77.4661 728.065 73.0539 727.936 L75.7592 731.189 Q81.1697 738.016 81.1697 744.168 Q81.1697 747.743 78.3356 749.836 Q77.4017 750.577 75.2761 750.706 Q73.3115 750.706 70.5418 750.029 Q65.5821 748.773 58.1426 745.424 Q50.0911 741.785 45.2924 740.625 Q43.8109 740.271 42.9736 740.142 Q42.1362 739.981 41.0412 740.142 Q39.9462 740.271 39.1411 740.883 Q38.7224 741.108 38.4326 741.72 Q38.1427 742.3 38.1427 742.912 Q38.1427 743.942 39.0767 745.295 Q40.848 747.388 43.5533 748.065 Q44.5517 748.322 47.7079 748.805 L48.3198 750.834 Q45.2924 750.448 43.1668 749.965 Q38.9801 748.934 36.3714 745.681 Q34.4712 743.33 34.4712 740.142 Q34.4712 737.147 36.0493 735.988 Q36.9511 735.279 39.3343 735.15 Q41.7498 735.15 44.3584 735.794 Q49.3504 737.083 58.0137 741.012 Q64.3583 743.942 67.5789 744.715 Q70.574 745.456 73.1183 745.359 Q75.2439 745.359 76.6931 744.425 Q78.3356 743.169 78.3356 740.69 Q78.3356 736.954 74.3099 731.962 Q71.7978 728.934 70.4774 727.55 Q59.5274 724.876 38.497 717.405 Q35.5985 712.348 33.9882 708.033 L34.7289 707.099 Z" fill="#000000" fill-rule="nonzero" fill-opacity="1" /><path clip-path="url(#clip140)" d="M94.5674 702.253 L33.1508 702.253 Q30.7032 702.253 30.7032 700.933 Q30.7032 699.612 32.6677 699.612 L94.0843 699.612 Q96.5319 699.612 96.5319 700.933 Q96.5319 702.253 94.5674 702.253 Z" fill="#000000" fill-rule="nonzero" fill-opacity="1" /><path clip-path="url(#clip140)" d="M37.0477 627.202 L48.4486 628.522 Q49.4792 628.619 49.8012 628.78 Q50.0911 628.941 50.0911 629.456 Q50.0911 629.843 49.8657 630.068 Q49.608 630.262 49.3182 630.262 Q49.1571 630.262 48.7384 630.229 Q48.3198 630.197 48.1265 630.197 Q46.1298 629.907 44.6161 629.907 Q41.8142 629.907 40.3005 630.745 Q38.7546 631.582 38.0461 633.74 Q37.3054 635.898 37.3054 639.955 L37.3054 649.231 Q37.3054 651.356 37.6918 651.872 Q38.0783 652.355 39.8818 652.806 L55.7593 656.767 L55.7593 650.551 Q55.7593 648.232 55.4695 646.848 Q55.1796 645.43 54.3745 644.496 Q53.5371 643.53 52.4099 643.015 Q51.2827 642.468 49.2537 641.92 Q48.5774 641.759 48.3198 641.598 Q48.0621 641.405 48.0621 640.986 Q48.0621 640.664 48.2876 640.439 Q48.4808 640.213 48.7707 640.213 L64.1973 643.981 Q64.9702 644.174 65.2601 644.368 Q65.5177 644.561 65.5177 644.947 Q65.5177 645.366 65.2923 645.591 Q65.0668 645.817 64.8092 645.817 Q64.5515 645.817 64.0684 645.624 Q61.9751 645.141 60.8478 645.141 Q60.2037 645.141 59.8817 645.205 Q59.5596 645.237 59.1087 645.527 Q58.6256 645.785 58.4002 646.364 Q58.1748 646.944 58.0137 648.039 Q57.8205 649.134 57.8205 650.777 L57.8205 657.282 L75.8236 661.791 Q77.0152 662.113 77.3373 662.113 Q77.6915 662.113 77.8203 661.952 Q77.917 661.759 77.9814 661.244 Q78.078 660.664 78.078 659.794 L78.078 650.165 Q78.078 648.039 77.8847 646.332 Q77.6915 644.625 77.2084 643.208 Q76.7253 641.759 76.1778 640.664 Q75.6303 639.569 74.632 638.538 Q73.6014 637.508 72.6996 636.799 Q71.7656 636.059 70.1875 635.189 Q68.6095 634.319 67.3212 633.708 Q66.0008 633.096 63.8752 632.162 Q63.1023 631.904 63.1023 631.292 Q63.1023 630.938 63.2955 630.745 Q63.4565 630.551 63.6176 630.519 L63.8108 630.519 Q64.4227 630.712 64.7448 630.841 L78.9797 636.896 Q79.7849 637.25 79.9459 637.54 Q80.107 637.83 80.107 638.957 L80.107 673.192 Q80.107 673.965 80.0747 674.287 Q80.0425 674.577 79.8815 674.802 Q79.6883 675.028 79.3018 675.028 Q78.6899 675.028 78.4322 674.77 Q78.1424 674.512 78.1102 674.223 Q78.078 673.933 78.078 673.192 Q78.078 671.582 77.9814 670.615 Q77.8847 669.649 77.7559 669.037 Q77.5949 668.393 77.144 668.071 Q76.6931 667.717 76.3067 667.556 Q75.888 667.395 74.954 667.169 L40.0751 658.474 Q38.8835 658.152 38.497 658.152 Q38.0783 658.152 37.8207 658.442 Q37.563 658.699 37.4664 659.408 Q37.3376 660.116 37.3376 660.696 Q37.3054 661.244 37.3054 662.435 Q37.3054 663.208 37.2732 663.53 Q37.241 663.82 37.0799 664.045 Q36.9189 664.271 36.5646 664.271 Q35.6629 664.271 35.4696 663.884 Q35.2442 663.466 35.2442 662.306 L35.2442 629.005 Q35.2442 627.685 35.534 627.395 Q35.7917 627.073 37.0477 627.202 Z" fill="#000000" fill-rule="nonzero" fill-opacity="1" /><path clip-path="url(#clip140)" d="M72.0295 620.503 L70.5866 620.503 Q70.5866 614.957 67.6334 612.094 Q67.6334 611.305 67.8137 611.17 Q67.9941 611.035 68.8282 611.035 L94.7314 611.035 Q96.1066 611.035 96.5349 610.358 Q96.9632 609.682 96.9632 606.729 L96.9632 605.263 L98.3835 605.263 Q98.2483 606.887 98.2483 612.748 Q98.2483 618.61 98.3835 620.21 L96.9632 620.21 L96.9632 618.745 Q96.9632 615.837 96.5574 615.138 Q96.1291 614.439 94.7314 614.439 L70.8121 614.439 Q72.0295 616.851 72.0295 620.503 Z" fill="#000000" fill-rule="nonzero" fill-opacity="1" /><path clip-path="url(#clip140)" d="M78.0262 602.277 Q75.5689 602.277 73.9006 601.555 Q72.2098 600.834 70.5415 599.323 Q67.6334 596.55 67.6334 592.538 Q67.6334 590.824 68.3548 589.314 Q69.0762 587.781 70.7219 586.338 Q72.3451 584.873 75.5689 583.993 Q78.7701 583.114 83.1888 583.114 Q90.3353 583.114 94.8666 586.586 Q99.398 590.035 99.398 594.702 Q99.398 597.655 98.0679 599.391 Q96.7153 601.127 94.4158 601.127 Q93.2209 601.127 92.7249 600.451 Q92.2064 599.774 92.2064 599.008 Q92.2064 598.174 92.77 597.52 Q93.3111 596.866 94.3256 596.866 Q95.1597 596.866 95.8135 597.407 Q96.4447 597.926 96.4447 599.278 Q98.113 597.948 98.113 594.747 Q98.113 593.597 97.5945 592.447 Q97.0534 591.298 95.7684 590.058 Q94.4608 588.795 91.733 588.029 Q89.0052 587.262 85.1727 587.262 L83.7073 587.262 Q88.3288 589.111 88.3288 593.034 Q88.3288 596.911 85.353 599.594 Q82.3772 602.277 78.0262 602.277 M78.0713 598.129 Q82.6477 598.129 84.3385 597.294 Q87.2467 595.874 87.2467 592.988 Q87.2467 590.17 84.7443 588.773 Q82.2194 587.352 78.9505 587.352 Q74.4191 587.352 72.4353 588.096 Q68.7831 589.472 68.7831 592.538 Q68.7831 595.581 71.6913 597.159 Q73.4047 598.129 78.0713 598.129 Z" fill="#000000" fill-rule="nonzero" fill-opacity="1" /><path clip-path="url(#clip140)" d="M83.7975 579.227 Q76.5383 579.227 72.0971 575.53 Q67.6334 571.833 67.6334 567.076 Q67.6334 564.303 69.0536 562.77 Q70.4514 561.214 72.6156 561.214 Q73.8104 561.214 74.329 561.913 Q74.8475 562.612 74.8475 563.333 Q74.8475 564.168 74.2839 564.821 Q73.7203 565.475 72.7058 565.475 Q70.6317 565.475 70.6317 562.928 Q68.7831 564.122 68.7831 566.986 Q68.7831 567.865 69.0536 568.767 Q69.3016 569.668 70.1583 570.841 Q71.015 572.013 72.3676 572.915 Q73.7203 573.816 76.2678 574.448 Q78.8152 575.079 82.1292 575.079 L83.2339 575.079 Q78.6574 573.185 78.68 569.308 Q78.68 565.43 81.6332 562.747 Q84.5865 560.064 88.9601 560.064 Q93.4464 560.064 96.4222 562.86 Q99.398 565.655 99.398 569.578 Q99.398 571.337 98.654 572.937 Q97.9326 574.515 96.2644 576.003 Q94.5961 577.469 91.3948 578.348 Q88.1936 579.227 83.7975 579.227 M87.9456 574.989 Q92.477 574.989 94.6412 574.155 Q95.0019 574.019 95.4979 573.726 Q95.9938 573.411 96.6476 572.892 Q97.2789 572.351 97.7072 571.472 Q98.113 570.593 98.113 569.578 Q98.113 566.49 95.1146 565.002 Q93.4464 564.213 88.915 564.213 Q84.2935 564.213 82.6026 565.047 Q79.7395 566.467 79.7395 569.353 Q79.7395 571.291 81.0696 572.644 Q82.3997 573.974 84.1807 574.493 Q85.9617 574.989 87.9456 574.989 Z" fill="#000000" fill-rule="nonzero" fill-opacity="1" /><path clip-path="url(#clip140)" d="M63.6176 549.322 Q52.4743 549.322 43.4889 545.168 Q39.7208 543.396 36.5646 540.916 Q33.4085 538.437 32.0236 536.794 Q30.6388 535.152 30.6388 534.701 Q30.6388 534.057 31.2829 534.024 Q31.6049 534.024 32.4101 534.894 Q43.2312 545.522 63.6176 545.49 Q84.0683 545.49 94.4708 535.152 Q95.598 534.024 95.9522 534.024 Q96.5964 534.024 96.5964 534.701 Q96.5964 535.152 95.2759 536.73 Q93.9555 538.308 90.9281 540.755 Q87.9008 543.203 84.1971 544.974 Q75.2117 549.322 63.6176 549.322 Z" fill="#000000" fill-rule="nonzero" fill-opacity="1" /><path clip-path="url(#clip140)" d="M35.7917 480.935 Q37.1121 480.935 37.1121 482.03 Q37.1765 483.962 37.563 485.282 Q37.9173 486.603 38.6258 487.376 Q39.3343 488.117 40.1073 488.535 Q40.848 488.922 41.9752 489.179 L65.3889 495.041 Q71.9911 496.715 76.7898 502.126 Q81.5562 507.537 81.5562 513.688 Q81.5562 517.198 80.107 520.129 Q78.6577 523.028 75.727 524.831 Q72.7962 526.635 68.8993 526.635 Q67.0314 526.635 65.0668 526.152 L48.7707 522.158 L42.9736 520.677 Q38.6902 519.582 38.3037 519.582 Q37.6918 519.582 37.5308 519.968 Q37.3376 520.322 37.241 521.353 L37.1121 523.865 Q37.1121 524.638 37.0799 524.96 Q37.0477 525.25 36.8867 525.475 Q36.7257 525.701 36.3714 525.701 Q35.9205 525.701 35.6307 525.604 Q35.3086 525.475 35.212 525.25 Q35.1154 525.024 35.0832 524.863 Q35.051 524.702 35.051 524.445 L35.2442 515.942 L35.051 507.504 Q35.051 506.57 35.7917 506.57 Q36.7257 506.57 36.9189 506.989 Q37.1121 507.408 37.1121 508.825 Q37.1121 511.24 37.4342 512.335 Q37.724 513.398 38.2393 513.72 Q38.7224 514.01 40.1395 514.364 L65.8076 520.773 Q67.0958 521.095 68.384 521.289 Q69.64 521.45 70.2842 521.45 L70.9283 521.482 Q75.0184 521.482 77.2728 519.227 Q79.5272 516.941 79.5272 513.43 Q79.5272 508.277 75.4371 503.479 Q71.347 498.648 64.938 497.005 L41.3955 491.079 Q40.8158 490.886 40.0107 490.886 Q38.7224 490.886 37.9495 491.852 Q37.1443 492.786 37.1121 495.363 Q37.1121 496.554 36.3714 496.554 Q35.7595 496.554 35.4696 496.329 Q35.1476 496.071 35.1154 495.878 Q35.051 495.653 35.051 495.363 Q35.051 494.268 35.1476 491.949 Q35.2442 489.63 35.2442 488.503 Q35.2442 487.376 35.1476 485.121 Q35.051 482.867 35.051 481.772 Q35.051 481.386 35.2442 481.192 Q35.4052 480.967 35.5985 480.935 L35.7917 480.935 Z" fill="#000000" fill-rule="nonzero" fill-opacity="1" /><path clip-path="url(#clip140)" d="M70.0909 463.738 Q69.2858 463.674 69.2858 462.418 L69.2858 421.999 Q69.2858 420.099 70.0265 420.067 Q70.8317 420.067 70.7995 421.87 L70.7995 461.967 Q70.8317 463.738 70.0909 463.738 M57.2086 463.738 Q56.4034 463.738 56.4356 462.353 L56.4356 422.064 Q56.4356 420.099 57.2086 420.067 Q57.9493 420.067 57.9493 421.742 L57.9493 462.418 Q57.9493 463.738 57.2086 463.738 Z" fill="#000000" fill-rule="nonzero" fill-opacity="1" /><path clip-path="url(#clip140)" d="M59.0121 394.621 Q49.3182 394.621 44.0364 392.173 Q36.1782 388.76 36.1782 380.708 Q36.1782 379.001 36.6612 377.23 Q37.1121 375.426 38.8835 373.172 Q40.6548 370.885 43.5533 369.501 Q49.1571 366.86 59.0121 366.86 Q68.6417 366.86 73.8912 369.307 Q81.5562 372.882 81.5562 380.773 Q81.5562 383.736 80.0425 386.763 Q78.5289 389.758 74.8896 391.658 Q69.4468 394.621 59.0121 394.621 M58.207 389.146 Q68.1586 389.146 72.1199 388.438 Q76.4033 387.632 78.2712 385.442 Q80.107 383.22 80.107 380.773 Q80.107 378.132 78.1424 375.942 Q76.1456 373.72 71.8623 373.043 Q67.6433 372.302 58.207 372.335 Q49.0283 372.335 45.3568 372.979 Q41.0735 373.848 39.3665 376.167 Q37.6274 378.454 37.6274 380.773 Q37.6274 381.642 37.8851 382.576 Q38.1427 383.478 38.8835 384.798 Q39.6242 386.119 41.4599 387.149 Q43.2957 388.148 46.0654 388.631 Q49.6402 389.146 58.207 389.146 Z" fill="#000000" fill-rule="nonzero" fill-opacity="1" /><path clip-path="url(#clip140)" d="M95.9522 360.373 Q95.6302 360.373 94.825 359.536 Q84.0039 348.908 63.6176 348.908 Q43.1668 348.908 32.8287 359.117 Q31.6371 360.373 31.2829 360.373 Q30.6388 360.373 30.6388 359.729 Q30.6388 359.278 31.9592 357.7 Q33.2796 356.09 36.307 353.674 Q39.3343 351.227 43.038 349.423 Q52.0234 345.075 63.6176 345.075 Q74.7608 345.075 83.7462 349.23 Q87.5143 351.001 90.6705 353.481 Q93.8267 355.961 95.2115 357.603 Q96.5964 359.246 96.5964 359.729 Q96.5964 360.373 95.9522 360.373 Z" fill="#000000" fill-rule="nonzero" fill-opacity="1" /><path clip-path="url(#clip140)" d="M63.1667 320.231 Q63.2955 320.167 63.6176 320.167 Q63.9396 320.167 64.0684 320.231 L95.7268 332.501 Q96.5964 332.823 96.5964 333.725 Q96.5964 334.273 96.2099 334.659 Q95.8234 335.046 95.2759 335.046 Q94.9539 335.046 94.825 334.981 L63.6176 322.872 L32.4101 334.981 Q32.2813 335.046 31.9592 335.046 Q31.4117 335.046 31.0252 334.659 Q30.6388 334.273 30.6388 333.725 Q30.6388 332.823 31.5083 332.501 L63.1667 320.231 Z" fill="#000000" fill-rule="nonzero" fill-opacity="1" /><path clip-path="url(#clip140)" d="M94.5674 309.654 L33.1508 309.654 Q30.7032 309.654 30.7032 308.334 Q30.7032 307.014 32.6677 307.014 L94.0843 307.014 Q96.5319 307.014 96.5319 308.334 Q96.5319 309.654 94.5674 309.654 Z" fill="#000000" fill-rule="nonzero" fill-opacity="1" /><path clip-path="url(#clip140)" d="M40.3077 300.005 Q39.4736 300.005 39.2256 299.937 Q38.9776 299.847 38.5944 299.487 L28.7201 290.627 Q23.2644 285.78 18.5076 285.78 Q15.419 285.78 13.2097 287.403 Q11.0004 289.004 11.0004 291.957 Q11.0004 293.986 12.2403 295.699 Q13.4803 297.412 15.6896 298.202 Q15.6445 298.066 15.6445 297.593 Q15.6445 296.443 16.3659 295.812 Q17.0873 295.158 18.0567 295.158 Q19.2966 295.158 19.9053 295.97 Q20.4915 296.759 20.4915 297.548 Q20.4915 297.863 20.4238 298.292 Q20.3562 298.697 19.725 299.351 Q19.0712 300.005 17.9214 300.005 Q14.6976 300.005 12.1276 297.57 Q9.55758 295.113 9.55758 291.371 Q9.55758 287.132 12.0825 284.359 Q14.5849 281.564 18.5076 281.564 Q19.8828 281.564 21.1452 281.992 Q22.3852 282.398 23.3546 282.962 Q24.324 283.503 25.8795 284.991 Q27.4351 286.479 28.5397 287.673 Q29.6444 288.868 31.989 291.551 L36.7458 296.443 L36.7458 288.124 Q36.7458 284.066 36.3851 283.751 Q35.7313 283.3 32.282 282.736 L32.282 281.564 L40.3077 282.872 L40.3077 300.005 Z" fill="#000000" fill-rule="nonzero" fill-opacity="1" /><circle clip-path="url(#clip142)" cx="881.55" cy="84.9804" r="14.4" fill="#de8f05" fill-rule="evenodd" fill-opacity="1" stroke="#000000" stroke-opacity="1" stroke-width="3.2"/>
<circle clip-path="url(#clip142)" cx="443.409" cy="84.9804" r="14.4" fill="#de8f05" fill-rule="evenodd" fill-opacity="1" stroke="#000000" stroke-opacity="1" stroke-width="3.2"/>
<circle clip-path="url(#clip142)" cx="443.609" cy="84.9804" r="14.4" fill="#de8f05" fill-rule="evenodd" fill-opacity="1" stroke="#000000" stroke-opacity="1" stroke-width="3.2"/>
<circle clip-path="url(#clip142)" cx="442.001" cy="84.9804" r="14.4" fill="#de8f05" fill-rule="evenodd" fill-opacity="1" stroke="#000000" stroke-opacity="1" stroke-width="3.2"/>
<circle clip-path="url(#clip142)" cx="2293.67" cy="84.9802" r="14.4" fill="#de8f05" fill-rule="evenodd" fill-opacity="1" stroke="#000000" stroke-opacity="1" stroke-width="3.2"/>
<circle clip-path="url(#clip142)" cx="409.472" cy="84.9804" r="14.4" fill="#de8f05" fill-rule="evenodd" fill-opacity="1" stroke="#000000" stroke-opacity="1" stroke-width="3.2"/>
<circle clip-path="url(#clip142)" cx="449.713" cy="84.9804" r="14.4" fill="#de8f05" fill-rule="evenodd" fill-opacity="1" stroke="#000000" stroke-opacity="1" stroke-width="3.2"/>
<circle clip-path="url(#clip142)" cx="573.074" cy="84.9804" r="14.4" fill="#de8f05" fill-rule="evenodd" fill-opacity="1" stroke="#000000" stroke-opacity="1" stroke-width="3.2"/>
<circle clip-path="url(#clip142)" cx="808.555" cy="84.9804" r="14.4" fill="#de8f05" fill-rule="evenodd" fill-opacity="1" stroke="#000000" stroke-opacity="1" stroke-width="3.2"/>
<circle clip-path="url(#clip142)" cx="381.792" cy="84.9804" r="14.4" fill="#de8f05" fill-rule="evenodd" fill-opacity="1" stroke="#000000" stroke-opacity="1" stroke-width="3.2"/>
<circle clip-path="url(#clip142)" cx="1007.77" cy="84.9804" r="14.4" fill="#de8f05" fill-rule="evenodd" fill-opacity="1" stroke="#000000" stroke-opacity="1" stroke-width="3.2"/>
<circle clip-path="url(#clip142)" cx="390.172" cy="84.9804" r="14.4" fill="#de8f05" fill-rule="evenodd" fill-opacity="1" stroke="#000000" stroke-opacity="1" stroke-width="3.2"/>
<circle clip-path="url(#clip142)" cx="1074.46" cy="84.9804" r="14.4" fill="#de8f05" fill-rule="evenodd" fill-opacity="1" stroke="#000000" stroke-opacity="1" stroke-width="3.2"/>
<circle clip-path="url(#clip142)" cx="1023.99" cy="84.9804" r="14.4" fill="#de8f05" fill-rule="evenodd" fill-opacity="1" stroke="#000000" stroke-opacity="1" stroke-width="3.2"/>
<circle clip-path="url(#clip142)" cx="682.339" cy="84.9804" r="14.4" fill="#de8f05" fill-rule="evenodd" fill-opacity="1" stroke="#000000" stroke-opacity="1" stroke-width="3.2"/>
<circle clip-path="url(#clip142)" cx="434.513" cy="84.9804" r="14.4" fill="#de8f05" fill-rule="evenodd" fill-opacity="1" stroke="#000000" stroke-opacity="1" stroke-width="3.2"/>
<circle clip-path="url(#clip142)" cx="380.432" cy="84.9804" r="14.4" fill="#de8f05" fill-rule="evenodd" fill-opacity="1" stroke="#000000" stroke-opacity="1" stroke-width="3.2"/>
<circle clip-path="url(#clip142)" cx="324.028" cy="84.9804" r="14.4" fill="#de8f05" fill-rule="evenodd" fill-opacity="1" stroke="#000000" stroke-opacity="1" stroke-width="3.2"/>
<circle clip-path="url(#clip142)" cx="944.96" cy="84.9804" r="14.4" fill="#de8f05" fill-rule="evenodd" fill-opacity="1" stroke="#000000" stroke-opacity="1" stroke-width="3.2"/>
<circle clip-path="url(#clip142)" cx="492.999" cy="84.9804" r="14.4" fill="#de8f05" fill-rule="evenodd" fill-opacity="1" stroke="#000000" stroke-opacity="1" stroke-width="3.2"/>
<circle clip-path="url(#clip142)" cx="450.35" cy="84.9804" r="14.4" fill="#de8f05" fill-rule="evenodd" fill-opacity="1" stroke="#000000" stroke-opacity="1" stroke-width="3.2"/>
<circle clip-path="url(#clip142)" cx="802.858" cy="84.9804" r="14.4" fill="#de8f05" fill-rule="evenodd" fill-opacity="1" stroke="#000000" stroke-opacity="1" stroke-width="3.2"/>
<circle clip-path="url(#clip142)" cx="411.152" cy="84.9804" r="14.4" fill="#de8f05" fill-rule="evenodd" fill-opacity="1" stroke="#000000" stroke-opacity="1" stroke-width="3.2"/>
<circle clip-path="url(#clip142)" cx="442.642" cy="84.9804" r="14.4" fill="#de8f05" fill-rule="evenodd" fill-opacity="1" stroke="#000000" stroke-opacity="1" stroke-width="3.2"/>
<circle clip-path="url(#clip142)" cx="390.624" cy="84.9804" r="14.4" fill="#de8f05" fill-rule="evenodd" fill-opacity="1" stroke="#000000" stroke-opacity="1" stroke-width="3.2"/>
<circle clip-path="url(#clip142)" cx="416.567" cy="84.9804" r="14.4" fill="#de8f05" fill-rule="evenodd" fill-opacity="1" stroke="#000000" stroke-opacity="1" stroke-width="3.2"/>
<circle clip-path="url(#clip142)" cx="447.984" cy="84.9804" r="14.4" fill="#de8f05" fill-rule="evenodd" fill-opacity="1" stroke="#000000" stroke-opacity="1" stroke-width="3.2"/>
<circle clip-path="url(#clip142)" cx="482.4" cy="84.9804" r="14.4" fill="#de8f05" fill-rule="evenodd" fill-opacity="1" stroke="#000000" stroke-opacity="1" stroke-width="3.2"/>
<circle clip-path="url(#clip142)" cx="372.669" cy="84.9804" r="14.4" fill="#de8f05" fill-rule="evenodd" fill-opacity="1" stroke="#000000" stroke-opacity="1" stroke-width="3.2"/>
<circle clip-path="url(#clip142)" cx="476.611" cy="84.9804" r="14.4" fill="#de8f05" fill-rule="evenodd" fill-opacity="1" stroke="#000000" stroke-opacity="1" stroke-width="3.2"/>
<circle clip-path="url(#clip142)" cx="452.226" cy="84.9804" r="14.4" fill="#de8f05" fill-rule="evenodd" fill-opacity="1" stroke="#000000" stroke-opacity="1" stroke-width="3.2"/>
<circle clip-path="url(#clip142)" cx="457.12" cy="84.9804" r="14.4" fill="#de8f05" fill-rule="evenodd" fill-opacity="1" stroke="#000000" stroke-opacity="1" stroke-width="3.2"/>
<circle clip-path="url(#clip142)" cx="475.393" cy="84.9804" r="14.4" fill="#de8f05" fill-rule="evenodd" fill-opacity="1" stroke="#000000" stroke-opacity="1" stroke-width="3.2"/>
<circle clip-path="url(#clip142)" cx="2060.72" cy="84.9804" r="14.4" fill="#de8f05" fill-rule="evenodd" fill-opacity="1" stroke="#000000" stroke-opacity="1" stroke-width="3.2"/>
<circle clip-path="url(#clip142)" cx="427.582" cy="84.9804" r="14.4" fill="#de8f05" fill-rule="evenodd" fill-opacity="1" stroke="#000000" stroke-opacity="1" stroke-width="3.2"/>
<circle clip-path="url(#clip142)" cx="921.657" cy="84.9804" r="14.4" fill="#de8f05" fill-rule="evenodd" fill-opacity="1" stroke="#000000" stroke-opacity="1" stroke-width="3.2"/>
<circle clip-path="url(#clip142)" cx="441.28" cy="84.9804" r="14.4" fill="#de8f05" fill-rule="evenodd" fill-opacity="1" stroke="#000000" stroke-opacity="1" stroke-width="3.2"/>
<circle clip-path="url(#clip142)" cx="1091.54" cy="1228.65" r="14.4" fill="#029e73" fill-rule="evenodd" fill-opacity="1" stroke="#000000" stroke-opacity="1" stroke-width="3.2"/>
<circle clip-path="url(#clip142)" cx="1041.36" cy="1191.05" r="14.4" fill="#029e73" fill-rule="evenodd" fill-opacity="1" stroke="#000000" stroke-opacity="1" stroke-width="3.2"/>
<circle clip-path="url(#clip142)" cx="1046.43" cy="1176.46" r="14.4" fill="#029e73" fill-rule="evenodd" fill-opacity="1" stroke="#000000" stroke-opacity="1" stroke-width="3.2"/>
<circle clip-path="url(#clip142)" cx="1047.35" cy="1256.11" r="14.4" fill="#029e73" fill-rule="evenodd" fill-opacity="1" stroke="#000000" stroke-opacity="1" stroke-width="3.2"/>
<circle clip-path="url(#clip142)" cx="2033.83" cy="782.426" r="14.4" fill="#029e73" fill-rule="evenodd" fill-opacity="1" stroke="#000000" stroke-opacity="1" stroke-width="3.2"/>
<circle clip-path="url(#clip142)" cx="1067.48" cy="1222.78" r="14.4" fill="#029e73" fill-rule="evenodd" fill-opacity="1" stroke="#000000" stroke-opacity="1" stroke-width="3.2"/>
<circle clip-path="url(#clip142)" cx="1047.76" cy="1278.46" r="14.4" fill="#029e73" fill-rule="evenodd" fill-opacity="1" stroke="#000000" stroke-opacity="1" stroke-width="3.2"/>
<circle clip-path="url(#clip142)" cx="1063.04" cy="1251.68" r="14.4" fill="#029e73" fill-rule="evenodd" fill-opacity="1" stroke="#000000" stroke-opacity="1" stroke-width="3.2"/>
<circle clip-path="url(#clip142)" cx="1101.93" cy="1193.39" r="14.4" fill="#029e73" fill-rule="evenodd" fill-opacity="1" stroke="#000000" stroke-opacity="1" stroke-width="3.2"/>
<circle clip-path="url(#clip142)" cx="1033.68" cy="1277.89" r="14.4" fill="#029e73" fill-rule="evenodd" fill-opacity="1" stroke="#000000" stroke-opacity="1" stroke-width="3.2"/>
<circle clip-path="url(#clip142)" cx="1126.84" cy="1220.76" r="14.4" fill="#029e73" fill-rule="evenodd" fill-opacity="1" stroke="#000000" stroke-opacity="1" stroke-width="3.2"/>
<circle clip-path="url(#clip142)" cx="1063.25" cy="1228.88" r="14.4" fill="#029e73" fill-rule="evenodd" fill-opacity="1" stroke="#000000" stroke-opacity="1" stroke-width="3.2"/>
<circle clip-path="url(#clip142)" cx="1127.15" cy="1202.32" r="14.4" fill="#029e73" fill-rule="evenodd" fill-opacity="1" stroke="#000000" stroke-opacity="1" stroke-width="3.2"/>
<circle clip-path="url(#clip142)" cx="1153.75" cy="1200.2" r="14.4" fill="#029e73" fill-rule="evenodd" fill-opacity="1" stroke="#000000" stroke-opacity="1" stroke-width="3.2"/>
<circle clip-path="url(#clip142)" cx="1062.41" cy="1254.11" r="14.4" fill="#029e73" fill-rule="evenodd" fill-opacity="1" stroke="#000000" stroke-opacity="1" stroke-width="3.2"/>
<circle clip-path="url(#clip142)" cx="1056.98" cy="1259.73" r="14.4" fill="#029e73" fill-rule="evenodd" fill-opacity="1" stroke="#000000" stroke-opacity="1" stroke-width="3.2"/>
<circle clip-path="url(#clip142)" cx="1023.8" cy="1260.91" r="14.4" fill="#029e73" fill-rule="evenodd" fill-opacity="1" stroke="#000000" stroke-opacity="1" stroke-width="3.2"/>
<circle clip-path="url(#clip142)" cx="1047.02" cy="1238.73" r="14.4" fill="#029e73" fill-rule="evenodd" fill-opacity="1" stroke="#000000" stroke-opacity="1" stroke-width="3.2"/>
<circle clip-path="url(#clip142)" cx="1143.12" cy="1250.26" r="14.4" fill="#029e73" fill-rule="evenodd" fill-opacity="1" stroke="#000000" stroke-opacity="1" stroke-width="3.2"/>
<circle clip-path="url(#clip142)" cx="1057.48" cy="1285.09" r="14.4" fill="#029e73" fill-rule="evenodd" fill-opacity="1" stroke="#000000" stroke-opacity="1" stroke-width="3.2"/>
<circle clip-path="url(#clip142)" cx="1058.14" cy="1231.92" r="14.4" fill="#029e73" fill-rule="evenodd" fill-opacity="1" stroke="#000000" stroke-opacity="1" stroke-width="3.2"/>
<circle clip-path="url(#clip142)" cx="1104.03" cy="1235.09" r="14.4" fill="#029e73" fill-rule="evenodd" fill-opacity="1" stroke="#000000" stroke-opacity="1" stroke-width="3.2"/>
<circle clip-path="url(#clip142)" cx="1059.6" cy="1245.6" r="14.4" fill="#029e73" fill-rule="evenodd" fill-opacity="1" stroke="#000000" stroke-opacity="1" stroke-width="3.2"/>
<circle clip-path="url(#clip142)" cx="1047.5" cy="1322.14" r="14.4" fill="#029e73" fill-rule="evenodd" fill-opacity="1" stroke="#000000" stroke-opacity="1" stroke-width="3.2"/>
<circle clip-path="url(#clip142)" cx="1547.03" cy="1251.88" r="14.4" fill="#029e73" fill-rule="evenodd" fill-opacity="1" stroke="#000000" stroke-opacity="1" stroke-width="3.2"/>
<circle clip-path="url(#clip142)" cx="1055.98" cy="1196.92" r="14.4" fill="#029e73" fill-rule="evenodd" fill-opacity="1" stroke="#000000" stroke-opacity="1" stroke-width="3.2"/>
<circle clip-path="url(#clip142)" cx="1047.38" cy="1213.5" r="14.4" fill="#029e73" fill-rule="evenodd" fill-opacity="1" stroke="#000000" stroke-opacity="1" stroke-width="3.2"/>
<circle clip-path="url(#clip142)" cx="1027.27" cy="1224.34" r="14.4" fill="#029e73" fill-rule="evenodd" fill-opacity="1" stroke="#000000" stroke-opacity="1" stroke-width="3.2"/>
<circle clip-path="url(#clip142)" cx="1067.05" cy="1342.85" r="14.4" fill="#029e73" fill-rule="evenodd" fill-opacity="1" stroke="#000000" stroke-opacity="1" stroke-width="3.2"/>
<circle clip-path="url(#clip142)" cx="1050.27" cy="1225.27" r="14.4" fill="#029e73" fill-rule="evenodd" fill-opacity="1" stroke="#000000" stroke-opacity="1" stroke-width="3.2"/>
<circle clip-path="url(#clip142)" cx="1072.29" cy="1184.07" r="14.4" fill="#029e73" fill-rule="evenodd" fill-opacity="1" stroke="#000000" stroke-opacity="1" stroke-width="3.2"/>
<circle clip-path="url(#clip142)" cx="1213.49" cy="1227.36" r="14.4" fill="#029e73" fill-rule="evenodd" fill-opacity="1" stroke="#000000" stroke-opacity="1" stroke-width="3.2"/>
<circle clip-path="url(#clip142)" cx="1557.56" cy="1266.07" r="14.4" fill="#029e73" fill-rule="evenodd" fill-opacity="1" stroke="#000000" stroke-opacity="1" stroke-width="3.2"/>
<circle clip-path="url(#clip142)" cx="1713.28" cy="981.166" r="14.4" fill="#029e73" fill-rule="evenodd" fill-opacity="1" stroke="#000000" stroke-opacity="1" stroke-width="3.2"/>
<circle clip-path="url(#clip142)" cx="1034.16" cy="1332.95" r="14.4" fill="#029e73" fill-rule="evenodd" fill-opacity="1" stroke="#000000" stroke-opacity="1" stroke-width="3.2"/>
<circle clip-path="url(#clip142)" cx="1082.51" cy="1239.29" r="14.4" fill="#029e73" fill-rule="evenodd" fill-opacity="1" stroke="#000000" stroke-opacity="1" stroke-width="3.2"/>
<circle clip-path="url(#clip142)" cx="1544.74" cy="1324.63" r="14.4" fill="#029e73" fill-rule="evenodd" fill-opacity="1" stroke="#000000" stroke-opacity="1" stroke-width="3.2"/>
<path clip-path="url(#clip140)" d="M334.533 810.199 L659.103 810.199 L659.103 654.679 L334.533 654.679  Z" fill="#ffffff" fill-rule="evenodd" fill-opacity="1"/>
<polyline clip-path="url(#clip140)" style="stroke:#000000; stroke-linecap:round; stroke-linejoin:round; stroke-width:4; stroke-opacity:1; fill:none" points="334.533,810.199 659.103,810.199 659.103,654.679 334.533,654.679 334.533,810.199 "/>
<circle clip-path="url(#clip140)" cx="427.325" cy="706.519" r="20.48" fill="#de8f05" fill-rule="evenodd" fill-opacity="1" stroke="#000000" stroke-opacity="1" stroke-width="4.55111"/>
<path clip-path="url(#clip140)" d="M546.116 715.211 Q546.116 715.399 545.905 716.125 Q545.694 716.851 545.179 717.975 Q544.687 719.099 544.008 720.13 Q543.328 721.137 542.204 721.887 Q541.103 722.613 539.839 722.613 Q538.152 722.613 537.028 721.488 Q535.904 720.364 535.904 718.678 Q535.904 717.741 536.395 716.453 Q539.511 708.138 539.511 705.28 Q539.511 701.931 536.911 701.931 Q535.623 701.931 534.405 702.422 Q533.21 702.891 532.39 703.547 Q531.57 704.203 530.821 705.116 Q530.095 706.006 529.72 706.615 Q529.369 707.201 529.088 707.786 L528.479 710.175 Q528.338 710.831 527.659 713.384 L526.605 717.717 Q525.855 720.95 525.691 721.254 Q525.457 721.91 524.942 722.261 Q524.427 722.613 523.911 722.613 Q523.326 722.613 522.928 722.261 Q522.529 721.91 522.529 721.301 Q522.529 721.207 522.6 720.856 Q522.67 720.505 522.787 720.013 Q522.904 719.521 522.951 719.24 L525.738 708.161 Q526.254 706.147 526.371 705.514 Q526.511 704.858 526.511 704.132 Q526.511 701.931 525.012 701.931 Q523.794 701.931 522.998 703.383 Q522.201 704.835 521.522 707.646 Q521.311 708.419 521.171 708.583 Q521.054 708.747 520.702 708.747 Q520.117 708.723 520.117 708.255 Q520.117 708.138 520.304 707.365 Q520.492 706.592 520.843 705.491 Q521.218 704.367 521.569 703.617 Q521.874 703.055 522.037 702.797 Q522.225 702.516 522.67 701.977 Q523.138 701.415 523.747 701.158 Q524.38 700.877 525.153 700.877 Q526.886 700.877 528.151 702.001 Q529.416 703.102 529.58 705.046 Q532.695 700.877 537.051 700.877 Q539.628 700.877 541.103 702.235 Q542.579 703.594 542.579 706.006 Q542.579 706.568 542.462 707.294 Q542.368 707.997 542.134 708.887 Q541.923 709.777 541.736 710.456 Q541.548 711.136 541.174 712.236 Q540.799 713.314 540.635 713.782 Q540.471 714.251 540.073 715.352 Q539.698 716.429 539.651 716.546 Q538.785 718.725 538.785 719.966 Q538.785 720.786 539.042 721.16 Q539.323 721.535 539.932 721.535 Q541.572 721.535 542.79 719.919 Q544.031 718.279 544.828 715.609 Q545.015 715.024 545.109 714.883 Q545.226 714.743 545.554 714.743 Q546.116 714.743 546.116 715.211 Z" fill="#000000" fill-rule="nonzero" fill-opacity="1" /><path clip-path="url(#clip140)" d="M561.903 714.79 Q561.95 714.204 562.863 714.204 L592.258 714.204 Q593.64 714.204 593.664 714.743 Q593.664 715.328 592.352 715.305 L563.191 715.305 Q561.903 715.328 561.903 714.79 M561.903 705.421 Q561.903 704.835 562.91 704.858 L592.212 704.858 Q593.64 704.858 593.664 705.421 Q593.664 705.959 592.446 705.959 L562.863 705.959 Q561.903 705.959 561.903 705.421 Z" fill="#000000" fill-rule="nonzero" fill-opacity="1" /><path clip-path="url(#clip140)" d="M612.155 694.693 L612.155 693.194 Q617.917 693.194 620.891 690.126 Q621.711 690.126 621.852 690.313 Q621.992 690.5 621.992 691.367 L621.992 718.279 Q621.992 719.708 622.695 720.153 Q623.397 720.598 626.466 720.598 L627.988 720.598 L627.988 722.074 Q626.302 721.933 620.212 721.933 Q614.122 721.933 612.459 722.074 L612.459 720.598 L613.982 720.598 Q617.003 720.598 617.729 720.177 Q618.455 719.732 618.455 718.279 L618.455 693.428 Q615.949 694.693 612.155 694.693 Z" fill="#000000" fill-rule="nonzero" fill-opacity="1" /><circle clip-path="url(#clip140)" cx="427.325" cy="758.359" r="20.48" fill="#029e73" fill-rule="evenodd" fill-opacity="1" stroke="#000000" stroke-opacity="1" stroke-width="4.55111"/>
<path clip-path="url(#clip140)" d="M546.116 767.051 Q546.116 767.239 545.905 767.965 Q545.694 768.691 545.179 769.815 Q544.687 770.939 544.008 771.97 Q543.328 772.977 542.204 773.727 Q541.103 774.453 539.839 774.453 Q538.152 774.453 537.028 773.328 Q535.904 772.204 535.904 770.518 Q535.904 769.581 536.395 768.293 Q539.511 759.978 539.511 757.12 Q539.511 753.771 536.911 753.771 Q535.623 753.771 534.405 754.262 Q533.21 754.731 532.39 755.387 Q531.57 756.043 530.821 756.956 Q530.095 757.846 529.72 758.455 Q529.369 759.041 529.088 759.626 L528.479 762.015 Q528.338 762.671 527.659 765.224 L526.605 769.557 Q525.855 772.79 525.691 773.094 Q525.457 773.75 524.942 774.101 Q524.427 774.453 523.911 774.453 Q523.326 774.453 522.928 774.101 Q522.529 773.75 522.529 773.141 Q522.529 773.047 522.6 772.696 Q522.67 772.345 522.787 771.853 Q522.904 771.361 522.951 771.08 L525.738 760.001 Q526.254 757.987 526.371 757.354 Q526.511 756.698 526.511 755.972 Q526.511 753.771 525.012 753.771 Q523.794 753.771 522.998 755.223 Q522.201 756.675 521.522 759.486 Q521.311 760.259 521.171 760.423 Q521.054 760.587 520.702 760.587 Q520.117 760.563 520.117 760.095 Q520.117 759.978 520.304 759.205 Q520.492 758.432 520.843 757.331 Q521.218 756.207 521.569 755.457 Q521.874 754.895 522.037 754.637 Q522.225 754.356 522.67 753.817 Q523.138 753.255 523.747 752.998 Q524.38 752.717 525.153 752.717 Q526.886 752.717 528.151 753.841 Q529.416 754.942 529.58 756.886 Q532.695 752.717 537.051 752.717 Q539.628 752.717 541.103 754.075 Q542.579 755.434 542.579 757.846 Q542.579 758.408 542.462 759.134 Q542.368 759.837 542.134 760.727 Q541.923 761.617 541.736 762.296 Q541.548 762.976 541.174 764.076 Q540.799 765.154 540.635 765.622 Q540.471 766.091 540.073 767.192 Q539.698 768.269 539.651 768.386 Q538.785 770.565 538.785 771.806 Q538.785 772.626 539.042 773 Q539.323 773.375 539.932 773.375 Q541.572 773.375 542.79 771.759 Q544.031 770.119 544.828 767.449 Q545.015 766.864 545.109 766.723 Q545.226 766.583 545.554 766.583 Q546.116 766.583 546.116 767.051 Z" fill="#000000" fill-rule="nonzero" fill-opacity="1" /><path clip-path="url(#clip140)" d="M561.903 766.63 Q561.95 766.044 562.863 766.044 L592.258 766.044 Q593.64 766.044 593.664 766.583 Q593.664 767.168 592.352 767.145 L563.191 767.145 Q561.903 767.168 561.903 766.63 M561.903 757.261 Q561.903 756.675 562.91 756.698 L592.212 756.698 Q593.64 756.698 593.664 757.261 Q593.664 757.799 592.446 757.799 L562.863 757.799 Q561.903 757.799 561.903 757.261 Z" fill="#000000" fill-rule="nonzero" fill-opacity="1" /><path clip-path="url(#clip140)" d="M612.155 773.914 Q612.155 773.047 612.225 772.79 Q612.319 772.532 612.693 772.134 L621.898 761.875 Q626.934 756.207 626.934 751.264 Q626.934 748.056 625.248 745.76 Q623.585 743.465 620.517 743.465 Q618.409 743.465 616.628 744.753 Q614.848 746.041 614.029 748.337 Q614.169 748.29 614.661 748.29 Q615.855 748.29 616.511 749.039 Q617.191 749.789 617.191 750.796 Q617.191 752.084 616.347 752.717 Q615.528 753.326 614.708 753.326 Q614.38 753.326 613.935 753.255 Q613.513 753.185 612.834 752.529 Q612.155 751.85 612.155 750.655 Q612.155 747.306 614.684 744.636 Q617.237 741.966 621.126 741.966 Q625.529 741.966 628.41 744.589 Q631.314 747.189 631.314 751.264 Q631.314 752.693 630.869 754.005 Q630.448 755.293 629.862 756.3 Q629.3 757.307 627.754 758.924 Q626.208 760.54 624.967 761.687 Q623.725 762.835 620.938 765.271 L615.855 770.213 L624.498 770.213 Q628.714 770.213 629.042 769.838 Q629.511 769.159 630.096 765.576 L631.314 765.576 L629.956 773.914 L612.155 773.914 Z" fill="#000000" fill-rule="nonzero" fill-opacity="1" /></svg>
