<?xml version="1.0" encoding="utf-8"?>
<svg xmlns="http://www.w3.org/2000/svg" xmlns:xlink="http://www.w3.org/1999/xlink" width="600" height="400" viewBox="0 0 2400 1600">
<defs>
  <clipPath id="clip220">
    <rect x="0" y="0" width="2400" height="1600"/>
  </clipPath>
</defs>
<path clip-path="url(#clip220)" d="M0 1600 L2400 1600 L2400 0 L0 0  Z" fill="#ffffff" fill-rule="evenodd" fill-opacity="1"/>
<defs>
  <clipPath id="clip221">
    <rect x="480" y="0" width="1681" height="1600"/>
  </clipPath>
</defs>
<path clip-path="url(#clip220)" d="M233.812 1380.58 L2352.76 1380.58 L2352.76 47.2441 L233.812 47.2441  Z" fill="#ffffff" fill-rule="evenodd" fill-opacity="1"/>
<defs>
  <clipPath id="clip222">
    <rect x="233" y="47" width="2120" height="1334"/>
  </clipPath>
</defs>
<polyline clip-path="url(#clip222)" style="stroke:#000000; stroke-linecap:round; stroke-linejoin:round; stroke-width:2; stroke-opacity:0.1; fill:none" points="1602.72,1380.58 1602.72,47.2441 "/>
<polyline clip-path="url(#clip222)" style="stroke:#000000; stroke-linecap:round; stroke-linejoin:round; stroke-width:2; stroke-opacity:0.1; fill:none" points="1602.72,1380.58 1602.72,47.2441 "/>
<polyline clip-path="url(#clip222)" style="stroke:#000000; stroke-linecap:round; stroke-linejoin:round; stroke-width:2; stroke-opacity:0.1; fill:none" points="233.812,1342.85 2352.76,1342.85 "/>
<polyline clip-path="url(#clip222)" style="stroke:#000000; stroke-linecap:round; stroke-linejoin:round; stroke-width:2; stroke-opacity:0.1; fill:none" points="233.812,1342.85 2352.76,1342.85 "/>
<polyline clip-path="url(#clip220)" style="stroke:#000000; stroke-linecap:round; stroke-linejoin:round; stroke-width:4; stroke-opacity:1; fill:none" points="233.812,1380.58 2352.76,1380.58 "/>
<polyline clip-path="url(#clip220)" style="stroke:#000000; stroke-linecap:round; stroke-linejoin:round; stroke-width:4; stroke-opacity:1; fill:none" points="233.812,47.2441 2352.76,47.2441 "/>
<polyline clip-path="url(#clip220)" style="stroke:#000000; stroke-linecap:round; stroke-linejoin:round; stroke-width:4; stroke-opacity:1; fill:none" points="1602.72,1380.58 1602.72,1361.69 "/>
<polyline clip-path="url(#clip220)" style="stroke:#000000; stroke-linecap:round; stroke-linejoin:round; stroke-width:4; stroke-opacity:1; fill:none" points="1602.72,47.2441 1602.72,66.1417 "/>
<path clip-path="url(#clip220)" d="M1567.18 1454.71 L1574.82 1454.71 L1574.82 1428.34 L1566.51 1430.01 L1566.51 1425.75 L1574.77 1424.08 L1579.45 1424.08 L1579.45 1454.71 L1587.09 1454.71 L1587.09 1458.64 L1567.18 1458.64 L1567.18 1454.71 Z" fill="#000000" fill-rule="nonzero" fill-opacity="1" /><path clip-path="url(#clip220)" d="M1606.53 1427.16 Q1602.92 1427.16 1601.09 1430.73 Q1599.28 1434.27 1599.28 1441.4 Q1599.28 1448.51 1601.09 1452.07 Q1602.92 1455.61 1606.53 1455.61 Q1610.16 1455.61 1611.97 1452.07 Q1613.8 1448.51 1613.8 1441.4 Q1613.8 1434.27 1611.97 1430.73 Q1610.16 1427.16 1606.53 1427.16 M1606.53 1423.46 Q1612.34 1423.46 1615.4 1428.07 Q1618.47 1432.65 1618.47 1441.4 Q1618.47 1450.13 1615.4 1454.73 Q1612.34 1459.32 1606.53 1459.32 Q1600.72 1459.32 1597.64 1454.73 Q1594.59 1450.13 1594.59 1441.4 Q1594.59 1432.65 1597.64 1428.07 Q1600.72 1423.46 1606.53 1423.46 Z" fill="#000000" fill-rule="nonzero" fill-opacity="1" /><path clip-path="url(#clip220)" d="M1631.15 1406.46 L1621.56 1421.45 L1631.15 1421.45 L1631.15 1406.46 M1630.15 1403.15 L1634.93 1403.15 L1634.93 1421.45 L1638.94 1421.45 L1638.94 1424.61 L1634.93 1424.61 L1634.93 1431.23 L1631.15 1431.23 L1631.15 1424.61 L1618.47 1424.61 L1618.47 1420.95 L1630.15 1403.15 Z" fill="#000000" fill-rule="nonzero" fill-opacity="1" /><path clip-path="url(#clip220)" d="M1199.59 1571.84 L1199.59 1509.94 Q1199.59 1507.98 1200.91 1507.98 Q1202.23 1507.98 1202.23 1510.04 L1202.23 1571.68 Q1202.23 1573.81 1200.91 1573.81 Q1199.59 1573.81 1199.59 1571.84 M1206.87 1571.84 L1206.87 1510.42 Q1206.87 1507.98 1208.19 1507.98 Q1209.51 1507.98 1209.51 1510.04 L1209.51 1571.68 Q1209.51 1573.81 1208.19 1573.81 Q1206.87 1573.81 1206.87 1571.84 Z" fill="#000000" fill-rule="nonzero" fill-opacity="1" /><path clip-path="url(#clip220)" d="M1277.5 1556.06 Q1277.5 1556.67 1277.25 1556.99 Q1277.02 1557.28 1276.8 1557.35 Q1276.6 1557.38 1276.31 1557.38 Q1275.47 1557.38 1272.58 1557.28 Q1269.68 1557.19 1268.84 1557.19 Q1267.49 1557.19 1264.72 1557.28 Q1261.95 1557.38 1260.6 1557.38 Q1259.69 1557.38 1259.69 1556.64 Q1259.69 1556.16 1259.79 1555.9 Q1259.89 1555.61 1260.14 1555.51 Q1260.43 1555.38 1260.6 1555.38 Q1260.79 1555.35 1261.27 1555.35 Q1261.92 1555.35 1262.59 1555.29 Q1263.27 1555.19 1264.11 1555 Q1264.94 1554.8 1265.46 1554.32 Q1266.01 1553.84 1266.01 1553.16 Q1266.01 1552.87 1265.78 1550.49 Q1265.56 1548.11 1265.27 1545.34 Q1264.98 1542.53 1264.94 1542.15 L1248.39 1542.15 Q1246.88 1544.76 1245.81 1546.56 Q1244.75 1548.36 1244.36 1548.97 Q1243.98 1549.59 1243.75 1549.97 Q1243.53 1550.36 1243.4 1550.58 Q1242.46 1552.29 1242.46 1553.03 Q1242.46 1555.09 1245.56 1555.35 Q1246.62 1555.35 1246.62 1556.12 Q1246.62 1556.7 1246.36 1557.03 Q1246.1 1557.32 1245.88 1557.35 Q1245.68 1557.38 1245.36 1557.38 Q1244.3 1557.38 1242.08 1557.28 Q1239.85 1557.19 1238.76 1557.19 Q1237.83 1557.19 1235.89 1557.28 Q1233.96 1557.38 1233.09 1557.38 Q1232.71 1557.38 1232.48 1557.15 Q1232.25 1556.93 1232.25 1556.64 Q1232.25 1556.19 1232.32 1555.93 Q1232.42 1555.67 1232.67 1555.54 Q1232.93 1555.42 1233.06 1555.42 Q1233.19 1555.38 1233.64 1555.35 Q1236.09 1555.19 1237.99 1554.03 Q1239.92 1552.84 1241.76 1549.78 L1264.69 1511.26 Q1264.91 1510.88 1265.07 1510.68 Q1265.23 1510.49 1265.56 1510.33 Q1265.91 1510.17 1266.42 1510.17 Q1267.23 1510.17 1267.39 1510.42 Q1267.55 1510.65 1267.65 1511.74 L1271.67 1552.97 Q1271.77 1553.84 1271.84 1554.19 Q1271.93 1554.51 1272.35 1554.87 Q1272.8 1555.19 1273.61 1555.29 Q1274.44 1555.35 1275.99 1555.35 Q1276.57 1555.35 1276.8 1555.38 Q1277.02 1555.38 1277.25 1555.54 Q1277.5 1555.71 1277.5 1556.06 M1264.75 1540.09 L1262.66 1518.35 L1249.65 1540.09 L1264.75 1540.09 Z" fill="#000000" fill-rule="nonzero" fill-opacity="1" /><path clip-path="url(#clip220)" d="M1284.11 1497.93 Q1284.11 1490.13 1287.02 1483.84 Q1288.26 1481.2 1289.99 1479 Q1291.73 1476.79 1292.88 1475.82 Q1294.03 1474.85 1294.34 1474.85 Q1294.79 1474.85 1294.82 1475.3 Q1294.82 1475.52 1294.21 1476.09 Q1286.77 1483.66 1286.79 1497.93 Q1286.79 1512.25 1294.03 1519.53 Q1294.82 1520.32 1294.82 1520.57 Q1294.82 1521.02 1294.34 1521.02 Q1294.03 1521.02 1292.92 1520.09 Q1291.82 1519.17 1290.1 1517.05 Q1288.39 1514.93 1287.15 1512.34 Q1284.11 1506.05 1284.11 1497.93 Z" fill="#000000" fill-rule="nonzero" fill-opacity="1" /><path clip-path="url(#clip220)" d="M1299.25 1509.48 Q1299.25 1508.64 1299.32 1508.39 Q1299.41 1508.14 1299.77 1507.76 L1308.63 1497.89 Q1313.47 1492.43 1313.47 1487.67 Q1313.47 1484.59 1311.85 1482.38 Q1310.25 1480.17 1307.3 1480.17 Q1305.27 1480.17 1303.55 1481.41 Q1301.84 1482.65 1301.05 1484.86 Q1301.19 1484.81 1301.66 1484.81 Q1302.81 1484.81 1303.44 1485.53 Q1304.1 1486.25 1304.1 1487.22 Q1304.1 1488.46 1303.28 1489.07 Q1302.5 1489.66 1301.71 1489.66 Q1301.39 1489.66 1300.96 1489.59 Q1300.56 1489.52 1299.9 1488.89 Q1299.25 1488.24 1299.25 1487.09 Q1299.25 1483.86 1301.68 1481.29 Q1304.14 1478.72 1307.88 1478.72 Q1312.12 1478.72 1314.89 1481.25 Q1317.69 1483.75 1317.69 1487.67 Q1317.69 1489.05 1317.26 1490.31 Q1316.86 1491.55 1316.29 1492.52 Q1315.75 1493.49 1314.26 1495.05 Q1312.78 1496.6 1311.58 1497.71 Q1310.39 1498.81 1307.7 1501.16 L1302.81 1505.91 L1311.13 1505.91 Q1315.19 1505.91 1315.5 1505.55 Q1315.95 1504.9 1316.52 1501.45 L1317.69 1501.45 L1316.38 1509.48 L1299.25 1509.48 Z" fill="#000000" fill-rule="nonzero" fill-opacity="1" /><path clip-path="url(#clip220)" d="M1323.22 1520.57 Q1323.22 1520.34 1323.81 1519.78 Q1331.25 1512.2 1331.25 1497.93 Q1331.25 1483.62 1324.1 1476.38 Q1323.22 1475.55 1323.22 1475.3 Q1323.22 1474.85 1323.67 1474.85 Q1323.99 1474.85 1325.09 1475.77 Q1326.22 1476.7 1327.91 1478.82 Q1329.63 1480.93 1330.89 1483.53 Q1333.93 1489.82 1333.93 1497.93 Q1333.93 1505.73 1331.02 1512.02 Q1329.78 1514.66 1328.05 1516.87 Q1326.31 1519.08 1325.16 1520.05 Q1324.01 1521.02 1323.67 1521.02 Q1323.22 1521.02 1323.22 1520.57 Z" fill="#000000" fill-rule="nonzero" fill-opacity="1" /><path clip-path="url(#clip220)" d="M1347.99 1571.84 L1347.99 1509.94 Q1347.99 1507.98 1349.31 1507.98 Q1350.63 1507.98 1350.63 1510.04 L1350.63 1571.68 Q1350.63 1573.81 1349.31 1573.81 Q1347.99 1573.81 1347.99 1571.84 M1355.27 1571.84 L1355.27 1510.42 Q1355.27 1507.98 1356.59 1507.98 Q1357.91 1507.98 1357.91 1510.04 L1357.91 1571.68 Q1357.91 1573.81 1356.59 1573.81 Q1355.27 1573.81 1355.27 1571.84 Z" fill="#000000" fill-rule="nonzero" fill-opacity="1" /><path clip-path="url(#clip220)" d="M1364.84 1565.57 L1364.84 1564.13 Q1370.39 1564.13 1373.25 1561.17 Q1374.04 1561.17 1374.18 1561.35 Q1374.31 1561.53 1374.31 1562.37 L1374.31 1588.27 Q1374.31 1589.65 1374.99 1590.07 Q1375.67 1590.5 1378.62 1590.5 L1380.08 1590.5 L1380.08 1591.92 Q1378.46 1591.79 1372.6 1591.79 Q1366.74 1591.79 1365.14 1591.92 L1365.14 1590.5 L1366.6 1590.5 Q1369.51 1590.5 1370.21 1590.1 Q1370.91 1589.67 1370.91 1588.27 L1370.91 1564.35 Q1368.5 1565.57 1364.84 1565.57 Z" fill="#000000" fill-rule="nonzero" fill-opacity="1" /><polyline clip-path="url(#clip220)" style="stroke:#000000; stroke-linecap:round; stroke-linejoin:round; stroke-width:4; stroke-opacity:1; fill:none" points="233.812,1380.58 233.812,47.2441 "/>
<polyline clip-path="url(#clip220)" style="stroke:#000000; stroke-linecap:round; stroke-linejoin:round; stroke-width:4; stroke-opacity:1; fill:none" points="2352.76,1380.58 2352.76,47.2441 "/>
<polyline clip-path="url(#clip220)" style="stroke:#000000; stroke-linecap:round; stroke-linejoin:round; stroke-width:4; stroke-opacity:1; fill:none" points="233.812,1342.85 252.71,1342.85 "/>
<polyline clip-path="url(#clip220)" style="stroke:#000000; stroke-linecap:round; stroke-linejoin:round; stroke-width:4; stroke-opacity:1; fill:none" points="2352.76,1342.85 2333.86,1342.85 "/>
<path clip-path="url(#clip220)" d="M127.107 1362.64 L134.746 1362.64 L134.746 1336.28 L126.435 1337.94 L126.435 1333.68 L134.699 1332.02 L139.375 1332.02 L139.375 1362.64 L147.014 1362.64 L147.014 1366.58 L127.107 1366.58 L127.107 1362.64 Z" fill="#000000" fill-rule="nonzero" fill-opacity="1" /><path clip-path="url(#clip220)" d="M166.458 1335.1 Q162.847 1335.1 161.019 1338.66 Q159.213 1342.2 159.213 1349.33 Q159.213 1356.44 161.019 1360 Q162.847 1363.54 166.458 1363.54 Q170.093 1363.54 171.898 1360 Q173.727 1356.44 173.727 1349.33 Q173.727 1342.2 171.898 1338.66 Q170.093 1335.1 166.458 1335.1 M166.458 1331.39 Q172.269 1331.39 175.324 1336 Q178.403 1340.58 178.403 1349.33 Q178.403 1358.06 175.324 1362.66 Q172.269 1367.25 166.458 1367.25 Q160.648 1367.25 157.57 1362.66 Q154.514 1358.06 154.514 1349.33 Q154.514 1340.58 157.57 1336 Q160.648 1331.39 166.458 1331.39 Z" fill="#000000" fill-rule="nonzero" fill-opacity="1" /><path clip-path="url(#clip220)" d="M188.108 1313.59 Q185.174 1313.59 183.688 1316.48 Q182.221 1319.36 182.221 1325.15 Q182.221 1330.93 183.688 1333.82 Q185.174 1336.7 188.108 1336.7 Q191.06 1336.7 192.527 1333.82 Q194.013 1330.93 194.013 1325.15 Q194.013 1319.36 192.527 1316.48 Q191.06 1313.59 188.108 1313.59 M188.108 1310.58 Q192.828 1310.58 195.311 1314.32 Q197.812 1318.04 197.812 1325.15 Q197.812 1332.24 195.311 1335.99 Q192.828 1339.71 188.108 1339.71 Q183.387 1339.71 180.885 1335.99 Q178.403 1332.24 178.403 1325.15 Q178.403 1318.04 180.885 1314.32 Q183.387 1310.58 188.108 1310.58 Z" fill="#000000" fill-rule="nonzero" fill-opacity="1" /><path clip-path="url(#clip220)" d="M42.4583 1153.12 L40.3971 1153.12 Q40.3971 1145.2 36.1782 1141.11 Q36.1782 1139.98 36.4358 1139.79 Q36.6935 1139.59 37.8851 1139.59 L74.8896 1139.59 Q76.8542 1139.59 77.4661 1138.63 Q78.078 1137.66 78.078 1133.44 L78.078 1131.35 L80.107 1131.35 Q79.9137 1133.67 79.9137 1142.04 Q79.9137 1150.41 80.107 1152.7 L78.078 1152.7 L78.078 1150.61 Q78.078 1146.45 77.4983 1145.45 Q76.8864 1144.46 74.8896 1144.46 L40.7192 1144.46 Q42.4583 1147.9 42.4583 1153.12 Z" fill="#000000" fill-rule="nonzero" fill-opacity="1" /><path clip-path="url(#clip220)" d="M62.6836 1058.61 Q63.0701 1058.22 63.6176 1058.22 Q64.1651 1058.22 64.5515 1058.61 Q64.938 1059 64.938 1059.54 L64.938 1100.83 Q64.938 1101.38 64.5515 1101.77 Q64.1651 1102.15 63.6176 1102.15 Q63.0701 1102.15 62.6836 1101.77 Q62.2971 1101.38 62.2971 1100.83 L62.2971 1059.54 Q62.2971 1059 62.6836 1058.61 Z" fill="#000000" fill-rule="nonzero" fill-opacity="1" /><path clip-path="url(#clip220)" d="M94.5674 1033.04 L33.1508 1033.04 Q30.7032 1033.04 30.7032 1031.71 Q30.7032 1030.39 32.6677 1030.39 L94.0843 1030.39 Q96.5319 1030.39 96.5319 1031.71 Q96.5319 1033.04 94.5674 1033.04 Z" fill="#000000" fill-rule="nonzero" fill-opacity="1" /><path clip-path="url(#clip220)" d="M95.2759 990.898 Q95.8234 990.898 96.2099 991.285 Q96.5964 991.671 96.5964 992.219 Q96.5964 993.153 95.7268 993.475 L64.0684 1005.75 Q63.9396 1005.81 63.6176 1005.81 Q63.2955 1005.81 63.1667 1005.75 L31.5083 993.475 Q30.6388 993.153 30.6388 992.219 Q30.6388 991.671 31.0252 991.285 Q31.4117 990.898 31.9592 990.898 Q32.2813 990.898 32.4101 990.963 L63.6176 1003.1 L94.825 990.963 Q94.9539 990.898 95.2759 990.898 Z" fill="#000000" fill-rule="nonzero" fill-opacity="1" /><path clip-path="url(#clip220)" d="M37.0477 932.593 L48.4486 933.913 Q49.4792 934.01 49.8012 934.171 Q50.0911 934.332 50.0911 934.847 Q50.0911 935.234 49.8657 935.459 Q49.608 935.652 49.3182 935.652 Q49.1571 935.652 48.7384 935.62 Q48.3198 935.588 48.1265 935.588 Q46.1298 935.298 44.6161 935.298 Q41.8142 935.298 40.3005 936.135 Q38.7546 936.973 38.0461 939.131 Q37.3054 941.288 37.3054 945.346 L37.3054 954.622 Q37.3054 956.747 37.6918 957.263 Q38.0783 957.746 39.8818 958.197 L55.7593 962.158 L55.7593 955.942 Q55.7593 953.623 55.4695 952.238 Q55.1796 950.821 54.3745 949.887 Q53.5371 948.921 52.4099 948.406 Q51.2827 947.858 49.2537 947.311 Q48.5774 947.15 48.3198 946.989 Q48.0621 946.796 48.0621 946.377 Q48.0621 946.055 48.2876 945.829 Q48.4808 945.604 48.7707 945.604 L64.1973 949.372 Q64.9702 949.565 65.2601 949.759 Q65.5177 949.952 65.5177 950.338 Q65.5177 950.757 65.2923 950.982 Q65.0668 951.208 64.8092 951.208 Q64.5515 951.208 64.0684 951.015 Q61.9751 950.532 60.8478 950.532 Q60.2037 950.532 59.8817 950.596 Q59.5596 950.628 59.1087 950.918 Q58.6256 951.176 58.4002 951.755 Q58.1748 952.335 58.0137 953.43 Q57.8205 954.525 57.8205 956.168 L57.8205 962.673 L75.8236 967.182 Q77.0152 967.504 77.3373 967.504 Q77.6915 967.504 77.8203 967.343 Q77.917 967.15 77.9814 966.634 Q78.078 966.055 78.078 965.185 L78.078 955.556 Q78.078 953.43 77.8847 951.723 Q77.6915 950.016 77.2084 948.599 Q76.7253 947.15 76.1778 946.055 Q75.6303 944.96 74.632 943.929 Q73.6014 942.899 72.6996 942.19 Q71.7656 941.449 70.1875 940.58 Q68.6095 939.71 67.3212 939.098 Q66.0008 938.487 63.8752 937.553 Q63.1023 937.295 63.1023 936.683 Q63.1023 936.329 63.2955 936.135 Q63.4565 935.942 63.6176 935.91 L63.8108 935.91 Q64.4227 936.103 64.7448 936.232 L78.9797 942.287 Q79.7849 942.641 79.9459 942.931 Q80.107 943.221 80.107 944.348 L80.107 978.583 Q80.107 979.356 80.0747 979.678 Q80.0425 979.968 79.8815 980.193 Q79.6883 980.419 79.3018 980.419 Q78.6899 980.419 78.4322 980.161 Q78.1424 979.903 78.1102 979.613 Q78.078 979.324 78.078 978.583 Q78.078 976.973 77.9814 976.006 Q77.8847 975.04 77.7559 974.428 Q77.5949 973.784 77.144 973.462 Q76.6931 973.108 76.3067 972.947 Q75.888 972.786 74.954 972.56 L40.0751 963.865 Q38.8835 963.543 38.497 963.543 Q38.0783 963.543 37.8207 963.833 Q37.563 964.09 37.4664 964.799 Q37.3376 965.507 37.3376 966.087 Q37.3054 966.634 37.3054 967.826 Q37.3054 968.599 37.2732 968.921 Q37.241 969.211 37.0799 969.436 Q36.9189 969.662 36.5646 969.662 Q35.6629 969.662 35.4696 969.275 Q35.2442 968.857 35.2442 967.697 L35.2442 934.396 Q35.2442 933.076 35.534 932.786 Q35.7917 932.464 37.0477 932.593 Z" fill="#000000" fill-rule="nonzero" fill-opacity="1" /><path clip-path="url(#clip220)" d="M72.3379 925.894 L70.8951 925.894 Q70.8951 920.348 67.9418 917.485 Q67.9418 916.696 68.1222 916.561 Q68.3025 916.426 69.1366 916.426 L95.0398 916.426 Q96.415 916.426 96.8433 915.749 Q97.2717 915.073 97.2717 912.12 L97.2717 910.654 L98.692 910.654 Q98.5567 912.278 98.5567 918.139 Q98.5567 924 98.692 925.601 L97.2717 925.601 L97.2717 924.136 Q97.2717 921.228 96.8659 920.529 Q96.4375 919.83 95.0398 919.83 L71.1205 919.83 Q72.3379 922.242 72.3379 925.894 Z" fill="#000000" fill-rule="nonzero" fill-opacity="1" /><path clip-path="url(#clip220)" d="M91.072 910.342 L89.6518 910.342 L67.9869 896.161 Q67.4233 895.801 67.4458 895.237 Q67.4458 894.718 67.6487 894.606 Q67.8516 894.493 68.6407 894.493 L89.6518 894.493 L89.6518 889.871 L91.072 889.871 L91.072 894.493 L95.0849 894.493 Q96.415 894.493 96.8433 893.952 Q97.2717 893.388 97.2717 890.999 L97.2717 890.029 L98.692 890.029 Q98.5567 891.923 98.5567 896.297 Q98.5567 900.648 98.692 902.541 L97.2717 902.541 L97.2717 901.572 Q97.2717 899.182 96.8659 898.619 Q96.4375 898.055 95.0849 898.055 L91.072 898.055 L91.072 910.342 M89.6518 909.034 L89.6518 897.784 L72.4281 897.784 L89.6518 909.034 Z" fill="#000000" fill-rule="nonzero" fill-opacity="1" /><path clip-path="url(#clip220)" d="M63.6176 880.437 Q52.4743 880.437 43.4889 876.282 Q39.7208 874.511 36.5646 872.031 Q33.4085 869.551 32.0236 867.909 Q30.6388 866.266 30.6388 865.815 Q30.6388 865.171 31.2829 865.139 Q31.6049 865.139 32.4101 866.008 Q43.2312 876.636 63.6176 876.604 Q84.0683 876.604 94.4708 866.266 Q95.598 865.139 95.9522 865.139 Q96.5964 865.139 96.5964 865.815 Q96.5964 866.266 95.2759 867.844 Q93.9555 869.422 90.9281 871.87 Q87.9008 874.318 84.1971 876.089 Q75.2117 880.437 63.6176 880.437 Z" fill="#000000" fill-rule="nonzero" fill-opacity="1" /><path clip-path="url(#clip220)" d="M35.7917 812.049 Q37.1121 812.049 37.1121 813.144 Q37.1765 815.077 37.563 816.397 Q37.9173 817.717 38.6258 818.49 Q39.3343 819.231 40.1073 819.65 Q40.848 820.036 41.9752 820.294 L65.3889 826.155 Q71.9911 827.83 76.7898 833.241 Q81.5562 838.651 81.5562 844.803 Q81.5562 848.313 80.107 851.244 Q78.6577 854.142 75.727 855.946 Q72.7962 857.749 68.8993 857.749 Q67.0314 857.749 65.0668 857.266 L48.7707 853.273 L42.9736 851.791 Q38.6902 850.696 38.3037 850.696 Q37.6918 850.696 37.5308 851.083 Q37.3376 851.437 37.241 852.468 L37.1121 854.98 Q37.1121 855.753 37.0799 856.075 Q37.0477 856.364 36.8867 856.59 Q36.7257 856.815 36.3714 856.815 Q35.9205 856.815 35.6307 856.719 Q35.3086 856.59 35.212 856.364 Q35.1154 856.139 35.0832 855.978 Q35.051 855.817 35.051 855.559 L35.2442 847.057 L35.051 838.619 Q35.051 837.685 35.7917 837.685 Q36.7257 837.685 36.9189 838.104 Q37.1121 838.522 37.1121 839.939 Q37.1121 842.355 37.4342 843.45 Q37.724 844.513 38.2393 844.835 Q38.7224 845.125 40.1395 845.479 L65.8076 851.888 Q67.0958 852.21 68.384 852.403 Q69.64 852.564 70.2842 852.564 L70.9283 852.596 Q75.0184 852.596 77.2728 850.342 Q79.5272 848.055 79.5272 844.545 Q79.5272 839.392 75.4371 834.593 Q71.347 829.762 64.938 828.12 L41.3955 822.194 Q40.8158 822.001 40.0107 822.001 Q38.7224 822.001 37.9495 822.967 Q37.1443 823.901 37.1121 826.477 Q37.1121 827.669 36.3714 827.669 Q35.7595 827.669 35.4696 827.444 Q35.1476 827.186 35.1154 826.993 Q35.051 826.767 35.051 826.477 Q35.051 825.382 35.1476 823.064 Q35.2442 820.745 35.2442 819.618 Q35.2442 818.49 35.1476 816.236 Q35.051 813.982 35.051 812.887 Q35.051 812.5 35.2442 812.307 Q35.4052 812.081 35.5985 812.049 L35.7917 812.049 Z" fill="#000000" fill-rule="nonzero" fill-opacity="1" /><path clip-path="url(#clip220)" d="M95.9522 807.083 Q95.6302 807.083 94.825 806.246 Q84.0039 795.618 63.6176 795.618 Q43.1668 795.618 32.8287 805.827 Q31.6371 807.083 31.2829 807.083 Q30.6388 807.083 30.6388 806.439 Q30.6388 805.988 31.9592 804.41 Q33.2796 802.8 36.307 800.384 Q39.3343 797.937 43.038 796.133 Q52.0234 791.785 63.6176 791.785 Q74.7608 791.785 83.7462 795.94 Q87.5143 797.711 90.6705 800.191 Q93.8267 802.671 95.2115 804.313 Q96.5964 805.956 96.5964 806.439 Q96.5964 807.083 95.9522 807.083 Z" fill="#000000" fill-rule="nonzero" fill-opacity="1" /><path clip-path="url(#clip220)" d="M94.5674 778.06 L33.1508 778.06 Q30.7032 778.06 30.7032 776.739 Q30.7032 775.419 32.6677 775.419 L94.0843 775.419 Q96.5319 775.419 96.5319 776.739 Q96.5319 778.06 94.5674 778.06 Z" fill="#000000" fill-rule="nonzero" fill-opacity="1" /><path clip-path="url(#clip220)" d="M34.7289 707.099 Q35.4696 708.645 36.1782 709.546 Q37.241 711.028 39.2699 712.381 Q41.1379 713.701 43.972 715.021 Q52.6998 718.886 64.1328 721.688 Q68.8671 722.88 71.8623 722.944 Q74.9862 722.944 76.2745 721.946 Q77.0152 721.495 77.0152 720.368 Q77.0152 719.079 76.0812 717.92 Q75.115 716.664 72.6674 714.764 L73.5692 713.637 Q76.8864 716.02 78.4645 717.984 Q80.6867 720.851 80.6867 723.588 Q80.6867 725.682 79.4628 726.487 Q77.4661 728.065 73.0539 727.936 L75.7592 731.189 Q81.1697 738.016 81.1697 744.168 Q81.1697 747.743 78.3356 749.836 Q77.4017 750.577 75.2761 750.706 Q73.3115 750.706 70.5418 750.029 Q65.5821 748.773 58.1426 745.424 Q50.0911 741.785 45.2924 740.625 Q43.8109 740.271 42.9736 740.142 Q42.1362 739.981 41.0412 740.142 Q39.9462 740.271 39.1411 740.883 Q38.7224 741.108 38.4326 741.72 Q38.1427 742.3 38.1427 742.912 Q38.1427 743.942 39.0767 745.295 Q40.848 747.388 43.5533 748.065 Q44.5517 748.322 47.7079 748.805 L48.3198 750.834 Q45.2924 750.448 43.1668 749.965 Q38.9801 748.934 36.3714 745.681 Q34.4712 743.33 34.4712 740.142 Q34.4712 737.147 36.0493 735.988 Q36.9511 735.279 39.3343 735.15 Q41.7498 735.15 44.3584 735.794 Q49.3504 737.083 58.0137 741.012 Q64.3583 743.942 67.5789 744.715 Q70.574 745.456 73.1183 745.359 Q75.2439 745.359 76.6931 744.425 Q78.3356 743.169 78.3356 740.69 Q78.3356 736.954 74.3099 731.962 Q71.7978 728.934 70.4774 727.55 Q59.5274 724.876 38.497 717.405 Q35.5985 712.348 33.9882 708.033 L34.7289 707.099 Z" fill="#000000" fill-rule="nonzero" fill-opacity="1" /><path clip-path="url(#clip220)" d="M94.5674 702.253 L33.1508 702.253 Q30.7032 702.253 30.7032 700.933 Q30.7032 699.612 32.6677 699.612 L94.0843 699.612 Q96.5319 699.612 96.5319 700.933 Q96.5319 702.253 94.5674 702.253 Z" fill="#000000" fill-rule="nonzero" fill-opacity="1" /><path clip-path="url(#clip220)" d="M37.0477 627.202 L48.4486 628.522 Q49.4792 628.619 49.8012 628.78 Q50.0911 628.941 50.0911 629.456 Q50.0911 629.843 49.8657 630.068 Q49.608 630.262 49.3182 630.262 Q49.1571 630.262 48.7384 630.229 Q48.3198 630.197 48.1265 630.197 Q46.1298 629.907 44.6161 629.907 Q41.8142 629.907 40.3005 630.745 Q38.7546 631.582 38.0461 633.74 Q37.3054 635.898 37.3054 639.955 L37.3054 649.231 Q37.3054 651.356 37.6918 651.872 Q38.0783 652.355 39.8818 652.806 L55.7593 656.767 L55.7593 650.551 Q55.7593 648.232 55.4695 646.848 Q55.1796 645.43 54.3745 644.496 Q53.5371 643.53 52.4099 643.015 Q51.2827 642.468 49.2537 641.92 Q48.5774 641.759 48.3198 641.598 Q48.0621 641.405 48.0621 640.986 Q48.0621 640.664 48.2876 640.439 Q48.4808 640.213 48.7707 640.213 L64.1973 643.981 Q64.9702 644.174 65.2601 644.368 Q65.5177 644.561 65.5177 644.947 Q65.5177 645.366 65.2923 645.591 Q65.0668 645.817 64.8092 645.817 Q64.5515 645.817 64.0684 645.624 Q61.9751 645.141 60.8478 645.141 Q60.2037 645.141 59.8817 645.205 Q59.5596 645.237 59.1087 645.527 Q58.6256 645.785 58.4002 646.364 Q58.1748 646.944 58.0137 648.039 Q57.8205 649.134 57.8205 650.777 L57.8205 657.282 L75.8236 661.791 Q77.0152 662.113 77.3373 662.113 Q77.6915 662.113 77.8203 661.952 Q77.917 661.759 77.9814 661.244 Q78.078 660.664 78.078 659.794 L78.078 650.165 Q78.078 648.039 77.8847 646.332 Q77.6915 644.625 77.2084 643.208 Q76.7253 641.759 76.1778 640.664 Q75.6303 639.569 74.632 638.538 Q73.6014 637.508 72.6996 636.799 Q71.7656 636.059 70.1875 635.189 Q68.6095 634.319 67.3212 633.708 Q66.0008 633.096 63.8752 632.162 Q63.1023 631.904 63.1023 631.292 Q63.1023 630.938 63.2955 630.745 Q63.4565 630.551 63.6176 630.519 L63.8108 630.519 Q64.4227 630.712 64.7448 630.841 L78.9797 636.896 Q79.7849 637.25 79.9459 637.54 Q80.107 637.83 80.107 638.957 L80.107 673.192 Q80.107 673.965 80.0747 674.287 Q80.0425 674.577 79.8815 674.802 Q79.6883 675.028 79.3018 675.028 Q78.6899 675.028 78.4322 674.77 Q78.1424 674.512 78.1102 674.223 Q78.078 673.933 78.078 673.192 Q78.078 671.582 77.9814 670.615 Q77.8847 669.649 77.7559 669.037 Q77.5949 668.393 77.144 668.071 Q76.6931 667.717 76.3067 667.556 Q75.888 667.395 74.954 667.169 L40.0751 658.474 Q38.8835 658.152 38.497 658.152 Q38.0783 658.152 37.8207 658.442 Q37.563 658.699 37.4664 659.408 Q37.3376 660.116 37.3376 660.696 Q37.3054 661.244 37.3054 662.435 Q37.3054 663.208 37.2732 663.53 Q37.241 663.82 37.0799 664.045 Q36.9189 664.271 36.5646 664.271 Q35.6629 664.271 35.4696 663.884 Q35.2442 663.466 35.2442 662.306 L35.2442 629.005 Q35.2442 627.685 35.534 627.395 Q35.7917 627.073 37.0477 627.202 Z" fill="#000000" fill-rule="nonzero" fill-opacity="1" /><path clip-path="url(#clip220)" d="M72.0295 620.503 L70.5866 620.503 Q70.5866 614.957 67.6334 612.094 Q67.6334 611.305 67.8137 611.17 Q67.9941 611.035 68.8282 611.035 L94.7314 611.035 Q96.1066 611.035 96.5349 610.358 Q96.9632 609.682 96.9632 606.729 L96.9632 605.263 L98.3835 605.263 Q98.2483 606.887 98.2483 612.748 Q98.2483 618.61 98.3835 620.21 L96.9632 620.21 L96.9632 618.745 Q96.9632 615.837 96.5574 615.138 Q96.1291 614.439 94.7314 614.439 L70.8121 614.439 Q72.0295 616.851 72.0295 620.503 Z" fill="#000000" fill-rule="nonzero" fill-opacity="1" /><path clip-path="url(#clip220)" d="M78.0262 602.277 Q75.5689 602.277 73.9006 601.555 Q72.2098 600.834 70.5415 599.323 Q67.6334 596.55 67.6334 592.538 Q67.6334 590.824 68.3548 589.314 Q69.0762 587.781 70.7219 586.338 Q72.3451 584.873 75.5689 583.993 Q78.7701 583.114 83.1888 583.114 Q90.3353 583.114 94.8666 586.586 Q99.398 590.035 99.398 594.702 Q99.398 597.655 98.0679 599.391 Q96.7153 601.127 94.4158 601.127 Q93.2209 601.127 92.7249 600.451 Q92.2064 599.774 92.2064 599.008 Q92.2064 598.174 92.77 597.52 Q93.3111 596.866 94.3256 596.866 Q95.1597 596.866 95.8135 597.407 Q96.4447 597.926 96.4447 599.278 Q98.113 597.948 98.113 594.747 Q98.113 593.597 97.5945 592.447 Q97.0534 591.298 95.7684 590.058 Q94.4608 588.795 91.733 588.029 Q89.0052 587.262 85.1727 587.262 L83.7073 587.262 Q88.3288 589.111 88.3288 593.034 Q88.3288 596.911 85.353 599.594 Q82.3772 602.277 78.0262 602.277 M78.0713 598.129 Q82.6477 598.129 84.3385 597.294 Q87.2467 595.874 87.2467 592.988 Q87.2467 590.17 84.7443 588.773 Q82.2194 587.352 78.9505 587.352 Q74.4191 587.352 72.4353 588.096 Q68.7831 589.472 68.7831 592.538 Q68.7831 595.581 71.6913 597.159 Q73.4047 598.129 78.0713 598.129 Z" fill="#000000" fill-rule="nonzero" fill-opacity="1" /><path clip-path="url(#clip220)" d="M83.7975 579.227 Q76.5383 579.227 72.0971 575.53 Q67.6334 571.833 67.6334 567.076 Q67.6334 564.303 69.0536 562.77 Q70.4514 561.214 72.6156 561.214 Q73.8104 561.214 74.329 561.913 Q74.8475 562.612 74.8475 563.333 Q74.8475 564.168 74.2839 564.821 Q73.7203 565.475 72.7058 565.475 Q70.6317 565.475 70.6317 562.928 Q68.7831 564.122 68.7831 566.986 Q68.7831 567.865 69.0536 568.767 Q69.3016 569.668 70.1583 570.841 Q71.015 572.013 72.3676 572.915 Q73.7203 573.816 76.2678 574.448 Q78.8152 575.079 82.1292 575.079 L83.2339 575.079 Q78.6574 573.185 78.68 569.308 Q78.68 565.43 81.6332 562.747 Q84.5865 560.064 88.9601 560.064 Q93.4464 560.064 96.4222 562.86 Q99.398 565.655 99.398 569.578 Q99.398 571.337 98.654 572.937 Q97.9326 574.515 96.2644 576.003 Q94.5961 577.469 91.3948 578.348 Q88.1936 579.227 83.7975 579.227 M87.9456 574.989 Q92.477 574.989 94.6412 574.155 Q95.0019 574.019 95.4979 573.726 Q95.9938 573.411 96.6476 572.892 Q97.2789 572.351 97.7072 571.472 Q98.113 570.593 98.113 569.578 Q98.113 566.49 95.1146 565.002 Q93.4464 564.213 88.915 564.213 Q84.2935 564.213 82.6026 565.047 Q79.7395 566.467 79.7395 569.353 Q79.7395 571.291 81.0696 572.644 Q82.3997 573.974 84.1807 574.493 Q85.9617 574.989 87.9456 574.989 Z" fill="#000000" fill-rule="nonzero" fill-opacity="1" /><path clip-path="url(#clip220)" d="M63.6176 549.322 Q52.4743 549.322 43.4889 545.168 Q39.7208 543.396 36.5646 540.916 Q33.4085 538.437 32.0236 536.794 Q30.6388 535.152 30.6388 534.701 Q30.6388 534.057 31.2829 534.024 Q31.6049 534.024 32.4101 534.894 Q43.2312 545.522 63.6176 545.49 Q84.0683 545.49 94.4708 535.152 Q95.598 534.024 95.9522 534.024 Q96.5964 534.024 96.5964 534.701 Q96.5964 535.152 95.2759 536.73 Q93.9555 538.308 90.9281 540.755 Q87.9008 543.203 84.1971 544.974 Q75.2117 549.322 63.6176 549.322 Z" fill="#000000" fill-rule="nonzero" fill-opacity="1" /><path clip-path="url(#clip220)" d="M35.7917 480.935 Q37.1121 480.935 37.1121 482.03 Q37.1765 483.962 37.563 485.282 Q37.9173 486.603 38.6258 487.376 Q39.3343 488.117 40.1073 488.535 Q40.848 488.922 41.9752 489.179 L65.3889 495.041 Q71.9911 496.715 76.7898 502.126 Q81.5562 507.537 81.5562 513.688 Q81.5562 517.198 80.107 520.129 Q78.6577 523.028 75.727 524.831 Q72.7962 526.635 68.8993 526.635 Q67.0314 526.635 65.0668 526.152 L48.7707 522.158 L42.9736 520.677 Q38.6902 519.582 38.3037 519.582 Q37.6918 519.582 37.5308 519.968 Q37.3376 520.322 37.241 521.353 L37.1121 523.865 Q37.1121 524.638 37.0799 524.96 Q37.0477 525.25 36.8867 525.475 Q36.7257 525.701 36.3714 525.701 Q35.9205 525.701 35.6307 525.604 Q35.3086 525.475 35.212 525.25 Q35.1154 525.024 35.0832 524.863 Q35.051 524.702 35.051 524.445 L35.2442 515.942 L35.051 507.504 Q35.051 506.57 35.7917 506.57 Q36.7257 506.57 36.9189 506.989 Q37.1121 507.408 37.1121 508.825 Q37.1121 511.24 37.4342 512.335 Q37.724 513.398 38.2393 513.72 Q38.7224 514.01 40.1395 514.364 L65.8076 520.773 Q67.0958 521.095 68.384 521.289 Q69.64 521.45 70.2842 521.45 L70.9283 521.482 Q75.0184 521.482 77.2728 519.227 Q79.5272 516.941 79.5272 513.43 Q79.5272 508.277 75.4371 503.479 Q71.347 498.648 64.938 497.005 L41.3955 491.079 Q40.8158 490.886 40.0107 490.886 Q38.7224 490.886 37.9495 491.852 Q37.1443 492.786 37.1121 495.363 Q37.1121 496.554 36.3714 496.554 Q35.7595 496.554 35.4696 496.329 Q35.1476 496.071 35.1154 495.878 Q35.051 495.653 35.051 495.363 Q35.051 494.268 35.1476 491.949 Q35.2442 489.63 35.2442 488.503 Q35.2442 487.376 35.1476 485.121 Q35.051 482.867 35.051 481.772 Q35.051 481.386 35.2442 481.192 Q35.4052 480.967 35.5985 480.935 L35.7917 480.935 Z" fill="#000000" fill-rule="nonzero" fill-opacity="1" /><path clip-path="url(#clip220)" d="M70.0909 463.738 Q69.2858 463.674 69.2858 462.418 L69.2858 421.999 Q69.2858 420.099 70.0265 420.067 Q70.8317 420.067 70.7995 421.87 L70.7995 461.967 Q70.8317 463.738 70.0909 463.738 M57.2086 463.738 Q56.4034 463.738 56.4356 462.353 L56.4356 422.064 Q56.4356 420.099 57.2086 420.067 Q57.9493 420.067 57.9493 421.742 L57.9493 462.418 Q57.9493 463.738 57.2086 463.738 Z" fill="#000000" fill-rule="nonzero" fill-opacity="1" /><path clip-path="url(#clip220)" d="M59.0121 394.621 Q49.3182 394.621 44.0364 392.173 Q36.1782 388.76 36.1782 380.708 Q36.1782 379.001 36.6612 377.23 Q37.1121 375.426 38.8835 373.172 Q40.6548 370.885 43.5533 369.501 Q49.1571 366.86 59.0121 366.86 Q68.6417 366.86 73.8912 369.307 Q81.5562 372.882 81.5562 380.773 Q81.5562 383.736 80.0425 386.763 Q78.5289 389.758 74.8896 391.658 Q69.4468 394.621 59.0121 394.621 M58.207 389.146 Q68.1586 389.146 72.1199 388.438 Q76.4033 387.632 78.2712 385.442 Q80.107 383.22 80.107 380.773 Q80.107 378.132 78.1424 375.942 Q76.1456 373.72 71.8623 373.043 Q67.6433 372.302 58.207 372.335 Q49.0283 372.335 45.3568 372.979 Q41.0735 373.848 39.3665 376.167 Q37.6274 378.454 37.6274 380.773 Q37.6274 381.642 37.8851 382.576 Q38.1427 383.478 38.8835 384.798 Q39.6242 386.119 41.4599 387.149 Q43.2957 388.148 46.0654 388.631 Q49.6402 389.146 58.207 389.146 Z" fill="#000000" fill-rule="nonzero" fill-opacity="1" /><path clip-path="url(#clip220)" d="M95.9522 360.373 Q95.6302 360.373 94.825 359.536 Q84.0039 348.908 63.6176 348.908 Q43.1668 348.908 32.8287 359.117 Q31.6371 360.373 31.2829 360.373 Q30.6388 360.373 30.6388 359.729 Q30.6388 359.278 31.9592 357.7 Q33.2796 356.09 36.307 353.674 Q39.3343 351.227 43.038 349.423 Q52.0234 345.075 63.6176 345.075 Q74.7608 345.075 83.7462 349.23 Q87.5143 351.001 90.6705 353.481 Q93.8267 355.961 95.2115 357.603 Q96.5964 359.246 96.5964 359.729 Q96.5964 360.373 95.9522 360.373 Z" fill="#000000" fill-rule="nonzero" fill-opacity="1" /><path clip-path="url(#clip220)" d="M63.1667 320.231 Q63.2955 320.167 63.6176 320.167 Q63.9396 320.167 64.0684 320.231 L95.7268 332.501 Q96.5964 332.823 96.5964 333.725 Q96.5964 334.273 96.2099 334.659 Q95.8234 335.046 95.2759 335.046 Q94.9539 335.046 94.825 334.981 L63.6176 322.872 L32.4101 334.981 Q32.2813 335.046 31.9592 335.046 Q31.4117 335.046 31.0252 334.659 Q30.6388 334.273 30.6388 333.725 Q30.6388 332.823 31.5083 332.501 L63.1667 320.231 Z" fill="#000000" fill-rule="nonzero" fill-opacity="1" /><path clip-path="url(#clip220)" d="M94.5674 309.654 L33.1508 309.654 Q30.7032 309.654 30.7032 308.334 Q30.7032 307.014 32.6677 307.014 L94.0843 307.014 Q96.5319 307.014 96.5319 308.334 Q96.5319 309.654 94.5674 309.654 Z" fill="#000000" fill-rule="nonzero" fill-opacity="1" /><path clip-path="url(#clip220)" d="M40.3077 300.005 Q39.4736 300.005 39.2256 299.937 Q38.9776 299.847 38.5944 299.487 L28.7201 290.627 Q23.2644 285.78 18.5076 285.78 Q15.419 285.78 13.2097 287.403 Q11.0004 289.004 11.0004 291.957 Q11.0004 293.986 12.2403 295.699 Q13.4803 297.412 15.6896 298.202 Q15.6445 298.066 15.6445 297.593 Q15.6445 296.443 16.3659 295.812 Q17.0873 295.158 18.0567 295.158 Q19.2966 295.158 19.9053 295.97 Q20.4915 296.759 20.4915 297.548 Q20.4915 297.863 20.4238 298.292 Q20.3562 298.697 19.725 299.351 Q19.0712 300.005 17.9214 300.005 Q14.6976 300.005 12.1276 297.57 Q9.55758 295.113 9.55758 291.371 Q9.55758 287.132 12.0825 284.359 Q14.5849 281.564 18.5076 281.564 Q19.8828 281.564 21.1452 281.992 Q22.3852 282.398 23.3546 282.962 Q24.324 283.503 25.8795 284.991 Q27.4351 286.479 28.5397 287.673 Q29.6444 288.868 31.989 291.551 L36.7458 296.443 L36.7458 288.124 Q36.7458 284.066 36.3851 283.751 Q35.7313 283.3 32.282 282.736 L32.282 281.564 L40.3077 282.872 L40.3077 300.005 Z" fill="#000000" fill-rule="nonzero" fill-opacity="1" /><circle clip-path="url(#clip222)" cx="338.558" cy="1342.85" r="14.4" fill="#009af9" fill-rule="evenodd" fill-opacity="1" stroke="#000000" stroke-opacity="1" stroke-width="3.2"/>
<circle clip-path="url(#clip222)" cx="340.386" cy="1342.85" r="14.4" fill="#009af9" fill-rule="evenodd" fill-opacity="1" stroke="#000000" stroke-opacity="1" stroke-width="3.2"/>
<circle clip-path="url(#clip222)" cx="2292.79" cy="1342.85" r="14.4" fill="#009af9" fill-rule="evenodd" fill-opacity="1" stroke="#000000" stroke-opacity="1" stroke-width="3.2"/>
<circle clip-path="url(#clip222)" cx="380.229" cy="1342.85" r="14.4" fill="#009af9" fill-rule="evenodd" fill-opacity="1" stroke="#000000" stroke-opacity="1" stroke-width="3.2"/>
<circle clip-path="url(#clip222)" cx="341.2" cy="1342.85" r="14.4" fill="#009af9" fill-rule="evenodd" fill-opacity="1" stroke="#000000" stroke-opacity="1" stroke-width="3.2"/>
<circle clip-path="url(#clip222)" cx="371.429" cy="1342.85" r="14.4" fill="#009af9" fill-rule="evenodd" fill-opacity="1" stroke="#000000" stroke-opacity="1" stroke-width="3.2"/>
<circle clip-path="url(#clip222)" cx="448.41" cy="1342.85" r="14.4" fill="#009af9" fill-rule="evenodd" fill-opacity="1" stroke="#000000" stroke-opacity="1" stroke-width="3.2"/>
<circle clip-path="url(#clip222)" cx="313.331" cy="1342.85" r="14.4" fill="#009af9" fill-rule="evenodd" fill-opacity="1" stroke="#000000" stroke-opacity="1" stroke-width="3.2"/>
<circle clip-path="url(#clip222)" cx="497.703" cy="1342.85" r="14.4" fill="#009af9" fill-rule="evenodd" fill-opacity="1" stroke="#000000" stroke-opacity="1" stroke-width="3.2"/>
<circle clip-path="url(#clip222)" cx="371.849" cy="1342.85" r="14.4" fill="#009af9" fill-rule="evenodd" fill-opacity="1" stroke="#000000" stroke-opacity="1" stroke-width="3.2"/>
<circle clip-path="url(#clip222)" cx="498.313" cy="1342.85" r="14.4" fill="#009af9" fill-rule="evenodd" fill-opacity="1" stroke="#000000" stroke-opacity="1" stroke-width="3.2"/>
<circle clip-path="url(#clip222)" cx="550.964" cy="1342.85" r="14.4" fill="#009af9" fill-rule="evenodd" fill-opacity="1" stroke="#000000" stroke-opacity="1" stroke-width="3.2"/>
<circle clip-path="url(#clip222)" cx="370.19" cy="1342.85" r="14.4" fill="#009af9" fill-rule="evenodd" fill-opacity="1" stroke="#000000" stroke-opacity="1" stroke-width="3.2"/>
<circle clip-path="url(#clip222)" cx="359.448" cy="1342.85" r="14.4" fill="#009af9" fill-rule="evenodd" fill-opacity="1" stroke="#000000" stroke-opacity="1" stroke-width="3.2"/>
<circle clip-path="url(#clip222)" cx="293.783" cy="1342.85" r="14.4" fill="#009af9" fill-rule="evenodd" fill-opacity="1" stroke="#000000" stroke-opacity="1" stroke-width="3.2"/>
<circle clip-path="url(#clip222)" cx="339.733" cy="1342.85" r="14.4" fill="#009af9" fill-rule="evenodd" fill-opacity="1" stroke="#000000" stroke-opacity="1" stroke-width="3.2"/>
<circle clip-path="url(#clip222)" cx="529.917" cy="1342.85" r="14.4" fill="#009af9" fill-rule="evenodd" fill-opacity="1" stroke="#000000" stroke-opacity="1" stroke-width="3.2"/>
<circle clip-path="url(#clip222)" cx="360.437" cy="1342.85" r="14.4" fill="#009af9" fill-rule="evenodd" fill-opacity="1" stroke="#000000" stroke-opacity="1" stroke-width="3.2"/>
<circle clip-path="url(#clip222)" cx="361.742" cy="1342.85" r="14.4" fill="#009af9" fill-rule="evenodd" fill-opacity="1" stroke="#000000" stroke-opacity="1" stroke-width="3.2"/>
<circle clip-path="url(#clip222)" cx="452.571" cy="1342.85" r="14.4" fill="#009af9" fill-rule="evenodd" fill-opacity="1" stroke="#000000" stroke-opacity="1" stroke-width="3.2"/>
<circle clip-path="url(#clip222)" cx="364.624" cy="1342.85" r="14.4" fill="#009af9" fill-rule="evenodd" fill-opacity="1" stroke="#000000" stroke-opacity="1" stroke-width="3.2"/>
<circle clip-path="url(#clip222)" cx="340.679" cy="1342.85" r="14.4" fill="#009af9" fill-rule="evenodd" fill-opacity="1" stroke="#000000" stroke-opacity="1" stroke-width="3.2"/>
<circle clip-path="url(#clip222)" cx="1329.32" cy="1342.85" r="14.4" fill="#009af9" fill-rule="evenodd" fill-opacity="1" stroke="#000000" stroke-opacity="1" stroke-width="3.2"/>
<circle clip-path="url(#clip222)" cx="357.454" cy="1342.85" r="14.4" fill="#009af9" fill-rule="evenodd" fill-opacity="1" stroke="#000000" stroke-opacity="1" stroke-width="3.2"/>
<circle clip-path="url(#clip222)" cx="340.432" cy="1342.85" r="14.4" fill="#009af9" fill-rule="evenodd" fill-opacity="1" stroke="#000000" stroke-opacity="1" stroke-width="3.2"/>
<circle clip-path="url(#clip222)" cx="300.637" cy="1342.85" r="14.4" fill="#009af9" fill-rule="evenodd" fill-opacity="1" stroke="#000000" stroke-opacity="1" stroke-width="3.2"/>
<circle clip-path="url(#clip222)" cx="379.374" cy="1342.85" r="14.4" fill="#009af9" fill-rule="evenodd" fill-opacity="1" stroke="#000000" stroke-opacity="1" stroke-width="3.2"/>
<circle clip-path="url(#clip222)" cx="346.159" cy="1342.85" r="14.4" fill="#009af9" fill-rule="evenodd" fill-opacity="1" stroke="#000000" stroke-opacity="1" stroke-width="3.2"/>
<circle clip-path="url(#clip222)" cx="389.739" cy="1342.85" r="14.4" fill="#009af9" fill-rule="evenodd" fill-opacity="1" stroke="#000000" stroke-opacity="1" stroke-width="3.2"/>
<circle clip-path="url(#clip222)" cx="669.201" cy="1342.85" r="14.4" fill="#009af9" fill-rule="evenodd" fill-opacity="1" stroke="#000000" stroke-opacity="1" stroke-width="3.2"/>
<circle clip-path="url(#clip222)" cx="1350.17" cy="1342.85" r="14.4" fill="#009af9" fill-rule="evenodd" fill-opacity="1" stroke="#000000" stroke-opacity="1" stroke-width="3.2"/>
<circle clip-path="url(#clip222)" cx="1658.37" cy="1342.85" r="14.4" fill="#009af9" fill-rule="evenodd" fill-opacity="1" stroke="#000000" stroke-opacity="1" stroke-width="3.2"/>
<circle clip-path="url(#clip222)" cx="314.27" cy="1342.85" r="14.4" fill="#009af9" fill-rule="evenodd" fill-opacity="1" stroke="#000000" stroke-opacity="1" stroke-width="3.2"/>
<circle clip-path="url(#clip222)" cx="409.972" cy="1342.85" r="14.4" fill="#009af9" fill-rule="evenodd" fill-opacity="1" stroke="#000000" stroke-opacity="1" stroke-width="3.2"/>
<circle clip-path="url(#clip222)" cx="1324.8" cy="1342.85" r="14.4" fill="#009af9" fill-rule="evenodd" fill-opacity="1" stroke="#000000" stroke-opacity="1" stroke-width="3.2"/>
</svg>
