<?xml version="1.0" encoding="utf-8"?>
<svg xmlns="http://www.w3.org/2000/svg" xmlns:xlink="http://www.w3.org/1999/xlink" width="600" height="400" viewBox="0 0 2400 1600">
<defs>
  <clipPath id="clip340">
    <rect x="0" y="0" width="2400" height="1600"/>
  </clipPath>
</defs>
<path clip-path="url(#clip340)" d="M0 1600 L2400 1600 L2400 0 L0 0  Z" fill="#ffffff" fill-rule="evenodd" fill-opacity="1"/>
<defs>
  <clipPath id="clip341">
    <rect x="480" y="0" width="1681" height="1600"/>
  </clipPath>
</defs>
<path clip-path="url(#clip340)" d="M264.268 1380.58 L2352.76 1380.58 L2352.76 47.2441 L264.268 47.2441  Z" fill="#ffffff" fill-rule="evenodd" fill-opacity="1"/>
<defs>
  <clipPath id="clip342">
    <rect x="264" y="47" width="2089" height="1334"/>
  </clipPath>
</defs>
<polyline clip-path="url(#clip342)" style="stroke:#000000; stroke-linecap:round; stroke-linejoin:round; stroke-width:2; stroke-opacity:0.1; fill:none" points="416.573,1380.58 416.573,47.2441 "/>
<polyline clip-path="url(#clip342)" style="stroke:#000000; stroke-linecap:round; stroke-linejoin:round; stroke-width:2; stroke-opacity:0.1; fill:none" points="865.059,1380.58 865.059,47.2441 "/>
<polyline clip-path="url(#clip342)" style="stroke:#000000; stroke-linecap:round; stroke-linejoin:round; stroke-width:2; stroke-opacity:0.1; fill:none" points="1313.55,1380.58 1313.55,47.2441 "/>
<polyline clip-path="url(#clip342)" style="stroke:#000000; stroke-linecap:round; stroke-linejoin:round; stroke-width:2; stroke-opacity:0.1; fill:none" points="1762.03,1380.58 1762.03,47.2441 "/>
<polyline clip-path="url(#clip342)" style="stroke:#000000; stroke-linecap:round; stroke-linejoin:round; stroke-width:2; stroke-opacity:0.1; fill:none" points="2210.52,1380.58 2210.52,47.2441 "/>
<polyline clip-path="url(#clip342)" style="stroke:#000000; stroke-linecap:round; stroke-linejoin:round; stroke-width:2; stroke-opacity:0.1; fill:none" points="416.573,1380.58 416.573,47.2441 "/>
<polyline clip-path="url(#clip342)" style="stroke:#000000; stroke-linecap:round; stroke-linejoin:round; stroke-width:2; stroke-opacity:0.1; fill:none" points="865.059,1380.58 865.059,47.2441 "/>
<polyline clip-path="url(#clip342)" style="stroke:#000000; stroke-linecap:round; stroke-linejoin:round; stroke-width:2; stroke-opacity:0.1; fill:none" points="1313.55,1380.58 1313.55,47.2441 "/>
<polyline clip-path="url(#clip342)" style="stroke:#000000; stroke-linecap:round; stroke-linejoin:round; stroke-width:2; stroke-opacity:0.1; fill:none" points="1762.03,1380.58 1762.03,47.2441 "/>
<polyline clip-path="url(#clip342)" style="stroke:#000000; stroke-linecap:round; stroke-linejoin:round; stroke-width:2; stroke-opacity:0.1; fill:none" points="2210.52,1380.58 2210.52,47.2441 "/>
<polyline clip-path="url(#clip342)" style="stroke:#000000; stroke-linecap:round; stroke-linejoin:round; stroke-width:2; stroke-opacity:0.1; fill:none" points="264.268,1217.28 2352.76,1217.28 "/>
<polyline clip-path="url(#clip342)" style="stroke:#000000; stroke-linecap:round; stroke-linejoin:round; stroke-width:2; stroke-opacity:0.1; fill:none" points="264.268,1045.62 2352.76,1045.62 "/>
<polyline clip-path="url(#clip342)" style="stroke:#000000; stroke-linecap:round; stroke-linejoin:round; stroke-width:2; stroke-opacity:0.1; fill:none" points="264.268,873.971 2352.76,873.971 "/>
<polyline clip-path="url(#clip342)" style="stroke:#000000; stroke-linecap:round; stroke-linejoin:round; stroke-width:2; stroke-opacity:0.1; fill:none" points="264.268,702.319 2352.76,702.319 "/>
<polyline clip-path="url(#clip342)" style="stroke:#000000; stroke-linecap:round; stroke-linejoin:round; stroke-width:2; stroke-opacity:0.1; fill:none" points="264.268,530.667 2352.76,530.667 "/>
<polyline clip-path="url(#clip342)" style="stroke:#000000; stroke-linecap:round; stroke-linejoin:round; stroke-width:2; stroke-opacity:0.1; fill:none" points="264.268,359.014 2352.76,359.014 "/>
<polyline clip-path="url(#clip342)" style="stroke:#000000; stroke-linecap:round; stroke-linejoin:round; stroke-width:2; stroke-opacity:0.1; fill:none" points="264.268,187.362 2352.76,187.362 "/>
<polyline clip-path="url(#clip342)" style="stroke:#000000; stroke-linecap:round; stroke-linejoin:round; stroke-width:2; stroke-opacity:0.1; fill:none" points="264.268,1217.28 2352.76,1217.28 "/>
<polyline clip-path="url(#clip342)" style="stroke:#000000; stroke-linecap:round; stroke-linejoin:round; stroke-width:2; stroke-opacity:0.1; fill:none" points="264.268,1045.62 2352.76,1045.62 "/>
<polyline clip-path="url(#clip342)" style="stroke:#000000; stroke-linecap:round; stroke-linejoin:round; stroke-width:2; stroke-opacity:0.1; fill:none" points="264.268,873.971 2352.76,873.971 "/>
<polyline clip-path="url(#clip342)" style="stroke:#000000; stroke-linecap:round; stroke-linejoin:round; stroke-width:2; stroke-opacity:0.1; fill:none" points="264.268,702.319 2352.76,702.319 "/>
<polyline clip-path="url(#clip342)" style="stroke:#000000; stroke-linecap:round; stroke-linejoin:round; stroke-width:2; stroke-opacity:0.1; fill:none" points="264.268,530.667 2352.76,530.667 "/>
<polyline clip-path="url(#clip342)" style="stroke:#000000; stroke-linecap:round; stroke-linejoin:round; stroke-width:2; stroke-opacity:0.1; fill:none" points="264.268,359.014 2352.76,359.014 "/>
<polyline clip-path="url(#clip342)" style="stroke:#000000; stroke-linecap:round; stroke-linejoin:round; stroke-width:2; stroke-opacity:0.1; fill:none" points="264.268,187.362 2352.76,187.362 "/>
<polyline clip-path="url(#clip340)" style="stroke:#000000; stroke-linecap:round; stroke-linejoin:round; stroke-width:4; stroke-opacity:1; fill:none" points="264.268,1380.58 2352.76,1380.58 "/>
<polyline clip-path="url(#clip340)" style="stroke:#000000; stroke-linecap:round; stroke-linejoin:round; stroke-width:4; stroke-opacity:1; fill:none" points="264.268,47.2441 2352.76,47.2441 "/>
<polyline clip-path="url(#clip340)" style="stroke:#000000; stroke-linecap:round; stroke-linejoin:round; stroke-width:4; stroke-opacity:1; fill:none" points="416.573,1380.58 416.573,1361.69 "/>
<polyline clip-path="url(#clip340)" style="stroke:#000000; stroke-linecap:round; stroke-linejoin:round; stroke-width:4; stroke-opacity:1; fill:none" points="865.059,1380.58 865.059,1361.69 "/>
<polyline clip-path="url(#clip340)" style="stroke:#000000; stroke-linecap:round; stroke-linejoin:round; stroke-width:4; stroke-opacity:1; fill:none" points="1313.55,1380.58 1313.55,1361.69 "/>
<polyline clip-path="url(#clip340)" style="stroke:#000000; stroke-linecap:round; stroke-linejoin:round; stroke-width:4; stroke-opacity:1; fill:none" points="1762.03,1380.58 1762.03,1361.69 "/>
<polyline clip-path="url(#clip340)" style="stroke:#000000; stroke-linecap:round; stroke-linejoin:round; stroke-width:4; stroke-opacity:1; fill:none" points="2210.52,1380.58 2210.52,1361.69 "/>
<polyline clip-path="url(#clip340)" style="stroke:#000000; stroke-linecap:round; stroke-linejoin:round; stroke-width:4; stroke-opacity:1; fill:none" points="416.573,47.2441 416.573,66.1417 "/>
<polyline clip-path="url(#clip340)" style="stroke:#000000; stroke-linecap:round; stroke-linejoin:round; stroke-width:4; stroke-opacity:1; fill:none" points="865.059,47.2441 865.059,66.1417 "/>
<polyline clip-path="url(#clip340)" style="stroke:#000000; stroke-linecap:round; stroke-linejoin:round; stroke-width:4; stroke-opacity:1; fill:none" points="1313.55,47.2441 1313.55,66.1417 "/>
<polyline clip-path="url(#clip340)" style="stroke:#000000; stroke-linecap:round; stroke-linejoin:round; stroke-width:4; stroke-opacity:1; fill:none" points="1762.03,47.2441 1762.03,66.1417 "/>
<polyline clip-path="url(#clip340)" style="stroke:#000000; stroke-linecap:round; stroke-linejoin:round; stroke-width:4; stroke-opacity:1; fill:none" points="2210.52,47.2441 2210.52,66.1417 "/>
<path clip-path="url(#clip340)" d="M366.689 1454.71 L374.327 1454.71 L374.327 1428.34 L366.017 1430.01 L366.017 1425.75 L374.281 1424.08 L378.957 1424.08 L378.957 1454.71 L386.596 1454.71 L386.596 1458.64 L366.689 1458.64 L366.689 1454.71 Z" fill="#000000" fill-rule="nonzero" fill-opacity="1" /><path clip-path="url(#clip340)" d="M406.04 1427.16 Q402.429 1427.16 400.601 1430.73 Q398.795 1434.27 398.795 1441.4 Q398.795 1448.51 400.601 1452.07 Q402.429 1455.61 406.04 1455.61 Q409.675 1455.61 411.48 1452.07 Q413.309 1448.51 413.309 1441.4 Q413.309 1434.27 411.48 1430.73 Q409.675 1427.16 406.04 1427.16 M406.04 1423.46 Q411.85 1423.46 414.906 1428.07 Q417.985 1432.65 417.985 1441.4 Q417.985 1450.13 414.906 1454.73 Q411.85 1459.32 406.04 1459.32 Q400.23 1459.32 397.151 1454.73 Q394.096 1450.13 394.096 1441.4 Q394.096 1432.65 397.151 1428.07 Q400.23 1423.46 406.04 1423.46 Z" fill="#000000" fill-rule="nonzero" fill-opacity="1" /><path clip-path="url(#clip340)" d="M417.985 1417.56 L442.096 1417.56 L442.096 1420.76 L417.985 1420.76 L417.985 1417.56 Z" fill="#000000" fill-rule="nonzero" fill-opacity="1" /><path clip-path="url(#clip340)" d="M450.955 1428.04 L457.161 1428.04 L457.161 1406.62 L450.409 1407.97 L450.409 1404.51 L457.124 1403.15 L460.923 1403.15 L460.923 1428.04 L467.129 1428.04 L467.129 1431.23 L450.955 1431.23 L450.955 1428.04 Z" fill="#000000" fill-rule="nonzero" fill-opacity="1" /><path clip-path="url(#clip340)" d="M830.042 1454.71 L837.681 1454.71 L837.681 1428.34 L829.371 1430.01 L829.371 1425.75 L837.635 1424.08 L842.311 1424.08 L842.311 1454.71 L849.95 1454.71 L849.95 1458.64 L830.042 1458.64 L830.042 1454.71 Z" fill="#000000" fill-rule="nonzero" fill-opacity="1" /><path clip-path="url(#clip340)" d="M869.394 1427.16 Q865.783 1427.16 863.954 1430.73 Q862.149 1434.27 862.149 1441.4 Q862.149 1448.51 863.954 1452.07 Q865.783 1455.61 869.394 1455.61 Q873.028 1455.61 874.834 1452.07 Q876.662 1448.51 876.662 1441.4 Q876.662 1434.27 874.834 1430.73 Q873.028 1427.16 869.394 1427.16 M869.394 1423.46 Q875.204 1423.46 878.26 1428.07 Q881.338 1432.65 881.338 1441.4 Q881.338 1450.13 878.26 1454.73 Q875.204 1459.32 869.394 1459.32 Q863.584 1459.32 860.505 1454.73 Q857.45 1450.13 857.45 1441.4 Q857.45 1432.65 860.505 1428.07 Q863.584 1423.46 869.394 1423.46 Z" fill="#000000" fill-rule="nonzero" fill-opacity="1" /><path clip-path="url(#clip340)" d="M891.043 1405.66 Q888.109 1405.66 886.623 1408.55 Q885.156 1411.43 885.156 1417.22 Q885.156 1423 886.623 1425.89 Q888.109 1428.77 891.043 1428.77 Q893.996 1428.77 895.463 1425.89 Q896.949 1423 896.949 1417.22 Q896.949 1411.43 895.463 1408.55 Q893.996 1405.66 891.043 1405.66 M891.043 1402.65 Q895.764 1402.65 898.246 1406.39 Q900.748 1410.11 900.748 1417.22 Q900.748 1424.31 898.246 1428.06 Q895.764 1431.78 891.043 1431.78 Q886.322 1431.78 883.821 1428.06 Q881.338 1424.31 881.338 1417.22 Q881.338 1410.11 883.821 1406.39 Q886.322 1402.65 891.043 1402.65 Z" fill="#000000" fill-rule="nonzero" fill-opacity="1" /><path clip-path="url(#clip340)" d="M1279.87 1454.71 L1287.51 1454.71 L1287.51 1428.34 L1279.2 1430.01 L1279.2 1425.75 L1287.47 1424.08 L1292.14 1424.08 L1292.14 1454.71 L1299.78 1454.71 L1299.78 1458.64 L1279.87 1458.64 L1279.87 1454.71 Z" fill="#000000" fill-rule="nonzero" fill-opacity="1" /><path clip-path="url(#clip340)" d="M1319.22 1427.16 Q1315.61 1427.16 1313.79 1430.73 Q1311.98 1434.27 1311.98 1441.4 Q1311.98 1448.51 1313.79 1452.07 Q1315.61 1455.61 1319.22 1455.61 Q1322.86 1455.61 1324.66 1452.07 Q1326.49 1448.51 1326.49 1441.4 Q1326.49 1434.27 1324.66 1430.73 Q1322.86 1427.16 1319.22 1427.16 M1319.22 1423.46 Q1325.03 1423.46 1328.09 1428.07 Q1331.17 1432.65 1331.17 1441.4 Q1331.17 1450.13 1328.09 1454.73 Q1325.03 1459.32 1319.22 1459.32 Q1313.41 1459.32 1310.34 1454.73 Q1307.28 1450.13 1307.28 1441.4 Q1307.28 1432.65 1310.34 1428.07 Q1313.41 1423.46 1319.22 1423.46 Z" fill="#000000" fill-rule="nonzero" fill-opacity="1" /><path clip-path="url(#clip340)" d="M1331.71 1428.04 L1337.92 1428.04 L1337.92 1406.62 L1331.17 1407.97 L1331.17 1404.51 L1337.88 1403.15 L1341.68 1403.15 L1341.68 1428.04 L1347.89 1428.04 L1347.89 1431.23 L1331.71 1431.23 L1331.71 1428.04 Z" fill="#000000" fill-rule="nonzero" fill-opacity="1" /><path clip-path="url(#clip340)" d="M1727.8 1454.71 L1735.44 1454.71 L1735.44 1428.34 L1727.13 1430.01 L1727.13 1425.75 L1735.4 1424.08 L1740.07 1424.08 L1740.07 1454.71 L1747.71 1454.71 L1747.71 1458.64 L1727.8 1458.64 L1727.8 1454.71 Z" fill="#000000" fill-rule="nonzero" fill-opacity="1" /><path clip-path="url(#clip340)" d="M1767.16 1427.16 Q1763.54 1427.16 1761.72 1430.73 Q1759.91 1434.27 1759.91 1441.4 Q1759.91 1448.51 1761.72 1452.07 Q1763.54 1455.61 1767.16 1455.61 Q1770.79 1455.61 1772.6 1452.07 Q1774.42 1448.51 1774.42 1441.4 Q1774.42 1434.27 1772.6 1430.73 Q1770.79 1427.16 1767.16 1427.16 M1767.16 1423.46 Q1772.97 1423.46 1776.02 1428.07 Q1779.1 1432.65 1779.1 1441.4 Q1779.1 1450.13 1776.02 1454.73 Q1772.97 1459.32 1767.16 1459.32 Q1761.35 1459.32 1758.27 1454.73 Q1755.21 1450.13 1755.21 1441.4 Q1755.21 1432.65 1758.27 1428.07 Q1761.35 1423.46 1767.16 1423.46 Z" fill="#000000" fill-rule="nonzero" fill-opacity="1" /><path clip-path="url(#clip340)" d="M1783.67 1428.04 L1796.93 1428.04 L1796.93 1431.23 L1779.1 1431.23 L1779.1 1428.04 Q1781.26 1425.8 1784.99 1422.04 Q1788.73 1418.26 1789.69 1417.17 Q1791.51 1415.12 1792.23 1413.71 Q1792.96 1412.28 1792.96 1410.9 Q1792.96 1408.67 1791.38 1407.25 Q1789.82 1405.84 1787.3 1405.84 Q1785.51 1405.84 1783.52 1406.46 Q1781.55 1407.09 1779.29 1408.35 L1779.29 1404.51 Q1781.58 1403.59 1783.58 1403.12 Q1785.57 1402.65 1787.23 1402.65 Q1791.59 1402.65 1794.18 1404.83 Q1796.78 1407.01 1796.78 1410.66 Q1796.78 1412.39 1796.12 1413.95 Q1795.48 1415.49 1793.77 1417.6 Q1793.3 1418.14 1790.78 1420.76 Q1788.26 1423.35 1783.67 1428.04 Z" fill="#000000" fill-rule="nonzero" fill-opacity="1" /><path clip-path="url(#clip340)" d="M2175.96 1454.71 L2183.6 1454.71 L2183.6 1428.34 L2175.29 1430.01 L2175.29 1425.75 L2183.55 1424.08 L2188.23 1424.08 L2188.23 1454.71 L2195.87 1454.71 L2195.87 1458.64 L2175.96 1458.64 L2175.96 1454.71 Z" fill="#000000" fill-rule="nonzero" fill-opacity="1" /><path clip-path="url(#clip340)" d="M2215.31 1427.16 Q2211.7 1427.16 2209.87 1430.73 Q2208.07 1434.27 2208.07 1441.4 Q2208.07 1448.51 2209.87 1452.07 Q2211.7 1455.61 2215.31 1455.61 Q2218.95 1455.61 2220.75 1452.07 Q2222.58 1448.51 2222.58 1441.4 Q2222.58 1434.27 2220.75 1430.73 Q2218.95 1427.16 2215.31 1427.16 M2215.31 1423.46 Q2221.12 1423.46 2224.18 1428.07 Q2227.26 1432.65 2227.26 1441.4 Q2227.26 1450.13 2224.18 1454.73 Q2221.12 1459.32 2215.31 1459.32 Q2209.5 1459.32 2206.42 1454.73 Q2203.37 1450.13 2203.37 1441.4 Q2203.37 1432.65 2206.42 1428.07 Q2209.5 1423.46 2215.31 1423.46 Z" fill="#000000" fill-rule="nonzero" fill-opacity="1" /><path clip-path="url(#clip340)" d="M2239.95 1416.09 Q2242.68 1416.68 2244.2 1418.52 Q2245.75 1420.36 2245.75 1423.07 Q2245.75 1427.23 2242.89 1429.5 Q2240.03 1431.78 2234.76 1431.78 Q2232.99 1431.78 2231.11 1431.42 Q2229.25 1431.08 2227.26 1430.39 L2227.26 1426.72 Q2228.84 1427.64 2230.72 1428.11 Q2232.6 1428.58 2234.65 1428.58 Q2238.22 1428.58 2240.08 1427.17 Q2241.97 1425.76 2241.97 1423.07 Q2241.97 1420.59 2240.22 1419.2 Q2238.49 1417.79 2235.38 1417.79 L2232.11 1417.79 L2232.11 1414.66 L2235.53 1414.66 Q2238.34 1414.66 2239.82 1413.56 Q2241.31 1412.43 2241.31 1410.32 Q2241.31 1408.16 2239.76 1407.01 Q2238.24 1405.84 2235.38 1405.84 Q2233.82 1405.84 2232.03 1406.18 Q2230.25 1406.52 2228.1 1407.24 L2228.1 1403.85 Q2230.27 1403.25 2232.15 1402.95 Q2234.05 1402.65 2235.72 1402.65 Q2240.05 1402.65 2242.57 1404.62 Q2245.09 1406.58 2245.09 1409.93 Q2245.09 1412.26 2243.75 1413.88 Q2242.42 1415.47 2239.95 1416.09 Z" fill="#000000" fill-rule="nonzero" fill-opacity="1" /><path clip-path="url(#clip340)" d="M1214.82 1571.84 L1214.82 1509.94 Q1214.82 1507.98 1216.14 1507.98 Q1217.46 1507.98 1217.46 1510.04 L1217.46 1571.68 Q1217.46 1573.81 1216.14 1573.81 Q1214.82 1573.81 1214.82 1571.84 M1222.1 1571.84 L1222.1 1510.42 Q1222.1 1507.98 1223.42 1507.98 Q1224.74 1507.98 1224.74 1510.04 L1224.74 1571.68 Q1224.74 1573.81 1223.42 1573.81 Q1222.1 1573.81 1222.1 1571.84 Z" fill="#000000" fill-rule="nonzero" fill-opacity="1" /><path clip-path="url(#clip340)" d="M1292.73 1556.06 Q1292.73 1556.67 1292.47 1556.99 Q1292.25 1557.28 1292.02 1557.35 Q1291.83 1557.38 1291.54 1557.38 Q1290.7 1557.38 1287.8 1557.28 Q1284.91 1557.19 1284.07 1557.19 Q1282.72 1557.19 1279.95 1557.28 Q1277.18 1557.38 1275.82 1557.38 Q1274.92 1557.38 1274.92 1556.64 Q1274.92 1556.16 1275.02 1555.9 Q1275.12 1555.61 1275.37 1555.51 Q1275.66 1555.38 1275.82 1555.38 Q1276.02 1555.35 1276.5 1555.35 Q1277.14 1555.35 1277.82 1555.29 Q1278.5 1555.19 1279.33 1555 Q1280.17 1554.8 1280.69 1554.32 Q1281.23 1553.84 1281.23 1553.16 Q1281.23 1552.87 1281.01 1550.49 Q1280.78 1548.11 1280.49 1545.34 Q1280.2 1542.53 1280.17 1542.15 L1263.62 1542.15 Q1262.1 1544.76 1261.04 1546.56 Q1259.98 1548.36 1259.59 1548.97 Q1259.21 1549.59 1258.98 1549.97 Q1258.75 1550.36 1258.63 1550.58 Q1257.69 1552.29 1257.69 1553.03 Q1257.69 1555.09 1260.78 1555.35 Q1261.85 1555.35 1261.85 1556.12 Q1261.85 1556.7 1261.59 1557.03 Q1261.33 1557.32 1261.11 1557.35 Q1260.91 1557.38 1260.59 1557.38 Q1259.53 1557.38 1257.31 1557.28 Q1255.08 1557.19 1253.99 1557.19 Q1253.05 1557.19 1251.12 1557.28 Q1249.19 1557.38 1248.32 1557.38 Q1247.93 1557.38 1247.71 1557.15 Q1247.48 1556.93 1247.48 1556.64 Q1247.48 1556.19 1247.55 1555.93 Q1247.64 1555.67 1247.9 1555.54 Q1248.16 1555.42 1248.29 1555.42 Q1248.42 1555.38 1248.87 1555.35 Q1251.31 1555.19 1253.22 1554.03 Q1255.15 1552.84 1256.98 1549.78 L1279.91 1511.26 Q1280.14 1510.88 1280.3 1510.68 Q1280.46 1510.49 1280.78 1510.33 Q1281.14 1510.17 1281.65 1510.17 Q1282.46 1510.17 1282.62 1510.42 Q1282.78 1510.65 1282.88 1511.74 L1286.9 1552.97 Q1287 1553.84 1287.06 1554.19 Q1287.16 1554.51 1287.58 1554.87 Q1288.03 1555.19 1288.83 1555.29 Q1289.67 1555.35 1291.22 1555.35 Q1291.8 1555.35 1292.02 1555.38 Q1292.25 1555.38 1292.47 1555.54 Q1292.73 1555.71 1292.73 1556.06 M1279.98 1540.09 L1277.88 1518.35 L1264.87 1540.09 L1279.98 1540.09 Z" fill="#000000" fill-rule="nonzero" fill-opacity="1" /><path clip-path="url(#clip340)" d="M1299.33 1497.93 Q1299.33 1490.13 1302.24 1483.84 Q1303.48 1481.2 1305.22 1479 Q1306.95 1476.79 1308.1 1475.82 Q1309.25 1474.85 1309.57 1474.85 Q1310.02 1474.85 1310.04 1475.3 Q1310.04 1475.52 1309.43 1476.09 Q1302 1483.66 1302.02 1497.93 Q1302.02 1512.25 1309.25 1519.53 Q1310.04 1520.32 1310.04 1520.57 Q1310.04 1521.02 1309.57 1521.02 Q1309.25 1521.02 1308.15 1520.09 Q1307.04 1519.17 1305.33 1517.05 Q1303.62 1514.93 1302.38 1512.34 Q1299.33 1506.05 1299.33 1497.93 Z" fill="#000000" fill-rule="nonzero" fill-opacity="1" /><path clip-path="url(#clip340)" d="M1314.48 1509.48 Q1314.48 1508.64 1314.54 1508.39 Q1314.63 1508.14 1315 1507.76 L1323.86 1497.89 Q1328.7 1492.43 1328.7 1487.67 Q1328.7 1484.59 1327.08 1482.38 Q1325.48 1480.17 1322.53 1480.17 Q1320.5 1480.17 1318.78 1481.41 Q1317.07 1482.65 1316.28 1484.86 Q1316.42 1484.81 1316.89 1484.81 Q1318.04 1484.81 1318.67 1485.53 Q1319.32 1486.25 1319.32 1487.22 Q1319.32 1488.46 1318.51 1489.07 Q1317.72 1489.66 1316.93 1489.66 Q1316.62 1489.66 1316.19 1489.59 Q1315.78 1489.52 1315.13 1488.89 Q1314.48 1488.24 1314.48 1487.09 Q1314.48 1483.86 1316.91 1481.29 Q1319.37 1478.72 1323.11 1478.72 Q1327.35 1478.72 1330.12 1481.25 Q1332.92 1483.75 1332.92 1487.67 Q1332.92 1489.05 1332.49 1490.31 Q1332.08 1491.55 1331.52 1492.52 Q1330.98 1493.49 1329.49 1495.05 Q1328 1496.6 1326.81 1497.71 Q1325.61 1498.81 1322.93 1501.16 L1318.04 1505.91 L1326.36 1505.91 Q1330.42 1505.91 1330.73 1505.55 Q1331.18 1504.9 1331.75 1501.45 L1332.92 1501.45 L1331.61 1509.48 L1314.48 1509.48 Z" fill="#000000" fill-rule="nonzero" fill-opacity="1" /><path clip-path="url(#clip340)" d="M1338.45 1520.57 Q1338.45 1520.34 1339.04 1519.78 Q1346.48 1512.2 1346.48 1497.93 Q1346.48 1483.62 1339.33 1476.38 Q1338.45 1475.55 1338.45 1475.3 Q1338.45 1474.85 1338.9 1474.85 Q1339.22 1474.85 1340.32 1475.77 Q1341.45 1476.7 1343.14 1478.82 Q1344.85 1480.93 1346.12 1483.53 Q1349.16 1489.82 1349.16 1497.93 Q1349.16 1505.73 1346.25 1512.02 Q1345.01 1514.66 1343.27 1516.87 Q1341.54 1519.08 1340.39 1520.05 Q1339.24 1521.02 1338.9 1521.02 Q1338.45 1521.02 1338.45 1520.57 Z" fill="#000000" fill-rule="nonzero" fill-opacity="1" /><path clip-path="url(#clip340)" d="M1363.22 1571.84 L1363.22 1509.94 Q1363.22 1507.98 1364.54 1507.98 Q1365.86 1507.98 1365.86 1510.04 L1365.86 1571.68 Q1365.86 1573.81 1364.54 1573.81 Q1363.22 1573.81 1363.22 1571.84 M1370.5 1571.84 L1370.5 1510.42 Q1370.5 1507.98 1371.82 1507.98 Q1373.14 1507.98 1373.14 1510.04 L1373.14 1571.68 Q1373.14 1573.81 1371.82 1573.81 Q1370.5 1573.81 1370.5 1571.84 Z" fill="#000000" fill-rule="nonzero" fill-opacity="1" /><path clip-path="url(#clip340)" d="M1380.07 1565.57 L1380.07 1564.13 Q1385.62 1564.13 1388.48 1561.17 Q1389.27 1561.17 1389.41 1561.35 Q1389.54 1561.53 1389.54 1562.37 L1389.54 1588.27 Q1389.54 1589.65 1390.22 1590.07 Q1390.89 1590.5 1393.85 1590.5 L1395.31 1590.5 L1395.31 1591.92 Q1393.69 1591.79 1387.83 1591.79 Q1381.97 1591.79 1380.37 1591.92 L1380.37 1590.5 L1381.83 1590.5 Q1384.74 1590.5 1385.44 1590.1 Q1386.14 1589.67 1386.14 1588.27 L1386.14 1564.35 Q1383.72 1565.57 1380.07 1565.57 Z" fill="#000000" fill-rule="nonzero" fill-opacity="1" /><polyline clip-path="url(#clip340)" style="stroke:#000000; stroke-linecap:round; stroke-linejoin:round; stroke-width:4; stroke-opacity:1; fill:none" points="264.268,1380.58 264.268,47.2441 "/>
<polyline clip-path="url(#clip340)" style="stroke:#000000; stroke-linecap:round; stroke-linejoin:round; stroke-width:4; stroke-opacity:1; fill:none" points="2352.76,1380.58 2352.76,47.2441 "/>
<polyline clip-path="url(#clip340)" style="stroke:#000000; stroke-linecap:round; stroke-linejoin:round; stroke-width:4; stroke-opacity:1; fill:none" points="264.268,1217.28 283.166,1217.28 "/>
<polyline clip-path="url(#clip340)" style="stroke:#000000; stroke-linecap:round; stroke-linejoin:round; stroke-width:4; stroke-opacity:1; fill:none" points="264.268,1045.62 283.166,1045.62 "/>
<polyline clip-path="url(#clip340)" style="stroke:#000000; stroke-linecap:round; stroke-linejoin:round; stroke-width:4; stroke-opacity:1; fill:none" points="264.268,873.971 283.166,873.971 "/>
<polyline clip-path="url(#clip340)" style="stroke:#000000; stroke-linecap:round; stroke-linejoin:round; stroke-width:4; stroke-opacity:1; fill:none" points="264.268,702.319 283.166,702.319 "/>
<polyline clip-path="url(#clip340)" style="stroke:#000000; stroke-linecap:round; stroke-linejoin:round; stroke-width:4; stroke-opacity:1; fill:none" points="264.268,530.667 283.166,530.667 "/>
<polyline clip-path="url(#clip340)" style="stroke:#000000; stroke-linecap:round; stroke-linejoin:round; stroke-width:4; stroke-opacity:1; fill:none" points="264.268,359.014 283.166,359.014 "/>
<polyline clip-path="url(#clip340)" style="stroke:#000000; stroke-linecap:round; stroke-linejoin:round; stroke-width:4; stroke-opacity:1; fill:none" points="264.268,187.362 283.166,187.362 "/>
<polyline clip-path="url(#clip340)" style="stroke:#000000; stroke-linecap:round; stroke-linejoin:round; stroke-width:4; stroke-opacity:1; fill:none" points="2352.76,1217.28 2333.86,1217.28 "/>
<polyline clip-path="url(#clip340)" style="stroke:#000000; stroke-linecap:round; stroke-linejoin:round; stroke-width:4; stroke-opacity:1; fill:none" points="2352.76,1045.62 2333.86,1045.62 "/>
<polyline clip-path="url(#clip340)" style="stroke:#000000; stroke-linecap:round; stroke-linejoin:round; stroke-width:4; stroke-opacity:1; fill:none" points="2352.76,873.971 2333.86,873.971 "/>
<polyline clip-path="url(#clip340)" style="stroke:#000000; stroke-linecap:round; stroke-linejoin:round; stroke-width:4; stroke-opacity:1; fill:none" points="2352.76,702.319 2333.86,702.319 "/>
<polyline clip-path="url(#clip340)" style="stroke:#000000; stroke-linecap:round; stroke-linejoin:round; stroke-width:4; stroke-opacity:1; fill:none" points="2352.76,530.667 2333.86,530.667 "/>
<polyline clip-path="url(#clip340)" style="stroke:#000000; stroke-linecap:round; stroke-linejoin:round; stroke-width:4; stroke-opacity:1; fill:none" points="2352.76,359.014 2333.86,359.014 "/>
<polyline clip-path="url(#clip340)" style="stroke:#000000; stroke-linecap:round; stroke-linejoin:round; stroke-width:4; stroke-opacity:1; fill:none" points="2352.76,187.362 2333.86,187.362 "/>
<path clip-path="url(#clip340)" d="M127.564 1237.07 L135.203 1237.07 L135.203 1210.7 L126.893 1212.37 L126.893 1208.11 L135.157 1206.44 L139.833 1206.44 L139.833 1237.07 L147.472 1237.07 L147.472 1241 L127.564 1241 L127.564 1237.07 Z" fill="#000000" fill-rule="nonzero" fill-opacity="1" /><path clip-path="url(#clip340)" d="M166.916 1209.52 Q163.305 1209.52 161.476 1213.09 Q159.671 1216.63 159.671 1223.76 Q159.671 1230.86 161.476 1234.43 Q163.305 1237.97 166.916 1237.97 Q170.55 1237.97 172.356 1234.43 Q174.185 1230.86 174.185 1223.76 Q174.185 1216.63 172.356 1213.09 Q170.55 1209.52 166.916 1209.52 M166.916 1205.82 Q172.726 1205.82 175.782 1210.42 Q178.86 1215.01 178.86 1223.76 Q178.86 1232.48 175.782 1237.09 Q172.726 1241.67 166.916 1241.67 Q161.106 1241.67 158.027 1237.09 Q154.972 1232.48 154.972 1223.76 Q154.972 1215.01 158.027 1210.42 Q161.106 1205.82 166.916 1205.82 Z" fill="#000000" fill-rule="nonzero" fill-opacity="1" /><path clip-path="url(#clip340)" d="M178.86 1199.92 L202.972 1199.92 L202.972 1203.12 L178.86 1203.12 L178.86 1199.92 Z" fill="#000000" fill-rule="nonzero" fill-opacity="1" /><path clip-path="url(#clip340)" d="M210.213 1185.51 L228.268 1185.51 L228.268 1187.13 L218.075 1213.59 L214.106 1213.59 L223.698 1188.71 L210.213 1188.71 L210.213 1185.51 Z" fill="#000000" fill-rule="nonzero" fill-opacity="1" /><path clip-path="url(#clip340)" d="M126.699 1065.42 L134.338 1065.42 L134.338 1039.05 L126.028 1040.72 L126.028 1036.46 L134.292 1034.79 L138.968 1034.79 L138.968 1065.42 L146.607 1065.42 L146.607 1069.35 L126.699 1069.35 L126.699 1065.42 Z" fill="#000000" fill-rule="nonzero" fill-opacity="1" /><path clip-path="url(#clip340)" d="M166.051 1037.87 Q162.44 1037.87 160.611 1041.43 Q158.806 1044.98 158.806 1052.11 Q158.806 1059.21 160.611 1062.78 Q162.44 1066.32 166.051 1066.32 Q169.685 1066.32 171.491 1062.78 Q173.319 1059.21 173.319 1052.11 Q173.319 1044.98 171.491 1041.43 Q169.685 1037.87 166.051 1037.87 M166.051 1034.17 Q171.861 1034.17 174.917 1038.77 Q177.995 1043.36 177.995 1052.11 Q177.995 1060.83 174.917 1065.44 Q171.861 1070.02 166.051 1070.02 Q160.241 1070.02 157.162 1065.44 Q154.106 1060.83 154.106 1052.11 Q154.106 1043.36 157.162 1038.77 Q160.241 1034.17 166.051 1034.17 Z" fill="#000000" fill-rule="nonzero" fill-opacity="1" /><path clip-path="url(#clip340)" d="M177.995 1028.27 L202.107 1028.27 L202.107 1031.46 L177.995 1031.46 L177.995 1028.27 Z" fill="#000000" fill-rule="nonzero" fill-opacity="1" /><path clip-path="url(#clip340)" d="M218.902 1026.39 Q216.344 1026.39 214.84 1028.14 Q213.354 1029.88 213.354 1032.93 Q213.354 1035.96 214.84 1037.73 Q216.344 1039.48 218.902 1039.48 Q221.46 1039.48 222.946 1037.73 Q224.45 1035.96 224.45 1032.93 Q224.45 1029.88 222.946 1028.14 Q221.46 1026.39 218.902 1026.39 M226.444 1014.48 L226.444 1017.94 Q225.015 1017.26 223.548 1016.91 Q222.099 1016.55 220.67 1016.55 Q216.909 1016.55 214.915 1019.09 Q212.94 1021.63 212.658 1026.76 Q213.768 1025.13 215.442 1024.26 Q217.115 1023.38 219.128 1023.38 Q223.36 1023.38 225.805 1025.95 Q228.268 1028.51 228.268 1032.93 Q228.268 1037.26 225.711 1039.87 Q223.153 1042.49 218.902 1042.49 Q214.031 1042.49 211.454 1038.76 Q208.878 1035.02 208.878 1027.93 Q208.878 1021.27 212.037 1017.32 Q215.197 1013.35 220.52 1013.35 Q221.949 1013.35 223.397 1013.63 Q224.864 1013.92 226.444 1014.48 Z" fill="#000000" fill-rule="nonzero" fill-opacity="1" /><path clip-path="url(#clip340)" d="M127.64 893.763 L135.278 893.763 L135.278 867.398 L126.968 869.064 L126.968 864.805 L135.232 863.138 L139.908 863.138 L139.908 893.763 L147.547 893.763 L147.547 897.698 L127.64 897.698 L127.64 893.763 Z" fill="#000000" fill-rule="nonzero" fill-opacity="1" /><path clip-path="url(#clip340)" d="M166.991 866.217 Q163.38 866.217 161.551 869.782 Q159.746 873.324 159.746 880.453 Q159.746 887.56 161.551 891.124 Q163.38 894.666 166.991 894.666 Q170.626 894.666 172.431 891.124 Q174.26 887.56 174.26 880.453 Q174.26 873.324 172.431 869.782 Q170.626 866.217 166.991 866.217 M166.991 862.513 Q172.801 862.513 175.857 867.12 Q178.936 871.703 178.936 880.453 Q178.936 889.18 175.857 893.786 Q172.801 898.37 166.991 898.37 Q161.181 898.37 158.102 893.786 Q155.047 889.18 155.047 880.453 Q155.047 871.703 158.102 867.12 Q161.181 862.513 166.991 862.513 Z" fill="#000000" fill-rule="nonzero" fill-opacity="1" /><path clip-path="url(#clip340)" d="M178.936 856.615 L203.047 856.615 L203.047 859.812 L178.936 859.812 L178.936 856.615 Z" fill="#000000" fill-rule="nonzero" fill-opacity="1" /><path clip-path="url(#clip340)" d="M211.285 842.208 L226.2 842.208 L226.2 845.405 L214.764 845.405 L214.764 852.289 Q215.592 852.007 216.42 851.875 Q217.247 851.725 218.075 851.725 Q222.777 851.725 225.522 854.301 Q228.268 856.878 228.268 861.279 Q228.268 865.812 225.447 868.332 Q222.626 870.834 217.492 870.834 Q215.724 870.834 213.88 870.533 Q212.056 870.232 210.1 869.63 L210.1 865.812 Q211.793 866.733 213.598 867.185 Q215.404 867.636 217.416 867.636 Q220.67 867.636 222.57 865.925 Q224.469 864.213 224.469 861.279 Q224.469 858.345 222.57 856.634 Q220.67 854.922 217.416 854.922 Q215.893 854.922 214.369 855.261 Q212.865 855.599 211.285 856.314 L211.285 842.208 Z" fill="#000000" fill-rule="nonzero" fill-opacity="1" /><path clip-path="url(#clip340)" d="M126.436 722.111 L134.075 722.111 L134.075 695.746 L125.765 697.412 L125.765 693.153 L134.028 691.486 L138.704 691.486 L138.704 722.111 L146.343 722.111 L146.343 726.046 L126.436 726.046 L126.436 722.111 Z" fill="#000000" fill-rule="nonzero" fill-opacity="1" /><path clip-path="url(#clip340)" d="M165.788 694.565 Q162.176 694.565 160.348 698.13 Q158.542 701.671 158.542 708.801 Q158.542 715.907 160.348 719.472 Q162.176 723.014 165.788 723.014 Q169.422 723.014 171.227 719.472 Q173.056 715.907 173.056 708.801 Q173.056 701.671 171.227 698.13 Q169.422 694.565 165.788 694.565 M165.788 690.861 Q171.598 690.861 174.653 695.468 Q177.732 700.051 177.732 708.801 Q177.732 717.528 174.653 722.134 Q171.598 726.718 165.788 726.718 Q159.977 726.718 156.899 722.134 Q153.843 717.528 153.843 708.801 Q153.843 700.051 156.899 695.468 Q159.977 690.861 165.788 690.861 Z" fill="#000000" fill-rule="nonzero" fill-opacity="1" /><path clip-path="url(#clip340)" d="M177.732 684.963 L201.844 684.963 L201.844 688.16 L177.732 688.16 L177.732 684.963 Z" fill="#000000" fill-rule="nonzero" fill-opacity="1" /><path clip-path="url(#clip340)" d="M220.482 673.866 L210.89 688.856 L220.482 688.856 L220.482 673.866 M219.485 670.556 L224.262 670.556 L224.262 688.856 L228.268 688.856 L228.268 692.016 L224.262 692.016 L224.262 698.636 L220.482 698.636 L220.482 692.016 L207.806 692.016 L207.806 688.348 L219.485 670.556 Z" fill="#000000" fill-rule="nonzero" fill-opacity="1" /><path clip-path="url(#clip340)" d="M127.358 550.459 L134.996 550.459 L134.996 524.093 L126.686 525.76 L126.686 521.501 L134.95 519.834 L139.626 519.834 L139.626 550.459 L147.265 550.459 L147.265 554.394 L127.358 554.394 L127.358 550.459 Z" fill="#000000" fill-rule="nonzero" fill-opacity="1" /><path clip-path="url(#clip340)" d="M166.709 522.913 Q163.098 522.913 161.269 526.478 Q159.464 530.019 159.464 537.149 Q159.464 544.255 161.269 547.82 Q163.098 551.362 166.709 551.362 Q170.343 551.362 172.149 547.82 Q173.978 544.255 173.978 537.149 Q173.978 530.019 172.149 526.478 Q170.343 522.913 166.709 522.913 M166.709 519.209 Q172.519 519.209 175.575 523.816 Q178.654 528.399 178.654 537.149 Q178.654 545.876 175.575 550.482 Q172.519 555.065 166.709 555.065 Q160.899 555.065 157.82 550.482 Q154.765 545.876 154.765 537.149 Q154.765 528.399 157.82 523.816 Q160.899 519.209 166.709 519.209 Z" fill="#000000" fill-rule="nonzero" fill-opacity="1" /><path clip-path="url(#clip340)" d="M178.654 513.31 L202.765 513.31 L202.765 516.508 L178.654 516.508 L178.654 513.31 Z" fill="#000000" fill-rule="nonzero" fill-opacity="1" /><path clip-path="url(#clip340)" d="M222.476 511.843 Q225.203 512.427 226.726 514.27 Q228.268 516.113 228.268 518.821 Q228.268 522.978 225.41 525.253 Q222.551 527.529 217.285 527.529 Q215.517 527.529 213.636 527.172 Q211.774 526.833 209.78 526.137 L209.78 522.47 Q211.36 523.391 213.241 523.862 Q215.122 524.332 217.172 524.332 Q220.745 524.332 222.607 522.921 Q224.488 521.511 224.488 518.821 Q224.488 516.339 222.739 514.947 Q221.009 513.536 217.905 513.536 L214.633 513.536 L214.633 510.414 L218.056 510.414 Q220.858 510.414 222.344 509.304 Q223.83 508.176 223.83 506.069 Q223.83 503.907 222.288 502.759 Q220.764 501.593 217.905 501.593 Q216.344 501.593 214.558 501.932 Q212.771 502.27 210.627 502.985 L210.627 499.6 Q212.79 498.998 214.67 498.697 Q216.57 498.396 218.244 498.396 Q222.57 498.396 225.09 500.371 Q227.61 502.327 227.61 505.675 Q227.61 508.007 226.275 509.624 Q224.939 511.223 222.476 511.843 Z" fill="#000000" fill-rule="nonzero" fill-opacity="1" /><path clip-path="url(#clip340)" d="M128.129 378.807 L135.767 378.807 L135.767 352.441 L127.457 354.108 L127.457 349.849 L135.721 348.182 L140.397 348.182 L140.397 378.807 L148.036 378.807 L148.036 382.742 L128.129 382.742 L128.129 378.807 Z" fill="#000000" fill-rule="nonzero" fill-opacity="1" /><path clip-path="url(#clip340)" d="M167.48 351.261 Q163.869 351.261 162.04 354.825 Q160.235 358.367 160.235 365.497 Q160.235 372.603 162.04 376.168 Q163.869 379.71 167.48 379.71 Q171.115 379.71 172.92 376.168 Q174.749 372.603 174.749 365.497 Q174.749 358.367 172.92 354.825 Q171.115 351.261 167.48 351.261 M167.48 347.557 Q173.29 347.557 176.346 352.163 Q179.425 356.747 179.425 365.497 Q179.425 374.223 176.346 378.83 Q173.29 383.413 167.48 383.413 Q161.67 383.413 158.591 378.83 Q155.536 374.223 155.536 365.497 Q155.536 356.747 158.591 352.163 Q161.67 347.557 167.48 347.557 Z" fill="#000000" fill-rule="nonzero" fill-opacity="1" /><path clip-path="url(#clip340)" d="M179.425 341.658 L203.536 341.658 L203.536 344.856 L179.425 344.856 L179.425 341.658 Z" fill="#000000" fill-rule="nonzero" fill-opacity="1" /><path clip-path="url(#clip340)" d="M215.009 352.134 L228.268 352.134 L228.268 355.332 L210.439 355.332 L210.439 352.134 Q212.602 349.896 216.325 346.135 Q220.068 342.354 221.027 341.263 Q222.852 339.213 223.566 337.803 Q224.3 336.373 224.3 335 Q224.3 332.762 222.72 331.352 Q221.159 329.941 218.639 329.941 Q216.852 329.941 214.858 330.562 Q212.884 331.182 210.627 332.443 L210.627 328.606 Q212.921 327.684 214.915 327.214 Q216.909 326.744 218.564 326.744 Q222.927 326.744 225.522 328.925 Q228.118 331.107 228.118 334.756 Q228.118 336.486 227.46 338.047 Q226.82 339.589 225.109 341.696 Q224.639 342.241 222.118 344.856 Q219.598 347.451 215.009 352.134 Z" fill="#000000" fill-rule="nonzero" fill-opacity="1" /><path clip-path="url(#clip340)" d="M127.828 207.155 L135.467 207.155 L135.467 180.789 L127.156 182.456 L127.156 178.196 L135.42 176.53 L140.096 176.53 L140.096 207.155 L147.735 207.155 L147.735 211.09 L127.828 211.09 L127.828 207.155 Z" fill="#000000" fill-rule="nonzero" fill-opacity="1" /><path clip-path="url(#clip340)" d="M167.179 179.608 Q163.568 179.608 161.74 183.173 Q159.934 186.715 159.934 193.845 Q159.934 200.951 161.74 204.516 Q163.568 208.057 167.179 208.057 Q170.814 208.057 172.619 204.516 Q174.448 200.951 174.448 193.845 Q174.448 186.715 172.619 183.173 Q170.814 179.608 167.179 179.608 M167.179 175.905 Q172.989 175.905 176.045 180.511 Q179.124 185.095 179.124 193.845 Q179.124 202.571 176.045 207.178 Q172.989 211.761 167.179 211.761 Q161.369 211.761 158.291 207.178 Q155.235 202.571 155.235 193.845 Q155.235 185.095 158.291 180.511 Q161.369 175.905 167.179 175.905 Z" fill="#000000" fill-rule="nonzero" fill-opacity="1" /><path clip-path="url(#clip340)" d="M179.124 170.006 L203.235 170.006 L203.235 173.203 L179.124 173.203 L179.124 170.006 Z" fill="#000000" fill-rule="nonzero" fill-opacity="1" /><path clip-path="url(#clip340)" d="M212.094 180.482 L218.3 180.482 L218.3 159.06 L211.548 160.414 L211.548 156.954 L218.263 155.599 L222.062 155.599 L222.062 180.482 L228.268 180.482 L228.268 183.679 L212.094 183.679 L212.094 180.482 Z" fill="#000000" fill-rule="nonzero" fill-opacity="1" /><path clip-path="url(#clip340)" d="M42.6931 1086.8 L40.6319 1086.8 Q40.6319 1078.88 36.413 1074.79 Q36.413 1073.66 36.6706 1073.47 Q36.9282 1073.27 38.1199 1073.27 L75.1244 1073.27 Q77.089 1073.27 77.7009 1072.31 Q78.3128 1071.34 78.3128 1067.12 L78.3128 1065.03 L80.3417 1065.03 Q80.1485 1067.35 80.1485 1075.72 Q80.1485 1084.1 80.3417 1086.38 L78.3128 1086.38 L78.3128 1084.29 Q78.3128 1080.13 77.7331 1079.14 Q77.1212 1078.14 75.1244 1078.14 L40.954 1078.14 Q42.6931 1081.58 42.6931 1086.8 Z" fill="#000000" fill-rule="nonzero" fill-opacity="1" /><path clip-path="url(#clip340)" d="M62.9184 992.292 Q63.3048 991.905 63.8523 991.905 Q64.3998 991.905 64.7863 992.292 Q65.1728 992.678 65.1728 993.226 L65.1728 1034.51 Q65.1728 1035.06 64.7863 1035.45 Q64.3998 1035.83 63.8523 1035.83 Q63.3048 1035.83 62.9184 1035.45 Q62.5319 1035.06 62.5319 1034.51 L62.5319 993.226 Q62.5319 992.678 62.9184 992.292 Z" fill="#000000" fill-rule="nonzero" fill-opacity="1" /><path clip-path="url(#clip340)" d="M94.8022 966.717 L33.3856 966.717 Q30.938 966.717 30.938 965.397 Q30.938 964.076 32.9025 964.076 L94.3191 964.076 Q96.7667 964.076 96.7667 965.397 Q96.7667 966.717 94.8022 966.717 Z" fill="#000000" fill-rule="nonzero" fill-opacity="1" /><path clip-path="url(#clip340)" d="M95.5107 924.581 Q96.0582 924.581 96.4447 924.967 Q96.8311 925.354 96.8311 925.901 Q96.8311 926.835 95.9616 927.157 L64.3032 939.427 Q64.1744 939.492 63.8523 939.492 Q63.5303 939.492 63.4015 939.427 L31.7431 927.157 Q30.8735 926.835 30.8735 925.901 Q30.8735 925.354 31.26 924.967 Q31.6465 924.581 32.194 924.581 Q32.516 924.581 32.6449 924.645 L63.8523 936.787 L95.0598 924.645 Q95.1886 924.581 95.5107 924.581 Z" fill="#000000" fill-rule="nonzero" fill-opacity="1" /><path clip-path="url(#clip340)" d="M37.2825 866.275 L48.6834 867.595 Q49.714 867.692 50.036 867.853 Q50.3259 868.014 50.3259 868.529 Q50.3259 868.916 50.1004 869.141 Q49.8428 869.335 49.5529 869.335 Q49.3919 869.335 48.9732 869.302 Q48.5546 869.27 48.3613 869.27 Q46.3646 868.98 44.8509 868.98 Q42.049 868.98 40.5353 869.818 Q38.9894 870.655 38.2809 872.813 Q37.5402 874.971 37.5402 879.029 L37.5402 888.304 Q37.5402 890.429 37.9266 890.945 Q38.3131 891.428 40.1166 891.879 L55.9941 895.84 L55.9941 889.624 Q55.9941 887.305 55.7043 885.921 Q55.4144 884.504 54.6093 883.57 Q53.7719 882.603 52.6447 882.088 Q51.5175 881.541 49.4885 880.993 Q48.8122 880.832 48.5546 880.671 Q48.2969 880.478 48.2969 880.059 Q48.2969 879.737 48.5224 879.512 Q48.7156 879.286 49.0054 879.286 L64.4321 883.054 Q65.205 883.247 65.4948 883.441 Q65.7525 883.634 65.7525 884.02 Q65.7525 884.439 65.527 884.665 Q65.3016 884.89 65.044 884.89 Q64.7863 884.89 64.3032 884.697 Q62.2098 884.214 61.0826 884.214 Q60.4385 884.214 60.1165 884.278 Q59.7944 884.31 59.3435 884.6 Q58.8604 884.858 58.635 885.437 Q58.4096 886.017 58.2485 887.112 Q58.0553 888.207 58.0553 889.85 L58.0553 896.355 L76.0584 900.864 Q77.25 901.186 77.572 901.186 Q77.9263 901.186 78.0551 901.025 Q78.1517 900.832 78.2162 900.317 Q78.3128 899.737 78.3128 898.867 L78.3128 889.238 Q78.3128 887.112 78.1195 885.405 Q77.9263 883.698 77.4432 882.281 Q76.9601 880.832 76.4126 879.737 Q75.8651 878.642 74.8667 877.611 Q73.8362 876.581 72.9344 875.872 Q72.0004 875.132 70.4223 874.262 Q68.8443 873.392 67.556 872.781 Q66.2356 872.169 64.11 871.235 Q63.3371 870.977 63.3371 870.365 Q63.3371 870.011 63.5303 869.818 Q63.6913 869.624 63.8523 869.592 L64.0456 869.592 Q64.6575 869.785 64.9796 869.914 L79.2145 875.969 Q80.0197 876.323 80.1807 876.613 Q80.3417 876.903 80.3417 878.03 L80.3417 912.265 Q80.3417 913.038 80.3095 913.36 Q80.2773 913.65 80.1163 913.875 Q79.9231 914.101 79.5366 914.101 Q78.9247 914.101 78.667 913.843 Q78.3772 913.585 78.345 913.296 Q78.3128 913.006 78.3128 912.265 Q78.3128 910.655 78.2162 909.688 Q78.1195 908.722 77.9907 908.11 Q77.8297 907.466 77.3788 907.144 Q76.9279 906.79 76.5415 906.629 Q76.1228 906.468 75.1888 906.242 L40.3099 897.547 Q39.1182 897.225 38.7318 897.225 Q38.3131 897.225 38.0555 897.515 Q37.7978 897.772 37.7012 898.481 Q37.5724 899.189 37.5724 899.769 Q37.5402 900.317 37.5402 901.508 Q37.5402 902.281 37.508 902.603 Q37.4757 902.893 37.3147 903.119 Q37.1537 903.344 36.7994 903.344 Q35.8977 903.344 35.7044 902.957 Q35.479 902.539 35.479 901.379 L35.479 868.079 Q35.479 866.758 35.7688 866.468 Q36.0265 866.146 37.2825 866.275 Z" fill="#000000" fill-rule="nonzero" fill-opacity="1" /><path clip-path="url(#clip340)" d="M72.2643 859.576 L70.8214 859.576 Q70.8214 854.03 67.8682 851.167 Q67.8682 850.378 68.0485 850.243 Q68.2289 850.108 69.063 850.108 L94.9662 850.108 Q96.3414 850.108 96.7697 849.431 Q97.198 848.755 97.198 845.802 L97.198 844.337 L98.6183 844.337 Q98.483 845.96 98.483 851.821 Q98.483 857.683 98.6183 859.283 L97.198 859.283 L97.198 857.818 Q97.198 854.91 96.7922 854.211 Q96.3639 853.512 94.9662 853.512 L71.0469 853.512 Q72.2643 855.924 72.2643 859.576 Z" fill="#000000" fill-rule="nonzero" fill-opacity="1" /><path clip-path="url(#clip340)" d="M63.8523 829.671 Q52.7091 829.671 43.7237 825.517 Q39.9556 823.746 36.7994 821.266 Q33.6432 818.786 32.2584 817.143 Q30.8735 815.501 30.8735 815.05 Q30.8735 814.406 31.5177 814.374 Q31.8397 814.374 32.6449 815.243 Q43.466 825.871 63.8523 825.839 Q84.3031 825.839 94.7056 815.501 Q95.8328 814.374 96.187 814.374 Q96.8311 814.374 96.8311 815.05 Q96.8311 815.501 95.5107 817.079 Q94.1903 818.657 91.1629 821.105 Q88.1356 823.552 84.4319 825.324 Q75.4465 829.671 63.8523 829.671 Z" fill="#000000" fill-rule="nonzero" fill-opacity="1" /><path clip-path="url(#clip340)" d="M36.0265 761.284 Q37.3469 761.284 37.3469 762.379 Q37.4113 764.311 37.7978 765.632 Q38.1521 766.952 38.8606 767.725 Q39.5691 768.466 40.3421 768.885 Q41.0828 769.271 42.21 769.529 L65.6237 775.39 Q72.2259 777.065 77.0245 782.475 Q81.791 787.886 81.791 794.037 Q81.791 797.548 80.3417 800.478 Q78.8925 803.377 75.9617 805.181 Q73.031 806.984 69.1341 806.984 Q67.2662 806.984 65.3016 806.501 L49.0054 802.507 L43.2084 801.026 Q38.925 799.931 38.5385 799.931 Q37.9266 799.931 37.7656 800.317 Q37.5724 800.672 37.4757 801.702 L37.3469 804.214 Q37.3469 804.987 37.3147 805.309 Q37.2825 805.599 37.1215 805.825 Q36.9605 806.05 36.6062 806.05 Q36.1553 806.05 35.8655 805.953 Q35.5434 805.825 35.4468 805.599 Q35.3502 805.374 35.318 805.213 Q35.2857 805.052 35.2857 804.794 L35.479 796.292 L35.2857 787.854 Q35.2857 786.92 36.0265 786.92 Q36.9605 786.92 37.1537 787.339 Q37.3469 787.757 37.3469 789.174 Q37.3469 791.59 37.669 792.685 Q37.9588 793.747 38.4741 794.07 Q38.9572 794.359 40.3743 794.714 L66.0423 801.123 Q67.3306 801.445 68.6188 801.638 Q69.8748 801.799 70.519 801.799 L71.1631 801.831 Q75.2532 801.831 77.5076 799.577 Q79.762 797.29 79.762 793.78 Q79.762 788.627 75.6719 783.828 Q71.5818 778.997 65.1728 777.355 L41.6303 771.429 Q41.0506 771.236 40.2454 771.236 Q38.9572 771.236 38.1843 772.202 Q37.3791 773.136 37.3469 775.712 Q37.3469 776.904 36.6062 776.904 Q35.9943 776.904 35.7044 776.678 Q35.3824 776.421 35.3502 776.227 Q35.2857 776.002 35.2857 775.712 Q35.2857 774.617 35.3824 772.298 Q35.479 769.98 35.479 768.852 Q35.479 767.725 35.3824 765.471 Q35.2857 763.216 35.2857 762.121 Q35.2857 761.735 35.479 761.542 Q35.64 761.316 35.8332 761.284 L36.0265 761.284 Z" fill="#000000" fill-rule="nonzero" fill-opacity="1" /><path clip-path="url(#clip340)" d="M96.187 756.318 Q95.865 756.318 95.0598 755.481 Q84.2387 744.853 63.8523 744.853 Q43.4016 744.853 33.0635 755.062 Q31.8719 756.318 31.5177 756.318 Q30.8735 756.318 30.8735 755.674 Q30.8735 755.223 32.194 753.645 Q33.5144 752.035 36.5418 749.619 Q39.5691 747.172 43.2728 745.368 Q52.2582 741.02 63.8523 741.02 Q74.9956 741.02 83.981 745.175 Q87.7491 746.946 90.9053 749.426 Q94.0614 751.906 95.4463 753.548 Q96.8311 755.191 96.8311 755.674 Q96.8311 756.318 96.187 756.318 Z" fill="#000000" fill-rule="nonzero" fill-opacity="1" /><path clip-path="url(#clip340)" d="M94.8022 727.295 L33.3856 727.295 Q30.938 727.295 30.938 725.974 Q30.938 724.654 32.9025 724.654 L94.3191 724.654 Q96.7667 724.654 96.7667 725.974 Q96.7667 727.295 94.8022 727.295 Z" fill="#000000" fill-rule="nonzero" fill-opacity="1" /><path clip-path="url(#clip340)" d="M37.2825 652.244 L48.6834 653.564 Q49.714 653.661 50.036 653.822 Q50.3259 653.983 50.3259 654.498 Q50.3259 654.884 50.1004 655.11 Q49.8428 655.303 49.5529 655.303 Q49.3919 655.303 48.9732 655.271 Q48.5546 655.239 48.3613 655.239 Q46.3646 654.949 44.8509 654.949 Q42.049 654.949 40.5353 655.786 Q38.9894 656.624 38.2809 658.781 Q37.5402 660.939 37.5402 664.997 L37.5402 674.272 Q37.5402 676.398 37.9266 676.913 Q38.3131 677.396 40.1166 677.847 L55.9941 681.808 L55.9941 675.593 Q55.9941 673.274 55.7043 671.889 Q55.4144 670.472 54.6093 669.538 Q53.7719 668.572 52.6447 668.057 Q51.5175 667.509 49.4885 666.962 Q48.8122 666.801 48.5546 666.64 Q48.2969 666.446 48.2969 666.028 Q48.2969 665.706 48.5224 665.48 Q48.7156 665.255 49.0054 665.255 L64.4321 669.023 Q65.205 669.216 65.4948 669.409 Q65.7525 669.602 65.7525 669.989 Q65.7525 670.408 65.527 670.633 Q65.3016 670.858 65.044 670.858 Q64.7863 670.858 64.3032 670.665 Q62.2098 670.182 61.0826 670.182 Q60.4385 670.182 60.1165 670.247 Q59.7944 670.279 59.3435 670.569 Q58.8604 670.826 58.635 671.406 Q58.4096 671.986 58.2485 673.081 Q58.0553 674.176 58.0553 675.818 L58.0553 682.324 L76.0584 686.833 Q77.25 687.155 77.572 687.155 Q77.9263 687.155 78.0551 686.994 Q78.1517 686.8 78.2162 686.285 Q78.3128 685.705 78.3128 684.836 L78.3128 675.206 Q78.3128 673.081 78.1195 671.374 Q77.9263 669.667 77.4432 668.25 Q76.9601 666.801 76.4126 665.706 Q75.8651 664.611 74.8667 663.58 Q73.8362 662.549 72.9344 661.841 Q72.0004 661.1 70.4223 660.231 Q68.8443 659.361 67.556 658.749 Q66.2356 658.137 64.11 657.203 Q63.3371 656.946 63.3371 656.334 Q63.3371 655.979 63.5303 655.786 Q63.6913 655.593 63.8523 655.561 L64.0456 655.561 Q64.6575 655.754 64.9796 655.883 L79.2145 661.937 Q80.0197 662.292 80.1807 662.582 Q80.3417 662.871 80.3417 663.999 L80.3417 698.233 Q80.3417 699.006 80.3095 699.328 Q80.2773 699.618 80.1163 699.844 Q79.9231 700.069 79.5366 700.069 Q78.9247 700.069 78.667 699.812 Q78.3772 699.554 78.345 699.264 Q78.3128 698.974 78.3128 698.233 Q78.3128 696.623 78.2162 695.657 Q78.1195 694.691 77.9907 694.079 Q77.8297 693.435 77.3788 693.113 Q76.9279 692.758 76.5415 692.597 Q76.1228 692.436 75.1888 692.211 L40.3099 683.515 Q39.1182 683.193 38.7318 683.193 Q38.3131 683.193 38.0555 683.483 Q37.7978 683.741 37.7012 684.449 Q37.5724 685.158 37.5724 685.738 Q37.5402 686.285 37.5402 687.477 Q37.5402 688.25 37.508 688.572 Q37.4757 688.862 37.3147 689.087 Q37.1537 689.312 36.7994 689.312 Q35.8977 689.312 35.7044 688.926 Q35.479 688.507 35.479 687.348 L35.479 654.047 Q35.479 652.727 35.7688 652.437 Q36.0265 652.115 37.2825 652.244 Z" fill="#000000" fill-rule="nonzero" fill-opacity="1" /><path clip-path="url(#clip340)" d="M72.2643 645.545 L70.8214 645.545 Q70.8214 639.999 67.8682 637.136 Q67.8682 636.347 68.0485 636.212 Q68.2289 636.076 69.063 636.076 L94.9662 636.076 Q96.3414 636.076 96.7697 635.4 Q97.198 634.724 97.198 631.77 L97.198 630.305 L98.6183 630.305 Q98.483 631.928 98.483 637.79 Q98.483 643.651 98.6183 645.252 L97.198 645.252 L97.198 643.786 Q97.198 640.878 96.7922 640.179 Q96.3639 639.48 94.9662 639.48 L71.0469 639.48 Q72.2643 641.893 72.2643 645.545 Z" fill="#000000" fill-rule="nonzero" fill-opacity="1" /><path clip-path="url(#clip340)" d="M63.8523 615.64 Q52.7091 615.64 43.7237 611.485 Q39.9556 609.714 36.7994 607.234 Q33.6432 604.754 32.2584 603.112 Q30.8735 601.469 30.8735 601.019 Q30.8735 600.374 31.5177 600.342 Q31.8397 600.342 32.6449 601.212 Q43.466 611.84 63.8523 611.807 Q84.3031 611.807 94.7056 601.469 Q95.8328 600.342 96.187 600.342 Q96.8311 600.342 96.8311 601.019 Q96.8311 601.469 95.5107 603.047 Q94.1903 604.626 91.1629 607.073 Q88.1356 609.521 84.4319 611.292 Q75.4465 615.64 63.8523 615.64 Z" fill="#000000" fill-rule="nonzero" fill-opacity="1" /><path clip-path="url(#clip340)" d="M36.0265 547.252 Q37.3469 547.252 37.3469 548.347 Q37.4113 550.28 37.7978 551.6 Q38.1521 552.921 38.8606 553.694 Q39.5691 554.434 40.3421 554.853 Q41.0828 555.24 42.21 555.497 L65.6237 561.359 Q72.2259 563.033 77.0245 568.444 Q81.791 573.855 81.791 580.006 Q81.791 583.516 80.3417 586.447 Q78.8925 589.346 75.9617 591.149 Q73.031 592.953 69.1341 592.953 Q67.2662 592.953 65.3016 592.469 L49.0054 588.476 L43.2084 586.994 Q38.925 585.899 38.5385 585.899 Q37.9266 585.899 37.7656 586.286 Q37.5724 586.64 37.4757 587.671 L37.3469 590.183 Q37.3469 590.956 37.3147 591.278 Q37.2825 591.568 37.1215 591.793 Q36.9605 592.019 36.6062 592.019 Q36.1553 592.019 35.8655 591.922 Q35.5434 591.793 35.4468 591.568 Q35.3502 591.342 35.318 591.181 Q35.2857 591.02 35.2857 590.763 L35.479 582.26 L35.2857 573.822 Q35.2857 572.888 36.0265 572.888 Q36.9605 572.888 37.1537 573.307 Q37.3469 573.726 37.3469 575.143 Q37.3469 577.558 37.669 578.653 Q37.9588 579.716 38.4741 580.038 Q38.9572 580.328 40.3743 580.682 L66.0423 587.091 Q67.3306 587.413 68.6188 587.606 Q69.8748 587.767 70.519 587.767 L71.1631 587.8 Q75.2532 587.8 77.5076 585.545 Q79.762 583.259 79.762 579.748 Q79.762 574.595 75.6719 569.797 Q71.5818 564.966 65.1728 563.323 L41.6303 557.397 Q41.0506 557.204 40.2454 557.204 Q38.9572 557.204 38.1843 558.17 Q37.3791 559.104 37.3469 561.681 Q37.3469 562.872 36.6062 562.872 Q35.9943 562.872 35.7044 562.647 Q35.3824 562.389 35.3502 562.196 Q35.2857 561.971 35.2857 561.681 Q35.2857 560.586 35.3824 558.267 Q35.479 555.948 35.479 554.821 Q35.479 553.694 35.3824 551.439 Q35.2857 549.185 35.2857 548.09 Q35.2857 547.703 35.479 547.51 Q35.64 547.285 35.8332 547.252 L36.0265 547.252 Z" fill="#000000" fill-rule="nonzero" fill-opacity="1" /><path clip-path="url(#clip340)" d="M70.3257 530.056 Q69.5206 529.991 69.5206 528.735 L69.5206 488.317 Q69.5206 486.417 70.2613 486.385 Q71.0665 486.385 71.0343 488.188 L71.0343 528.285 Q71.0665 530.056 70.3257 530.056 M57.4434 530.056 Q56.6382 530.056 56.6704 528.671 L56.6704 488.381 Q56.6704 486.417 57.4434 486.385 Q58.1841 486.385 58.1841 488.059 L58.1841 528.735 Q58.1841 530.056 57.4434 530.056 Z" fill="#000000" fill-rule="nonzero" fill-opacity="1" /><path clip-path="url(#clip340)" d="M59.2469 460.939 Q49.5529 460.939 44.2712 458.491 Q36.413 455.077 36.413 447.026 Q36.413 445.319 36.896 443.548 Q37.3469 441.744 39.1182 439.49 Q40.8896 437.203 43.7881 435.818 Q49.3919 433.178 59.2469 433.178 Q68.8765 433.178 74.126 435.625 Q81.791 439.2 81.791 447.09 Q81.791 450.053 80.2773 453.081 Q78.7637 456.076 75.1244 457.976 Q69.6816 460.939 59.2469 460.939 M58.4418 455.464 Q68.3934 455.464 72.3547 454.755 Q76.6381 453.95 78.506 451.76 Q80.3417 449.538 80.3417 447.09 Q80.3417 444.45 78.3772 442.26 Q76.3804 440.037 72.097 439.361 Q67.8781 438.62 58.4418 438.652 Q49.2631 438.652 45.5916 439.297 Q41.3082 440.166 39.6013 442.485 Q37.8622 444.772 37.8622 447.09 Q37.8622 447.96 38.1199 448.894 Q38.3775 449.796 39.1182 451.116 Q39.859 452.437 41.6947 453.467 Q43.5304 454.466 46.3002 454.949 Q49.875 455.464 58.4418 455.464 Z" fill="#000000" fill-rule="nonzero" fill-opacity="1" /><path clip-path="url(#clip340)" d="M96.187 426.691 Q95.865 426.691 95.0598 425.854 Q84.2387 415.226 63.8523 415.226 Q43.4016 415.226 33.0635 425.435 Q31.8719 426.691 31.5177 426.691 Q30.8735 426.691 30.8735 426.047 Q30.8735 425.596 32.194 424.018 Q33.5144 422.408 36.5418 419.992 Q39.5691 417.544 43.2728 415.741 Q52.2582 411.393 63.8523 411.393 Q74.9956 411.393 83.981 415.548 Q87.7491 417.319 90.9053 419.799 Q94.0614 422.279 95.4463 423.921 Q96.8311 425.564 96.8311 426.047 Q96.8311 426.691 96.187 426.691 Z" fill="#000000" fill-rule="nonzero" fill-opacity="1" /><path clip-path="url(#clip340)" d="M63.4015 386.549 Q63.5303 386.484 63.8523 386.484 Q64.1744 386.484 64.3032 386.549 L95.9616 398.819 Q96.8311 399.141 96.8311 400.043 Q96.8311 400.591 96.4447 400.977 Q96.0582 401.363 95.5107 401.363 Q95.1886 401.363 95.0598 401.299 L63.8523 389.19 L32.6449 401.299 Q32.516 401.363 32.194 401.363 Q31.6465 401.363 31.26 400.977 Q30.8735 400.591 30.8735 400.043 Q30.8735 399.141 31.7431 398.819 L63.4015 386.549 Z" fill="#000000" fill-rule="nonzero" fill-opacity="1" /><path clip-path="url(#clip340)" d="M94.8022 375.972 L33.3856 375.972 Q30.938 375.972 30.938 374.652 Q30.938 373.331 32.9025 373.331 L94.3191 373.331 Q96.7667 373.331 96.7667 374.652 Q96.7667 375.972 94.8022 375.972 Z" fill="#000000" fill-rule="nonzero" fill-opacity="1" /><path clip-path="url(#clip340)" d="M40.5425 366.323 Q39.7084 366.323 39.4604 366.255 Q39.2124 366.165 38.8292 365.804 L28.9549 356.945 Q23.4992 352.098 18.7424 352.098 Q15.6538 352.098 13.4445 353.721 Q11.2352 355.321 11.2352 358.275 Q11.2352 360.304 12.4751 362.017 Q13.715 363.73 15.9244 364.519 Q15.8793 364.384 15.8793 363.911 Q15.8793 362.761 16.6007 362.13 Q17.3221 361.476 18.2915 361.476 Q19.5314 361.476 20.1401 362.288 Q20.7263 363.077 20.7263 363.866 Q20.7263 364.181 20.6586 364.61 Q20.591 365.015 19.9598 365.669 Q19.306 366.323 18.1562 366.323 Q14.9324 366.323 12.3624 363.888 Q9.79237 361.431 9.79237 357.689 Q9.79237 353.45 12.3173 350.677 Q14.8197 347.882 18.7424 347.882 Q20.1176 347.882 21.38 348.31 Q22.62 348.716 23.5894 349.28 Q24.5588 349.821 26.1143 351.309 Q27.6698 352.796 28.7745 353.991 Q29.8792 355.186 32.2238 357.869 L36.9806 362.761 L36.9806 354.442 Q36.9806 350.384 36.6199 350.069 Q35.9661 349.618 32.5168 349.054 L32.5168 347.882 L40.5425 349.189 L40.5425 366.323 Z" fill="#000000" fill-rule="nonzero" fill-opacity="1" /><circle clip-path="url(#clip342)" cx="323.379" cy="1342.85" r="14.4" fill="#009af9" fill-rule="evenodd" fill-opacity="1" stroke="#000000" stroke-opacity="1" stroke-width="3.2"/>
<circle clip-path="url(#clip342)" cx="323.377" cy="1342.85" r="14.4" fill="#009af9" fill-rule="evenodd" fill-opacity="1" stroke="#000000" stroke-opacity="1" stroke-width="3.2"/>
<circle clip-path="url(#clip342)" cx="381.172" cy="1298.63" r="14.4" fill="#009af9" fill-rule="evenodd" fill-opacity="1" stroke="#000000" stroke-opacity="1" stroke-width="3.2"/>
<circle clip-path="url(#clip342)" cx="381.17" cy="1298.63" r="14.4" fill="#009af9" fill-rule="evenodd" fill-opacity="1" stroke="#000000" stroke-opacity="1" stroke-width="3.2"/>
<circle clip-path="url(#clip342)" cx="438.916" cy="1254.46" r="14.4" fill="#009af9" fill-rule="evenodd" fill-opacity="1" stroke="#000000" stroke-opacity="1" stroke-width="3.2"/>
<circle clip-path="url(#clip342)" cx="438.91" cy="1254.46" r="14.4" fill="#009af9" fill-rule="evenodd" fill-opacity="1" stroke="#000000" stroke-opacity="1" stroke-width="3.2"/>
<circle clip-path="url(#clip342)" cx="496.604" cy="1210.33" r="14.4" fill="#009af9" fill-rule="evenodd" fill-opacity="1" stroke="#000000" stroke-opacity="1" stroke-width="3.2"/>
<circle clip-path="url(#clip342)" cx="496.61" cy="1210.33" r="14.4" fill="#009af9" fill-rule="evenodd" fill-opacity="1" stroke="#000000" stroke-opacity="1" stroke-width="3.2"/>
<circle clip-path="url(#clip342)" cx="554.264" cy="1166.24" r="14.4" fill="#009af9" fill-rule="evenodd" fill-opacity="1" stroke="#000000" stroke-opacity="1" stroke-width="3.2"/>
<circle clip-path="url(#clip342)" cx="554.263" cy="1166.24" r="14.4" fill="#009af9" fill-rule="evenodd" fill-opacity="1" stroke="#000000" stroke-opacity="1" stroke-width="3.2"/>
<circle clip-path="url(#clip342)" cx="640.073" cy="1122.17" r="14.4" fill="#009af9" fill-rule="evenodd" fill-opacity="1" stroke="#000000" stroke-opacity="1" stroke-width="3.2"/>
<circle clip-path="url(#clip342)" cx="640.067" cy="1122.17" r="14.4" fill="#009af9" fill-rule="evenodd" fill-opacity="1" stroke="#000000" stroke-opacity="1" stroke-width="3.2"/>
<circle clip-path="url(#clip342)" cx="697.681" cy="1078.12" r="14.4" fill="#009af9" fill-rule="evenodd" fill-opacity="1" stroke="#000000" stroke-opacity="1" stroke-width="3.2"/>
<circle clip-path="url(#clip342)" cx="697.7" cy="1078.12" r="14.4" fill="#009af9" fill-rule="evenodd" fill-opacity="1" stroke="#000000" stroke-opacity="1" stroke-width="3.2"/>
<circle clip-path="url(#clip342)" cx="761.748" cy="1034.09" r="14.4" fill="#009af9" fill-rule="evenodd" fill-opacity="1" stroke="#000000" stroke-opacity="1" stroke-width="3.2"/>
<circle clip-path="url(#clip342)" cx="761.839" cy="1034.09" r="14.4" fill="#009af9" fill-rule="evenodd" fill-opacity="1" stroke="#000000" stroke-opacity="1" stroke-width="3.2"/>
<circle clip-path="url(#clip342)" cx="819.397" cy="990.072" r="14.4" fill="#009af9" fill-rule="evenodd" fill-opacity="1" stroke="#000000" stroke-opacity="1" stroke-width="3.2"/>
<circle clip-path="url(#clip342)" cx="819.503" cy="990.072" r="14.4" fill="#009af9" fill-rule="evenodd" fill-opacity="1" stroke="#000000" stroke-opacity="1" stroke-width="3.2"/>
<circle clip-path="url(#clip342)" cx="902.247" cy="946.069" r="14.4" fill="#009af9" fill-rule="evenodd" fill-opacity="1" stroke="#000000" stroke-opacity="1" stroke-width="3.2"/>
<circle clip-path="url(#clip342)" cx="908.04" cy="946.069" r="14.4" fill="#009af9" fill-rule="evenodd" fill-opacity="1" stroke="#000000" stroke-opacity="1" stroke-width="3.2"/>
<circle clip-path="url(#clip342)" cx="964.48" cy="902.082" r="14.4" fill="#009af9" fill-rule="evenodd" fill-opacity="1" stroke="#000000" stroke-opacity="1" stroke-width="3.2"/>
<circle clip-path="url(#clip342)" cx="959.344" cy="902.082" r="14.4" fill="#009af9" fill-rule="evenodd" fill-opacity="1" stroke="#000000" stroke-opacity="1" stroke-width="3.2"/>
<circle clip-path="url(#clip342)" cx="1017.88" cy="858.113" r="14.4" fill="#009af9" fill-rule="evenodd" fill-opacity="1" stroke="#000000" stroke-opacity="1" stroke-width="3.2"/>
<circle clip-path="url(#clip342)" cx="1018.41" cy="858.113" r="14.4" fill="#009af9" fill-rule="evenodd" fill-opacity="1" stroke="#000000" stroke-opacity="1" stroke-width="3.2"/>
<circle clip-path="url(#clip342)" cx="1075.18" cy="814.167" r="14.4" fill="#009af9" fill-rule="evenodd" fill-opacity="1" stroke="#000000" stroke-opacity="1" stroke-width="3.2"/>
<circle clip-path="url(#clip342)" cx="1075.27" cy="814.167" r="14.4" fill="#009af9" fill-rule="evenodd" fill-opacity="1" stroke="#000000" stroke-opacity="1" stroke-width="3.2"/>
<circle clip-path="url(#clip342)" cx="1132.68" cy="770.249" r="14.4" fill="#009af9" fill-rule="evenodd" fill-opacity="1" stroke="#000000" stroke-opacity="1" stroke-width="3.2"/>
<circle clip-path="url(#clip342)" cx="1133.81" cy="770.249" r="14.4" fill="#009af9" fill-rule="evenodd" fill-opacity="1" stroke="#000000" stroke-opacity="1" stroke-width="3.2"/>
<circle clip-path="url(#clip342)" cx="1190.61" cy="726.37" r="14.4" fill="#009af9" fill-rule="evenodd" fill-opacity="1" stroke="#000000" stroke-opacity="1" stroke-width="3.2"/>
<circle clip-path="url(#clip342)" cx="1191.12" cy="726.37" r="14.4" fill="#009af9" fill-rule="evenodd" fill-opacity="1" stroke="#000000" stroke-opacity="1" stroke-width="3.2"/>
<circle clip-path="url(#clip342)" cx="1249.77" cy="682.543" r="14.4" fill="#009af9" fill-rule="evenodd" fill-opacity="1" stroke="#000000" stroke-opacity="1" stroke-width="3.2"/>
<circle clip-path="url(#clip342)" cx="1249.96" cy="682.543" r="14.4" fill="#009af9" fill-rule="evenodd" fill-opacity="1" stroke="#000000" stroke-opacity="1" stroke-width="3.2"/>
<circle clip-path="url(#clip342)" cx="1308.59" cy="638.786" r="14.4" fill="#009af9" fill-rule="evenodd" fill-opacity="1" stroke="#000000" stroke-opacity="1" stroke-width="3.2"/>
<circle clip-path="url(#clip342)" cx="1309.08" cy="638.786" r="14.4" fill="#009af9" fill-rule="evenodd" fill-opacity="1" stroke="#000000" stroke-opacity="1" stroke-width="3.2"/>
<circle clip-path="url(#clip342)" cx="1368.55" cy="595.128" r="14.4" fill="#009af9" fill-rule="evenodd" fill-opacity="1" stroke="#000000" stroke-opacity="1" stroke-width="3.2"/>
<circle clip-path="url(#clip342)" cx="1368.43" cy="595.128" r="14.4" fill="#009af9" fill-rule="evenodd" fill-opacity="1" stroke="#000000" stroke-opacity="1" stroke-width="3.2"/>
<circle clip-path="url(#clip342)" cx="1428.74" cy="551.609" r="14.4" fill="#009af9" fill-rule="evenodd" fill-opacity="1" stroke="#000000" stroke-opacity="1" stroke-width="3.2"/>
<circle clip-path="url(#clip342)" cx="1428.9" cy="551.609" r="14.4" fill="#009af9" fill-rule="evenodd" fill-opacity="1" stroke="#000000" stroke-opacity="1" stroke-width="3.2"/>
<circle clip-path="url(#clip342)" cx="1489.14" cy="508.289" r="14.4" fill="#009af9" fill-rule="evenodd" fill-opacity="1" stroke="#000000" stroke-opacity="1" stroke-width="3.2"/>
<circle clip-path="url(#clip342)" cx="1490.87" cy="508.289" r="14.4" fill="#009af9" fill-rule="evenodd" fill-opacity="1" stroke="#000000" stroke-opacity="1" stroke-width="3.2"/>
<circle clip-path="url(#clip342)" cx="1553.78" cy="465.257" r="14.4" fill="#009af9" fill-rule="evenodd" fill-opacity="1" stroke="#000000" stroke-opacity="1" stroke-width="3.2"/>
<circle clip-path="url(#clip342)" cx="1552.58" cy="465.257" r="14.4" fill="#009af9" fill-rule="evenodd" fill-opacity="1" stroke="#000000" stroke-opacity="1" stroke-width="3.2"/>
<circle clip-path="url(#clip342)" cx="1619.15" cy="422.648" r="14.4" fill="#009af9" fill-rule="evenodd" fill-opacity="1" stroke="#000000" stroke-opacity="1" stroke-width="3.2"/>
<circle clip-path="url(#clip342)" cx="1617.74" cy="422.648" r="14.4" fill="#009af9" fill-rule="evenodd" fill-opacity="1" stroke="#000000" stroke-opacity="1" stroke-width="3.2"/>
<circle clip-path="url(#clip342)" cx="1684.89" cy="380.666" r="14.4" fill="#009af9" fill-rule="evenodd" fill-opacity="1" stroke="#000000" stroke-opacity="1" stroke-width="3.2"/>
<circle clip-path="url(#clip342)" cx="1684.12" cy="380.666" r="14.4" fill="#009af9" fill-rule="evenodd" fill-opacity="1" stroke="#000000" stroke-opacity="1" stroke-width="3.2"/>
<circle clip-path="url(#clip342)" cx="1753.14" cy="339.617" r="14.4" fill="#009af9" fill-rule="evenodd" fill-opacity="1" stroke="#000000" stroke-opacity="1" stroke-width="3.2"/>
<circle clip-path="url(#clip342)" cx="1753.36" cy="339.617" r="14.4" fill="#009af9" fill-rule="evenodd" fill-opacity="1" stroke="#000000" stroke-opacity="1" stroke-width="3.2"/>
<circle clip-path="url(#clip342)" cx="1817.79" cy="303.319" r="14.4" fill="#009af9" fill-rule="evenodd" fill-opacity="1" stroke="#000000" stroke-opacity="1" stroke-width="3.2"/>
<circle clip-path="url(#clip342)" cx="1819.96" cy="303.319" r="14.4" fill="#009af9" fill-rule="evenodd" fill-opacity="1" stroke="#000000" stroke-opacity="1" stroke-width="3.2"/>
<circle clip-path="url(#clip342)" cx="1823.63" cy="299.949" r="14.4" fill="#009af9" fill-rule="evenodd" fill-opacity="1" stroke="#000000" stroke-opacity="1" stroke-width="3.2"/>
<circle clip-path="url(#clip342)" cx="1825.34" cy="299.949" r="14.4" fill="#009af9" fill-rule="evenodd" fill-opacity="1" stroke="#000000" stroke-opacity="1" stroke-width="3.2"/>
<circle clip-path="url(#clip342)" cx="1857.83" cy="282.572" r="14.4" fill="#009af9" fill-rule="evenodd" fill-opacity="1" stroke="#000000" stroke-opacity="1" stroke-width="3.2"/>
<circle clip-path="url(#clip342)" cx="1857.57" cy="282.572" r="14.4" fill="#009af9" fill-rule="evenodd" fill-opacity="1" stroke="#000000" stroke-opacity="1" stroke-width="3.2"/>
<circle clip-path="url(#clip342)" cx="1889.97" cy="265.227" r="14.4" fill="#009af9" fill-rule="evenodd" fill-opacity="1" stroke="#000000" stroke-opacity="1" stroke-width="3.2"/>
<circle clip-path="url(#clip342)" cx="1890.57" cy="265.227" r="14.4" fill="#009af9" fill-rule="evenodd" fill-opacity="1" stroke="#000000" stroke-opacity="1" stroke-width="3.2"/>
<circle clip-path="url(#clip342)" cx="1898.05" cy="262.288" r="14.4" fill="#009af9" fill-rule="evenodd" fill-opacity="1" stroke="#000000" stroke-opacity="1" stroke-width="3.2"/>
<circle clip-path="url(#clip342)" cx="1897.21" cy="262.288" r="14.4" fill="#009af9" fill-rule="evenodd" fill-opacity="1" stroke="#000000" stroke-opacity="1" stroke-width="3.2"/>
<circle clip-path="url(#clip342)" cx="1920.66" cy="250.467" r="14.4" fill="#009af9" fill-rule="evenodd" fill-opacity="1" stroke="#000000" stroke-opacity="1" stroke-width="3.2"/>
<circle clip-path="url(#clip342)" cx="1921.33" cy="250.467" r="14.4" fill="#009af9" fill-rule="evenodd" fill-opacity="1" stroke="#000000" stroke-opacity="1" stroke-width="3.2"/>
<circle clip-path="url(#clip342)" cx="1944.77" cy="237.735" r="14.4" fill="#009af9" fill-rule="evenodd" fill-opacity="1" stroke="#000000" stroke-opacity="1" stroke-width="3.2"/>
<circle clip-path="url(#clip342)" cx="1947.49" cy="237.735" r="14.4" fill="#009af9" fill-rule="evenodd" fill-opacity="1" stroke="#000000" stroke-opacity="1" stroke-width="3.2"/>
<circle clip-path="url(#clip342)" cx="1963.8" cy="227.427" r="14.4" fill="#009af9" fill-rule="evenodd" fill-opacity="1" stroke="#000000" stroke-opacity="1" stroke-width="3.2"/>
<circle clip-path="url(#clip342)" cx="1965.22" cy="227.427" r="14.4" fill="#009af9" fill-rule="evenodd" fill-opacity="1" stroke="#000000" stroke-opacity="1" stroke-width="3.2"/>
<circle clip-path="url(#clip342)" cx="1967.26" cy="226.633" r="14.4" fill="#009af9" fill-rule="evenodd" fill-opacity="1" stroke="#000000" stroke-opacity="1" stroke-width="3.2"/>
<circle clip-path="url(#clip342)" cx="1965.37" cy="226.633" r="14.4" fill="#009af9" fill-rule="evenodd" fill-opacity="1" stroke="#000000" stroke-opacity="1" stroke-width="3.2"/>
<circle clip-path="url(#clip342)" cx="1991.43" cy="216.865" r="14.4" fill="#009af9" fill-rule="evenodd" fill-opacity="1" stroke="#000000" stroke-opacity="1" stroke-width="3.2"/>
<circle clip-path="url(#clip342)" cx="1986.37" cy="216.865" r="14.4" fill="#009af9" fill-rule="evenodd" fill-opacity="1" stroke="#000000" stroke-opacity="1" stroke-width="3.2"/>
<circle clip-path="url(#clip342)" cx="2006.58" cy="208.208" r="14.4" fill="#009af9" fill-rule="evenodd" fill-opacity="1" stroke="#000000" stroke-opacity="1" stroke-width="3.2"/>
<circle clip-path="url(#clip342)" cx="2007.09" cy="208.208" r="14.4" fill="#009af9" fill-rule="evenodd" fill-opacity="1" stroke="#000000" stroke-opacity="1" stroke-width="3.2"/>
<circle clip-path="url(#clip342)" cx="2022.14" cy="200.485" r="14.4" fill="#009af9" fill-rule="evenodd" fill-opacity="1" stroke="#000000" stroke-opacity="1" stroke-width="3.2"/>
<circle clip-path="url(#clip342)" cx="2023.49" cy="200.485" r="14.4" fill="#009af9" fill-rule="evenodd" fill-opacity="1" stroke="#000000" stroke-opacity="1" stroke-width="3.2"/>
<circle clip-path="url(#clip342)" cx="2031.41" cy="196.237" r="14.4" fill="#009af9" fill-rule="evenodd" fill-opacity="1" stroke="#000000" stroke-opacity="1" stroke-width="3.2"/>
<circle clip-path="url(#clip342)" cx="2027.41" cy="196.237" r="14.4" fill="#009af9" fill-rule="evenodd" fill-opacity="1" stroke="#000000" stroke-opacity="1" stroke-width="3.2"/>
<circle clip-path="url(#clip342)" cx="2039.82" cy="193.557" r="14.4" fill="#009af9" fill-rule="evenodd" fill-opacity="1" stroke="#000000" stroke-opacity="1" stroke-width="3.2"/>
<circle clip-path="url(#clip342)" cx="2039.19" cy="193.557" r="14.4" fill="#009af9" fill-rule="evenodd" fill-opacity="1" stroke="#000000" stroke-opacity="1" stroke-width="3.2"/>
<circle clip-path="url(#clip342)" cx="2053.63" cy="187.311" r="14.4" fill="#009af9" fill-rule="evenodd" fill-opacity="1" stroke="#000000" stroke-opacity="1" stroke-width="3.2"/>
<circle clip-path="url(#clip342)" cx="2052.5" cy="187.311" r="14.4" fill="#009af9" fill-rule="evenodd" fill-opacity="1" stroke="#000000" stroke-opacity="1" stroke-width="3.2"/>
<circle clip-path="url(#clip342)" cx="2058.08" cy="181.654" r="14.4" fill="#009af9" fill-rule="evenodd" fill-opacity="1" stroke="#000000" stroke-opacity="1" stroke-width="3.2"/>
<circle clip-path="url(#clip342)" cx="2066.31" cy="181.654" r="14.4" fill="#009af9" fill-rule="evenodd" fill-opacity="1" stroke="#000000" stroke-opacity="1" stroke-width="3.2"/>
<circle clip-path="url(#clip342)" cx="2077.78" cy="176.512" r="14.4" fill="#009af9" fill-rule="evenodd" fill-opacity="1" stroke="#000000" stroke-opacity="1" stroke-width="3.2"/>
<circle clip-path="url(#clip342)" cx="2075.69" cy="176.512" r="14.4" fill="#009af9" fill-rule="evenodd" fill-opacity="1" stroke="#000000" stroke-opacity="1" stroke-width="3.2"/>
<circle clip-path="url(#clip342)" cx="2082.77" cy="171.818" r="14.4" fill="#009af9" fill-rule="evenodd" fill-opacity="1" stroke="#000000" stroke-opacity="1" stroke-width="3.2"/>
<circle clip-path="url(#clip342)" cx="2088.15" cy="171.818" r="14.4" fill="#009af9" fill-rule="evenodd" fill-opacity="1" stroke="#000000" stroke-opacity="1" stroke-width="3.2"/>
<circle clip-path="url(#clip342)" cx="2091.72" cy="169.453" r="14.4" fill="#009af9" fill-rule="evenodd" fill-opacity="1" stroke="#000000" stroke-opacity="1" stroke-width="3.2"/>
<circle clip-path="url(#clip342)" cx="2094.46" cy="169.453" r="14.4" fill="#009af9" fill-rule="evenodd" fill-opacity="1" stroke="#000000" stroke-opacity="1" stroke-width="3.2"/>
<circle clip-path="url(#clip342)" cx="2092.48" cy="167.521" r="14.4" fill="#009af9" fill-rule="evenodd" fill-opacity="1" stroke="#000000" stroke-opacity="1" stroke-width="3.2"/>
<circle clip-path="url(#clip342)" cx="2095.67" cy="167.521" r="14.4" fill="#009af9" fill-rule="evenodd" fill-opacity="1" stroke="#000000" stroke-opacity="1" stroke-width="3.2"/>
<circle clip-path="url(#clip342)" cx="2106.02" cy="163.574" r="14.4" fill="#009af9" fill-rule="evenodd" fill-opacity="1" stroke="#000000" stroke-opacity="1" stroke-width="3.2"/>
<circle clip-path="url(#clip342)" cx="2104.78" cy="163.574" r="14.4" fill="#009af9" fill-rule="evenodd" fill-opacity="1" stroke="#000000" stroke-opacity="1" stroke-width="3.2"/>
<circle clip-path="url(#clip342)" cx="2113.95" cy="159.937" r="14.4" fill="#009af9" fill-rule="evenodd" fill-opacity="1" stroke="#000000" stroke-opacity="1" stroke-width="3.2"/>
<circle clip-path="url(#clip342)" cx="2105.36" cy="159.937" r="14.4" fill="#009af9" fill-rule="evenodd" fill-opacity="1" stroke="#000000" stroke-opacity="1" stroke-width="3.2"/>
<circle clip-path="url(#clip342)" cx="2122.02" cy="156.578" r="14.4" fill="#009af9" fill-rule="evenodd" fill-opacity="1" stroke="#000000" stroke-opacity="1" stroke-width="3.2"/>
<circle clip-path="url(#clip342)" cx="2118.18" cy="156.578" r="14.4" fill="#009af9" fill-rule="evenodd" fill-opacity="1" stroke="#000000" stroke-opacity="1" stroke-width="3.2"/>
<circle clip-path="url(#clip342)" cx="2124.46" cy="153.467" r="14.4" fill="#009af9" fill-rule="evenodd" fill-opacity="1" stroke="#000000" stroke-opacity="1" stroke-width="3.2"/>
<circle clip-path="url(#clip342)" cx="2133.25" cy="153.467" r="14.4" fill="#009af9" fill-rule="evenodd" fill-opacity="1" stroke="#000000" stroke-opacity="1" stroke-width="3.2"/>
<circle clip-path="url(#clip342)" cx="2136.73" cy="150.578" r="14.4" fill="#009af9" fill-rule="evenodd" fill-opacity="1" stroke="#000000" stroke-opacity="1" stroke-width="3.2"/>
<circle clip-path="url(#clip342)" cx="2136.17" cy="150.578" r="14.4" fill="#009af9" fill-rule="evenodd" fill-opacity="1" stroke="#000000" stroke-opacity="1" stroke-width="3.2"/>
<circle clip-path="url(#clip342)" cx="2142.28" cy="147.44" r="14.4" fill="#009af9" fill-rule="evenodd" fill-opacity="1" stroke="#000000" stroke-opacity="1" stroke-width="3.2"/>
<circle clip-path="url(#clip342)" cx="2140.98" cy="147.44" r="14.4" fill="#009af9" fill-rule="evenodd" fill-opacity="1" stroke="#000000" stroke-opacity="1" stroke-width="3.2"/>
<circle clip-path="url(#clip342)" cx="2180.81" cy="130.062" r="14.4" fill="#009af9" fill-rule="evenodd" fill-opacity="1" stroke="#000000" stroke-opacity="1" stroke-width="3.2"/>
<circle clip-path="url(#clip342)" cx="2187.04" cy="130.062" r="14.4" fill="#009af9" fill-rule="evenodd" fill-opacity="1" stroke="#000000" stroke-opacity="1" stroke-width="3.2"/>
<circle clip-path="url(#clip342)" cx="2214.15" cy="116.771" r="14.4" fill="#009af9" fill-rule="evenodd" fill-opacity="1" stroke="#000000" stroke-opacity="1" stroke-width="3.2"/>
<circle clip-path="url(#clip342)" cx="2213.81" cy="116.771" r="14.4" fill="#009af9" fill-rule="evenodd" fill-opacity="1" stroke="#000000" stroke-opacity="1" stroke-width="3.2"/>
<circle clip-path="url(#clip342)" cx="2241.04" cy="106.82" r="14.4" fill="#009af9" fill-rule="evenodd" fill-opacity="1" stroke="#000000" stroke-opacity="1" stroke-width="3.2"/>
<circle clip-path="url(#clip342)" cx="2241.99" cy="106.82" r="14.4" fill="#009af9" fill-rule="evenodd" fill-opacity="1" stroke="#000000" stroke-opacity="1" stroke-width="3.2"/>
<circle clip-path="url(#clip342)" cx="2256.69" cy="99.4578" r="14.4" fill="#009af9" fill-rule="evenodd" fill-opacity="1" stroke="#000000" stroke-opacity="1" stroke-width="3.2"/>
<circle clip-path="url(#clip342)" cx="2258.37" cy="99.4578" r="14.4" fill="#009af9" fill-rule="evenodd" fill-opacity="1" stroke="#000000" stroke-opacity="1" stroke-width="3.2"/>
<circle clip-path="url(#clip342)" cx="2266.59" cy="94.0413" r="14.4" fill="#009af9" fill-rule="evenodd" fill-opacity="1" stroke="#000000" stroke-opacity="1" stroke-width="3.2"/>
<circle clip-path="url(#clip342)" cx="2269.48" cy="94.0413" r="14.4" fill="#009af9" fill-rule="evenodd" fill-opacity="1" stroke="#000000" stroke-opacity="1" stroke-width="3.2"/>
<circle clip-path="url(#clip342)" cx="2280.94" cy="90.0616" r="14.4" fill="#009af9" fill-rule="evenodd" fill-opacity="1" stroke="#000000" stroke-opacity="1" stroke-width="3.2"/>
<circle clip-path="url(#clip342)" cx="2284.36" cy="90.0616" r="14.4" fill="#009af9" fill-rule="evenodd" fill-opacity="1" stroke="#000000" stroke-opacity="1" stroke-width="3.2"/>
<circle clip-path="url(#clip342)" cx="2292.15" cy="87.1353" r="14.4" fill="#009af9" fill-rule="evenodd" fill-opacity="1" stroke="#000000" stroke-opacity="1" stroke-width="3.2"/>
<circle clip-path="url(#clip342)" cx="2286.37" cy="87.1353" r="14.4" fill="#009af9" fill-rule="evenodd" fill-opacity="1" stroke="#000000" stroke-opacity="1" stroke-width="3.2"/>
<circle clip-path="url(#clip342)" cx="2293.65" cy="84.9802" r="14.4" fill="#009af9" fill-rule="evenodd" fill-opacity="1" stroke="#000000" stroke-opacity="1" stroke-width="3.2"/>
<circle clip-path="url(#clip342)" cx="2291.38" cy="84.9802" r="14.4" fill="#009af9" fill-rule="evenodd" fill-opacity="1" stroke="#000000" stroke-opacity="1" stroke-width="3.2"/>
</svg>
