<?xml version="1.0" encoding="utf-8"?>
<svg xmlns="http://www.w3.org/2000/svg" xmlns:xlink="http://www.w3.org/1999/xlink" width="600" height="400" viewBox="0 0 2400 1600">
<defs>
  <clipPath id="clip140">
    <rect x="0" y="0" width="2400" height="1600"/>
  </clipPath>
</defs>
<path clip-path="url(#clip140)" d="M0 1600 L2400 1600 L2400 0 L0 0  Z" fill="#ffffff" fill-rule="evenodd" fill-opacity="1"/>
<defs>
  <clipPath id="clip141">
    <rect x="480" y="0" width="1681" height="1600"/>
  </clipPath>
</defs>
<path clip-path="url(#clip140)" d="M234.018 1380.58 L2352.76 1380.58 L2352.76 47.2441 L234.018 47.2441  Z" fill="#ffffff" fill-rule="evenodd" fill-opacity="1"/>
<defs>
  <clipPath id="clip142">
    <rect x="234" y="47" width="2120" height="1334"/>
  </clipPath>
</defs>
<polyline clip-path="url(#clip142)" style="stroke:#000000; stroke-linecap:round; stroke-linejoin:round; stroke-width:2; stroke-opacity:0.1; fill:none" points="1602.8,1380.58 1602.8,47.2441 "/>
<polyline clip-path="url(#clip142)" style="stroke:#000000; stroke-linecap:round; stroke-linejoin:round; stroke-width:2; stroke-opacity:0.1; fill:none" points="234.018,1342.85 2352.76,1342.85 "/>
<polyline clip-path="url(#clip140)" style="stroke:#000000; stroke-linecap:round; stroke-linejoin:round; stroke-width:4; stroke-opacity:1; fill:none" points="234.018,1380.58 2352.76,1380.58 "/>
<polyline clip-path="url(#clip140)" style="stroke:#000000; stroke-linecap:round; stroke-linejoin:round; stroke-width:4; stroke-opacity:1; fill:none" points="1602.8,1380.58 1602.8,1361.69 "/>
<path clip-path="url(#clip140)" d="M1567.25 1454.71 L1574.89 1454.71 L1574.89 1428.34 L1566.58 1430.01 L1566.58 1425.75 L1574.84 1424.08 L1579.52 1424.08 L1579.52 1454.71 L1587.16 1454.71 L1587.16 1458.64 L1567.25 1458.64 L1567.25 1454.71 Z" fill="#000000" fill-rule="nonzero" fill-opacity="1" /><path clip-path="url(#clip140)" d="M1606.6 1427.16 Q1602.99 1427.16 1601.16 1430.73 Q1599.36 1434.27 1599.36 1441.4 Q1599.36 1448.51 1601.16 1452.07 Q1602.99 1455.61 1606.6 1455.61 Q1610.24 1455.61 1612.04 1452.07 Q1613.87 1448.51 1613.87 1441.4 Q1613.87 1434.27 1612.04 1430.73 Q1610.24 1427.16 1606.6 1427.16 M1606.6 1423.46 Q1612.41 1423.46 1615.47 1428.07 Q1618.55 1432.65 1618.55 1441.4 Q1618.55 1450.13 1615.47 1454.73 Q1612.41 1459.32 1606.6 1459.32 Q1600.79 1459.32 1597.71 1454.73 Q1594.66 1450.13 1594.66 1441.4 Q1594.66 1432.65 1597.71 1428.07 Q1600.79 1423.46 1606.6 1423.46 Z" fill="#000000" fill-rule="nonzero" fill-opacity="1" /><path clip-path="url(#clip140)" d="M1631.22 1406.46 L1621.63 1421.45 L1631.22 1421.45 L1631.22 1406.46 M1630.23 1403.15 L1635 1403.15 L1635 1421.45 L1639.01 1421.45 L1639.01 1424.61 L1635 1424.61 L1635 1431.23 L1631.22 1431.23 L1631.22 1424.61 L1618.55 1424.61 L1618.55 1420.95 L1630.23 1403.15 Z" fill="#000000" fill-rule="nonzero" fill-opacity="1" /><path clip-path="url(#clip140)" d="M1199.69 1571.84 L1199.69 1509.94 Q1199.69 1507.98 1201.01 1507.98 Q1202.33 1507.98 1202.33 1510.04 L1202.33 1571.68 Q1202.33 1573.81 1201.01 1573.81 Q1199.69 1573.81 1199.69 1571.84 M1206.97 1571.84 L1206.97 1510.42 Q1206.97 1507.98 1208.29 1507.98 Q1209.61 1507.98 1209.61 1510.04 L1209.61 1571.68 Q1209.61 1573.81 1208.29 1573.81 Q1206.97 1573.81 1206.97 1571.84 Z" fill="#000000" fill-rule="nonzero" fill-opacity="1" /><path clip-path="url(#clip140)" d="M1277.61 1556.06 Q1277.61 1556.67 1277.35 1556.99 Q1277.12 1557.28 1276.9 1557.35 Q1276.7 1557.38 1276.41 1557.38 Q1275.58 1557.38 1272.68 1557.28 Q1269.78 1557.19 1268.94 1557.19 Q1267.59 1557.19 1264.82 1557.28 Q1262.05 1557.38 1260.7 1557.38 Q1259.8 1557.38 1259.8 1556.64 Q1259.8 1556.16 1259.89 1555.9 Q1259.99 1555.61 1260.25 1555.51 Q1260.54 1555.38 1260.7 1555.38 Q1260.89 1555.35 1261.37 1555.35 Q1262.02 1555.35 1262.7 1555.29 Q1263.37 1555.19 1264.21 1555 Q1265.05 1554.8 1265.56 1554.32 Q1266.11 1553.84 1266.11 1553.16 Q1266.11 1552.87 1265.88 1550.49 Q1265.66 1548.11 1265.37 1545.34 Q1265.08 1542.53 1265.05 1542.15 L1248.49 1542.15 Q1246.98 1544.76 1245.92 1546.56 Q1244.85 1548.36 1244.47 1548.97 Q1244.08 1549.59 1243.85 1549.97 Q1243.63 1550.36 1243.5 1550.58 Q1242.57 1552.29 1242.57 1553.03 Q1242.57 1555.09 1245.66 1555.35 Q1246.72 1555.35 1246.72 1556.12 Q1246.72 1556.7 1246.46 1557.03 Q1246.21 1557.32 1245.98 1557.35 Q1245.79 1557.38 1245.47 1557.38 Q1244.4 1557.38 1242.18 1557.28 Q1239.96 1557.19 1238.86 1557.19 Q1237.93 1557.19 1236 1557.28 Q1234.06 1557.38 1233.19 1557.38 Q1232.81 1557.38 1232.58 1557.15 Q1232.36 1556.93 1232.36 1556.64 Q1232.36 1556.19 1232.42 1555.93 Q1232.52 1555.67 1232.78 1555.54 Q1233.03 1555.42 1233.16 1555.42 Q1233.29 1555.38 1233.74 1555.35 Q1236.19 1555.19 1238.09 1554.03 Q1240.02 1552.84 1241.86 1549.78 L1264.79 1511.26 Q1265.01 1510.88 1265.17 1510.68 Q1265.34 1510.49 1265.66 1510.33 Q1266.01 1510.17 1266.53 1510.17 Q1267.33 1510.17 1267.49 1510.42 Q1267.65 1510.65 1267.75 1511.74 L1271.78 1552.97 Q1271.87 1553.84 1271.94 1554.19 Q1272.03 1554.51 1272.45 1554.87 Q1272.9 1555.19 1273.71 1555.29 Q1274.55 1555.35 1276.09 1555.35 Q1276.67 1555.35 1276.9 1555.38 Q1277.12 1555.38 1277.35 1555.54 Q1277.61 1555.71 1277.61 1556.06 M1264.85 1540.09 L1262.76 1518.35 L1249.75 1540.09 L1264.85 1540.09 Z" fill="#000000" fill-rule="nonzero" fill-opacity="1" /><path clip-path="url(#clip140)" d="M1284.21 1497.93 Q1284.21 1490.13 1287.12 1483.84 Q1288.36 1481.2 1290.09 1479 Q1291.83 1476.79 1292.98 1475.82 Q1294.13 1474.85 1294.44 1474.85 Q1294.9 1474.85 1294.92 1475.3 Q1294.92 1475.52 1294.31 1476.09 Q1286.87 1483.66 1286.89 1497.93 Q1286.89 1512.25 1294.13 1519.53 Q1294.92 1520.32 1294.92 1520.57 Q1294.92 1521.02 1294.44 1521.02 Q1294.13 1521.02 1293.02 1520.09 Q1291.92 1519.17 1290.21 1517.05 Q1288.49 1514.93 1287.25 1512.34 Q1284.21 1506.05 1284.21 1497.93 Z" fill="#000000" fill-rule="nonzero" fill-opacity="1" /><path clip-path="url(#clip140)" d="M1299.35 1509.48 Q1299.35 1508.64 1299.42 1508.39 Q1299.51 1508.14 1299.87 1507.76 L1308.73 1497.89 Q1313.58 1492.43 1313.58 1487.67 Q1313.58 1484.59 1311.95 1482.38 Q1310.35 1480.17 1307.4 1480.17 Q1305.37 1480.17 1303.66 1481.41 Q1301.94 1482.65 1301.16 1484.86 Q1301.29 1484.81 1301.76 1484.81 Q1302.91 1484.81 1303.54 1485.53 Q1304.2 1486.25 1304.2 1487.22 Q1304.2 1488.46 1303.39 1489.07 Q1302.6 1489.66 1301.81 1489.66 Q1301.49 1489.66 1301.07 1489.59 Q1300.66 1489.52 1300.01 1488.89 Q1299.35 1488.24 1299.35 1487.09 Q1299.35 1483.86 1301.79 1481.29 Q1304.24 1478.72 1307.99 1478.72 Q1312.22 1478.72 1315 1481.25 Q1317.79 1483.75 1317.79 1487.67 Q1317.79 1489.05 1317.36 1490.31 Q1316.96 1491.55 1316.4 1492.52 Q1315.85 1493.49 1314.37 1495.05 Q1312.88 1496.6 1311.68 1497.71 Q1310.49 1498.81 1307.81 1501.16 L1302.91 1505.91 L1311.23 1505.91 Q1315.29 1505.91 1315.61 1505.55 Q1316.06 1504.9 1316.62 1501.45 L1317.79 1501.45 L1316.49 1509.48 L1299.35 1509.48 Z" fill="#000000" fill-rule="nonzero" fill-opacity="1" /><path clip-path="url(#clip140)" d="M1323.33 1520.57 Q1323.33 1520.34 1323.91 1519.78 Q1331.35 1512.2 1331.35 1497.93 Q1331.35 1483.62 1324.2 1476.38 Q1323.33 1475.55 1323.33 1475.3 Q1323.33 1474.85 1323.78 1474.85 Q1324.09 1474.85 1325.2 1475.77 Q1326.32 1476.7 1328.01 1478.82 Q1329.73 1480.93 1330.99 1483.53 Q1334.03 1489.82 1334.03 1497.93 Q1334.03 1505.73 1331.13 1512.02 Q1329.89 1514.66 1328.15 1516.87 Q1326.41 1519.08 1325.26 1520.05 Q1324.11 1521.02 1323.78 1521.02 Q1323.33 1521.02 1323.33 1520.57 Z" fill="#000000" fill-rule="nonzero" fill-opacity="1" /><path clip-path="url(#clip140)" d="M1348.09 1571.84 L1348.09 1509.94 Q1348.09 1507.98 1349.41 1507.98 Q1350.74 1507.98 1350.74 1510.04 L1350.74 1571.68 Q1350.74 1573.81 1349.41 1573.81 Q1348.09 1573.81 1348.09 1571.84 M1355.37 1571.84 L1355.37 1510.42 Q1355.37 1507.98 1356.69 1507.98 Q1358.01 1507.98 1358.01 1510.04 L1358.01 1571.68 Q1358.01 1573.81 1356.69 1573.81 Q1355.37 1573.81 1355.37 1571.84 Z" fill="#000000" fill-rule="nonzero" fill-opacity="1" /><path clip-path="url(#clip140)" d="M1364.95 1565.57 L1364.95 1564.13 Q1370.49 1564.13 1373.36 1561.17 Q1374.15 1561.17 1374.28 1561.35 Q1374.42 1561.53 1374.42 1562.37 L1374.42 1588.27 Q1374.42 1589.65 1375.09 1590.07 Q1375.77 1590.5 1378.72 1590.5 L1380.19 1590.5 L1380.19 1591.92 Q1378.56 1591.79 1372.7 1591.79 Q1366.84 1591.79 1365.24 1591.92 L1365.24 1590.5 L1366.71 1590.5 Q1369.61 1590.5 1370.31 1590.1 Q1371.01 1589.67 1371.01 1588.27 L1371.01 1564.35 Q1368.6 1565.57 1364.95 1565.57 Z" fill="#000000" fill-rule="nonzero" fill-opacity="1" /><polyline clip-path="url(#clip140)" style="stroke:#000000; stroke-linecap:round; stroke-linejoin:round; stroke-width:4; stroke-opacity:1; fill:none" points="234.018,1380.58 234.018,47.2441 "/>
<polyline clip-path="url(#clip140)" style="stroke:#000000; stroke-linecap:round; stroke-linejoin:round; stroke-width:4; stroke-opacity:1; fill:none" points="234.018,1342.85 252.916,1342.85 "/>
<path clip-path="url(#clip140)" d="M127.312 1362.64 L134.951 1362.64 L134.951 1336.28 L126.641 1337.94 L126.641 1333.68 L134.905 1332.02 L139.581 1332.02 L139.581 1362.64 L147.22 1362.64 L147.22 1366.58 L127.312 1366.58 L127.312 1362.64 Z" fill="#000000" fill-rule="nonzero" fill-opacity="1" /><path clip-path="url(#clip140)" d="M166.664 1335.1 Q163.053 1335.1 161.224 1338.66 Q159.419 1342.2 159.419 1349.33 Q159.419 1356.44 161.224 1360 Q163.053 1363.54 166.664 1363.54 Q170.298 1363.54 172.104 1360 Q173.933 1356.44 173.933 1349.33 Q173.933 1342.2 172.104 1338.66 Q170.298 1335.1 166.664 1335.1 M166.664 1331.39 Q172.474 1331.39 175.53 1336 Q178.608 1340.58 178.608 1349.33 Q178.608 1358.06 175.53 1362.66 Q172.474 1367.25 166.664 1367.25 Q160.854 1367.25 157.775 1362.66 Q154.72 1358.06 154.72 1349.33 Q154.72 1340.58 157.775 1336 Q160.854 1331.39 166.664 1331.39 Z" fill="#000000" fill-rule="nonzero" fill-opacity="1" /><path clip-path="url(#clip140)" d="M188.313 1313.59 Q185.379 1313.59 183.893 1316.48 Q182.426 1319.36 182.426 1325.15 Q182.426 1330.93 183.893 1333.82 Q185.379 1336.7 188.313 1336.7 Q191.266 1336.7 192.733 1333.82 Q194.219 1330.93 194.219 1325.15 Q194.219 1319.36 192.733 1316.48 Q191.266 1313.59 188.313 1313.59 M188.313 1310.58 Q193.034 1310.58 195.517 1314.32 Q198.018 1318.04 198.018 1325.15 Q198.018 1332.24 195.517 1335.99 Q193.034 1339.71 188.313 1339.71 Q183.592 1339.71 181.091 1335.99 Q178.608 1332.24 178.608 1325.15 Q178.608 1318.04 181.091 1314.32 Q183.592 1310.58 188.313 1310.58 Z" fill="#000000" fill-rule="nonzero" fill-opacity="1" /><path clip-path="url(#clip140)" d="M42.3863 1126.57 L40.3252 1126.57 Q40.3252 1118.65 36.1062 1114.56 Q36.1062 1113.43 36.3638 1113.24 Q36.6215 1113.04 37.8131 1113.04 L74.8176 1113.04 Q76.7822 1113.04 77.3941 1112.08 Q78.006 1111.11 78.006 1106.89 L78.006 1104.8 L80.035 1104.8 Q79.8418 1107.12 79.8418 1115.49 Q79.8418 1123.87 80.035 1126.15 L78.006 1126.15 L78.006 1124.06 Q78.006 1119.9 77.4263 1118.91 Q76.8144 1117.91 74.8176 1117.91 L40.6472 1117.91 Q42.3863 1121.35 42.3863 1126.57 Z" fill="#000000" fill-rule="nonzero" fill-opacity="1" /><path clip-path="url(#clip140)" d="M62.6116 1032.06 Q62.9981 1031.67 63.5456 1031.67 Q64.0931 1031.67 64.4796 1032.06 Q64.866 1032.45 64.866 1033 L64.866 1074.28 Q64.866 1074.83 64.4796 1075.22 Q64.0931 1075.6 63.5456 1075.6 Q62.9981 1075.6 62.6116 1075.22 Q62.2251 1074.83 62.2251 1074.28 L62.2251 1033 Q62.2251 1032.45 62.6116 1032.06 Z" fill="#000000" fill-rule="nonzero" fill-opacity="1" /><path clip-path="url(#clip140)" d="M94.4954 1006.49 L33.0788 1006.49 Q30.6312 1006.49 30.6312 1005.17 Q30.6312 1003.85 32.5958 1003.85 L94.0123 1003.85 Q96.46 1003.85 96.46 1005.17 Q96.46 1006.49 94.4954 1006.49 Z" fill="#000000" fill-rule="nonzero" fill-opacity="1" /><path clip-path="url(#clip140)" d="M95.2039 964.35 Q95.7514 964.35 96.1379 964.737 Q96.5244 965.123 96.5244 965.671 Q96.5244 966.605 95.6548 966.927 L63.9965 979.197 Q63.8676 979.261 63.5456 979.261 Q63.2235 979.261 63.0947 979.197 L31.4363 966.927 Q30.5668 966.605 30.5668 965.671 Q30.5668 965.123 30.9533 964.737 Q31.3397 964.35 31.8872 964.35 Q32.2093 964.35 32.3381 964.415 L63.5456 976.556 L94.7531 964.415 Q94.8819 964.35 95.2039 964.35 Z" fill="#000000" fill-rule="nonzero" fill-opacity="1" /><path clip-path="url(#clip140)" d="M36.9757 906.045 L48.3766 907.365 Q49.4072 907.462 49.7293 907.623 Q50.0191 907.784 50.0191 908.299 Q50.0191 908.685 49.7937 908.911 Q49.536 909.104 49.2462 909.104 Q49.0852 909.104 48.6665 909.072 Q48.2478 909.04 48.0546 909.04 Q46.0578 908.75 44.5441 908.75 Q41.7422 908.75 40.2285 909.587 Q38.6827 910.425 37.9741 912.582 Q37.2334 914.74 37.2334 918.798 L37.2334 928.073 Q37.2334 930.199 37.6199 930.714 Q38.0063 931.197 39.8099 931.648 L55.6874 935.61 L55.6874 929.394 Q55.6874 927.075 55.3975 925.69 Q55.1076 924.273 54.3025 923.339 Q53.4652 922.373 52.3379 921.858 Q51.2107 921.31 49.1818 920.763 Q48.5054 920.602 48.2478 920.441 Q47.9902 920.247 47.9902 919.829 Q47.9902 919.507 48.2156 919.281 Q48.4088 919.056 48.6987 919.056 L64.1253 922.824 Q64.8982 923.017 65.1881 923.21 Q65.4457 923.403 65.4457 923.79 Q65.4457 924.209 65.2203 924.434 Q64.9948 924.66 64.7372 924.66 Q64.4796 924.66 63.9965 924.466 Q61.9031 923.983 60.7759 923.983 Q60.1318 923.983 59.8097 924.048 Q59.4876 924.08 59.0368 924.37 Q58.5537 924.627 58.3282 925.207 Q58.1028 925.787 57.9418 926.882 Q57.7485 927.977 57.7485 929.619 L57.7485 936.125 L75.7516 940.634 Q76.9432 940.956 77.2653 940.956 Q77.6195 940.956 77.7484 940.795 Q77.845 940.601 77.9094 940.086 Q78.006 939.506 78.006 938.637 L78.006 929.007 Q78.006 926.882 77.8128 925.175 Q77.6195 923.468 77.1365 922.051 Q76.6534 920.602 76.1059 919.507 Q75.5584 918.412 74.56 917.381 Q73.5294 916.35 72.6276 915.642 Q71.6937 914.901 70.1156 914.032 Q68.5375 913.162 67.2493 912.55 Q65.9288 911.938 63.8032 911.004 Q63.0303 910.747 63.0303 910.135 Q63.0303 909.78 63.2235 909.587 Q63.3846 909.394 63.5456 909.362 L63.7388 909.362 Q64.3507 909.555 64.6728 909.684 L78.9078 915.738 Q79.7129 916.093 79.874 916.383 Q80.035 916.672 80.035 917.8 L80.035 952.035 Q80.035 952.807 80.0028 953.13 Q79.9706 953.419 79.8095 953.645 Q79.6163 953.87 79.2298 953.87 Q78.6179 953.87 78.3603 953.613 Q78.0704 953.355 78.0382 953.065 Q78.006 952.775 78.006 952.035 Q78.006 950.424 77.9094 949.458 Q77.8128 948.492 77.684 947.88 Q77.5229 947.236 77.072 946.914 Q76.6212 946.56 76.2347 946.398 Q75.816 946.237 74.882 946.012 L40.0031 937.316 Q38.8115 936.994 38.425 936.994 Q38.0063 936.994 37.7487 937.284 Q37.491 937.542 37.3944 938.25 Q37.2656 938.959 37.2656 939.539 Q37.2334 940.086 37.2334 941.278 Q37.2334 942.051 37.2012 942.373 Q37.169 942.663 37.008 942.888 Q36.8469 943.113 36.4927 943.113 Q35.5909 943.113 35.3977 942.727 Q35.1722 942.308 35.1722 941.149 L35.1722 907.848 Q35.1722 906.528 35.4621 906.238 Q35.7197 905.916 36.9757 906.045 Z" fill="#000000" fill-rule="nonzero" fill-opacity="1" /><path clip-path="url(#clip140)" d="M72.2659 899.346 L70.8231 899.346 Q70.8231 893.8 67.8698 890.937 Q67.8698 890.148 68.0502 890.013 Q68.2305 889.877 69.0647 889.877 L94.9678 889.877 Q96.343 889.877 96.7714 889.201 Q97.1997 888.525 97.1997 885.571 L97.1997 884.106 L98.62 884.106 Q98.4847 885.729 98.4847 891.591 Q98.4847 897.452 98.62 899.053 L97.1997 899.053 L97.1997 897.587 Q97.1997 894.679 96.7939 893.98 Q96.3656 893.282 94.9678 893.282 L71.0485 893.282 Q72.2659 895.694 72.2659 899.346 Z" fill="#000000" fill-rule="nonzero" fill-opacity="1" /><path clip-path="url(#clip140)" d="M91.1804 880.584 Q89.8052 880.584 89.2867 879.84 Q88.7457 879.097 88.7457 878.307 Q88.7457 877.248 89.422 876.639 Q90.0758 876.008 91.0001 876.008 Q91.9244 876.008 92.6007 876.639 Q93.2545 877.248 93.2545 878.307 Q93.2545 878.826 93.1643 879.097 Q95.2835 878.488 96.8165 876.639 Q98.3495 874.768 98.3495 872.311 Q98.3495 869.222 95.3511 867.374 Q93.4123 866.269 89.0162 866.269 Q85.1386 866.269 83.1998 867.103 Q80.2465 868.388 80.2465 871.026 Q80.2465 874.768 83.4703 876.977 Q83.8761 877.248 83.8987 877.564 Q83.8987 878.014 83.6507 878.127 Q83.3802 878.217 82.6813 878.217 L69.0196 878.217 Q67.9149 878.217 67.9149 877.766 Q67.9149 877.586 68.0502 877.203 Q69.3352 874.295 69.3577 871.071 Q69.3577 867.757 68.0051 864.781 Q67.8698 864.556 67.8698 864.42 Q67.8698 863.969 68.3883 863.947 Q68.5687 863.947 69.1098 864.33 Q69.6283 864.691 70.3271 865.48 Q71.0035 866.269 71.6572 867.283 Q72.311 868.298 72.7619 869.786 Q73.1902 871.251 73.1902 872.874 Q73.1902 874.813 72.5815 876.797 L81.5766 876.797 Q79.2321 874.407 79.2321 870.936 Q79.2321 867.238 82.2079 864.691 Q85.1837 862.143 89.3318 862.143 Q93.6828 862.143 96.6586 865.164 Q99.6345 868.163 99.6345 872.221 Q99.6345 875.918 96.9968 878.262 Q94.3592 880.584 91.1804 880.584 Z" fill="#000000" fill-rule="nonzero" fill-opacity="1" /><path clip-path="url(#clip140)" d="M91.0001 860.656 L89.5798 860.656 L67.9149 846.476 Q67.3513 846.115 67.3739 845.552 Q67.3739 845.033 67.5768 844.92 Q67.7797 844.808 68.5687 844.808 L89.5798 844.808 L89.5798 840.186 L91.0001 840.186 L91.0001 844.808 L95.0129 844.808 Q96.343 844.808 96.7714 844.267 Q97.1997 843.703 97.1997 841.313 L97.1997 840.344 L98.62 840.344 Q98.4847 842.238 98.4847 846.611 Q98.4847 850.962 98.62 852.856 L97.1997 852.856 L97.1997 851.886 Q97.1997 849.497 96.7939 848.933 Q96.3656 848.37 95.0129 848.37 L91.0001 848.37 L91.0001 860.656 M89.5798 859.349 L89.5798 848.099 L72.3561 848.099 L89.5798 859.349 Z" fill="#000000" fill-rule="nonzero" fill-opacity="1" /><path clip-path="url(#clip140)" d="M63.5456 830.751 Q52.4024 830.751 43.4169 826.597 Q39.6488 824.825 36.4927 822.346 Q33.3365 819.866 31.9516 818.223 Q30.5668 816.581 30.5668 816.13 Q30.5668 815.486 31.2109 815.453 Q31.533 815.453 32.3381 816.323 Q43.1593 826.951 63.5456 826.919 Q83.9963 826.919 94.3988 816.581 Q95.526 815.453 95.8803 815.453 Q96.5244 815.453 96.5244 816.13 Q96.5244 816.581 95.2039 818.159 Q93.8835 819.737 90.8562 822.184 Q87.8288 824.632 84.1251 826.403 Q75.1397 830.751 63.5456 830.751 Z" fill="#000000" fill-rule="nonzero" fill-opacity="1" /><path clip-path="url(#clip140)" d="M35.7197 762.364 Q37.0402 762.364 37.0402 763.459 Q37.1046 765.391 37.491 766.712 Q37.8453 768.032 38.5538 768.805 Q39.2624 769.546 40.0353 769.964 Q40.776 770.351 41.9032 770.608 L65.3169 776.47 Q71.9191 778.145 76.7178 783.555 Q81.4842 788.966 81.4842 795.117 Q81.4842 798.628 80.035 801.558 Q78.5857 804.457 75.655 806.26 Q72.7243 808.064 68.8273 808.064 Q66.9594 808.064 64.9948 807.581 L48.6987 803.587 L42.9016 802.106 Q38.6182 801.011 38.2318 801.011 Q37.6199 801.011 37.4588 801.397 Q37.2656 801.751 37.169 802.782 L37.0402 805.294 Q37.0402 806.067 37.008 806.389 Q36.9757 806.679 36.8147 806.904 Q36.6537 807.13 36.2994 807.13 Q35.8485 807.13 35.5587 807.033 Q35.2366 806.904 35.14 806.679 Q35.0434 806.454 35.0112 806.293 Q34.979 806.131 34.979 805.874 L35.1722 797.371 L34.979 788.934 Q34.979 788 35.7197 788 Q36.6537 788 36.8469 788.418 Q37.0402 788.837 37.0402 790.254 Q37.0402 792.669 37.3622 793.764 Q37.6521 794.827 38.1674 795.149 Q38.6505 795.439 40.0675 795.793 L65.7356 802.202 Q67.0238 802.524 68.3121 802.718 Q69.5681 802.879 70.2122 802.879 L70.8563 802.911 Q74.9465 802.911 77.2009 800.656 Q79.4553 798.37 79.4553 794.859 Q79.4553 789.706 75.3651 784.908 Q71.275 780.077 64.866 778.434 L41.3235 772.509 Q40.7438 772.315 39.9387 772.315 Q38.6505 772.315 37.8775 773.281 Q37.0724 774.215 37.0402 776.792 Q37.0402 777.984 36.2994 777.984 Q35.6875 777.984 35.3977 777.758 Q35.0756 777.5 35.0434 777.307 Q34.979 777.082 34.979 776.792 Q34.979 775.697 35.0756 773.378 Q35.1722 771.059 35.1722 769.932 Q35.1722 768.805 35.0756 766.55 Q34.979 764.296 34.979 763.201 Q34.979 762.815 35.1722 762.621 Q35.3333 762.396 35.5265 762.364 L35.7197 762.364 Z" fill="#000000" fill-rule="nonzero" fill-opacity="1" /><path clip-path="url(#clip140)" d="M95.8803 757.398 Q95.5582 757.398 94.7531 756.56 Q83.9319 745.932 63.5456 745.932 Q43.0949 745.932 32.7568 756.142 Q31.5652 757.398 31.2109 757.398 Q30.5668 757.398 30.5668 756.754 Q30.5668 756.303 31.8872 754.725 Q33.2077 753.114 36.235 750.699 Q39.2624 748.251 42.966 746.448 Q51.9515 742.1 63.5456 742.1 Q74.6888 742.1 83.6742 746.254 Q87.4423 748.026 90.5985 750.506 Q93.7547 752.986 95.1395 754.628 Q96.5244 756.271 96.5244 756.754 Q96.5244 757.398 95.8803 757.398 Z" fill="#000000" fill-rule="nonzero" fill-opacity="1" /><path clip-path="url(#clip140)" d="M94.4954 728.374 L33.0788 728.374 Q30.6312 728.374 30.6312 727.054 Q30.6312 725.733 32.5958 725.733 L94.0123 725.733 Q96.46 725.733 96.46 727.054 Q96.46 728.374 94.4954 728.374 Z" fill="#000000" fill-rule="nonzero" fill-opacity="1" /><path clip-path="url(#clip140)" d="M36.9757 653.323 L48.3766 654.644 Q49.4072 654.74 49.7293 654.901 Q50.0191 655.062 50.0191 655.578 Q50.0191 655.964 49.7937 656.19 Q49.536 656.383 49.2462 656.383 Q49.0852 656.383 48.6665 656.351 Q48.2478 656.318 48.0546 656.318 Q46.0578 656.029 44.5441 656.029 Q41.7422 656.029 40.2285 656.866 Q38.6827 657.703 37.9741 659.861 Q37.2334 662.019 37.2334 666.077 L37.2334 675.352 Q37.2334 677.478 37.6199 677.993 Q38.0063 678.476 39.8099 678.927 L55.6874 682.888 L55.6874 676.673 Q55.6874 674.354 55.3975 672.969 Q55.1076 671.552 54.3025 670.618 Q53.4652 669.652 52.3379 669.136 Q51.2107 668.589 49.1818 668.041 Q48.5054 667.88 48.2478 667.719 Q47.9902 667.526 47.9902 667.107 Q47.9902 666.785 48.2156 666.56 Q48.4088 666.334 48.6987 666.334 L64.1253 670.103 Q64.8982 670.296 65.1881 670.489 Q65.4457 670.682 65.4457 671.069 Q65.4457 671.487 65.2203 671.713 Q64.9948 671.938 64.7372 671.938 Q64.4796 671.938 63.9965 671.745 Q61.9031 671.262 60.7759 671.262 Q60.1318 671.262 59.8097 671.326 Q59.4876 671.359 59.0368 671.648 Q58.5537 671.906 58.3282 672.486 Q58.1028 673.065 57.9418 674.16 Q57.7485 675.255 57.7485 676.898 L57.7485 683.404 L75.7516 687.912 Q76.9432 688.234 77.2653 688.234 Q77.6195 688.234 77.7484 688.073 Q77.845 687.88 77.9094 687.365 Q78.006 686.785 78.006 685.916 L78.006 676.286 Q78.006 674.16 77.8128 672.454 Q77.6195 670.747 77.1365 669.33 Q76.6534 667.88 76.1059 666.785 Q75.5584 665.69 74.56 664.66 Q73.5294 663.629 72.6276 662.921 Q71.6937 662.18 70.1156 661.31 Q68.5375 660.441 67.2493 659.829 Q65.9288 659.217 63.8032 658.283 Q63.0303 658.025 63.0303 657.413 Q63.0303 657.059 63.2235 656.866 Q63.3846 656.673 63.5456 656.64 L63.7388 656.64 Q64.3507 656.834 64.6728 656.963 L78.9078 663.017 Q79.7129 663.371 79.874 663.661 Q80.035 663.951 80.035 665.078 L80.035 699.313 Q80.035 700.086 80.0028 700.408 Q79.9706 700.698 79.8095 700.924 Q79.6163 701.149 79.2298 701.149 Q78.6179 701.149 78.3603 700.891 Q78.0704 700.634 78.0382 700.344 Q78.006 700.054 78.006 699.313 Q78.006 697.703 77.9094 696.737 Q77.8128 695.771 77.684 695.159 Q77.5229 694.515 77.072 694.192 Q76.6212 693.838 76.2347 693.677 Q75.816 693.516 74.882 693.291 L40.0031 684.595 Q38.8115 684.273 38.425 684.273 Q38.0063 684.273 37.7487 684.563 Q37.491 684.821 37.3944 685.529 Q37.2656 686.238 37.2656 686.817 Q37.2334 687.365 37.2334 688.556 Q37.2334 689.329 37.2012 689.651 Q37.169 689.941 37.008 690.167 Q36.8469 690.392 36.4927 690.392 Q35.5909 690.392 35.3977 690.006 Q35.1722 689.587 35.1722 688.428 L35.1722 655.127 Q35.1722 653.806 35.4621 653.516 Q35.7197 653.194 36.9757 653.323 Z" fill="#000000" fill-rule="nonzero" fill-opacity="1" /><path clip-path="url(#clip140)" d="M98.3115 646.625 Q97.4774 646.625 97.2294 646.557 Q96.9814 646.467 96.5982 646.106 L86.7239 637.246 Q81.2682 632.399 76.5114 632.399 Q73.4229 632.399 71.2135 634.022 Q69.0042 635.623 69.0042 638.576 Q69.0042 640.605 70.2441 642.319 Q71.4841 644.032 73.6934 644.821 Q73.6483 644.686 73.6483 644.212 Q73.6483 643.063 74.3697 642.431 Q75.0911 641.778 76.0605 641.778 Q77.3004 641.778 77.9091 642.589 Q78.4953 643.378 78.4953 644.167 Q78.4953 644.483 78.4276 644.911 Q78.36 645.317 77.7288 645.971 Q77.075 646.625 75.9253 646.625 Q72.7014 646.625 70.1314 644.19 Q67.5614 641.733 67.5614 637.99 Q67.5614 633.752 70.0863 630.979 Q72.5887 628.184 76.5114 628.184 Q77.8866 628.184 79.1491 628.612 Q80.389 629.018 81.3584 629.581 Q82.3278 630.122 83.8833 631.61 Q85.4389 633.098 86.5435 634.293 Q87.6482 635.488 89.9928 638.171 L94.7496 643.063 L94.7496 634.744 Q94.7496 630.686 94.3889 630.37 Q93.7351 629.919 90.2858 629.356 L90.2858 628.184 L98.3115 629.491 L98.3115 646.625 Z" fill="#000000" fill-rule="nonzero" fill-opacity="1" /><path clip-path="url(#clip140)" d="M71.9575 624.537 L70.5147 624.537 Q70.5147 618.991 67.5614 616.128 Q67.5614 615.339 67.7417 615.203 Q67.9221 615.068 68.7562 615.068 L94.6594 615.068 Q96.0346 615.068 96.4629 614.392 Q96.8913 613.716 96.8913 610.762 L96.8913 609.297 L98.3115 609.297 Q98.1763 610.92 98.1763 616.782 Q98.1763 622.643 98.3115 624.244 L96.8913 624.244 L96.8913 622.778 Q96.8913 619.87 96.4855 619.171 Q96.0571 618.472 94.6594 618.472 L70.7401 618.472 Q71.9575 620.885 71.9575 624.537 Z" fill="#000000" fill-rule="nonzero" fill-opacity="1" /><path clip-path="url(#clip140)" d="M90.872 605.775 Q89.4968 605.775 88.9783 605.031 Q88.4372 604.287 88.4372 603.498 Q88.4372 602.439 89.1136 601.83 Q89.7673 601.199 90.6916 601.199 Q91.6159 601.199 92.2923 601.83 Q92.9461 602.439 92.9461 603.498 Q92.9461 604.017 92.8559 604.287 Q94.975 603.679 96.508 601.83 Q98.041 599.959 98.041 597.502 Q98.041 594.413 95.0427 592.564 Q93.1039 591.46 88.7078 591.46 Q84.8302 591.46 82.8914 592.294 Q79.9381 593.579 79.9381 596.217 Q79.9381 599.959 83.1619 602.168 Q83.5677 602.439 83.5902 602.754 Q83.5902 603.205 83.3423 603.318 Q83.0717 603.408 82.3729 603.408 L68.7111 603.408 Q67.6065 603.408 67.6065 602.957 Q67.6065 602.777 67.7417 602.394 Q69.0268 599.485 69.0493 596.262 Q69.0493 592.948 67.6967 589.972 Q67.5614 589.746 67.5614 589.611 Q67.5614 589.16 68.0799 589.138 Q68.2603 589.138 68.8013 589.521 Q69.3198 589.882 70.0187 590.671 Q70.695 591.46 71.3488 592.474 Q72.0026 593.489 72.4535 594.977 Q72.8818 596.442 72.8818 598.065 Q72.8818 600.004 72.2731 601.988 L81.2682 601.988 Q78.9236 599.598 78.9236 596.126 Q78.9236 592.429 81.8994 589.882 Q84.8753 587.334 89.0234 587.334 Q93.3744 587.334 96.3502 590.355 Q99.326 593.353 99.326 597.411 Q99.326 601.109 96.6884 603.453 Q94.0507 605.775 90.872 605.775 Z" fill="#000000" fill-rule="nonzero" fill-opacity="1" /><path clip-path="url(#clip140)" d="M63.5456 575.87 Q52.4024 575.87 43.4169 571.716 Q39.6488 569.945 36.4927 567.465 Q33.3365 564.985 31.9516 563.342 Q30.5668 561.7 30.5668 561.249 Q30.5668 560.605 31.2109 560.573 Q31.533 560.573 32.3381 561.442 Q43.1593 572.07 63.5456 572.038 Q83.9963 572.038 94.3988 561.7 Q95.526 560.573 95.8803 560.573 Q96.5244 560.573 96.5244 561.249 Q96.5244 561.7 95.2039 563.278 Q93.8835 564.856 90.8562 567.304 Q87.8288 569.751 84.1251 571.523 Q75.1397 575.87 63.5456 575.87 Z" fill="#000000" fill-rule="nonzero" fill-opacity="1" /><path clip-path="url(#clip140)" d="M35.7197 507.483 Q37.0402 507.483 37.0402 508.578 Q37.1046 510.51 37.491 511.831 Q37.8453 513.151 38.5538 513.924 Q39.2624 514.665 40.0353 515.084 Q40.776 515.47 41.9032 515.728 L65.3169 521.589 Q71.9191 523.264 76.7178 528.674 Q81.4842 534.085 81.4842 540.236 Q81.4842 543.747 80.035 546.677 Q78.5857 549.576 75.655 551.38 Q72.7243 553.183 68.8273 553.183 Q66.9594 553.183 64.9948 552.7 L48.6987 548.706 L42.9016 547.225 Q38.6182 546.13 38.2318 546.13 Q37.6199 546.13 37.4588 546.516 Q37.2656 546.871 37.169 547.901 L37.0402 550.413 Q37.0402 551.186 37.008 551.508 Q36.9757 551.798 36.8147 552.024 Q36.6537 552.249 36.2994 552.249 Q35.8485 552.249 35.5587 552.152 Q35.2366 552.024 35.14 551.798 Q35.0434 551.573 35.0112 551.412 Q34.979 551.251 34.979 550.993 L35.1722 542.491 L34.979 534.053 Q34.979 533.119 35.7197 533.119 Q36.6537 533.119 36.8469 533.537 Q37.0402 533.956 37.0402 535.373 Q37.0402 537.789 37.3622 538.884 Q37.6521 539.946 38.1674 540.268 Q38.6505 540.558 40.0675 540.913 L65.7356 547.322 Q67.0238 547.644 68.3121 547.837 Q69.5681 547.998 70.2122 547.998 L70.8563 548.03 Q74.9465 548.03 77.2009 545.776 Q79.4553 543.489 79.4553 539.979 Q79.4553 534.826 75.3651 530.027 Q71.275 525.196 64.866 523.554 L41.3235 517.628 Q40.7438 517.435 39.9387 517.435 Q38.6505 517.435 37.8775 518.401 Q37.0724 519.335 37.0402 521.911 Q37.0402 523.103 36.2994 523.103 Q35.6875 523.103 35.3977 522.877 Q35.0756 522.62 35.0434 522.426 Q34.979 522.201 34.979 521.911 Q34.979 520.816 35.0756 518.497 Q35.1722 516.179 35.1722 515.051 Q35.1722 513.924 35.0756 511.67 Q34.979 509.415 34.979 508.32 Q34.979 507.934 35.1722 507.741 Q35.3333 507.515 35.5265 507.483 L35.7197 507.483 Z" fill="#000000" fill-rule="nonzero" fill-opacity="1" /><path clip-path="url(#clip140)" d="M70.019 490.286 Q69.2138 490.222 69.2138 488.966 L69.2138 448.548 Q69.2138 446.647 69.9546 446.615 Q70.7597 446.615 70.7275 448.419 L70.7275 488.515 Q70.7597 490.286 70.019 490.286 M57.1366 490.286 Q56.3315 490.286 56.3637 488.901 L56.3637 448.612 Q56.3637 446.647 57.1366 446.615 Q57.8774 446.615 57.8774 448.29 L57.8774 488.966 Q57.8774 490.286 57.1366 490.286 Z" fill="#000000" fill-rule="nonzero" fill-opacity="1" /><path clip-path="url(#clip140)" d="M58.9401 421.169 Q49.2462 421.169 43.9644 418.722 Q36.1062 415.308 36.1062 407.256 Q36.1062 405.55 36.5893 403.778 Q37.0402 401.975 38.8115 399.72 Q40.5828 397.434 43.4813 396.049 Q49.0852 393.408 58.9401 393.408 Q68.5697 393.408 73.8193 395.856 Q81.4842 399.43 81.4842 407.321 Q81.4842 410.284 79.9706 413.311 Q78.4569 416.306 74.8176 418.206 Q69.3748 421.169 58.9401 421.169 M58.135 415.694 Q68.0866 415.694 72.0479 414.986 Q76.3313 414.181 78.1993 411.991 Q80.035 409.769 80.035 407.321 Q80.035 404.68 78.0704 402.49 Q76.0737 400.268 71.7903 399.591 Q67.5713 398.851 58.135 398.883 Q48.9563 398.883 45.2849 399.527 Q41.0015 400.397 39.2946 402.715 Q37.5555 405.002 37.5555 407.321 Q37.5555 408.19 37.8131 409.124 Q38.0707 410.026 38.8115 411.347 Q39.5522 412.667 41.388 413.698 Q43.2237 414.696 45.9934 415.179 Q49.5682 415.694 58.135 415.694 Z" fill="#000000" fill-rule="nonzero" fill-opacity="1" /><path clip-path="url(#clip140)" d="M95.8803 386.921 Q95.5582 386.921 94.7531 386.084 Q83.9319 375.456 63.5456 375.456 Q43.0949 375.456 32.7568 385.665 Q31.5652 386.921 31.2109 386.921 Q30.5668 386.921 30.5668 386.277 Q30.5668 385.826 31.8872 384.248 Q33.2077 382.638 36.235 380.223 Q39.2624 377.775 42.966 375.971 Q51.9515 371.624 63.5456 371.624 Q74.6888 371.624 83.6742 375.778 Q87.4423 377.549 90.5985 380.029 Q93.7547 382.509 95.1395 384.152 Q96.5244 385.794 96.5244 386.277 Q96.5244 386.921 95.8803 386.921 Z" fill="#000000" fill-rule="nonzero" fill-opacity="1" /><path clip-path="url(#clip140)" d="M63.0947 346.779 Q63.2235 346.715 63.5456 346.715 Q63.8676 346.715 63.9965 346.779 L95.6548 359.05 Q96.5244 359.372 96.5244 360.274 Q96.5244 360.821 96.1379 361.207 Q95.7514 361.594 95.2039 361.594 Q94.8819 361.594 94.7531 361.53 L63.5456 349.42 L32.3381 361.53 Q32.2093 361.594 31.8872 361.594 Q31.3397 361.594 30.9533 361.207 Q30.5668 360.821 30.5668 360.274 Q30.5668 359.372 31.4363 359.05 L63.0947 346.779 Z" fill="#000000" fill-rule="nonzero" fill-opacity="1" /><path clip-path="url(#clip140)" d="M94.4954 336.203 L33.0788 336.203 Q30.6312 336.203 30.6312 334.882 Q30.6312 333.562 32.5958 333.562 L94.0123 333.562 Q96.46 333.562 96.46 334.882 Q96.46 336.203 94.4954 336.203 Z" fill="#000000" fill-rule="nonzero" fill-opacity="1" /><path clip-path="url(#clip140)" d="M40.2358 326.553 Q39.4016 326.553 39.1536 326.486 Q38.9057 326.396 38.5224 326.035 L28.6481 317.175 Q23.1924 312.328 18.4356 312.328 Q15.3471 312.328 13.1378 313.951 Q10.9284 315.552 10.9284 318.505 Q10.9284 320.534 12.1684 322.247 Q13.4083 323.961 15.6176 324.75 Q15.5725 324.615 15.5725 324.141 Q15.5725 322.991 16.2939 322.36 Q17.0153 321.706 17.9847 321.706 Q19.2247 321.706 19.8334 322.518 Q20.4195 323.307 20.4195 324.096 Q20.4195 324.412 20.3519 324.84 Q20.2842 325.246 19.653 325.9 Q18.9992 326.553 17.8495 326.553 Q14.6257 326.553 12.0556 324.119 Q9.48561 321.661 9.48561 317.919 Q9.48561 313.681 12.0105 310.908 Q14.5129 308.112 18.4356 308.112 Q19.8108 308.112 21.0733 308.541 Q22.3132 308.946 23.2826 309.51 Q24.252 310.051 25.8075 311.539 Q27.3631 313.027 28.4677 314.222 Q29.5724 315.417 31.917 318.099 L36.6738 322.991 L36.6738 314.673 Q36.6738 310.615 36.3131 310.299 Q35.6593 309.848 32.2101 309.285 L32.2101 308.112 L40.2358 309.42 L40.2358 326.553 Z" fill="#000000" fill-rule="nonzero" fill-opacity="1" /><circle clip-path="url(#clip142)" cx="338.753" cy="1342.85" r="14.4" fill="#009af9" fill-rule="evenodd" fill-opacity="1" stroke="#000000" stroke-opacity="1" stroke-width="3.2"/>
<circle clip-path="url(#clip142)" cx="340.581" cy="1342.85" r="14.4" fill="#009af9" fill-rule="evenodd" fill-opacity="1" stroke="#000000" stroke-opacity="1" stroke-width="3.2"/>
<circle clip-path="url(#clip142)" cx="2292.79" cy="1342.85" r="14.4" fill="#009af9" fill-rule="evenodd" fill-opacity="1" stroke="#000000" stroke-opacity="1" stroke-width="3.2"/>
<circle clip-path="url(#clip142)" cx="380.42" cy="1342.85" r="14.4" fill="#009af9" fill-rule="evenodd" fill-opacity="1" stroke="#000000" stroke-opacity="1" stroke-width="3.2"/>
<circle clip-path="url(#clip142)" cx="341.395" cy="1342.85" r="14.4" fill="#009af9" fill-rule="evenodd" fill-opacity="1" stroke="#000000" stroke-opacity="1" stroke-width="3.2"/>
<circle clip-path="url(#clip142)" cx="371.621" cy="1342.85" r="14.4" fill="#009af9" fill-rule="evenodd" fill-opacity="1" stroke="#000000" stroke-opacity="1" stroke-width="3.2"/>
<circle clip-path="url(#clip142)" cx="448.595" cy="1342.85" r="14.4" fill="#009af9" fill-rule="evenodd" fill-opacity="1" stroke="#000000" stroke-opacity="1" stroke-width="3.2"/>
<circle clip-path="url(#clip142)" cx="313.529" cy="1342.85" r="14.4" fill="#009af9" fill-rule="evenodd" fill-opacity="1" stroke="#000000" stroke-opacity="1" stroke-width="3.2"/>
<circle clip-path="url(#clip142)" cx="497.883" cy="1342.85" r="14.4" fill="#009af9" fill-rule="evenodd" fill-opacity="1" stroke="#000000" stroke-opacity="1" stroke-width="3.2"/>
<circle clip-path="url(#clip142)" cx="372.041" cy="1342.85" r="14.4" fill="#009af9" fill-rule="evenodd" fill-opacity="1" stroke="#000000" stroke-opacity="1" stroke-width="3.2"/>
<circle clip-path="url(#clip142)" cx="498.493" cy="1342.85" r="14.4" fill="#009af9" fill-rule="evenodd" fill-opacity="1" stroke="#000000" stroke-opacity="1" stroke-width="3.2"/>
<circle clip-path="url(#clip142)" cx="551.139" cy="1342.85" r="14.4" fill="#009af9" fill-rule="evenodd" fill-opacity="1" stroke="#000000" stroke-opacity="1" stroke-width="3.2"/>
<circle clip-path="url(#clip142)" cx="370.382" cy="1342.85" r="14.4" fill="#009af9" fill-rule="evenodd" fill-opacity="1" stroke="#000000" stroke-opacity="1" stroke-width="3.2"/>
<circle clip-path="url(#clip142)" cx="359.641" cy="1342.85" r="14.4" fill="#009af9" fill-rule="evenodd" fill-opacity="1" stroke="#000000" stroke-opacity="1" stroke-width="3.2"/>
<circle clip-path="url(#clip142)" cx="293.982" cy="1342.85" r="14.4" fill="#009af9" fill-rule="evenodd" fill-opacity="1" stroke="#000000" stroke-opacity="1" stroke-width="3.2"/>
<circle clip-path="url(#clip142)" cx="339.929" cy="1342.85" r="14.4" fill="#009af9" fill-rule="evenodd" fill-opacity="1" stroke="#000000" stroke-opacity="1" stroke-width="3.2"/>
<circle clip-path="url(#clip142)" cx="530.094" cy="1342.85" r="14.4" fill="#009af9" fill-rule="evenodd" fill-opacity="1" stroke="#000000" stroke-opacity="1" stroke-width="3.2"/>
<circle clip-path="url(#clip142)" cx="360.63" cy="1342.85" r="14.4" fill="#009af9" fill-rule="evenodd" fill-opacity="1" stroke="#000000" stroke-opacity="1" stroke-width="3.2"/>
<circle clip-path="url(#clip142)" cx="361.935" cy="1342.85" r="14.4" fill="#009af9" fill-rule="evenodd" fill-opacity="1" stroke="#000000" stroke-opacity="1" stroke-width="3.2"/>
<circle clip-path="url(#clip142)" cx="452.755" cy="1342.85" r="14.4" fill="#009af9" fill-rule="evenodd" fill-opacity="1" stroke="#000000" stroke-opacity="1" stroke-width="3.2"/>
<circle clip-path="url(#clip142)" cx="364.817" cy="1342.85" r="14.4" fill="#009af9" fill-rule="evenodd" fill-opacity="1" stroke="#000000" stroke-opacity="1" stroke-width="3.2"/>
<circle clip-path="url(#clip142)" cx="340.875" cy="1342.85" r="14.4" fill="#009af9" fill-rule="evenodd" fill-opacity="1" stroke="#000000" stroke-opacity="1" stroke-width="3.2"/>
<circle clip-path="url(#clip142)" cx="1329.42" cy="1342.85" r="14.4" fill="#009af9" fill-rule="evenodd" fill-opacity="1" stroke="#000000" stroke-opacity="1" stroke-width="3.2"/>
<circle clip-path="url(#clip142)" cx="357.648" cy="1342.85" r="14.4" fill="#009af9" fill-rule="evenodd" fill-opacity="1" stroke="#000000" stroke-opacity="1" stroke-width="3.2"/>
<circle clip-path="url(#clip142)" cx="340.627" cy="1342.85" r="14.4" fill="#009af9" fill-rule="evenodd" fill-opacity="1" stroke="#000000" stroke-opacity="1" stroke-width="3.2"/>
<circle clip-path="url(#clip142)" cx="300.836" cy="1342.85" r="14.4" fill="#009af9" fill-rule="evenodd" fill-opacity="1" stroke="#000000" stroke-opacity="1" stroke-width="3.2"/>
<circle clip-path="url(#clip142)" cx="379.565" cy="1342.85" r="14.4" fill="#009af9" fill-rule="evenodd" fill-opacity="1" stroke="#000000" stroke-opacity="1" stroke-width="3.2"/>
<circle clip-path="url(#clip142)" cx="346.353" cy="1342.85" r="14.4" fill="#009af9" fill-rule="evenodd" fill-opacity="1" stroke="#000000" stroke-opacity="1" stroke-width="3.2"/>
<circle clip-path="url(#clip142)" cx="389.93" cy="1342.85" r="14.4" fill="#009af9" fill-rule="evenodd" fill-opacity="1" stroke="#000000" stroke-opacity="1" stroke-width="3.2"/>
<circle clip-path="url(#clip142)" cx="669.364" cy="1342.85" r="14.4" fill="#009af9" fill-rule="evenodd" fill-opacity="1" stroke="#000000" stroke-opacity="1" stroke-width="3.2"/>
<circle clip-path="url(#clip142)" cx="1350.27" cy="1342.85" r="14.4" fill="#009af9" fill-rule="evenodd" fill-opacity="1" stroke="#000000" stroke-opacity="1" stroke-width="3.2"/>
<circle clip-path="url(#clip142)" cx="1658.44" cy="1342.85" r="14.4" fill="#009af9" fill-rule="evenodd" fill-opacity="1" stroke="#000000" stroke-opacity="1" stroke-width="3.2"/>
<circle clip-path="url(#clip142)" cx="314.468" cy="1342.85" r="14.4" fill="#009af9" fill-rule="evenodd" fill-opacity="1" stroke="#000000" stroke-opacity="1" stroke-width="3.2"/>
<circle clip-path="url(#clip142)" cx="410.16" cy="1342.85" r="14.4" fill="#009af9" fill-rule="evenodd" fill-opacity="1" stroke="#000000" stroke-opacity="1" stroke-width="3.2"/>
<circle clip-path="url(#clip142)" cx="1324.9" cy="1342.85" r="14.4" fill="#009af9" fill-rule="evenodd" fill-opacity="1" stroke="#000000" stroke-opacity="1" stroke-width="3.2"/>
</svg>
