<?xml version="1.0" encoding="utf-8"?>
<svg xmlns="http://www.w3.org/2000/svg" xmlns:xlink="http://www.w3.org/1999/xlink" width="600" height="400" viewBox="0 0 2400 1600">
<defs>
  <clipPath id="clip620">
    <rect x="0" y="0" width="2400" height="1600"/>
  </clipPath>
</defs>
<path clip-path="url(#clip620)" d="M0 1600 L2400 1600 L2400 0 L0 0  Z" fill="#ffffff" fill-rule="evenodd" fill-opacity="1"/>
<defs>
  <clipPath id="clip621">
    <rect x="480" y="0" width="1681" height="1600"/>
  </clipPath>
</defs>
<path clip-path="url(#clip620)" d="M264.474 1380.58 L2352.76 1380.58 L2352.76 47.2441 L264.474 47.2441  Z" fill="#ffffff" fill-rule="evenodd" fill-opacity="1"/>
<defs>
  <clipPath id="clip622">
    <rect x="264" y="47" width="2089" height="1334"/>
  </clipPath>
</defs>
<polyline clip-path="url(#clip622)" style="stroke:#000000; stroke-linecap:round; stroke-linejoin:round; stroke-width:2; stroke-opacity:0.1; fill:none" points="416.764,1380.58 416.764,47.2441 "/>
<polyline clip-path="url(#clip622)" style="stroke:#000000; stroke-linecap:round; stroke-linejoin:round; stroke-width:2; stroke-opacity:0.1; fill:none" points="865.206,1380.58 865.206,47.2441 "/>
<polyline clip-path="url(#clip622)" style="stroke:#000000; stroke-linecap:round; stroke-linejoin:round; stroke-width:2; stroke-opacity:0.1; fill:none" points="1313.65,1380.58 1313.65,47.2441 "/>
<polyline clip-path="url(#clip622)" style="stroke:#000000; stroke-linecap:round; stroke-linejoin:round; stroke-width:2; stroke-opacity:0.1; fill:none" points="1762.09,1380.58 1762.09,47.2441 "/>
<polyline clip-path="url(#clip622)" style="stroke:#000000; stroke-linecap:round; stroke-linejoin:round; stroke-width:2; stroke-opacity:0.1; fill:none" points="2210.53,1380.58 2210.53,47.2441 "/>
<polyline clip-path="url(#clip622)" style="stroke:#000000; stroke-linecap:round; stroke-linejoin:round; stroke-width:2; stroke-opacity:0.1; fill:none" points="264.474,1217.28 2352.76,1217.28 "/>
<polyline clip-path="url(#clip622)" style="stroke:#000000; stroke-linecap:round; stroke-linejoin:round; stroke-width:2; stroke-opacity:0.1; fill:none" points="264.474,1045.62 2352.76,1045.62 "/>
<polyline clip-path="url(#clip622)" style="stroke:#000000; stroke-linecap:round; stroke-linejoin:round; stroke-width:2; stroke-opacity:0.1; fill:none" points="264.474,873.971 2352.76,873.971 "/>
<polyline clip-path="url(#clip622)" style="stroke:#000000; stroke-linecap:round; stroke-linejoin:round; stroke-width:2; stroke-opacity:0.1; fill:none" points="264.474,702.319 2352.76,702.319 "/>
<polyline clip-path="url(#clip622)" style="stroke:#000000; stroke-linecap:round; stroke-linejoin:round; stroke-width:2; stroke-opacity:0.1; fill:none" points="264.474,530.667 2352.76,530.667 "/>
<polyline clip-path="url(#clip622)" style="stroke:#000000; stroke-linecap:round; stroke-linejoin:round; stroke-width:2; stroke-opacity:0.1; fill:none" points="264.474,359.014 2352.76,359.014 "/>
<polyline clip-path="url(#clip622)" style="stroke:#000000; stroke-linecap:round; stroke-linejoin:round; stroke-width:2; stroke-opacity:0.1; fill:none" points="264.474,187.362 2352.76,187.362 "/>
<polyline clip-path="url(#clip620)" style="stroke:#000000; stroke-linecap:round; stroke-linejoin:round; stroke-width:4; stroke-opacity:1; fill:none" points="264.474,1380.58 2352.76,1380.58 "/>
<polyline clip-path="url(#clip620)" style="stroke:#000000; stroke-linecap:round; stroke-linejoin:round; stroke-width:4; stroke-opacity:1; fill:none" points="416.764,1380.58 416.764,1361.69 "/>
<polyline clip-path="url(#clip620)" style="stroke:#000000; stroke-linecap:round; stroke-linejoin:round; stroke-width:4; stroke-opacity:1; fill:none" points="865.206,1380.58 865.206,1361.69 "/>
<polyline clip-path="url(#clip620)" style="stroke:#000000; stroke-linecap:round; stroke-linejoin:round; stroke-width:4; stroke-opacity:1; fill:none" points="1313.65,1380.58 1313.65,1361.69 "/>
<polyline clip-path="url(#clip620)" style="stroke:#000000; stroke-linecap:round; stroke-linejoin:round; stroke-width:4; stroke-opacity:1; fill:none" points="1762.09,1380.58 1762.09,1361.69 "/>
<polyline clip-path="url(#clip620)" style="stroke:#000000; stroke-linecap:round; stroke-linejoin:round; stroke-width:4; stroke-opacity:1; fill:none" points="2210.53,1380.58 2210.53,1361.69 "/>
<path clip-path="url(#clip620)" d="M366.879 1454.71 L374.518 1454.71 L374.518 1428.34 L366.208 1430.01 L366.208 1425.75 L374.472 1424.08 L379.148 1424.08 L379.148 1454.71 L386.787 1454.71 L386.787 1458.64 L366.879 1458.64 L366.879 1454.71 Z" fill="#000000" fill-rule="nonzero" fill-opacity="1" /><path clip-path="url(#clip620)" d="M406.231 1427.16 Q402.62 1427.16 400.791 1430.73 Q398.986 1434.27 398.986 1441.4 Q398.986 1448.51 400.791 1452.07 Q402.62 1455.61 406.231 1455.61 Q409.865 1455.61 411.671 1452.07 Q413.499 1448.51 413.499 1441.4 Q413.499 1434.27 411.671 1430.73 Q409.865 1427.16 406.231 1427.16 M406.231 1423.46 Q412.041 1423.46 415.097 1428.07 Q418.175 1432.65 418.175 1441.4 Q418.175 1450.13 415.097 1454.73 Q412.041 1459.32 406.231 1459.32 Q400.421 1459.32 397.342 1454.73 Q394.287 1450.13 394.287 1441.4 Q394.287 1432.65 397.342 1428.07 Q400.421 1423.46 406.231 1423.46 Z" fill="#000000" fill-rule="nonzero" fill-opacity="1" /><path clip-path="url(#clip620)" d="M418.175 1417.56 L442.287 1417.56 L442.287 1420.76 L418.175 1420.76 L418.175 1417.56 Z" fill="#000000" fill-rule="nonzero" fill-opacity="1" /><path clip-path="url(#clip620)" d="M451.145 1428.04 L457.352 1428.04 L457.352 1406.62 L450.6 1407.97 L450.6 1404.51 L457.314 1403.15 L461.113 1403.15 L461.113 1428.04 L467.32 1428.04 L467.32 1431.23 L451.145 1431.23 L451.145 1428.04 Z" fill="#000000" fill-rule="nonzero" fill-opacity="1" /><path clip-path="url(#clip620)" d="M830.189 1454.71 L837.828 1454.71 L837.828 1428.34 L829.517 1430.01 L829.517 1425.75 L837.781 1424.08 L842.457 1424.08 L842.457 1454.71 L850.096 1454.71 L850.096 1458.64 L830.189 1458.64 L830.189 1454.71 Z" fill="#000000" fill-rule="nonzero" fill-opacity="1" /><path clip-path="url(#clip620)" d="M869.54 1427.16 Q865.929 1427.16 864.101 1430.73 Q862.295 1434.27 862.295 1441.4 Q862.295 1448.51 864.101 1452.07 Q865.929 1455.61 869.54 1455.61 Q873.175 1455.61 874.98 1452.07 Q876.809 1448.51 876.809 1441.4 Q876.809 1434.27 874.98 1430.73 Q873.175 1427.16 869.54 1427.16 M869.54 1423.46 Q875.351 1423.46 878.406 1428.07 Q881.485 1432.65 881.485 1441.4 Q881.485 1450.13 878.406 1454.73 Q875.351 1459.32 869.54 1459.32 Q863.73 1459.32 860.652 1454.73 Q857.596 1450.13 857.596 1441.4 Q857.596 1432.65 860.652 1428.07 Q863.73 1423.46 869.54 1423.46 Z" fill="#000000" fill-rule="nonzero" fill-opacity="1" /><path clip-path="url(#clip620)" d="M891.19 1405.66 Q888.256 1405.66 886.77 1408.55 Q885.303 1411.43 885.303 1417.22 Q885.303 1423 886.77 1425.89 Q888.256 1428.77 891.19 1428.77 Q894.142 1428.77 895.609 1425.89 Q897.095 1423 897.095 1417.22 Q897.095 1411.43 895.609 1408.55 Q894.142 1405.66 891.19 1405.66 M891.19 1402.65 Q895.91 1402.65 898.393 1406.39 Q900.894 1410.11 900.894 1417.22 Q900.894 1424.31 898.393 1428.06 Q895.91 1431.78 891.19 1431.78 Q886.469 1431.78 883.967 1428.06 Q881.485 1424.31 881.485 1417.22 Q881.485 1410.11 883.967 1406.39 Q886.469 1402.65 891.19 1402.65 Z" fill="#000000" fill-rule="nonzero" fill-opacity="1" /><path clip-path="url(#clip620)" d="M1279.98 1454.71 L1287.61 1454.71 L1287.61 1428.34 L1279.3 1430.01 L1279.3 1425.75 L1287.57 1424.08 L1292.24 1424.08 L1292.24 1454.71 L1299.88 1454.71 L1299.88 1458.64 L1279.98 1458.64 L1279.98 1454.71 Z" fill="#000000" fill-rule="nonzero" fill-opacity="1" /><path clip-path="url(#clip620)" d="M1319.33 1427.16 Q1315.72 1427.16 1313.89 1430.73 Q1312.08 1434.27 1312.08 1441.4 Q1312.08 1448.51 1313.89 1452.07 Q1315.72 1455.61 1319.33 1455.61 Q1322.96 1455.61 1324.77 1452.07 Q1326.6 1448.51 1326.6 1441.4 Q1326.6 1434.27 1324.77 1430.73 Q1322.96 1427.16 1319.33 1427.16 M1319.33 1423.46 Q1325.14 1423.46 1328.19 1428.07 Q1331.27 1432.65 1331.27 1441.4 Q1331.27 1450.13 1328.19 1454.73 Q1325.14 1459.32 1319.33 1459.32 Q1313.52 1459.32 1310.44 1454.73 Q1307.38 1450.13 1307.38 1441.4 Q1307.38 1432.65 1310.44 1428.07 Q1313.52 1423.46 1319.33 1423.46 Z" fill="#000000" fill-rule="nonzero" fill-opacity="1" /><path clip-path="url(#clip620)" d="M1331.82 1428.04 L1338.02 1428.04 L1338.02 1406.62 L1331.27 1407.97 L1331.27 1404.51 L1337.99 1403.15 L1341.79 1403.15 L1341.79 1428.04 L1347.99 1428.04 L1347.99 1431.23 L1331.82 1431.23 L1331.82 1428.04 Z" fill="#000000" fill-rule="nonzero" fill-opacity="1" /><path clip-path="url(#clip620)" d="M1727.86 1454.71 L1735.5 1454.71 L1735.5 1428.34 L1727.19 1430.01 L1727.19 1425.75 L1735.46 1424.08 L1740.13 1424.08 L1740.13 1454.71 L1747.77 1454.71 L1747.77 1458.64 L1727.86 1458.64 L1727.86 1454.71 Z" fill="#000000" fill-rule="nonzero" fill-opacity="1" /><path clip-path="url(#clip620)" d="M1767.21 1427.16 Q1763.6 1427.16 1761.77 1430.73 Q1759.97 1434.27 1759.97 1441.4 Q1759.97 1448.51 1761.77 1452.07 Q1763.6 1455.61 1767.21 1455.61 Q1770.85 1455.61 1772.65 1452.07 Q1774.48 1448.51 1774.48 1441.4 Q1774.48 1434.27 1772.65 1430.73 Q1770.85 1427.16 1767.21 1427.16 M1767.21 1423.46 Q1773.02 1423.46 1776.08 1428.07 Q1779.16 1432.65 1779.16 1441.4 Q1779.16 1450.13 1776.08 1454.73 Q1773.02 1459.32 1767.21 1459.32 Q1761.4 1459.32 1758.33 1454.73 Q1755.27 1450.13 1755.27 1441.4 Q1755.27 1432.65 1758.33 1428.07 Q1761.4 1423.46 1767.21 1423.46 Z" fill="#000000" fill-rule="nonzero" fill-opacity="1" /><path clip-path="url(#clip620)" d="M1783.73 1428.04 L1796.99 1428.04 L1796.99 1431.23 L1779.16 1431.23 L1779.16 1428.04 Q1781.32 1425.8 1785.05 1422.04 Q1788.79 1418.26 1789.75 1417.17 Q1791.57 1415.12 1792.29 1413.71 Q1793.02 1412.28 1793.02 1410.9 Q1793.02 1408.67 1791.44 1407.25 Q1789.88 1405.84 1787.36 1405.84 Q1785.57 1405.84 1783.58 1406.46 Q1781.6 1407.09 1779.35 1408.35 L1779.35 1404.51 Q1781.64 1403.59 1783.63 1403.12 Q1785.63 1402.65 1787.28 1402.65 Q1791.65 1402.65 1794.24 1404.83 Q1796.84 1407.01 1796.84 1410.66 Q1796.84 1412.39 1796.18 1413.95 Q1795.54 1415.49 1793.83 1417.6 Q1793.36 1418.14 1790.84 1420.76 Q1788.32 1423.35 1783.73 1428.04 Z" fill="#000000" fill-rule="nonzero" fill-opacity="1" /><path clip-path="url(#clip620)" d="M2175.98 1454.71 L2183.61 1454.71 L2183.61 1428.34 L2175.3 1430.01 L2175.3 1425.75 L2183.57 1424.08 L2188.24 1424.08 L2188.24 1454.71 L2195.88 1454.71 L2195.88 1458.64 L2175.98 1458.64 L2175.98 1454.71 Z" fill="#000000" fill-rule="nonzero" fill-opacity="1" /><path clip-path="url(#clip620)" d="M2215.33 1427.16 Q2211.72 1427.16 2209.89 1430.73 Q2208.08 1434.27 2208.08 1441.4 Q2208.08 1448.51 2209.89 1452.07 Q2211.72 1455.61 2215.33 1455.61 Q2218.96 1455.61 2220.77 1452.07 Q2222.6 1448.51 2222.6 1441.4 Q2222.6 1434.27 2220.77 1430.73 Q2218.96 1427.16 2215.33 1427.16 M2215.33 1423.46 Q2221.14 1423.46 2224.19 1428.07 Q2227.27 1432.65 2227.27 1441.4 Q2227.27 1450.13 2224.19 1454.73 Q2221.14 1459.32 2215.33 1459.32 Q2209.52 1459.32 2206.44 1454.73 Q2203.38 1450.13 2203.38 1441.4 Q2203.38 1432.65 2206.44 1428.07 Q2209.52 1423.46 2215.33 1423.46 Z" fill="#000000" fill-rule="nonzero" fill-opacity="1" /><path clip-path="url(#clip620)" d="M2239.97 1416.09 Q2242.69 1416.68 2244.22 1418.52 Q2245.76 1420.36 2245.76 1423.07 Q2245.76 1427.23 2242.9 1429.5 Q2240.04 1431.78 2234.78 1431.78 Q2233.01 1431.78 2231.13 1431.42 Q2229.27 1431.08 2227.27 1430.39 L2227.27 1426.72 Q2228.85 1427.64 2230.73 1428.11 Q2232.61 1428.58 2234.66 1428.58 Q2238.24 1428.58 2240.1 1427.17 Q2241.98 1425.76 2241.98 1423.07 Q2241.98 1420.59 2240.23 1419.2 Q2238.5 1417.79 2235.4 1417.79 L2232.12 1417.79 L2232.12 1414.66 L2235.55 1414.66 Q2238.35 1414.66 2239.83 1413.56 Q2241.32 1412.43 2241.32 1410.32 Q2241.32 1408.16 2239.78 1407.01 Q2238.26 1405.84 2235.4 1405.84 Q2233.84 1405.84 2232.05 1406.18 Q2230.26 1406.52 2228.12 1407.24 L2228.12 1403.85 Q2230.28 1403.25 2232.16 1402.95 Q2234.06 1402.65 2235.73 1402.65 Q2240.06 1402.65 2242.58 1404.62 Q2245.1 1406.58 2245.1 1409.93 Q2245.1 1412.26 2243.77 1413.88 Q2242.43 1415.47 2239.97 1416.09 Z" fill="#000000" fill-rule="nonzero" fill-opacity="1" /><path clip-path="url(#clip620)" d="M1214.92 1571.84 L1214.92 1509.94 Q1214.92 1507.98 1216.24 1507.98 Q1217.56 1507.98 1217.56 1510.04 L1217.56 1571.68 Q1217.56 1573.81 1216.24 1573.81 Q1214.92 1573.81 1214.92 1571.84 M1222.2 1571.84 L1222.2 1510.42 Q1222.2 1507.98 1223.52 1507.98 Q1224.84 1507.98 1224.84 1510.04 L1224.84 1571.68 Q1224.84 1573.81 1223.52 1573.81 Q1222.2 1573.81 1222.2 1571.84 Z" fill="#000000" fill-rule="nonzero" fill-opacity="1" /><path clip-path="url(#clip620)" d="M1292.83 1556.06 Q1292.83 1556.67 1292.58 1556.99 Q1292.35 1557.28 1292.13 1557.35 Q1291.93 1557.38 1291.64 1557.38 Q1290.81 1557.38 1287.91 1557.28 Q1285.01 1557.19 1284.17 1557.19 Q1282.82 1557.19 1280.05 1557.28 Q1277.28 1557.38 1275.93 1557.38 Q1275.02 1557.38 1275.02 1556.64 Q1275.02 1556.16 1275.12 1555.9 Q1275.22 1555.61 1275.48 1555.51 Q1275.77 1555.38 1275.93 1555.38 Q1276.12 1555.35 1276.6 1555.35 Q1277.25 1555.35 1277.92 1555.29 Q1278.6 1555.19 1279.44 1555 Q1280.27 1554.8 1280.79 1554.32 Q1281.34 1553.84 1281.34 1553.16 Q1281.34 1552.87 1281.11 1550.49 Q1280.89 1548.11 1280.6 1545.34 Q1280.31 1542.53 1280.27 1542.15 L1263.72 1542.15 Q1262.21 1544.76 1261.14 1546.56 Q1260.08 1548.36 1259.69 1548.97 Q1259.31 1549.59 1259.08 1549.97 Q1258.86 1550.36 1258.73 1550.58 Q1257.79 1552.29 1257.79 1553.03 Q1257.79 1555.09 1260.89 1555.35 Q1261.95 1555.35 1261.95 1556.12 Q1261.95 1556.7 1261.69 1557.03 Q1261.43 1557.32 1261.21 1557.35 Q1261.02 1557.38 1260.69 1557.38 Q1259.63 1557.38 1257.41 1557.28 Q1255.19 1557.19 1254.09 1557.19 Q1253.16 1557.19 1251.22 1557.28 Q1249.29 1557.38 1248.42 1557.38 Q1248.04 1557.38 1247.81 1557.15 Q1247.59 1556.93 1247.59 1556.64 Q1247.59 1556.19 1247.65 1555.93 Q1247.75 1555.67 1248 1555.54 Q1248.26 1555.42 1248.39 1555.42 Q1248.52 1555.38 1248.97 1555.35 Q1251.42 1555.19 1253.32 1554.03 Q1255.25 1552.84 1257.09 1549.78 L1280.02 1511.26 Q1280.24 1510.88 1280.4 1510.68 Q1280.56 1510.49 1280.89 1510.33 Q1281.24 1510.17 1281.76 1510.17 Q1282.56 1510.17 1282.72 1510.42 Q1282.88 1510.65 1282.98 1511.74 L1287.01 1552.97 Q1287.1 1553.84 1287.17 1554.19 Q1287.26 1554.51 1287.68 1554.87 Q1288.13 1555.19 1288.94 1555.29 Q1289.77 1555.35 1291.32 1555.35 Q1291.9 1555.35 1292.13 1555.38 Q1292.35 1555.38 1292.58 1555.54 Q1292.83 1555.71 1292.83 1556.06 M1280.08 1540.09 L1277.99 1518.35 L1264.98 1540.09 L1280.08 1540.09 Z" fill="#000000" fill-rule="nonzero" fill-opacity="1" /><path clip-path="url(#clip620)" d="M1299.44 1497.93 Q1299.44 1490.13 1302.35 1483.84 Q1303.59 1481.2 1305.32 1479 Q1307.06 1476.79 1308.21 1475.82 Q1309.36 1474.85 1309.67 1474.85 Q1310.12 1474.85 1310.15 1475.3 Q1310.15 1475.52 1309.54 1476.09 Q1302.1 1483.66 1302.12 1497.93 Q1302.12 1512.25 1309.36 1519.53 Q1310.15 1520.32 1310.15 1520.57 Q1310.15 1521.02 1309.67 1521.02 Q1309.36 1521.02 1308.25 1520.09 Q1307.15 1519.17 1305.43 1517.05 Q1303.72 1514.93 1302.48 1512.34 Q1299.44 1506.05 1299.44 1497.93 Z" fill="#000000" fill-rule="nonzero" fill-opacity="1" /><path clip-path="url(#clip620)" d="M1314.58 1509.48 Q1314.58 1508.64 1314.65 1508.39 Q1314.74 1508.14 1315.1 1507.76 L1323.96 1497.89 Q1328.81 1492.43 1328.81 1487.67 Q1328.81 1484.59 1327.18 1482.38 Q1325.58 1480.17 1322.63 1480.17 Q1320.6 1480.17 1318.89 1481.41 Q1317.17 1482.65 1316.38 1484.86 Q1316.52 1484.81 1316.99 1484.81 Q1318.14 1484.81 1318.77 1485.53 Q1319.43 1486.25 1319.43 1487.22 Q1319.43 1488.46 1318.62 1489.07 Q1317.83 1489.66 1317.04 1489.66 Q1316.72 1489.66 1316.29 1489.59 Q1315.89 1489.52 1315.23 1488.89 Q1314.58 1488.24 1314.58 1487.09 Q1314.58 1483.86 1317.01 1481.29 Q1319.47 1478.72 1323.21 1478.72 Q1327.45 1478.72 1330.23 1481.25 Q1333.02 1483.75 1333.02 1487.67 Q1333.02 1489.05 1332.59 1490.31 Q1332.19 1491.55 1331.62 1492.52 Q1331.08 1493.49 1329.59 1495.05 Q1328.11 1496.6 1326.91 1497.71 Q1325.72 1498.81 1323.03 1501.16 L1318.14 1505.91 L1326.46 1505.91 Q1330.52 1505.91 1330.83 1505.55 Q1331.28 1504.9 1331.85 1501.45 L1333.02 1501.45 L1331.71 1509.48 L1314.58 1509.48 Z" fill="#000000" fill-rule="nonzero" fill-opacity="1" /><path clip-path="url(#clip620)" d="M1338.55 1520.57 Q1338.55 1520.34 1339.14 1519.78 Q1346.58 1512.2 1346.58 1497.93 Q1346.58 1483.62 1339.43 1476.38 Q1338.55 1475.55 1338.55 1475.3 Q1338.55 1474.85 1339 1474.85 Q1339.32 1474.85 1340.42 1475.77 Q1341.55 1476.7 1343.24 1478.82 Q1344.96 1480.93 1346.22 1483.53 Q1349.26 1489.82 1349.26 1497.93 Q1349.26 1505.73 1346.35 1512.02 Q1345.11 1514.66 1343.38 1516.87 Q1341.64 1519.08 1340.49 1520.05 Q1339.34 1521.02 1339 1521.02 Q1338.55 1521.02 1338.55 1520.57 Z" fill="#000000" fill-rule="nonzero" fill-opacity="1" /><path clip-path="url(#clip620)" d="M1363.32 1571.84 L1363.32 1509.94 Q1363.32 1507.98 1364.64 1507.98 Q1365.96 1507.98 1365.96 1510.04 L1365.96 1571.68 Q1365.96 1573.81 1364.64 1573.81 Q1363.32 1573.81 1363.32 1571.84 M1370.6 1571.84 L1370.6 1510.42 Q1370.6 1507.98 1371.92 1507.98 Q1373.24 1507.98 1373.24 1510.04 L1373.24 1571.68 Q1373.24 1573.81 1371.92 1573.81 Q1370.6 1573.81 1370.6 1571.84 Z" fill="#000000" fill-rule="nonzero" fill-opacity="1" /><path clip-path="url(#clip620)" d="M1380.18 1565.57 L1380.18 1564.13 Q1385.72 1564.13 1388.58 1561.17 Q1389.37 1561.17 1389.51 1561.35 Q1389.64 1561.53 1389.64 1562.37 L1389.64 1588.27 Q1389.64 1589.65 1390.32 1590.07 Q1391 1590.5 1393.95 1590.5 L1395.41 1590.5 L1395.41 1591.92 Q1393.79 1591.79 1387.93 1591.79 Q1382.07 1591.79 1380.47 1591.92 L1380.47 1590.5 L1381.93 1590.5 Q1384.84 1590.5 1385.54 1590.1 Q1386.24 1589.67 1386.24 1588.27 L1386.24 1564.35 Q1383.83 1565.57 1380.18 1565.57 Z" fill="#000000" fill-rule="nonzero" fill-opacity="1" /><polyline clip-path="url(#clip620)" style="stroke:#000000; stroke-linecap:round; stroke-linejoin:round; stroke-width:4; stroke-opacity:1; fill:none" points="264.474,1380.58 264.474,47.2441 "/>
<polyline clip-path="url(#clip620)" style="stroke:#000000; stroke-linecap:round; stroke-linejoin:round; stroke-width:4; stroke-opacity:1; fill:none" points="264.474,1217.28 283.372,1217.28 "/>
<polyline clip-path="url(#clip620)" style="stroke:#000000; stroke-linecap:round; stroke-linejoin:round; stroke-width:4; stroke-opacity:1; fill:none" points="264.474,1045.62 283.372,1045.62 "/>
<polyline clip-path="url(#clip620)" style="stroke:#000000; stroke-linecap:round; stroke-linejoin:round; stroke-width:4; stroke-opacity:1; fill:none" points="264.474,873.971 283.372,873.971 "/>
<polyline clip-path="url(#clip620)" style="stroke:#000000; stroke-linecap:round; stroke-linejoin:round; stroke-width:4; stroke-opacity:1; fill:none" points="264.474,702.319 283.372,702.319 "/>
<polyline clip-path="url(#clip620)" style="stroke:#000000; stroke-linecap:round; stroke-linejoin:round; stroke-width:4; stroke-opacity:1; fill:none" points="264.474,530.667 283.372,530.667 "/>
<polyline clip-path="url(#clip620)" style="stroke:#000000; stroke-linecap:round; stroke-linejoin:round; stroke-width:4; stroke-opacity:1; fill:none" points="264.474,359.014 283.372,359.014 "/>
<polyline clip-path="url(#clip620)" style="stroke:#000000; stroke-linecap:round; stroke-linejoin:round; stroke-width:4; stroke-opacity:1; fill:none" points="264.474,187.362 283.372,187.362 "/>
<path clip-path="url(#clip620)" d="M127.77 1237.07 L135.409 1237.07 L135.409 1210.7 L127.099 1212.37 L127.099 1208.11 L135.363 1206.44 L140.038 1206.44 L140.038 1237.07 L147.677 1237.07 L147.677 1241 L127.77 1241 L127.77 1237.07 Z" fill="#000000" fill-rule="nonzero" fill-opacity="1" /><path clip-path="url(#clip620)" d="M167.122 1209.52 Q163.511 1209.52 161.682 1213.09 Q159.876 1216.63 159.876 1223.76 Q159.876 1230.86 161.682 1234.43 Q163.511 1237.97 167.122 1237.97 Q170.756 1237.97 172.561 1234.43 Q174.39 1230.86 174.39 1223.76 Q174.39 1216.63 172.561 1213.09 Q170.756 1209.52 167.122 1209.52 M167.122 1205.82 Q172.932 1205.82 175.987 1210.42 Q179.066 1215.01 179.066 1223.76 Q179.066 1232.48 175.987 1237.09 Q172.932 1241.67 167.122 1241.67 Q161.312 1241.67 158.233 1237.09 Q155.177 1232.48 155.177 1223.76 Q155.177 1215.01 158.233 1210.42 Q161.312 1205.82 167.122 1205.82 Z" fill="#000000" fill-rule="nonzero" fill-opacity="1" /><path clip-path="url(#clip620)" d="M179.066 1199.92 L203.178 1199.92 L203.178 1203.12 L179.066 1203.12 L179.066 1199.92 Z" fill="#000000" fill-rule="nonzero" fill-opacity="1" /><path clip-path="url(#clip620)" d="M210.419 1185.51 L228.474 1185.51 L228.474 1187.13 L218.28 1213.59 L214.312 1213.59 L223.904 1188.71 L210.419 1188.71 L210.419 1185.51 Z" fill="#000000" fill-rule="nonzero" fill-opacity="1" /><path clip-path="url(#clip620)" d="M126.905 1065.42 L134.544 1065.42 L134.544 1039.05 L126.234 1040.72 L126.234 1036.46 L134.497 1034.79 L139.173 1034.79 L139.173 1065.42 L146.812 1065.42 L146.812 1069.35 L126.905 1069.35 L126.905 1065.42 Z" fill="#000000" fill-rule="nonzero" fill-opacity="1" /><path clip-path="url(#clip620)" d="M166.257 1037.87 Q162.645 1037.87 160.817 1041.43 Q159.011 1044.98 159.011 1052.11 Q159.011 1059.21 160.817 1062.78 Q162.645 1066.32 166.257 1066.32 Q169.891 1066.32 171.696 1062.78 Q173.525 1059.21 173.525 1052.11 Q173.525 1044.98 171.696 1041.43 Q169.891 1037.87 166.257 1037.87 M166.257 1034.17 Q172.067 1034.17 175.122 1038.77 Q178.201 1043.36 178.201 1052.11 Q178.201 1060.83 175.122 1065.44 Q172.067 1070.02 166.257 1070.02 Q160.446 1070.02 157.368 1065.44 Q154.312 1060.83 154.312 1052.11 Q154.312 1043.36 157.368 1038.77 Q160.446 1034.17 166.257 1034.17 Z" fill="#000000" fill-rule="nonzero" fill-opacity="1" /><path clip-path="url(#clip620)" d="M178.201 1028.27 L202.312 1028.27 L202.312 1031.46 L178.201 1031.46 L178.201 1028.27 Z" fill="#000000" fill-rule="nonzero" fill-opacity="1" /><path clip-path="url(#clip620)" d="M219.108 1026.39 Q216.55 1026.39 215.045 1028.14 Q213.559 1029.88 213.559 1032.93 Q213.559 1035.96 215.045 1037.73 Q216.55 1039.48 219.108 1039.48 Q221.666 1039.48 223.151 1037.73 Q224.656 1035.96 224.656 1032.93 Q224.656 1029.88 223.151 1028.14 Q221.666 1026.39 219.108 1026.39 M226.65 1014.48 L226.65 1017.94 Q225.22 1017.26 223.753 1016.91 Q222.305 1016.55 220.876 1016.55 Q217.114 1016.55 215.121 1019.09 Q213.146 1021.63 212.864 1026.76 Q213.973 1025.13 215.647 1024.26 Q217.321 1023.38 219.333 1023.38 Q223.565 1023.38 226.01 1025.95 Q228.474 1028.51 228.474 1032.93 Q228.474 1037.26 225.916 1039.87 Q223.358 1042.49 219.108 1042.49 Q214.237 1042.49 211.66 1038.76 Q209.083 1035.02 209.083 1027.93 Q209.083 1021.27 212.243 1017.32 Q215.403 1013.35 220.725 1013.35 Q222.155 1013.35 223.603 1013.63 Q225.07 1013.92 226.65 1014.48 Z" fill="#000000" fill-rule="nonzero" fill-opacity="1" /><path clip-path="url(#clip620)" d="M127.845 893.763 L135.484 893.763 L135.484 867.398 L127.174 869.064 L127.174 864.805 L135.438 863.138 L140.114 863.138 L140.114 893.763 L147.753 893.763 L147.753 897.698 L127.845 897.698 L127.845 893.763 Z" fill="#000000" fill-rule="nonzero" fill-opacity="1" /><path clip-path="url(#clip620)" d="M167.197 866.217 Q163.586 866.217 161.757 869.782 Q159.952 873.324 159.952 880.453 Q159.952 887.56 161.757 891.124 Q163.586 894.666 167.197 894.666 Q170.831 894.666 172.637 891.124 Q174.465 887.56 174.465 880.453 Q174.465 873.324 172.637 869.782 Q170.831 866.217 167.197 866.217 M167.197 862.513 Q173.007 862.513 176.063 867.12 Q179.141 871.703 179.141 880.453 Q179.141 889.18 176.063 893.786 Q173.007 898.37 167.197 898.37 Q161.387 898.37 158.308 893.786 Q155.253 889.18 155.253 880.453 Q155.253 871.703 158.308 867.12 Q161.387 862.513 167.197 862.513 Z" fill="#000000" fill-rule="nonzero" fill-opacity="1" /><path clip-path="url(#clip620)" d="M179.141 856.615 L203.253 856.615 L203.253 859.812 L179.141 859.812 L179.141 856.615 Z" fill="#000000" fill-rule="nonzero" fill-opacity="1" /><path clip-path="url(#clip620)" d="M211.491 842.208 L226.405 842.208 L226.405 845.405 L214.97 845.405 L214.97 852.289 Q215.798 852.007 216.625 851.875 Q217.453 851.725 218.28 851.725 Q222.982 851.725 225.728 854.301 Q228.474 856.878 228.474 861.279 Q228.474 865.812 225.653 868.332 Q222.832 870.834 217.697 870.834 Q215.929 870.834 214.086 870.533 Q212.262 870.232 210.306 869.63 L210.306 865.812 Q211.998 866.733 213.804 867.185 Q215.61 867.636 217.622 867.636 Q220.876 867.636 222.775 865.925 Q224.675 864.213 224.675 861.279 Q224.675 858.345 222.775 856.634 Q220.876 854.922 217.622 854.922 Q216.099 854.922 214.575 855.261 Q213.07 855.599 211.491 856.314 L211.491 842.208 Z" fill="#000000" fill-rule="nonzero" fill-opacity="1" /><path clip-path="url(#clip620)" d="M126.642 722.111 L134.28 722.111 L134.28 695.746 L125.97 697.412 L125.97 693.153 L134.234 691.486 L138.91 691.486 L138.91 722.111 L146.549 722.111 L146.549 726.046 L126.642 726.046 L126.642 722.111 Z" fill="#000000" fill-rule="nonzero" fill-opacity="1" /><path clip-path="url(#clip620)" d="M165.993 694.565 Q162.382 694.565 160.553 698.13 Q158.748 701.671 158.748 708.801 Q158.748 715.907 160.553 719.472 Q162.382 723.014 165.993 723.014 Q169.627 723.014 171.433 719.472 Q173.262 715.907 173.262 708.801 Q173.262 701.671 171.433 698.13 Q169.627 694.565 165.993 694.565 M165.993 690.861 Q171.803 690.861 174.859 695.468 Q177.938 700.051 177.938 708.801 Q177.938 717.528 174.859 722.134 Q171.803 726.718 165.993 726.718 Q160.183 726.718 157.104 722.134 Q154.049 717.528 154.049 708.801 Q154.049 700.051 157.104 695.468 Q160.183 690.861 165.993 690.861 Z" fill="#000000" fill-rule="nonzero" fill-opacity="1" /><path clip-path="url(#clip620)" d="M177.938 684.963 L202.049 684.963 L202.049 688.16 L177.938 688.16 L177.938 684.963 Z" fill="#000000" fill-rule="nonzero" fill-opacity="1" /><path clip-path="url(#clip620)" d="M220.688 673.866 L211.096 688.856 L220.688 688.856 L220.688 673.866 M219.691 670.556 L224.468 670.556 L224.468 688.856 L228.474 688.856 L228.474 692.016 L224.468 692.016 L224.468 698.636 L220.688 698.636 L220.688 692.016 L208.011 692.016 L208.011 688.348 L219.691 670.556 Z" fill="#000000" fill-rule="nonzero" fill-opacity="1" /><path clip-path="url(#clip620)" d="M127.563 550.459 L135.202 550.459 L135.202 524.093 L126.892 525.76 L126.892 521.501 L135.156 519.834 L139.832 519.834 L139.832 550.459 L147.47 550.459 L147.47 554.394 L127.563 554.394 L127.563 550.459 Z" fill="#000000" fill-rule="nonzero" fill-opacity="1" /><path clip-path="url(#clip620)" d="M166.915 522.913 Q163.304 522.913 161.475 526.478 Q159.669 530.019 159.669 537.149 Q159.669 544.255 161.475 547.82 Q163.304 551.362 166.915 551.362 Q170.549 551.362 172.355 547.82 Q174.183 544.255 174.183 537.149 Q174.183 530.019 172.355 526.478 Q170.549 522.913 166.915 522.913 M166.915 519.209 Q172.725 519.209 175.78 523.816 Q178.859 528.399 178.859 537.149 Q178.859 545.876 175.78 550.482 Q172.725 555.065 166.915 555.065 Q161.105 555.065 158.026 550.482 Q154.97 545.876 154.97 537.149 Q154.97 528.399 158.026 523.816 Q161.105 519.209 166.915 519.209 Z" fill="#000000" fill-rule="nonzero" fill-opacity="1" /><path clip-path="url(#clip620)" d="M178.859 513.31 L202.971 513.31 L202.971 516.508 L178.859 516.508 L178.859 513.31 Z" fill="#000000" fill-rule="nonzero" fill-opacity="1" /><path clip-path="url(#clip620)" d="M222.681 511.843 Q225.408 512.427 226.932 514.27 Q228.474 516.113 228.474 518.821 Q228.474 522.978 225.615 525.253 Q222.756 527.529 217.49 527.529 Q215.722 527.529 213.842 527.172 Q211.98 526.833 209.986 526.137 L209.986 522.47 Q211.566 523.391 213.447 523.862 Q215.327 524.332 217.377 524.332 Q220.951 524.332 222.813 522.921 Q224.694 521.511 224.694 518.821 Q224.694 516.339 222.945 514.947 Q221.214 513.536 218.111 513.536 L214.838 513.536 L214.838 510.414 L218.261 510.414 Q221.064 510.414 222.55 509.304 Q224.035 508.176 224.035 506.069 Q224.035 503.907 222.493 502.759 Q220.97 501.593 218.111 501.593 Q216.55 501.593 214.763 501.932 Q212.976 502.27 210.832 502.985 L210.832 499.6 Q212.995 498.998 214.876 498.697 Q216.776 498.396 218.45 498.396 Q222.775 498.396 225.296 500.371 Q227.816 502.327 227.816 505.675 Q227.816 508.007 226.48 509.624 Q225.145 511.223 222.681 511.843 Z" fill="#000000" fill-rule="nonzero" fill-opacity="1" /><path clip-path="url(#clip620)" d="M128.334 378.807 L135.973 378.807 L135.973 352.441 L127.663 354.108 L127.663 349.849 L135.927 348.182 L140.603 348.182 L140.603 378.807 L148.242 378.807 L148.242 382.742 L128.334 382.742 L128.334 378.807 Z" fill="#000000" fill-rule="nonzero" fill-opacity="1" /><path clip-path="url(#clip620)" d="M167.686 351.261 Q164.075 351.261 162.246 354.825 Q160.441 358.367 160.441 365.497 Q160.441 372.603 162.246 376.168 Q164.075 379.71 167.686 379.71 Q171.32 379.71 173.126 376.168 Q174.954 372.603 174.954 365.497 Q174.954 358.367 173.126 354.825 Q171.32 351.261 167.686 351.261 M167.686 347.557 Q173.496 347.557 176.552 352.163 Q179.63 356.747 179.63 365.497 Q179.63 374.223 176.552 378.83 Q173.496 383.413 167.686 383.413 Q161.876 383.413 158.797 378.83 Q155.742 374.223 155.742 365.497 Q155.742 356.747 158.797 352.163 Q161.876 347.557 167.686 347.557 Z" fill="#000000" fill-rule="nonzero" fill-opacity="1" /><path clip-path="url(#clip620)" d="M179.63 341.658 L203.742 341.658 L203.742 344.856 L179.63 344.856 L179.63 341.658 Z" fill="#000000" fill-rule="nonzero" fill-opacity="1" /><path clip-path="url(#clip620)" d="M215.215 352.134 L228.474 352.134 L228.474 355.332 L210.644 355.332 L210.644 352.134 Q212.807 349.896 216.531 346.135 Q220.274 342.354 221.233 341.263 Q223.057 339.213 223.772 337.803 Q224.506 336.373 224.506 335 Q224.506 332.762 222.926 331.352 Q221.365 329.941 218.844 329.941 Q217.058 329.941 215.064 330.562 Q213.089 331.182 210.832 332.443 L210.832 328.606 Q213.127 327.684 215.121 327.214 Q217.114 326.744 218.769 326.744 Q223.133 326.744 225.728 328.925 Q228.324 331.107 228.324 334.756 Q228.324 336.486 227.665 338.047 Q227.026 339.589 225.314 341.696 Q224.844 342.241 222.324 344.856 Q219.804 347.451 215.215 352.134 Z" fill="#000000" fill-rule="nonzero" fill-opacity="1" /><path clip-path="url(#clip620)" d="M128.033 207.155 L135.672 207.155 L135.672 180.789 L127.362 182.456 L127.362 178.196 L135.626 176.53 L140.302 176.53 L140.302 207.155 L147.941 207.155 L147.941 211.09 L128.033 211.09 L128.033 207.155 Z" fill="#000000" fill-rule="nonzero" fill-opacity="1" /><path clip-path="url(#clip620)" d="M167.385 179.608 Q163.774 179.608 161.945 183.173 Q160.14 186.715 160.14 193.845 Q160.14 200.951 161.945 204.516 Q163.774 208.057 167.385 208.057 Q171.019 208.057 172.825 204.516 Q174.653 200.951 174.653 193.845 Q174.653 186.715 172.825 183.173 Q171.019 179.608 167.385 179.608 M167.385 175.905 Q173.195 175.905 176.251 180.511 Q179.329 185.095 179.329 193.845 Q179.329 202.571 176.251 207.178 Q173.195 211.761 167.385 211.761 Q161.575 211.761 158.496 207.178 Q155.441 202.571 155.441 193.845 Q155.441 185.095 158.496 180.511 Q161.575 175.905 167.385 175.905 Z" fill="#000000" fill-rule="nonzero" fill-opacity="1" /><path clip-path="url(#clip620)" d="M179.329 170.006 L203.441 170.006 L203.441 173.203 L179.329 173.203 L179.329 170.006 Z" fill="#000000" fill-rule="nonzero" fill-opacity="1" /><path clip-path="url(#clip620)" d="M212.299 180.482 L218.506 180.482 L218.506 159.06 L211.754 160.414 L211.754 156.954 L218.468 155.599 L222.267 155.599 L222.267 180.482 L228.474 180.482 L228.474 183.679 L212.299 183.679 L212.299 180.482 Z" fill="#000000" fill-rule="nonzero" fill-opacity="1" /><path clip-path="url(#clip620)" d="M42.6211 1086.8 L40.56 1086.8 Q40.56 1078.88 36.341 1074.79 Q36.341 1073.66 36.5986 1073.47 Q36.8563 1073.27 38.0479 1073.27 L75.0524 1073.27 Q77.017 1073.27 77.6289 1072.31 Q78.2408 1071.34 78.2408 1067.12 L78.2408 1065.03 L80.2698 1065.03 Q80.0765 1067.35 80.0765 1075.72 Q80.0765 1084.1 80.2698 1086.38 L78.2408 1086.38 L78.2408 1084.29 Q78.2408 1080.13 77.6611 1079.14 Q77.0492 1078.14 75.0524 1078.14 L40.882 1078.14 Q42.6211 1081.58 42.6211 1086.8 Z" fill="#000000" fill-rule="nonzero" fill-opacity="1" /><path clip-path="url(#clip620)" d="M62.8464 992.292 Q63.2329 991.905 63.7804 991.905 Q64.3279 991.905 64.7143 992.292 Q65.1008 992.678 65.1008 993.226 L65.1008 1034.51 Q65.1008 1035.06 64.7143 1035.45 Q64.3279 1035.83 63.7804 1035.83 Q63.2329 1035.83 62.8464 1035.45 Q62.4599 1035.06 62.4599 1034.51 L62.4599 993.226 Q62.4599 992.678 62.8464 992.292 Z" fill="#000000" fill-rule="nonzero" fill-opacity="1" /><path clip-path="url(#clip620)" d="M94.7302 966.717 L33.3136 966.717 Q30.866 966.717 30.866 965.397 Q30.866 964.076 32.8305 964.076 L94.2471 964.076 Q96.6948 964.076 96.6948 965.397 Q96.6948 966.717 94.7302 966.717 Z" fill="#000000" fill-rule="nonzero" fill-opacity="1" /><path clip-path="url(#clip620)" d="M95.4387 924.581 Q95.9862 924.581 96.3727 924.967 Q96.7592 925.354 96.7592 925.901 Q96.7592 926.835 95.8896 927.157 L64.2313 939.427 Q64.1024 939.492 63.7804 939.492 Q63.4583 939.492 63.3295 939.427 L31.6711 927.157 Q30.8016 926.835 30.8016 925.901 Q30.8016 925.354 31.188 924.967 Q31.5745 924.581 32.122 924.581 Q32.4441 924.581 32.5729 924.645 L63.7804 936.787 L94.9879 924.645 Q95.1167 924.581 95.4387 924.581 Z" fill="#000000" fill-rule="nonzero" fill-opacity="1" /><path clip-path="url(#clip620)" d="M37.2105 866.275 L48.6114 867.595 Q49.642 867.692 49.9641 867.853 Q50.2539 868.014 50.2539 868.529 Q50.2539 868.916 50.0285 869.141 Q49.7708 869.335 49.481 869.335 Q49.3199 869.335 48.9013 869.302 Q48.4826 869.27 48.2894 869.27 Q46.2926 868.98 44.7789 868.98 Q41.977 868.98 40.4633 869.818 Q38.9175 870.655 38.2089 872.813 Q37.4682 874.971 37.4682 879.029 L37.4682 888.304 Q37.4682 890.429 37.8547 890.945 Q38.2411 891.428 40.0447 891.879 L55.9221 895.84 L55.9221 889.624 Q55.9221 887.305 55.6323 885.921 Q55.3424 884.504 54.5373 883.57 Q53.6999 882.603 52.5727 882.088 Q51.4455 881.541 49.4166 880.993 Q48.7402 880.832 48.4826 880.671 Q48.2249 880.478 48.2249 880.059 Q48.2249 879.737 48.4504 879.512 Q48.6436 879.286 48.9335 879.286 L64.3601 883.054 Q65.133 883.247 65.4229 883.441 Q65.6805 883.634 65.6805 884.02 Q65.6805 884.439 65.4551 884.665 Q65.2296 884.89 64.972 884.89 Q64.7143 884.89 64.2313 884.697 Q62.1379 884.214 61.0107 884.214 Q60.3666 884.214 60.0445 884.278 Q59.7224 884.31 59.2716 884.6 Q58.7885 884.858 58.563 885.437 Q58.3376 886.017 58.1766 887.112 Q57.9833 888.207 57.9833 889.85 L57.9833 896.355 L75.9864 900.864 Q77.178 901.186 77.5001 901.186 Q77.8543 901.186 77.9832 901.025 Q78.0798 900.832 78.1442 900.317 Q78.2408 899.737 78.2408 898.867 L78.2408 889.238 Q78.2408 887.112 78.0476 885.405 Q77.8543 883.698 77.3712 882.281 Q76.8882 880.832 76.3407 879.737 Q75.7932 878.642 74.7948 877.611 Q73.7642 876.581 72.8624 875.872 Q71.9285 875.132 70.3504 874.262 Q68.7723 873.392 67.4841 872.781 Q66.1636 872.169 64.038 871.235 Q63.2651 870.977 63.2651 870.365 Q63.2651 870.011 63.4583 869.818 Q63.6193 869.624 63.7804 869.592 L63.9736 869.592 Q64.5855 869.785 64.9076 869.914 L79.1426 875.969 Q79.9477 876.323 80.1087 876.613 Q80.2698 876.903 80.2698 878.03 L80.2698 912.265 Q80.2698 913.038 80.2376 913.36 Q80.2054 913.65 80.0443 913.875 Q79.8511 914.101 79.4646 914.101 Q78.8527 914.101 78.5951 913.843 Q78.3052 913.585 78.273 913.296 Q78.2408 913.006 78.2408 912.265 Q78.2408 910.655 78.1442 909.688 Q78.0476 908.722 77.9187 908.11 Q77.7577 907.466 77.3068 907.144 Q76.856 906.79 76.4695 906.629 Q76.0508 906.468 75.1168 906.242 L40.2379 897.547 Q39.0463 897.225 38.6598 897.225 Q38.2411 897.225 37.9835 897.515 Q37.7258 897.772 37.6292 898.481 Q37.5004 899.189 37.5004 899.769 Q37.4682 900.317 37.4682 901.508 Q37.4682 902.281 37.436 902.603 Q37.4038 902.893 37.2427 903.119 Q37.0817 903.344 36.7275 903.344 Q35.8257 903.344 35.6325 902.957 Q35.407 902.539 35.407 901.379 L35.407 868.079 Q35.407 866.758 35.6969 866.468 Q35.9545 866.146 37.2105 866.275 Z" fill="#000000" fill-rule="nonzero" fill-opacity="1" /><path clip-path="url(#clip620)" d="M91.2349 859.576 L89.8146 859.576 L68.1497 845.396 Q67.5861 845.035 67.6087 844.472 Q67.6087 843.953 67.8115 843.841 Q68.0144 843.728 68.8035 843.728 L89.8146 843.728 L89.8146 839.106 L91.2349 839.106 L91.2349 843.728 L95.2477 843.728 Q96.5778 843.728 97.0062 843.187 Q97.4345 842.623 97.4345 840.233 L97.4345 839.264 L98.8548 839.264 Q98.7195 841.158 98.7195 845.531 Q98.7195 849.882 98.8548 851.776 L97.4345 851.776 L97.4345 850.807 Q97.4345 848.417 97.0287 847.853 Q96.6004 847.29 95.2477 847.29 L91.2349 847.29 L91.2349 859.576 M89.8146 858.269 L89.8146 847.019 L72.5909 847.019 L89.8146 858.269 Z" fill="#000000" fill-rule="nonzero" fill-opacity="1" /><path clip-path="url(#clip620)" d="M63.7804 829.671 Q52.6371 829.671 43.6517 825.517 Q39.8836 823.746 36.7275 821.266 Q33.5713 818.786 32.1864 817.143 Q30.8016 815.501 30.8016 815.05 Q30.8016 814.406 31.4457 814.374 Q31.7678 814.374 32.5729 815.243 Q43.3941 825.871 63.7804 825.839 Q84.2311 825.839 94.6336 815.501 Q95.7608 814.374 96.1151 814.374 Q96.7592 814.374 96.7592 815.05 Q96.7592 815.501 95.4387 817.079 Q94.1183 818.657 91.0909 821.105 Q88.0636 823.552 84.3599 825.324 Q75.3745 829.671 63.7804 829.671 Z" fill="#000000" fill-rule="nonzero" fill-opacity="1" /><path clip-path="url(#clip620)" d="M35.9545 761.284 Q37.275 761.284 37.275 762.379 Q37.3394 764.311 37.7258 765.632 Q38.0801 766.952 38.7886 767.725 Q39.4972 768.466 40.2701 768.885 Q41.0108 769.271 42.138 769.529 L65.5517 775.39 Q72.1539 777.065 76.9526 782.475 Q81.719 787.886 81.719 794.037 Q81.719 797.548 80.2698 800.478 Q78.8205 803.377 75.8898 805.181 Q72.959 806.984 69.0621 806.984 Q67.1942 806.984 65.2296 806.501 L48.9335 802.507 L43.1364 801.026 Q38.853 799.931 38.4666 799.931 Q37.8547 799.931 37.6936 800.317 Q37.5004 800.672 37.4038 801.702 L37.275 804.214 Q37.275 804.987 37.2427 805.309 Q37.2105 805.599 37.0495 805.825 Q36.8885 806.05 36.5342 806.05 Q36.0833 806.05 35.7935 805.953 Q35.4714 805.825 35.3748 805.599 Q35.2782 805.374 35.246 805.213 Q35.2138 805.052 35.2138 804.794 L35.407 796.292 L35.2138 787.854 Q35.2138 786.92 35.9545 786.92 Q36.8885 786.92 37.0817 787.339 Q37.275 787.757 37.275 789.174 Q37.275 791.59 37.597 792.685 Q37.8869 793.747 38.4022 794.07 Q38.8852 794.359 40.3023 794.714 L65.9704 801.123 Q67.2586 801.445 68.5468 801.638 Q69.8029 801.799 70.447 801.799 L71.0911 801.831 Q75.1813 801.831 77.4357 799.577 Q79.6901 797.29 79.6901 793.78 Q79.6901 788.627 75.5999 783.828 Q71.5098 778.997 65.1008 777.355 L41.5583 771.429 Q40.9786 771.236 40.1735 771.236 Q38.8852 771.236 38.1123 772.202 Q37.3072 773.136 37.275 775.712 Q37.275 776.904 36.5342 776.904 Q35.9223 776.904 35.6325 776.678 Q35.3104 776.421 35.2782 776.227 Q35.2138 776.002 35.2138 775.712 Q35.2138 774.617 35.3104 772.298 Q35.407 769.98 35.407 768.852 Q35.407 767.725 35.3104 765.471 Q35.2138 763.216 35.2138 762.121 Q35.2138 761.735 35.407 761.542 Q35.568 761.316 35.7613 761.284 L35.9545 761.284 Z" fill="#000000" fill-rule="nonzero" fill-opacity="1" /><path clip-path="url(#clip620)" d="M96.1151 756.318 Q95.793 756.318 94.9879 755.481 Q84.1667 744.853 63.7804 744.853 Q43.3297 744.853 32.9916 755.062 Q31.8 756.318 31.4457 756.318 Q30.8016 756.318 30.8016 755.674 Q30.8016 755.223 32.122 753.645 Q33.4425 752.035 36.4698 749.619 Q39.4972 747.172 43.2008 745.368 Q52.1863 741.02 63.7804 741.02 Q74.9236 741.02 83.909 745.175 Q87.6771 746.946 90.8333 749.426 Q93.9895 751.906 95.3743 753.548 Q96.7592 755.191 96.7592 755.674 Q96.7592 756.318 96.1151 756.318 Z" fill="#000000" fill-rule="nonzero" fill-opacity="1" /><path clip-path="url(#clip620)" d="M94.7302 727.295 L33.3136 727.295 Q30.866 727.295 30.866 725.974 Q30.866 724.654 32.8305 724.654 L94.2471 724.654 Q96.6948 724.654 96.6948 725.974 Q96.6948 727.295 94.7302 727.295 Z" fill="#000000" fill-rule="nonzero" fill-opacity="1" /><path clip-path="url(#clip620)" d="M37.2105 652.244 L48.6114 653.564 Q49.642 653.661 49.9641 653.822 Q50.2539 653.983 50.2539 654.498 Q50.2539 654.884 50.0285 655.11 Q49.7708 655.303 49.481 655.303 Q49.3199 655.303 48.9013 655.271 Q48.4826 655.239 48.2894 655.239 Q46.2926 654.949 44.7789 654.949 Q41.977 654.949 40.4633 655.786 Q38.9175 656.624 38.2089 658.781 Q37.4682 660.939 37.4682 664.997 L37.4682 674.272 Q37.4682 676.398 37.8547 676.913 Q38.2411 677.396 40.0447 677.847 L55.9221 681.808 L55.9221 675.593 Q55.9221 673.274 55.6323 671.889 Q55.3424 670.472 54.5373 669.538 Q53.6999 668.572 52.5727 668.057 Q51.4455 667.509 49.4166 666.962 Q48.7402 666.801 48.4826 666.64 Q48.2249 666.446 48.2249 666.028 Q48.2249 665.706 48.4504 665.48 Q48.6436 665.255 48.9335 665.255 L64.3601 669.023 Q65.133 669.216 65.4229 669.409 Q65.6805 669.602 65.6805 669.989 Q65.6805 670.408 65.4551 670.633 Q65.2296 670.858 64.972 670.858 Q64.7143 670.858 64.2313 670.665 Q62.1379 670.182 61.0107 670.182 Q60.3666 670.182 60.0445 670.247 Q59.7224 670.279 59.2716 670.569 Q58.7885 670.826 58.563 671.406 Q58.3376 671.986 58.1766 673.081 Q57.9833 674.176 57.9833 675.818 L57.9833 682.324 L75.9864 686.833 Q77.178 687.155 77.5001 687.155 Q77.8543 687.155 77.9832 686.994 Q78.0798 686.8 78.1442 686.285 Q78.2408 685.705 78.2408 684.836 L78.2408 675.206 Q78.2408 673.081 78.0476 671.374 Q77.8543 669.667 77.3712 668.25 Q76.8882 666.801 76.3407 665.706 Q75.7932 664.611 74.7948 663.58 Q73.7642 662.549 72.8624 661.841 Q71.9285 661.1 70.3504 660.231 Q68.7723 659.361 67.4841 658.749 Q66.1636 658.137 64.038 657.203 Q63.2651 656.946 63.2651 656.334 Q63.2651 655.979 63.4583 655.786 Q63.6193 655.593 63.7804 655.561 L63.9736 655.561 Q64.5855 655.754 64.9076 655.883 L79.1426 661.937 Q79.9477 662.292 80.1087 662.582 Q80.2698 662.871 80.2698 663.999 L80.2698 698.233 Q80.2698 699.006 80.2376 699.328 Q80.2054 699.618 80.0443 699.844 Q79.8511 700.069 79.4646 700.069 Q78.8527 700.069 78.5951 699.812 Q78.3052 699.554 78.273 699.264 Q78.2408 698.974 78.2408 698.233 Q78.2408 696.623 78.1442 695.657 Q78.0476 694.691 77.9187 694.079 Q77.7577 693.435 77.3068 693.113 Q76.856 692.758 76.4695 692.597 Q76.0508 692.436 75.1168 692.211 L40.2379 683.515 Q39.0463 683.193 38.6598 683.193 Q38.2411 683.193 37.9835 683.483 Q37.7258 683.741 37.6292 684.449 Q37.5004 685.158 37.5004 685.738 Q37.4682 686.285 37.4682 687.477 Q37.4682 688.25 37.436 688.572 Q37.4038 688.862 37.2427 689.087 Q37.0817 689.312 36.7275 689.312 Q35.8257 689.312 35.6325 688.926 Q35.407 688.507 35.407 687.348 L35.407 654.047 Q35.407 652.727 35.6969 652.437 Q35.9545 652.115 37.2105 652.244 Z" fill="#000000" fill-rule="nonzero" fill-opacity="1" /><path clip-path="url(#clip620)" d="M91.2349 645.545 L89.8146 645.545 L68.1497 631.365 Q67.5861 631.004 67.6087 630.44 Q67.6087 629.922 67.8115 629.809 Q68.0144 629.696 68.8035 629.696 L89.8146 629.696 L89.8146 625.075 L91.2349 625.075 L91.2349 629.696 L95.2477 629.696 Q96.5778 629.696 97.0062 629.155 Q97.4345 628.592 97.4345 626.202 L97.4345 625.233 L98.8548 625.233 Q98.7195 627.126 98.7195 631.5 Q98.7195 635.851 98.8548 637.745 L97.4345 637.745 L97.4345 636.775 Q97.4345 634.386 97.0287 633.822 Q96.6004 633.258 95.2477 633.258 L91.2349 633.258 L91.2349 645.545 M89.8146 644.237 L89.8146 632.988 L72.5909 632.988 L89.8146 644.237 Z" fill="#000000" fill-rule="nonzero" fill-opacity="1" /><path clip-path="url(#clip620)" d="M63.7804 615.64 Q52.6371 615.64 43.6517 611.485 Q39.8836 609.714 36.7275 607.234 Q33.5713 604.754 32.1864 603.112 Q30.8016 601.469 30.8016 601.019 Q30.8016 600.374 31.4457 600.342 Q31.7678 600.342 32.5729 601.212 Q43.3941 611.84 63.7804 611.807 Q84.2311 611.807 94.6336 601.469 Q95.7608 600.342 96.1151 600.342 Q96.7592 600.342 96.7592 601.019 Q96.7592 601.469 95.4387 603.047 Q94.1183 604.626 91.0909 607.073 Q88.0636 609.521 84.3599 611.292 Q75.3745 615.64 63.7804 615.64 Z" fill="#000000" fill-rule="nonzero" fill-opacity="1" /><path clip-path="url(#clip620)" d="M35.9545 547.252 Q37.275 547.252 37.275 548.347 Q37.3394 550.28 37.7258 551.6 Q38.0801 552.921 38.7886 553.694 Q39.4972 554.434 40.2701 554.853 Q41.0108 555.24 42.138 555.497 L65.5517 561.359 Q72.1539 563.033 76.9526 568.444 Q81.719 573.855 81.719 580.006 Q81.719 583.516 80.2698 586.447 Q78.8205 589.346 75.8898 591.149 Q72.959 592.953 69.0621 592.953 Q67.1942 592.953 65.2296 592.469 L48.9335 588.476 L43.1364 586.994 Q38.853 585.899 38.4666 585.899 Q37.8547 585.899 37.6936 586.286 Q37.5004 586.64 37.4038 587.671 L37.275 590.183 Q37.275 590.956 37.2427 591.278 Q37.2105 591.568 37.0495 591.793 Q36.8885 592.019 36.5342 592.019 Q36.0833 592.019 35.7935 591.922 Q35.4714 591.793 35.3748 591.568 Q35.2782 591.342 35.246 591.181 Q35.2138 591.02 35.2138 590.763 L35.407 582.26 L35.2138 573.822 Q35.2138 572.888 35.9545 572.888 Q36.8885 572.888 37.0817 573.307 Q37.275 573.726 37.275 575.143 Q37.275 577.558 37.597 578.653 Q37.8869 579.716 38.4022 580.038 Q38.8852 580.328 40.3023 580.682 L65.9704 587.091 Q67.2586 587.413 68.5468 587.606 Q69.8029 587.767 70.447 587.767 L71.0911 587.8 Q75.1813 587.8 77.4357 585.545 Q79.6901 583.259 79.6901 579.748 Q79.6901 574.595 75.5999 569.797 Q71.5098 564.966 65.1008 563.323 L41.5583 557.397 Q40.9786 557.204 40.1735 557.204 Q38.8852 557.204 38.1123 558.17 Q37.3072 559.104 37.275 561.681 Q37.275 562.872 36.5342 562.872 Q35.9223 562.872 35.6325 562.647 Q35.3104 562.389 35.2782 562.196 Q35.2138 561.971 35.2138 561.681 Q35.2138 560.586 35.3104 558.267 Q35.407 555.948 35.407 554.821 Q35.407 553.694 35.3104 551.439 Q35.2138 549.185 35.2138 548.09 Q35.2138 547.703 35.407 547.51 Q35.568 547.285 35.7613 547.252 L35.9545 547.252 Z" fill="#000000" fill-rule="nonzero" fill-opacity="1" /><path clip-path="url(#clip620)" d="M70.2538 530.056 Q69.4486 529.991 69.4486 528.735 L69.4486 488.317 Q69.4486 486.417 70.1893 486.385 Q70.9945 486.385 70.9623 488.188 L70.9623 528.285 Q70.9945 530.056 70.2538 530.056 M57.3714 530.056 Q56.5663 530.056 56.5985 528.671 L56.5985 488.381 Q56.5985 486.417 57.3714 486.385 Q58.1121 486.385 58.1121 488.059 L58.1121 528.735 Q58.1121 530.056 57.3714 530.056 Z" fill="#000000" fill-rule="nonzero" fill-opacity="1" /><path clip-path="url(#clip620)" d="M59.1749 460.939 Q49.481 460.939 44.1992 458.491 Q36.341 455.077 36.341 447.026 Q36.341 445.319 36.8241 443.548 Q37.275 441.744 39.0463 439.49 Q40.8176 437.203 43.7161 435.818 Q49.3199 433.178 59.1749 433.178 Q68.8045 433.178 74.054 435.625 Q81.719 439.2 81.719 447.09 Q81.719 450.053 80.2054 453.081 Q78.6917 456.076 75.0524 457.976 Q69.6096 460.939 59.1749 460.939 M58.3698 455.464 Q68.3214 455.464 72.2827 454.755 Q76.5661 453.95 78.434 451.76 Q80.2698 449.538 80.2698 447.09 Q80.2698 444.45 78.3052 442.26 Q76.3085 440.037 72.0251 439.361 Q67.8061 438.62 58.3698 438.652 Q49.1911 438.652 45.5197 439.297 Q41.2363 440.166 39.5294 442.485 Q37.7902 444.772 37.7902 447.09 Q37.7902 447.96 38.0479 448.894 Q38.3055 449.796 39.0463 451.116 Q39.787 452.437 41.6227 453.467 Q43.4585 454.466 46.2282 454.949 Q49.803 455.464 58.3698 455.464 Z" fill="#000000" fill-rule="nonzero" fill-opacity="1" /><path clip-path="url(#clip620)" d="M96.1151 426.691 Q95.793 426.691 94.9879 425.854 Q84.1667 415.226 63.7804 415.226 Q43.3297 415.226 32.9916 425.435 Q31.8 426.691 31.4457 426.691 Q30.8016 426.691 30.8016 426.047 Q30.8016 425.596 32.122 424.018 Q33.4425 422.408 36.4698 419.992 Q39.4972 417.544 43.2008 415.741 Q52.1863 411.393 63.7804 411.393 Q74.9236 411.393 83.909 415.548 Q87.6771 417.319 90.8333 419.799 Q93.9895 422.279 95.3743 423.921 Q96.7592 425.564 96.7592 426.047 Q96.7592 426.691 96.1151 426.691 Z" fill="#000000" fill-rule="nonzero" fill-opacity="1" /><path clip-path="url(#clip620)" d="M63.3295 386.549 Q63.4583 386.484 63.7804 386.484 Q64.1024 386.484 64.2313 386.549 L95.8896 398.819 Q96.7592 399.141 96.7592 400.043 Q96.7592 400.591 96.3727 400.977 Q95.9862 401.363 95.4387 401.363 Q95.1167 401.363 94.9879 401.299 L63.7804 389.19 L32.5729 401.299 Q32.4441 401.363 32.122 401.363 Q31.5745 401.363 31.188 400.977 Q30.8016 400.591 30.8016 400.043 Q30.8016 399.141 31.6711 398.819 L63.3295 386.549 Z" fill="#000000" fill-rule="nonzero" fill-opacity="1" /><path clip-path="url(#clip620)" d="M94.7302 375.972 L33.3136 375.972 Q30.866 375.972 30.866 374.652 Q30.866 373.331 32.8305 373.331 L94.2471 373.331 Q96.6948 373.331 96.6948 374.652 Q96.6948 375.972 94.7302 375.972 Z" fill="#000000" fill-rule="nonzero" fill-opacity="1" /><path clip-path="url(#clip620)" d="M40.4706 366.323 Q39.6364 366.323 39.3884 366.255 Q39.1405 366.165 38.7572 365.804 L28.8829 356.945 Q23.4272 352.098 18.6704 352.098 Q15.5819 352.098 13.3725 353.721 Q11.1632 355.321 11.1632 358.275 Q11.1632 360.304 12.4032 362.017 Q13.6431 363.73 15.8524 364.519 Q15.8073 364.384 15.8073 363.911 Q15.8073 362.761 16.5287 362.13 Q17.2501 361.476 18.2195 361.476 Q19.4595 361.476 20.0681 362.288 Q20.6543 363.077 20.6543 363.866 Q20.6543 364.181 20.5867 364.61 Q20.519 365.015 19.8878 365.669 Q19.234 366.323 18.0843 366.323 Q14.8605 366.323 12.2904 363.888 Q9.7204 361.431 9.7204 357.689 Q9.7204 353.45 12.2453 350.677 Q14.7477 347.882 18.6704 347.882 Q20.0456 347.882 21.3081 348.31 Q22.548 348.716 23.5174 349.28 Q24.4868 349.821 26.0423 351.309 Q27.5979 352.796 28.7025 353.991 Q29.8072 355.186 32.1518 357.869 L36.9086 362.761 L36.9086 354.442 Q36.9086 350.384 36.5479 350.069 Q35.8941 349.618 32.4449 349.054 L32.4449 347.882 L40.4706 349.189 L40.4706 366.323 Z" fill="#000000" fill-rule="nonzero" fill-opacity="1" /><circle clip-path="url(#clip622)" cx="323.578" cy="1342.85" r="14.4" fill="#009af9" fill-rule="evenodd" fill-opacity="1" stroke="#000000" stroke-opacity="1" stroke-width="3.2"/>
<circle clip-path="url(#clip622)" cx="323.576" cy="1342.85" r="14.4" fill="#009af9" fill-rule="evenodd" fill-opacity="1" stroke="#000000" stroke-opacity="1" stroke-width="3.2"/>
<circle clip-path="url(#clip622)" cx="381.366" cy="1298.63" r="14.4" fill="#009af9" fill-rule="evenodd" fill-opacity="1" stroke="#000000" stroke-opacity="1" stroke-width="3.2"/>
<circle clip-path="url(#clip622)" cx="381.364" cy="1298.63" r="14.4" fill="#009af9" fill-rule="evenodd" fill-opacity="1" stroke="#000000" stroke-opacity="1" stroke-width="3.2"/>
<circle clip-path="url(#clip622)" cx="439.104" cy="1254.46" r="14.4" fill="#009af9" fill-rule="evenodd" fill-opacity="1" stroke="#000000" stroke-opacity="1" stroke-width="3.2"/>
<circle clip-path="url(#clip622)" cx="439.098" cy="1254.46" r="14.4" fill="#009af9" fill-rule="evenodd" fill-opacity="1" stroke="#000000" stroke-opacity="1" stroke-width="3.2"/>
<circle clip-path="url(#clip622)" cx="496.787" cy="1210.33" r="14.4" fill="#009af9" fill-rule="evenodd" fill-opacity="1" stroke="#000000" stroke-opacity="1" stroke-width="3.2"/>
<circle clip-path="url(#clip622)" cx="496.792" cy="1210.33" r="14.4" fill="#009af9" fill-rule="evenodd" fill-opacity="1" stroke="#000000" stroke-opacity="1" stroke-width="3.2"/>
<circle clip-path="url(#clip622)" cx="554.442" cy="1166.24" r="14.4" fill="#009af9" fill-rule="evenodd" fill-opacity="1" stroke="#000000" stroke-opacity="1" stroke-width="3.2"/>
<circle clip-path="url(#clip622)" cx="554.44" cy="1166.24" r="14.4" fill="#009af9" fill-rule="evenodd" fill-opacity="1" stroke="#000000" stroke-opacity="1" stroke-width="3.2"/>
<circle clip-path="url(#clip622)" cx="640.242" cy="1122.17" r="14.4" fill="#009af9" fill-rule="evenodd" fill-opacity="1" stroke="#000000" stroke-opacity="1" stroke-width="3.2"/>
<circle clip-path="url(#clip622)" cx="640.235" cy="1122.17" r="14.4" fill="#009af9" fill-rule="evenodd" fill-opacity="1" stroke="#000000" stroke-opacity="1" stroke-width="3.2"/>
<circle clip-path="url(#clip622)" cx="697.844" cy="1078.12" r="14.4" fill="#009af9" fill-rule="evenodd" fill-opacity="1" stroke="#000000" stroke-opacity="1" stroke-width="3.2"/>
<circle clip-path="url(#clip622)" cx="697.863" cy="1078.12" r="14.4" fill="#009af9" fill-rule="evenodd" fill-opacity="1" stroke="#000000" stroke-opacity="1" stroke-width="3.2"/>
<circle clip-path="url(#clip622)" cx="761.905" cy="1034.09" r="14.4" fill="#009af9" fill-rule="evenodd" fill-opacity="1" stroke="#000000" stroke-opacity="1" stroke-width="3.2"/>
<circle clip-path="url(#clip622)" cx="761.995" cy="1034.09" r="14.4" fill="#009af9" fill-rule="evenodd" fill-opacity="1" stroke="#000000" stroke-opacity="1" stroke-width="3.2"/>
<circle clip-path="url(#clip622)" cx="819.548" cy="990.072" r="14.4" fill="#009af9" fill-rule="evenodd" fill-opacity="1" stroke="#000000" stroke-opacity="1" stroke-width="3.2"/>
<circle clip-path="url(#clip622)" cx="819.654" cy="990.072" r="14.4" fill="#009af9" fill-rule="evenodd" fill-opacity="1" stroke="#000000" stroke-opacity="1" stroke-width="3.2"/>
<circle clip-path="url(#clip622)" cx="902.39" cy="946.069" r="14.4" fill="#009af9" fill-rule="evenodd" fill-opacity="1" stroke="#000000" stroke-opacity="1" stroke-width="3.2"/>
<circle clip-path="url(#clip622)" cx="908.182" cy="946.069" r="14.4" fill="#009af9" fill-rule="evenodd" fill-opacity="1" stroke="#000000" stroke-opacity="1" stroke-width="3.2"/>
<circle clip-path="url(#clip622)" cx="964.617" cy="902.082" r="14.4" fill="#009af9" fill-rule="evenodd" fill-opacity="1" stroke="#000000" stroke-opacity="1" stroke-width="3.2"/>
<circle clip-path="url(#clip622)" cx="959.481" cy="902.082" r="14.4" fill="#009af9" fill-rule="evenodd" fill-opacity="1" stroke="#000000" stroke-opacity="1" stroke-width="3.2"/>
<circle clip-path="url(#clip622)" cx="1018.01" cy="858.113" r="14.4" fill="#009af9" fill-rule="evenodd" fill-opacity="1" stroke="#000000" stroke-opacity="1" stroke-width="3.2"/>
<circle clip-path="url(#clip622)" cx="1018.54" cy="858.113" r="14.4" fill="#009af9" fill-rule="evenodd" fill-opacity="1" stroke="#000000" stroke-opacity="1" stroke-width="3.2"/>
<circle clip-path="url(#clip622)" cx="1075.31" cy="814.167" r="14.4" fill="#009af9" fill-rule="evenodd" fill-opacity="1" stroke="#000000" stroke-opacity="1" stroke-width="3.2"/>
<circle clip-path="url(#clip622)" cx="1075.39" cy="814.167" r="14.4" fill="#009af9" fill-rule="evenodd" fill-opacity="1" stroke="#000000" stroke-opacity="1" stroke-width="3.2"/>
<circle clip-path="url(#clip622)" cx="1132.8" cy="770.249" r="14.4" fill="#009af9" fill-rule="evenodd" fill-opacity="1" stroke="#000000" stroke-opacity="1" stroke-width="3.2"/>
<circle clip-path="url(#clip622)" cx="1133.93" cy="770.249" r="14.4" fill="#009af9" fill-rule="evenodd" fill-opacity="1" stroke="#000000" stroke-opacity="1" stroke-width="3.2"/>
<circle clip-path="url(#clip622)" cx="1190.73" cy="726.37" r="14.4" fill="#009af9" fill-rule="evenodd" fill-opacity="1" stroke="#000000" stroke-opacity="1" stroke-width="3.2"/>
<circle clip-path="url(#clip622)" cx="1191.23" cy="726.37" r="14.4" fill="#009af9" fill-rule="evenodd" fill-opacity="1" stroke="#000000" stroke-opacity="1" stroke-width="3.2"/>
<circle clip-path="url(#clip622)" cx="1249.88" cy="682.543" r="14.4" fill="#009af9" fill-rule="evenodd" fill-opacity="1" stroke="#000000" stroke-opacity="1" stroke-width="3.2"/>
<circle clip-path="url(#clip622)" cx="1250.06" cy="682.543" r="14.4" fill="#009af9" fill-rule="evenodd" fill-opacity="1" stroke="#000000" stroke-opacity="1" stroke-width="3.2"/>
<circle clip-path="url(#clip622)" cx="1308.69" cy="638.786" r="14.4" fill="#009af9" fill-rule="evenodd" fill-opacity="1" stroke="#000000" stroke-opacity="1" stroke-width="3.2"/>
<circle clip-path="url(#clip622)" cx="1309.18" cy="638.786" r="14.4" fill="#009af9" fill-rule="evenodd" fill-opacity="1" stroke="#000000" stroke-opacity="1" stroke-width="3.2"/>
<circle clip-path="url(#clip622)" cx="1368.65" cy="595.128" r="14.4" fill="#009af9" fill-rule="evenodd" fill-opacity="1" stroke="#000000" stroke-opacity="1" stroke-width="3.2"/>
<circle clip-path="url(#clip622)" cx="1368.53" cy="595.128" r="14.4" fill="#009af9" fill-rule="evenodd" fill-opacity="1" stroke="#000000" stroke-opacity="1" stroke-width="3.2"/>
<circle clip-path="url(#clip622)" cx="1428.84" cy="551.609" r="14.4" fill="#009af9" fill-rule="evenodd" fill-opacity="1" stroke="#000000" stroke-opacity="1" stroke-width="3.2"/>
<circle clip-path="url(#clip622)" cx="1428.99" cy="551.609" r="14.4" fill="#009af9" fill-rule="evenodd" fill-opacity="1" stroke="#000000" stroke-opacity="1" stroke-width="3.2"/>
<circle clip-path="url(#clip622)" cx="1489.23" cy="508.289" r="14.4" fill="#009af9" fill-rule="evenodd" fill-opacity="1" stroke="#000000" stroke-opacity="1" stroke-width="3.2"/>
<circle clip-path="url(#clip622)" cx="1490.95" cy="508.289" r="14.4" fill="#009af9" fill-rule="evenodd" fill-opacity="1" stroke="#000000" stroke-opacity="1" stroke-width="3.2"/>
<circle clip-path="url(#clip622)" cx="1553.86" cy="465.257" r="14.4" fill="#009af9" fill-rule="evenodd" fill-opacity="1" stroke="#000000" stroke-opacity="1" stroke-width="3.2"/>
<circle clip-path="url(#clip622)" cx="1552.66" cy="465.257" r="14.4" fill="#009af9" fill-rule="evenodd" fill-opacity="1" stroke="#000000" stroke-opacity="1" stroke-width="3.2"/>
<circle clip-path="url(#clip622)" cx="1619.22" cy="422.648" r="14.4" fill="#009af9" fill-rule="evenodd" fill-opacity="1" stroke="#000000" stroke-opacity="1" stroke-width="3.2"/>
<circle clip-path="url(#clip622)" cx="1617.81" cy="422.648" r="14.4" fill="#009af9" fill-rule="evenodd" fill-opacity="1" stroke="#000000" stroke-opacity="1" stroke-width="3.2"/>
<circle clip-path="url(#clip622)" cx="1684.96" cy="380.666" r="14.4" fill="#009af9" fill-rule="evenodd" fill-opacity="1" stroke="#000000" stroke-opacity="1" stroke-width="3.2"/>
<circle clip-path="url(#clip622)" cx="1684.18" cy="380.666" r="14.4" fill="#009af9" fill-rule="evenodd" fill-opacity="1" stroke="#000000" stroke-opacity="1" stroke-width="3.2"/>
<circle clip-path="url(#clip622)" cx="1753.2" cy="339.617" r="14.4" fill="#009af9" fill-rule="evenodd" fill-opacity="1" stroke="#000000" stroke-opacity="1" stroke-width="3.2"/>
<circle clip-path="url(#clip622)" cx="1753.42" cy="339.617" r="14.4" fill="#009af9" fill-rule="evenodd" fill-opacity="1" stroke="#000000" stroke-opacity="1" stroke-width="3.2"/>
<circle clip-path="url(#clip622)" cx="1817.84" cy="303.319" r="14.4" fill="#009af9" fill-rule="evenodd" fill-opacity="1" stroke="#000000" stroke-opacity="1" stroke-width="3.2"/>
<circle clip-path="url(#clip622)" cx="1820.02" cy="303.319" r="14.4" fill="#009af9" fill-rule="evenodd" fill-opacity="1" stroke="#000000" stroke-opacity="1" stroke-width="3.2"/>
<circle clip-path="url(#clip622)" cx="1823.68" cy="299.949" r="14.4" fill="#009af9" fill-rule="evenodd" fill-opacity="1" stroke="#000000" stroke-opacity="1" stroke-width="3.2"/>
<circle clip-path="url(#clip622)" cx="1825.4" cy="299.949" r="14.4" fill="#009af9" fill-rule="evenodd" fill-opacity="1" stroke="#000000" stroke-opacity="1" stroke-width="3.2"/>
<circle clip-path="url(#clip622)" cx="1857.87" cy="282.572" r="14.4" fill="#009af9" fill-rule="evenodd" fill-opacity="1" stroke="#000000" stroke-opacity="1" stroke-width="3.2"/>
<circle clip-path="url(#clip622)" cx="1857.62" cy="282.572" r="14.4" fill="#009af9" fill-rule="evenodd" fill-opacity="1" stroke="#000000" stroke-opacity="1" stroke-width="3.2"/>
<circle clip-path="url(#clip622)" cx="1890.01" cy="265.227" r="14.4" fill="#009af9" fill-rule="evenodd" fill-opacity="1" stroke="#000000" stroke-opacity="1" stroke-width="3.2"/>
<circle clip-path="url(#clip622)" cx="1890.62" cy="265.227" r="14.4" fill="#009af9" fill-rule="evenodd" fill-opacity="1" stroke="#000000" stroke-opacity="1" stroke-width="3.2"/>
<circle clip-path="url(#clip622)" cx="1898.09" cy="262.288" r="14.4" fill="#009af9" fill-rule="evenodd" fill-opacity="1" stroke="#000000" stroke-opacity="1" stroke-width="3.2"/>
<circle clip-path="url(#clip622)" cx="1897.26" cy="262.288" r="14.4" fill="#009af9" fill-rule="evenodd" fill-opacity="1" stroke="#000000" stroke-opacity="1" stroke-width="3.2"/>
<circle clip-path="url(#clip622)" cx="1920.71" cy="250.467" r="14.4" fill="#009af9" fill-rule="evenodd" fill-opacity="1" stroke="#000000" stroke-opacity="1" stroke-width="3.2"/>
<circle clip-path="url(#clip622)" cx="1921.38" cy="250.467" r="14.4" fill="#009af9" fill-rule="evenodd" fill-opacity="1" stroke="#000000" stroke-opacity="1" stroke-width="3.2"/>
<circle clip-path="url(#clip622)" cx="1944.81" cy="237.735" r="14.4" fill="#009af9" fill-rule="evenodd" fill-opacity="1" stroke="#000000" stroke-opacity="1" stroke-width="3.2"/>
<circle clip-path="url(#clip622)" cx="1947.53" cy="237.735" r="14.4" fill="#009af9" fill-rule="evenodd" fill-opacity="1" stroke="#000000" stroke-opacity="1" stroke-width="3.2"/>
<circle clip-path="url(#clip622)" cx="1963.84" cy="227.427" r="14.4" fill="#009af9" fill-rule="evenodd" fill-opacity="1" stroke="#000000" stroke-opacity="1" stroke-width="3.2"/>
<circle clip-path="url(#clip622)" cx="1965.26" cy="227.427" r="14.4" fill="#009af9" fill-rule="evenodd" fill-opacity="1" stroke="#000000" stroke-opacity="1" stroke-width="3.2"/>
<circle clip-path="url(#clip622)" cx="1967.3" cy="226.633" r="14.4" fill="#009af9" fill-rule="evenodd" fill-opacity="1" stroke="#000000" stroke-opacity="1" stroke-width="3.2"/>
<circle clip-path="url(#clip622)" cx="1965.41" cy="226.633" r="14.4" fill="#009af9" fill-rule="evenodd" fill-opacity="1" stroke="#000000" stroke-opacity="1" stroke-width="3.2"/>
<circle clip-path="url(#clip622)" cx="1991.46" cy="216.865" r="14.4" fill="#009af9" fill-rule="evenodd" fill-opacity="1" stroke="#000000" stroke-opacity="1" stroke-width="3.2"/>
<circle clip-path="url(#clip622)" cx="1986.41" cy="216.865" r="14.4" fill="#009af9" fill-rule="evenodd" fill-opacity="1" stroke="#000000" stroke-opacity="1" stroke-width="3.2"/>
<circle clip-path="url(#clip622)" cx="2006.62" cy="208.208" r="14.4" fill="#009af9" fill-rule="evenodd" fill-opacity="1" stroke="#000000" stroke-opacity="1" stroke-width="3.2"/>
<circle clip-path="url(#clip622)" cx="2007.12" cy="208.208" r="14.4" fill="#009af9" fill-rule="evenodd" fill-opacity="1" stroke="#000000" stroke-opacity="1" stroke-width="3.2"/>
<circle clip-path="url(#clip622)" cx="2022.18" cy="200.485" r="14.4" fill="#009af9" fill-rule="evenodd" fill-opacity="1" stroke="#000000" stroke-opacity="1" stroke-width="3.2"/>
<circle clip-path="url(#clip622)" cx="2023.52" cy="200.485" r="14.4" fill="#009af9" fill-rule="evenodd" fill-opacity="1" stroke="#000000" stroke-opacity="1" stroke-width="3.2"/>
<circle clip-path="url(#clip622)" cx="2031.44" cy="196.237" r="14.4" fill="#009af9" fill-rule="evenodd" fill-opacity="1" stroke="#000000" stroke-opacity="1" stroke-width="3.2"/>
<circle clip-path="url(#clip622)" cx="2027.44" cy="196.237" r="14.4" fill="#009af9" fill-rule="evenodd" fill-opacity="1" stroke="#000000" stroke-opacity="1" stroke-width="3.2"/>
<circle clip-path="url(#clip622)" cx="2039.86" cy="193.557" r="14.4" fill="#009af9" fill-rule="evenodd" fill-opacity="1" stroke="#000000" stroke-opacity="1" stroke-width="3.2"/>
<circle clip-path="url(#clip622)" cx="2039.22" cy="193.557" r="14.4" fill="#009af9" fill-rule="evenodd" fill-opacity="1" stroke="#000000" stroke-opacity="1" stroke-width="3.2"/>
<circle clip-path="url(#clip622)" cx="2053.66" cy="187.311" r="14.4" fill="#009af9" fill-rule="evenodd" fill-opacity="1" stroke="#000000" stroke-opacity="1" stroke-width="3.2"/>
<circle clip-path="url(#clip622)" cx="2052.53" cy="187.311" r="14.4" fill="#009af9" fill-rule="evenodd" fill-opacity="1" stroke="#000000" stroke-opacity="1" stroke-width="3.2"/>
<circle clip-path="url(#clip622)" cx="2058.11" cy="181.654" r="14.4" fill="#009af9" fill-rule="evenodd" fill-opacity="1" stroke="#000000" stroke-opacity="1" stroke-width="3.2"/>
<circle clip-path="url(#clip622)" cx="2066.34" cy="181.654" r="14.4" fill="#009af9" fill-rule="evenodd" fill-opacity="1" stroke="#000000" stroke-opacity="1" stroke-width="3.2"/>
<circle clip-path="url(#clip622)" cx="2077.81" cy="176.512" r="14.4" fill="#009af9" fill-rule="evenodd" fill-opacity="1" stroke="#000000" stroke-opacity="1" stroke-width="3.2"/>
<circle clip-path="url(#clip622)" cx="2075.72" cy="176.512" r="14.4" fill="#009af9" fill-rule="evenodd" fill-opacity="1" stroke="#000000" stroke-opacity="1" stroke-width="3.2"/>
<circle clip-path="url(#clip622)" cx="2082.8" cy="171.818" r="14.4" fill="#009af9" fill-rule="evenodd" fill-opacity="1" stroke="#000000" stroke-opacity="1" stroke-width="3.2"/>
<circle clip-path="url(#clip622)" cx="2088.18" cy="171.818" r="14.4" fill="#009af9" fill-rule="evenodd" fill-opacity="1" stroke="#000000" stroke-opacity="1" stroke-width="3.2"/>
<circle clip-path="url(#clip622)" cx="2091.75" cy="169.453" r="14.4" fill="#009af9" fill-rule="evenodd" fill-opacity="1" stroke="#000000" stroke-opacity="1" stroke-width="3.2"/>
<circle clip-path="url(#clip622)" cx="2094.48" cy="169.453" r="14.4" fill="#009af9" fill-rule="evenodd" fill-opacity="1" stroke="#000000" stroke-opacity="1" stroke-width="3.2"/>
<circle clip-path="url(#clip622)" cx="2092.5" cy="167.521" r="14.4" fill="#009af9" fill-rule="evenodd" fill-opacity="1" stroke="#000000" stroke-opacity="1" stroke-width="3.2"/>
<circle clip-path="url(#clip622)" cx="2095.7" cy="167.521" r="14.4" fill="#009af9" fill-rule="evenodd" fill-opacity="1" stroke="#000000" stroke-opacity="1" stroke-width="3.2"/>
<circle clip-path="url(#clip622)" cx="2106.04" cy="163.574" r="14.4" fill="#009af9" fill-rule="evenodd" fill-opacity="1" stroke="#000000" stroke-opacity="1" stroke-width="3.2"/>
<circle clip-path="url(#clip622)" cx="2104.8" cy="163.574" r="14.4" fill="#009af9" fill-rule="evenodd" fill-opacity="1" stroke="#000000" stroke-opacity="1" stroke-width="3.2"/>
<circle clip-path="url(#clip622)" cx="2113.98" cy="159.937" r="14.4" fill="#009af9" fill-rule="evenodd" fill-opacity="1" stroke="#000000" stroke-opacity="1" stroke-width="3.2"/>
<circle clip-path="url(#clip622)" cx="2105.39" cy="159.937" r="14.4" fill="#009af9" fill-rule="evenodd" fill-opacity="1" stroke="#000000" stroke-opacity="1" stroke-width="3.2"/>
<circle clip-path="url(#clip622)" cx="2122.04" cy="156.578" r="14.4" fill="#009af9" fill-rule="evenodd" fill-opacity="1" stroke="#000000" stroke-opacity="1" stroke-width="3.2"/>
<circle clip-path="url(#clip622)" cx="2118.21" cy="156.578" r="14.4" fill="#009af9" fill-rule="evenodd" fill-opacity="1" stroke="#000000" stroke-opacity="1" stroke-width="3.2"/>
<circle clip-path="url(#clip622)" cx="2124.48" cy="153.467" r="14.4" fill="#009af9" fill-rule="evenodd" fill-opacity="1" stroke="#000000" stroke-opacity="1" stroke-width="3.2"/>
<circle clip-path="url(#clip622)" cx="2133.27" cy="153.467" r="14.4" fill="#009af9" fill-rule="evenodd" fill-opacity="1" stroke="#000000" stroke-opacity="1" stroke-width="3.2"/>
<circle clip-path="url(#clip622)" cx="2136.76" cy="150.578" r="14.4" fill="#009af9" fill-rule="evenodd" fill-opacity="1" stroke="#000000" stroke-opacity="1" stroke-width="3.2"/>
<circle clip-path="url(#clip622)" cx="2136.19" cy="150.578" r="14.4" fill="#009af9" fill-rule="evenodd" fill-opacity="1" stroke="#000000" stroke-opacity="1" stroke-width="3.2"/>
<circle clip-path="url(#clip622)" cx="2142.3" cy="147.44" r="14.4" fill="#009af9" fill-rule="evenodd" fill-opacity="1" stroke="#000000" stroke-opacity="1" stroke-width="3.2"/>
<circle clip-path="url(#clip622)" cx="2141" cy="147.44" r="14.4" fill="#009af9" fill-rule="evenodd" fill-opacity="1" stroke="#000000" stroke-opacity="1" stroke-width="3.2"/>
<circle clip-path="url(#clip622)" cx="2180.83" cy="130.062" r="14.4" fill="#009af9" fill-rule="evenodd" fill-opacity="1" stroke="#000000" stroke-opacity="1" stroke-width="3.2"/>
<circle clip-path="url(#clip622)" cx="2187.06" cy="130.062" r="14.4" fill="#009af9" fill-rule="evenodd" fill-opacity="1" stroke="#000000" stroke-opacity="1" stroke-width="3.2"/>
<circle clip-path="url(#clip622)" cx="2214.16" cy="116.771" r="14.4" fill="#009af9" fill-rule="evenodd" fill-opacity="1" stroke="#000000" stroke-opacity="1" stroke-width="3.2"/>
<circle clip-path="url(#clip622)" cx="2213.83" cy="116.771" r="14.4" fill="#009af9" fill-rule="evenodd" fill-opacity="1" stroke="#000000" stroke-opacity="1" stroke-width="3.2"/>
<circle clip-path="url(#clip622)" cx="2241.05" cy="106.82" r="14.4" fill="#009af9" fill-rule="evenodd" fill-opacity="1" stroke="#000000" stroke-opacity="1" stroke-width="3.2"/>
<circle clip-path="url(#clip622)" cx="2242" cy="106.82" r="14.4" fill="#009af9" fill-rule="evenodd" fill-opacity="1" stroke="#000000" stroke-opacity="1" stroke-width="3.2"/>
<circle clip-path="url(#clip622)" cx="2256.7" cy="99.4578" r="14.4" fill="#009af9" fill-rule="evenodd" fill-opacity="1" stroke="#000000" stroke-opacity="1" stroke-width="3.2"/>
<circle clip-path="url(#clip622)" cx="2258.38" cy="99.4578" r="14.4" fill="#009af9" fill-rule="evenodd" fill-opacity="1" stroke="#000000" stroke-opacity="1" stroke-width="3.2"/>
<circle clip-path="url(#clip622)" cx="2266.6" cy="94.0413" r="14.4" fill="#009af9" fill-rule="evenodd" fill-opacity="1" stroke="#000000" stroke-opacity="1" stroke-width="3.2"/>
<circle clip-path="url(#clip622)" cx="2269.49" cy="94.0413" r="14.4" fill="#009af9" fill-rule="evenodd" fill-opacity="1" stroke="#000000" stroke-opacity="1" stroke-width="3.2"/>
<circle clip-path="url(#clip622)" cx="2280.94" cy="90.0616" r="14.4" fill="#009af9" fill-rule="evenodd" fill-opacity="1" stroke="#000000" stroke-opacity="1" stroke-width="3.2"/>
<circle clip-path="url(#clip622)" cx="2284.37" cy="90.0616" r="14.4" fill="#009af9" fill-rule="evenodd" fill-opacity="1" stroke="#000000" stroke-opacity="1" stroke-width="3.2"/>
<circle clip-path="url(#clip622)" cx="2292.16" cy="87.1353" r="14.4" fill="#009af9" fill-rule="evenodd" fill-opacity="1" stroke="#000000" stroke-opacity="1" stroke-width="3.2"/>
<circle clip-path="url(#clip622)" cx="2286.38" cy="87.1353" r="14.4" fill="#009af9" fill-rule="evenodd" fill-opacity="1" stroke="#000000" stroke-opacity="1" stroke-width="3.2"/>
<circle clip-path="url(#clip622)" cx="2293.65" cy="84.9802" r="14.4" fill="#009af9" fill-rule="evenodd" fill-opacity="1" stroke="#000000" stroke-opacity="1" stroke-width="3.2"/>
<circle clip-path="url(#clip622)" cx="2291.39" cy="84.9802" r="14.4" fill="#009af9" fill-rule="evenodd" fill-opacity="1" stroke="#000000" stroke-opacity="1" stroke-width="3.2"/>
</svg>
