<?xml version="1.0" encoding="utf-8"?>
<svg xmlns="http://www.w3.org/2000/svg" xmlns:xlink="http://www.w3.org/1999/xlink" width="600" height="400" viewBox="0 0 2400 1600">
<defs>
  <clipPath id="clip180">
    <rect x="0" y="0" width="2400" height="1600"/>
  </clipPath>
</defs>
<path clip-path="url(#clip180)" d="M0 1600 L2400 1600 L2400 0 L0 0  Z" fill="#ffffff" fill-rule="evenodd" fill-opacity="1"/>
<defs>
  <clipPath id="clip181">
    <rect x="480" y="0" width="1681" height="1600"/>
  </clipPath>
</defs>
<path clip-path="url(#clip180)" d="M264.939 1380.58 L2352.76 1380.58 L2352.76 47.2441 L264.939 47.2441  Z" fill="#ffffff" fill-rule="evenodd" fill-opacity="1"/>
<defs>
  <clipPath id="clip182">
    <rect x="264" y="47" width="2089" height="1334"/>
  </clipPath>
</defs>
<polyline clip-path="url(#clip182)" style="stroke:#000000; stroke-linecap:round; stroke-linejoin:round; stroke-width:2; stroke-opacity:0.1; fill:none" points="379.517,1380.58 379.517,47.2441 "/>
<polyline clip-path="url(#clip182)" style="stroke:#000000; stroke-linecap:round; stroke-linejoin:round; stroke-width:2; stroke-opacity:0.1; fill:none" points="869.134,1380.58 869.134,47.2441 "/>
<polyline clip-path="url(#clip182)" style="stroke:#000000; stroke-linecap:round; stroke-linejoin:round; stroke-width:2; stroke-opacity:0.1; fill:none" points="1358.75,1380.58 1358.75,47.2441 "/>
<polyline clip-path="url(#clip182)" style="stroke:#000000; stroke-linecap:round; stroke-linejoin:round; stroke-width:2; stroke-opacity:0.1; fill:none" points="1848.37,1380.58 1848.37,47.2441 "/>
<polyline clip-path="url(#clip182)" style="stroke:#000000; stroke-linecap:round; stroke-linejoin:round; stroke-width:2; stroke-opacity:0.1; fill:none" points="2337.99,1380.58 2337.99,47.2441 "/>
<polyline clip-path="url(#clip182)" style="stroke:#000000; stroke-linecap:round; stroke-linejoin:round; stroke-width:2; stroke-opacity:0.1; fill:none" points="264.939,1220.23 2352.76,1220.23 "/>
<polyline clip-path="url(#clip182)" style="stroke:#000000; stroke-linecap:round; stroke-linejoin:round; stroke-width:2; stroke-opacity:0.1; fill:none" points="264.939,1054.11 2352.76,1054.11 "/>
<polyline clip-path="url(#clip182)" style="stroke:#000000; stroke-linecap:round; stroke-linejoin:round; stroke-width:2; stroke-opacity:0.1; fill:none" points="264.939,887.989 2352.76,887.989 "/>
<polyline clip-path="url(#clip182)" style="stroke:#000000; stroke-linecap:round; stroke-linejoin:round; stroke-width:2; stroke-opacity:0.1; fill:none" points="264.939,721.868 2352.76,721.868 "/>
<polyline clip-path="url(#clip182)" style="stroke:#000000; stroke-linecap:round; stroke-linejoin:round; stroke-width:2; stroke-opacity:0.1; fill:none" points="264.939,555.747 2352.76,555.747 "/>
<polyline clip-path="url(#clip182)" style="stroke:#000000; stroke-linecap:round; stroke-linejoin:round; stroke-width:2; stroke-opacity:0.1; fill:none" points="264.939,389.627 2352.76,389.627 "/>
<polyline clip-path="url(#clip182)" style="stroke:#000000; stroke-linecap:round; stroke-linejoin:round; stroke-width:2; stroke-opacity:0.1; fill:none" points="264.939,223.506 2352.76,223.506 "/>
<polyline clip-path="url(#clip182)" style="stroke:#000000; stroke-linecap:round; stroke-linejoin:round; stroke-width:2; stroke-opacity:0.1; fill:none" points="264.939,57.3854 2352.76,57.3854 "/>
<polyline clip-path="url(#clip180)" style="stroke:#000000; stroke-linecap:round; stroke-linejoin:round; stroke-width:4; stroke-opacity:1; fill:none" points="264.939,1380.58 2352.76,1380.58 "/>
<polyline clip-path="url(#clip180)" style="stroke:#000000; stroke-linecap:round; stroke-linejoin:round; stroke-width:4; stroke-opacity:1; fill:none" points="379.517,1380.58 379.517,1361.69 "/>
<polyline clip-path="url(#clip180)" style="stroke:#000000; stroke-linecap:round; stroke-linejoin:round; stroke-width:4; stroke-opacity:1; fill:none" points="869.134,1380.58 869.134,1361.69 "/>
<polyline clip-path="url(#clip180)" style="stroke:#000000; stroke-linecap:round; stroke-linejoin:round; stroke-width:4; stroke-opacity:1; fill:none" points="1358.75,1380.58 1358.75,1361.69 "/>
<polyline clip-path="url(#clip180)" style="stroke:#000000; stroke-linecap:round; stroke-linejoin:round; stroke-width:4; stroke-opacity:1; fill:none" points="1848.37,1380.58 1848.37,1361.69 "/>
<polyline clip-path="url(#clip180)" style="stroke:#000000; stroke-linecap:round; stroke-linejoin:round; stroke-width:4; stroke-opacity:1; fill:none" points="2337.99,1380.58 2337.99,1361.69 "/>
<path clip-path="url(#clip180)" d="M329.633 1454.71 L337.271 1454.71 L337.271 1428.34 L328.961 1430.01 L328.961 1425.75 L337.225 1424.08 L341.901 1424.08 L341.901 1454.71 L349.54 1454.71 L349.54 1458.64 L329.633 1458.64 L329.633 1454.71 Z" fill="#000000" fill-rule="nonzero" fill-opacity="1" /><path clip-path="url(#clip180)" d="M368.984 1427.16 Q365.373 1427.16 363.544 1430.73 Q361.739 1434.27 361.739 1441.4 Q361.739 1448.51 363.544 1452.07 Q365.373 1455.61 368.984 1455.61 Q372.618 1455.61 374.424 1452.07 Q376.253 1448.51 376.253 1441.4 Q376.253 1434.27 374.424 1430.73 Q372.618 1427.16 368.984 1427.16 M368.984 1423.46 Q374.794 1423.46 377.85 1428.07 Q380.929 1432.65 380.929 1441.4 Q380.929 1450.13 377.85 1454.73 Q374.794 1459.32 368.984 1459.32 Q363.174 1459.32 360.095 1454.73 Q357.04 1450.13 357.04 1441.4 Q357.04 1432.65 360.095 1428.07 Q363.174 1423.46 368.984 1423.46 Z" fill="#000000" fill-rule="nonzero" fill-opacity="1" /><path clip-path="url(#clip180)" d="M380.929 1417.56 L405.04 1417.56 L405.04 1420.76 L380.929 1420.76 L380.929 1417.56 Z" fill="#000000" fill-rule="nonzero" fill-opacity="1" /><path clip-path="url(#clip180)" d="M413.899 1428.04 L420.105 1428.04 L420.105 1406.62 L413.353 1407.97 L413.353 1404.51 L420.068 1403.15 L423.867 1403.15 L423.867 1428.04 L430.073 1428.04 L430.073 1431.23 L413.899 1431.23 L413.899 1428.04 Z" fill="#000000" fill-rule="nonzero" fill-opacity="1" /><path clip-path="url(#clip180)" d="M834.117 1454.71 L841.756 1454.71 L841.756 1428.34 L833.446 1430.01 L833.446 1425.75 L841.71 1424.08 L846.386 1424.08 L846.386 1454.71 L854.024 1454.71 L854.024 1458.64 L834.117 1458.64 L834.117 1454.71 Z" fill="#000000" fill-rule="nonzero" fill-opacity="1" /><path clip-path="url(#clip180)" d="M873.469 1427.16 Q869.858 1427.16 868.029 1430.73 Q866.223 1434.27 866.223 1441.4 Q866.223 1448.51 868.029 1452.07 Q869.858 1455.61 873.469 1455.61 Q877.103 1455.61 878.909 1452.07 Q880.737 1448.51 880.737 1441.4 Q880.737 1434.27 878.909 1430.73 Q877.103 1427.16 873.469 1427.16 M873.469 1423.46 Q879.279 1423.46 882.334 1428.07 Q885.413 1432.65 885.413 1441.4 Q885.413 1450.13 882.334 1454.73 Q879.279 1459.32 873.469 1459.32 Q867.659 1459.32 864.58 1454.73 Q861.524 1450.13 861.524 1441.4 Q861.524 1432.65 864.58 1428.07 Q867.659 1423.46 873.469 1423.46 Z" fill="#000000" fill-rule="nonzero" fill-opacity="1" /><path clip-path="url(#clip180)" d="M895.118 1405.66 Q892.184 1405.66 890.698 1408.55 Q889.231 1411.43 889.231 1417.22 Q889.231 1423 890.698 1425.89 Q892.184 1428.77 895.118 1428.77 Q898.071 1428.77 899.538 1425.89 Q901.024 1423 901.024 1417.22 Q901.024 1411.43 899.538 1408.55 Q898.071 1405.66 895.118 1405.66 M895.118 1402.65 Q899.839 1402.65 902.321 1406.39 Q904.823 1410.11 904.823 1417.22 Q904.823 1424.31 902.321 1428.06 Q899.839 1431.78 895.118 1431.78 Q890.397 1431.78 887.896 1428.06 Q885.413 1424.31 885.413 1417.22 Q885.413 1410.11 887.896 1406.39 Q890.397 1402.65 895.118 1402.65 Z" fill="#000000" fill-rule="nonzero" fill-opacity="1" /><path clip-path="url(#clip180)" d="M1325.08 1454.71 L1332.72 1454.71 L1332.72 1428.34 L1324.41 1430.01 L1324.41 1425.75 L1332.67 1424.08 L1337.35 1424.08 L1337.35 1454.71 L1344.99 1454.71 L1344.99 1458.64 L1325.08 1458.64 L1325.08 1454.71 Z" fill="#000000" fill-rule="nonzero" fill-opacity="1" /><path clip-path="url(#clip180)" d="M1364.43 1427.16 Q1360.82 1427.16 1358.99 1430.73 Q1357.19 1434.27 1357.19 1441.4 Q1357.19 1448.51 1358.99 1452.07 Q1360.82 1455.61 1364.43 1455.61 Q1368.06 1455.61 1369.87 1452.07 Q1371.7 1448.51 1371.7 1441.4 Q1371.7 1434.27 1369.87 1430.73 Q1368.06 1427.16 1364.43 1427.16 M1364.43 1423.46 Q1370.24 1423.46 1373.3 1428.07 Q1376.37 1432.65 1376.37 1441.4 Q1376.37 1450.13 1373.3 1454.73 Q1370.24 1459.32 1364.43 1459.32 Q1358.62 1459.32 1355.54 1454.73 Q1352.49 1450.13 1352.49 1441.4 Q1352.49 1432.65 1355.54 1428.07 Q1358.62 1423.46 1364.43 1423.46 Z" fill="#000000" fill-rule="nonzero" fill-opacity="1" /><path clip-path="url(#clip180)" d="M1376.92 1428.04 L1383.13 1428.04 L1383.13 1406.62 L1376.37 1407.97 L1376.37 1404.51 L1383.09 1403.15 L1386.89 1403.15 L1386.89 1428.04 L1393.09 1428.04 L1393.09 1431.23 L1376.92 1431.23 L1376.92 1428.04 Z" fill="#000000" fill-rule="nonzero" fill-opacity="1" /><path clip-path="url(#clip180)" d="M1814.14 1454.71 L1821.78 1454.71 L1821.78 1428.34 L1813.47 1430.01 L1813.47 1425.75 L1821.73 1424.08 L1826.41 1424.08 L1826.41 1454.71 L1834.05 1454.71 L1834.05 1458.64 L1814.14 1458.64 L1814.14 1454.71 Z" fill="#000000" fill-rule="nonzero" fill-opacity="1" /><path clip-path="url(#clip180)" d="M1853.49 1427.16 Q1849.88 1427.16 1848.05 1430.73 Q1846.25 1434.27 1846.25 1441.4 Q1846.25 1448.51 1848.05 1452.07 Q1849.88 1455.61 1853.49 1455.61 Q1857.13 1455.61 1858.93 1452.07 Q1860.76 1448.51 1860.76 1441.4 Q1860.76 1434.27 1858.93 1430.73 Q1857.13 1427.16 1853.49 1427.16 M1853.49 1423.46 Q1859.3 1423.46 1862.36 1428.07 Q1865.44 1432.65 1865.44 1441.4 Q1865.44 1450.13 1862.36 1454.73 Q1859.3 1459.32 1853.49 1459.32 Q1847.68 1459.32 1844.6 1454.73 Q1841.55 1450.13 1841.55 1441.4 Q1841.55 1432.65 1844.6 1428.07 Q1847.68 1423.46 1853.49 1423.46 Z" fill="#000000" fill-rule="nonzero" fill-opacity="1" /><path clip-path="url(#clip180)" d="M1870.01 1428.04 L1883.27 1428.04 L1883.27 1431.23 L1865.44 1431.23 L1865.44 1428.04 Q1867.6 1425.8 1871.32 1422.04 Q1875.07 1418.26 1876.03 1417.17 Q1877.85 1415.12 1878.56 1413.71 Q1879.3 1412.28 1879.3 1410.9 Q1879.3 1408.67 1877.72 1407.25 Q1876.16 1405.84 1873.64 1405.84 Q1871.85 1405.84 1869.86 1406.46 Q1867.88 1407.09 1865.63 1408.35 L1865.63 1404.51 Q1867.92 1403.59 1869.91 1403.12 Q1871.91 1402.65 1873.56 1402.65 Q1877.93 1402.65 1880.52 1404.83 Q1883.12 1407.01 1883.12 1410.66 Q1883.12 1412.39 1882.46 1413.95 Q1881.82 1415.49 1880.11 1417.6 Q1879.64 1418.14 1877.12 1420.76 Q1874.6 1423.35 1870.01 1428.04 Z" fill="#000000" fill-rule="nonzero" fill-opacity="1" /><path clip-path="url(#clip180)" d="M2303.43 1454.71 L2311.07 1454.71 L2311.07 1428.34 L2302.76 1430.01 L2302.76 1425.75 L2311.02 1424.08 L2315.7 1424.08 L2315.7 1454.71 L2323.34 1454.71 L2323.34 1458.64 L2303.43 1458.64 L2303.43 1454.71 Z" fill="#000000" fill-rule="nonzero" fill-opacity="1" /><path clip-path="url(#clip180)" d="M2342.78 1427.16 Q2339.17 1427.16 2337.34 1430.73 Q2335.54 1434.27 2335.54 1441.4 Q2335.54 1448.51 2337.34 1452.07 Q2339.17 1455.61 2342.78 1455.61 Q2346.41 1455.61 2348.22 1452.07 Q2350.05 1448.51 2350.05 1441.4 Q2350.05 1434.27 2348.22 1430.73 Q2346.41 1427.16 2342.78 1427.16 M2342.78 1423.46 Q2348.59 1423.46 2351.65 1428.07 Q2354.72 1432.65 2354.72 1441.4 Q2354.72 1450.13 2351.65 1454.73 Q2348.59 1459.32 2342.78 1459.32 Q2336.97 1459.32 2333.89 1454.73 Q2330.84 1450.13 2330.84 1441.4 Q2330.84 1432.65 2333.89 1428.07 Q2336.97 1423.46 2342.78 1423.46 Z" fill="#000000" fill-rule="nonzero" fill-opacity="1" /><path clip-path="url(#clip180)" d="M2367.42 1416.09 Q2370.15 1416.68 2371.67 1418.52 Q2373.21 1420.36 2373.21 1423.07 Q2373.21 1427.23 2370.35 1429.5 Q2367.5 1431.78 2362.23 1431.78 Q2360.46 1431.78 2358.58 1431.42 Q2356.72 1431.08 2354.72 1430.39 L2354.72 1426.72 Q2356.3 1427.64 2358.19 1428.11 Q2360.07 1428.58 2362.12 1428.58 Q2365.69 1428.58 2367.55 1427.17 Q2369.43 1425.76 2369.43 1423.07 Q2369.43 1420.59 2367.68 1419.2 Q2365.95 1417.79 2362.85 1417.79 L2359.58 1417.79 L2359.58 1414.66 L2363 1414.66 Q2365.8 1414.66 2367.29 1413.56 Q2368.77 1412.43 2368.77 1410.32 Q2368.77 1408.16 2367.23 1407.01 Q2365.71 1405.84 2362.85 1405.84 Q2361.29 1405.84 2359.5 1406.18 Q2357.72 1406.52 2355.57 1407.24 L2355.57 1403.85 Q2357.73 1403.25 2359.61 1402.95 Q2361.51 1402.65 2363.19 1402.65 Q2367.51 1402.65 2370.03 1404.62 Q2372.55 1406.58 2372.55 1409.93 Q2372.55 1412.26 2371.22 1413.88 Q2369.88 1415.47 2367.42 1416.09 Z" fill="#000000" fill-rule="nonzero" fill-opacity="1" /><path clip-path="url(#clip180)" d="M1215.15 1571.84 L1215.15 1509.94 Q1215.15 1507.98 1216.47 1507.98 Q1217.79 1507.98 1217.79 1510.04 L1217.79 1571.68 Q1217.79 1573.81 1216.47 1573.81 Q1215.15 1573.81 1215.15 1571.84 M1222.43 1571.84 L1222.43 1510.42 Q1222.43 1507.98 1223.75 1507.98 Q1225.07 1507.98 1225.07 1510.04 L1225.07 1571.68 Q1225.07 1573.81 1223.75 1573.81 Q1222.43 1573.81 1222.43 1571.84 Z" fill="#000000" fill-rule="nonzero" fill-opacity="1" /><path clip-path="url(#clip180)" d="M1293.07 1556.06 Q1293.07 1556.67 1292.81 1556.99 Q1292.58 1557.28 1292.36 1557.35 Q1292.17 1557.38 1291.88 1557.38 Q1291.04 1557.38 1288.14 1557.28 Q1285.24 1557.19 1284.4 1557.19 Q1283.05 1557.19 1280.28 1557.28 Q1277.51 1557.38 1276.16 1557.38 Q1275.26 1557.38 1275.26 1556.64 Q1275.26 1556.16 1275.35 1555.9 Q1275.45 1555.61 1275.71 1555.51 Q1276 1555.38 1276.16 1555.38 Q1276.35 1555.35 1276.84 1555.35 Q1277.48 1555.35 1278.16 1555.29 Q1278.83 1555.19 1279.67 1555 Q1280.51 1554.8 1281.02 1554.32 Q1281.57 1553.84 1281.57 1553.16 Q1281.57 1552.87 1281.34 1550.49 Q1281.12 1548.11 1280.83 1545.34 Q1280.54 1542.53 1280.51 1542.15 L1263.95 1542.15 Q1262.44 1544.76 1261.38 1546.56 Q1260.31 1548.36 1259.93 1548.97 Q1259.54 1549.59 1259.32 1549.97 Q1259.09 1550.36 1258.96 1550.58 Q1258.03 1552.29 1258.03 1553.03 Q1258.03 1555.09 1261.12 1555.35 Q1262.18 1555.35 1262.18 1556.12 Q1262.18 1556.7 1261.92 1557.03 Q1261.67 1557.32 1261.44 1557.35 Q1261.25 1557.38 1260.93 1557.38 Q1259.86 1557.38 1257.64 1557.28 Q1255.42 1557.19 1254.32 1557.19 Q1253.39 1557.19 1251.46 1557.28 Q1249.52 1557.38 1248.66 1557.38 Q1248.27 1557.38 1248.04 1557.15 Q1247.82 1556.93 1247.82 1556.64 Q1247.82 1556.19 1247.88 1555.93 Q1247.98 1555.67 1248.24 1555.54 Q1248.49 1555.42 1248.62 1555.42 Q1248.75 1555.38 1249.2 1555.35 Q1251.65 1555.19 1253.55 1554.03 Q1255.48 1552.84 1257.32 1549.78 L1280.25 1511.26 Q1280.47 1510.88 1280.64 1510.68 Q1280.8 1510.49 1281.12 1510.33 Q1281.47 1510.17 1281.99 1510.17 Q1282.79 1510.17 1282.95 1510.42 Q1283.12 1510.65 1283.21 1511.74 L1287.24 1552.97 Q1287.33 1553.84 1287.4 1554.19 Q1287.5 1554.51 1287.91 1554.87 Q1288.37 1555.19 1289.17 1555.29 Q1290.01 1555.35 1291.55 1555.35 Q1292.13 1555.35 1292.36 1555.38 Q1292.58 1555.38 1292.81 1555.54 Q1293.07 1555.71 1293.07 1556.06 M1280.31 1540.09 L1278.22 1518.35 L1265.21 1540.09 L1280.31 1540.09 Z" fill="#000000" fill-rule="nonzero" fill-opacity="1" /><path clip-path="url(#clip180)" d="M1299.67 1497.93 Q1299.67 1490.13 1302.58 1483.84 Q1303.82 1481.2 1305.55 1479 Q1307.29 1476.79 1308.44 1475.82 Q1309.59 1474.85 1309.91 1474.85 Q1310.36 1474.85 1310.38 1475.3 Q1310.38 1475.52 1309.77 1476.09 Q1302.33 1483.66 1302.35 1497.93 Q1302.35 1512.25 1309.59 1519.53 Q1310.38 1520.32 1310.38 1520.57 Q1310.38 1521.02 1309.91 1521.02 Q1309.59 1521.02 1308.49 1520.09 Q1307.38 1519.17 1305.67 1517.05 Q1303.95 1514.93 1302.71 1512.34 Q1299.67 1506.05 1299.67 1497.93 Z" fill="#000000" fill-rule="nonzero" fill-opacity="1" /><path clip-path="url(#clip180)" d="M1314.81 1509.48 Q1314.81 1508.64 1314.88 1508.39 Q1314.97 1508.14 1315.33 1507.76 L1324.19 1497.89 Q1329.04 1492.43 1329.04 1487.67 Q1329.04 1484.59 1327.41 1482.38 Q1325.81 1480.17 1322.86 1480.17 Q1320.83 1480.17 1319.12 1481.41 Q1317.4 1482.65 1316.62 1484.86 Q1316.75 1484.81 1317.22 1484.81 Q1318.37 1484.81 1319.01 1485.53 Q1319.66 1486.25 1319.66 1487.22 Q1319.66 1488.46 1318.85 1489.07 Q1318.06 1489.66 1317.27 1489.66 Q1316.95 1489.66 1316.53 1489.59 Q1316.12 1489.52 1315.47 1488.89 Q1314.81 1488.24 1314.81 1487.09 Q1314.81 1483.86 1317.25 1481.29 Q1319.7 1478.72 1323.45 1478.72 Q1327.69 1478.72 1330.46 1481.25 Q1333.25 1483.75 1333.25 1487.67 Q1333.25 1489.05 1332.83 1490.31 Q1332.42 1491.55 1331.86 1492.52 Q1331.31 1493.49 1329.83 1495.05 Q1328.34 1496.6 1327.14 1497.71 Q1325.95 1498.81 1323.27 1501.16 L1318.37 1505.91 L1326.69 1505.91 Q1330.75 1505.91 1331.07 1505.55 Q1331.52 1504.9 1332.08 1501.45 L1333.25 1501.45 L1331.95 1509.48 L1314.81 1509.48 Z" fill="#000000" fill-rule="nonzero" fill-opacity="1" /><path clip-path="url(#clip180)" d="M1338.79 1520.57 Q1338.79 1520.34 1339.37 1519.78 Q1346.81 1512.2 1346.81 1497.93 Q1346.81 1483.62 1339.67 1476.38 Q1338.79 1475.55 1338.79 1475.3 Q1338.79 1474.85 1339.24 1474.85 Q1339.55 1474.85 1340.66 1475.77 Q1341.78 1476.7 1343.48 1478.82 Q1345.19 1480.93 1346.45 1483.53 Q1349.49 1489.82 1349.49 1497.93 Q1349.49 1505.73 1346.59 1512.02 Q1345.35 1514.66 1343.61 1516.87 Q1341.87 1519.08 1340.72 1520.05 Q1339.58 1521.02 1339.24 1521.02 Q1338.79 1521.02 1338.79 1520.57 Z" fill="#000000" fill-rule="nonzero" fill-opacity="1" /><path clip-path="url(#clip180)" d="M1363.56 1571.84 L1363.56 1509.94 Q1363.56 1507.98 1364.88 1507.98 Q1366.2 1507.98 1366.2 1510.04 L1366.2 1571.68 Q1366.2 1573.81 1364.88 1573.81 Q1363.56 1573.81 1363.56 1571.84 M1370.83 1571.84 L1370.83 1510.42 Q1370.83 1507.98 1372.15 1507.98 Q1373.47 1507.98 1373.47 1510.04 L1373.47 1571.68 Q1373.47 1573.81 1372.15 1573.81 Q1370.83 1573.81 1370.83 1571.84 Z" fill="#000000" fill-rule="nonzero" fill-opacity="1" /><path clip-path="url(#clip180)" d="M1380.41 1565.57 L1380.41 1564.13 Q1385.95 1564.13 1388.82 1561.17 Q1389.61 1561.17 1389.74 1561.35 Q1389.88 1561.53 1389.88 1562.37 L1389.88 1588.27 Q1389.88 1589.65 1390.55 1590.07 Q1391.23 1590.5 1394.18 1590.5 L1395.65 1590.5 L1395.65 1591.92 Q1394.02 1591.79 1388.16 1591.79 Q1382.3 1591.79 1380.7 1591.92 L1380.7 1590.5 L1382.17 1590.5 Q1385.07 1590.5 1385.77 1590.1 Q1386.47 1589.67 1386.47 1588.27 L1386.47 1564.35 Q1384.06 1565.57 1380.41 1565.57 Z" fill="#000000" fill-rule="nonzero" fill-opacity="1" /><polyline clip-path="url(#clip180)" style="stroke:#000000; stroke-linecap:round; stroke-linejoin:round; stroke-width:4; stroke-opacity:1; fill:none" points="264.939,1380.58 264.939,47.2441 "/>
<polyline clip-path="url(#clip180)" style="stroke:#000000; stroke-linecap:round; stroke-linejoin:round; stroke-width:4; stroke-opacity:1; fill:none" points="264.939,1220.23 283.837,1220.23 "/>
<polyline clip-path="url(#clip180)" style="stroke:#000000; stroke-linecap:round; stroke-linejoin:round; stroke-width:4; stroke-opacity:1; fill:none" points="264.939,1054.11 283.837,1054.11 "/>
<polyline clip-path="url(#clip180)" style="stroke:#000000; stroke-linecap:round; stroke-linejoin:round; stroke-width:4; stroke-opacity:1; fill:none" points="264.939,887.989 283.837,887.989 "/>
<polyline clip-path="url(#clip180)" style="stroke:#000000; stroke-linecap:round; stroke-linejoin:round; stroke-width:4; stroke-opacity:1; fill:none" points="264.939,721.868 283.837,721.868 "/>
<polyline clip-path="url(#clip180)" style="stroke:#000000; stroke-linecap:round; stroke-linejoin:round; stroke-width:4; stroke-opacity:1; fill:none" points="264.939,555.747 283.837,555.747 "/>
<polyline clip-path="url(#clip180)" style="stroke:#000000; stroke-linecap:round; stroke-linejoin:round; stroke-width:4; stroke-opacity:1; fill:none" points="264.939,389.627 283.837,389.627 "/>
<polyline clip-path="url(#clip180)" style="stroke:#000000; stroke-linecap:round; stroke-linejoin:round; stroke-width:4; stroke-opacity:1; fill:none" points="264.939,223.506 283.837,223.506 "/>
<polyline clip-path="url(#clip180)" style="stroke:#000000; stroke-linecap:round; stroke-linejoin:round; stroke-width:4; stroke-opacity:1; fill:none" points="264.939,57.3854 283.837,57.3854 "/>
<path clip-path="url(#clip180)" d="M128.235 1240.02 L135.874 1240.02 L135.874 1213.66 L127.564 1215.32 L127.564 1211.06 L135.828 1209.4 L140.504 1209.4 L140.504 1240.02 L148.143 1240.02 L148.143 1243.96 L128.235 1243.96 L128.235 1240.02 Z" fill="#000000" fill-rule="nonzero" fill-opacity="1" /><path clip-path="url(#clip180)" d="M167.587 1212.48 Q163.976 1212.48 162.147 1216.04 Q160.342 1219.58 160.342 1226.71 Q160.342 1233.82 162.147 1237.38 Q163.976 1240.93 167.587 1240.93 Q171.221 1240.93 173.027 1237.38 Q174.855 1233.82 174.855 1226.71 Q174.855 1219.58 173.027 1216.04 Q171.221 1212.48 167.587 1212.48 M167.587 1208.77 Q173.397 1208.77 176.453 1213.38 Q179.531 1217.96 179.531 1226.71 Q179.531 1235.44 176.453 1240.05 Q173.397 1244.63 167.587 1244.63 Q161.777 1244.63 158.698 1240.05 Q155.642 1235.44 155.642 1226.71 Q155.642 1217.96 158.698 1213.38 Q161.777 1208.77 167.587 1208.77 Z" fill="#000000" fill-rule="nonzero" fill-opacity="1" /><path clip-path="url(#clip180)" d="M179.531 1202.87 L203.643 1202.87 L203.643 1206.07 L179.531 1206.07 L179.531 1202.87 Z" fill="#000000" fill-rule="nonzero" fill-opacity="1" /><path clip-path="url(#clip180)" d="M210.884 1188.47 L228.939 1188.47 L228.939 1190.08 L218.745 1216.55 L214.777 1216.55 L224.369 1191.66 L210.884 1191.66 L210.884 1188.47 Z" fill="#000000" fill-rule="nonzero" fill-opacity="1" /><path clip-path="url(#clip180)" d="M127.37 1073.9 L135.009 1073.9 L135.009 1047.54 L126.699 1049.2 L126.699 1044.94 L134.963 1043.28 L139.639 1043.28 L139.639 1073.9 L147.277 1073.9 L147.277 1077.84 L127.37 1077.84 L127.37 1073.9 Z" fill="#000000" fill-rule="nonzero" fill-opacity="1" /><path clip-path="url(#clip180)" d="M166.722 1046.36 Q163.111 1046.36 161.282 1049.92 Q159.476 1053.46 159.476 1060.59 Q159.476 1067.7 161.282 1071.26 Q163.111 1074.8 166.722 1074.8 Q170.356 1074.8 172.161 1071.26 Q173.99 1067.7 173.99 1060.59 Q173.99 1053.46 172.161 1049.92 Q170.356 1046.36 166.722 1046.36 M166.722 1042.65 Q172.532 1042.65 175.587 1047.26 Q178.666 1051.84 178.666 1060.59 Q178.666 1069.32 175.587 1073.93 Q172.532 1078.51 166.722 1078.51 Q160.912 1078.51 157.833 1073.93 Q154.777 1069.32 154.777 1060.59 Q154.777 1051.84 157.833 1047.26 Q160.912 1042.65 166.722 1042.65 Z" fill="#000000" fill-rule="nonzero" fill-opacity="1" /><path clip-path="url(#clip180)" d="M178.666 1036.75 L202.778 1036.75 L202.778 1039.95 L178.666 1039.95 L178.666 1036.75 Z" fill="#000000" fill-rule="nonzero" fill-opacity="1" /><path clip-path="url(#clip180)" d="M219.573 1034.87 Q217.015 1034.87 215.511 1036.62 Q214.025 1038.37 214.025 1041.42 Q214.025 1044.45 215.511 1046.21 Q217.015 1047.96 219.573 1047.96 Q222.131 1047.96 223.617 1046.21 Q225.121 1044.45 225.121 1041.42 Q225.121 1038.37 223.617 1036.62 Q222.131 1034.87 219.573 1034.87 M227.115 1022.97 L227.115 1026.43 Q225.686 1025.75 224.219 1025.39 Q222.77 1025.04 221.341 1025.04 Q217.579 1025.04 215.586 1027.58 Q213.611 1030.11 213.329 1035.25 Q214.438 1033.61 216.112 1032.75 Q217.786 1031.86 219.799 1031.86 Q224.03 1031.86 226.475 1034.44 Q228.939 1037 228.939 1041.42 Q228.939 1045.74 226.381 1048.36 Q223.824 1050.97 219.573 1050.97 Q214.702 1050.97 212.125 1047.25 Q209.548 1043.51 209.548 1036.41 Q209.548 1029.76 212.708 1025.81 Q215.868 1021.84 221.19 1021.84 Q222.62 1021.84 224.068 1022.12 Q225.535 1022.4 227.115 1022.97 Z" fill="#000000" fill-rule="nonzero" fill-opacity="1" /><path clip-path="url(#clip180)" d="M128.31 907.781 L135.949 907.781 L135.949 881.416 L127.639 883.082 L127.639 878.823 L135.903 877.156 L140.579 877.156 L140.579 907.781 L148.218 907.781 L148.218 911.716 L128.31 911.716 L128.31 907.781 Z" fill="#000000" fill-rule="nonzero" fill-opacity="1" /><path clip-path="url(#clip180)" d="M167.662 880.235 Q164.051 880.235 162.222 883.8 Q160.417 887.342 160.417 894.471 Q160.417 901.578 162.222 905.142 Q164.051 908.684 167.662 908.684 Q171.296 908.684 173.102 905.142 Q174.931 901.578 174.931 894.471 Q174.931 887.342 173.102 883.8 Q171.296 880.235 167.662 880.235 M167.662 876.531 Q173.472 876.531 176.528 881.138 Q179.606 885.721 179.606 894.471 Q179.606 903.198 176.528 907.804 Q173.472 912.388 167.662 912.388 Q161.852 912.388 158.773 907.804 Q155.718 903.198 155.718 894.471 Q155.718 885.721 158.773 881.138 Q161.852 876.531 167.662 876.531 Z" fill="#000000" fill-rule="nonzero" fill-opacity="1" /><path clip-path="url(#clip180)" d="M179.606 870.633 L203.718 870.633 L203.718 873.83 L179.606 873.83 L179.606 870.633 Z" fill="#000000" fill-rule="nonzero" fill-opacity="1" /><path clip-path="url(#clip180)" d="M211.956 856.226 L226.87 856.226 L226.87 859.423 L215.435 859.423 L215.435 866.307 Q216.263 866.025 217.09 865.893 Q217.918 865.743 218.745 865.743 Q223.447 865.743 226.193 868.319 Q228.939 870.896 228.939 875.297 Q228.939 879.83 226.118 882.35 Q223.297 884.851 218.162 884.851 Q216.394 884.851 214.551 884.551 Q212.727 884.25 210.771 883.648 L210.771 879.83 Q212.464 880.751 214.269 881.203 Q216.075 881.654 218.087 881.654 Q221.341 881.654 223.241 879.943 Q225.14 878.231 225.14 875.297 Q225.14 872.363 223.241 870.652 Q221.341 868.94 218.087 868.94 Q216.564 868.94 215.04 869.279 Q213.536 869.617 211.956 870.332 L211.956 856.226 Z" fill="#000000" fill-rule="nonzero" fill-opacity="1" /><path clip-path="url(#clip180)" d="M127.107 741.661 L134.746 741.661 L134.746 715.295 L126.435 716.962 L126.435 712.702 L134.699 711.036 L139.375 711.036 L139.375 741.661 L147.014 741.661 L147.014 745.596 L127.107 745.596 L127.107 741.661 Z" fill="#000000" fill-rule="nonzero" fill-opacity="1" /><path clip-path="url(#clip180)" d="M166.458 714.114 Q162.847 714.114 161.019 717.679 Q159.213 721.221 159.213 728.35 Q159.213 735.457 161.019 739.022 Q162.847 742.563 166.458 742.563 Q170.093 742.563 171.898 739.022 Q173.727 735.457 173.727 728.35 Q173.727 721.221 171.898 717.679 Q170.093 714.114 166.458 714.114 M166.458 710.411 Q172.269 710.411 175.324 715.017 Q178.403 719.6 178.403 728.35 Q178.403 737.077 175.324 741.684 Q172.269 746.267 166.458 746.267 Q160.648 746.267 157.57 741.684 Q154.514 737.077 154.514 728.35 Q154.514 719.6 157.57 715.017 Q160.648 710.411 166.458 710.411 Z" fill="#000000" fill-rule="nonzero" fill-opacity="1" /><path clip-path="url(#clip180)" d="M178.403 704.512 L202.514 704.512 L202.514 707.709 L178.403 707.709 L178.403 704.512 Z" fill="#000000" fill-rule="nonzero" fill-opacity="1" /><path clip-path="url(#clip180)" d="M221.153 693.415 L211.561 708.405 L221.153 708.405 L221.153 693.415 M220.156 690.105 L224.933 690.105 L224.933 708.405 L228.939 708.405 L228.939 711.565 L224.933 711.565 L224.933 718.185 L221.153 718.185 L221.153 711.565 L208.476 711.565 L208.476 707.897 L220.156 690.105 Z" fill="#000000" fill-rule="nonzero" fill-opacity="1" /><path clip-path="url(#clip180)" d="M128.028 575.54 L135.667 575.54 L135.667 549.174 L127.357 550.841 L127.357 546.582 L135.621 544.915 L140.297 544.915 L140.297 575.54 L147.936 575.54 L147.936 579.475 L128.028 579.475 L128.028 575.54 Z" fill="#000000" fill-rule="nonzero" fill-opacity="1" /><path clip-path="url(#clip180)" d="M167.38 547.994 Q163.769 547.994 161.94 551.559 Q160.135 555.1 160.135 562.23 Q160.135 569.336 161.94 572.901 Q163.769 576.443 167.38 576.443 Q171.014 576.443 172.82 572.901 Q174.648 569.336 174.648 562.23 Q174.648 555.1 172.82 551.559 Q171.014 547.994 167.38 547.994 M167.38 544.29 Q173.19 544.29 176.246 548.896 Q179.324 553.48 179.324 562.23 Q179.324 570.957 176.246 575.563 Q173.19 580.146 167.38 580.146 Q161.57 580.146 158.491 575.563 Q155.436 570.957 155.436 562.23 Q155.436 553.48 158.491 548.896 Q161.57 544.29 167.38 544.29 Z" fill="#000000" fill-rule="nonzero" fill-opacity="1" /><path clip-path="url(#clip180)" d="M179.324 538.391 L203.436 538.391 L203.436 541.589 L179.324 541.589 L179.324 538.391 Z" fill="#000000" fill-rule="nonzero" fill-opacity="1" /><path clip-path="url(#clip180)" d="M223.146 536.924 Q225.874 537.507 227.397 539.351 Q228.939 541.194 228.939 543.902 Q228.939 548.059 226.08 550.334 Q223.222 552.61 217.956 552.61 Q216.188 552.61 214.307 552.253 Q212.445 551.914 210.451 551.218 L210.451 547.551 Q212.031 548.472 213.912 548.943 Q215.793 549.413 217.843 549.413 Q221.416 549.413 223.278 548.002 Q225.159 546.592 225.159 543.902 Q225.159 541.419 223.41 540.028 Q221.679 538.617 218.576 538.617 L215.304 538.617 L215.304 535.495 L218.727 535.495 Q221.529 535.495 223.015 534.385 Q224.501 533.257 224.501 531.15 Q224.501 528.987 222.958 527.84 Q221.435 526.674 218.576 526.674 Q217.015 526.674 215.228 527.013 Q213.442 527.351 211.298 528.066 L211.298 524.681 Q213.46 524.079 215.341 523.778 Q217.241 523.477 218.915 523.477 Q223.241 523.477 225.761 525.452 Q228.281 527.408 228.281 530.755 Q228.281 533.088 226.946 534.705 Q225.61 536.304 223.146 536.924 Z" fill="#000000" fill-rule="nonzero" fill-opacity="1" /><path clip-path="url(#clip180)" d="M128.799 409.419 L136.438 409.419 L136.438 383.054 L128.128 384.72 L128.128 380.461 L136.392 378.794 L141.068 378.794 L141.068 409.419 L148.707 409.419 L148.707 413.354 L128.799 413.354 L128.799 409.419 Z" fill="#000000" fill-rule="nonzero" fill-opacity="1" /><path clip-path="url(#clip180)" d="M168.151 381.873 Q164.54 381.873 162.711 385.438 Q160.906 388.979 160.906 396.109 Q160.906 403.216 162.711 406.78 Q164.54 410.322 168.151 410.322 Q171.785 410.322 173.591 406.78 Q175.42 403.216 175.42 396.109 Q175.42 388.979 173.591 385.438 Q171.785 381.873 168.151 381.873 M168.151 378.169 Q173.961 378.169 177.017 382.776 Q180.095 387.359 180.095 396.109 Q180.095 404.836 177.017 409.442 Q173.961 414.026 168.151 414.026 Q162.341 414.026 159.262 409.442 Q156.207 404.836 156.207 396.109 Q156.207 387.359 159.262 382.776 Q162.341 378.169 168.151 378.169 Z" fill="#000000" fill-rule="nonzero" fill-opacity="1" /><path clip-path="url(#clip180)" d="M180.095 372.271 L204.207 372.271 L204.207 375.468 L180.095 375.468 L180.095 372.271 Z" fill="#000000" fill-rule="nonzero" fill-opacity="1" /><path clip-path="url(#clip180)" d="M215.68 382.747 L228.939 382.747 L228.939 385.944 L211.109 385.944 L211.109 382.747 Q213.272 380.508 216.996 376.747 Q220.739 372.967 221.698 371.876 Q223.523 369.826 224.237 368.415 Q224.971 366.986 224.971 365.613 Q224.971 363.375 223.391 361.964 Q221.83 360.553 219.31 360.553 Q217.523 360.553 215.529 361.174 Q213.555 361.795 211.298 363.055 L211.298 359.218 Q213.592 358.297 215.586 357.826 Q217.579 357.356 219.234 357.356 Q223.598 357.356 226.193 359.538 Q228.789 361.72 228.789 365.368 Q228.789 367.099 228.131 368.66 Q227.491 370.202 225.78 372.308 Q225.309 372.854 222.789 375.468 Q220.269 378.063 215.68 382.747 Z" fill="#000000" fill-rule="nonzero" fill-opacity="1" /><path clip-path="url(#clip180)" d="M128.499 243.298 L136.137 243.298 L136.137 216.933 L127.827 218.6 L127.827 214.34 L136.091 212.674 L140.767 212.674 L140.767 243.298 L148.406 243.298 L148.406 247.234 L128.499 247.234 L128.499 243.298 Z" fill="#000000" fill-rule="nonzero" fill-opacity="1" /><path clip-path="url(#clip180)" d="M167.85 215.752 Q164.239 215.752 162.41 219.317 Q160.605 222.859 160.605 229.988 Q160.605 237.095 162.41 240.66 Q164.239 244.201 167.85 244.201 Q171.484 244.201 173.29 240.66 Q175.119 237.095 175.119 229.988 Q175.119 222.859 173.29 219.317 Q171.484 215.752 167.85 215.752 M167.85 212.049 Q173.66 212.049 176.716 216.655 Q179.795 221.238 179.795 229.988 Q179.795 238.715 176.716 243.322 Q173.66 247.905 167.85 247.905 Q162.04 247.905 158.961 243.322 Q155.906 238.715 155.906 229.988 Q155.906 221.238 158.961 216.655 Q162.04 212.049 167.85 212.049 Z" fill="#000000" fill-rule="nonzero" fill-opacity="1" /><path clip-path="url(#clip180)" d="M179.795 206.15 L203.906 206.15 L203.906 209.347 L179.795 209.347 L179.795 206.15 Z" fill="#000000" fill-rule="nonzero" fill-opacity="1" /><path clip-path="url(#clip180)" d="M212.765 216.626 L218.971 216.626 L218.971 195.204 L212.219 196.558 L212.219 193.097 L218.934 191.743 L222.733 191.743 L222.733 216.626 L228.939 216.626 L228.939 219.823 L212.765 219.823 L212.765 216.626 Z" fill="#000000" fill-rule="nonzero" fill-opacity="1" /><path clip-path="url(#clip180)" d="M158.234 77.1778 L165.872 77.1778 L165.872 50.8122 L157.562 52.4789 L157.562 48.2196 L165.826 46.553 L170.502 46.553 L170.502 77.1778 L178.141 77.1778 L178.141 81.113 L158.234 81.113 L158.234 77.1778 Z" fill="#000000" fill-rule="nonzero" fill-opacity="1" /><path clip-path="url(#clip180)" d="M197.585 49.6316 Q193.974 49.6316 192.145 53.1964 Q190.34 56.7381 190.34 63.8677 Q190.34 70.9741 192.145 74.5389 Q193.974 78.0806 197.585 78.0806 Q201.22 78.0806 203.025 74.5389 Q204.854 70.9741 204.854 63.8677 Q204.854 56.7381 203.025 53.1964 Q201.22 49.6316 197.585 49.6316 M197.585 45.928 Q203.395 45.928 206.451 50.5344 Q209.53 55.1177 209.53 63.8677 Q209.53 72.5945 206.451 77.2009 Q203.395 81.7843 197.585 81.7843 Q191.775 81.7843 188.696 77.2009 Q185.641 72.5945 185.641 63.8677 Q185.641 55.1177 188.696 50.5344 Q191.775 45.928 197.585 45.928 Z" fill="#000000" fill-rule="nonzero" fill-opacity="1" /><path clip-path="url(#clip180)" d="M219.234 28.124 Q216.3 28.124 214.815 31.0204 Q213.348 33.898 213.348 39.6908 Q213.348 45.4648 214.815 48.3612 Q216.3 51.2387 219.234 51.2387 Q222.187 51.2387 223.654 48.3612 Q225.14 45.4648 225.14 39.6908 Q225.14 33.898 223.654 31.0204 Q222.187 28.124 219.234 28.124 M219.234 25.1147 Q223.955 25.1147 226.438 28.8575 Q228.939 32.5814 228.939 39.6908 Q228.939 46.7813 226.438 50.524 Q223.955 54.248 219.234 54.248 Q214.514 54.248 212.012 50.524 Q209.53 46.7813 209.53 39.6908 Q209.53 32.5814 212.012 28.8575 Q214.514 25.1147 219.234 25.1147 Z" fill="#000000" fill-rule="nonzero" fill-opacity="1" /><path clip-path="url(#clip180)" d="M42.4583 1127.65 L40.3971 1127.65 Q40.3971 1119.73 36.1782 1115.64 Q36.1782 1114.51 36.4358 1114.32 Q36.6935 1114.12 37.8851 1114.12 L74.8896 1114.12 Q76.8542 1114.12 77.4661 1113.16 Q78.078 1112.19 78.078 1107.97 L78.078 1105.88 L80.107 1105.88 Q79.9137 1108.2 79.9137 1116.57 Q79.9137 1124.94 80.107 1127.23 L78.078 1127.23 L78.078 1125.14 Q78.078 1120.98 77.4983 1119.99 Q76.8864 1118.99 74.8896 1118.99 L40.7192 1118.99 Q42.4583 1122.43 42.4583 1127.65 Z" fill="#000000" fill-rule="nonzero" fill-opacity="1" /><path clip-path="url(#clip180)" d="M62.6836 1033.14 Q63.0701 1032.75 63.6176 1032.75 Q64.1651 1032.75 64.5515 1033.14 Q64.938 1033.53 64.938 1034.08 L64.938 1075.36 Q64.938 1075.91 64.5515 1076.3 Q64.1651 1076.68 63.6176 1076.68 Q63.0701 1076.68 62.6836 1076.3 Q62.2971 1075.91 62.2971 1075.36 L62.2971 1034.08 Q62.2971 1033.53 62.6836 1033.14 Z" fill="#000000" fill-rule="nonzero" fill-opacity="1" /><path clip-path="url(#clip180)" d="M94.5674 1007.57 L33.1508 1007.57 Q30.7032 1007.57 30.7032 1006.25 Q30.7032 1004.93 32.6677 1004.93 L94.0843 1004.93 Q96.5319 1004.93 96.5319 1006.25 Q96.5319 1007.57 94.5674 1007.57 Z" fill="#000000" fill-rule="nonzero" fill-opacity="1" /><path clip-path="url(#clip180)" d="M95.2759 965.43 Q95.8234 965.43 96.2099 965.816 Q96.5964 966.203 96.5964 966.75 Q96.5964 967.684 95.7268 968.006 L64.0684 980.277 Q63.9396 980.341 63.6176 980.341 Q63.2955 980.341 63.1667 980.277 L31.5083 968.006 Q30.6388 967.684 30.6388 966.75 Q30.6388 966.203 31.0252 965.816 Q31.4117 965.43 31.9592 965.43 Q32.2813 965.43 32.4101 965.494 L63.6176 977.636 L94.825 965.494 Q94.9539 965.43 95.2759 965.43 Z" fill="#000000" fill-rule="nonzero" fill-opacity="1" /><path clip-path="url(#clip180)" d="M37.0477 907.124 L48.4486 908.445 Q49.4792 908.541 49.8012 908.702 Q50.0911 908.863 50.0911 909.379 Q50.0911 909.765 49.8657 909.991 Q49.608 910.184 49.3182 910.184 Q49.1571 910.184 48.7384 910.152 Q48.3198 910.119 48.1265 910.119 Q46.1298 909.83 44.6161 909.83 Q41.8142 909.83 40.3005 910.667 Q38.7546 911.504 38.0461 913.662 Q37.3054 915.82 37.3054 919.878 L37.3054 929.153 Q37.3054 931.279 37.6918 931.794 Q38.0783 932.277 39.8818 932.728 L55.7593 936.689 L55.7593 930.474 Q55.7593 928.155 55.4695 926.77 Q55.1796 925.353 54.3745 924.419 Q53.5371 923.453 52.4099 922.937 Q51.2827 922.39 49.2537 921.842 Q48.5774 921.681 48.3198 921.52 Q48.0621 921.327 48.0621 920.908 Q48.0621 920.586 48.2876 920.361 Q48.4808 920.135 48.7707 920.135 L64.1973 923.904 Q64.9702 924.097 65.2601 924.29 Q65.5177 924.483 65.5177 924.87 Q65.5177 925.288 65.2923 925.514 Q65.0668 925.739 64.8092 925.739 Q64.5515 925.739 64.0684 925.546 Q61.9751 925.063 60.8478 925.063 Q60.2037 925.063 59.8817 925.127 Q59.5596 925.16 59.1087 925.449 Q58.6256 925.707 58.4002 926.287 Q58.1748 926.866 58.0137 927.961 Q57.8205 929.056 57.8205 930.699 L57.8205 937.205 L75.8236 941.713 Q77.0152 942.035 77.3373 942.035 Q77.6915 942.035 77.8203 941.874 Q77.917 941.681 77.9814 941.166 Q78.078 940.586 78.078 939.717 L78.078 930.087 Q78.078 927.961 77.8847 926.255 Q77.6915 924.548 77.2084 923.131 Q76.7253 921.681 76.1778 920.586 Q75.6303 919.491 74.632 918.461 Q73.6014 917.43 72.6996 916.722 Q71.7656 915.981 70.1875 915.111 Q68.6095 914.242 67.3212 913.63 Q66.0008 913.018 63.8752 912.084 Q63.1023 911.826 63.1023 911.214 Q63.1023 910.86 63.2955 910.667 Q63.4565 910.474 63.6176 910.441 L63.8108 910.441 Q64.4227 910.635 64.7448 910.764 L78.9797 916.818 Q79.7849 917.173 79.9459 917.462 Q80.107 917.752 80.107 918.879 L80.107 953.114 Q80.107 953.887 80.0747 954.209 Q80.0425 954.499 79.8815 954.725 Q79.6883 954.95 79.3018 954.95 Q78.6899 954.95 78.4322 954.692 Q78.1424 954.435 78.1102 954.145 Q78.078 953.855 78.078 953.114 Q78.078 951.504 77.9814 950.538 Q77.8847 949.572 77.7559 948.96 Q77.5949 948.316 77.144 947.994 Q76.6931 947.639 76.3067 947.478 Q75.888 947.317 74.954 947.092 L40.0751 938.396 Q38.8835 938.074 38.497 938.074 Q38.0783 938.074 37.8207 938.364 Q37.563 938.622 37.4664 939.33 Q37.3376 940.039 37.3376 940.618 Q37.3054 941.166 37.3054 942.357 Q37.3054 943.13 37.2732 943.452 Q37.241 943.742 37.0799 943.968 Q36.9189 944.193 36.5646 944.193 Q35.6629 944.193 35.4696 943.807 Q35.2442 943.388 35.2442 942.229 L35.2442 908.928 Q35.2442 907.607 35.534 907.318 Q35.7917 906.995 37.0477 907.124 Z" fill="#000000" fill-rule="nonzero" fill-opacity="1" /><path clip-path="url(#clip180)" d="M98.3835 900.426 Q97.5494 900.426 97.3014 900.358 Q97.0534 900.268 96.6702 899.907 L86.7958 891.047 Q81.3402 886.2 76.5834 886.2 Q73.4948 886.2 71.2855 887.823 Q69.0762 889.424 69.0762 892.377 Q69.0762 894.406 70.3161 896.12 Q71.556 897.833 73.7654 898.622 Q73.7203 898.487 73.7203 898.013 Q73.7203 896.864 74.4417 896.232 Q75.1631 895.579 76.1325 895.579 Q77.3724 895.579 77.9811 896.39 Q78.5673 897.179 78.5673 897.968 Q78.5673 898.284 78.4996 898.712 Q78.432 899.118 77.8008 899.772 Q77.147 900.426 75.9972 900.426 Q72.7734 900.426 70.2034 897.991 Q67.6334 895.534 67.6334 891.791 Q67.6334 887.553 70.1583 884.78 Q72.6607 881.985 76.5834 881.985 Q77.9586 881.985 79.221 882.413 Q80.461 882.819 81.4304 883.382 Q82.3997 883.923 83.9553 885.411 Q85.5108 886.899 86.6155 888.094 Q87.7202 889.289 90.0647 891.972 L94.8215 896.864 L94.8215 888.545 Q94.8215 884.487 94.4608 884.171 Q93.8071 883.72 90.3578 883.157 L90.3578 881.985 L98.3835 883.292 L98.3835 900.426 Z" fill="#000000" fill-rule="nonzero" fill-opacity="1" /><path clip-path="url(#clip180)" d="M72.0295 878.338 L70.5866 878.338 Q70.5866 872.792 67.6334 869.929 Q67.6334 869.14 67.8137 869.005 Q67.9941 868.869 68.8282 868.869 L94.7314 868.869 Q96.1066 868.869 96.5349 868.193 Q96.9632 867.517 96.9632 864.563 L96.9632 863.098 L98.3835 863.098 Q98.2483 864.721 98.2483 870.583 Q98.2483 876.444 98.3835 878.045 L96.9632 878.045 L96.9632 876.579 Q96.9632 873.671 96.5574 872.972 Q96.1291 872.273 94.7314 872.273 L70.8121 872.273 Q72.0295 874.686 72.0295 878.338 Z" fill="#000000" fill-rule="nonzero" fill-opacity="1" /><path clip-path="url(#clip180)" d="M90.944 859.576 Q89.5688 859.576 89.0503 858.832 Q88.5092 858.088 88.5092 857.299 Q88.5092 856.24 89.1855 855.631 Q89.8393 855 90.7636 855 Q91.6879 855 92.3642 855.631 Q93.018 856.24 93.018 857.299 Q93.018 857.818 92.9278 858.088 Q95.047 857.48 96.58 855.631 Q98.113 853.76 98.113 851.303 Q98.113 848.214 95.1146 846.365 Q93.1758 845.261 88.7797 845.261 Q84.9021 845.261 82.9634 846.095 Q80.0101 847.38 80.0101 850.018 Q80.0101 853.76 83.2339 855.969 Q83.6397 856.24 83.6622 856.555 Q83.6622 857.006 83.4142 857.119 Q83.1437 857.209 82.4448 857.209 L68.7831 857.209 Q67.6784 857.209 67.6784 856.758 Q67.6784 856.578 67.8137 856.195 Q69.0987 853.287 69.1213 850.063 Q69.1213 846.749 67.7686 843.773 Q67.6334 843.547 67.6334 843.412 Q67.6334 842.961 68.1519 842.939 Q68.3322 842.939 68.8733 843.322 Q69.3918 843.683 70.0907 844.472 Q70.767 845.261 71.4208 846.275 Q72.0745 847.29 72.5254 848.778 Q72.9538 850.243 72.9538 851.866 Q72.9538 853.805 72.3451 855.789 L81.3402 855.789 Q78.9956 853.399 78.9956 849.927 Q78.9956 846.23 81.9714 843.683 Q84.9472 841.135 89.0953 841.135 Q93.4464 841.135 96.4222 844.156 Q99.398 847.155 99.398 851.212 Q99.398 854.91 96.7603 857.254 Q94.1227 859.576 90.944 859.576 Z" fill="#000000" fill-rule="nonzero" fill-opacity="1" /><path clip-path="url(#clip180)" d="M63.6176 829.671 Q52.4743 829.671 43.4889 825.517 Q39.7208 823.746 36.5646 821.266 Q33.4085 818.786 32.0236 817.143 Q30.6388 815.501 30.6388 815.05 Q30.6388 814.406 31.2829 814.374 Q31.6049 814.374 32.4101 815.243 Q43.2312 825.871 63.6176 825.839 Q84.0683 825.839 94.4708 815.501 Q95.598 814.374 95.9522 814.374 Q96.5964 814.374 96.5964 815.05 Q96.5964 815.501 95.2759 817.079 Q93.9555 818.657 90.9281 821.105 Q87.9008 823.552 84.1971 825.324 Q75.2117 829.671 63.6176 829.671 Z" fill="#000000" fill-rule="nonzero" fill-opacity="1" /><path clip-path="url(#clip180)" d="M35.7917 761.284 Q37.1121 761.284 37.1121 762.379 Q37.1765 764.311 37.563 765.632 Q37.9173 766.952 38.6258 767.725 Q39.3343 768.466 40.1073 768.885 Q40.848 769.271 41.9752 769.529 L65.3889 775.39 Q71.9911 777.065 76.7898 782.475 Q81.5562 787.886 81.5562 794.037 Q81.5562 797.548 80.107 800.478 Q78.6577 803.377 75.727 805.181 Q72.7962 806.984 68.8993 806.984 Q67.0314 806.984 65.0668 806.501 L48.7707 802.507 L42.9736 801.026 Q38.6902 799.931 38.3037 799.931 Q37.6918 799.931 37.5308 800.317 Q37.3376 800.672 37.241 801.702 L37.1121 804.214 Q37.1121 804.987 37.0799 805.309 Q37.0477 805.599 36.8867 805.825 Q36.7257 806.05 36.3714 806.05 Q35.9205 806.05 35.6307 805.953 Q35.3086 805.825 35.212 805.599 Q35.1154 805.374 35.0832 805.213 Q35.051 805.052 35.051 804.794 L35.2442 796.292 L35.051 787.854 Q35.051 786.92 35.7917 786.92 Q36.7257 786.92 36.9189 787.339 Q37.1121 787.757 37.1121 789.174 Q37.1121 791.59 37.4342 792.685 Q37.724 793.747 38.2393 794.07 Q38.7224 794.359 40.1395 794.714 L65.8076 801.123 Q67.0958 801.445 68.384 801.638 Q69.64 801.799 70.2842 801.799 L70.9283 801.831 Q75.0184 801.831 77.2728 799.577 Q79.5272 797.29 79.5272 793.78 Q79.5272 788.627 75.4371 783.828 Q71.347 778.997 64.938 777.355 L41.3955 771.429 Q40.8158 771.236 40.0107 771.236 Q38.7224 771.236 37.9495 772.202 Q37.1443 773.136 37.1121 775.712 Q37.1121 776.904 36.3714 776.904 Q35.7595 776.904 35.4696 776.678 Q35.1476 776.421 35.1154 776.227 Q35.051 776.002 35.051 775.712 Q35.051 774.617 35.1476 772.298 Q35.2442 769.98 35.2442 768.852 Q35.2442 767.725 35.1476 765.471 Q35.051 763.216 35.051 762.121 Q35.051 761.735 35.2442 761.542 Q35.4052 761.316 35.5985 761.284 L35.7917 761.284 Z" fill="#000000" fill-rule="nonzero" fill-opacity="1" /><path clip-path="url(#clip180)" d="M95.9522 756.318 Q95.6302 756.318 94.825 755.481 Q84.0039 744.853 63.6176 744.853 Q43.1668 744.853 32.8287 755.062 Q31.6371 756.318 31.2829 756.318 Q30.6388 756.318 30.6388 755.674 Q30.6388 755.223 31.9592 753.645 Q33.2796 752.035 36.307 749.619 Q39.3343 747.172 43.038 745.368 Q52.0234 741.02 63.6176 741.02 Q74.7608 741.02 83.7462 745.175 Q87.5143 746.946 90.6705 749.426 Q93.8267 751.906 95.2115 753.548 Q96.5964 755.191 96.5964 755.674 Q96.5964 756.318 95.9522 756.318 Z" fill="#000000" fill-rule="nonzero" fill-opacity="1" /><path clip-path="url(#clip180)" d="M94.5674 727.295 L33.1508 727.295 Q30.7032 727.295 30.7032 725.974 Q30.7032 724.654 32.6677 724.654 L94.0843 724.654 Q96.5319 724.654 96.5319 725.974 Q96.5319 727.295 94.5674 727.295 Z" fill="#000000" fill-rule="nonzero" fill-opacity="1" /><path clip-path="url(#clip180)" d="M37.0477 652.244 L48.4486 653.564 Q49.4792 653.661 49.8012 653.822 Q50.0911 653.983 50.0911 654.498 Q50.0911 654.884 49.8657 655.11 Q49.608 655.303 49.3182 655.303 Q49.1571 655.303 48.7384 655.271 Q48.3198 655.239 48.1265 655.239 Q46.1298 654.949 44.6161 654.949 Q41.8142 654.949 40.3005 655.786 Q38.7546 656.624 38.0461 658.781 Q37.3054 660.939 37.3054 664.997 L37.3054 674.272 Q37.3054 676.398 37.6918 676.913 Q38.0783 677.396 39.8818 677.847 L55.7593 681.808 L55.7593 675.593 Q55.7593 673.274 55.4695 671.889 Q55.1796 670.472 54.3745 669.538 Q53.5371 668.572 52.4099 668.057 Q51.2827 667.509 49.2537 666.962 Q48.5774 666.801 48.3198 666.64 Q48.0621 666.446 48.0621 666.028 Q48.0621 665.706 48.2876 665.48 Q48.4808 665.255 48.7707 665.255 L64.1973 669.023 Q64.9702 669.216 65.2601 669.409 Q65.5177 669.602 65.5177 669.989 Q65.5177 670.408 65.2923 670.633 Q65.0668 670.858 64.8092 670.858 Q64.5515 670.858 64.0684 670.665 Q61.9751 670.182 60.8478 670.182 Q60.2037 670.182 59.8817 670.247 Q59.5596 670.279 59.1087 670.569 Q58.6256 670.826 58.4002 671.406 Q58.1748 671.986 58.0137 673.081 Q57.8205 674.176 57.8205 675.818 L57.8205 682.324 L75.8236 686.833 Q77.0152 687.155 77.3373 687.155 Q77.6915 687.155 77.8203 686.994 Q77.917 686.8 77.9814 686.285 Q78.078 685.705 78.078 684.836 L78.078 675.206 Q78.078 673.081 77.8847 671.374 Q77.6915 669.667 77.2084 668.25 Q76.7253 666.801 76.1778 665.706 Q75.6303 664.611 74.632 663.58 Q73.6014 662.549 72.6996 661.841 Q71.7656 661.1 70.1875 660.231 Q68.6095 659.361 67.3212 658.749 Q66.0008 658.137 63.8752 657.203 Q63.1023 656.946 63.1023 656.334 Q63.1023 655.979 63.2955 655.786 Q63.4565 655.593 63.6176 655.561 L63.8108 655.561 Q64.4227 655.754 64.7448 655.883 L78.9797 661.937 Q79.7849 662.292 79.9459 662.582 Q80.107 662.871 80.107 663.999 L80.107 698.233 Q80.107 699.006 80.0747 699.328 Q80.0425 699.618 79.8815 699.844 Q79.6883 700.069 79.3018 700.069 Q78.6899 700.069 78.4322 699.812 Q78.1424 699.554 78.1102 699.264 Q78.078 698.974 78.078 698.233 Q78.078 696.623 77.9814 695.657 Q77.8847 694.691 77.7559 694.079 Q77.5949 693.435 77.144 693.113 Q76.6931 692.758 76.3067 692.597 Q75.888 692.436 74.954 692.211 L40.0751 683.515 Q38.8835 683.193 38.497 683.193 Q38.0783 683.193 37.8207 683.483 Q37.563 683.741 37.4664 684.449 Q37.3376 685.158 37.3376 685.738 Q37.3054 686.285 37.3054 687.477 Q37.3054 688.25 37.2732 688.572 Q37.241 688.862 37.0799 689.087 Q36.9189 689.312 36.5646 689.312 Q35.6629 689.312 35.4696 688.926 Q35.2442 688.507 35.2442 687.348 L35.2442 654.047 Q35.2442 652.727 35.534 652.437 Q35.7917 652.115 37.0477 652.244 Z" fill="#000000" fill-rule="nonzero" fill-opacity="1" /><path clip-path="url(#clip180)" d="M98.3835 645.545 Q97.5494 645.545 97.3014 645.477 Q97.0534 645.387 96.6702 645.026 L86.7958 636.166 Q81.3402 631.32 76.5834 631.32 Q73.4948 631.32 71.2855 632.943 Q69.0762 634.543 69.0762 637.497 Q69.0762 639.526 70.3161 641.239 Q71.556 642.952 73.7654 643.741 Q73.7203 643.606 73.7203 643.133 Q73.7203 641.983 74.4417 641.352 Q75.1631 640.698 76.1325 640.698 Q77.3724 640.698 77.9811 641.509 Q78.5673 642.298 78.5673 643.088 Q78.5673 643.403 78.4996 643.831 Q78.432 644.237 77.8008 644.891 Q77.147 645.545 75.9972 645.545 Q72.7734 645.545 70.2034 643.11 Q67.6334 640.653 67.6334 636.91 Q67.6334 632.672 70.1583 629.899 Q72.6607 627.104 76.5834 627.104 Q77.9586 627.104 79.221 627.532 Q80.461 627.938 81.4304 628.501 Q82.3997 629.043 83.9553 630.53 Q85.5108 632.018 86.6155 633.213 Q87.7202 634.408 90.0647 637.091 L94.8215 641.983 L94.8215 633.664 Q94.8215 629.606 94.4608 629.291 Q93.8071 628.84 90.3578 628.276 L90.3578 627.104 L98.3835 628.411 L98.3835 645.545 Z" fill="#000000" fill-rule="nonzero" fill-opacity="1" /><path clip-path="url(#clip180)" d="M72.0295 623.457 L70.5866 623.457 Q70.5866 617.911 67.6334 615.048 Q67.6334 614.259 67.8137 614.124 Q67.9941 613.988 68.8282 613.988 L94.7314 613.988 Q96.1066 613.988 96.5349 613.312 Q96.9632 612.636 96.9632 609.683 L96.9632 608.217 L98.3835 608.217 Q98.2483 609.84 98.2483 615.702 Q98.2483 621.563 98.3835 623.164 L96.9632 623.164 L96.9632 621.699 Q96.9632 618.79 96.5574 618.091 Q96.1291 617.393 94.7314 617.393 L70.8121 617.393 Q72.0295 619.805 72.0295 623.457 Z" fill="#000000" fill-rule="nonzero" fill-opacity="1" /><path clip-path="url(#clip180)" d="M90.944 604.696 Q89.5688 604.696 89.0503 603.952 Q88.5092 603.208 88.5092 602.419 Q88.5092 601.359 89.1855 600.75 Q89.8393 600.119 90.7636 600.119 Q91.6879 600.119 92.3642 600.75 Q93.018 601.359 93.018 602.419 Q93.018 602.937 92.9278 603.208 Q95.047 602.599 96.58 600.75 Q98.113 598.879 98.113 596.422 Q98.113 593.333 95.1146 591.485 Q93.1758 590.38 88.7797 590.38 Q84.9021 590.38 82.9634 591.214 Q80.0101 592.499 80.0101 595.137 Q80.0101 598.879 83.2339 601.088 Q83.6397 601.359 83.6622 601.675 Q83.6622 602.126 83.4142 602.238 Q83.1437 602.328 82.4448 602.328 L68.7831 602.328 Q67.6784 602.328 67.6784 601.878 Q67.6784 601.697 67.8137 601.314 Q69.0987 598.406 69.1213 595.182 Q69.1213 591.868 67.7686 588.892 Q67.6334 588.667 67.6334 588.531 Q67.6334 588.081 68.1519 588.058 Q68.3322 588.058 68.8733 588.441 Q69.3918 588.802 70.0907 589.591 Q70.767 590.38 71.4208 591.395 Q72.0745 592.409 72.5254 593.897 Q72.9538 595.362 72.9538 596.985 Q72.9538 598.924 72.3451 600.908 L81.3402 600.908 Q78.9956 598.518 78.9956 595.047 Q78.9956 591.349 81.9714 588.802 Q84.9472 586.254 89.0953 586.254 Q93.4464 586.254 96.4222 589.275 Q99.398 592.274 99.398 596.332 Q99.398 600.029 96.7603 602.374 Q94.1227 604.696 90.944 604.696 Z" fill="#000000" fill-rule="nonzero" fill-opacity="1" /><path clip-path="url(#clip180)" d="M63.6176 574.791 Q52.4743 574.791 43.4889 570.636 Q39.7208 568.865 36.5646 566.385 Q33.4085 563.905 32.0236 562.263 Q30.6388 560.62 30.6388 560.169 Q30.6388 559.525 31.2829 559.493 Q31.6049 559.493 32.4101 560.362 Q43.2312 570.99 63.6176 570.958 Q84.0683 570.958 94.4708 560.62 Q95.598 559.493 95.9522 559.493 Q96.5964 559.493 96.5964 560.169 Q96.5964 560.62 95.2759 562.198 Q93.9555 563.776 90.9281 566.224 Q87.9008 568.672 84.1971 570.443 Q75.2117 574.791 63.6176 574.791 Z" fill="#000000" fill-rule="nonzero" fill-opacity="1" /><path clip-path="url(#clip180)" d="M35.7917 506.403 Q37.1121 506.403 37.1121 507.498 Q37.1765 509.431 37.563 510.751 Q37.9173 512.071 38.6258 512.844 Q39.3343 513.585 40.1073 514.004 Q40.848 514.39 41.9752 514.648 L65.3889 520.509 Q71.9911 522.184 76.7898 527.595 Q81.5562 533.005 81.5562 539.157 Q81.5562 542.667 80.107 545.598 Q78.6577 548.496 75.727 550.3 Q72.7962 552.103 68.8993 552.103 Q67.0314 552.103 65.0668 551.62 L48.7707 547.627 L42.9736 546.145 Q38.6902 545.05 38.3037 545.05 Q37.6918 545.05 37.5308 545.437 Q37.3376 545.791 37.241 546.822 L37.1121 549.334 Q37.1121 550.107 37.0799 550.429 Q37.0477 550.718 36.8867 550.944 Q36.7257 551.169 36.3714 551.169 Q35.9205 551.169 35.6307 551.073 Q35.3086 550.944 35.212 550.718 Q35.1154 550.493 35.0832 550.332 Q35.051 550.171 35.051 549.913 L35.2442 541.411 L35.051 532.973 Q35.051 532.039 35.7917 532.039 Q36.7257 532.039 36.9189 532.458 Q37.1121 532.876 37.1121 534.293 Q37.1121 536.709 37.4342 537.804 Q37.724 538.867 38.2393 539.189 Q38.7224 539.479 40.1395 539.833 L65.8076 546.242 Q67.0958 546.564 68.384 546.757 Q69.64 546.918 70.2842 546.918 L70.9283 546.95 Q75.0184 546.95 77.2728 544.696 Q79.5272 542.409 79.5272 538.899 Q79.5272 533.746 75.4371 528.947 Q71.347 524.116 64.938 522.474 L41.3955 516.548 Q40.8158 516.355 40.0107 516.355 Q38.7224 516.355 37.9495 517.321 Q37.1443 518.255 37.1121 520.831 Q37.1121 522.023 36.3714 522.023 Q35.7595 522.023 35.4696 521.798 Q35.1476 521.54 35.1154 521.347 Q35.051 521.121 35.051 520.831 Q35.051 519.736 35.1476 517.418 Q35.2442 515.099 35.2442 513.972 Q35.2442 512.844 35.1476 510.59 Q35.051 508.336 35.051 507.241 Q35.051 506.854 35.2442 506.661 Q35.4052 506.435 35.5985 506.403 L35.7917 506.403 Z" fill="#000000" fill-rule="nonzero" fill-opacity="1" /><path clip-path="url(#clip180)" d="M70.0909 489.207 Q69.2858 489.142 69.2858 487.886 L69.2858 447.468 Q69.2858 445.568 70.0265 445.535 Q70.8317 445.535 70.7995 447.339 L70.7995 487.435 Q70.8317 489.207 70.0909 489.207 M57.2086 489.207 Q56.4034 489.207 56.4356 487.822 L56.4356 447.532 Q56.4356 445.568 57.2086 445.535 Q57.9493 445.535 57.9493 447.21 L57.9493 487.886 Q57.9493 489.207 57.2086 489.207 Z" fill="#000000" fill-rule="nonzero" fill-opacity="1" /><path clip-path="url(#clip180)" d="M59.0121 420.09 Q49.3182 420.09 44.0364 417.642 Q36.1782 414.228 36.1782 406.177 Q36.1782 404.47 36.6612 402.699 Q37.1121 400.895 38.8835 398.641 Q40.6548 396.354 43.5533 394.969 Q49.1571 392.328 59.0121 392.328 Q68.6417 392.328 73.8912 394.776 Q81.5562 398.351 81.5562 406.241 Q81.5562 409.204 80.0425 412.231 Q78.5289 415.227 74.8896 417.127 Q69.4468 420.09 59.0121 420.09 M58.207 414.615 Q68.1586 414.615 72.1199 413.906 Q76.4033 413.101 78.2712 410.911 Q80.107 408.689 80.107 406.241 Q80.107 403.6 78.1424 401.41 Q76.1456 399.188 71.8623 398.512 Q67.6433 397.771 58.207 397.803 Q49.0283 397.803 45.3568 398.447 Q41.0735 399.317 39.3665 401.636 Q37.6274 403.922 37.6274 406.241 Q37.6274 407.111 37.8851 408.045 Q38.1427 408.946 38.8835 410.267 Q39.6242 411.587 41.4599 412.618 Q43.2957 413.616 46.0654 414.099 Q49.6402 414.615 58.207 414.615 Z" fill="#000000" fill-rule="nonzero" fill-opacity="1" /><path clip-path="url(#clip180)" d="M95.9522 385.842 Q95.6302 385.842 94.825 385.004 Q84.0039 374.376 63.6176 374.376 Q43.1668 374.376 32.8287 384.586 Q31.6371 385.842 31.2829 385.842 Q30.6388 385.842 30.6388 385.197 Q30.6388 384.747 31.9592 383.169 Q33.2796 381.558 36.307 379.143 Q39.3343 376.695 43.038 374.892 Q52.0234 370.544 63.6176 370.544 Q74.7608 370.544 83.7462 374.698 Q87.5143 376.47 90.6705 378.95 Q93.8267 381.429 95.2115 383.072 Q96.5964 384.714 96.5964 385.197 Q96.5964 385.842 95.9522 385.842 Z" fill="#000000" fill-rule="nonzero" fill-opacity="1" /><path clip-path="url(#clip180)" d="M63.1667 345.699 Q63.2955 345.635 63.6176 345.635 Q63.9396 345.635 64.0684 345.699 L95.7268 357.97 Q96.5964 358.292 96.5964 359.194 Q96.5964 359.741 96.2099 360.128 Q95.8234 360.514 95.2759 360.514 Q94.9539 360.514 94.825 360.45 L63.6176 348.34 L32.4101 360.45 Q32.2813 360.514 31.9592 360.514 Q31.4117 360.514 31.0252 360.128 Q30.6388 359.741 30.6388 359.194 Q30.6388 358.292 31.5083 357.97 L63.1667 345.699 Z" fill="#000000" fill-rule="nonzero" fill-opacity="1" /><path clip-path="url(#clip180)" d="M94.5674 335.123 L33.1508 335.123 Q30.7032 335.123 30.7032 333.803 Q30.7032 332.482 32.6677 332.482 L94.0843 332.482 Q96.5319 332.482 96.5319 333.803 Q96.5319 335.123 94.5674 335.123 Z" fill="#000000" fill-rule="nonzero" fill-opacity="1" /><path clip-path="url(#clip180)" d="M40.3077 325.474 Q39.4736 325.474 39.2256 325.406 Q38.9776 325.316 38.5944 324.955 L28.7201 316.095 Q23.2644 311.248 18.5076 311.248 Q15.419 311.248 13.2097 312.871 Q11.0004 314.472 11.0004 317.425 Q11.0004 319.454 12.2403 321.168 Q13.4803 322.881 15.6896 323.67 Q15.6445 323.535 15.6445 323.061 Q15.6445 321.912 16.3659 321.28 Q17.0873 320.627 18.0567 320.627 Q19.2966 320.627 19.9053 321.438 Q20.4915 322.227 20.4915 323.016 Q20.4915 323.332 20.4238 323.76 Q20.3562 324.166 19.725 324.82 Q19.0712 325.474 17.9214 325.474 Q14.6976 325.474 12.1276 323.039 Q9.55758 320.582 9.55758 316.839 Q9.55758 312.601 12.0825 309.828 Q14.5849 307.033 18.5076 307.033 Q19.8828 307.033 21.1452 307.461 Q22.3852 307.867 23.3546 308.43 Q24.324 308.971 25.8795 310.459 Q27.4351 311.947 28.5397 313.142 Q29.6444 314.337 31.989 317.02 L36.7458 321.912 L36.7458 313.593 Q36.7458 309.535 36.3851 309.219 Q35.7313 308.768 32.282 308.205 L32.282 307.033 L40.3077 308.34 L40.3077 325.474 Z" fill="#000000" fill-rule="nonzero" fill-opacity="1" /><circle clip-path="url(#clip182)" cx="324.028" cy="1342.85" r="14.4" fill="#009af9" fill-rule="evenodd" fill-opacity="1" stroke="#000000" stroke-opacity="1" stroke-width="3.2"/>
<circle clip-path="url(#clip182)" cx="324.031" cy="1342.85" r="14.4" fill="#009af9" fill-rule="evenodd" fill-opacity="1" stroke="#000000" stroke-opacity="1" stroke-width="3.2"/>
<circle clip-path="url(#clip182)" cx="387.136" cy="1300.05" r="14.4" fill="#009af9" fill-rule="evenodd" fill-opacity="1" stroke="#000000" stroke-opacity="1" stroke-width="3.2"/>
<circle clip-path="url(#clip182)" cx="387.133" cy="1300.05" r="14.4" fill="#009af9" fill-rule="evenodd" fill-opacity="1" stroke="#000000" stroke-opacity="1" stroke-width="3.2"/>
<circle clip-path="url(#clip182)" cx="450.178" cy="1257.29" r="14.4" fill="#009af9" fill-rule="evenodd" fill-opacity="1" stroke="#000000" stroke-opacity="1" stroke-width="3.2"/>
<circle clip-path="url(#clip182)" cx="450.166" cy="1257.29" r="14.4" fill="#009af9" fill-rule="evenodd" fill-opacity="1" stroke="#000000" stroke-opacity="1" stroke-width="3.2"/>
<circle clip-path="url(#clip182)" cx="562.02" cy="1214.58" r="14.4" fill="#009af9" fill-rule="evenodd" fill-opacity="1" stroke="#000000" stroke-opacity="1" stroke-width="3.2"/>
<circle clip-path="url(#clip182)" cx="562.012" cy="1214.58" r="14.4" fill="#009af9" fill-rule="evenodd" fill-opacity="1" stroke="#000000" stroke-opacity="1" stroke-width="3.2"/>
<circle clip-path="url(#clip182)" cx="624.954" cy="1171.89" r="14.4" fill="#009af9" fill-rule="evenodd" fill-opacity="1" stroke="#000000" stroke-opacity="1" stroke-width="3.2"/>
<circle clip-path="url(#clip182)" cx="624.954" cy="1171.89" r="14.4" fill="#009af9" fill-rule="evenodd" fill-opacity="1" stroke="#000000" stroke-opacity="1" stroke-width="3.2"/>
<circle clip-path="url(#clip182)" cx="687.882" cy="1129.23" r="14.4" fill="#009af9" fill-rule="evenodd" fill-opacity="1" stroke="#000000" stroke-opacity="1" stroke-width="3.2"/>
<circle clip-path="url(#clip182)" cx="687.874" cy="1129.23" r="14.4" fill="#009af9" fill-rule="evenodd" fill-opacity="1" stroke="#000000" stroke-opacity="1" stroke-width="3.2"/>
<circle clip-path="url(#clip182)" cx="750.808" cy="1086.57" r="14.4" fill="#009af9" fill-rule="evenodd" fill-opacity="1" stroke="#000000" stroke-opacity="1" stroke-width="3.2"/>
<circle clip-path="url(#clip182)" cx="750.781" cy="1086.57" r="14.4" fill="#009af9" fill-rule="evenodd" fill-opacity="1" stroke="#000000" stroke-opacity="1" stroke-width="3.2"/>
<circle clip-path="url(#clip182)" cx="813.724" cy="1043.92" r="14.4" fill="#009af9" fill-rule="evenodd" fill-opacity="1" stroke="#000000" stroke-opacity="1" stroke-width="3.2"/>
<circle clip-path="url(#clip182)" cx="813.726" cy="1043.92" r="14.4" fill="#009af9" fill-rule="evenodd" fill-opacity="1" stroke="#000000" stroke-opacity="1" stroke-width="3.2"/>
<circle clip-path="url(#clip182)" cx="884.353" cy="1001.28" r="14.4" fill="#009af9" fill-rule="evenodd" fill-opacity="1" stroke="#000000" stroke-opacity="1" stroke-width="3.2"/>
<circle clip-path="url(#clip182)" cx="884.32" cy="1001.28" r="14.4" fill="#009af9" fill-rule="evenodd" fill-opacity="1" stroke="#000000" stroke-opacity="1" stroke-width="3.2"/>
<circle clip-path="url(#clip182)" cx="947.305" cy="958.632" r="14.4" fill="#009af9" fill-rule="evenodd" fill-opacity="1" stroke="#000000" stroke-opacity="1" stroke-width="3.2"/>
<circle clip-path="url(#clip182)" cx="947.315" cy="958.632" r="14.4" fill="#009af9" fill-rule="evenodd" fill-opacity="1" stroke="#000000" stroke-opacity="1" stroke-width="3.2"/>
<circle clip-path="url(#clip182)" cx="1010.33" cy="915.98" r="14.4" fill="#009af9" fill-rule="evenodd" fill-opacity="1" stroke="#000000" stroke-opacity="1" stroke-width="3.2"/>
<circle clip-path="url(#clip182)" cx="1013.52" cy="915.98" r="14.4" fill="#009af9" fill-rule="evenodd" fill-opacity="1" stroke="#000000" stroke-opacity="1" stroke-width="3.2"/>
<circle clip-path="url(#clip182)" cx="1076.02" cy="873.318" r="14.4" fill="#009af9" fill-rule="evenodd" fill-opacity="1" stroke="#000000" stroke-opacity="1" stroke-width="3.2"/>
<circle clip-path="url(#clip182)" cx="1077.06" cy="873.318" r="14.4" fill="#009af9" fill-rule="evenodd" fill-opacity="1" stroke="#000000" stroke-opacity="1" stroke-width="3.2"/>
<circle clip-path="url(#clip182)" cx="1139.05" cy="830.639" r="14.4" fill="#009af9" fill-rule="evenodd" fill-opacity="1" stroke="#000000" stroke-opacity="1" stroke-width="3.2"/>
<circle clip-path="url(#clip182)" cx="1139.27" cy="830.639" r="14.4" fill="#009af9" fill-rule="evenodd" fill-opacity="1" stroke="#000000" stroke-opacity="1" stroke-width="3.2"/>
<circle clip-path="url(#clip182)" cx="1202.33" cy="787.937" r="14.4" fill="#009af9" fill-rule="evenodd" fill-opacity="1" stroke="#000000" stroke-opacity="1" stroke-width="3.2"/>
<circle clip-path="url(#clip182)" cx="1202.07" cy="787.937" r="14.4" fill="#009af9" fill-rule="evenodd" fill-opacity="1" stroke="#000000" stroke-opacity="1" stroke-width="3.2"/>
<circle clip-path="url(#clip182)" cx="1266.46" cy="745.203" r="14.4" fill="#009af9" fill-rule="evenodd" fill-opacity="1" stroke="#000000" stroke-opacity="1" stroke-width="3.2"/>
<circle clip-path="url(#clip182)" cx="1266.56" cy="745.203" r="14.4" fill="#009af9" fill-rule="evenodd" fill-opacity="1" stroke="#000000" stroke-opacity="1" stroke-width="3.2"/>
<circle clip-path="url(#clip182)" cx="1331.19" cy="702.426" r="14.4" fill="#009af9" fill-rule="evenodd" fill-opacity="1" stroke="#000000" stroke-opacity="1" stroke-width="3.2"/>
<circle clip-path="url(#clip182)" cx="1330.5" cy="702.426" r="14.4" fill="#009af9" fill-rule="evenodd" fill-opacity="1" stroke="#000000" stroke-opacity="1" stroke-width="3.2"/>
<circle clip-path="url(#clip182)" cx="1396.12" cy="659.594" r="14.4" fill="#009af9" fill-rule="evenodd" fill-opacity="1" stroke="#000000" stroke-opacity="1" stroke-width="3.2"/>
<circle clip-path="url(#clip182)" cx="1395.96" cy="659.594" r="14.4" fill="#009af9" fill-rule="evenodd" fill-opacity="1" stroke="#000000" stroke-opacity="1" stroke-width="3.2"/>
<circle clip-path="url(#clip182)" cx="1460.46" cy="616.691" r="14.4" fill="#009af9" fill-rule="evenodd" fill-opacity="1" stroke="#000000" stroke-opacity="1" stroke-width="3.2"/>
<circle clip-path="url(#clip182)" cx="1460.67" cy="616.691" r="14.4" fill="#009af9" fill-rule="evenodd" fill-opacity="1" stroke="#000000" stroke-opacity="1" stroke-width="3.2"/>
<circle clip-path="url(#clip182)" cx="1526.12" cy="573.699" r="14.4" fill="#009af9" fill-rule="evenodd" fill-opacity="1" stroke="#000000" stroke-opacity="1" stroke-width="3.2"/>
<circle clip-path="url(#clip182)" cx="1527.49" cy="573.699" r="14.4" fill="#009af9" fill-rule="evenodd" fill-opacity="1" stroke="#000000" stroke-opacity="1" stroke-width="3.2"/>
<circle clip-path="url(#clip182)" cx="1592.94" cy="530.6" r="14.4" fill="#009af9" fill-rule="evenodd" fill-opacity="1" stroke="#000000" stroke-opacity="1" stroke-width="3.2"/>
<circle clip-path="url(#clip182)" cx="1593.78" cy="530.6" r="14.4" fill="#009af9" fill-rule="evenodd" fill-opacity="1" stroke="#000000" stroke-opacity="1" stroke-width="3.2"/>
<circle clip-path="url(#clip182)" cx="1661.69" cy="487.382" r="14.4" fill="#009af9" fill-rule="evenodd" fill-opacity="1" stroke="#000000" stroke-opacity="1" stroke-width="3.2"/>
<circle clip-path="url(#clip182)" cx="1661.97" cy="487.382" r="14.4" fill="#009af9" fill-rule="evenodd" fill-opacity="1" stroke="#000000" stroke-opacity="1" stroke-width="3.2"/>
<circle clip-path="url(#clip182)" cx="1734.15" cy="444.048" r="14.4" fill="#009af9" fill-rule="evenodd" fill-opacity="1" stroke="#000000" stroke-opacity="1" stroke-width="3.2"/>
<circle clip-path="url(#clip182)" cx="1733" cy="444.048" r="14.4" fill="#009af9" fill-rule="evenodd" fill-opacity="1" stroke="#000000" stroke-opacity="1" stroke-width="3.2"/>
<circle clip-path="url(#clip182)" cx="1809.41" cy="400.645" r="14.4" fill="#009af9" fill-rule="evenodd" fill-opacity="1" stroke="#000000" stroke-opacity="1" stroke-width="3.2"/>
<circle clip-path="url(#clip182)" cx="1807.54" cy="400.645" r="14.4" fill="#009af9" fill-rule="evenodd" fill-opacity="1" stroke="#000000" stroke-opacity="1" stroke-width="3.2"/>
<circle clip-path="url(#clip182)" cx="1883.99" cy="357.301" r="14.4" fill="#009af9" fill-rule="evenodd" fill-opacity="1" stroke="#000000" stroke-opacity="1" stroke-width="3.2"/>
<circle clip-path="url(#clip182)" cx="1885.74" cy="357.301" r="14.4" fill="#009af9" fill-rule="evenodd" fill-opacity="1" stroke="#000000" stroke-opacity="1" stroke-width="3.2"/>
<circle clip-path="url(#clip182)" cx="1959.83" cy="318.017" r="14.4" fill="#009af9" fill-rule="evenodd" fill-opacity="1" stroke="#000000" stroke-opacity="1" stroke-width="3.2"/>
<circle clip-path="url(#clip182)" cx="1963.47" cy="318.017" r="14.4" fill="#009af9" fill-rule="evenodd" fill-opacity="1" stroke="#000000" stroke-opacity="1" stroke-width="3.2"/>
<circle clip-path="url(#clip182)" cx="1969.61" cy="314.318" r="14.4" fill="#009af9" fill-rule="evenodd" fill-opacity="1" stroke="#000000" stroke-opacity="1" stroke-width="3.2"/>
<circle clip-path="url(#clip182)" cx="1970.14" cy="314.318" r="14.4" fill="#009af9" fill-rule="evenodd" fill-opacity="1" stroke="#000000" stroke-opacity="1" stroke-width="3.2"/>
<circle clip-path="url(#clip182)" cx="2008.98" cy="295.087" r="14.4" fill="#009af9" fill-rule="evenodd" fill-opacity="1" stroke="#000000" stroke-opacity="1" stroke-width="3.2"/>
<circle clip-path="url(#clip182)" cx="2006.44" cy="295.087" r="14.4" fill="#009af9" fill-rule="evenodd" fill-opacity="1" stroke="#000000" stroke-opacity="1" stroke-width="3.2"/>
<circle clip-path="url(#clip182)" cx="2049.24" cy="275.626" r="14.4" fill="#009af9" fill-rule="evenodd" fill-opacity="1" stroke="#000000" stroke-opacity="1" stroke-width="3.2"/>
<circle clip-path="url(#clip182)" cx="2050.75" cy="275.626" r="14.4" fill="#009af9" fill-rule="evenodd" fill-opacity="1" stroke="#000000" stroke-opacity="1" stroke-width="3.2"/>
<circle clip-path="url(#clip182)" cx="2058.49" cy="272.303" r="14.4" fill="#009af9" fill-rule="evenodd" fill-opacity="1" stroke="#000000" stroke-opacity="1" stroke-width="3.2"/>
<circle clip-path="url(#clip182)" cx="2052.18" cy="272.303" r="14.4" fill="#009af9" fill-rule="evenodd" fill-opacity="1" stroke="#000000" stroke-opacity="1" stroke-width="3.2"/>
<circle clip-path="url(#clip182)" cx="2086.3" cy="258.857" r="14.4" fill="#009af9" fill-rule="evenodd" fill-opacity="1" stroke="#000000" stroke-opacity="1" stroke-width="3.2"/>
<circle clip-path="url(#clip182)" cx="2087.15" cy="258.857" r="14.4" fill="#009af9" fill-rule="evenodd" fill-opacity="1" stroke="#000000" stroke-opacity="1" stroke-width="3.2"/>
<circle clip-path="url(#clip182)" cx="2120.99" cy="244.243" r="14.4" fill="#009af9" fill-rule="evenodd" fill-opacity="1" stroke="#000000" stroke-opacity="1" stroke-width="3.2"/>
<circle clip-path="url(#clip182)" cx="2123.8" cy="244.243" r="14.4" fill="#009af9" fill-rule="evenodd" fill-opacity="1" stroke="#000000" stroke-opacity="1" stroke-width="3.2"/>
<circle clip-path="url(#clip182)" cx="2149.94" cy="232.324" r="14.4" fill="#009af9" fill-rule="evenodd" fill-opacity="1" stroke="#000000" stroke-opacity="1" stroke-width="3.2"/>
<circle clip-path="url(#clip182)" cx="2151.47" cy="232.324" r="14.4" fill="#009af9" fill-rule="evenodd" fill-opacity="1" stroke="#000000" stroke-opacity="1" stroke-width="3.2"/>
<circle clip-path="url(#clip182)" cx="2150.33" cy="231.402" r="14.4" fill="#009af9" fill-rule="evenodd" fill-opacity="1" stroke="#000000" stroke-opacity="1" stroke-width="3.2"/>
<circle clip-path="url(#clip182)" cx="2148.91" cy="231.402" r="14.4" fill="#009af9" fill-rule="evenodd" fill-opacity="1" stroke="#000000" stroke-opacity="1" stroke-width="3.2"/>
<circle clip-path="url(#clip182)" cx="2179.9" cy="220.044" r="14.4" fill="#009af9" fill-rule="evenodd" fill-opacity="1" stroke="#000000" stroke-opacity="1" stroke-width="3.2"/>
<circle clip-path="url(#clip182)" cx="2179.1" cy="220.044" r="14.4" fill="#009af9" fill-rule="evenodd" fill-opacity="1" stroke="#000000" stroke-opacity="1" stroke-width="3.2"/>
<circle clip-path="url(#clip182)" cx="2202.77" cy="209.944" r="14.4" fill="#009af9" fill-rule="evenodd" fill-opacity="1" stroke="#000000" stroke-opacity="1" stroke-width="3.2"/>
<circle clip-path="url(#clip182)" cx="2206.04" cy="209.944" r="14.4" fill="#009af9" fill-rule="evenodd" fill-opacity="1" stroke="#000000" stroke-opacity="1" stroke-width="3.2"/>
<circle clip-path="url(#clip182)" cx="2226.16" cy="200.924" r="14.4" fill="#009af9" fill-rule="evenodd" fill-opacity="1" stroke="#000000" stroke-opacity="1" stroke-width="3.2"/>
<circle clip-path="url(#clip182)" cx="2227.75" cy="200.924" r="14.4" fill="#009af9" fill-rule="evenodd" fill-opacity="1" stroke="#000000" stroke-opacity="1" stroke-width="3.2"/>
<circle clip-path="url(#clip182)" cx="2221.64" cy="195.964" r="14.4" fill="#009af9" fill-rule="evenodd" fill-opacity="1" stroke="#000000" stroke-opacity="1" stroke-width="3.2"/>
<circle clip-path="url(#clip182)" cx="2219.83" cy="195.964" r="14.4" fill="#009af9" fill-rule="evenodd" fill-opacity="1" stroke="#000000" stroke-opacity="1" stroke-width="3.2"/>
<circle clip-path="url(#clip182)" cx="2213.03" cy="192.837" r="14.4" fill="#009af9" fill-rule="evenodd" fill-opacity="1" stroke="#000000" stroke-opacity="1" stroke-width="3.2"/>
<circle clip-path="url(#clip182)" cx="2215.16" cy="192.837" r="14.4" fill="#009af9" fill-rule="evenodd" fill-opacity="1" stroke="#000000" stroke-opacity="1" stroke-width="3.2"/>
<circle clip-path="url(#clip182)" cx="2202.92" cy="185.563" r="14.4" fill="#009af9" fill-rule="evenodd" fill-opacity="1" stroke="#000000" stroke-opacity="1" stroke-width="3.2"/>
<circle clip-path="url(#clip182)" cx="2203.24" cy="185.563" r="14.4" fill="#009af9" fill-rule="evenodd" fill-opacity="1" stroke="#000000" stroke-opacity="1" stroke-width="3.2"/>
<circle clip-path="url(#clip182)" cx="2191.27" cy="179.001" r="14.4" fill="#009af9" fill-rule="evenodd" fill-opacity="1" stroke="#000000" stroke-opacity="1" stroke-width="3.2"/>
<circle clip-path="url(#clip182)" cx="2189.19" cy="179.001" r="14.4" fill="#009af9" fill-rule="evenodd" fill-opacity="1" stroke="#000000" stroke-opacity="1" stroke-width="3.2"/>
<circle clip-path="url(#clip182)" cx="2178.32" cy="173.063" r="14.4" fill="#009af9" fill-rule="evenodd" fill-opacity="1" stroke="#000000" stroke-opacity="1" stroke-width="3.2"/>
<circle clip-path="url(#clip182)" cx="2178.93" cy="173.063" r="14.4" fill="#009af9" fill-rule="evenodd" fill-opacity="1" stroke="#000000" stroke-opacity="1" stroke-width="3.2"/>
<circle clip-path="url(#clip182)" cx="2166.27" cy="167.677" r="14.4" fill="#009af9" fill-rule="evenodd" fill-opacity="1" stroke="#000000" stroke-opacity="1" stroke-width="3.2"/>
<circle clip-path="url(#clip182)" cx="2173.37" cy="167.677" r="14.4" fill="#009af9" fill-rule="evenodd" fill-opacity="1" stroke="#000000" stroke-opacity="1" stroke-width="3.2"/>
<circle clip-path="url(#clip182)" cx="2165.04" cy="164.976" r="14.4" fill="#009af9" fill-rule="evenodd" fill-opacity="1" stroke="#000000" stroke-opacity="1" stroke-width="3.2"/>
<circle clip-path="url(#clip182)" cx="2164.44" cy="164.976" r="14.4" fill="#009af9" fill-rule="evenodd" fill-opacity="1" stroke="#000000" stroke-opacity="1" stroke-width="3.2"/>
<circle clip-path="url(#clip182)" cx="2163.62" cy="162.778" r="14.4" fill="#009af9" fill-rule="evenodd" fill-opacity="1" stroke="#000000" stroke-opacity="1" stroke-width="3.2"/>
<circle clip-path="url(#clip182)" cx="2160.13" cy="162.778" r="14.4" fill="#009af9" fill-rule="evenodd" fill-opacity="1" stroke="#000000" stroke-opacity="1" stroke-width="3.2"/>
<circle clip-path="url(#clip182)" cx="2150.47" cy="158.313" r="14.4" fill="#009af9" fill-rule="evenodd" fill-opacity="1" stroke="#000000" stroke-opacity="1" stroke-width="3.2"/>
<circle clip-path="url(#clip182)" cx="2157.04" cy="158.313" r="14.4" fill="#009af9" fill-rule="evenodd" fill-opacity="1" stroke="#000000" stroke-opacity="1" stroke-width="3.2"/>
<circle clip-path="url(#clip182)" cx="2147.9" cy="154.232" r="14.4" fill="#009af9" fill-rule="evenodd" fill-opacity="1" stroke="#000000" stroke-opacity="1" stroke-width="3.2"/>
<circle clip-path="url(#clip182)" cx="2149.18" cy="154.232" r="14.4" fill="#009af9" fill-rule="evenodd" fill-opacity="1" stroke="#000000" stroke-opacity="1" stroke-width="3.2"/>
<circle clip-path="url(#clip182)" cx="2143.83" cy="150.494" r="14.4" fill="#009af9" fill-rule="evenodd" fill-opacity="1" stroke="#000000" stroke-opacity="1" stroke-width="3.2"/>
<circle clip-path="url(#clip182)" cx="2142.21" cy="150.494" r="14.4" fill="#009af9" fill-rule="evenodd" fill-opacity="1" stroke="#000000" stroke-opacity="1" stroke-width="3.2"/>
<circle clip-path="url(#clip182)" cx="2139.19" cy="147.063" r="14.4" fill="#009af9" fill-rule="evenodd" fill-opacity="1" stroke="#000000" stroke-opacity="1" stroke-width="3.2"/>
<circle clip-path="url(#clip182)" cx="2138.81" cy="147.063" r="14.4" fill="#009af9" fill-rule="evenodd" fill-opacity="1" stroke="#000000" stroke-opacity="1" stroke-width="3.2"/>
<circle clip-path="url(#clip182)" cx="2136.41" cy="143.907" r="14.4" fill="#009af9" fill-rule="evenodd" fill-opacity="1" stroke="#000000" stroke-opacity="1" stroke-width="3.2"/>
<circle clip-path="url(#clip182)" cx="2137.02" cy="143.907" r="14.4" fill="#009af9" fill-rule="evenodd" fill-opacity="1" stroke="#000000" stroke-opacity="1" stroke-width="3.2"/>
<circle clip-path="url(#clip182)" cx="2131.47" cy="140.513" r="14.4" fill="#009af9" fill-rule="evenodd" fill-opacity="1" stroke="#000000" stroke-opacity="1" stroke-width="3.2"/>
<circle clip-path="url(#clip182)" cx="2131.64" cy="140.513" r="14.4" fill="#009af9" fill-rule="evenodd" fill-opacity="1" stroke="#000000" stroke-opacity="1" stroke-width="3.2"/>
<circle clip-path="url(#clip182)" cx="2138.69" cy="122.508" r="14.4" fill="#009af9" fill-rule="evenodd" fill-opacity="1" stroke="#000000" stroke-opacity="1" stroke-width="3.2"/>
<circle clip-path="url(#clip182)" cx="2135.63" cy="122.508" r="14.4" fill="#009af9" fill-rule="evenodd" fill-opacity="1" stroke="#000000" stroke-opacity="1" stroke-width="3.2"/>
<circle clip-path="url(#clip182)" cx="2162.93" cy="109.881" r="14.4" fill="#009af9" fill-rule="evenodd" fill-opacity="1" stroke="#000000" stroke-opacity="1" stroke-width="3.2"/>
<circle clip-path="url(#clip182)" cx="2166.75" cy="109.881" r="14.4" fill="#009af9" fill-rule="evenodd" fill-opacity="1" stroke="#000000" stroke-opacity="1" stroke-width="3.2"/>
<circle clip-path="url(#clip182)" cx="2200.26" cy="101.225" r="14.4" fill="#009af9" fill-rule="evenodd" fill-opacity="1" stroke="#000000" stroke-opacity="1" stroke-width="3.2"/>
<circle clip-path="url(#clip182)" cx="2198.28" cy="101.225" r="14.4" fill="#009af9" fill-rule="evenodd" fill-opacity="1" stroke="#000000" stroke-opacity="1" stroke-width="3.2"/>
<circle clip-path="url(#clip182)" cx="2229.98" cy="95.311" r="14.4" fill="#009af9" fill-rule="evenodd" fill-opacity="1" stroke="#000000" stroke-opacity="1" stroke-width="3.2"/>
<circle clip-path="url(#clip182)" cx="2231.24" cy="95.311" r="14.4" fill="#009af9" fill-rule="evenodd" fill-opacity="1" stroke="#000000" stroke-opacity="1" stroke-width="3.2"/>
<circle clip-path="url(#clip182)" cx="2251.04" cy="91.2407" r="14.4" fill="#009af9" fill-rule="evenodd" fill-opacity="1" stroke="#000000" stroke-opacity="1" stroke-width="3.2"/>
<circle clip-path="url(#clip182)" cx="2254.47" cy="91.2407" r="14.4" fill="#009af9" fill-rule="evenodd" fill-opacity="1" stroke="#000000" stroke-opacity="1" stroke-width="3.2"/>
<circle clip-path="url(#clip182)" cx="2274.11" cy="88.4057" r="14.4" fill="#009af9" fill-rule="evenodd" fill-opacity="1" stroke="#000000" stroke-opacity="1" stroke-width="3.2"/>
<circle clip-path="url(#clip182)" cx="2271.71" cy="88.4057" r="14.4" fill="#009af9" fill-rule="evenodd" fill-opacity="1" stroke="#000000" stroke-opacity="1" stroke-width="3.2"/>
<circle clip-path="url(#clip182)" cx="2285.49" cy="86.4063" r="14.4" fill="#009af9" fill-rule="evenodd" fill-opacity="1" stroke="#000000" stroke-opacity="1" stroke-width="3.2"/>
<circle clip-path="url(#clip182)" cx="2280.26" cy="86.4063" r="14.4" fill="#009af9" fill-rule="evenodd" fill-opacity="1" stroke="#000000" stroke-opacity="1" stroke-width="3.2"/>
<circle clip-path="url(#clip182)" cx="2293.67" cy="84.9802" r="14.4" fill="#009af9" fill-rule="evenodd" fill-opacity="1" stroke="#000000" stroke-opacity="1" stroke-width="3.2"/>
<circle clip-path="url(#clip182)" cx="2290.56" cy="84.9802" r="14.4" fill="#009af9" fill-rule="evenodd" fill-opacity="1" stroke="#000000" stroke-opacity="1" stroke-width="3.2"/>
</svg>
