<?xml version="1.0" encoding="utf-8"?>
<svg xmlns="http://www.w3.org/2000/svg" xmlns:xlink="http://www.w3.org/1999/xlink" width="600" height="400" viewBox="0 0 2400 1600">
<defs>
  <clipPath id="clip100">
    <rect x="0" y="0" width="2400" height="1600"/>
  </clipPath>
</defs>
<path clip-path="url(#clip100)" d="M0 1600 L2400 1600 L2400 0 L0 0  Z" fill="#ffffff" fill-rule="evenodd" fill-opacity="1"/>
<defs>
  <clipPath id="clip101">
    <rect x="480" y="0" width="1681" height="1600"/>
  </clipPath>
</defs>
<path clip-path="url(#clip100)" d="M265.145 1410.9 L2352.76 1410.9 L2352.76 47.2441 L265.145 47.2441  Z" fill="#ffffff" fill-rule="evenodd" fill-opacity="1"/>
<defs>
  <clipPath id="clip102">
    <rect x="265" y="47" width="2089" height="1365"/>
  </clipPath>
</defs>
<polyline clip-path="url(#clip102)" style="stroke:#000000; stroke-linecap:round; stroke-linejoin:round; stroke-width:2; stroke-opacity:0.1; fill:none" points="324.228,1410.9 324.228,47.2441 "/>
<polyline clip-path="url(#clip102)" style="stroke:#000000; stroke-linecap:round; stroke-linejoin:round; stroke-width:2; stroke-opacity:0.1; fill:none" points="861.342,1410.9 861.342,47.2441 "/>
<polyline clip-path="url(#clip102)" style="stroke:#000000; stroke-linecap:round; stroke-linejoin:round; stroke-width:2; stroke-opacity:0.1; fill:none" points="1398.46,1410.9 1398.46,47.2441 "/>
<polyline clip-path="url(#clip102)" style="stroke:#000000; stroke-linecap:round; stroke-linejoin:round; stroke-width:2; stroke-opacity:0.1; fill:none" points="1935.57,1410.9 1935.57,47.2441 "/>
<polyline clip-path="url(#clip102)" style="stroke:#000000; stroke-linecap:round; stroke-linejoin:round; stroke-width:2; stroke-opacity:0.1; fill:none" points="265.145,1338.95 2352.76,1338.95 "/>
<polyline clip-path="url(#clip102)" style="stroke:#000000; stroke-linecap:round; stroke-linejoin:round; stroke-width:2; stroke-opacity:0.1; fill:none" points="265.145,1182.31 2352.76,1182.31 "/>
<polyline clip-path="url(#clip102)" style="stroke:#000000; stroke-linecap:round; stroke-linejoin:round; stroke-width:2; stroke-opacity:0.1; fill:none" points="265.145,1025.67 2352.76,1025.67 "/>
<polyline clip-path="url(#clip102)" style="stroke:#000000; stroke-linecap:round; stroke-linejoin:round; stroke-width:2; stroke-opacity:0.1; fill:none" points="265.145,869.03 2352.76,869.03 "/>
<polyline clip-path="url(#clip102)" style="stroke:#000000; stroke-linecap:round; stroke-linejoin:round; stroke-width:2; stroke-opacity:0.1; fill:none" points="265.145,712.392 2352.76,712.392 "/>
<polyline clip-path="url(#clip102)" style="stroke:#000000; stroke-linecap:round; stroke-linejoin:round; stroke-width:2; stroke-opacity:0.1; fill:none" points="265.145,555.753 2352.76,555.753 "/>
<polyline clip-path="url(#clip102)" style="stroke:#000000; stroke-linecap:round; stroke-linejoin:round; stroke-width:2; stroke-opacity:0.1; fill:none" points="265.145,399.115 2352.76,399.115 "/>
<polyline clip-path="url(#clip102)" style="stroke:#000000; stroke-linecap:round; stroke-linejoin:round; stroke-width:2; stroke-opacity:0.1; fill:none" points="265.145,242.476 2352.76,242.476 "/>
<polyline clip-path="url(#clip102)" style="stroke:#000000; stroke-linecap:round; stroke-linejoin:round; stroke-width:2; stroke-opacity:0.1; fill:none" points="265.145,85.838 2352.76,85.838 "/>
<polyline clip-path="url(#clip100)" style="stroke:#000000; stroke-linecap:round; stroke-linejoin:round; stroke-width:4; stroke-opacity:1; fill:none" points="265.145,1410.9 2352.76,1410.9 "/>
<polyline clip-path="url(#clip100)" style="stroke:#000000; stroke-linecap:round; stroke-linejoin:round; stroke-width:4; stroke-opacity:1; fill:none" points="324.228,1410.9 324.228,1392 "/>
<polyline clip-path="url(#clip100)" style="stroke:#000000; stroke-linecap:round; stroke-linejoin:round; stroke-width:4; stroke-opacity:1; fill:none" points="861.342,1410.9 861.342,1392 "/>
<polyline clip-path="url(#clip100)" style="stroke:#000000; stroke-linecap:round; stroke-linejoin:round; stroke-width:4; stroke-opacity:1; fill:none" points="1398.46,1410.9 1398.46,1392 "/>
<polyline clip-path="url(#clip100)" style="stroke:#000000; stroke-linecap:round; stroke-linejoin:round; stroke-width:4; stroke-opacity:1; fill:none" points="1935.57,1410.9 1935.57,1392 "/>
<path clip-path="url(#clip100)" d="M274.108 1485.02 L281.747 1485.02 L281.747 1458.66 L273.437 1460.32 L273.437 1456.06 L281.701 1454.4 L286.377 1454.4 L286.377 1485.02 L294.016 1485.02 L294.016 1488.96 L274.108 1488.96 L274.108 1485.02 Z" fill="#000000" fill-rule="nonzero" fill-opacity="1" /><path clip-path="url(#clip100)" d="M313.46 1457.48 Q309.849 1457.48 308.02 1461.04 Q306.215 1464.58 306.215 1471.71 Q306.215 1478.82 308.02 1482.38 Q309.849 1485.92 313.46 1485.92 Q317.094 1485.92 318.9 1482.38 Q320.729 1478.82 320.729 1471.71 Q320.729 1464.58 318.9 1461.04 Q317.094 1457.48 313.46 1457.48 M313.46 1453.77 Q319.27 1453.77 322.326 1458.38 Q325.404 1462.96 325.404 1471.71 Q325.404 1480.44 322.326 1485.04 Q319.27 1489.63 313.46 1489.63 Q307.65 1489.63 304.571 1485.04 Q301.516 1480.44 301.516 1471.71 Q301.516 1462.96 304.571 1458.38 Q307.65 1453.77 313.46 1453.77 Z" fill="#000000" fill-rule="nonzero" fill-opacity="1" /><path clip-path="url(#clip100)" d="M325.404 1447.87 L349.516 1447.87 L349.516 1451.07 L325.404 1451.07 L325.404 1447.87 Z" fill="#000000" fill-rule="nonzero" fill-opacity="1" /><path clip-path="url(#clip100)" d="M369.227 1446.41 Q371.954 1446.99 373.477 1448.83 Q375.019 1450.68 375.019 1453.38 Q375.019 1457.54 372.161 1459.82 Q369.302 1462.09 364.036 1462.09 Q362.268 1462.09 360.387 1461.73 Q358.525 1461.4 356.531 1460.7 L356.531 1457.03 Q358.111 1457.95 359.992 1458.42 Q361.873 1458.89 363.923 1458.89 Q367.496 1458.89 369.358 1457.48 Q371.239 1456.07 371.239 1453.38 Q371.239 1450.9 369.49 1449.51 Q367.76 1448.1 364.656 1448.1 L361.384 1448.1 L361.384 1444.98 L364.807 1444.98 Q367.609 1444.98 369.095 1443.87 Q370.581 1442.74 370.581 1440.63 Q370.581 1438.47 369.038 1437.32 Q367.515 1436.16 364.656 1436.16 Q363.095 1436.16 361.308 1436.49 Q359.522 1436.83 357.378 1437.55 L357.378 1434.16 Q359.541 1433.56 361.421 1433.26 Q363.321 1432.96 364.995 1432.96 Q369.321 1432.96 371.841 1434.93 Q374.361 1436.89 374.361 1440.24 Q374.361 1442.57 373.026 1444.19 Q371.69 1445.79 369.227 1446.41 Z" fill="#000000" fill-rule="nonzero" fill-opacity="1" /><path clip-path="url(#clip100)" d="M811.608 1485.02 L819.247 1485.02 L819.247 1458.66 L810.937 1460.32 L810.937 1456.06 L819.201 1454.4 L823.877 1454.4 L823.877 1485.02 L831.515 1485.02 L831.515 1488.96 L811.608 1488.96 L811.608 1485.02 Z" fill="#000000" fill-rule="nonzero" fill-opacity="1" /><path clip-path="url(#clip100)" d="M850.96 1457.48 Q847.349 1457.48 845.52 1461.04 Q843.714 1464.58 843.714 1471.71 Q843.714 1478.82 845.52 1482.38 Q847.349 1485.92 850.96 1485.92 Q854.594 1485.92 856.4 1482.38 Q858.228 1478.82 858.228 1471.71 Q858.228 1464.58 856.4 1461.04 Q854.594 1457.48 850.96 1457.48 M850.96 1453.77 Q856.77 1453.77 859.825 1458.38 Q862.904 1462.96 862.904 1471.71 Q862.904 1480.44 859.825 1485.04 Q856.77 1489.63 850.96 1489.63 Q845.15 1489.63 842.071 1485.04 Q839.015 1480.44 839.015 1471.71 Q839.015 1462.96 842.071 1458.38 Q845.15 1453.77 850.96 1453.77 Z" fill="#000000" fill-rule="nonzero" fill-opacity="1" /><path clip-path="url(#clip100)" d="M862.904 1447.87 L887.016 1447.87 L887.016 1451.07 L862.904 1451.07 L862.904 1447.87 Z" fill="#000000" fill-rule="nonzero" fill-opacity="1" /><path clip-path="url(#clip100)" d="M898.488 1458.35 L911.748 1458.35 L911.748 1461.55 L893.918 1461.55 L893.918 1458.35 Q896.081 1456.11 899.805 1452.35 Q903.548 1448.57 904.507 1447.48 Q906.331 1445.43 907.046 1444.02 Q907.779 1442.59 907.779 1441.22 Q907.779 1438.98 906.2 1437.57 Q904.639 1436.16 902.118 1436.16 Q900.332 1436.16 898.338 1436.78 Q896.363 1437.4 894.106 1438.66 L894.106 1434.82 Q896.401 1433.9 898.394 1433.43 Q900.388 1432.96 902.043 1432.96 Q906.406 1432.96 909.002 1435.14 Q911.597 1437.32 911.597 1440.97 Q911.597 1442.7 910.939 1444.26 Q910.3 1445.8 908.588 1447.91 Q908.118 1448.46 905.598 1451.07 Q903.077 1453.67 898.488 1458.35 Z" fill="#000000" fill-rule="nonzero" fill-opacity="1" /><path clip-path="url(#clip100)" d="M1348.57 1485.02 L1356.21 1485.02 L1356.21 1458.66 L1347.9 1460.32 L1347.9 1456.06 L1356.16 1454.4 L1360.84 1454.4 L1360.84 1485.02 L1368.48 1485.02 L1368.48 1488.96 L1348.57 1488.96 L1348.57 1485.02 Z" fill="#000000" fill-rule="nonzero" fill-opacity="1" /><path clip-path="url(#clip100)" d="M1387.92 1457.48 Q1384.31 1457.48 1382.48 1461.04 Q1380.68 1464.58 1380.68 1471.71 Q1380.68 1478.82 1382.48 1482.38 Q1384.31 1485.92 1387.92 1485.92 Q1391.56 1485.92 1393.36 1482.38 Q1395.19 1478.82 1395.19 1471.71 Q1395.19 1464.58 1393.36 1461.04 Q1391.56 1457.48 1387.92 1457.48 M1387.92 1453.77 Q1393.73 1453.77 1396.79 1458.38 Q1399.87 1462.96 1399.87 1471.71 Q1399.87 1480.44 1396.79 1485.04 Q1393.73 1489.63 1387.92 1489.63 Q1382.11 1489.63 1379.03 1485.04 Q1375.98 1480.44 1375.98 1471.71 Q1375.98 1462.96 1379.03 1458.38 Q1382.11 1453.77 1387.92 1453.77 Z" fill="#000000" fill-rule="nonzero" fill-opacity="1" /><path clip-path="url(#clip100)" d="M1399.87 1447.87 L1423.98 1447.87 L1423.98 1451.07 L1399.87 1451.07 L1399.87 1447.87 Z" fill="#000000" fill-rule="nonzero" fill-opacity="1" /><path clip-path="url(#clip100)" d="M1432.84 1458.35 L1439.04 1458.35 L1439.04 1436.93 L1432.29 1438.28 L1432.29 1434.82 L1439.01 1433.47 L1442.81 1433.47 L1442.81 1458.35 L1449.01 1458.35 L1449.01 1461.55 L1432.84 1461.55 L1432.84 1458.35 Z" fill="#000000" fill-rule="nonzero" fill-opacity="1" /><path clip-path="url(#clip100)" d="M1900.55 1485.02 L1908.19 1485.02 L1908.19 1458.66 L1899.88 1460.32 L1899.88 1456.06 L1908.15 1454.4 L1912.82 1454.4 L1912.82 1485.02 L1920.46 1485.02 L1920.46 1488.96 L1900.55 1488.96 L1900.55 1485.02 Z" fill="#000000" fill-rule="nonzero" fill-opacity="1" /><path clip-path="url(#clip100)" d="M1939.91 1457.48 Q1936.29 1457.48 1934.47 1461.04 Q1932.66 1464.58 1932.66 1471.71 Q1932.66 1478.82 1934.47 1482.38 Q1936.29 1485.92 1939.91 1485.92 Q1943.54 1485.92 1945.34 1482.38 Q1947.17 1478.82 1947.17 1471.71 Q1947.17 1464.58 1945.34 1461.04 Q1943.54 1457.48 1939.91 1457.48 M1939.91 1453.77 Q1945.72 1453.77 1948.77 1458.38 Q1951.85 1462.96 1951.85 1471.71 Q1951.85 1480.44 1948.77 1485.04 Q1945.72 1489.63 1939.91 1489.63 Q1934.09 1489.63 1931.02 1485.04 Q1927.96 1480.44 1927.96 1471.71 Q1927.96 1462.96 1931.02 1458.38 Q1934.09 1453.77 1939.91 1453.77 Z" fill="#000000" fill-rule="nonzero" fill-opacity="1" /><path clip-path="url(#clip100)" d="M1961.55 1435.97 Q1958.62 1435.97 1957.13 1438.86 Q1955.67 1441.74 1955.67 1447.53 Q1955.67 1453.31 1957.13 1456.2 Q1958.62 1459.08 1961.55 1459.08 Q1964.51 1459.08 1965.97 1456.2 Q1967.46 1453.31 1967.46 1447.53 Q1967.46 1441.74 1965.97 1438.86 Q1964.51 1435.97 1961.55 1435.97 M1961.55 1432.96 Q1966.27 1432.96 1968.76 1436.7 Q1971.26 1440.43 1971.26 1447.53 Q1971.26 1454.62 1968.76 1458.37 Q1966.27 1462.09 1961.55 1462.09 Q1956.83 1462.09 1954.33 1458.37 Q1951.85 1454.62 1951.85 1447.53 Q1951.85 1440.43 1954.33 1436.7 Q1956.83 1432.96 1961.55 1432.96 Z" fill="#000000" fill-rule="nonzero" fill-opacity="1" /><path clip-path="url(#clip100)" d="M1332.35 1522.95 Q1332.35 1524.27 1331.26 1524.27 Q1329.33 1524.34 1328.01 1524.72 Q1326.69 1525.08 1325.91 1525.79 Q1325.17 1526.49 1324.75 1527.27 Q1324.37 1528.01 1324.11 1529.14 L1318.25 1552.55 Q1316.57 1559.15 1311.16 1563.95 Q1305.75 1568.72 1299.6 1568.72 Q1296.09 1568.72 1293.16 1567.27 Q1290.26 1565.82 1288.46 1562.89 Q1286.65 1559.96 1286.65 1556.06 Q1286.65 1554.19 1287.14 1552.23 L1291.13 1535.93 L1292.61 1530.13 Q1293.71 1525.85 1293.71 1525.46 Q1293.71 1524.85 1293.32 1524.69 Q1292.97 1524.5 1291.94 1524.4 L1289.42 1524.27 Q1288.65 1524.27 1288.33 1524.24 Q1288.04 1524.21 1287.81 1524.05 Q1287.59 1523.89 1287.59 1523.53 Q1287.59 1523.08 1287.68 1522.79 Q1287.81 1522.47 1288.04 1522.37 Q1288.26 1522.28 1288.42 1522.24 Q1288.59 1522.21 1288.84 1522.21 L1297.35 1522.4 L1305.78 1522.21 Q1306.72 1522.21 1306.72 1522.95 Q1306.72 1523.89 1306.3 1524.08 Q1305.88 1524.27 1304.46 1524.27 Q1302.05 1524.27 1300.95 1524.59 Q1299.89 1524.88 1299.57 1525.4 Q1299.28 1525.88 1298.92 1527.3 L1292.51 1552.97 Q1292.19 1554.26 1292 1555.54 Q1291.84 1556.8 1291.84 1557.44 L1291.81 1558.09 Q1291.81 1562.18 1294.06 1564.43 Q1296.35 1566.69 1299.86 1566.69 Q1305.01 1566.69 1309.81 1562.6 Q1314.64 1558.51 1316.28 1552.1 L1322.21 1528.56 Q1322.4 1527.98 1322.4 1527.17 Q1322.4 1525.88 1321.44 1525.11 Q1320.5 1524.3 1317.93 1524.27 Q1316.73 1524.27 1316.73 1523.53 Q1316.73 1522.92 1316.96 1522.63 Q1317.22 1522.31 1317.41 1522.28 Q1317.64 1522.21 1317.93 1522.21 Q1319.02 1522.21 1321.34 1522.31 Q1323.66 1522.4 1324.79 1522.4 Q1325.91 1522.4 1328.17 1522.31 Q1330.42 1522.21 1331.52 1522.21 Q1331.9 1522.21 1332.1 1522.4 Q1332.32 1522.57 1332.35 1522.76 L1332.35 1522.95 Z" fill="#000000" fill-rule="nonzero" fill-opacity="1" /><polyline clip-path="url(#clip100)" style="stroke:#000000; stroke-linecap:round; stroke-linejoin:round; stroke-width:4; stroke-opacity:1; fill:none" points="265.145,1410.9 265.145,47.2441 "/>
<polyline clip-path="url(#clip100)" style="stroke:#000000; stroke-linecap:round; stroke-linejoin:round; stroke-width:4; stroke-opacity:1; fill:none" points="265.145,1338.95 284.043,1338.95 "/>
<polyline clip-path="url(#clip100)" style="stroke:#000000; stroke-linecap:round; stroke-linejoin:round; stroke-width:4; stroke-opacity:1; fill:none" points="265.145,1182.31 284.043,1182.31 "/>
<polyline clip-path="url(#clip100)" style="stroke:#000000; stroke-linecap:round; stroke-linejoin:round; stroke-width:4; stroke-opacity:1; fill:none" points="265.145,1025.67 284.043,1025.67 "/>
<polyline clip-path="url(#clip100)" style="stroke:#000000; stroke-linecap:round; stroke-linejoin:round; stroke-width:4; stroke-opacity:1; fill:none" points="265.145,869.03 284.043,869.03 "/>
<polyline clip-path="url(#clip100)" style="stroke:#000000; stroke-linecap:round; stroke-linejoin:round; stroke-width:4; stroke-opacity:1; fill:none" points="265.145,712.392 284.043,712.392 "/>
<polyline clip-path="url(#clip100)" style="stroke:#000000; stroke-linecap:round; stroke-linejoin:round; stroke-width:4; stroke-opacity:1; fill:none" points="265.145,555.753 284.043,555.753 "/>
<polyline clip-path="url(#clip100)" style="stroke:#000000; stroke-linecap:round; stroke-linejoin:round; stroke-width:4; stroke-opacity:1; fill:none" points="265.145,399.115 284.043,399.115 "/>
<polyline clip-path="url(#clip100)" style="stroke:#000000; stroke-linecap:round; stroke-linejoin:round; stroke-width:4; stroke-opacity:1; fill:none" points="265.145,242.476 284.043,242.476 "/>
<polyline clip-path="url(#clip100)" style="stroke:#000000; stroke-linecap:round; stroke-linejoin:round; stroke-width:4; stroke-opacity:1; fill:none" points="265.145,85.838 284.043,85.838 "/>
<path clip-path="url(#clip100)" d="M127.783 1358.74 L135.421 1358.74 L135.421 1332.37 L127.111 1334.04 L127.111 1329.78 L135.375 1328.11 L140.051 1328.11 L140.051 1358.74 L147.69 1358.74 L147.69 1362.67 L127.783 1362.67 L127.783 1358.74 Z" fill="#000000" fill-rule="nonzero" fill-opacity="1" /><path clip-path="url(#clip100)" d="M167.134 1331.19 Q163.523 1331.19 161.694 1334.76 Q159.889 1338.3 159.889 1345.43 Q159.889 1352.53 161.694 1356.1 Q163.523 1359.64 167.134 1359.64 Q170.768 1359.64 172.574 1356.1 Q174.403 1352.53 174.403 1345.43 Q174.403 1338.3 172.574 1334.76 Q170.768 1331.19 167.134 1331.19 M167.134 1327.49 Q172.944 1327.49 176 1332.09 Q179.079 1336.68 179.079 1345.43 Q179.079 1354.15 176 1358.76 Q172.944 1363.34 167.134 1363.34 Q161.324 1363.34 158.245 1358.76 Q155.19 1354.15 155.19 1345.43 Q155.19 1336.68 158.245 1332.09 Q161.324 1327.49 167.134 1327.49 Z" fill="#000000" fill-rule="nonzero" fill-opacity="1" /><path clip-path="url(#clip100)" d="M179.079 1321.59 L203.19 1321.59 L203.19 1324.79 L179.079 1324.79 L179.079 1321.59 Z" fill="#000000" fill-rule="nonzero" fill-opacity="1" /><path clip-path="url(#clip100)" d="M219.515 1321.93 Q216.807 1321.93 215.246 1323.38 Q213.704 1324.82 213.704 1327.36 Q213.704 1329.9 215.246 1331.35 Q216.807 1332.8 219.515 1332.8 Q222.224 1332.8 223.785 1331.35 Q225.346 1329.88 225.346 1327.36 Q225.346 1324.82 223.785 1323.38 Q222.242 1321.93 219.515 1321.93 M215.716 1320.31 Q213.271 1319.71 211.898 1318.03 Q210.544 1316.36 210.544 1313.95 Q210.544 1310.59 212.933 1308.63 Q215.34 1306.68 219.515 1306.68 Q223.709 1306.68 226.098 1308.63 Q228.487 1310.59 228.487 1313.95 Q228.487 1316.36 227.114 1318.03 Q225.759 1319.71 223.333 1320.31 Q226.079 1320.95 227.603 1322.81 Q229.145 1324.67 229.145 1327.36 Q229.145 1331.44 226.643 1333.63 Q224.161 1335.81 219.515 1335.81 Q214.87 1335.81 212.368 1333.63 Q209.886 1331.44 209.886 1327.36 Q209.886 1324.67 211.428 1322.81 Q212.97 1320.95 215.716 1320.31 M214.324 1314.31 Q214.324 1316.49 215.679 1317.72 Q217.051 1318.94 219.515 1318.94 Q221.96 1318.94 223.333 1317.72 Q224.725 1316.49 224.725 1314.31 Q224.725 1312.13 223.333 1310.91 Q221.96 1309.68 219.515 1309.68 Q217.051 1309.68 215.679 1310.91 Q214.324 1312.13 214.324 1314.31 Z" fill="#000000" fill-rule="nonzero" fill-opacity="1" /><path clip-path="url(#clip100)" d="M128.441 1202.1 L136.08 1202.1 L136.08 1175.73 L127.77 1177.4 L127.77 1173.14 L136.033 1171.47 L140.709 1171.47 L140.709 1202.1 L148.348 1202.1 L148.348 1206.03 L128.441 1206.03 L128.441 1202.1 Z" fill="#000000" fill-rule="nonzero" fill-opacity="1" /><path clip-path="url(#clip100)" d="M167.792 1174.55 Q164.181 1174.55 162.353 1178.12 Q160.547 1181.66 160.547 1188.79 Q160.547 1195.9 162.353 1199.46 Q164.181 1203 167.792 1203 Q171.427 1203 173.232 1199.46 Q175.061 1195.9 175.061 1188.79 Q175.061 1181.66 173.232 1178.12 Q171.427 1174.55 167.792 1174.55 M167.792 1170.85 Q173.603 1170.85 176.658 1175.46 Q179.737 1180.04 179.737 1188.79 Q179.737 1197.52 176.658 1202.12 Q173.603 1206.71 167.792 1206.71 Q161.982 1206.71 158.904 1202.12 Q155.848 1197.52 155.848 1188.79 Q155.848 1180.04 158.904 1175.46 Q161.982 1170.85 167.792 1170.85 Z" fill="#000000" fill-rule="nonzero" fill-opacity="1" /><path clip-path="url(#clip100)" d="M179.737 1164.95 L203.848 1164.95 L203.848 1168.15 L179.737 1168.15 L179.737 1164.95 Z" fill="#000000" fill-rule="nonzero" fill-opacity="1" /><path clip-path="url(#clip100)" d="M211.089 1150.54 L229.145 1150.54 L229.145 1152.16 L218.951 1178.62 L214.983 1178.62 L224.575 1153.74 L211.089 1153.74 L211.089 1150.54 Z" fill="#000000" fill-rule="nonzero" fill-opacity="1" /><path clip-path="url(#clip100)" d="M127.576 1045.46 L135.215 1045.46 L135.215 1019.1 L126.904 1020.76 L126.904 1016.5 L135.168 1014.84 L139.844 1014.84 L139.844 1045.46 L147.483 1045.46 L147.483 1049.4 L127.576 1049.4 L127.576 1045.46 Z" fill="#000000" fill-rule="nonzero" fill-opacity="1" /><path clip-path="url(#clip100)" d="M166.927 1017.92 Q163.316 1017.92 161.488 1021.48 Q159.682 1025.02 159.682 1032.15 Q159.682 1039.26 161.488 1042.82 Q163.316 1046.36 166.927 1046.36 Q170.562 1046.36 172.367 1042.82 Q174.196 1039.26 174.196 1032.15 Q174.196 1025.02 172.367 1021.48 Q170.562 1017.92 166.927 1017.92 M166.927 1014.21 Q172.737 1014.21 175.793 1018.82 Q178.872 1023.4 178.872 1032.15 Q178.872 1040.88 175.793 1045.48 Q172.737 1050.07 166.927 1050.07 Q161.117 1050.07 158.038 1045.48 Q154.983 1040.88 154.983 1032.15 Q154.983 1023.4 158.038 1018.82 Q161.117 1014.21 166.927 1014.21 Z" fill="#000000" fill-rule="nonzero" fill-opacity="1" /><path clip-path="url(#clip100)" d="M178.872 1008.31 L202.983 1008.31 L202.983 1011.51 L178.872 1011.51 L178.872 1008.31 Z" fill="#000000" fill-rule="nonzero" fill-opacity="1" /><path clip-path="url(#clip100)" d="M219.779 1006.43 Q217.221 1006.43 215.716 1008.18 Q214.23 1009.93 214.23 1012.98 Q214.23 1016.01 215.716 1017.77 Q217.221 1019.52 219.779 1019.52 Q222.336 1019.52 223.822 1017.77 Q225.327 1016.01 225.327 1012.98 Q225.327 1009.93 223.822 1008.18 Q222.336 1006.43 219.779 1006.43 M227.321 994.527 L227.321 997.987 Q225.891 997.31 224.424 996.953 Q222.976 996.595 221.547 996.595 Q217.785 996.595 215.791 999.134 Q213.817 1001.67 213.534 1006.81 Q214.644 1005.17 216.318 1004.31 Q217.992 1003.42 220.004 1003.42 Q224.236 1003.42 226.681 1006 Q229.145 1008.56 229.145 1012.98 Q229.145 1017.3 226.587 1019.92 Q224.029 1022.53 219.779 1022.53 Q214.907 1022.53 212.331 1018.81 Q209.754 1015.06 209.754 1007.97 Q209.754 1001.32 212.914 997.367 Q216.073 993.398 221.396 993.398 Q222.825 993.398 224.274 993.68 Q225.741 993.962 227.321 994.527 Z" fill="#000000" fill-rule="nonzero" fill-opacity="1" /><path clip-path="url(#clip100)" d="M128.516 888.823 L136.155 888.823 L136.155 862.457 L127.845 864.124 L127.845 859.865 L136.109 858.198 L140.785 858.198 L140.785 888.823 L148.423 888.823 L148.423 892.758 L128.516 892.758 L128.516 888.823 Z" fill="#000000" fill-rule="nonzero" fill-opacity="1" /><path clip-path="url(#clip100)" d="M167.868 861.277 Q164.257 861.277 162.428 864.841 Q160.622 868.383 160.622 875.513 Q160.622 882.619 162.428 886.184 Q164.257 889.725 167.868 889.725 Q171.502 889.725 173.308 886.184 Q175.136 882.619 175.136 875.513 Q175.136 868.383 173.308 864.841 Q171.502 861.277 167.868 861.277 M167.868 857.573 Q173.678 857.573 176.733 862.179 Q179.812 866.763 179.812 875.513 Q179.812 884.239 176.733 888.846 Q173.678 893.429 167.868 893.429 Q162.058 893.429 158.979 888.846 Q155.923 884.239 155.923 875.513 Q155.923 866.763 158.979 862.179 Q162.058 857.573 167.868 857.573 Z" fill="#000000" fill-rule="nonzero" fill-opacity="1" /><path clip-path="url(#clip100)" d="M179.812 851.674 L203.924 851.674 L203.924 854.872 L179.812 854.872 L179.812 851.674 Z" fill="#000000" fill-rule="nonzero" fill-opacity="1" /><path clip-path="url(#clip100)" d="M212.161 837.267 L227.076 837.267 L227.076 840.465 L215.641 840.465 L215.641 847.348 Q216.468 847.066 217.296 846.935 Q218.124 846.784 218.951 846.784 Q223.653 846.784 226.399 849.361 Q229.145 851.938 229.145 856.339 Q229.145 860.871 226.324 863.391 Q223.503 865.893 218.368 865.893 Q216.6 865.893 214.757 865.592 Q212.933 865.291 210.977 864.689 L210.977 860.871 Q212.669 861.793 214.475 862.244 Q216.28 862.696 218.293 862.696 Q221.547 862.696 223.446 860.984 Q225.346 859.273 225.346 856.339 Q225.346 853.405 223.446 851.693 Q221.547 849.982 218.293 849.982 Q216.769 849.982 215.246 850.32 Q213.741 850.659 212.161 851.373 L212.161 837.267 Z" fill="#000000" fill-rule="nonzero" fill-opacity="1" /><path clip-path="url(#clip100)" d="M127.312 732.184 L134.951 732.184 L134.951 705.819 L126.641 707.485 L126.641 703.226 L134.905 701.559 L139.581 701.559 L139.581 732.184 L147.22 732.184 L147.22 736.119 L127.312 736.119 L127.312 732.184 Z" fill="#000000" fill-rule="nonzero" fill-opacity="1" /><path clip-path="url(#clip100)" d="M166.664 704.638 Q163.053 704.638 161.224 708.203 Q159.419 711.745 159.419 718.874 Q159.419 725.981 161.224 729.545 Q163.053 733.087 166.664 733.087 Q170.298 733.087 172.104 729.545 Q173.933 725.981 173.933 718.874 Q173.933 711.745 172.104 708.203 Q170.298 704.638 166.664 704.638 M166.664 700.934 Q172.474 700.934 175.53 705.541 Q178.608 710.124 178.608 718.874 Q178.608 727.601 175.53 732.207 Q172.474 736.791 166.664 736.791 Q160.854 736.791 157.775 732.207 Q154.72 727.601 154.72 718.874 Q154.72 710.124 157.775 705.541 Q160.854 700.934 166.664 700.934 Z" fill="#000000" fill-rule="nonzero" fill-opacity="1" /><path clip-path="url(#clip100)" d="M178.608 695.036 L202.72 695.036 L202.72 698.233 L178.608 698.233 L178.608 695.036 Z" fill="#000000" fill-rule="nonzero" fill-opacity="1" /><path clip-path="url(#clip100)" d="M221.358 683.939 L211.767 698.929 L221.358 698.929 L221.358 683.939 M220.362 680.629 L225.139 680.629 L225.139 698.929 L229.145 698.929 L229.145 702.089 L225.139 702.089 L225.139 708.709 L221.358 708.709 L221.358 702.089 L208.682 702.089 L208.682 698.421 L220.362 680.629 Z" fill="#000000" fill-rule="nonzero" fill-opacity="1" /><path clip-path="url(#clip100)" d="M128.234 575.546 L135.873 575.546 L135.873 549.18 L127.563 550.847 L127.563 546.588 L135.827 544.921 L140.502 544.921 L140.502 575.546 L148.141 575.546 L148.141 579.481 L128.234 579.481 L128.234 575.546 Z" fill="#000000" fill-rule="nonzero" fill-opacity="1" /><path clip-path="url(#clip100)" d="M167.586 548 Q163.975 548 162.146 551.564 Q160.34 555.106 160.34 562.236 Q160.34 569.342 162.146 572.907 Q163.975 576.449 167.586 576.449 Q171.22 576.449 173.025 572.907 Q174.854 569.342 174.854 562.236 Q174.854 555.106 173.025 551.564 Q171.22 548 167.586 548 M167.586 544.296 Q173.396 544.296 176.451 548.902 Q179.53 553.486 179.53 562.236 Q179.53 570.963 176.451 575.569 Q173.396 580.152 167.586 580.152 Q161.775 580.152 158.697 575.569 Q155.641 570.963 155.641 562.236 Q155.641 553.486 158.697 548.902 Q161.775 544.296 167.586 544.296 Z" fill="#000000" fill-rule="nonzero" fill-opacity="1" /><path clip-path="url(#clip100)" d="M179.53 538.397 L203.642 538.397 L203.642 541.595 L179.53 541.595 L179.53 538.397 Z" fill="#000000" fill-rule="nonzero" fill-opacity="1" /><path clip-path="url(#clip100)" d="M223.352 536.93 Q226.079 537.513 227.603 539.357 Q229.145 541.2 229.145 543.908 Q229.145 548.065 226.286 550.34 Q223.427 552.616 218.161 552.616 Q216.393 552.616 214.512 552.259 Q212.65 551.92 210.657 551.224 L210.657 547.557 Q212.237 548.478 214.117 548.948 Q215.998 549.419 218.048 549.419 Q221.622 549.419 223.484 548.008 Q225.365 546.598 225.365 543.908 Q225.365 541.425 223.615 540.034 Q221.885 538.623 218.782 538.623 L215.509 538.623 L215.509 535.501 L218.932 535.501 Q221.735 535.501 223.22 534.391 Q224.706 533.263 224.706 531.156 Q224.706 528.993 223.164 527.846 Q221.641 526.68 218.782 526.68 Q217.221 526.68 215.434 527.019 Q213.647 527.357 211.503 528.072 L211.503 524.686 Q213.666 524.085 215.547 523.784 Q217.446 523.483 219.12 523.483 Q223.446 523.483 225.966 525.458 Q228.487 527.414 228.487 530.761 Q228.487 533.094 227.151 534.711 Q225.816 536.31 223.352 536.93 Z" fill="#000000" fill-rule="nonzero" fill-opacity="1" /><path clip-path="url(#clip100)" d="M129.005 418.907 L136.644 418.907 L136.644 392.542 L128.334 394.208 L128.334 389.949 L136.598 388.283 L141.274 388.283 L141.274 418.907 L148.912 418.907 L148.912 422.843 L129.005 422.843 L129.005 418.907 Z" fill="#000000" fill-rule="nonzero" fill-opacity="1" /><path clip-path="url(#clip100)" d="M168.357 391.361 Q164.746 391.361 162.917 394.926 Q161.111 398.468 161.111 405.597 Q161.111 412.704 162.917 416.268 Q164.746 419.81 168.357 419.81 Q171.991 419.81 173.797 416.268 Q175.625 412.704 175.625 405.597 Q175.625 398.468 173.797 394.926 Q171.991 391.361 168.357 391.361 M168.357 387.658 Q174.167 387.658 177.222 392.264 Q180.301 396.847 180.301 405.597 Q180.301 414.324 177.222 418.931 Q174.167 423.514 168.357 423.514 Q162.547 423.514 159.468 418.931 Q156.412 414.324 156.412 405.597 Q156.412 396.847 159.468 392.264 Q162.547 387.658 168.357 387.658 Z" fill="#000000" fill-rule="nonzero" fill-opacity="1" /><path clip-path="url(#clip100)" d="M180.301 381.759 L204.413 381.759 L204.413 384.956 L180.301 384.956 L180.301 381.759 Z" fill="#000000" fill-rule="nonzero" fill-opacity="1" /><path clip-path="url(#clip100)" d="M215.885 392.235 L229.145 392.235 L229.145 395.432 L211.315 395.432 L211.315 392.235 Q213.478 389.997 217.202 386.235 Q220.945 382.455 221.904 381.364 Q223.728 379.314 224.443 377.903 Q225.176 376.474 225.176 375.101 Q225.176 372.863 223.597 371.452 Q222.036 370.042 219.515 370.042 Q217.729 370.042 215.735 370.662 Q213.76 371.283 211.503 372.543 L211.503 368.706 Q213.798 367.785 215.791 367.315 Q217.785 366.844 219.44 366.844 Q223.803 366.844 226.399 369.026 Q228.994 371.208 228.994 374.856 Q228.994 376.587 228.336 378.148 Q227.697 379.69 225.985 381.796 Q225.515 382.342 222.995 384.956 Q220.475 387.552 215.885 392.235 Z" fill="#000000" fill-rule="nonzero" fill-opacity="1" /><path clip-path="url(#clip100)" d="M128.704 262.269 L136.343 262.269 L136.343 235.903 L128.033 237.57 L128.033 233.311 L136.297 231.644 L140.973 231.644 L140.973 262.269 L148.611 262.269 L148.611 266.204 L128.704 266.204 L128.704 262.269 Z" fill="#000000" fill-rule="nonzero" fill-opacity="1" /><path clip-path="url(#clip100)" d="M168.056 234.723 Q164.445 234.723 162.616 238.288 Q160.81 241.829 160.81 248.959 Q160.81 256.065 162.616 259.63 Q164.445 263.172 168.056 263.172 Q171.69 263.172 173.496 259.63 Q175.324 256.065 175.324 248.959 Q175.324 241.829 173.496 238.288 Q171.69 234.723 168.056 234.723 M168.056 231.019 Q173.866 231.019 176.921 235.626 Q180 240.209 180 248.959 Q180 257.686 176.921 262.292 Q173.866 266.875 168.056 266.875 Q162.246 266.875 159.167 262.292 Q156.111 257.686 156.111 248.959 Q156.111 240.209 159.167 235.626 Q162.246 231.019 168.056 231.019 Z" fill="#000000" fill-rule="nonzero" fill-opacity="1" /><path clip-path="url(#clip100)" d="M180 225.12 L204.112 225.12 L204.112 228.318 L180 228.318 L180 225.12 Z" fill="#000000" fill-rule="nonzero" fill-opacity="1" /><path clip-path="url(#clip100)" d="M212.97 235.596 L219.177 235.596 L219.177 214.174 L212.425 215.528 L212.425 212.068 L219.139 210.714 L222.938 210.714 L222.938 235.596 L229.145 235.596 L229.145 238.794 L212.97 238.794 L212.97 235.596 Z" fill="#000000" fill-rule="nonzero" fill-opacity="1" /><path clip-path="url(#clip100)" d="M158.439 105.63 L166.078 105.63 L166.078 79.2649 L157.768 80.9315 L157.768 76.6723 L166.032 75.0056 L170.708 75.0056 L170.708 105.63 L178.347 105.63 L178.347 109.566 L158.439 109.566 L158.439 105.63 Z" fill="#000000" fill-rule="nonzero" fill-opacity="1" /><path clip-path="url(#clip100)" d="M197.791 78.0843 Q194.18 78.0843 192.351 81.6491 Q190.546 85.1908 190.546 92.3204 Q190.546 99.4268 192.351 102.992 Q194.18 106.533 197.791 106.533 Q201.425 106.533 203.231 102.992 Q205.059 99.4268 205.059 92.3204 Q205.059 85.1908 203.231 81.6491 Q201.425 78.0843 197.791 78.0843 M197.791 74.3806 Q203.601 74.3806 206.657 78.9871 Q209.735 83.5704 209.735 92.3204 Q209.735 101.047 206.657 105.654 Q203.601 110.237 197.791 110.237 Q191.981 110.237 188.902 105.654 Q185.847 101.047 185.847 92.3204 Q185.847 83.5704 188.902 78.9871 Q191.981 74.3806 197.791 74.3806 Z" fill="#000000" fill-rule="nonzero" fill-opacity="1" /><path clip-path="url(#clip100)" d="M219.44 56.5767 Q216.506 56.5767 215.02 59.4731 Q213.553 62.3507 213.553 68.1434 Q213.553 73.9174 215.02 76.8138 Q216.506 79.6914 219.44 79.6914 Q222.393 79.6914 223.86 76.8138 Q225.346 73.9174 225.346 68.1434 Q225.346 62.3507 223.86 59.4731 Q222.393 56.5767 219.44 56.5767 M219.44 53.5674 Q224.161 53.5674 226.643 57.3102 Q229.145 61.0341 229.145 68.1434 Q229.145 75.234 226.643 78.9767 Q224.161 82.7007 219.44 82.7007 Q214.719 82.7007 212.218 78.9767 Q209.735 75.234 209.735 68.1434 Q209.735 61.0341 212.218 57.3102 Q214.719 53.5674 219.44 53.5674 Z" fill="#000000" fill-rule="nonzero" fill-opacity="1" /><path clip-path="url(#clip100)" d="M42.3863 1179.63 L40.3252 1179.63 Q40.3252 1171.71 36.1062 1167.62 Q36.1062 1166.49 36.3638 1166.3 Q36.6215 1166.1 37.8131 1166.1 L74.8176 1166.1 Q76.7822 1166.1 77.3941 1165.14 Q78.006 1164.17 78.006 1159.95 L78.006 1157.86 L80.035 1157.86 Q79.8418 1160.18 79.8418 1168.55 Q79.8418 1176.92 80.035 1179.21 L78.006 1179.21 L78.006 1177.12 Q78.006 1172.96 77.4263 1171.96 Q76.8144 1170.97 74.8176 1170.97 L40.6472 1170.97 Q42.3863 1174.41 42.3863 1179.63 Z" fill="#000000" fill-rule="nonzero" fill-opacity="1" /><path clip-path="url(#clip100)" d="M62.6116 1085.12 Q62.9981 1084.73 63.5456 1084.73 Q64.0931 1084.73 64.4796 1085.12 Q64.866 1085.51 64.866 1086.05 L64.866 1127.34 Q64.866 1127.89 64.4796 1128.28 Q64.0931 1128.66 63.5456 1128.66 Q62.9981 1128.66 62.6116 1128.28 Q62.2251 1127.89 62.2251 1127.34 L62.2251 1086.05 Q62.2251 1085.51 62.6116 1085.12 Z" fill="#000000" fill-rule="nonzero" fill-opacity="1" /><path clip-path="url(#clip100)" d="M94.4954 1059.55 L33.0788 1059.55 Q30.6312 1059.55 30.6312 1058.23 Q30.6312 1056.91 32.5958 1056.91 L94.0123 1056.91 Q96.46 1056.91 96.46 1058.23 Q96.46 1059.55 94.4954 1059.55 Z" fill="#000000" fill-rule="nonzero" fill-opacity="1" /><path clip-path="url(#clip100)" d="M95.2039 1017.41 Q95.7514 1017.41 96.1379 1017.8 Q96.5244 1018.18 96.5244 1018.73 Q96.5244 1019.66 95.6548 1019.99 L63.9965 1032.26 Q63.8676 1032.32 63.5456 1032.32 Q63.2235 1032.32 63.0947 1032.26 L31.4363 1019.99 Q30.5668 1019.66 30.5668 1018.73 Q30.5668 1018.18 30.9533 1017.8 Q31.3397 1017.41 31.8872 1017.41 Q32.2093 1017.41 32.3381 1017.47 L63.5456 1029.62 L94.7531 1017.47 Q94.8819 1017.41 95.2039 1017.41 Z" fill="#000000" fill-rule="nonzero" fill-opacity="1" /><path clip-path="url(#clip100)" d="M36.9757 959.104 L48.3766 960.424 Q49.4072 960.521 49.7293 960.682 Q50.0191 960.843 50.0191 961.358 Q50.0191 961.745 49.7937 961.97 Q49.536 962.163 49.2462 962.163 Q49.0852 962.163 48.6665 962.131 Q48.2478 962.099 48.0546 962.099 Q46.0578 961.809 44.5441 961.809 Q41.7422 961.809 40.2285 962.646 Q38.6827 963.484 37.9741 965.642 Q37.2334 967.799 37.2334 971.857 L37.2334 981.133 Q37.2334 983.258 37.6199 983.773 Q38.0063 984.257 39.8099 984.707 L55.6874 988.669 L55.6874 982.453 Q55.6874 980.134 55.3975 978.749 Q55.1076 977.332 54.3025 976.398 Q53.4652 975.432 52.3379 974.917 Q51.2107 974.369 49.1818 973.822 Q48.5054 973.661 48.2478 973.5 Q47.9902 973.307 47.9902 972.888 Q47.9902 972.566 48.2156 972.34 Q48.4088 972.115 48.6987 972.115 L64.1253 975.883 Q64.8982 976.076 65.1881 976.269 Q65.4457 976.463 65.4457 976.849 Q65.4457 977.268 65.2203 977.493 Q64.9948 977.719 64.7372 977.719 Q64.4796 977.719 63.9965 977.526 Q61.9031 977.042 60.7759 977.042 Q60.1318 977.042 59.8097 977.107 Q59.4876 977.139 59.0368 977.429 Q58.5537 977.687 58.3282 978.266 Q58.1028 978.846 57.9418 979.941 Q57.7485 981.036 57.7485 982.678 L57.7485 989.184 L75.7516 993.693 Q76.9432 994.015 77.2653 994.015 Q77.6195 994.015 77.7484 993.854 Q77.845 993.661 77.9094 993.145 Q78.006 992.566 78.006 991.696 L78.006 982.067 Q78.006 979.941 77.8128 978.234 Q77.6195 976.527 77.1365 975.11 Q76.6534 973.661 76.1059 972.566 Q75.5584 971.471 74.56 970.44 Q73.5294 969.41 72.6276 968.701 Q71.6937 967.96 70.1156 967.091 Q68.5375 966.221 67.2493 965.609 Q65.9288 964.997 63.8032 964.063 Q63.0303 963.806 63.0303 963.194 Q63.0303 962.84 63.2235 962.646 Q63.3846 962.453 63.5456 962.421 L63.7388 962.421 Q64.3507 962.614 64.6728 962.743 L78.9078 968.798 Q79.7129 969.152 79.874 969.442 Q80.035 969.732 80.035 970.859 L80.035 1005.09 Q80.035 1005.87 80.0028 1006.19 Q79.9706 1006.48 79.8095 1006.7 Q79.6163 1006.93 79.2298 1006.93 Q78.6179 1006.93 78.3603 1006.67 Q78.0704 1006.41 78.0382 1006.12 Q78.006 1005.83 78.006 1005.09 Q78.006 1003.48 77.9094 1002.52 Q77.8128 1001.55 77.684 1000.94 Q77.5229 1000.3 77.072 999.973 Q76.6212 999.619 76.2347 999.458 Q75.816 999.297 74.882 999.071 L40.0031 990.376 Q38.8115 990.054 38.425 990.054 Q38.0063 990.054 37.7487 990.343 Q37.491 990.601 37.3944 991.31 Q37.2656 992.018 37.2656 992.598 Q37.2334 993.145 37.2334 994.337 Q37.2334 995.11 37.2012 995.432 Q37.169 995.722 37.008 995.947 Q36.8469 996.173 36.4927 996.173 Q35.5909 996.173 35.3977 995.786 Q35.1722 995.368 35.1722 994.208 L35.1722 960.907 Q35.1722 959.587 35.4621 959.297 Q35.7197 958.975 36.9757 959.104 Z" fill="#000000" fill-rule="nonzero" fill-opacity="1" /><path clip-path="url(#clip100)" d="M72.2659 952.405 L70.8231 952.405 Q70.8231 946.859 67.8698 943.996 Q67.8698 943.207 68.0502 943.072 Q68.2305 942.937 69.0647 942.937 L94.9678 942.937 Q96.343 942.937 96.7714 942.26 Q97.1997 941.584 97.1997 938.631 L97.1997 937.165 L98.62 937.165 Q98.4847 938.788 98.4847 944.65 Q98.4847 950.511 98.62 952.112 L97.1997 952.112 L97.1997 950.647 Q97.1997 947.738 96.7939 947.04 Q96.3656 946.341 94.9678 946.341 L71.0485 946.341 Q72.2659 948.753 72.2659 952.405 Z" fill="#000000" fill-rule="nonzero" fill-opacity="1" /><path clip-path="url(#clip100)" d="M91.1804 933.644 Q89.8052 933.644 89.2867 932.9 Q88.7457 932.156 88.7457 931.367 Q88.7457 930.307 89.422 929.698 Q90.0758 929.067 91.0001 929.067 Q91.9244 929.067 92.6007 929.698 Q93.2545 930.307 93.2545 931.367 Q93.2545 931.885 93.1643 932.156 Q95.2835 931.547 96.8165 929.698 Q98.3495 927.827 98.3495 925.37 Q98.3495 922.281 95.3511 920.433 Q93.4123 919.328 89.0162 919.328 Q85.1386 919.328 83.1998 920.162 Q80.2465 921.447 80.2465 924.085 Q80.2465 927.827 83.4703 930.037 Q83.8761 930.307 83.8987 930.623 Q83.8987 931.074 83.6507 931.186 Q83.3802 931.277 82.6813 931.277 L69.0196 931.277 Q67.9149 931.277 67.9149 930.826 Q67.9149 930.645 68.0502 930.262 Q69.3352 927.354 69.3577 924.13 Q69.3577 920.816 68.0051 917.84 Q67.8698 917.615 67.8698 917.48 Q67.8698 917.029 68.3883 917.006 Q68.5687 917.006 69.1098 917.389 Q69.6283 917.75 70.3271 918.539 Q71.0035 919.328 71.6572 920.343 Q72.311 921.357 72.7619 922.845 Q73.1902 924.31 73.1902 925.934 Q73.1902 927.872 72.5815 929.856 L81.5766 929.856 Q79.2321 927.467 79.2321 923.995 Q79.2321 920.298 82.2079 917.75 Q85.1837 915.203 89.3318 915.203 Q93.6828 915.203 96.6586 918.223 Q99.6345 921.222 99.6345 925.28 Q99.6345 928.977 96.9968 931.322 Q94.3592 933.644 91.1804 933.644 Z" fill="#000000" fill-rule="nonzero" fill-opacity="1" /><path clip-path="url(#clip100)" d="M91.0001 913.715 L89.5798 913.715 L67.9149 899.535 Q67.3513 899.174 67.3739 898.611 Q67.3739 898.092 67.5768 897.98 Q67.7797 897.867 68.5687 897.867 L89.5798 897.867 L89.5798 893.245 L91.0001 893.245 L91.0001 897.867 L95.0129 897.867 Q96.343 897.867 96.7714 897.326 Q97.1997 896.762 97.1997 894.372 L97.1997 893.403 L98.62 893.403 Q98.4847 895.297 98.4847 899.67 Q98.4847 904.021 98.62 905.915 L97.1997 905.915 L97.1997 904.946 Q97.1997 902.556 96.7939 901.992 Q96.3656 901.429 95.0129 901.429 L91.0001 901.429 L91.0001 913.715 M89.5798 912.408 L89.5798 901.158 L72.3561 901.158 L89.5798 912.408 Z" fill="#000000" fill-rule="nonzero" fill-opacity="1" /><path clip-path="url(#clip100)" d="M63.5456 883.81 Q52.4024 883.81 43.4169 879.656 Q39.6488 877.885 36.4927 875.405 Q33.3365 872.925 31.9516 871.282 Q30.5668 869.64 30.5668 869.189 Q30.5668 868.545 31.2109 868.513 Q31.533 868.513 32.3381 869.382 Q43.1593 880.01 63.5456 879.978 Q83.9963 879.978 94.3988 869.64 Q95.526 868.513 95.8803 868.513 Q96.5244 868.513 96.5244 869.189 Q96.5244 869.64 95.2039 871.218 Q93.8835 872.796 90.8562 875.244 Q87.8288 877.691 84.1251 879.463 Q75.1397 883.81 63.5456 883.81 Z" fill="#000000" fill-rule="nonzero" fill-opacity="1" /><path clip-path="url(#clip100)" d="M35.7197 815.423 Q37.0402 815.423 37.0402 816.518 Q37.1046 818.45 37.491 819.771 Q37.8453 821.091 38.5538 821.864 Q39.2624 822.605 40.0353 823.024 Q40.776 823.41 41.9032 823.668 L65.3169 829.529 Q71.9191 831.204 76.7178 836.614 Q81.4842 842.025 81.4842 848.176 Q81.4842 851.687 80.035 854.617 Q78.5857 857.516 75.655 859.32 Q72.7243 861.123 68.8273 861.123 Q66.9594 861.123 64.9948 860.64 L48.6987 856.646 L42.9016 855.165 Q38.6182 854.07 38.2318 854.07 Q37.6199 854.07 37.4588 854.456 Q37.2656 854.811 37.169 855.841 L37.0402 858.353 Q37.0402 859.126 37.008 859.448 Q36.9757 859.738 36.8147 859.964 Q36.6537 860.189 36.2994 860.189 Q35.8485 860.189 35.5587 860.092 Q35.2366 859.964 35.14 859.738 Q35.0434 859.513 35.0112 859.352 Q34.979 859.191 34.979 858.933 L35.1722 850.431 L34.979 841.993 Q34.979 841.059 35.7197 841.059 Q36.6537 841.059 36.8469 841.477 Q37.0402 841.896 37.0402 843.313 Q37.0402 845.729 37.3622 846.824 Q37.6521 847.886 38.1674 848.208 Q38.6505 848.498 40.0675 848.853 L65.7356 855.262 Q67.0238 855.584 68.3121 855.777 Q69.5681 855.938 70.2122 855.938 L70.8563 855.97 Q74.9465 855.97 77.2009 853.716 Q79.4553 851.429 79.4553 847.919 Q79.4553 842.766 75.3651 837.967 Q71.275 833.136 64.866 831.494 L41.3235 825.568 Q40.7438 825.375 39.9387 825.375 Q38.6505 825.375 37.8775 826.341 Q37.0724 827.275 37.0402 829.851 Q37.0402 831.043 36.2994 831.043 Q35.6875 831.043 35.3977 830.817 Q35.0756 830.56 35.0434 830.366 Q34.979 830.141 34.979 829.851 Q34.979 828.756 35.0756 826.437 Q35.1722 824.119 35.1722 822.991 Q35.1722 821.864 35.0756 819.61 Q34.979 817.355 34.979 816.26 Q34.979 815.874 35.1722 815.681 Q35.3333 815.455 35.5265 815.423 L35.7197 815.423 Z" fill="#000000" fill-rule="nonzero" fill-opacity="1" /><path clip-path="url(#clip100)" d="M95.8803 810.457 Q95.5582 810.457 94.7531 809.62 Q83.9319 798.992 63.5456 798.992 Q43.0949 798.992 32.7568 809.201 Q31.5652 810.457 31.2109 810.457 Q30.5668 810.457 30.5668 809.813 Q30.5668 809.362 31.8872 807.784 Q33.2077 806.174 36.235 803.758 Q39.2624 801.31 42.966 799.507 Q51.9515 795.159 63.5456 795.159 Q74.6888 795.159 83.6742 799.314 Q87.4423 801.085 90.5985 803.565 Q93.7547 806.045 95.1395 807.687 Q96.5244 809.33 96.5244 809.813 Q96.5244 810.457 95.8803 810.457 Z" fill="#000000" fill-rule="nonzero" fill-opacity="1" /><path clip-path="url(#clip100)" d="M94.4954 781.434 L33.0788 781.434 Q30.6312 781.434 30.6312 780.113 Q30.6312 778.793 32.5958 778.793 L94.0123 778.793 Q96.46 778.793 96.46 780.113 Q96.46 781.434 94.4954 781.434 Z" fill="#000000" fill-rule="nonzero" fill-opacity="1" /><path clip-path="url(#clip100)" d="M34.6569 710.473 Q35.3977 712.018 36.1062 712.92 Q37.169 714.402 39.198 715.754 Q41.0659 717.075 43.9 718.395 Q52.6278 722.26 64.0609 725.062 Q68.7951 726.253 71.7903 726.318 Q74.9143 726.318 76.2025 725.32 Q76.9432 724.869 76.9432 723.741 Q76.9432 722.453 76.0093 721.294 Q75.0431 720.038 72.5954 718.138 L73.4972 717.01 Q76.8144 719.394 78.3925 721.358 Q80.6147 724.225 80.6147 726.962 Q80.6147 729.055 79.3909 729.861 Q77.3941 731.439 72.9819 731.31 L75.6872 734.563 Q81.0978 741.39 81.0978 747.542 Q81.0978 751.116 78.2637 753.21 Q77.3297 753.951 75.2041 754.079 Q73.2395 754.079 70.4698 753.403 Q65.5101 752.147 58.0706 748.798 Q50.0191 745.158 45.2204 743.999 Q43.739 743.645 42.9016 743.516 Q42.0643 743.355 40.9693 743.516 Q39.8743 743.645 39.0691 744.257 Q38.6505 744.482 38.3606 745.094 Q38.0707 745.674 38.0707 746.286 Q38.0707 747.316 39.0047 748.669 Q40.776 750.762 43.4813 751.438 Q44.4797 751.696 47.6359 752.179 L48.2478 754.208 Q45.2204 753.822 43.0949 753.339 Q38.9081 752.308 36.2994 749.055 Q34.3993 746.704 34.3993 743.516 Q34.3993 740.521 35.9774 739.361 Q36.8791 738.653 39.2624 738.524 Q41.6778 738.524 44.2865 739.168 Q49.2784 740.456 57.9418 744.385 Q64.2863 747.316 67.5069 748.089 Q70.5021 748.83 73.0463 748.733 Q75.1719 748.733 76.6212 747.799 Q78.2637 746.543 78.2637 744.063 Q78.2637 740.327 74.2379 735.336 Q71.7259 732.308 70.4054 730.923 Q59.4554 728.25 38.425 720.778 Q35.5265 715.722 33.9162 711.407 L34.6569 710.473 Z" fill="#000000" fill-rule="nonzero" fill-opacity="1" /><path clip-path="url(#clip100)" d="M94.4954 705.627 L33.0788 705.627 Q30.6312 705.627 30.6312 704.306 Q30.6312 702.986 32.5958 702.986 L94.0123 702.986 Q96.46 702.986 96.46 704.306 Q96.46 705.627 94.4954 705.627 Z" fill="#000000" fill-rule="nonzero" fill-opacity="1" /><path clip-path="url(#clip100)" d="M36.9757 630.576 L48.3766 631.896 Q49.4072 631.993 49.7293 632.154 Q50.0191 632.315 50.0191 632.83 Q50.0191 633.217 49.7937 633.442 Q49.536 633.635 49.2462 633.635 Q49.0852 633.635 48.6665 633.603 Q48.2478 633.571 48.0546 633.571 Q46.0578 633.281 44.5441 633.281 Q41.7422 633.281 40.2285 634.118 Q38.6827 634.956 37.9741 637.113 Q37.2334 639.271 37.2334 643.329 L37.2334 652.605 Q37.2334 654.73 37.6199 655.245 Q38.0063 655.728 39.8099 656.179 L55.6874 660.141 L55.6874 653.925 Q55.6874 651.606 55.3975 650.221 Q55.1076 648.804 54.3025 647.87 Q53.4652 646.904 52.3379 646.389 Q51.2107 645.841 49.1818 645.294 Q48.5054 645.133 48.2478 644.972 Q47.9902 644.778 47.9902 644.36 Q47.9902 644.038 48.2156 643.812 Q48.4088 643.587 48.6987 643.587 L64.1253 647.355 Q64.8982 647.548 65.1881 647.741 Q65.4457 647.935 65.4457 648.321 Q65.4457 648.74 65.2203 648.965 Q64.9948 649.191 64.7372 649.191 Q64.4796 649.191 63.9965 648.997 Q61.9031 648.514 60.7759 648.514 Q60.1318 648.514 59.8097 648.579 Q59.4876 648.611 59.0368 648.901 Q58.5537 649.158 58.3282 649.738 Q58.1028 650.318 57.9418 651.413 Q57.7485 652.508 57.7485 654.15 L57.7485 660.656 L75.7516 665.165 Q76.9432 665.487 77.2653 665.487 Q77.6195 665.487 77.7484 665.326 Q77.845 665.133 77.9094 664.617 Q78.006 664.038 78.006 663.168 L78.006 653.538 Q78.006 651.413 77.8128 649.706 Q77.6195 647.999 77.1365 646.582 Q76.6534 645.133 76.1059 644.038 Q75.5584 642.943 74.56 641.912 Q73.5294 640.882 72.6276 640.173 Q71.6937 639.432 70.1156 638.563 Q68.5375 637.693 67.2493 637.081 Q65.9288 636.469 63.8032 635.535 Q63.0303 635.278 63.0303 634.666 Q63.0303 634.312 63.2235 634.118 Q63.3846 633.925 63.5456 633.893 L63.7388 633.893 Q64.3507 634.086 64.6728 634.215 L78.9078 640.27 Q79.7129 640.624 79.874 640.914 Q80.035 641.204 80.035 642.331 L80.035 676.566 Q80.035 677.339 80.0028 677.661 Q79.9706 677.951 79.8095 678.176 Q79.6163 678.401 79.2298 678.401 Q78.6179 678.401 78.3603 678.144 Q78.0704 677.886 78.0382 677.596 Q78.006 677.306 78.006 676.566 Q78.006 674.955 77.9094 673.989 Q77.8128 673.023 77.684 672.411 Q77.5229 671.767 77.072 671.445 Q76.6212 671.091 76.2347 670.93 Q75.816 670.769 74.882 670.543 L40.0031 661.848 Q38.8115 661.526 38.425 661.526 Q38.0063 661.526 37.7487 661.815 Q37.491 662.073 37.3944 662.782 Q37.2656 663.49 37.2656 664.07 Q37.2334 664.617 37.2334 665.809 Q37.2334 666.582 37.2012 666.904 Q37.169 667.194 37.008 667.419 Q36.8469 667.645 36.4927 667.645 Q35.5909 667.645 35.3977 667.258 Q35.1722 666.84 35.1722 665.68 L35.1722 632.379 Q35.1722 631.059 35.4621 630.769 Q35.7197 630.447 36.9757 630.576 Z" fill="#000000" fill-rule="nonzero" fill-opacity="1" /><path clip-path="url(#clip100)" d="M98.3115 623.877 Q97.4774 623.877 97.2294 623.809 Q96.9814 623.719 96.5982 623.359 L86.7239 614.499 Q81.2682 609.652 76.5114 609.652 Q73.4229 609.652 71.2135 611.275 Q69.0042 612.876 69.0042 615.829 Q69.0042 617.858 70.2441 619.571 Q71.4841 621.284 73.6934 622.074 Q73.6483 621.938 73.6483 621.465 Q73.6483 620.315 74.3697 619.684 Q75.0911 619.03 76.0605 619.03 Q77.3004 619.03 77.9091 619.842 Q78.4953 620.631 78.4953 621.42 Q78.4953 621.735 78.4276 622.164 Q78.36 622.569 77.7288 623.223 Q77.075 623.877 75.9253 623.877 Q72.7014 623.877 70.1314 621.442 Q67.5614 618.985 67.5614 615.243 Q67.5614 611.004 70.0863 608.231 Q72.5887 605.436 76.5114 605.436 Q77.8866 605.436 79.1491 605.864 Q80.389 606.27 81.3584 606.834 Q82.3278 607.375 83.8833 608.863 Q85.4389 610.351 86.5435 611.545 Q87.6482 612.74 89.9928 615.423 L94.7496 620.315 L94.7496 611.996 Q94.7496 607.938 94.3889 607.623 Q93.7351 607.172 90.2858 606.608 L90.2858 605.436 L98.3115 606.744 L98.3115 623.877 Z" fill="#000000" fill-rule="nonzero" fill-opacity="1" /><path clip-path="url(#clip100)" d="M71.9575 601.789 L70.5147 601.789 Q70.5147 596.243 67.5614 593.38 Q67.5614 592.591 67.7417 592.456 Q67.9221 592.321 68.7562 592.321 L94.6594 592.321 Q96.0346 592.321 96.4629 591.644 Q96.8913 590.968 96.8913 588.015 L96.8913 586.549 L98.3115 586.549 Q98.1763 588.173 98.1763 594.034 Q98.1763 599.895 98.3115 601.496 L96.8913 601.496 L96.8913 600.031 Q96.8913 597.123 96.4855 596.424 Q96.0571 595.725 94.6594 595.725 L70.7401 595.725 Q71.9575 598.137 71.9575 601.789 Z" fill="#000000" fill-rule="nonzero" fill-opacity="1" /><path clip-path="url(#clip100)" d="M90.872 583.028 Q89.4968 583.028 88.9783 582.284 Q88.4372 581.54 88.4372 580.751 Q88.4372 579.691 89.1136 579.083 Q89.7673 578.451 90.6916 578.451 Q91.6159 578.451 92.2923 579.083 Q92.9461 579.691 92.9461 580.751 Q92.9461 581.269 92.8559 581.54 Q94.975 580.931 96.508 579.083 Q98.041 577.211 98.041 574.754 Q98.041 571.666 95.0427 569.817 Q93.1039 568.712 88.7078 568.712 Q84.8302 568.712 82.8914 569.546 Q79.9381 570.831 79.9381 573.469 Q79.9381 577.211 83.1619 579.421 Q83.5677 579.691 83.5902 580.007 Q83.5902 580.458 83.3423 580.57 Q83.0717 580.661 82.3729 580.661 L68.7111 580.661 Q67.6065 580.661 67.6065 580.21 Q67.6065 580.029 67.7417 579.646 Q69.0268 576.738 69.0493 573.514 Q69.0493 570.2 67.6967 567.224 Q67.5614 566.999 67.5614 566.864 Q67.5614 566.413 68.0799 566.39 Q68.2603 566.39 68.8013 566.773 Q69.3198 567.134 70.0187 567.923 Q70.695 568.712 71.3488 569.727 Q72.0026 570.741 72.4535 572.229 Q72.8818 573.694 72.8818 575.318 Q72.8818 577.256 72.2731 579.24 L81.2682 579.24 Q78.9236 576.851 78.9236 573.379 Q78.9236 569.682 81.8994 567.134 Q84.8753 564.587 89.0234 564.587 Q93.3744 564.587 96.3502 567.608 Q99.326 570.606 99.326 574.664 Q99.326 578.361 96.6884 580.706 Q94.0507 583.028 90.872 583.028 Z" fill="#000000" fill-rule="nonzero" fill-opacity="1" /><path clip-path="url(#clip100)" d="M63.5456 553.123 Q52.4024 553.123 43.4169 548.968 Q39.6488 547.197 36.4927 544.717 Q33.3365 542.237 31.9516 540.595 Q30.5668 538.952 30.5668 538.501 Q30.5668 537.857 31.2109 537.825 Q31.533 537.825 32.3381 538.695 Q43.1593 549.323 63.5456 549.29 Q83.9963 549.29 94.3988 538.952 Q95.526 537.825 95.8803 537.825 Q96.5244 537.825 96.5244 538.501 Q96.5244 538.952 95.2039 540.53 Q93.8835 542.109 90.8562 544.556 Q87.8288 547.004 84.1251 548.775 Q75.1397 553.123 63.5456 553.123 Z" fill="#000000" fill-rule="nonzero" fill-opacity="1" /><path clip-path="url(#clip100)" d="M35.7197 484.735 Q37.0402 484.735 37.0402 485.83 Q37.1046 487.763 37.491 489.083 Q37.8453 490.404 38.5538 491.177 Q39.2624 491.917 40.0353 492.336 Q40.776 492.722 41.9032 492.98 L65.3169 498.842 Q71.9191 500.516 76.7178 505.927 Q81.4842 511.337 81.4842 517.489 Q81.4842 520.999 80.035 523.93 Q78.5857 526.828 75.655 528.632 Q72.7243 530.435 68.8273 530.435 Q66.9594 530.435 64.9948 529.952 L48.6987 525.959 L42.9016 524.477 Q38.6182 523.382 38.2318 523.382 Q37.6199 523.382 37.4588 523.769 Q37.2656 524.123 37.169 525.154 L37.0402 527.666 Q37.0402 528.439 37.008 528.761 Q36.9757 529.051 36.8147 529.276 Q36.6537 529.502 36.2994 529.502 Q35.8485 529.502 35.5587 529.405 Q35.2366 529.276 35.14 529.051 Q35.0434 528.825 35.0112 528.664 Q34.979 528.503 34.979 528.245 L35.1722 519.743 L34.979 511.305 Q34.979 510.371 35.7197 510.371 Q36.6537 510.371 36.8469 510.79 Q37.0402 511.209 37.0402 512.626 Q37.0402 515.041 37.3622 516.136 Q37.6521 517.199 38.1674 517.521 Q38.6505 517.811 40.0675 518.165 L65.7356 524.574 Q67.0238 524.896 68.3121 525.089 Q69.5681 525.25 70.2122 525.25 L70.8563 525.283 Q74.9465 525.283 77.2009 523.028 Q79.4553 520.742 79.4553 517.231 Q79.4553 512.078 75.3651 507.279 Q71.275 502.449 64.866 500.806 L41.3235 494.88 Q40.7438 494.687 39.9387 494.687 Q38.6505 494.687 37.8775 495.653 Q37.0724 496.587 37.0402 499.164 Q37.0402 500.355 36.2994 500.355 Q35.6875 500.355 35.3977 500.13 Q35.0756 499.872 35.0434 499.679 Q34.979 499.453 34.979 499.164 Q34.979 498.069 35.0756 495.75 Q35.1722 493.431 35.1722 492.304 Q35.1722 491.177 35.0756 488.922 Q34.979 486.668 34.979 485.573 Q34.979 485.186 35.1722 484.993 Q35.3333 484.768 35.5265 484.735 L35.7197 484.735 Z" fill="#000000" fill-rule="nonzero" fill-opacity="1" /><path clip-path="url(#clip100)" d="M70.019 467.539 Q69.2138 467.474 69.2138 466.218 L69.2138 425.8 Q69.2138 423.9 69.9546 423.868 Q70.7597 423.868 70.7275 425.671 L70.7275 465.767 Q70.7597 467.539 70.019 467.539 M57.1366 467.539 Q56.3315 467.539 56.3637 466.154 L56.3637 425.864 Q56.3637 423.9 57.1366 423.868 Q57.8774 423.868 57.8774 425.542 L57.8774 466.218 Q57.8774 467.539 57.1366 467.539 Z" fill="#000000" fill-rule="nonzero" fill-opacity="1" /><path clip-path="url(#clip100)" d="M58.9401 398.422 Q49.2462 398.422 43.9644 395.974 Q36.1062 392.56 36.1062 384.509 Q36.1062 382.802 36.5893 381.031 Q37.0402 379.227 38.8115 376.973 Q40.5828 374.686 43.4813 373.301 Q49.0852 370.66 58.9401 370.66 Q68.5697 370.66 73.8193 373.108 Q81.4842 376.683 81.4842 384.573 Q81.4842 387.536 79.9706 390.564 Q78.4569 393.559 74.8176 395.459 Q69.3748 398.422 58.9401 398.422 M58.135 392.947 Q68.0866 392.947 72.0479 392.238 Q76.3313 391.433 78.1993 389.243 Q80.035 387.021 80.035 384.573 Q80.035 381.932 78.0704 379.742 Q76.0737 377.52 71.7903 376.844 Q67.5713 376.103 58.135 376.135 Q48.9563 376.135 45.2849 376.78 Q41.0015 377.649 39.2946 379.968 Q37.5555 382.255 37.5555 384.573 Q37.5555 385.443 37.8131 386.377 Q38.0707 387.279 38.8115 388.599 Q39.5522 389.92 41.388 390.95 Q43.2237 391.948 45.9934 392.432 Q49.5682 392.947 58.135 392.947 Z" fill="#000000" fill-rule="nonzero" fill-opacity="1" /><path clip-path="url(#clip100)" d="M95.8803 364.174 Q95.5582 364.174 94.7531 363.336 Q83.9319 352.709 63.5456 352.709 Q43.0949 352.709 32.7568 362.918 Q31.5652 364.174 31.2109 364.174 Q30.5668 364.174 30.5668 363.53 Q30.5668 363.079 31.8872 361.501 Q33.2077 359.89 36.235 357.475 Q39.2624 355.027 42.966 353.224 Q51.9515 348.876 63.5456 348.876 Q74.6888 348.876 83.6742 353.031 Q87.4423 354.802 90.5985 357.282 Q93.7547 359.762 95.1395 361.404 Q96.5244 363.047 96.5244 363.53 Q96.5244 364.174 95.8803 364.174 Z" fill="#000000" fill-rule="nonzero" fill-opacity="1" /><path clip-path="url(#clip100)" d="M63.0947 324.032 Q63.2235 323.967 63.5456 323.967 Q63.8676 323.967 63.9965 324.032 L95.6548 336.302 Q96.5244 336.624 96.5244 337.526 Q96.5244 338.073 96.1379 338.46 Q95.7514 338.846 95.2039 338.846 Q94.8819 338.846 94.7531 338.782 L63.5456 326.673 L32.3381 338.782 Q32.2093 338.846 31.8872 338.846 Q31.3397 338.846 30.9533 338.46 Q30.5668 338.073 30.5668 337.526 Q30.5668 336.624 31.4363 336.302 L63.0947 324.032 Z" fill="#000000" fill-rule="nonzero" fill-opacity="1" /><path clip-path="url(#clip100)" d="M94.4954 313.455 L33.0788 313.455 Q30.6312 313.455 30.6312 312.135 Q30.6312 310.814 32.5958 310.814 L94.0123 310.814 Q96.46 310.814 96.46 312.135 Q96.46 313.455 94.4954 313.455 Z" fill="#000000" fill-rule="nonzero" fill-opacity="1" /><path clip-path="url(#clip100)" d="M40.2358 303.806 Q39.4016 303.806 39.1536 303.738 Q38.9057 303.648 38.5224 303.287 L28.6481 294.427 Q23.1924 289.58 18.4356 289.58 Q15.3471 289.58 13.1378 291.204 Q10.9284 292.804 10.9284 295.758 Q10.9284 297.787 12.1684 299.5 Q13.4083 301.213 15.6176 302.002 Q15.5725 301.867 15.5725 301.394 Q15.5725 300.244 16.2939 299.613 Q17.0153 298.959 17.9847 298.959 Q19.2247 298.959 19.8334 299.77 Q20.4195 300.559 20.4195 301.349 Q20.4195 301.664 20.3519 302.092 Q20.2842 302.498 19.653 303.152 Q18.9992 303.806 17.8495 303.806 Q14.6257 303.806 12.0556 301.371 Q9.48561 298.914 9.48561 295.171 Q9.48561 290.933 12.0105 288.16 Q14.5129 285.365 18.4356 285.365 Q19.8108 285.365 21.0733 285.793 Q22.3132 286.199 23.2826 286.762 Q24.252 287.304 25.8075 288.791 Q27.3631 290.279 28.4677 291.474 Q29.5724 292.669 31.917 295.352 L36.6738 300.244 L36.6738 291.925 Q36.6738 287.867 36.3131 287.552 Q35.6593 287.101 32.2101 286.537 L32.2101 285.365 L40.2358 286.672 L40.2358 303.806 Z" fill="#000000" fill-rule="nonzero" fill-opacity="1" /><circle clip-path="url(#clip102)" cx="324.228" cy="85.838" r="14.4" fill="#009af9" fill-rule="evenodd" fill-opacity="1" stroke="#000000" stroke-opacity="1" stroke-width="3.2"/>
<circle clip-path="url(#clip102)" cx="393.089" cy="85.838" r="14.4" fill="#009af9" fill-rule="evenodd" fill-opacity="1" stroke="#000000" stroke-opacity="1" stroke-width="3.2"/>
<circle clip-path="url(#clip102)" cx="461.95" cy="85.838" r="14.4" fill="#009af9" fill-rule="evenodd" fill-opacity="1" stroke="#000000" stroke-opacity="1" stroke-width="3.2"/>
<circle clip-path="url(#clip102)" cx="530.811" cy="85.838" r="14.4" fill="#009af9" fill-rule="evenodd" fill-opacity="1" stroke="#000000" stroke-opacity="1" stroke-width="3.2"/>
<circle clip-path="url(#clip102)" cx="599.671" cy="85.838" r="14.4" fill="#009af9" fill-rule="evenodd" fill-opacity="1" stroke="#000000" stroke-opacity="1" stroke-width="3.2"/>
<circle clip-path="url(#clip102)" cx="668.532" cy="85.838" r="14.4" fill="#009af9" fill-rule="evenodd" fill-opacity="1" stroke="#000000" stroke-opacity="1" stroke-width="3.2"/>
<circle clip-path="url(#clip102)" cx="737.393" cy="85.838" r="14.4" fill="#009af9" fill-rule="evenodd" fill-opacity="1" stroke="#000000" stroke-opacity="1" stroke-width="3.2"/>
<circle clip-path="url(#clip102)" cx="806.254" cy="85.838" r="14.4" fill="#009af9" fill-rule="evenodd" fill-opacity="1" stroke="#000000" stroke-opacity="1" stroke-width="3.2"/>
<circle clip-path="url(#clip102)" cx="875.114" cy="85.838" r="14.4" fill="#009af9" fill-rule="evenodd" fill-opacity="1" stroke="#000000" stroke-opacity="1" stroke-width="3.2"/>
<circle clip-path="url(#clip102)" cx="943.975" cy="85.838" r="14.4" fill="#009af9" fill-rule="evenodd" fill-opacity="1" stroke="#000000" stroke-opacity="1" stroke-width="3.2"/>
<circle clip-path="url(#clip102)" cx="1012.84" cy="85.838" r="14.4" fill="#009af9" fill-rule="evenodd" fill-opacity="1" stroke="#000000" stroke-opacity="1" stroke-width="3.2"/>
<circle clip-path="url(#clip102)" cx="1081.7" cy="85.838" r="14.4" fill="#009af9" fill-rule="evenodd" fill-opacity="1" stroke="#000000" stroke-opacity="1" stroke-width="3.2"/>
<circle clip-path="url(#clip102)" cx="1150.56" cy="85.838" r="14.4" fill="#009af9" fill-rule="evenodd" fill-opacity="1" stroke="#000000" stroke-opacity="1" stroke-width="3.2"/>
<circle clip-path="url(#clip102)" cx="1219.42" cy="85.838" r="14.4" fill="#009af9" fill-rule="evenodd" fill-opacity="1" stroke="#000000" stroke-opacity="1" stroke-width="3.2"/>
<circle clip-path="url(#clip102)" cx="1288.28" cy="85.838" r="14.4" fill="#009af9" fill-rule="evenodd" fill-opacity="1" stroke="#000000" stroke-opacity="1" stroke-width="3.2"/>
<circle clip-path="url(#clip102)" cx="1357.14" cy="85.838" r="14.4" fill="#009af9" fill-rule="evenodd" fill-opacity="1" stroke="#000000" stroke-opacity="1" stroke-width="3.2"/>
<circle clip-path="url(#clip102)" cx="1426" cy="85.838" r="14.4" fill="#009af9" fill-rule="evenodd" fill-opacity="1" stroke="#000000" stroke-opacity="1" stroke-width="3.2"/>
<circle clip-path="url(#clip102)" cx="1494.86" cy="85.838" r="14.4" fill="#009af9" fill-rule="evenodd" fill-opacity="1" stroke="#000000" stroke-opacity="1" stroke-width="3.2"/>
<circle clip-path="url(#clip102)" cx="1563.72" cy="85.838" r="14.4" fill="#009af9" fill-rule="evenodd" fill-opacity="1" stroke="#000000" stroke-opacity="1" stroke-width="3.2"/>
<circle clip-path="url(#clip102)" cx="1632.58" cy="85.838" r="14.4" fill="#009af9" fill-rule="evenodd" fill-opacity="1" stroke="#000000" stroke-opacity="1" stroke-width="3.2"/>
<circle clip-path="url(#clip102)" cx="1701.44" cy="85.838" r="14.4" fill="#009af9" fill-rule="evenodd" fill-opacity="1" stroke="#000000" stroke-opacity="1" stroke-width="3.2"/>
<circle clip-path="url(#clip102)" cx="1770.3" cy="85.838" r="14.4" fill="#009af9" fill-rule="evenodd" fill-opacity="1" stroke="#000000" stroke-opacity="1" stroke-width="3.2"/>
<circle clip-path="url(#clip102)" cx="1839.17" cy="85.838" r="14.4" fill="#009af9" fill-rule="evenodd" fill-opacity="1" stroke="#000000" stroke-opacity="1" stroke-width="3.2"/>
<circle clip-path="url(#clip102)" cx="1908.03" cy="85.838" r="14.4" fill="#009af9" fill-rule="evenodd" fill-opacity="1" stroke="#000000" stroke-opacity="1" stroke-width="3.2"/>
<circle clip-path="url(#clip102)" cx="1976.89" cy="85.838" r="14.4" fill="#009af9" fill-rule="evenodd" fill-opacity="1" stroke="#000000" stroke-opacity="1" stroke-width="3.2"/>
<circle clip-path="url(#clip102)" cx="2045.75" cy="85.838" r="14.4" fill="#009af9" fill-rule="evenodd" fill-opacity="1" stroke="#000000" stroke-opacity="1" stroke-width="3.2"/>
<circle clip-path="url(#clip102)" cx="2108.64" cy="85.838" r="14.4" fill="#009af9" fill-rule="evenodd" fill-opacity="1" stroke="#000000" stroke-opacity="1" stroke-width="3.2"/>
<circle clip-path="url(#clip102)" cx="2114.61" cy="85.838" r="14.4" fill="#009af9" fill-rule="evenodd" fill-opacity="1" stroke="#000000" stroke-opacity="1" stroke-width="3.2"/>
<circle clip-path="url(#clip102)" cx="2145.85" cy="85.838" r="14.4" fill="#009af9" fill-rule="evenodd" fill-opacity="1" stroke="#000000" stroke-opacity="1" stroke-width="3.2"/>
<circle clip-path="url(#clip102)" cx="2177.93" cy="85.838" r="14.4" fill="#009af9" fill-rule="evenodd" fill-opacity="1" stroke="#000000" stroke-opacity="1" stroke-width="3.2"/>
<circle clip-path="url(#clip102)" cx="2183.47" cy="85.838" r="14.4" fill="#009af9" fill-rule="evenodd" fill-opacity="1" stroke="#000000" stroke-opacity="1" stroke-width="3.2"/>
<circle clip-path="url(#clip102)" cx="2206.13" cy="85.838" r="14.4" fill="#009af9" fill-rule="evenodd" fill-opacity="1" stroke="#000000" stroke-opacity="1" stroke-width="3.2"/>
<circle clip-path="url(#clip102)" cx="2231.28" cy="85.838" r="14.4" fill="#009af9" fill-rule="evenodd" fill-opacity="1" stroke="#000000" stroke-opacity="1" stroke-width="3.2"/>
<circle clip-path="url(#clip102)" cx="2252.33" cy="85.838" r="14.4" fill="#009af9" fill-rule="evenodd" fill-opacity="1" stroke="#000000" stroke-opacity="1" stroke-width="3.2"/>
<circle clip-path="url(#clip102)" cx="2253.98" cy="85.838" r="14.4" fill="#009af9" fill-rule="evenodd" fill-opacity="1" stroke="#000000" stroke-opacity="1" stroke-width="3.2"/>
<circle clip-path="url(#clip102)" cx="2274.67" cy="85.838" r="14.4" fill="#009af9" fill-rule="evenodd" fill-opacity="1" stroke="#000000" stroke-opacity="1" stroke-width="3.2"/>
<circle clip-path="url(#clip102)" cx="2293.67" cy="85.838" r="14.4" fill="#009af9" fill-rule="evenodd" fill-opacity="1" stroke="#000000" stroke-opacity="1" stroke-width="3.2"/>
<circle clip-path="url(#clip102)" cx="324.228" cy="113.421" r="14.4" fill="#e26f46" fill-rule="evenodd" fill-opacity="1" stroke="#000000" stroke-opacity="1" stroke-width="3.2"/>
<circle clip-path="url(#clip102)" cx="393.089" cy="113.421" r="14.4" fill="#e26f46" fill-rule="evenodd" fill-opacity="1" stroke="#000000" stroke-opacity="1" stroke-width="3.2"/>
<circle clip-path="url(#clip102)" cx="461.95" cy="113.421" r="14.4" fill="#e26f46" fill-rule="evenodd" fill-opacity="1" stroke="#000000" stroke-opacity="1" stroke-width="3.2"/>
<circle clip-path="url(#clip102)" cx="530.811" cy="113.421" r="14.4" fill="#e26f46" fill-rule="evenodd" fill-opacity="1" stroke="#000000" stroke-opacity="1" stroke-width="3.2"/>
<circle clip-path="url(#clip102)" cx="599.671" cy="113.42" r="14.4" fill="#e26f46" fill-rule="evenodd" fill-opacity="1" stroke="#000000" stroke-opacity="1" stroke-width="3.2"/>
<circle clip-path="url(#clip102)" cx="668.532" cy="113.421" r="14.4" fill="#e26f46" fill-rule="evenodd" fill-opacity="1" stroke="#000000" stroke-opacity="1" stroke-width="3.2"/>
<circle clip-path="url(#clip102)" cx="737.393" cy="113.421" r="14.4" fill="#e26f46" fill-rule="evenodd" fill-opacity="1" stroke="#000000" stroke-opacity="1" stroke-width="3.2"/>
<circle clip-path="url(#clip102)" cx="806.254" cy="113.421" r="14.4" fill="#e26f46" fill-rule="evenodd" fill-opacity="1" stroke="#000000" stroke-opacity="1" stroke-width="3.2"/>
<circle clip-path="url(#clip102)" cx="875.114" cy="113.421" r="14.4" fill="#e26f46" fill-rule="evenodd" fill-opacity="1" stroke="#000000" stroke-opacity="1" stroke-width="3.2"/>
<circle clip-path="url(#clip102)" cx="943.975" cy="113.421" r="14.4" fill="#e26f46" fill-rule="evenodd" fill-opacity="1" stroke="#000000" stroke-opacity="1" stroke-width="3.2"/>
<circle clip-path="url(#clip102)" cx="1012.84" cy="113.421" r="14.4" fill="#e26f46" fill-rule="evenodd" fill-opacity="1" stroke="#000000" stroke-opacity="1" stroke-width="3.2"/>
<circle clip-path="url(#clip102)" cx="1081.7" cy="113.421" r="14.4" fill="#e26f46" fill-rule="evenodd" fill-opacity="1" stroke="#000000" stroke-opacity="1" stroke-width="3.2"/>
<circle clip-path="url(#clip102)" cx="1150.56" cy="113.421" r="14.4" fill="#e26f46" fill-rule="evenodd" fill-opacity="1" stroke="#000000" stroke-opacity="1" stroke-width="3.2"/>
<circle clip-path="url(#clip102)" cx="1219.42" cy="113.421" r="14.4" fill="#e26f46" fill-rule="evenodd" fill-opacity="1" stroke="#000000" stroke-opacity="1" stroke-width="3.2"/>
<circle clip-path="url(#clip102)" cx="1288.28" cy="113.421" r="14.4" fill="#e26f46" fill-rule="evenodd" fill-opacity="1" stroke="#000000" stroke-opacity="1" stroke-width="3.2"/>
<circle clip-path="url(#clip102)" cx="1357.14" cy="113.421" r="14.4" fill="#e26f46" fill-rule="evenodd" fill-opacity="1" stroke="#000000" stroke-opacity="1" stroke-width="3.2"/>
<circle clip-path="url(#clip102)" cx="1426" cy="113.421" r="14.4" fill="#e26f46" fill-rule="evenodd" fill-opacity="1" stroke="#000000" stroke-opacity="1" stroke-width="3.2"/>
<circle clip-path="url(#clip102)" cx="1494.86" cy="113.421" r="14.4" fill="#e26f46" fill-rule="evenodd" fill-opacity="1" stroke="#000000" stroke-opacity="1" stroke-width="3.2"/>
<circle clip-path="url(#clip102)" cx="1563.72" cy="113.421" r="14.4" fill="#e26f46" fill-rule="evenodd" fill-opacity="1" stroke="#000000" stroke-opacity="1" stroke-width="3.2"/>
<circle clip-path="url(#clip102)" cx="1632.58" cy="113.421" r="14.4" fill="#e26f46" fill-rule="evenodd" fill-opacity="1" stroke="#000000" stroke-opacity="1" stroke-width="3.2"/>
<circle clip-path="url(#clip102)" cx="1701.44" cy="113.421" r="14.4" fill="#e26f46" fill-rule="evenodd" fill-opacity="1" stroke="#000000" stroke-opacity="1" stroke-width="3.2"/>
<circle clip-path="url(#clip102)" cx="1770.3" cy="113.421" r="14.4" fill="#e26f46" fill-rule="evenodd" fill-opacity="1" stroke="#000000" stroke-opacity="1" stroke-width="3.2"/>
<circle clip-path="url(#clip102)" cx="1839.17" cy="113.421" r="14.4" fill="#e26f46" fill-rule="evenodd" fill-opacity="1" stroke="#000000" stroke-opacity="1" stroke-width="3.2"/>
<circle clip-path="url(#clip102)" cx="1908.03" cy="113.421" r="14.4" fill="#e26f46" fill-rule="evenodd" fill-opacity="1" stroke="#000000" stroke-opacity="1" stroke-width="3.2"/>
<circle clip-path="url(#clip102)" cx="1976.89" cy="113.421" r="14.4" fill="#e26f46" fill-rule="evenodd" fill-opacity="1" stroke="#000000" stroke-opacity="1" stroke-width="3.2"/>
<circle clip-path="url(#clip102)" cx="2045.75" cy="113.421" r="14.4" fill="#e26f46" fill-rule="evenodd" fill-opacity="1" stroke="#000000" stroke-opacity="1" stroke-width="3.2"/>
<circle clip-path="url(#clip102)" cx="2108.64" cy="113.421" r="14.4" fill="#e26f46" fill-rule="evenodd" fill-opacity="1" stroke="#000000" stroke-opacity="1" stroke-width="3.2"/>
<circle clip-path="url(#clip102)" cx="2114.61" cy="113.421" r="14.4" fill="#e26f46" fill-rule="evenodd" fill-opacity="1" stroke="#000000" stroke-opacity="1" stroke-width="3.2"/>
<circle clip-path="url(#clip102)" cx="2145.85" cy="113.421" r="14.4" fill="#e26f46" fill-rule="evenodd" fill-opacity="1" stroke="#000000" stroke-opacity="1" stroke-width="3.2"/>
<circle clip-path="url(#clip102)" cx="2177.93" cy="113.421" r="14.4" fill="#e26f46" fill-rule="evenodd" fill-opacity="1" stroke="#000000" stroke-opacity="1" stroke-width="3.2"/>
<circle clip-path="url(#clip102)" cx="2183.47" cy="113.421" r="14.4" fill="#e26f46" fill-rule="evenodd" fill-opacity="1" stroke="#000000" stroke-opacity="1" stroke-width="3.2"/>
<circle clip-path="url(#clip102)" cx="2206.13" cy="113.421" r="14.4" fill="#e26f46" fill-rule="evenodd" fill-opacity="1" stroke="#000000" stroke-opacity="1" stroke-width="3.2"/>
<circle clip-path="url(#clip102)" cx="2231.28" cy="113.421" r="14.4" fill="#e26f46" fill-rule="evenodd" fill-opacity="1" stroke="#000000" stroke-opacity="1" stroke-width="3.2"/>
<circle clip-path="url(#clip102)" cx="2252.33" cy="113.421" r="14.4" fill="#e26f46" fill-rule="evenodd" fill-opacity="1" stroke="#000000" stroke-opacity="1" stroke-width="3.2"/>
<circle clip-path="url(#clip102)" cx="2253.98" cy="113.421" r="14.4" fill="#e26f46" fill-rule="evenodd" fill-opacity="1" stroke="#000000" stroke-opacity="1" stroke-width="3.2"/>
<circle clip-path="url(#clip102)" cx="2274.67" cy="113.421" r="14.4" fill="#e26f46" fill-rule="evenodd" fill-opacity="1" stroke="#000000" stroke-opacity="1" stroke-width="3.2"/>
<circle clip-path="url(#clip102)" cx="2293.67" cy="113.421" r="14.4" fill="#e26f46" fill-rule="evenodd" fill-opacity="1" stroke="#000000" stroke-opacity="1" stroke-width="3.2"/>
<circle clip-path="url(#clip102)" cx="324.228" cy="1258.02" r="14.4" fill="#3da44d" fill-rule="evenodd" fill-opacity="1" stroke="#000000" stroke-opacity="1" stroke-width="3.2"/>
<circle clip-path="url(#clip102)" cx="393.089" cy="1220.38" r="14.4" fill="#3da44d" fill-rule="evenodd" fill-opacity="1" stroke="#000000" stroke-opacity="1" stroke-width="3.2"/>
<circle clip-path="url(#clip102)" cx="461.95" cy="1205.77" r="14.4" fill="#3da44d" fill-rule="evenodd" fill-opacity="1" stroke="#000000" stroke-opacity="1" stroke-width="3.2"/>
<circle clip-path="url(#clip102)" cx="530.811" cy="1285.49" r="14.4" fill="#3da44d" fill-rule="evenodd" fill-opacity="1" stroke="#000000" stroke-opacity="1" stroke-width="3.2"/>
<circle clip-path="url(#clip102)" cx="599.671" cy="811.428" r="14.4" fill="#3da44d" fill-rule="evenodd" fill-opacity="1" stroke="#000000" stroke-opacity="1" stroke-width="3.2"/>
<circle clip-path="url(#clip102)" cx="668.532" cy="1252.13" r="14.4" fill="#3da44d" fill-rule="evenodd" fill-opacity="1" stroke="#000000" stroke-opacity="1" stroke-width="3.2"/>
<circle clip-path="url(#clip102)" cx="737.393" cy="1307.86" r="14.4" fill="#3da44d" fill-rule="evenodd" fill-opacity="1" stroke="#000000" stroke-opacity="1" stroke-width="3.2"/>
<circle clip-path="url(#clip102)" cx="806.254" cy="1281.06" r="14.4" fill="#3da44d" fill-rule="evenodd" fill-opacity="1" stroke="#000000" stroke-opacity="1" stroke-width="3.2"/>
<circle clip-path="url(#clip102)" cx="875.114" cy="1222.73" r="14.4" fill="#3da44d" fill-rule="evenodd" fill-opacity="1" stroke="#000000" stroke-opacity="1" stroke-width="3.2"/>
<circle clip-path="url(#clip102)" cx="943.975" cy="1307.29" r="14.4" fill="#3da44d" fill-rule="evenodd" fill-opacity="1" stroke="#000000" stroke-opacity="1" stroke-width="3.2"/>
<circle clip-path="url(#clip102)" cx="1012.84" cy="1250.12" r="14.4" fill="#3da44d" fill-rule="evenodd" fill-opacity="1" stroke="#000000" stroke-opacity="1" stroke-width="3.2"/>
<circle clip-path="url(#clip102)" cx="1081.7" cy="1258.24" r="14.4" fill="#3da44d" fill-rule="evenodd" fill-opacity="1" stroke="#000000" stroke-opacity="1" stroke-width="3.2"/>
<circle clip-path="url(#clip102)" cx="1150.56" cy="1231.66" r="14.4" fill="#3da44d" fill-rule="evenodd" fill-opacity="1" stroke="#000000" stroke-opacity="1" stroke-width="3.2"/>
<circle clip-path="url(#clip102)" cx="1219.42" cy="1229.53" r="14.4" fill="#3da44d" fill-rule="evenodd" fill-opacity="1" stroke="#000000" stroke-opacity="1" stroke-width="3.2"/>
<circle clip-path="url(#clip102)" cx="1288.28" cy="1283.49" r="14.4" fill="#3da44d" fill-rule="evenodd" fill-opacity="1" stroke="#000000" stroke-opacity="1" stroke-width="3.2"/>
<circle clip-path="url(#clip102)" cx="1357.14" cy="1289.12" r="14.4" fill="#3da44d" fill-rule="evenodd" fill-opacity="1" stroke="#000000" stroke-opacity="1" stroke-width="3.2"/>
<circle clip-path="url(#clip102)" cx="1426" cy="1290.3" r="14.4" fill="#3da44d" fill-rule="evenodd" fill-opacity="1" stroke="#000000" stroke-opacity="1" stroke-width="3.2"/>
<circle clip-path="url(#clip102)" cx="1494.86" cy="1268.1" r="14.4" fill="#3da44d" fill-rule="evenodd" fill-opacity="1" stroke="#000000" stroke-opacity="1" stroke-width="3.2"/>
<circle clip-path="url(#clip102)" cx="1563.72" cy="1279.64" r="14.4" fill="#3da44d" fill-rule="evenodd" fill-opacity="1" stroke="#000000" stroke-opacity="1" stroke-width="3.2"/>
<circle clip-path="url(#clip102)" cx="1632.58" cy="1314.5" r="14.4" fill="#3da44d" fill-rule="evenodd" fill-opacity="1" stroke="#000000" stroke-opacity="1" stroke-width="3.2"/>
<circle clip-path="url(#clip102)" cx="1701.44" cy="1261.29" r="14.4" fill="#3da44d" fill-rule="evenodd" fill-opacity="1" stroke="#000000" stroke-opacity="1" stroke-width="3.2"/>
<circle clip-path="url(#clip102)" cx="1770.3" cy="1264.45" r="14.4" fill="#3da44d" fill-rule="evenodd" fill-opacity="1" stroke="#000000" stroke-opacity="1" stroke-width="3.2"/>
<circle clip-path="url(#clip102)" cx="1839.17" cy="1274.97" r="14.4" fill="#3da44d" fill-rule="evenodd" fill-opacity="1" stroke="#000000" stroke-opacity="1" stroke-width="3.2"/>
<circle clip-path="url(#clip102)" cx="1908.03" cy="1351.58" r="14.4" fill="#3da44d" fill-rule="evenodd" fill-opacity="1" stroke="#000000" stroke-opacity="1" stroke-width="3.2"/>
<circle clip-path="url(#clip102)" cx="1976.89" cy="1281.26" r="14.4" fill="#3da44d" fill-rule="evenodd" fill-opacity="1" stroke="#000000" stroke-opacity="1" stroke-width="3.2"/>
<circle clip-path="url(#clip102)" cx="2045.75" cy="1226.25" r="14.4" fill="#3da44d" fill-rule="evenodd" fill-opacity="1" stroke="#000000" stroke-opacity="1" stroke-width="3.2"/>
<circle clip-path="url(#clip102)" cx="2108.64" cy="1242.85" r="14.4" fill="#3da44d" fill-rule="evenodd" fill-opacity="1" stroke="#000000" stroke-opacity="1" stroke-width="3.2"/>
<circle clip-path="url(#clip102)" cx="2114.61" cy="1253.69" r="14.4" fill="#3da44d" fill-rule="evenodd" fill-opacity="1" stroke="#000000" stroke-opacity="1" stroke-width="3.2"/>
<circle clip-path="url(#clip102)" cx="2145.85" cy="1372.3" r="14.4" fill="#3da44d" fill-rule="evenodd" fill-opacity="1" stroke="#000000" stroke-opacity="1" stroke-width="3.2"/>
<circle clip-path="url(#clip102)" cx="2177.93" cy="1254.63" r="14.4" fill="#3da44d" fill-rule="evenodd" fill-opacity="1" stroke="#000000" stroke-opacity="1" stroke-width="3.2"/>
<circle clip-path="url(#clip102)" cx="2183.47" cy="1213.39" r="14.4" fill="#3da44d" fill-rule="evenodd" fill-opacity="1" stroke="#000000" stroke-opacity="1" stroke-width="3.2"/>
<circle clip-path="url(#clip102)" cx="2206.13" cy="1256.72" r="14.4" fill="#3da44d" fill-rule="evenodd" fill-opacity="1" stroke="#000000" stroke-opacity="1" stroke-width="3.2"/>
<circle clip-path="url(#clip102)" cx="2231.28" cy="1295.46" r="14.4" fill="#3da44d" fill-rule="evenodd" fill-opacity="1" stroke="#000000" stroke-opacity="1" stroke-width="3.2"/>
<circle clip-path="url(#clip102)" cx="2252.33" cy="1010.33" r="14.4" fill="#3da44d" fill-rule="evenodd" fill-opacity="1" stroke="#000000" stroke-opacity="1" stroke-width="3.2"/>
<circle clip-path="url(#clip102)" cx="2253.98" cy="1362.4" r="14.4" fill="#3da44d" fill-rule="evenodd" fill-opacity="1" stroke="#000000" stroke-opacity="1" stroke-width="3.2"/>
<circle clip-path="url(#clip102)" cx="2274.67" cy="1268.66" r="14.4" fill="#3da44d" fill-rule="evenodd" fill-opacity="1" stroke="#000000" stroke-opacity="1" stroke-width="3.2"/>
<circle clip-path="url(#clip102)" cx="2293.67" cy="1354.07" r="14.4" fill="#3da44d" fill-rule="evenodd" fill-opacity="1" stroke="#000000" stroke-opacity="1" stroke-width="3.2"/>
<path clip-path="url(#clip100)" d="M334.732 852.285 L659.281 852.285 L659.281 644.925 L334.732 644.925  Z" fill="#ffffff" fill-rule="evenodd" fill-opacity="1"/>
<polyline clip-path="url(#clip100)" style="stroke:#000000; stroke-linecap:round; stroke-linejoin:round; stroke-width:4; stroke-opacity:1; fill:none" points="334.732,852.285 659.281,852.285 659.281,644.925 334.732,644.925 334.732,852.285 "/>
<circle clip-path="url(#clip100)" cx="427.515" cy="696.765" r="20.48" fill="#009af9" fill-rule="evenodd" fill-opacity="1" stroke="#000000" stroke-opacity="1" stroke-width="4.55111"/>
<path clip-path="url(#clip100)" d="M546.296 705.2 Q546.296 705.387 546.085 706.113 Q545.875 706.839 545.359 707.963 Q544.867 709.088 544.188 710.118 Q543.509 711.125 542.385 711.875 Q541.284 712.601 540.019 712.601 Q538.333 712.601 537.208 711.477 Q536.084 710.352 536.084 708.666 Q536.084 707.729 536.576 706.441 Q539.691 698.126 539.691 695.268 Q539.691 691.919 537.091 691.919 Q535.803 691.919 534.585 692.411 Q533.39 692.879 532.571 693.535 Q531.751 694.191 531.001 695.104 Q530.275 695.995 529.901 696.604 Q529.549 697.189 529.268 697.775 L528.659 700.164 Q528.519 700.82 527.839 703.373 L526.785 707.706 Q526.036 710.938 525.872 711.243 Q525.638 711.898 525.122 712.25 Q524.607 712.601 524.092 712.601 Q523.506 712.601 523.108 712.25 Q522.71 711.898 522.71 711.289 Q522.71 711.196 522.78 710.844 Q522.85 710.493 522.968 710.001 Q523.085 709.509 523.131 709.228 L525.919 698.149 Q526.434 696.135 526.551 695.503 Q526.692 694.847 526.692 694.121 Q526.692 691.919 525.193 691.919 Q523.975 691.919 523.178 693.371 Q522.382 694.823 521.703 697.634 Q521.492 698.407 521.351 698.571 Q521.234 698.735 520.883 698.735 Q520.297 698.712 520.297 698.243 Q520.297 698.126 520.485 697.353 Q520.672 696.58 521.023 695.479 Q521.398 694.355 521.75 693.605 Q522.054 693.043 522.218 692.786 Q522.405 692.505 522.85 691.966 Q523.319 691.404 523.928 691.146 Q524.56 690.865 525.333 690.865 Q527.066 690.865 528.331 691.989 Q529.596 693.09 529.76 695.034 Q532.875 690.865 537.232 690.865 Q539.808 690.865 541.284 692.224 Q542.759 693.582 542.759 695.995 Q542.759 696.557 542.642 697.283 Q542.549 697.985 542.314 698.875 Q542.104 699.766 541.916 700.445 Q541.729 701.124 541.354 702.225 Q540.979 703.302 540.815 703.771 Q540.651 704.239 540.253 705.34 Q539.879 706.418 539.832 706.535 Q538.965 708.713 538.965 709.954 Q538.965 710.774 539.223 711.149 Q539.504 711.524 540.113 711.524 Q541.752 711.524 542.97 709.907 Q544.212 708.268 545.008 705.598 Q545.195 705.012 545.289 704.872 Q545.406 704.731 545.734 704.731 Q546.296 704.731 546.296 705.2 Z" fill="#000000" fill-rule="nonzero" fill-opacity="1" /><path clip-path="url(#clip100)" d="M562.083 704.778 Q562.13 704.192 563.044 704.192 L592.439 704.192 Q593.821 704.192 593.844 704.731 Q593.844 705.317 592.533 705.293 L563.372 705.293 Q562.083 705.317 562.083 704.778 M562.083 695.409 Q562.083 694.823 563.091 694.847 L592.392 694.847 Q593.821 694.847 593.844 695.409 Q593.844 695.948 592.626 695.948 L563.044 695.948 Q562.083 695.948 562.083 695.409 Z" fill="#000000" fill-rule="nonzero" fill-opacity="1" /><path clip-path="url(#clip100)" d="M612.335 696.721 Q612.335 689.67 614.115 685.829 Q616.598 680.114 622.454 680.114 Q623.695 680.114 624.983 680.465 Q626.295 680.793 627.935 682.082 Q629.598 683.37 630.605 685.478 Q632.525 689.553 632.525 696.721 Q632.525 703.724 630.745 707.542 Q628.145 713.116 622.407 713.116 Q620.252 713.116 618.05 712.015 Q615.872 710.915 614.49 708.268 Q612.335 704.309 612.335 696.721 M616.317 696.135 Q616.317 703.373 616.832 706.254 Q617.418 709.369 619.011 710.727 Q620.627 712.062 622.407 712.062 Q624.328 712.062 625.92 710.634 Q627.536 709.181 628.028 706.066 Q628.567 702.998 628.544 696.135 Q628.544 689.46 628.075 686.79 Q627.443 683.674 625.756 682.433 Q624.093 681.168 622.407 681.168 Q621.774 681.168 621.095 681.356 Q620.439 681.543 619.479 682.082 Q618.519 682.62 617.769 683.955 Q617.043 685.29 616.692 687.305 Q616.317 689.905 616.317 696.135 Z" fill="#000000" fill-rule="nonzero" fill-opacity="1" /><circle clip-path="url(#clip100)" cx="427.515" cy="748.605" r="20.48" fill="#e26f46" fill-rule="evenodd" fill-opacity="1" stroke="#000000" stroke-opacity="1" stroke-width="4.55111"/>
<path clip-path="url(#clip100)" d="M546.296 757.297 Q546.296 757.485 546.085 758.211 Q545.875 758.937 545.359 760.061 Q544.867 761.185 544.188 762.216 Q543.509 763.223 542.385 763.973 Q541.284 764.699 540.019 764.699 Q538.333 764.699 537.208 763.575 Q536.084 762.45 536.084 760.764 Q536.084 759.827 536.576 758.539 Q539.691 750.224 539.691 747.366 Q539.691 744.017 537.091 744.017 Q535.803 744.017 534.585 744.509 Q533.39 744.977 532.571 745.633 Q531.751 746.289 531.001 747.202 Q530.275 748.092 529.901 748.701 Q529.549 749.287 529.268 749.872 L528.659 752.262 Q528.519 752.917 527.839 755.47 L526.785 759.804 Q526.036 763.036 525.872 763.34 Q525.638 763.996 525.122 764.348 Q524.607 764.699 524.092 764.699 Q523.506 764.699 523.108 764.348 Q522.71 763.996 522.71 763.387 Q522.71 763.294 522.78 762.942 Q522.85 762.591 522.968 762.099 Q523.085 761.607 523.131 761.326 L525.919 750.247 Q526.434 748.233 526.551 747.6 Q526.692 746.945 526.692 746.219 Q526.692 744.017 525.193 744.017 Q523.975 744.017 523.178 745.469 Q522.382 746.921 521.703 749.732 Q521.492 750.505 521.351 750.669 Q521.234 750.833 520.883 750.833 Q520.297 750.809 520.297 750.341 Q520.297 750.224 520.485 749.451 Q520.672 748.678 521.023 747.577 Q521.398 746.453 521.75 745.703 Q522.054 745.141 522.218 744.883 Q522.405 744.602 522.85 744.064 Q523.319 743.502 523.928 743.244 Q524.56 742.963 525.333 742.963 Q527.066 742.963 528.331 744.087 Q529.596 745.188 529.76 747.132 Q532.875 742.963 537.232 742.963 Q539.808 742.963 541.284 744.321 Q542.759 745.68 542.759 748.092 Q542.759 748.654 542.642 749.381 Q542.549 750.083 542.314 750.973 Q542.104 751.863 541.916 752.543 Q541.729 753.222 541.354 754.323 Q540.979 755.4 540.815 755.869 Q540.651 756.337 540.253 757.438 Q539.879 758.515 539.832 758.632 Q538.965 760.811 538.965 762.052 Q538.965 762.872 539.223 763.247 Q539.504 763.621 540.113 763.621 Q541.752 763.621 542.97 762.005 Q544.212 760.366 545.008 757.696 Q545.195 757.11 545.289 756.969 Q545.406 756.829 545.734 756.829 Q546.296 756.829 546.296 757.297 Z" fill="#000000" fill-rule="nonzero" fill-opacity="1" /><path clip-path="url(#clip100)" d="M562.083 756.876 Q562.13 756.29 563.044 756.29 L592.439 756.29 Q593.821 756.29 593.844 756.829 Q593.844 757.414 592.533 757.391 L563.372 757.391 Q562.083 757.414 562.083 756.876 M562.083 747.507 Q562.083 746.921 563.091 746.945 L592.392 746.945 Q593.821 746.945 593.844 747.507 Q593.844 748.045 592.626 748.045 L563.044 748.045 Q562.083 748.045 562.083 747.507 Z" fill="#000000" fill-rule="nonzero" fill-opacity="1" /><path clip-path="url(#clip100)" d="M612.335 736.779 L612.335 735.28 Q618.097 735.28 621.072 732.212 Q621.892 732.212 622.032 732.399 Q622.173 732.587 622.173 733.453 L622.173 760.366 Q622.173 761.794 622.875 762.24 Q623.578 762.685 626.646 762.685 L628.169 762.685 L628.169 764.16 Q626.482 764.02 620.393 764.02 Q614.303 764.02 612.64 764.16 L612.64 762.685 L614.162 762.685 Q617.184 762.685 617.91 762.263 Q618.636 761.818 618.636 760.366 L618.636 735.514 Q616.13 736.779 612.335 736.779 Z" fill="#000000" fill-rule="nonzero" fill-opacity="1" /><circle clip-path="url(#clip100)" cx="427.515" cy="800.445" r="20.48" fill="#3da44d" fill-rule="evenodd" fill-opacity="1" stroke="#000000" stroke-opacity="1" stroke-width="4.55111"/>
<path clip-path="url(#clip100)" d="M546.296 809.137 Q546.296 809.325 546.085 810.051 Q545.875 810.777 545.359 811.901 Q544.867 813.025 544.188 814.056 Q543.509 815.063 542.385 815.813 Q541.284 816.539 540.019 816.539 Q538.333 816.539 537.208 815.415 Q536.084 814.29 536.084 812.604 Q536.084 811.667 536.576 810.379 Q539.691 802.064 539.691 799.206 Q539.691 795.857 537.091 795.857 Q535.803 795.857 534.585 796.349 Q533.39 796.817 532.571 797.473 Q531.751 798.129 531.001 799.042 Q530.275 799.932 529.901 800.541 Q529.549 801.127 529.268 801.712 L528.659 804.102 Q528.519 804.757 527.839 807.31 L526.785 811.644 Q526.036 814.876 525.872 815.18 Q525.638 815.836 525.122 816.188 Q524.607 816.539 524.092 816.539 Q523.506 816.539 523.108 816.188 Q522.71 815.836 522.71 815.227 Q522.71 815.134 522.78 814.782 Q522.85 814.431 522.968 813.939 Q523.085 813.447 523.131 813.166 L525.919 802.087 Q526.434 800.073 526.551 799.44 Q526.692 798.785 526.692 798.059 Q526.692 795.857 525.193 795.857 Q523.975 795.857 523.178 797.309 Q522.382 798.761 521.703 801.572 Q521.492 802.345 521.351 802.509 Q521.234 802.673 520.883 802.673 Q520.297 802.649 520.297 802.181 Q520.297 802.064 520.485 801.291 Q520.672 800.518 521.023 799.417 Q521.398 798.293 521.75 797.543 Q522.054 796.981 522.218 796.723 Q522.405 796.442 522.85 795.904 Q523.319 795.342 523.928 795.084 Q524.56 794.803 525.333 794.803 Q527.066 794.803 528.331 795.927 Q529.596 797.028 529.76 798.972 Q532.875 794.803 537.232 794.803 Q539.808 794.803 541.284 796.161 Q542.759 797.52 542.759 799.932 Q542.759 800.494 542.642 801.221 Q542.549 801.923 542.314 802.813 Q542.104 803.703 541.916 804.383 Q541.729 805.062 541.354 806.163 Q540.979 807.24 540.815 807.709 Q540.651 808.177 540.253 809.278 Q539.879 810.355 539.832 810.472 Q538.965 812.651 538.965 813.892 Q538.965 814.712 539.223 815.087 Q539.504 815.461 540.113 815.461 Q541.752 815.461 542.97 813.845 Q544.212 812.206 545.008 809.536 Q545.195 808.95 545.289 808.809 Q545.406 808.669 545.734 808.669 Q546.296 808.669 546.296 809.137 Z" fill="#000000" fill-rule="nonzero" fill-opacity="1" /><path clip-path="url(#clip100)" d="M562.083 808.716 Q562.13 808.13 563.044 808.13 L592.439 808.13 Q593.821 808.13 593.844 808.669 Q593.844 809.254 592.533 809.231 L563.372 809.231 Q562.083 809.254 562.083 808.716 M562.083 799.347 Q562.083 798.761 563.091 798.785 L592.392 798.785 Q593.821 798.785 593.844 799.347 Q593.844 799.885 592.626 799.885 L563.044 799.885 Q562.083 799.885 562.083 799.347 Z" fill="#000000" fill-rule="nonzero" fill-opacity="1" /><path clip-path="url(#clip100)" d="M612.335 816 Q612.335 815.134 612.405 814.876 Q612.499 814.618 612.874 814.22 L622.079 803.961 Q627.115 798.293 627.115 793.351 Q627.115 790.142 625.428 787.846 Q623.765 785.551 620.697 785.551 Q618.589 785.551 616.809 786.839 Q615.029 788.127 614.209 790.423 Q614.35 790.376 614.841 790.376 Q616.036 790.376 616.692 791.126 Q617.371 791.875 617.371 792.882 Q617.371 794.17 616.528 794.803 Q615.708 795.412 614.888 795.412 Q614.56 795.412 614.115 795.342 Q613.694 795.271 613.014 794.615 Q612.335 793.936 612.335 792.742 Q612.335 789.392 614.865 786.722 Q617.418 784.052 621.306 784.052 Q625.709 784.052 628.59 786.675 Q631.495 789.275 631.495 793.351 Q631.495 794.779 631.05 796.091 Q630.628 797.379 630.043 798.386 Q629.48 799.394 627.935 801.01 Q626.389 802.626 625.147 803.774 Q623.906 804.921 621.119 807.357 L616.036 812.299 L624.679 812.299 Q628.895 812.299 629.223 811.925 Q629.691 811.245 630.277 807.662 L631.495 807.662 L630.136 816 L612.335 816 Z" fill="#000000" fill-rule="nonzero" fill-opacity="1" /></svg>
