<?xml version="1.0" encoding="utf-8"?>
<svg xmlns="http://www.w3.org/2000/svg" xmlns:xlink="http://www.w3.org/1999/xlink" width="600" height="400" viewBox="0 0 2400 1600">
<defs>
  <clipPath id="clip060">
    <rect x="0" y="0" width="2400" height="1600"/>
  </clipPath>
</defs>
<path clip-path="url(#clip060)" d="M0 1600 L2400 1600 L2400 0 L0 0  Z" fill="#ffffff" fill-rule="evenodd" fill-opacity="1"/>
<defs>
  <clipPath id="clip061">
    <rect x="480" y="0" width="1681" height="1600"/>
  </clipPath>
</defs>
<path clip-path="url(#clip060)" d="M283.076 1410.9 L2352.76 1410.9 L2352.76 47.2441 L283.076 47.2441  Z" fill="#ffffff" fill-rule="evenodd" fill-opacity="1"/>
<defs>
  <clipPath id="clip062">
    <rect x="283" y="47" width="2071" height="1365"/>
  </clipPath>
</defs>
<polyline clip-path="url(#clip062)" style="stroke:#000000; stroke-linecap:round; stroke-linejoin:round; stroke-width:2; stroke-opacity:0.1; fill:none" points="647.724,1410.9 647.724,47.2441 "/>
<polyline clip-path="url(#clip062)" style="stroke:#000000; stroke-linecap:round; stroke-linejoin:round; stroke-width:2; stroke-opacity:0.1; fill:none" points="1059.34,1410.9 1059.34,47.2441 "/>
<polyline clip-path="url(#clip062)" style="stroke:#000000; stroke-linecap:round; stroke-linejoin:round; stroke-width:2; stroke-opacity:0.1; fill:none" points="1470.95,1410.9 1470.95,47.2441 "/>
<polyline clip-path="url(#clip062)" style="stroke:#000000; stroke-linecap:round; stroke-linejoin:round; stroke-width:2; stroke-opacity:0.1; fill:none" points="1882.57,1410.9 1882.57,47.2441 "/>
<polyline clip-path="url(#clip062)" style="stroke:#000000; stroke-linecap:round; stroke-linejoin:round; stroke-width:2; stroke-opacity:0.1; fill:none" points="2294.18,1410.9 2294.18,47.2441 "/>
<polyline clip-path="url(#clip062)" style="stroke:#000000; stroke-linecap:round; stroke-linejoin:round; stroke-width:2; stroke-opacity:0.1; fill:none" points="283.076,1397.7 2352.76,1397.7 "/>
<polyline clip-path="url(#clip062)" style="stroke:#000000; stroke-linecap:round; stroke-linejoin:round; stroke-width:2; stroke-opacity:0.1; fill:none" points="283.076,1236.55 2352.76,1236.55 "/>
<polyline clip-path="url(#clip062)" style="stroke:#000000; stroke-linecap:round; stroke-linejoin:round; stroke-width:2; stroke-opacity:0.1; fill:none" points="283.076,1075.41 2352.76,1075.41 "/>
<polyline clip-path="url(#clip062)" style="stroke:#000000; stroke-linecap:round; stroke-linejoin:round; stroke-width:2; stroke-opacity:0.1; fill:none" points="283.076,914.27 2352.76,914.27 "/>
<polyline clip-path="url(#clip062)" style="stroke:#000000; stroke-linecap:round; stroke-linejoin:round; stroke-width:2; stroke-opacity:0.1; fill:none" points="283.076,753.128 2352.76,753.128 "/>
<polyline clip-path="url(#clip062)" style="stroke:#000000; stroke-linecap:round; stroke-linejoin:round; stroke-width:2; stroke-opacity:0.1; fill:none" points="283.076,591.985 2352.76,591.985 "/>
<polyline clip-path="url(#clip062)" style="stroke:#000000; stroke-linecap:round; stroke-linejoin:round; stroke-width:2; stroke-opacity:0.1; fill:none" points="283.076,430.843 2352.76,430.843 "/>
<polyline clip-path="url(#clip062)" style="stroke:#000000; stroke-linecap:round; stroke-linejoin:round; stroke-width:2; stroke-opacity:0.1; fill:none" points="283.076,269.701 2352.76,269.701 "/>
<polyline clip-path="url(#clip062)" style="stroke:#000000; stroke-linecap:round; stroke-linejoin:round; stroke-width:2; stroke-opacity:0.1; fill:none" points="283.076,108.558 2352.76,108.558 "/>
<polyline clip-path="url(#clip060)" style="stroke:#000000; stroke-linecap:round; stroke-linejoin:round; stroke-width:4; stroke-opacity:1; fill:none" points="283.076,1410.9 2352.76,1410.9 "/>
<polyline clip-path="url(#clip060)" style="stroke:#000000; stroke-linecap:round; stroke-linejoin:round; stroke-width:4; stroke-opacity:1; fill:none" points="647.724,1410.9 647.724,1392 "/>
<polyline clip-path="url(#clip060)" style="stroke:#000000; stroke-linecap:round; stroke-linejoin:round; stroke-width:4; stroke-opacity:1; fill:none" points="1059.34,1410.9 1059.34,1392 "/>
<polyline clip-path="url(#clip060)" style="stroke:#000000; stroke-linecap:round; stroke-linejoin:round; stroke-width:4; stroke-opacity:1; fill:none" points="1470.95,1410.9 1470.95,1392 "/>
<polyline clip-path="url(#clip060)" style="stroke:#000000; stroke-linecap:round; stroke-linejoin:round; stroke-width:4; stroke-opacity:1; fill:none" points="1882.57,1410.9 1882.57,1392 "/>
<polyline clip-path="url(#clip060)" style="stroke:#000000; stroke-linecap:round; stroke-linejoin:round; stroke-width:4; stroke-opacity:1; fill:none" points="2294.18,1410.9 2294.18,1392 "/>
<path clip-path="url(#clip060)" d="M597.989 1485.02 L605.628 1485.02 L605.628 1458.66 L597.318 1460.32 L597.318 1456.06 L605.582 1454.4 L610.258 1454.4 L610.258 1485.02 L617.897 1485.02 L617.897 1488.96 L597.989 1488.96 L597.989 1485.02 Z" fill="#000000" fill-rule="nonzero" fill-opacity="1" /><path clip-path="url(#clip060)" d="M637.341 1457.48 Q633.73 1457.48 631.901 1461.04 Q630.096 1464.58 630.096 1471.71 Q630.096 1478.82 631.901 1482.38 Q633.73 1485.92 637.341 1485.92 Q640.975 1485.92 642.781 1482.38 Q644.609 1478.82 644.609 1471.71 Q644.609 1464.58 642.781 1461.04 Q640.975 1457.48 637.341 1457.48 M637.341 1453.77 Q643.151 1453.77 646.207 1458.38 Q649.285 1462.96 649.285 1471.71 Q649.285 1480.44 646.207 1485.04 Q643.151 1489.63 637.341 1489.63 Q631.531 1489.63 628.452 1485.04 Q625.397 1480.44 625.397 1471.71 Q625.397 1462.96 628.452 1458.38 Q631.531 1453.77 637.341 1453.77 Z" fill="#000000" fill-rule="nonzero" fill-opacity="1" /><path clip-path="url(#clip060)" d="M649.285 1447.87 L673.397 1447.87 L673.397 1451.07 L649.285 1451.07 L649.285 1447.87 Z" fill="#000000" fill-rule="nonzero" fill-opacity="1" /><path clip-path="url(#clip060)" d="M684.87 1458.35 L698.129 1458.35 L698.129 1461.55 L680.299 1461.55 L680.299 1458.35 Q682.462 1456.11 686.186 1452.35 Q689.929 1448.57 690.888 1447.48 Q692.712 1445.43 693.427 1444.02 Q694.161 1442.59 694.161 1441.22 Q694.161 1438.98 692.581 1437.57 Q691.02 1436.16 688.499 1436.16 Q686.713 1436.16 684.719 1436.78 Q682.744 1437.4 680.487 1438.66 L680.487 1434.82 Q682.782 1433.9 684.776 1433.43 Q686.769 1432.96 688.424 1432.96 Q692.788 1432.96 695.383 1435.14 Q697.979 1437.32 697.979 1440.97 Q697.979 1442.7 697.32 1444.26 Q696.681 1445.8 694.969 1447.91 Q694.499 1448.46 691.979 1451.07 Q689.459 1453.67 684.87 1458.35 Z" fill="#000000" fill-rule="nonzero" fill-opacity="1" /><path clip-path="url(#clip060)" d="M1009.45 1485.02 L1017.09 1485.02 L1017.09 1458.66 L1008.78 1460.32 L1008.78 1456.06 L1017.05 1454.4 L1021.72 1454.4 L1021.72 1485.02 L1029.36 1485.02 L1029.36 1488.96 L1009.45 1488.96 L1009.45 1485.02 Z" fill="#000000" fill-rule="nonzero" fill-opacity="1" /><path clip-path="url(#clip060)" d="M1048.8 1457.48 Q1045.19 1457.48 1043.36 1461.04 Q1041.56 1464.58 1041.56 1471.71 Q1041.56 1478.82 1043.36 1482.38 Q1045.19 1485.92 1048.8 1485.92 Q1052.44 1485.92 1054.24 1482.38 Q1056.07 1478.82 1056.07 1471.71 Q1056.07 1464.58 1054.24 1461.04 Q1052.44 1457.48 1048.8 1457.48 M1048.8 1453.77 Q1054.61 1453.77 1057.67 1458.38 Q1060.75 1462.96 1060.75 1471.71 Q1060.75 1480.44 1057.67 1485.04 Q1054.61 1489.63 1048.8 1489.63 Q1042.99 1489.63 1039.92 1485.04 Q1036.86 1480.44 1036.86 1471.71 Q1036.86 1462.96 1039.92 1458.38 Q1042.99 1453.77 1048.8 1453.77 Z" fill="#000000" fill-rule="nonzero" fill-opacity="1" /><path clip-path="url(#clip060)" d="M1060.75 1447.87 L1084.86 1447.87 L1084.86 1451.07 L1060.75 1451.07 L1060.75 1447.87 Z" fill="#000000" fill-rule="nonzero" fill-opacity="1" /><path clip-path="url(#clip060)" d="M1093.72 1458.35 L1099.93 1458.35 L1099.93 1436.93 L1093.17 1438.28 L1093.17 1434.82 L1099.89 1433.47 L1103.69 1433.47 L1103.69 1458.35 L1109.89 1458.35 L1109.89 1461.55 L1093.72 1461.55 L1093.72 1458.35 Z" fill="#000000" fill-rule="nonzero" fill-opacity="1" /><path clip-path="url(#clip060)" d="M1435.93 1485.02 L1443.57 1485.02 L1443.57 1458.66 L1435.26 1460.32 L1435.26 1456.06 L1443.53 1454.4 L1448.2 1454.4 L1448.2 1485.02 L1455.84 1485.02 L1455.84 1488.96 L1435.93 1488.96 L1435.93 1485.02 Z" fill="#000000" fill-rule="nonzero" fill-opacity="1" /><path clip-path="url(#clip060)" d="M1475.29 1457.48 Q1471.68 1457.48 1469.85 1461.04 Q1468.04 1464.58 1468.04 1471.71 Q1468.04 1478.82 1469.85 1482.38 Q1471.68 1485.92 1475.29 1485.92 Q1478.92 1485.92 1480.73 1482.38 Q1482.55 1478.82 1482.55 1471.71 Q1482.55 1464.58 1480.73 1461.04 Q1478.92 1457.48 1475.29 1457.48 M1475.29 1453.77 Q1481.1 1453.77 1484.15 1458.38 Q1487.23 1462.96 1487.23 1471.71 Q1487.23 1480.44 1484.15 1485.04 Q1481.1 1489.63 1475.29 1489.63 Q1469.48 1489.63 1466.4 1485.04 Q1463.34 1480.44 1463.34 1471.71 Q1463.34 1462.96 1466.4 1458.38 Q1469.48 1453.77 1475.29 1453.77 Z" fill="#000000" fill-rule="nonzero" fill-opacity="1" /><path clip-path="url(#clip060)" d="M1496.94 1435.97 Q1494 1435.97 1492.52 1438.86 Q1491.05 1441.74 1491.05 1447.53 Q1491.05 1453.31 1492.52 1456.2 Q1494 1459.08 1496.94 1459.08 Q1499.89 1459.08 1501.36 1456.2 Q1502.84 1453.31 1502.84 1447.53 Q1502.84 1441.74 1501.36 1438.86 Q1499.89 1435.97 1496.94 1435.97 M1496.94 1432.96 Q1501.66 1432.96 1504.14 1436.7 Q1506.64 1440.43 1506.64 1447.53 Q1506.64 1454.62 1504.14 1458.37 Q1501.66 1462.09 1496.94 1462.09 Q1492.21 1462.09 1489.71 1458.37 Q1487.23 1454.62 1487.23 1447.53 Q1487.23 1440.43 1489.71 1436.7 Q1492.21 1432.96 1496.94 1432.96 Z" fill="#000000" fill-rule="nonzero" fill-opacity="1" /><path clip-path="url(#clip060)" d="M1848.89 1485.02 L1856.53 1485.02 L1856.53 1458.66 L1848.22 1460.32 L1848.22 1456.06 L1856.49 1454.4 L1861.16 1454.4 L1861.16 1485.02 L1868.8 1485.02 L1868.8 1488.96 L1848.89 1488.96 L1848.89 1485.02 Z" fill="#000000" fill-rule="nonzero" fill-opacity="1" /><path clip-path="url(#clip060)" d="M1888.25 1457.48 Q1884.63 1457.48 1882.81 1461.04 Q1881 1464.58 1881 1471.71 Q1881 1478.82 1882.81 1482.38 Q1884.63 1485.92 1888.25 1485.92 Q1891.88 1485.92 1893.68 1482.38 Q1895.51 1478.82 1895.51 1471.71 Q1895.51 1464.58 1893.68 1461.04 Q1891.88 1457.48 1888.25 1457.48 M1888.25 1453.77 Q1894.06 1453.77 1897.11 1458.38 Q1900.19 1462.96 1900.19 1471.71 Q1900.19 1480.44 1897.11 1485.04 Q1894.06 1489.63 1888.25 1489.63 Q1882.43 1489.63 1879.36 1485.04 Q1876.3 1480.44 1876.3 1471.71 Q1876.3 1462.96 1879.36 1458.38 Q1882.43 1453.77 1888.25 1453.77 Z" fill="#000000" fill-rule="nonzero" fill-opacity="1" /><path clip-path="url(#clip060)" d="M1900.73 1458.35 L1906.94 1458.35 L1906.94 1436.93 L1900.19 1438.28 L1900.19 1434.82 L1906.9 1433.47 L1910.7 1433.47 L1910.7 1458.35 L1916.91 1458.35 L1916.91 1461.55 L1900.73 1461.55 L1900.73 1458.35 Z" fill="#000000" fill-rule="nonzero" fill-opacity="1" /><path clip-path="url(#clip060)" d="M2259.95 1485.02 L2267.59 1485.02 L2267.59 1458.66 L2259.28 1460.32 L2259.28 1456.06 L2267.55 1454.4 L2272.22 1454.4 L2272.22 1485.02 L2279.86 1485.02 L2279.86 1488.96 L2259.95 1488.96 L2259.95 1485.02 Z" fill="#000000" fill-rule="nonzero" fill-opacity="1" /><path clip-path="url(#clip060)" d="M2299.3 1457.48 Q2295.69 1457.48 2293.86 1461.04 Q2292.06 1464.58 2292.06 1471.71 Q2292.06 1478.82 2293.86 1482.38 Q2295.69 1485.92 2299.3 1485.92 Q2302.94 1485.92 2304.74 1482.38 Q2306.57 1478.82 2306.57 1471.71 Q2306.57 1464.58 2304.74 1461.04 Q2302.94 1457.48 2299.3 1457.48 M2299.3 1453.77 Q2305.11 1453.77 2308.17 1458.38 Q2311.25 1462.96 2311.25 1471.71 Q2311.25 1480.44 2308.17 1485.04 Q2305.11 1489.63 2299.3 1489.63 Q2293.49 1489.63 2290.42 1485.04 Q2287.36 1480.44 2287.36 1471.71 Q2287.36 1462.96 2290.42 1458.38 Q2293.49 1453.77 2299.3 1453.77 Z" fill="#000000" fill-rule="nonzero" fill-opacity="1" /><path clip-path="url(#clip060)" d="M2315.82 1458.35 L2329.08 1458.35 L2329.08 1461.55 L2311.25 1461.55 L2311.25 1458.35 Q2313.41 1456.11 2317.14 1452.35 Q2320.88 1448.57 2321.84 1447.48 Q2323.66 1445.43 2324.38 1444.02 Q2325.11 1442.59 2325.11 1441.22 Q2325.11 1438.98 2323.53 1437.57 Q2321.97 1436.16 2319.45 1436.16 Q2317.66 1436.16 2315.67 1436.78 Q2313.69 1437.4 2311.44 1438.66 L2311.44 1434.82 Q2313.73 1433.9 2315.73 1433.43 Q2317.72 1432.96 2319.37 1432.96 Q2323.74 1432.96 2326.33 1435.14 Q2328.93 1437.32 2328.93 1440.97 Q2328.93 1442.7 2328.27 1444.26 Q2327.63 1445.8 2325.92 1447.91 Q2325.45 1448.46 2322.93 1451.07 Q2320.41 1453.67 2315.82 1458.35 Z" fill="#000000" fill-rule="nonzero" fill-opacity="1" /><path clip-path="url(#clip060)" d="M1341.32 1522.95 Q1341.32 1524.27 1340.22 1524.27 Q1338.29 1524.34 1336.97 1524.72 Q1335.65 1525.08 1334.88 1525.79 Q1334.14 1526.49 1333.72 1527.27 Q1333.33 1528.01 1333.07 1529.14 L1327.21 1552.55 Q1325.54 1559.15 1320.13 1563.95 Q1314.72 1568.72 1308.57 1568.72 Q1305.06 1568.72 1302.12 1567.27 Q1299.23 1565.82 1297.42 1562.89 Q1295.62 1559.96 1295.62 1556.06 Q1295.62 1554.19 1296.1 1552.23 L1300.1 1535.93 L1301.58 1530.13 Q1302.67 1525.85 1302.67 1525.46 Q1302.67 1524.85 1302.29 1524.69 Q1301.93 1524.5 1300.9 1524.4 L1298.39 1524.27 Q1297.62 1524.27 1297.29 1524.24 Q1297 1524.21 1296.78 1524.05 Q1296.55 1523.89 1296.55 1523.53 Q1296.55 1523.08 1296.65 1522.79 Q1296.78 1522.47 1297 1522.37 Q1297.23 1522.28 1297.39 1522.24 Q1297.55 1522.21 1297.81 1522.21 L1306.31 1522.4 L1314.75 1522.21 Q1315.68 1522.21 1315.68 1522.95 Q1315.68 1523.89 1315.26 1524.08 Q1314.85 1524.27 1313.43 1524.27 Q1311.01 1524.27 1309.92 1524.59 Q1308.86 1524.88 1308.53 1525.4 Q1308.24 1525.88 1307.89 1527.3 L1301.48 1552.97 Q1301.16 1554.26 1300.96 1555.54 Q1300.8 1556.8 1300.8 1557.44 L1300.77 1558.09 Q1300.77 1562.18 1303.03 1564.43 Q1305.31 1566.69 1308.82 1566.69 Q1313.98 1566.69 1318.77 1562.6 Q1323.61 1558.51 1325.25 1552.1 L1331.17 1528.56 Q1331.37 1527.98 1331.37 1527.17 Q1331.37 1525.88 1330.4 1525.11 Q1329.47 1524.3 1326.89 1524.27 Q1325.7 1524.27 1325.7 1523.53 Q1325.7 1522.92 1325.92 1522.63 Q1326.18 1522.31 1326.38 1522.28 Q1326.6 1522.21 1326.89 1522.21 Q1327.99 1522.21 1330.3 1522.31 Q1332.62 1522.4 1333.75 1522.4 Q1334.88 1522.4 1337.13 1522.31 Q1339.39 1522.21 1340.48 1522.21 Q1340.87 1522.21 1341.06 1522.4 Q1341.29 1522.57 1341.32 1522.76 L1341.32 1522.95 Z" fill="#000000" fill-rule="nonzero" fill-opacity="1" /><polyline clip-path="url(#clip060)" style="stroke:#000000; stroke-linecap:round; stroke-linejoin:round; stroke-width:4; stroke-opacity:1; fill:none" points="283.076,1410.9 283.076,47.2441 "/>
<polyline clip-path="url(#clip060)" style="stroke:#000000; stroke-linecap:round; stroke-linejoin:round; stroke-width:4; stroke-opacity:1; fill:none" points="283.076,1397.7 301.973,1397.7 "/>
<polyline clip-path="url(#clip060)" style="stroke:#000000; stroke-linecap:round; stroke-linejoin:round; stroke-width:4; stroke-opacity:1; fill:none" points="283.076,1236.55 301.973,1236.55 "/>
<polyline clip-path="url(#clip060)" style="stroke:#000000; stroke-linecap:round; stroke-linejoin:round; stroke-width:4; stroke-opacity:1; fill:none" points="283.076,1075.41 301.973,1075.41 "/>
<polyline clip-path="url(#clip060)" style="stroke:#000000; stroke-linecap:round; stroke-linejoin:round; stroke-width:4; stroke-opacity:1; fill:none" points="283.076,914.27 301.973,914.27 "/>
<polyline clip-path="url(#clip060)" style="stroke:#000000; stroke-linecap:round; stroke-linejoin:round; stroke-width:4; stroke-opacity:1; fill:none" points="283.076,753.128 301.973,753.128 "/>
<polyline clip-path="url(#clip060)" style="stroke:#000000; stroke-linecap:round; stroke-linejoin:round; stroke-width:4; stroke-opacity:1; fill:none" points="283.076,591.985 301.973,591.985 "/>
<polyline clip-path="url(#clip060)" style="stroke:#000000; stroke-linecap:round; stroke-linejoin:round; stroke-width:4; stroke-opacity:1; fill:none" points="283.076,430.843 301.973,430.843 "/>
<polyline clip-path="url(#clip060)" style="stroke:#000000; stroke-linecap:round; stroke-linejoin:round; stroke-width:4; stroke-opacity:1; fill:none" points="283.076,269.701 301.973,269.701 "/>
<polyline clip-path="url(#clip060)" style="stroke:#000000; stroke-linecap:round; stroke-linejoin:round; stroke-width:4; stroke-opacity:1; fill:none" points="283.076,108.558 301.973,108.558 "/>
<path clip-path="url(#clip060)" d="M146.447 1417.49 L154.086 1417.49 L154.086 1391.12 L145.776 1392.79 L145.776 1388.53 L154.039 1386.86 L158.715 1386.86 L158.715 1417.49 L166.354 1417.49 L166.354 1421.42 L146.447 1421.42 L146.447 1417.49 Z" fill="#000000" fill-rule="nonzero" fill-opacity="1" /><path clip-path="url(#clip060)" d="M185.798 1389.94 Q182.187 1389.94 180.359 1393.51 Q178.553 1397.05 178.553 1404.18 Q178.553 1411.29 180.359 1414.85 Q182.187 1418.39 185.798 1418.39 Q189.433 1418.39 191.238 1414.85 Q193.067 1411.29 193.067 1404.18 Q193.067 1397.05 191.238 1393.51 Q189.433 1389.94 185.798 1389.94 M185.798 1386.24 Q191.609 1386.24 194.664 1390.85 Q197.743 1395.43 197.743 1404.18 Q197.743 1412.91 194.664 1417.51 Q191.609 1422.1 185.798 1422.1 Q179.988 1422.1 176.91 1417.51 Q173.854 1412.91 173.854 1404.18 Q173.854 1395.43 176.91 1390.85 Q179.988 1386.24 185.798 1386.24 Z" fill="#000000" fill-rule="nonzero" fill-opacity="1" /><path clip-path="url(#clip060)" d="M197.743 1380.34 L221.854 1380.34 L221.854 1383.54 L197.743 1383.54 L197.743 1380.34 Z" fill="#000000" fill-rule="nonzero" fill-opacity="1" /><path clip-path="url(#clip060)" d="M230.092 1365.93 L245.007 1365.93 L245.007 1369.13 L233.572 1369.13 L233.572 1376.02 Q234.399 1375.73 235.227 1375.6 Q236.054 1375.45 236.882 1375.45 Q241.584 1375.45 244.33 1378.03 Q247.076 1380.6 247.076 1385.01 Q247.076 1389.54 244.254 1392.06 Q241.433 1394.56 236.299 1394.56 Q234.531 1394.56 232.688 1394.26 Q230.863 1393.96 228.907 1393.36 L228.907 1389.54 Q230.6 1390.46 232.406 1390.91 Q234.211 1391.36 236.224 1391.36 Q239.477 1391.36 241.377 1389.65 Q243.276 1387.94 243.276 1385.01 Q243.276 1382.07 241.377 1380.36 Q239.477 1378.65 236.224 1378.65 Q234.7 1378.65 233.177 1378.99 Q231.672 1379.33 230.092 1380.04 L230.092 1365.93 Z" fill="#000000" fill-rule="nonzero" fill-opacity="1" /><path clip-path="url(#clip060)" d="M145.243 1256.35 L152.882 1256.35 L152.882 1229.98 L144.572 1231.65 L144.572 1227.39 L152.836 1225.72 L157.512 1225.72 L157.512 1256.35 L165.15 1256.35 L165.15 1260.28 L145.243 1260.28 L145.243 1256.35 Z" fill="#000000" fill-rule="nonzero" fill-opacity="1" /><path clip-path="url(#clip060)" d="M184.595 1228.8 Q180.984 1228.8 179.155 1232.37 Q177.349 1235.91 177.349 1243.04 Q177.349 1250.14 179.155 1253.71 Q180.984 1257.25 184.595 1257.25 Q188.229 1257.25 190.035 1253.71 Q191.863 1250.14 191.863 1243.04 Q191.863 1235.91 190.035 1232.37 Q188.229 1228.8 184.595 1228.8 M184.595 1225.1 Q190.405 1225.1 193.46 1229.7 Q196.539 1234.29 196.539 1243.04 Q196.539 1251.76 193.46 1256.37 Q190.405 1260.95 184.595 1260.95 Q178.785 1260.95 175.706 1256.37 Q172.65 1251.76 172.65 1243.04 Q172.65 1234.29 175.706 1229.7 Q178.785 1225.1 184.595 1225.1 Z" fill="#000000" fill-rule="nonzero" fill-opacity="1" /><path clip-path="url(#clip060)" d="M196.539 1219.2 L220.651 1219.2 L220.651 1222.4 L196.539 1222.4 L196.539 1219.2 Z" fill="#000000" fill-rule="nonzero" fill-opacity="1" /><path clip-path="url(#clip060)" d="M239.289 1208.1 L229.697 1223.09 L239.289 1223.09 L239.289 1208.1 M238.292 1204.79 L243.07 1204.79 L243.07 1223.09 L247.076 1223.09 L247.076 1226.25 L243.07 1226.25 L243.07 1232.87 L239.289 1232.87 L239.289 1226.25 L226.613 1226.25 L226.613 1222.58 L238.292 1204.79 Z" fill="#000000" fill-rule="nonzero" fill-opacity="1" /><path clip-path="url(#clip060)" d="M146.165 1095.2 L153.804 1095.2 L153.804 1068.84 L145.493 1070.51 L145.493 1066.25 L153.757 1064.58 L158.433 1064.58 L158.433 1095.2 L166.072 1095.2 L166.072 1099.14 L146.165 1099.14 L146.165 1095.2 Z" fill="#000000" fill-rule="nonzero" fill-opacity="1" /><path clip-path="url(#clip060)" d="M185.516 1067.66 Q181.905 1067.66 180.077 1071.22 Q178.271 1074.77 178.271 1081.89 Q178.271 1089 180.077 1092.57 Q181.905 1096.11 185.516 1096.11 Q189.151 1096.11 190.956 1092.57 Q192.785 1089 192.785 1081.89 Q192.785 1074.77 190.956 1071.22 Q189.151 1067.66 185.516 1067.66 M185.516 1063.96 Q191.326 1063.96 194.382 1068.56 Q197.461 1073.14 197.461 1081.89 Q197.461 1090.62 194.382 1095.23 Q191.326 1099.81 185.516 1099.81 Q179.706 1099.81 176.627 1095.23 Q173.572 1090.62 173.572 1081.89 Q173.572 1073.14 176.627 1068.56 Q179.706 1063.96 185.516 1063.96 Z" fill="#000000" fill-rule="nonzero" fill-opacity="1" /><path clip-path="url(#clip060)" d="M197.461 1058.06 L221.572 1058.06 L221.572 1061.25 L197.461 1061.25 L197.461 1058.06 Z" fill="#000000" fill-rule="nonzero" fill-opacity="1" /><path clip-path="url(#clip060)" d="M241.283 1056.59 Q244.01 1057.17 245.533 1059.02 Q247.076 1060.86 247.076 1063.57 Q247.076 1067.72 244.217 1070 Q241.358 1072.28 236.092 1072.28 Q234.324 1072.28 232.443 1071.92 Q230.581 1071.58 228.588 1070.88 L228.588 1067.22 Q230.167 1068.14 232.048 1068.61 Q233.929 1069.08 235.979 1069.08 Q239.553 1069.08 241.414 1067.67 Q243.295 1066.26 243.295 1063.57 Q243.295 1061.08 241.546 1059.69 Q239.816 1058.28 236.713 1058.28 L233.44 1058.28 L233.44 1055.16 L236.863 1055.16 Q239.665 1055.16 241.151 1054.05 Q242.637 1052.92 242.637 1050.82 Q242.637 1048.65 241.095 1047.51 Q239.571 1046.34 236.713 1046.34 Q235.151 1046.34 233.365 1046.68 Q231.578 1047.02 229.434 1047.73 L229.434 1044.35 Q231.597 1043.74 233.478 1043.44 Q235.377 1043.14 237.051 1043.14 Q241.377 1043.14 243.897 1045.12 Q246.417 1047.07 246.417 1050.42 Q246.417 1052.75 245.082 1054.37 Q243.747 1055.97 241.283 1056.59 Z" fill="#000000" fill-rule="nonzero" fill-opacity="1" /><path clip-path="url(#clip060)" d="M146.936 934.063 L154.575 934.063 L154.575 907.697 L146.265 909.364 L146.265 905.104 L154.528 903.438 L159.204 903.438 L159.204 934.063 L166.843 934.063 L166.843 937.998 L146.936 937.998 L146.936 934.063 Z" fill="#000000" fill-rule="nonzero" fill-opacity="1" /><path clip-path="url(#clip060)" d="M186.287 906.516 Q182.676 906.516 180.848 910.081 Q179.042 913.623 179.042 920.752 Q179.042 927.859 180.848 931.424 Q182.676 934.965 186.287 934.965 Q189.922 934.965 191.727 931.424 Q193.556 927.859 193.556 920.752 Q193.556 913.623 191.727 910.081 Q189.922 906.516 186.287 906.516 M186.287 902.813 Q192.098 902.813 195.153 907.419 Q198.232 912.002 198.232 920.752 Q198.232 929.479 195.153 934.086 Q192.098 938.669 186.287 938.669 Q180.477 938.669 177.399 934.086 Q174.343 929.479 174.343 920.752 Q174.343 912.002 177.399 907.419 Q180.477 902.813 186.287 902.813 Z" fill="#000000" fill-rule="nonzero" fill-opacity="1" /><path clip-path="url(#clip060)" d="M198.232 896.914 L222.343 896.914 L222.343 900.111 L198.232 900.111 L198.232 896.914 Z" fill="#000000" fill-rule="nonzero" fill-opacity="1" /><path clip-path="url(#clip060)" d="M233.816 907.39 L247.076 907.39 L247.076 910.587 L229.246 910.587 L229.246 907.39 Q231.409 905.152 235.133 901.39 Q238.875 897.61 239.835 896.519 Q241.659 894.469 242.374 893.058 Q243.107 891.629 243.107 890.256 Q243.107 888.018 241.527 886.607 Q239.966 885.197 237.446 885.197 Q235.659 885.197 233.666 885.817 Q231.691 886.438 229.434 887.698 L229.434 883.861 Q231.728 882.94 233.722 882.47 Q235.716 881.999 237.371 881.999 Q241.734 881.999 244.33 884.181 Q246.925 886.363 246.925 890.012 Q246.925 891.742 246.267 893.303 Q245.627 894.845 243.916 896.952 Q243.446 897.497 240.925 900.111 Q238.405 902.707 233.816 907.39 Z" fill="#000000" fill-rule="nonzero" fill-opacity="1" /><path clip-path="url(#clip060)" d="M146.635 772.92 L154.274 772.92 L154.274 746.555 L145.964 748.221 L145.964 743.962 L154.227 742.295 L158.903 742.295 L158.903 772.92 L166.542 772.92 L166.542 776.855 L146.635 776.855 L146.635 772.92 Z" fill="#000000" fill-rule="nonzero" fill-opacity="1" /><path clip-path="url(#clip060)" d="M185.987 745.374 Q182.375 745.374 180.547 748.939 Q178.741 752.481 178.741 759.61 Q178.741 766.717 180.547 770.281 Q182.375 773.823 185.987 773.823 Q189.621 773.823 191.426 770.281 Q193.255 766.717 193.255 759.61 Q193.255 752.481 191.426 748.939 Q189.621 745.374 185.987 745.374 M185.987 741.67 Q191.797 741.67 194.852 746.277 Q197.931 750.86 197.931 759.61 Q197.931 768.337 194.852 772.943 Q191.797 777.527 185.987 777.527 Q180.176 777.527 177.098 772.943 Q174.042 768.337 174.042 759.61 Q174.042 750.86 177.098 746.277 Q180.176 741.67 185.987 741.67 Z" fill="#000000" fill-rule="nonzero" fill-opacity="1" /><path clip-path="url(#clip060)" d="M197.931 735.772 L222.042 735.772 L222.042 738.969 L197.931 738.969 L197.931 735.772 Z" fill="#000000" fill-rule="nonzero" fill-opacity="1" /><path clip-path="url(#clip060)" d="M230.901 746.248 L237.107 746.248 L237.107 724.826 L230.356 726.18 L230.356 722.719 L237.07 721.365 L240.869 721.365 L240.869 746.248 L247.076 746.248 L247.076 749.445 L230.901 749.445 L230.901 746.248 Z" fill="#000000" fill-rule="nonzero" fill-opacity="1" /><path clip-path="url(#clip060)" d="M176.37 611.778 L184.009 611.778 L184.009 585.412 L175.699 587.079 L175.699 582.82 L183.963 581.153 L188.638 581.153 L188.638 611.778 L196.277 611.778 L196.277 615.713 L176.37 615.713 L176.37 611.778 Z" fill="#000000" fill-rule="nonzero" fill-opacity="1" /><path clip-path="url(#clip060)" d="M215.722 584.232 Q212.111 584.232 210.282 587.797 Q208.476 591.338 208.476 598.468 Q208.476 605.574 210.282 609.139 Q212.111 612.681 215.722 612.681 Q219.356 612.681 221.161 609.139 Q222.99 605.574 222.99 598.468 Q222.99 591.338 221.161 587.797 Q219.356 584.232 215.722 584.232 M215.722 580.528 Q221.532 580.528 224.587 585.134 Q227.666 589.718 227.666 598.468 Q227.666 607.195 224.587 611.801 Q221.532 616.384 215.722 616.384 Q209.911 616.384 206.833 611.801 Q203.777 607.195 203.777 598.468 Q203.777 589.718 206.833 585.134 Q209.911 580.528 215.722 580.528 Z" fill="#000000" fill-rule="nonzero" fill-opacity="1" /><path clip-path="url(#clip060)" d="M237.371 562.724 Q234.437 562.724 232.951 565.62 Q231.484 568.498 231.484 574.291 Q231.484 580.065 232.951 582.961 Q234.437 585.839 237.371 585.839 Q240.324 585.839 241.791 582.961 Q243.276 580.065 243.276 574.291 Q243.276 568.498 241.791 565.62 Q240.324 562.724 237.371 562.724 M237.371 559.715 Q242.092 559.715 244.574 563.458 Q247.076 567.182 247.076 574.291 Q247.076 581.381 244.574 585.124 Q242.092 588.848 237.371 588.848 Q232.65 588.848 230.149 585.124 Q227.666 581.381 227.666 574.291 Q227.666 567.182 230.149 563.458 Q232.65 559.715 237.371 559.715 Z" fill="#000000" fill-rule="nonzero" fill-opacity="1" /><path clip-path="url(#clip060)" d="M179.059 450.636 L186.698 450.636 L186.698 424.27 L178.388 425.937 L178.388 421.677 L186.652 420.011 L191.328 420.011 L191.328 450.636 L198.967 450.636 L198.967 454.571 L179.059 454.571 L179.059 450.636 Z" fill="#000000" fill-rule="nonzero" fill-opacity="1" /><path clip-path="url(#clip060)" d="M218.411 423.089 Q214.8 423.089 212.971 426.654 Q211.166 430.196 211.166 437.325 Q211.166 444.432 212.971 447.997 Q214.8 451.538 218.411 451.538 Q222.045 451.538 223.851 447.997 Q225.68 444.432 225.68 437.325 Q225.68 430.196 223.851 426.654 Q222.045 423.089 218.411 423.089 M218.411 419.386 Q224.221 419.386 227.277 423.992 Q230.356 428.575 230.356 437.325 Q230.356 446.052 227.277 450.659 Q224.221 455.242 218.411 455.242 Q212.601 455.242 209.522 450.659 Q206.467 446.052 206.467 437.325 Q206.467 428.575 209.522 423.992 Q212.601 419.386 218.411 419.386 Z" fill="#000000" fill-rule="nonzero" fill-opacity="1" /><path clip-path="url(#clip060)" d="M230.901 423.963 L237.107 423.963 L237.107 402.541 L230.356 403.895 L230.356 400.434 L237.07 399.08 L240.869 399.08 L240.869 423.963 L247.076 423.963 L247.076 427.16 L230.901 427.16 L230.901 423.963 Z" fill="#000000" fill-rule="nonzero" fill-opacity="1" /><path clip-path="url(#clip060)" d="M177.95 289.493 L185.589 289.493 L185.589 263.128 L177.279 264.794 L177.279 260.535 L185.542 258.868 L190.218 258.868 L190.218 289.493 L197.857 289.493 L197.857 293.428 L177.95 293.428 L177.95 289.493 Z" fill="#000000" fill-rule="nonzero" fill-opacity="1" /><path clip-path="url(#clip060)" d="M217.301 261.947 Q213.69 261.947 211.862 265.512 Q210.056 269.053 210.056 276.183 Q210.056 283.29 211.862 286.854 Q213.69 290.396 217.301 290.396 Q220.936 290.396 222.741 286.854 Q224.57 283.29 224.57 276.183 Q224.57 269.053 222.741 265.512 Q220.936 261.947 217.301 261.947 M217.301 258.243 Q223.112 258.243 226.167 262.85 Q229.246 267.433 229.246 276.183 Q229.246 284.91 226.167 289.516 Q223.112 294.1 217.301 294.1 Q211.491 294.1 208.413 289.516 Q205.357 284.91 205.357 276.183 Q205.357 267.433 208.413 262.85 Q211.491 258.243 217.301 258.243 Z" fill="#000000" fill-rule="nonzero" fill-opacity="1" /><path clip-path="url(#clip060)" d="M233.816 262.821 L247.076 262.821 L247.076 266.018 L229.246 266.018 L229.246 262.821 Q231.409 260.583 235.133 256.821 Q238.875 253.041 239.835 251.95 Q241.659 249.9 242.374 248.489 Q243.107 247.06 243.107 245.687 Q243.107 243.449 241.527 242.038 Q239.966 240.627 237.446 240.627 Q235.659 240.627 233.666 241.248 Q231.691 241.869 229.434 243.129 L229.434 239.292 Q231.728 238.371 233.722 237.9 Q235.716 237.43 237.371 237.43 Q241.734 237.43 244.33 239.612 Q246.925 241.794 246.925 245.442 Q246.925 247.173 246.267 248.734 Q245.627 250.276 243.916 252.382 Q243.446 252.928 240.925 255.542 Q238.405 258.138 233.816 262.821 Z" fill="#000000" fill-rule="nonzero" fill-opacity="1" /><path clip-path="url(#clip060)" d="M177.292 128.351 L184.93 128.351 L184.93 101.985 L176.62 103.652 L176.62 99.3927 L184.884 97.726 L189.56 97.726 L189.56 128.351 L197.199 128.351 L197.199 132.286 L177.292 132.286 L177.292 128.351 Z" fill="#000000" fill-rule="nonzero" fill-opacity="1" /><path clip-path="url(#clip060)" d="M216.643 100.805 Q213.032 100.805 211.203 104.37 Q209.398 107.911 209.398 115.041 Q209.398 122.147 211.203 125.712 Q213.032 129.254 216.643 129.254 Q220.277 129.254 222.083 125.712 Q223.912 122.147 223.912 115.041 Q223.912 107.911 222.083 104.37 Q220.277 100.805 216.643 100.805 M216.643 97.101 Q222.453 97.101 225.509 101.707 Q228.588 106.291 228.588 115.041 Q228.588 123.768 225.509 128.374 Q222.453 132.957 216.643 132.957 Q210.833 132.957 207.754 128.374 Q204.699 123.768 204.699 115.041 Q204.699 106.291 207.754 101.707 Q210.833 97.101 216.643 97.101 Z" fill="#000000" fill-rule="nonzero" fill-opacity="1" /><path clip-path="url(#clip060)" d="M241.283 89.7354 Q244.01 90.3184 245.533 92.1616 Q247.076 94.0047 247.076 96.7131 Q247.076 100.87 244.217 103.145 Q241.358 105.421 236.092 105.421 Q234.324 105.421 232.443 105.064 Q230.581 104.725 228.588 104.029 L228.588 100.362 Q230.167 101.283 232.048 101.754 Q233.929 102.224 235.979 102.224 Q239.553 102.224 241.414 100.813 Q243.295 99.4026 243.295 96.7131 Q243.295 94.2304 241.546 92.8387 Q239.816 91.4281 236.713 91.4281 L233.44 91.4281 L233.44 88.306 L236.863 88.306 Q239.665 88.306 241.151 87.1963 Q242.637 86.0679 242.637 83.9614 Q242.637 81.7985 241.095 80.6512 Q239.571 79.4851 236.713 79.4851 Q235.151 79.4851 233.365 79.8237 Q231.578 80.1622 229.434 80.8769 L229.434 77.4915 Q231.597 76.8897 233.478 76.5887 Q235.377 76.2878 237.051 76.2878 Q241.377 76.2878 243.897 78.2626 Q246.417 80.2186 246.417 83.5664 Q246.417 85.8986 245.082 87.5161 Q243.747 89.1147 241.283 89.7354 Z" fill="#000000" fill-rule="nonzero" fill-opacity="1" /><path clip-path="url(#clip060)" d="M100.165 824.949 L38.2652 824.949 Q36.3006 824.949 36.3006 823.629 Q36.3006 822.308 38.3618 822.308 L100.004 822.308 Q102.129 822.308 102.129 823.629 Q102.129 824.949 100.165 824.949 M100.165 817.671 L38.7482 817.671 Q36.3006 817.671 36.3006 816.35 Q36.3006 815.03 38.3618 815.03 L100.004 815.03 Q102.129 815.03 102.129 816.35 Q102.129 817.671 100.165 817.671 Z" fill="#000000" fill-rule="nonzero" fill-opacity="1" /><path clip-path="url(#clip060)" d="M84.3839 747.036 Q84.9959 747.036 85.3179 747.294 Q85.6078 747.519 85.6722 747.745 Q85.7044 747.938 85.7044 748.228 Q85.7044 749.065 85.6078 751.964 Q85.5112 754.862 85.5112 755.699 Q85.5112 757.052 85.6078 759.822 Q85.7044 762.591 85.7044 763.944 Q85.7044 764.846 84.9637 764.846 Q84.4806 764.846 84.2229 764.749 Q83.9331 764.653 83.8364 764.395 Q83.7076 764.105 83.7076 763.944 Q83.6754 763.751 83.6754 763.268 Q83.6754 762.624 83.611 761.947 Q83.5144 761.271 83.3212 760.434 Q83.1279 759.596 82.6448 759.081 Q82.1617 758.534 81.4854 758.534 Q81.1956 758.534 78.8123 758.759 Q76.4291 758.984 73.6594 759.274 Q70.8575 759.564 70.471 759.596 L70.471 776.15 Q73.0797 777.664 74.8832 778.727 Q76.6867 779.789 77.2987 780.176 Q77.9106 780.562 78.297 780.788 Q78.6835 781.013 78.9089 781.142 Q80.6159 782.076 81.3566 782.076 Q83.4178 782.076 83.6754 778.984 Q83.6754 777.921 84.4484 777.921 Q85.0281 777.921 85.3501 778.179 Q85.64 778.437 85.6722 778.662 Q85.7044 778.855 85.7044 779.177 Q85.7044 780.24 85.6078 782.462 Q85.5112 784.685 85.5112 785.78 Q85.5112 786.714 85.6078 788.646 Q85.7044 790.578 85.7044 791.448 Q85.7044 791.834 85.4789 792.06 Q85.2535 792.285 84.9637 792.285 Q84.5128 792.285 84.2551 792.221 Q83.9975 792.124 83.8687 791.867 Q83.7398 791.609 83.7398 791.48 Q83.7076 791.351 83.6754 790.9 Q83.5144 788.453 82.355 786.553 Q81.1634 784.62 78.1038 782.785 L39.5856 759.854 Q39.1991 759.629 39.0059 759.467 Q38.8127 759.306 38.6516 758.984 Q38.4906 758.63 38.4906 758.115 Q38.4906 757.31 38.7482 757.149 Q38.9737 756.988 40.0687 756.891 L81.2922 752.865 Q82.1617 752.769 82.516 752.704 Q82.8381 752.608 83.1923 752.189 Q83.5144 751.738 83.611 750.933 Q83.6754 750.096 83.6754 748.55 Q83.6754 747.97 83.7076 747.745 Q83.7076 747.519 83.8687 747.294 Q84.0297 747.036 84.3839 747.036 M68.4098 759.79 L46.6709 761.883 L68.4098 774.894 L68.4098 759.79 Z" fill="#000000" fill-rule="nonzero" fill-opacity="1" /><path clip-path="url(#clip060)" d="M26.2565 740.433 Q18.4562 740.433 12.1664 737.525 Q9.52877 736.285 7.31945 734.549 Q5.11012 732.813 4.14073 731.663 Q3.17133 730.513 3.17133 730.198 Q3.17133 729.747 3.62221 729.724 Q3.84766 729.724 4.41126 730.333 Q11.9861 737.773 26.2565 737.75 Q40.572 737.75 47.8537 730.513 Q48.6428 729.724 48.8908 729.724 Q49.3417 729.724 49.3417 730.198 Q49.3417 730.513 48.4173 731.618 Q47.493 732.723 45.3739 734.436 Q43.2547 736.149 40.6622 737.389 Q34.3724 740.433 26.2565 740.433 Z" fill="#000000" fill-rule="nonzero" fill-opacity="1" /><path clip-path="url(#clip060)" d="M31.1937 701.376 Q31.374 701.376 32.0729 701.579 Q32.7717 701.781 33.8539 702.277 Q34.936 702.751 35.9279 703.405 Q36.8973 704.058 37.6187 705.14 Q38.3176 706.2 38.3176 707.417 Q38.3176 709.041 37.2355 710.123 Q36.1534 711.205 34.5302 711.205 Q33.6284 711.205 32.3885 710.731 Q24.3853 707.733 21.635 707.733 Q18.4111 707.733 18.4111 710.235 Q18.4111 711.475 18.8846 712.648 Q19.3355 713.797 19.9667 714.586 Q20.5979 715.376 21.4771 716.097 Q22.3338 716.796 22.92 717.157 Q23.4836 717.495 24.0472 717.765 L26.3467 718.351 Q26.9779 718.487 29.4352 719.14 L33.6059 720.155 Q36.717 720.876 37.01 721.034 Q37.6413 721.26 37.9794 721.756 Q38.3176 722.251 38.3176 722.747 Q38.3176 723.311 37.9794 723.694 Q37.6413 724.078 37.0551 724.078 Q36.9649 724.078 36.6268 724.01 Q36.2886 723.942 35.8152 723.83 Q35.3418 723.717 35.0712 723.672 L24.4079 720.989 Q22.4691 720.493 21.8604 720.38 Q21.2292 720.245 20.5303 720.245 Q18.4111 720.245 18.4111 721.688 Q18.4111 722.86 19.8089 723.627 Q21.2066 724.393 23.9119 725.047 Q24.6559 725.25 24.8137 725.385 Q24.9715 725.498 24.9715 725.836 Q24.9489 726.4 24.4981 726.4 Q24.3853 726.4 23.6414 726.219 Q22.8974 726.039 21.8378 725.701 Q20.7557 725.34 20.0343 725.002 Q19.4933 724.709 19.2453 724.551 Q18.9747 724.371 18.4562 723.942 Q17.9152 723.491 17.6672 722.905 Q17.3967 722.297 17.3967 721.553 Q17.3967 719.884 18.4788 718.667 Q19.5384 717.45 21.4095 717.292 Q17.3967 714.293 17.3967 710.1 Q17.3967 707.62 18.7042 706.2 Q20.0118 704.78 22.3338 704.78 Q22.8749 704.78 23.5737 704.893 Q24.2501 704.983 25.1067 705.208 Q25.9634 705.411 26.6172 705.591 Q27.271 705.772 28.3306 706.132 Q29.3676 706.493 29.8185 706.651 Q30.2693 706.809 31.3289 707.192 Q32.3659 707.553 32.4787 707.598 Q34.5753 708.432 35.7701 708.432 Q36.5591 708.432 36.9199 708.184 Q37.2806 707.913 37.2806 707.327 Q37.2806 705.749 35.725 704.577 Q34.1469 703.382 31.5769 702.616 Q31.0133 702.435 30.878 702.345 Q30.7428 702.232 30.7428 701.917 Q30.7428 701.376 31.1937 701.376 Z" fill="#000000" fill-rule="nonzero" fill-opacity="1" /><path clip-path="url(#clip060)" d="M48.8908 696.947 Q48.6653 696.947 48.1017 696.361 Q40.5269 688.921 26.2565 688.921 Q11.941 688.921 4.70433 696.068 Q3.8702 696.947 3.62221 696.947 Q3.17133 696.947 3.17133 696.496 Q3.17133 696.18 4.09564 695.076 Q5.01995 693.948 7.13909 692.258 Q9.25824 690.544 11.8508 689.282 Q18.1406 686.238 26.2565 686.238 Q34.0568 686.238 40.3466 689.147 Q42.9842 690.387 45.1935 692.122 Q47.4029 693.858 48.3723 695.008 Q49.3417 696.158 49.3417 696.496 Q49.3417 696.947 48.8908 696.947 Z" fill="#000000" fill-rule="nonzero" fill-opacity="1" /><path clip-path="url(#clip060)" d="M100.165 672.178 L38.2652 672.178 Q36.3006 672.178 36.3006 670.857 Q36.3006 669.537 38.3618 669.537 L100.004 669.537 Q102.129 669.537 102.129 670.857 Q102.129 672.178 100.165 672.178 M100.165 664.899 L38.7482 664.899 Q36.3006 664.899 36.3006 663.579 Q36.3006 662.258 38.3618 662.258 L100.004 662.258 Q102.129 662.258 102.129 663.579 Q102.129 664.899 100.165 664.899 Z" fill="#000000" fill-rule="nonzero" fill-opacity="1" /><path clip-path="url(#clip060)" d="M93.8925 655.325 L92.4497 655.325 Q92.4497 649.779 89.4964 646.916 Q89.4964 646.127 89.6768 645.992 Q89.8571 645.857 90.6913 645.857 L116.594 645.857 Q117.97 645.857 118.398 645.18 Q118.826 644.504 118.826 641.551 L118.826 640.085 L120.247 640.085 Q120.111 641.709 120.111 647.57 Q120.111 653.431 120.247 655.032 L118.826 655.032 L118.826 653.567 Q118.826 650.659 118.421 649.96 Q117.992 649.261 116.594 649.261 L92.6751 649.261 Q93.8925 651.673 93.8925 655.325 Z" fill="#000000" fill-rule="nonzero" fill-opacity="1" /><circle clip-path="url(#clip062)" cx="341.651" cy="1372.06" r="14.4" fill="#de8f05" fill-rule="evenodd" fill-opacity="1" stroke="#000000" stroke-opacity="1" stroke-width="3.2"/>
<circle clip-path="url(#clip062)" cx="341.651" cy="1372.3" r="14.4" fill="#de8f05" fill-rule="evenodd" fill-opacity="1" stroke="#000000" stroke-opacity="1" stroke-width="3.2"/>
<circle clip-path="url(#clip062)" cx="394.423" cy="1327.31" r="14.4" fill="#de8f05" fill-rule="evenodd" fill-opacity="1" stroke="#000000" stroke-opacity="1" stroke-width="3.2"/>
<circle clip-path="url(#clip062)" cx="394.423" cy="1330.49" r="14.4" fill="#de8f05" fill-rule="evenodd" fill-opacity="1" stroke="#000000" stroke-opacity="1" stroke-width="3.2"/>
<circle clip-path="url(#clip062)" cx="447.194" cy="1291.1" r="14.4" fill="#de8f05" fill-rule="evenodd" fill-opacity="1" stroke="#000000" stroke-opacity="1" stroke-width="3.2"/>
<circle clip-path="url(#clip062)" cx="447.194" cy="1287.04" r="14.4" fill="#de8f05" fill-rule="evenodd" fill-opacity="1" stroke="#000000" stroke-opacity="1" stroke-width="3.2"/>
<circle clip-path="url(#clip062)" cx="499.965" cy="1248.02" r="14.4" fill="#de8f05" fill-rule="evenodd" fill-opacity="1" stroke="#000000" stroke-opacity="1" stroke-width="3.2"/>
<circle clip-path="url(#clip062)" cx="499.965" cy="1244.34" r="14.4" fill="#de8f05" fill-rule="evenodd" fill-opacity="1" stroke="#000000" stroke-opacity="1" stroke-width="3.2"/>
<circle clip-path="url(#clip062)" cx="552.736" cy="1202.52" r="14.4" fill="#de8f05" fill-rule="evenodd" fill-opacity="1" stroke="#000000" stroke-opacity="1" stroke-width="3.2"/>
<circle clip-path="url(#clip062)" cx="552.736" cy="1210.68" r="14.4" fill="#de8f05" fill-rule="evenodd" fill-opacity="1" stroke="#000000" stroke-opacity="1" stroke-width="3.2"/>
<circle clip-path="url(#clip062)" cx="605.507" cy="1166.75" r="14.4" fill="#de8f05" fill-rule="evenodd" fill-opacity="1" stroke="#000000" stroke-opacity="1" stroke-width="3.2"/>
<circle clip-path="url(#clip062)" cx="605.507" cy="1165.85" r="14.4" fill="#de8f05" fill-rule="evenodd" fill-opacity="1" stroke="#000000" stroke-opacity="1" stroke-width="3.2"/>
<circle clip-path="url(#clip062)" cx="658.278" cy="1123.48" r="14.4" fill="#de8f05" fill-rule="evenodd" fill-opacity="1" stroke="#000000" stroke-opacity="1" stroke-width="3.2"/>
<circle clip-path="url(#clip062)" cx="658.278" cy="1129.2" r="14.4" fill="#de8f05" fill-rule="evenodd" fill-opacity="1" stroke="#000000" stroke-opacity="1" stroke-width="3.2"/>
<circle clip-path="url(#clip062)" cx="711.049" cy="1077.67" r="14.4" fill="#de8f05" fill-rule="evenodd" fill-opacity="1" stroke="#000000" stroke-opacity="1" stroke-width="3.2"/>
<circle clip-path="url(#clip062)" cx="711.049" cy="1090.36" r="14.4" fill="#de8f05" fill-rule="evenodd" fill-opacity="1" stroke="#000000" stroke-opacity="1" stroke-width="3.2"/>
<circle clip-path="url(#clip062)" cx="763.82" cy="1032.91" r="14.4" fill="#de8f05" fill-rule="evenodd" fill-opacity="1" stroke="#000000" stroke-opacity="1" stroke-width="3.2"/>
<circle clip-path="url(#clip062)" cx="763.82" cy="1036.58" r="14.4" fill="#de8f05" fill-rule="evenodd" fill-opacity="1" stroke="#000000" stroke-opacity="1" stroke-width="3.2"/>
<circle clip-path="url(#clip062)" cx="816.591" cy="1000.31" r="14.4" fill="#de8f05" fill-rule="evenodd" fill-opacity="1" stroke="#000000" stroke-opacity="1" stroke-width="3.2"/>
<circle clip-path="url(#clip062)" cx="816.591" cy="1006.36" r="14.4" fill="#de8f05" fill-rule="evenodd" fill-opacity="1" stroke="#000000" stroke-opacity="1" stroke-width="3.2"/>
<circle clip-path="url(#clip062)" cx="869.362" cy="955.466" r="14.4" fill="#de8f05" fill-rule="evenodd" fill-opacity="1" stroke="#000000" stroke-opacity="1" stroke-width="3.2"/>
<circle clip-path="url(#clip062)" cx="869.362" cy="955.942" r="14.4" fill="#de8f05" fill-rule="evenodd" fill-opacity="1" stroke="#000000" stroke-opacity="1" stroke-width="3.2"/>
<circle clip-path="url(#clip062)" cx="922.133" cy="914.973" r="14.4" fill="#de8f05" fill-rule="evenodd" fill-opacity="1" stroke="#000000" stroke-opacity="1" stroke-width="3.2"/>
<circle clip-path="url(#clip062)" cx="922.133" cy="922.191" r="14.4" fill="#de8f05" fill-rule="evenodd" fill-opacity="1" stroke="#000000" stroke-opacity="1" stroke-width="3.2"/>
<circle clip-path="url(#clip062)" cx="974.904" cy="881.953" r="14.4" fill="#de8f05" fill-rule="evenodd" fill-opacity="1" stroke="#000000" stroke-opacity="1" stroke-width="3.2"/>
<circle clip-path="url(#clip062)" cx="974.904" cy="871.432" r="14.4" fill="#de8f05" fill-rule="evenodd" fill-opacity="1" stroke="#000000" stroke-opacity="1" stroke-width="3.2"/>
<circle clip-path="url(#clip062)" cx="1027.68" cy="873.124" r="14.4" fill="#de8f05" fill-rule="evenodd" fill-opacity="1" stroke="#000000" stroke-opacity="1" stroke-width="3.2"/>
<circle clip-path="url(#clip062)" cx="1027.68" cy="874.198" r="14.4" fill="#de8f05" fill-rule="evenodd" fill-opacity="1" stroke="#000000" stroke-opacity="1" stroke-width="3.2"/>
<circle clip-path="url(#clip062)" cx="1080.45" cy="839.205" r="14.4" fill="#de8f05" fill-rule="evenodd" fill-opacity="1" stroke="#000000" stroke-opacity="1" stroke-width="3.2"/>
<circle clip-path="url(#clip062)" cx="1080.45" cy="862.705" r="14.4" fill="#de8f05" fill-rule="evenodd" fill-opacity="1" stroke="#000000" stroke-opacity="1" stroke-width="3.2"/>
<circle clip-path="url(#clip062)" cx="1133.22" cy="810.856" r="14.4" fill="#de8f05" fill-rule="evenodd" fill-opacity="1" stroke="#000000" stroke-opacity="1" stroke-width="3.2"/>
<circle clip-path="url(#clip062)" cx="1133.22" cy="831.78" r="14.4" fill="#de8f05" fill-rule="evenodd" fill-opacity="1" stroke="#000000" stroke-opacity="1" stroke-width="3.2"/>
<circle clip-path="url(#clip062)" cx="1185.99" cy="802.185" r="14.4" fill="#de8f05" fill-rule="evenodd" fill-opacity="1" stroke="#000000" stroke-opacity="1" stroke-width="3.2"/>
<circle clip-path="url(#clip062)" cx="1185.99" cy="797.613" r="14.4" fill="#de8f05" fill-rule="evenodd" fill-opacity="1" stroke="#000000" stroke-opacity="1" stroke-width="3.2"/>
<circle clip-path="url(#clip062)" cx="1238.76" cy="744.033" r="14.4" fill="#de8f05" fill-rule="evenodd" fill-opacity="1" stroke="#000000" stroke-opacity="1" stroke-width="3.2"/>
<circle clip-path="url(#clip062)" cx="1238.76" cy="778.672" r="14.4" fill="#de8f05" fill-rule="evenodd" fill-opacity="1" stroke="#000000" stroke-opacity="1" stroke-width="3.2"/>
<circle clip-path="url(#clip062)" cx="1291.53" cy="755.452" r="14.4" fill="#de8f05" fill-rule="evenodd" fill-opacity="1" stroke="#000000" stroke-opacity="1" stroke-width="3.2"/>
<circle clip-path="url(#clip062)" cx="1291.53" cy="772.325" r="14.4" fill="#de8f05" fill-rule="evenodd" fill-opacity="1" stroke="#000000" stroke-opacity="1" stroke-width="3.2"/>
<circle clip-path="url(#clip062)" cx="1344.3" cy="690.294" r="14.4" fill="#de8f05" fill-rule="evenodd" fill-opacity="1" stroke="#000000" stroke-opacity="1" stroke-width="3.2"/>
<circle clip-path="url(#clip062)" cx="1344.3" cy="696.004" r="14.4" fill="#de8f05" fill-rule="evenodd" fill-opacity="1" stroke="#000000" stroke-opacity="1" stroke-width="3.2"/>
<circle clip-path="url(#clip062)" cx="1397.07" cy="658.407" r="14.4" fill="#de8f05" fill-rule="evenodd" fill-opacity="1" stroke="#000000" stroke-opacity="1" stroke-width="3.2"/>
<circle clip-path="url(#clip062)" cx="1397.07" cy="672.466" r="14.4" fill="#de8f05" fill-rule="evenodd" fill-opacity="1" stroke="#000000" stroke-opacity="1" stroke-width="3.2"/>
<circle clip-path="url(#clip062)" cx="1449.84" cy="620.713" r="14.4" fill="#de8f05" fill-rule="evenodd" fill-opacity="1" stroke="#000000" stroke-opacity="1" stroke-width="3.2"/>
<circle clip-path="url(#clip062)" cx="1449.84" cy="621.833" r="14.4" fill="#de8f05" fill-rule="evenodd" fill-opacity="1" stroke="#000000" stroke-opacity="1" stroke-width="3.2"/>
<circle clip-path="url(#clip062)" cx="1502.61" cy="599.803" r="14.4" fill="#de8f05" fill-rule="evenodd" fill-opacity="1" stroke="#000000" stroke-opacity="1" stroke-width="3.2"/>
<circle clip-path="url(#clip062)" cx="1502.61" cy="587.263" r="14.4" fill="#de8f05" fill-rule="evenodd" fill-opacity="1" stroke="#000000" stroke-opacity="1" stroke-width="3.2"/>
<circle clip-path="url(#clip062)" cx="1555.39" cy="520.755" r="14.4" fill="#de8f05" fill-rule="evenodd" fill-opacity="1" stroke="#000000" stroke-opacity="1" stroke-width="3.2"/>
<circle clip-path="url(#clip062)" cx="1555.39" cy="563.437" r="14.4" fill="#de8f05" fill-rule="evenodd" fill-opacity="1" stroke="#000000" stroke-opacity="1" stroke-width="3.2"/>
<circle clip-path="url(#clip062)" cx="1603.58" cy="544.324" r="14.4" fill="#de8f05" fill-rule="evenodd" fill-opacity="1" stroke="#000000" stroke-opacity="1" stroke-width="3.2"/>
<circle clip-path="url(#clip062)" cx="1603.58" cy="522.679" r="14.4" fill="#de8f05" fill-rule="evenodd" fill-opacity="1" stroke="#000000" stroke-opacity="1" stroke-width="3.2"/>
<circle clip-path="url(#clip062)" cx="1608.16" cy="486.473" r="14.4" fill="#de8f05" fill-rule="evenodd" fill-opacity="1" stroke="#000000" stroke-opacity="1" stroke-width="3.2"/>
<circle clip-path="url(#clip062)" cx="1608.16" cy="508.743" r="14.4" fill="#de8f05" fill-rule="evenodd" fill-opacity="1" stroke="#000000" stroke-opacity="1" stroke-width="3.2"/>
<circle clip-path="url(#clip062)" cx="1632.1" cy="462.008" r="14.4" fill="#de8f05" fill-rule="evenodd" fill-opacity="1" stroke="#000000" stroke-opacity="1" stroke-width="3.2"/>
<circle clip-path="url(#clip062)" cx="1632.1" cy="463.275" r="14.4" fill="#de8f05" fill-rule="evenodd" fill-opacity="1" stroke="#000000" stroke-opacity="1" stroke-width="3.2"/>
<circle clip-path="url(#clip062)" cx="1656.68" cy="448.077" r="14.4" fill="#de8f05" fill-rule="evenodd" fill-opacity="1" stroke="#000000" stroke-opacity="1" stroke-width="3.2"/>
<circle clip-path="url(#clip062)" cx="1656.68" cy="440.35" r="14.4" fill="#de8f05" fill-rule="evenodd" fill-opacity="1" stroke="#000000" stroke-opacity="1" stroke-width="3.2"/>
<circle clip-path="url(#clip062)" cx="1660.93" cy="454.355" r="14.4" fill="#de8f05" fill-rule="evenodd" fill-opacity="1" stroke="#000000" stroke-opacity="1" stroke-width="3.2"/>
<circle clip-path="url(#clip062)" cx="1660.93" cy="491.178" r="14.4" fill="#de8f05" fill-rule="evenodd" fill-opacity="1" stroke="#000000" stroke-opacity="1" stroke-width="3.2"/>
<circle clip-path="url(#clip062)" cx="1678.29" cy="472.126" r="14.4" fill="#de8f05" fill-rule="evenodd" fill-opacity="1" stroke="#000000" stroke-opacity="1" stroke-width="3.2"/>
<circle clip-path="url(#clip062)" cx="1678.29" cy="428.492" r="14.4" fill="#de8f05" fill-rule="evenodd" fill-opacity="1" stroke="#000000" stroke-opacity="1" stroke-width="3.2"/>
<circle clip-path="url(#clip062)" cx="1697.57" cy="440.763" r="14.4" fill="#de8f05" fill-rule="evenodd" fill-opacity="1" stroke="#000000" stroke-opacity="1" stroke-width="3.2"/>
<circle clip-path="url(#clip062)" cx="1697.57" cy="430.903" r="14.4" fill="#de8f05" fill-rule="evenodd" fill-opacity="1" stroke="#000000" stroke-opacity="1" stroke-width="3.2"/>
<circle clip-path="url(#clip062)" cx="1713.7" cy="415.399" r="14.4" fill="#de8f05" fill-rule="evenodd" fill-opacity="1" stroke="#000000" stroke-opacity="1" stroke-width="3.2"/>
<circle clip-path="url(#clip062)" cx="1713.7" cy="445.603" r="14.4" fill="#de8f05" fill-rule="evenodd" fill-opacity="1" stroke="#000000" stroke-opacity="1" stroke-width="3.2"/>
<circle clip-path="url(#clip062)" cx="1714.96" cy="436.285" r="14.4" fill="#de8f05" fill-rule="evenodd" fill-opacity="1" stroke="#000000" stroke-opacity="1" stroke-width="3.2"/>
<circle clip-path="url(#clip062)" cx="1714.96" cy="408.371" r="14.4" fill="#de8f05" fill-rule="evenodd" fill-opacity="1" stroke="#000000" stroke-opacity="1" stroke-width="3.2"/>
<circle clip-path="url(#clip062)" cx="1730.82" cy="414.302" r="14.4" fill="#de8f05" fill-rule="evenodd" fill-opacity="1" stroke="#000000" stroke-opacity="1" stroke-width="3.2"/>
<circle clip-path="url(#clip062)" cx="1730.82" cy="389.049" r="14.4" fill="#de8f05" fill-rule="evenodd" fill-opacity="1" stroke="#000000" stroke-opacity="1" stroke-width="3.2"/>
<circle clip-path="url(#clip062)" cx="1745.38" cy="410.647" r="14.4" fill="#de8f05" fill-rule="evenodd" fill-opacity="1" stroke="#000000" stroke-opacity="1" stroke-width="3.2"/>
<circle clip-path="url(#clip062)" cx="1745.38" cy="414.92" r="14.4" fill="#de8f05" fill-rule="evenodd" fill-opacity="1" stroke="#000000" stroke-opacity="1" stroke-width="3.2"/>
<circle clip-path="url(#clip062)" cx="1758.85" cy="383.932" r="14.4" fill="#de8f05" fill-rule="evenodd" fill-opacity="1" stroke="#000000" stroke-opacity="1" stroke-width="3.2"/>
<circle clip-path="url(#clip062)" cx="1758.85" cy="409.339" r="14.4" fill="#de8f05" fill-rule="evenodd" fill-opacity="1" stroke="#000000" stroke-opacity="1" stroke-width="3.2"/>
<circle clip-path="url(#clip062)" cx="1766.47" cy="90.9294" r="14.4" fill="#de8f05" fill-rule="evenodd" fill-opacity="1" stroke="#000000" stroke-opacity="1" stroke-width="3.2"/>
<circle clip-path="url(#clip062)" cx="1766.47" cy="90.3582" r="14.4" fill="#de8f05" fill-rule="evenodd" fill-opacity="1" stroke="#000000" stroke-opacity="1" stroke-width="3.2"/>
<circle clip-path="url(#clip062)" cx="1771.37" cy="90.9084" r="14.4" fill="#de8f05" fill-rule="evenodd" fill-opacity="1" stroke="#000000" stroke-opacity="1" stroke-width="3.2"/>
<circle clip-path="url(#clip062)" cx="1771.37" cy="91.1375" r="14.4" fill="#de8f05" fill-rule="evenodd" fill-opacity="1" stroke="#000000" stroke-opacity="1" stroke-width="3.2"/>
<circle clip-path="url(#clip062)" cx="1783.07" cy="90.885" r="14.4" fill="#de8f05" fill-rule="evenodd" fill-opacity="1" stroke="#000000" stroke-opacity="1" stroke-width="3.2"/>
<circle clip-path="url(#clip062)" cx="1783.07" cy="90.7053" r="14.4" fill="#de8f05" fill-rule="evenodd" fill-opacity="1" stroke="#000000" stroke-opacity="1" stroke-width="3.2"/>
<circle clip-path="url(#clip062)" cx="1794.05" cy="91.0245" r="14.4" fill="#de8f05" fill-rule="evenodd" fill-opacity="1" stroke="#000000" stroke-opacity="1" stroke-width="3.2"/>
<circle clip-path="url(#clip062)" cx="1794.05" cy="90.285" r="14.4" fill="#de8f05" fill-rule="evenodd" fill-opacity="1" stroke="#000000" stroke-opacity="1" stroke-width="3.2"/>
<circle clip-path="url(#clip062)" cx="1804.4" cy="90.6375" r="14.4" fill="#de8f05" fill-rule="evenodd" fill-opacity="1" stroke="#000000" stroke-opacity="1" stroke-width="3.2"/>
<circle clip-path="url(#clip062)" cx="1804.4" cy="89.9818" r="14.4" fill="#de8f05" fill-rule="evenodd" fill-opacity="1" stroke="#000000" stroke-opacity="1" stroke-width="3.2"/>
<circle clip-path="url(#clip062)" cx="1814.18" cy="90.297" r="14.4" fill="#de8f05" fill-rule="evenodd" fill-opacity="1" stroke="#000000" stroke-opacity="1" stroke-width="3.2"/>
<circle clip-path="url(#clip062)" cx="1814.18" cy="90.4302" r="14.4" fill="#de8f05" fill-rule="evenodd" fill-opacity="1" stroke="#000000" stroke-opacity="1" stroke-width="3.2"/>
<circle clip-path="url(#clip062)" cx="1819.24" cy="90.1285" r="14.4" fill="#de8f05" fill-rule="evenodd" fill-opacity="1" stroke="#000000" stroke-opacity="1" stroke-width="3.2"/>
<circle clip-path="url(#clip062)" cx="1819.24" cy="90.1796" r="14.4" fill="#de8f05" fill-rule="evenodd" fill-opacity="1" stroke="#000000" stroke-opacity="1" stroke-width="3.2"/>
<circle clip-path="url(#clip062)" cx="1823.45" cy="90.5128" r="14.4" fill="#de8f05" fill-rule="evenodd" fill-opacity="1" stroke="#000000" stroke-opacity="1" stroke-width="3.2"/>
<circle clip-path="url(#clip062)" cx="1823.45" cy="90.6589" r="14.4" fill="#de8f05" fill-rule="evenodd" fill-opacity="1" stroke="#000000" stroke-opacity="1" stroke-width="3.2"/>
<circle clip-path="url(#clip062)" cx="1832.26" cy="90.402" r="14.4" fill="#de8f05" fill-rule="evenodd" fill-opacity="1" stroke="#000000" stroke-opacity="1" stroke-width="3.2"/>
<circle clip-path="url(#clip062)" cx="1832.26" cy="89.9138" r="14.4" fill="#de8f05" fill-rule="evenodd" fill-opacity="1" stroke="#000000" stroke-opacity="1" stroke-width="3.2"/>
<circle clip-path="url(#clip062)" cx="1840.67" cy="90.3786" r="14.4" fill="#de8f05" fill-rule="evenodd" fill-opacity="1" stroke="#000000" stroke-opacity="1" stroke-width="3.2"/>
<circle clip-path="url(#clip062)" cx="1840.67" cy="90.4613" r="14.4" fill="#de8f05" fill-rule="evenodd" fill-opacity="1" stroke="#000000" stroke-opacity="1" stroke-width="3.2"/>
<circle clip-path="url(#clip062)" cx="1848.69" cy="90.3194" r="14.4" fill="#de8f05" fill-rule="evenodd" fill-opacity="1" stroke="#000000" stroke-opacity="1" stroke-width="3.2"/>
<circle clip-path="url(#clip062)" cx="1848.69" cy="90.5364" r="14.4" fill="#de8f05" fill-rule="evenodd" fill-opacity="1" stroke="#000000" stroke-opacity="1" stroke-width="3.2"/>
<circle clip-path="url(#clip062)" cx="1856.37" cy="90.1539" r="14.4" fill="#de8f05" fill-rule="evenodd" fill-opacity="1" stroke="#000000" stroke-opacity="1" stroke-width="3.2"/>
<circle clip-path="url(#clip062)" cx="1856.37" cy="88.9768" r="14.4" fill="#de8f05" fill-rule="evenodd" fill-opacity="1" stroke="#000000" stroke-opacity="1" stroke-width="3.2"/>
<circle clip-path="url(#clip062)" cx="1863.73" cy="89.8987" r="14.4" fill="#de8f05" fill-rule="evenodd" fill-opacity="1" stroke="#000000" stroke-opacity="1" stroke-width="3.2"/>
<circle clip-path="url(#clip062)" cx="1863.73" cy="89.6581" r="14.4" fill="#de8f05" fill-rule="evenodd" fill-opacity="1" stroke="#000000" stroke-opacity="1" stroke-width="3.2"/>
<circle clip-path="url(#clip062)" cx="1872.01" cy="90.2829" r="14.4" fill="#de8f05" fill-rule="evenodd" fill-opacity="1" stroke="#000000" stroke-opacity="1" stroke-width="3.2"/>
<circle clip-path="url(#clip062)" cx="1872.01" cy="90.1167" r="14.4" fill="#de8f05" fill-rule="evenodd" fill-opacity="1" stroke="#000000" stroke-opacity="1" stroke-width="3.2"/>
<circle clip-path="url(#clip062)" cx="1924.78" cy="89.1303" r="14.4" fill="#de8f05" fill-rule="evenodd" fill-opacity="1" stroke="#000000" stroke-opacity="1" stroke-width="3.2"/>
<circle clip-path="url(#clip062)" cx="1924.78" cy="87.465" r="14.4" fill="#de8f05" fill-rule="evenodd" fill-opacity="1" stroke="#000000" stroke-opacity="1" stroke-width="3.2"/>
<circle clip-path="url(#clip062)" cx="1977.55" cy="89.3888" r="14.4" fill="#de8f05" fill-rule="evenodd" fill-opacity="1" stroke="#000000" stroke-opacity="1" stroke-width="3.2"/>
<circle clip-path="url(#clip062)" cx="1977.55" cy="89.6114" r="14.4" fill="#de8f05" fill-rule="evenodd" fill-opacity="1" stroke="#000000" stroke-opacity="1" stroke-width="3.2"/>
<circle clip-path="url(#clip062)" cx="2030.32" cy="88.7942" r="14.4" fill="#de8f05" fill-rule="evenodd" fill-opacity="1" stroke="#000000" stroke-opacity="1" stroke-width="3.2"/>
<circle clip-path="url(#clip062)" cx="2030.32" cy="88.9726" r="14.4" fill="#de8f05" fill-rule="evenodd" fill-opacity="1" stroke="#000000" stroke-opacity="1" stroke-width="3.2"/>
<circle clip-path="url(#clip062)" cx="2083.1" cy="87.9399" r="14.4" fill="#de8f05" fill-rule="evenodd" fill-opacity="1" stroke="#000000" stroke-opacity="1" stroke-width="3.2"/>
<circle clip-path="url(#clip062)" cx="2083.1" cy="89.0961" r="14.4" fill="#de8f05" fill-rule="evenodd" fill-opacity="1" stroke="#000000" stroke-opacity="1" stroke-width="3.2"/>
<circle clip-path="url(#clip062)" cx="2135.87" cy="87.2542" r="14.4" fill="#de8f05" fill-rule="evenodd" fill-opacity="1" stroke="#000000" stroke-opacity="1" stroke-width="3.2"/>
<circle clip-path="url(#clip062)" cx="2135.87" cy="88.1321" r="14.4" fill="#de8f05" fill-rule="evenodd" fill-opacity="1" stroke="#000000" stroke-opacity="1" stroke-width="3.2"/>
<circle clip-path="url(#clip062)" cx="2188.64" cy="86.8383" r="14.4" fill="#de8f05" fill-rule="evenodd" fill-opacity="1" stroke="#000000" stroke-opacity="1" stroke-width="3.2"/>
<circle clip-path="url(#clip062)" cx="2188.64" cy="87.9508" r="14.4" fill="#de8f05" fill-rule="evenodd" fill-opacity="1" stroke="#000000" stroke-opacity="1" stroke-width="3.2"/>
<circle clip-path="url(#clip062)" cx="2241.41" cy="85.838" r="14.4" fill="#de8f05" fill-rule="evenodd" fill-opacity="1" stroke="#000000" stroke-opacity="1" stroke-width="3.2"/>
<circle clip-path="url(#clip062)" cx="2241.41" cy="89.0757" r="14.4" fill="#de8f05" fill-rule="evenodd" fill-opacity="1" stroke="#000000" stroke-opacity="1" stroke-width="3.2"/>
<circle clip-path="url(#clip062)" cx="2294.18" cy="88.0679" r="14.4" fill="#de8f05" fill-rule="evenodd" fill-opacity="1" stroke="#000000" stroke-opacity="1" stroke-width="3.2"/>
<circle clip-path="url(#clip062)" cx="2294.18" cy="88.9764" r="14.4" fill="#de8f05" fill-rule="evenodd" fill-opacity="1" stroke="#000000" stroke-opacity="1" stroke-width="3.2"/>
<circle clip-path="url(#clip062)" cx="341.651" cy="771.39" r="14.4" fill="#029e73" fill-rule="evenodd" fill-opacity="1" stroke="#000000" stroke-opacity="1" stroke-width="3.2"/>
<circle clip-path="url(#clip062)" cx="341.651" cy="771.389" r="14.4" fill="#029e73" fill-rule="evenodd" fill-opacity="1" stroke="#000000" stroke-opacity="1" stroke-width="3.2"/>
<circle clip-path="url(#clip062)" cx="394.423" cy="750.62" r="14.4" fill="#029e73" fill-rule="evenodd" fill-opacity="1" stroke="#000000" stroke-opacity="1" stroke-width="3.2"/>
<circle clip-path="url(#clip062)" cx="394.423" cy="750.621" r="14.4" fill="#029e73" fill-rule="evenodd" fill-opacity="1" stroke="#000000" stroke-opacity="1" stroke-width="3.2"/>
<circle clip-path="url(#clip062)" cx="447.194" cy="729.872" r="14.4" fill="#029e73" fill-rule="evenodd" fill-opacity="1" stroke="#000000" stroke-opacity="1" stroke-width="3.2"/>
<circle clip-path="url(#clip062)" cx="447.194" cy="729.876" r="14.4" fill="#029e73" fill-rule="evenodd" fill-opacity="1" stroke="#000000" stroke-opacity="1" stroke-width="3.2"/>
<circle clip-path="url(#clip062)" cx="499.965" cy="693.063" r="14.4" fill="#029e73" fill-rule="evenodd" fill-opacity="1" stroke="#000000" stroke-opacity="1" stroke-width="3.2"/>
<circle clip-path="url(#clip062)" cx="499.965" cy="693.065" r="14.4" fill="#029e73" fill-rule="evenodd" fill-opacity="1" stroke="#000000" stroke-opacity="1" stroke-width="3.2"/>
<circle clip-path="url(#clip062)" cx="552.736" cy="672.35" r="14.4" fill="#029e73" fill-rule="evenodd" fill-opacity="1" stroke="#000000" stroke-opacity="1" stroke-width="3.2"/>
<circle clip-path="url(#clip062)" cx="552.736" cy="672.35" r="14.4" fill="#029e73" fill-rule="evenodd" fill-opacity="1" stroke="#000000" stroke-opacity="1" stroke-width="3.2"/>
<circle clip-path="url(#clip062)" cx="605.507" cy="651.639" r="14.4" fill="#029e73" fill-rule="evenodd" fill-opacity="1" stroke="#000000" stroke-opacity="1" stroke-width="3.2"/>
<circle clip-path="url(#clip062)" cx="605.507" cy="651.642" r="14.4" fill="#029e73" fill-rule="evenodd" fill-opacity="1" stroke="#000000" stroke-opacity="1" stroke-width="3.2"/>
<circle clip-path="url(#clip062)" cx="658.278" cy="630.929" r="14.4" fill="#029e73" fill-rule="evenodd" fill-opacity="1" stroke="#000000" stroke-opacity="1" stroke-width="3.2"/>
<circle clip-path="url(#clip062)" cx="658.278" cy="630.938" r="14.4" fill="#029e73" fill-rule="evenodd" fill-opacity="1" stroke="#000000" stroke-opacity="1" stroke-width="3.2"/>
<circle clip-path="url(#clip062)" cx="711.049" cy="610.222" r="14.4" fill="#029e73" fill-rule="evenodd" fill-opacity="1" stroke="#000000" stroke-opacity="1" stroke-width="3.2"/>
<circle clip-path="url(#clip062)" cx="711.049" cy="610.221" r="14.4" fill="#029e73" fill-rule="evenodd" fill-opacity="1" stroke="#000000" stroke-opacity="1" stroke-width="3.2"/>
<circle clip-path="url(#clip062)" cx="763.82" cy="586.977" r="14.4" fill="#029e73" fill-rule="evenodd" fill-opacity="1" stroke="#000000" stroke-opacity="1" stroke-width="3.2"/>
<circle clip-path="url(#clip062)" cx="763.82" cy="586.988" r="14.4" fill="#029e73" fill-rule="evenodd" fill-opacity="1" stroke="#000000" stroke-opacity="1" stroke-width="3.2"/>
<circle clip-path="url(#clip062)" cx="816.591" cy="566.258" r="14.4" fill="#029e73" fill-rule="evenodd" fill-opacity="1" stroke="#000000" stroke-opacity="1" stroke-width="3.2"/>
<circle clip-path="url(#clip062)" cx="816.591" cy="566.255" r="14.4" fill="#029e73" fill-rule="evenodd" fill-opacity="1" stroke="#000000" stroke-opacity="1" stroke-width="3.2"/>
<circle clip-path="url(#clip062)" cx="869.362" cy="545.514" r="14.4" fill="#029e73" fill-rule="evenodd" fill-opacity="1" stroke="#000000" stroke-opacity="1" stroke-width="3.2"/>
<circle clip-path="url(#clip062)" cx="869.362" cy="544.465" r="14.4" fill="#029e73" fill-rule="evenodd" fill-opacity="1" stroke="#000000" stroke-opacity="1" stroke-width="3.2"/>
<circle clip-path="url(#clip062)" cx="922.133" cy="523.894" r="14.4" fill="#029e73" fill-rule="evenodd" fill-opacity="1" stroke="#000000" stroke-opacity="1" stroke-width="3.2"/>
<circle clip-path="url(#clip062)" cx="922.133" cy="523.552" r="14.4" fill="#029e73" fill-rule="evenodd" fill-opacity="1" stroke="#000000" stroke-opacity="1" stroke-width="3.2"/>
<circle clip-path="url(#clip062)" cx="974.904" cy="503.151" r="14.4" fill="#029e73" fill-rule="evenodd" fill-opacity="1" stroke="#000000" stroke-opacity="1" stroke-width="3.2"/>
<circle clip-path="url(#clip062)" cx="974.904" cy="503.079" r="14.4" fill="#029e73" fill-rule="evenodd" fill-opacity="1" stroke="#000000" stroke-opacity="1" stroke-width="3.2"/>
<circle clip-path="url(#clip062)" cx="1027.68" cy="482.324" r="14.4" fill="#029e73" fill-rule="evenodd" fill-opacity="1" stroke="#000000" stroke-opacity="1" stroke-width="3.2"/>
<circle clip-path="url(#clip062)" cx="1027.68" cy="482.411" r="14.4" fill="#029e73" fill-rule="evenodd" fill-opacity="1" stroke="#000000" stroke-opacity="1" stroke-width="3.2"/>
<circle clip-path="url(#clip062)" cx="1080.45" cy="461.217" r="14.4" fill="#029e73" fill-rule="evenodd" fill-opacity="1" stroke="#000000" stroke-opacity="1" stroke-width="3.2"/>
<circle clip-path="url(#clip062)" cx="1080.45" cy="461.186" r="14.4" fill="#029e73" fill-rule="evenodd" fill-opacity="1" stroke="#000000" stroke-opacity="1" stroke-width="3.2"/>
<circle clip-path="url(#clip062)" cx="1133.22" cy="439.914" r="14.4" fill="#029e73" fill-rule="evenodd" fill-opacity="1" stroke="#000000" stroke-opacity="1" stroke-width="3.2"/>
<circle clip-path="url(#clip062)" cx="1133.22" cy="440.143" r="14.4" fill="#029e73" fill-rule="evenodd" fill-opacity="1" stroke="#000000" stroke-opacity="1" stroke-width="3.2"/>
<circle clip-path="url(#clip062)" cx="1185.99" cy="418.544" r="14.4" fill="#029e73" fill-rule="evenodd" fill-opacity="1" stroke="#000000" stroke-opacity="1" stroke-width="3.2"/>
<circle clip-path="url(#clip062)" cx="1185.99" cy="418.597" r="14.4" fill="#029e73" fill-rule="evenodd" fill-opacity="1" stroke="#000000" stroke-opacity="1" stroke-width="3.2"/>
<circle clip-path="url(#clip062)" cx="1238.76" cy="397.37" r="14.4" fill="#029e73" fill-rule="evenodd" fill-opacity="1" stroke="#000000" stroke-opacity="1" stroke-width="3.2"/>
<circle clip-path="url(#clip062)" cx="1238.76" cy="397.301" r="14.4" fill="#029e73" fill-rule="evenodd" fill-opacity="1" stroke="#000000" stroke-opacity="1" stroke-width="3.2"/>
<circle clip-path="url(#clip062)" cx="1291.53" cy="375.757" r="14.4" fill="#029e73" fill-rule="evenodd" fill-opacity="1" stroke="#000000" stroke-opacity="1" stroke-width="3.2"/>
<circle clip-path="url(#clip062)" cx="1291.53" cy="375.307" r="14.4" fill="#029e73" fill-rule="evenodd" fill-opacity="1" stroke="#000000" stroke-opacity="1" stroke-width="3.2"/>
<circle clip-path="url(#clip062)" cx="1344.3" cy="353.768" r="14.4" fill="#029e73" fill-rule="evenodd" fill-opacity="1" stroke="#000000" stroke-opacity="1" stroke-width="3.2"/>
<circle clip-path="url(#clip062)" cx="1344.3" cy="353.491" r="14.4" fill="#029e73" fill-rule="evenodd" fill-opacity="1" stroke="#000000" stroke-opacity="1" stroke-width="3.2"/>
<circle clip-path="url(#clip062)" cx="1397.07" cy="331.14" r="14.4" fill="#029e73" fill-rule="evenodd" fill-opacity="1" stroke="#000000" stroke-opacity="1" stroke-width="3.2"/>
<circle clip-path="url(#clip062)" cx="1397.07" cy="331.047" r="14.4" fill="#029e73" fill-rule="evenodd" fill-opacity="1" stroke="#000000" stroke-opacity="1" stroke-width="3.2"/>
<circle clip-path="url(#clip062)" cx="1449.84" cy="307.292" r="14.4" fill="#029e73" fill-rule="evenodd" fill-opacity="1" stroke="#000000" stroke-opacity="1" stroke-width="3.2"/>
<circle clip-path="url(#clip062)" cx="1449.84" cy="307.67" r="14.4" fill="#029e73" fill-rule="evenodd" fill-opacity="1" stroke="#000000" stroke-opacity="1" stroke-width="3.2"/>
<circle clip-path="url(#clip062)" cx="1502.61" cy="282.524" r="14.4" fill="#029e73" fill-rule="evenodd" fill-opacity="1" stroke="#000000" stroke-opacity="1" stroke-width="3.2"/>
<circle clip-path="url(#clip062)" cx="1502.61" cy="283.139" r="14.4" fill="#029e73" fill-rule="evenodd" fill-opacity="1" stroke="#000000" stroke-opacity="1" stroke-width="3.2"/>
<circle clip-path="url(#clip062)" cx="1555.39" cy="257.978" r="14.4" fill="#029e73" fill-rule="evenodd" fill-opacity="1" stroke="#000000" stroke-opacity="1" stroke-width="3.2"/>
<circle clip-path="url(#clip062)" cx="1555.39" cy="257.4" r="14.4" fill="#029e73" fill-rule="evenodd" fill-opacity="1" stroke="#000000" stroke-opacity="1" stroke-width="3.2"/>
<circle clip-path="url(#clip062)" cx="1603.58" cy="233.016" r="14.4" fill="#029e73" fill-rule="evenodd" fill-opacity="1" stroke="#000000" stroke-opacity="1" stroke-width="3.2"/>
<circle clip-path="url(#clip062)" cx="1603.58" cy="231.819" r="14.4" fill="#029e73" fill-rule="evenodd" fill-opacity="1" stroke="#000000" stroke-opacity="1" stroke-width="3.2"/>
<circle clip-path="url(#clip062)" cx="1608.16" cy="229.797" r="14.4" fill="#029e73" fill-rule="evenodd" fill-opacity="1" stroke="#000000" stroke-opacity="1" stroke-width="3.2"/>
<circle clip-path="url(#clip062)" cx="1608.16" cy="229.623" r="14.4" fill="#029e73" fill-rule="evenodd" fill-opacity="1" stroke="#000000" stroke-opacity="1" stroke-width="3.2"/>
<circle clip-path="url(#clip062)" cx="1632.1" cy="216.841" r="14.4" fill="#029e73" fill-rule="evenodd" fill-opacity="1" stroke="#000000" stroke-opacity="1" stroke-width="3.2"/>
<circle clip-path="url(#clip062)" cx="1632.1" cy="217.676" r="14.4" fill="#029e73" fill-rule="evenodd" fill-opacity="1" stroke="#000000" stroke-opacity="1" stroke-width="3.2"/>
<circle clip-path="url(#clip062)" cx="1656.68" cy="203.589" r="14.4" fill="#029e73" fill-rule="evenodd" fill-opacity="1" stroke="#000000" stroke-opacity="1" stroke-width="3.2"/>
<circle clip-path="url(#clip062)" cx="1656.68" cy="203.092" r="14.4" fill="#029e73" fill-rule="evenodd" fill-opacity="1" stroke="#000000" stroke-opacity="1" stroke-width="3.2"/>
<circle clip-path="url(#clip062)" cx="1660.93" cy="200.545" r="14.4" fill="#029e73" fill-rule="evenodd" fill-opacity="1" stroke="#000000" stroke-opacity="1" stroke-width="3.2"/>
<circle clip-path="url(#clip062)" cx="1660.93" cy="202.621" r="14.4" fill="#029e73" fill-rule="evenodd" fill-opacity="1" stroke="#000000" stroke-opacity="1" stroke-width="3.2"/>
<circle clip-path="url(#clip062)" cx="1678.29" cy="191.393" r="14.4" fill="#029e73" fill-rule="evenodd" fill-opacity="1" stroke="#000000" stroke-opacity="1" stroke-width="3.2"/>
<circle clip-path="url(#clip062)" cx="1678.29" cy="191.114" r="14.4" fill="#029e73" fill-rule="evenodd" fill-opacity="1" stroke="#000000" stroke-opacity="1" stroke-width="3.2"/>
<circle clip-path="url(#clip062)" cx="1697.57" cy="179.975" r="14.4" fill="#029e73" fill-rule="evenodd" fill-opacity="1" stroke="#000000" stroke-opacity="1" stroke-width="3.2"/>
<circle clip-path="url(#clip062)" cx="1697.57" cy="179.051" r="14.4" fill="#029e73" fill-rule="evenodd" fill-opacity="1" stroke="#000000" stroke-opacity="1" stroke-width="3.2"/>
<circle clip-path="url(#clip062)" cx="1713.7" cy="170.449" r="14.4" fill="#029e73" fill-rule="evenodd" fill-opacity="1" stroke="#000000" stroke-opacity="1" stroke-width="3.2"/>
<circle clip-path="url(#clip062)" cx="1713.7" cy="169.943" r="14.4" fill="#029e73" fill-rule="evenodd" fill-opacity="1" stroke="#000000" stroke-opacity="1" stroke-width="3.2"/>
<circle clip-path="url(#clip062)" cx="1714.96" cy="170.32" r="14.4" fill="#029e73" fill-rule="evenodd" fill-opacity="1" stroke="#000000" stroke-opacity="1" stroke-width="3.2"/>
<circle clip-path="url(#clip062)" cx="1714.96" cy="170.788" r="14.4" fill="#029e73" fill-rule="evenodd" fill-opacity="1" stroke="#000000" stroke-opacity="1" stroke-width="3.2"/>
<circle clip-path="url(#clip062)" cx="1730.82" cy="160.589" r="14.4" fill="#029e73" fill-rule="evenodd" fill-opacity="1" stroke="#000000" stroke-opacity="1" stroke-width="3.2"/>
<circle clip-path="url(#clip062)" cx="1730.82" cy="160.851" r="14.4" fill="#029e73" fill-rule="evenodd" fill-opacity="1" stroke="#000000" stroke-opacity="1" stroke-width="3.2"/>
<circle clip-path="url(#clip062)" cx="1745.38" cy="153.061" r="14.4" fill="#029e73" fill-rule="evenodd" fill-opacity="1" stroke="#000000" stroke-opacity="1" stroke-width="3.2"/>
<circle clip-path="url(#clip062)" cx="1745.38" cy="151.984" r="14.4" fill="#029e73" fill-rule="evenodd" fill-opacity="1" stroke="#000000" stroke-opacity="1" stroke-width="3.2"/>
<circle clip-path="url(#clip062)" cx="1758.85" cy="145.363" r="14.4" fill="#029e73" fill-rule="evenodd" fill-opacity="1" stroke="#000000" stroke-opacity="1" stroke-width="3.2"/>
<circle clip-path="url(#clip062)" cx="1758.85" cy="144.84" r="14.4" fill="#029e73" fill-rule="evenodd" fill-opacity="1" stroke="#000000" stroke-opacity="1" stroke-width="3.2"/>
<circle clip-path="url(#clip062)" cx="1766.47" cy="146.849" r="14.4" fill="#029e73" fill-rule="evenodd" fill-opacity="1" stroke="#000000" stroke-opacity="1" stroke-width="3.2"/>
<circle clip-path="url(#clip062)" cx="1766.47" cy="147.446" r="14.4" fill="#029e73" fill-rule="evenodd" fill-opacity="1" stroke="#000000" stroke-opacity="1" stroke-width="3.2"/>
<circle clip-path="url(#clip062)" cx="1771.37" cy="149.683" r="14.4" fill="#029e73" fill-rule="evenodd" fill-opacity="1" stroke="#000000" stroke-opacity="1" stroke-width="3.2"/>
<circle clip-path="url(#clip062)" cx="1771.37" cy="148.984" r="14.4" fill="#029e73" fill-rule="evenodd" fill-opacity="1" stroke="#000000" stroke-opacity="1" stroke-width="3.2"/>
<circle clip-path="url(#clip062)" cx="1783.07" cy="153.012" r="14.4" fill="#029e73" fill-rule="evenodd" fill-opacity="1" stroke="#000000" stroke-opacity="1" stroke-width="3.2"/>
<circle clip-path="url(#clip062)" cx="1783.07" cy="152.907" r="14.4" fill="#029e73" fill-rule="evenodd" fill-opacity="1" stroke="#000000" stroke-opacity="1" stroke-width="3.2"/>
<circle clip-path="url(#clip062)" cx="1794.05" cy="156.844" r="14.4" fill="#029e73" fill-rule="evenodd" fill-opacity="1" stroke="#000000" stroke-opacity="1" stroke-width="3.2"/>
<circle clip-path="url(#clip062)" cx="1794.05" cy="157.531" r="14.4" fill="#029e73" fill-rule="evenodd" fill-opacity="1" stroke="#000000" stroke-opacity="1" stroke-width="3.2"/>
<circle clip-path="url(#clip062)" cx="1804.4" cy="161.108" r="14.4" fill="#029e73" fill-rule="evenodd" fill-opacity="1" stroke="#000000" stroke-opacity="1" stroke-width="3.2"/>
<circle clip-path="url(#clip062)" cx="1804.4" cy="160.907" r="14.4" fill="#029e73" fill-rule="evenodd" fill-opacity="1" stroke="#000000" stroke-opacity="1" stroke-width="3.2"/>
<circle clip-path="url(#clip062)" cx="1814.18" cy="165.073" r="14.4" fill="#029e73" fill-rule="evenodd" fill-opacity="1" stroke="#000000" stroke-opacity="1" stroke-width="3.2"/>
<circle clip-path="url(#clip062)" cx="1814.18" cy="162.736" r="14.4" fill="#029e73" fill-rule="evenodd" fill-opacity="1" stroke="#000000" stroke-opacity="1" stroke-width="3.2"/>
<circle clip-path="url(#clip062)" cx="1819.24" cy="165.478" r="14.4" fill="#029e73" fill-rule="evenodd" fill-opacity="1" stroke="#000000" stroke-opacity="1" stroke-width="3.2"/>
<circle clip-path="url(#clip062)" cx="1819.24" cy="165.677" r="14.4" fill="#029e73" fill-rule="evenodd" fill-opacity="1" stroke="#000000" stroke-opacity="1" stroke-width="3.2"/>
<circle clip-path="url(#clip062)" cx="1823.45" cy="165.945" r="14.4" fill="#029e73" fill-rule="evenodd" fill-opacity="1" stroke="#000000" stroke-opacity="1" stroke-width="3.2"/>
<circle clip-path="url(#clip062)" cx="1823.45" cy="167.093" r="14.4" fill="#029e73" fill-rule="evenodd" fill-opacity="1" stroke="#000000" stroke-opacity="1" stroke-width="3.2"/>
<circle clip-path="url(#clip062)" cx="1832.26" cy="170.273" r="14.4" fill="#029e73" fill-rule="evenodd" fill-opacity="1" stroke="#000000" stroke-opacity="1" stroke-width="3.2"/>
<circle clip-path="url(#clip062)" cx="1832.26" cy="168.112" r="14.4" fill="#029e73" fill-rule="evenodd" fill-opacity="1" stroke="#000000" stroke-opacity="1" stroke-width="3.2"/>
<circle clip-path="url(#clip062)" cx="1840.67" cy="171.118" r="14.4" fill="#029e73" fill-rule="evenodd" fill-opacity="1" stroke="#000000" stroke-opacity="1" stroke-width="3.2"/>
<circle clip-path="url(#clip062)" cx="1840.67" cy="170.698" r="14.4" fill="#029e73" fill-rule="evenodd" fill-opacity="1" stroke="#000000" stroke-opacity="1" stroke-width="3.2"/>
<circle clip-path="url(#clip062)" cx="1848.69" cy="172.459" r="14.4" fill="#029e73" fill-rule="evenodd" fill-opacity="1" stroke="#000000" stroke-opacity="1" stroke-width="3.2"/>
<circle clip-path="url(#clip062)" cx="1848.69" cy="172.993" r="14.4" fill="#029e73" fill-rule="evenodd" fill-opacity="1" stroke="#000000" stroke-opacity="1" stroke-width="3.2"/>
<circle clip-path="url(#clip062)" cx="1856.37" cy="173.984" r="14.4" fill="#029e73" fill-rule="evenodd" fill-opacity="1" stroke="#000000" stroke-opacity="1" stroke-width="3.2"/>
<circle clip-path="url(#clip062)" cx="1856.37" cy="174.11" r="14.4" fill="#029e73" fill-rule="evenodd" fill-opacity="1" stroke="#000000" stroke-opacity="1" stroke-width="3.2"/>
<circle clip-path="url(#clip062)" cx="1863.73" cy="174.902" r="14.4" fill="#029e73" fill-rule="evenodd" fill-opacity="1" stroke="#000000" stroke-opacity="1" stroke-width="3.2"/>
<circle clip-path="url(#clip062)" cx="1863.73" cy="174.7" r="14.4" fill="#029e73" fill-rule="evenodd" fill-opacity="1" stroke="#000000" stroke-opacity="1" stroke-width="3.2"/>
<circle clip-path="url(#clip062)" cx="1872.01" cy="176.528" r="14.4" fill="#029e73" fill-rule="evenodd" fill-opacity="1" stroke="#000000" stroke-opacity="1" stroke-width="3.2"/>
<circle clip-path="url(#clip062)" cx="1872.01" cy="176.472" r="14.4" fill="#029e73" fill-rule="evenodd" fill-opacity="1" stroke="#000000" stroke-opacity="1" stroke-width="3.2"/>
<circle clip-path="url(#clip062)" cx="1924.78" cy="174.151" r="14.4" fill="#029e73" fill-rule="evenodd" fill-opacity="1" stroke="#000000" stroke-opacity="1" stroke-width="3.2"/>
<circle clip-path="url(#clip062)" cx="1924.78" cy="175.159" r="14.4" fill="#029e73" fill-rule="evenodd" fill-opacity="1" stroke="#000000" stroke-opacity="1" stroke-width="3.2"/>
<circle clip-path="url(#clip062)" cx="1977.55" cy="166.172" r="14.4" fill="#029e73" fill-rule="evenodd" fill-opacity="1" stroke="#000000" stroke-opacity="1" stroke-width="3.2"/>
<circle clip-path="url(#clip062)" cx="1977.55" cy="164.914" r="14.4" fill="#029e73" fill-rule="evenodd" fill-opacity="1" stroke="#000000" stroke-opacity="1" stroke-width="3.2"/>
<circle clip-path="url(#clip062)" cx="2030.32" cy="153.886" r="14.4" fill="#029e73" fill-rule="evenodd" fill-opacity="1" stroke="#000000" stroke-opacity="1" stroke-width="3.2"/>
<circle clip-path="url(#clip062)" cx="2030.32" cy="154.538" r="14.4" fill="#029e73" fill-rule="evenodd" fill-opacity="1" stroke="#000000" stroke-opacity="1" stroke-width="3.2"/>
<circle clip-path="url(#clip062)" cx="2083.1" cy="144.105" r="14.4" fill="#029e73" fill-rule="evenodd" fill-opacity="1" stroke="#000000" stroke-opacity="1" stroke-width="3.2"/>
<circle clip-path="url(#clip062)" cx="2083.1" cy="143.692" r="14.4" fill="#029e73" fill-rule="evenodd" fill-opacity="1" stroke="#000000" stroke-opacity="1" stroke-width="3.2"/>
<circle clip-path="url(#clip062)" cx="2135.87" cy="137.175" r="14.4" fill="#029e73" fill-rule="evenodd" fill-opacity="1" stroke="#000000" stroke-opacity="1" stroke-width="3.2"/>
<circle clip-path="url(#clip062)" cx="2135.87" cy="136.044" r="14.4" fill="#029e73" fill-rule="evenodd" fill-opacity="1" stroke="#000000" stroke-opacity="1" stroke-width="3.2"/>
<circle clip-path="url(#clip062)" cx="2188.64" cy="129.582" r="14.4" fill="#029e73" fill-rule="evenodd" fill-opacity="1" stroke="#000000" stroke-opacity="1" stroke-width="3.2"/>
<circle clip-path="url(#clip062)" cx="2188.64" cy="130.372" r="14.4" fill="#029e73" fill-rule="evenodd" fill-opacity="1" stroke="#000000" stroke-opacity="1" stroke-width="3.2"/>
<circle clip-path="url(#clip062)" cx="2241.41" cy="125.835" r="14.4" fill="#029e73" fill-rule="evenodd" fill-opacity="1" stroke="#000000" stroke-opacity="1" stroke-width="3.2"/>
<circle clip-path="url(#clip062)" cx="2241.41" cy="127.556" r="14.4" fill="#029e73" fill-rule="evenodd" fill-opacity="1" stroke="#000000" stroke-opacity="1" stroke-width="3.2"/>
<circle clip-path="url(#clip062)" cx="2294.18" cy="123.144" r="14.4" fill="#029e73" fill-rule="evenodd" fill-opacity="1" stroke="#000000" stroke-opacity="1" stroke-width="3.2"/>
<circle clip-path="url(#clip062)" cx="2294.18" cy="124.168" r="14.4" fill="#029e73" fill-rule="evenodd" fill-opacity="1" stroke="#000000" stroke-opacity="1" stroke-width="3.2"/>
<path clip-path="url(#clip060)" d="M352.065 248.219 L674.821 248.219 L674.821 92.6992 L352.065 92.6992  Z" fill="#ffffff" fill-rule="evenodd" fill-opacity="1"/>
<polyline clip-path="url(#clip060)" style="stroke:#000000; stroke-linecap:round; stroke-linejoin:round; stroke-width:4; stroke-opacity:1; fill:none" points="352.065,248.219 674.821,248.219 674.821,92.6992 352.065,92.6992 352.065,248.219 "/>
<circle clip-path="url(#clip060)" cx="444.051" cy="144.539" r="20.48" fill="#de8f05" fill-rule="evenodd" fill-opacity="1" stroke="#000000" stroke-opacity="1" stroke-width="4.55111"/>
<path clip-path="url(#clip060)" d="M562.035 153.231 Q562.035 153.418 561.825 154.145 Q561.614 154.871 561.099 155.995 Q560.607 157.119 559.927 158.15 Q559.248 159.157 558.124 159.906 Q557.023 160.633 555.758 160.633 Q554.072 160.633 552.948 159.508 Q551.823 158.384 551.823 156.698 Q551.823 155.761 552.315 154.472 Q555.43 146.158 555.43 143.3 Q555.43 139.951 552.83 139.951 Q551.542 139.951 550.324 140.442 Q549.13 140.911 548.31 141.567 Q547.49 142.223 546.741 143.136 Q546.015 144.026 545.64 144.635 Q545.288 145.221 545.007 145.806 L544.398 148.195 Q544.258 148.851 543.579 151.404 L542.525 155.737 Q541.775 158.97 541.611 159.274 Q541.377 159.93 540.862 160.281 Q540.346 160.633 539.831 160.633 Q539.245 160.633 538.847 160.281 Q538.449 159.93 538.449 159.321 Q538.449 159.227 538.519 158.876 Q538.59 158.525 538.707 158.033 Q538.824 157.541 538.871 157.26 L541.658 146.181 Q542.173 144.167 542.29 143.534 Q542.431 142.878 542.431 142.152 Q542.431 139.951 540.932 139.951 Q539.714 139.951 538.918 141.403 Q538.121 142.855 537.442 145.666 Q537.231 146.439 537.091 146.603 Q536.973 146.766 536.622 146.766 Q536.037 146.743 536.037 146.275 Q536.037 146.158 536.224 145.385 Q536.411 144.612 536.763 143.511 Q537.137 142.386 537.489 141.637 Q537.793 141.075 537.957 140.817 Q538.145 140.536 538.59 139.997 Q539.058 139.435 539.667 139.178 Q540.299 138.897 541.072 138.897 Q542.806 138.897 544.07 140.021 Q545.335 141.122 545.499 143.066 Q548.614 138.897 552.971 138.897 Q555.547 138.897 557.023 140.255 Q558.499 141.614 558.499 144.026 Q558.499 144.588 558.382 145.314 Q558.288 146.017 558.054 146.907 Q557.843 147.797 557.655 148.476 Q557.468 149.156 557.093 150.256 Q556.719 151.334 556.555 151.802 Q556.391 152.271 555.992 153.372 Q555.618 154.449 555.571 154.566 Q554.704 156.744 554.704 157.986 Q554.704 158.806 554.962 159.18 Q555.243 159.555 555.852 159.555 Q557.491 159.555 558.709 157.939 Q559.951 156.299 560.747 153.629 Q560.935 153.044 561.028 152.903 Q561.145 152.763 561.473 152.763 Q562.035 152.763 562.035 153.231 Z" fill="#000000" fill-rule="nonzero" fill-opacity="1" /><path clip-path="url(#clip060)" d="M577.823 152.809 Q577.87 152.224 578.783 152.224 L608.178 152.224 Q609.56 152.224 609.584 152.763 Q609.584 153.348 608.272 153.325 L579.111 153.325 Q577.823 153.348 577.823 152.809 M577.823 143.441 Q577.823 142.855 578.83 142.878 L608.131 142.878 Q609.56 142.878 609.584 143.441 Q609.584 143.979 608.366 143.979 L578.783 143.979 Q577.823 143.979 577.823 143.441 Z" fill="#000000" fill-rule="nonzero" fill-opacity="1" /><path clip-path="url(#clip060)" d="M628.074 132.713 L628.074 131.214 Q633.836 131.214 636.811 128.146 Q637.631 128.146 637.771 128.333 Q637.912 128.52 637.912 129.387 L637.912 156.299 Q637.912 157.728 638.615 158.173 Q639.317 158.618 642.386 158.618 L643.908 158.618 L643.908 160.094 Q642.222 159.953 636.132 159.953 Q630.042 159.953 628.379 160.094 L628.379 158.618 L629.901 158.618 Q632.923 158.618 633.649 158.197 Q634.375 157.752 634.375 156.299 L634.375 131.448 Q631.869 132.713 628.074 132.713 Z" fill="#000000" fill-rule="nonzero" fill-opacity="1" /><circle clip-path="url(#clip060)" cx="444.051" cy="196.379" r="20.48" fill="#029e73" fill-rule="evenodd" fill-opacity="1" stroke="#000000" stroke-opacity="1" stroke-width="4.55111"/>
<path clip-path="url(#clip060)" d="M562.035 205.071 Q562.035 205.258 561.825 205.985 Q561.614 206.711 561.099 207.835 Q560.607 208.959 559.927 209.99 Q559.248 210.997 558.124 211.746 Q557.023 212.473 555.758 212.473 Q554.072 212.473 552.948 211.348 Q551.823 210.224 551.823 208.538 Q551.823 207.601 552.315 206.312 Q555.43 197.998 555.43 195.14 Q555.43 191.791 552.83 191.791 Q551.542 191.791 550.324 192.282 Q549.13 192.751 548.31 193.407 Q547.49 194.063 546.741 194.976 Q546.015 195.866 545.64 196.475 Q545.288 197.061 545.007 197.646 L544.398 200.035 Q544.258 200.691 543.579 203.244 L542.525 207.577 Q541.775 210.81 541.611 211.114 Q541.377 211.77 540.862 212.121 Q540.346 212.473 539.831 212.473 Q539.245 212.473 538.847 212.121 Q538.449 211.77 538.449 211.161 Q538.449 211.067 538.519 210.716 Q538.59 210.365 538.707 209.873 Q538.824 209.381 538.871 209.1 L541.658 198.021 Q542.173 196.007 542.29 195.374 Q542.431 194.718 542.431 193.992 Q542.431 191.791 540.932 191.791 Q539.714 191.791 538.918 193.243 Q538.121 194.695 537.442 197.506 Q537.231 198.279 537.091 198.443 Q536.973 198.606 536.622 198.606 Q536.037 198.583 536.037 198.115 Q536.037 197.998 536.224 197.225 Q536.411 196.452 536.763 195.351 Q537.137 194.226 537.489 193.477 Q537.793 192.915 537.957 192.657 Q538.145 192.376 538.59 191.837 Q539.058 191.275 539.667 191.018 Q540.299 190.737 541.072 190.737 Q542.806 190.737 544.07 191.861 Q545.335 192.962 545.499 194.906 Q548.614 190.737 552.971 190.737 Q555.547 190.737 557.023 192.095 Q558.499 193.454 558.499 195.866 Q558.499 196.428 558.382 197.154 Q558.288 197.857 558.054 198.747 Q557.843 199.637 557.655 200.316 Q557.468 200.996 557.093 202.096 Q556.719 203.174 556.555 203.642 Q556.391 204.111 555.992 205.212 Q555.618 206.289 555.571 206.406 Q554.704 208.584 554.704 209.826 Q554.704 210.646 554.962 211.02 Q555.243 211.395 555.852 211.395 Q557.491 211.395 558.709 209.779 Q559.951 208.139 560.747 205.469 Q560.935 204.884 561.028 204.743 Q561.145 204.603 561.473 204.603 Q562.035 204.603 562.035 205.071 Z" fill="#000000" fill-rule="nonzero" fill-opacity="1" /><path clip-path="url(#clip060)" d="M577.823 204.649 Q577.87 204.064 578.783 204.064 L608.178 204.064 Q609.56 204.064 609.584 204.603 Q609.584 205.188 608.272 205.165 L579.111 205.165 Q577.823 205.188 577.823 204.649 M577.823 195.281 Q577.823 194.695 578.83 194.718 L608.131 194.718 Q609.56 194.718 609.584 195.281 Q609.584 195.819 608.366 195.819 L578.783 195.819 Q577.823 195.819 577.823 195.281 Z" fill="#000000" fill-rule="nonzero" fill-opacity="1" /><path clip-path="url(#clip060)" d="M628.074 211.934 Q628.074 211.067 628.145 210.81 Q628.238 210.552 628.613 210.154 L637.818 199.895 Q642.854 194.226 642.854 189.284 Q642.854 186.075 641.168 183.78 Q639.505 181.485 636.436 181.485 Q634.328 181.485 632.548 182.773 Q630.768 184.061 629.948 186.357 Q630.089 186.31 630.581 186.31 Q631.775 186.31 632.431 187.059 Q633.11 187.809 633.11 188.816 Q633.11 190.104 632.267 190.737 Q631.447 191.346 630.627 191.346 Q630.3 191.346 629.855 191.275 Q629.433 191.205 628.754 190.549 Q628.074 189.87 628.074 188.675 Q628.074 185.326 630.604 182.656 Q633.157 179.986 637.045 179.986 Q641.449 179.986 644.33 182.609 Q647.234 185.209 647.234 189.284 Q647.234 190.713 646.789 192.025 Q646.367 193.313 645.782 194.32 Q645.22 195.327 643.674 196.944 Q642.128 198.56 640.886 199.707 Q639.645 200.855 636.858 203.291 L631.775 208.233 L640.418 208.233 Q644.634 208.233 644.962 207.858 Q645.43 207.179 646.016 203.595 L647.234 203.595 L645.875 211.934 L628.074 211.934 Z" fill="#000000" fill-rule="nonzero" fill-opacity="1" /></svg>
