<?xml version="1.0" encoding="utf-8"?>
<svg xmlns="http://www.w3.org/2000/svg" xmlns:xlink="http://www.w3.org/1999/xlink" width="600" height="400" viewBox="0 0 2400 1600">
<defs>
  <clipPath id="clip220">
    <rect x="0" y="0" width="2400" height="1600"/>
  </clipPath>
</defs>
<path clip-path="url(#clip220)" d="M0 1600 L2400 1600 L2400 0 L0 0  Z" fill="#ffffff" fill-rule="evenodd" fill-opacity="1"/>
<defs>
  <clipPath id="clip221">
    <rect x="480" y="0" width="1681" height="1600"/>
  </clipPath>
</defs>
<path clip-path="url(#clip220)" d="M281.684 1410.9 L2352.76 1410.9 L2352.76 47.2441 L281.684 47.2441  Z" fill="#ffffff" fill-rule="evenodd" fill-opacity="1"/>
<defs>
  <clipPath id="clip222">
    <rect x="281" y="47" width="2072" height="1365"/>
  </clipPath>
</defs>
<polyline clip-path="url(#clip222)" style="stroke:#000000; stroke-linecap:round; stroke-linejoin:round; stroke-width:2; stroke-opacity:0.1; fill:none" points="646.577,1410.9 646.577,47.2441 "/>
<polyline clip-path="url(#clip222)" style="stroke:#000000; stroke-linecap:round; stroke-linejoin:round; stroke-width:2; stroke-opacity:0.1; fill:none" points="1058.47,1410.9 1058.47,47.2441 "/>
<polyline clip-path="url(#clip222)" style="stroke:#000000; stroke-linecap:round; stroke-linejoin:round; stroke-width:2; stroke-opacity:0.1; fill:none" points="1470.36,1410.9 1470.36,47.2441 "/>
<polyline clip-path="url(#clip222)" style="stroke:#000000; stroke-linecap:round; stroke-linejoin:round; stroke-width:2; stroke-opacity:0.1; fill:none" points="1882.25,1410.9 1882.25,47.2441 "/>
<polyline clip-path="url(#clip222)" style="stroke:#000000; stroke-linecap:round; stroke-linejoin:round; stroke-width:2; stroke-opacity:0.1; fill:none" points="2294.14,1410.9 2294.14,47.2441 "/>
<polyline clip-path="url(#clip222)" style="stroke:#000000; stroke-linecap:round; stroke-linejoin:round; stroke-width:2; stroke-opacity:0.1; fill:none" points="646.577,1410.9 646.577,47.2441 "/>
<polyline clip-path="url(#clip222)" style="stroke:#000000; stroke-linecap:round; stroke-linejoin:round; stroke-width:2; stroke-opacity:0.1; fill:none" points="1058.47,1410.9 1058.47,47.2441 "/>
<polyline clip-path="url(#clip222)" style="stroke:#000000; stroke-linecap:round; stroke-linejoin:round; stroke-width:2; stroke-opacity:0.1; fill:none" points="1470.36,1410.9 1470.36,47.2441 "/>
<polyline clip-path="url(#clip222)" style="stroke:#000000; stroke-linecap:round; stroke-linejoin:round; stroke-width:2; stroke-opacity:0.1; fill:none" points="1882.25,1410.9 1882.25,47.2441 "/>
<polyline clip-path="url(#clip222)" style="stroke:#000000; stroke-linecap:round; stroke-linejoin:round; stroke-width:2; stroke-opacity:0.1; fill:none" points="2294.14,1410.9 2294.14,47.2441 "/>
<polyline clip-path="url(#clip222)" style="stroke:#000000; stroke-linecap:round; stroke-linejoin:round; stroke-width:2; stroke-opacity:0.1; fill:none" points="281.684,1311.45 2352.76,1311.45 "/>
<polyline clip-path="url(#clip222)" style="stroke:#000000; stroke-linecap:round; stroke-linejoin:round; stroke-width:2; stroke-opacity:0.1; fill:none" points="281.684,1018.62 2352.76,1018.62 "/>
<polyline clip-path="url(#clip222)" style="stroke:#000000; stroke-linecap:round; stroke-linejoin:round; stroke-width:2; stroke-opacity:0.1; fill:none" points="281.684,725.784 2352.76,725.784 "/>
<polyline clip-path="url(#clip222)" style="stroke:#000000; stroke-linecap:round; stroke-linejoin:round; stroke-width:2; stroke-opacity:0.1; fill:none" points="281.684,432.95 2352.76,432.95 "/>
<polyline clip-path="url(#clip222)" style="stroke:#000000; stroke-linecap:round; stroke-linejoin:round; stroke-width:2; stroke-opacity:0.1; fill:none" points="281.684,140.117 2352.76,140.117 "/>
<polyline clip-path="url(#clip222)" style="stroke:#000000; stroke-linecap:round; stroke-linejoin:round; stroke-width:2; stroke-opacity:0.1; fill:none" points="281.684,1311.45 2352.76,1311.45 "/>
<polyline clip-path="url(#clip222)" style="stroke:#000000; stroke-linecap:round; stroke-linejoin:round; stroke-width:2; stroke-opacity:0.1; fill:none" points="281.684,1018.62 2352.76,1018.62 "/>
<polyline clip-path="url(#clip222)" style="stroke:#000000; stroke-linecap:round; stroke-linejoin:round; stroke-width:2; stroke-opacity:0.1; fill:none" points="281.684,725.784 2352.76,725.784 "/>
<polyline clip-path="url(#clip222)" style="stroke:#000000; stroke-linecap:round; stroke-linejoin:round; stroke-width:2; stroke-opacity:0.1; fill:none" points="281.684,432.95 2352.76,432.95 "/>
<polyline clip-path="url(#clip222)" style="stroke:#000000; stroke-linecap:round; stroke-linejoin:round; stroke-width:2; stroke-opacity:0.1; fill:none" points="281.684,140.117 2352.76,140.117 "/>
<polyline clip-path="url(#clip220)" style="stroke:#000000; stroke-linecap:round; stroke-linejoin:round; stroke-width:4; stroke-opacity:1; fill:none" points="281.684,1410.9 2352.76,1410.9 "/>
<polyline clip-path="url(#clip220)" style="stroke:#000000; stroke-linecap:round; stroke-linejoin:round; stroke-width:4; stroke-opacity:1; fill:none" points="281.684,47.2441 2352.76,47.2441 "/>
<polyline clip-path="url(#clip220)" style="stroke:#000000; stroke-linecap:round; stroke-linejoin:round; stroke-width:4; stroke-opacity:1; fill:none" points="646.577,1410.9 646.577,1392 "/>
<polyline clip-path="url(#clip220)" style="stroke:#000000; stroke-linecap:round; stroke-linejoin:round; stroke-width:4; stroke-opacity:1; fill:none" points="1058.47,1410.9 1058.47,1392 "/>
<polyline clip-path="url(#clip220)" style="stroke:#000000; stroke-linecap:round; stroke-linejoin:round; stroke-width:4; stroke-opacity:1; fill:none" points="1470.36,1410.9 1470.36,1392 "/>
<polyline clip-path="url(#clip220)" style="stroke:#000000; stroke-linecap:round; stroke-linejoin:round; stroke-width:4; stroke-opacity:1; fill:none" points="1882.25,1410.9 1882.25,1392 "/>
<polyline clip-path="url(#clip220)" style="stroke:#000000; stroke-linecap:round; stroke-linejoin:round; stroke-width:4; stroke-opacity:1; fill:none" points="2294.14,1410.9 2294.14,1392 "/>
<polyline clip-path="url(#clip220)" style="stroke:#000000; stroke-linecap:round; stroke-linejoin:round; stroke-width:4; stroke-opacity:1; fill:none" points="646.577,47.2441 646.577,66.1417 "/>
<polyline clip-path="url(#clip220)" style="stroke:#000000; stroke-linecap:round; stroke-linejoin:round; stroke-width:4; stroke-opacity:1; fill:none" points="1058.47,47.2441 1058.47,66.1417 "/>
<polyline clip-path="url(#clip220)" style="stroke:#000000; stroke-linecap:round; stroke-linejoin:round; stroke-width:4; stroke-opacity:1; fill:none" points="1470.36,47.2441 1470.36,66.1417 "/>
<polyline clip-path="url(#clip220)" style="stroke:#000000; stroke-linecap:round; stroke-linejoin:round; stroke-width:4; stroke-opacity:1; fill:none" points="1882.25,47.2441 1882.25,66.1417 "/>
<polyline clip-path="url(#clip220)" style="stroke:#000000; stroke-linecap:round; stroke-linejoin:round; stroke-width:4; stroke-opacity:1; fill:none" points="2294.14,47.2441 2294.14,66.1417 "/>
<path clip-path="url(#clip220)" d="M596.843 1485.02 L604.482 1485.02 L604.482 1458.66 L596.171 1460.32 L596.171 1456.06 L604.435 1454.4 L609.111 1454.4 L609.111 1485.02 L616.75 1485.02 L616.75 1488.96 L596.843 1488.96 L596.843 1485.02 Z" fill="#000000" fill-rule="nonzero" fill-opacity="1" /><path clip-path="url(#clip220)" d="M636.194 1457.48 Q632.583 1457.48 630.755 1461.04 Q628.949 1464.58 628.949 1471.71 Q628.949 1478.82 630.755 1482.38 Q632.583 1485.92 636.194 1485.92 Q639.829 1485.92 641.634 1482.38 Q643.463 1478.82 643.463 1471.71 Q643.463 1464.58 641.634 1461.04 Q639.829 1457.48 636.194 1457.48 M636.194 1453.77 Q642.004 1453.77 645.06 1458.38 Q648.139 1462.96 648.139 1471.71 Q648.139 1480.44 645.06 1485.04 Q642.004 1489.63 636.194 1489.63 Q630.384 1489.63 627.306 1485.04 Q624.25 1480.44 624.25 1471.71 Q624.25 1462.96 627.306 1458.38 Q630.384 1453.77 636.194 1453.77 Z" fill="#000000" fill-rule="nonzero" fill-opacity="1" /><path clip-path="url(#clip220)" d="M648.139 1447.87 L672.25 1447.87 L672.25 1451.07 L648.139 1451.07 L648.139 1447.87 Z" fill="#000000" fill-rule="nonzero" fill-opacity="1" /><path clip-path="url(#clip220)" d="M683.723 1458.35 L696.983 1458.35 L696.983 1461.55 L679.153 1461.55 L679.153 1458.35 Q681.316 1456.11 685.04 1452.35 Q688.782 1448.57 689.742 1447.48 Q691.566 1445.43 692.281 1444.02 Q693.014 1442.59 693.014 1441.22 Q693.014 1438.98 691.434 1437.57 Q689.873 1436.16 687.353 1436.16 Q685.566 1436.16 683.573 1436.78 Q681.598 1437.4 679.341 1438.66 L679.341 1434.82 Q681.635 1433.9 683.629 1433.43 Q685.623 1432.96 687.278 1432.96 Q691.641 1432.96 694.237 1435.14 Q696.832 1437.32 696.832 1440.97 Q696.832 1442.7 696.174 1444.26 Q695.534 1445.8 693.823 1447.91 Q693.353 1448.46 690.832 1451.07 Q688.312 1453.67 683.723 1458.35 Z" fill="#000000" fill-rule="nonzero" fill-opacity="1" /><path clip-path="url(#clip220)" d="M1008.58 1485.02 L1016.22 1485.02 L1016.22 1458.66 L1007.91 1460.32 L1007.91 1456.06 L1016.18 1454.4 L1020.85 1454.4 L1020.85 1485.02 L1028.49 1485.02 L1028.49 1488.96 L1008.58 1488.96 L1008.58 1485.02 Z" fill="#000000" fill-rule="nonzero" fill-opacity="1" /><path clip-path="url(#clip220)" d="M1047.93 1457.48 Q1044.32 1457.48 1042.5 1461.04 Q1040.69 1464.58 1040.69 1471.71 Q1040.69 1478.82 1042.5 1482.38 Q1044.32 1485.92 1047.93 1485.92 Q1051.57 1485.92 1053.37 1482.38 Q1055.2 1478.82 1055.2 1471.71 Q1055.2 1464.58 1053.37 1461.04 Q1051.57 1457.48 1047.93 1457.48 M1047.93 1453.77 Q1053.74 1453.77 1056.8 1458.38 Q1059.88 1462.96 1059.88 1471.71 Q1059.88 1480.44 1056.8 1485.04 Q1053.74 1489.63 1047.93 1489.63 Q1042.12 1489.63 1039.05 1485.04 Q1035.99 1480.44 1035.99 1471.71 Q1035.99 1462.96 1039.05 1458.38 Q1042.12 1453.77 1047.93 1453.77 Z" fill="#000000" fill-rule="nonzero" fill-opacity="1" /><path clip-path="url(#clip220)" d="M1059.88 1447.87 L1083.99 1447.87 L1083.99 1451.07 L1059.88 1451.07 L1059.88 1447.87 Z" fill="#000000" fill-rule="nonzero" fill-opacity="1" /><path clip-path="url(#clip220)" d="M1092.85 1458.35 L1099.06 1458.35 L1099.06 1436.93 L1092.3 1438.28 L1092.3 1434.82 L1099.02 1433.47 L1102.82 1433.47 L1102.82 1458.35 L1109.02 1458.35 L1109.02 1461.55 L1092.85 1461.55 L1092.85 1458.35 Z" fill="#000000" fill-rule="nonzero" fill-opacity="1" /><path clip-path="url(#clip220)" d="M1435.34 1485.02 L1442.98 1485.02 L1442.98 1458.66 L1434.67 1460.32 L1434.67 1456.06 L1442.93 1454.4 L1447.61 1454.4 L1447.61 1485.02 L1455.25 1485.02 L1455.25 1488.96 L1435.34 1488.96 L1435.34 1485.02 Z" fill="#000000" fill-rule="nonzero" fill-opacity="1" /><path clip-path="url(#clip220)" d="M1474.69 1457.48 Q1471.08 1457.48 1469.25 1461.04 Q1467.45 1464.58 1467.45 1471.71 Q1467.45 1478.82 1469.25 1482.38 Q1471.08 1485.92 1474.69 1485.92 Q1478.33 1485.92 1480.13 1482.38 Q1481.96 1478.82 1481.96 1471.71 Q1481.96 1464.58 1480.13 1461.04 Q1478.33 1457.48 1474.69 1457.48 M1474.69 1453.77 Q1480.5 1453.77 1483.56 1458.38 Q1486.64 1462.96 1486.64 1471.71 Q1486.64 1480.44 1483.56 1485.04 Q1480.5 1489.63 1474.69 1489.63 Q1468.88 1489.63 1465.8 1485.04 Q1462.75 1480.44 1462.75 1471.71 Q1462.75 1462.96 1465.8 1458.38 Q1468.88 1453.77 1474.69 1453.77 Z" fill="#000000" fill-rule="nonzero" fill-opacity="1" /><path clip-path="url(#clip220)" d="M1496.34 1435.97 Q1493.41 1435.97 1491.92 1438.86 Q1490.46 1441.74 1490.46 1447.53 Q1490.46 1453.31 1491.92 1456.2 Q1493.41 1459.08 1496.34 1459.08 Q1499.3 1459.08 1500.76 1456.2 Q1502.25 1453.31 1502.25 1447.53 Q1502.25 1441.74 1500.76 1438.86 Q1499.3 1435.97 1496.34 1435.97 M1496.34 1432.96 Q1501.06 1432.96 1503.55 1436.7 Q1506.05 1440.43 1506.05 1447.53 Q1506.05 1454.62 1503.55 1458.37 Q1501.06 1462.09 1496.34 1462.09 Q1491.62 1462.09 1489.12 1458.37 Q1486.64 1454.62 1486.64 1447.53 Q1486.64 1440.43 1489.12 1436.7 Q1491.62 1432.96 1496.34 1432.96 Z" fill="#000000" fill-rule="nonzero" fill-opacity="1" /><path clip-path="url(#clip220)" d="M1848.58 1485.02 L1856.22 1485.02 L1856.22 1458.66 L1847.91 1460.32 L1847.91 1456.06 L1856.17 1454.4 L1860.85 1454.4 L1860.85 1485.02 L1868.48 1485.02 L1868.48 1488.96 L1848.58 1488.96 L1848.58 1485.02 Z" fill="#000000" fill-rule="nonzero" fill-opacity="1" /><path clip-path="url(#clip220)" d="M1887.93 1457.48 Q1884.32 1457.48 1882.49 1461.04 Q1880.68 1464.58 1880.68 1471.71 Q1880.68 1478.82 1882.49 1482.38 Q1884.32 1485.92 1887.93 1485.92 Q1891.56 1485.92 1893.37 1482.38 Q1895.2 1478.82 1895.2 1471.71 Q1895.2 1464.58 1893.37 1461.04 Q1891.56 1457.48 1887.93 1457.48 M1887.93 1453.77 Q1893.74 1453.77 1896.79 1458.38 Q1899.87 1462.96 1899.87 1471.71 Q1899.87 1480.44 1896.79 1485.04 Q1893.74 1489.63 1887.93 1489.63 Q1882.12 1489.63 1879.04 1485.04 Q1875.98 1480.44 1875.98 1471.71 Q1875.98 1462.96 1879.04 1458.38 Q1882.12 1453.77 1887.93 1453.77 Z" fill="#000000" fill-rule="nonzero" fill-opacity="1" /><path clip-path="url(#clip220)" d="M1900.42 1458.35 L1906.63 1458.35 L1906.63 1436.93 L1899.87 1438.28 L1899.87 1434.82 L1906.59 1433.47 L1910.39 1433.47 L1910.39 1458.35 L1916.59 1458.35 L1916.59 1461.55 L1900.42 1461.55 L1900.42 1458.35 Z" fill="#000000" fill-rule="nonzero" fill-opacity="1" /><path clip-path="url(#clip220)" d="M2259.91 1485.02 L2267.55 1485.02 L2267.55 1458.66 L2259.24 1460.32 L2259.24 1456.06 L2267.51 1454.4 L2272.18 1454.4 L2272.18 1485.02 L2279.82 1485.02 L2279.82 1488.96 L2259.91 1488.96 L2259.91 1485.02 Z" fill="#000000" fill-rule="nonzero" fill-opacity="1" /><path clip-path="url(#clip220)" d="M2299.27 1457.48 Q2295.65 1457.48 2293.83 1461.04 Q2292.02 1464.58 2292.02 1471.71 Q2292.02 1478.82 2293.83 1482.38 Q2295.65 1485.92 2299.27 1485.92 Q2302.9 1485.92 2304.7 1482.38 Q2306.53 1478.82 2306.53 1471.71 Q2306.53 1464.58 2304.7 1461.04 Q2302.9 1457.48 2299.27 1457.48 M2299.27 1453.77 Q2305.08 1453.77 2308.13 1458.38 Q2311.21 1462.96 2311.21 1471.71 Q2311.21 1480.44 2308.13 1485.04 Q2305.08 1489.63 2299.27 1489.63 Q2293.45 1489.63 2290.38 1485.04 Q2287.32 1480.44 2287.32 1471.71 Q2287.32 1462.96 2290.38 1458.38 Q2293.45 1453.77 2299.27 1453.77 Z" fill="#000000" fill-rule="nonzero" fill-opacity="1" /><path clip-path="url(#clip220)" d="M2315.78 1458.35 L2329.04 1458.35 L2329.04 1461.55 L2311.21 1461.55 L2311.21 1458.35 Q2313.37 1456.11 2317.1 1452.35 Q2320.84 1448.57 2321.8 1447.48 Q2323.62 1445.43 2324.34 1444.02 Q2325.07 1442.59 2325.07 1441.22 Q2325.07 1438.98 2323.49 1437.57 Q2321.93 1436.16 2319.41 1436.16 Q2317.62 1436.16 2315.63 1436.78 Q2313.65 1437.4 2311.4 1438.66 L2311.4 1434.82 Q2313.69 1433.9 2315.69 1433.43 Q2317.68 1432.96 2319.33 1432.96 Q2323.7 1432.96 2326.29 1435.14 Q2328.89 1437.32 2328.89 1440.97 Q2328.89 1442.7 2328.23 1444.26 Q2327.59 1445.8 2325.88 1447.91 Q2325.41 1448.46 2322.89 1451.07 Q2320.37 1453.67 2315.78 1458.35 Z" fill="#000000" fill-rule="nonzero" fill-opacity="1" /><path clip-path="url(#clip220)" d="M1340.62 1522.95 Q1340.62 1524.27 1339.53 1524.27 Q1337.6 1524.34 1336.28 1524.72 Q1334.95 1525.08 1334.18 1525.79 Q1333.44 1526.49 1333.02 1527.27 Q1332.64 1528.01 1332.38 1529.14 L1326.52 1552.55 Q1324.84 1559.15 1319.43 1563.95 Q1314.02 1568.72 1307.87 1568.72 Q1304.36 1568.72 1301.43 1567.27 Q1298.53 1565.82 1296.73 1562.89 Q1294.92 1559.96 1294.92 1556.06 Q1294.92 1554.19 1295.41 1552.23 L1299.4 1535.93 L1300.88 1530.13 Q1301.98 1525.85 1301.98 1525.46 Q1301.98 1524.85 1301.59 1524.69 Q1301.24 1524.5 1300.2 1524.4 L1297.69 1524.27 Q1296.92 1524.27 1296.6 1524.24 Q1296.31 1524.21 1296.08 1524.05 Q1295.86 1523.89 1295.86 1523.53 Q1295.86 1523.08 1295.95 1522.79 Q1296.08 1522.47 1296.31 1522.37 Q1296.53 1522.28 1296.69 1522.24 Q1296.86 1522.21 1297.11 1522.21 L1305.62 1522.4 L1314.05 1522.21 Q1314.99 1522.21 1314.99 1522.95 Q1314.99 1523.89 1314.57 1524.08 Q1314.15 1524.27 1312.73 1524.27 Q1310.32 1524.27 1309.22 1524.59 Q1308.16 1524.88 1307.84 1525.4 Q1307.55 1525.88 1307.19 1527.3 L1300.78 1552.97 Q1300.46 1554.26 1300.27 1555.54 Q1300.11 1556.8 1300.11 1557.44 L1300.08 1558.09 Q1300.08 1562.18 1302.33 1564.43 Q1304.62 1566.69 1308.13 1566.69 Q1313.28 1566.69 1318.08 1562.6 Q1322.91 1558.51 1324.55 1552.1 L1330.48 1528.56 Q1330.67 1527.98 1330.67 1527.17 Q1330.67 1525.88 1329.71 1525.11 Q1328.77 1524.3 1326.19 1524.27 Q1325 1524.27 1325 1523.53 Q1325 1522.92 1325.23 1522.63 Q1325.49 1522.31 1325.68 1522.28 Q1325.9 1522.21 1326.19 1522.21 Q1327.29 1522.21 1329.61 1522.31 Q1331.93 1522.4 1333.05 1522.4 Q1334.18 1522.4 1336.44 1522.31 Q1338.69 1522.21 1339.79 1522.21 Q1340.17 1522.21 1340.37 1522.4 Q1340.59 1522.57 1340.62 1522.76 L1340.62 1522.95 Z" fill="#000000" fill-rule="nonzero" fill-opacity="1" /><polyline clip-path="url(#clip220)" style="stroke:#000000; stroke-linecap:round; stroke-linejoin:round; stroke-width:4; stroke-opacity:1; fill:none" points="281.684,1410.9 281.684,47.2441 "/>
<polyline clip-path="url(#clip220)" style="stroke:#000000; stroke-linecap:round; stroke-linejoin:round; stroke-width:4; stroke-opacity:1; fill:none" points="2352.76,1410.9 2352.76,47.2441 "/>
<polyline clip-path="url(#clip220)" style="stroke:#000000; stroke-linecap:round; stroke-linejoin:round; stroke-width:4; stroke-opacity:1; fill:none" points="281.684,1311.45 300.581,1311.45 "/>
<polyline clip-path="url(#clip220)" style="stroke:#000000; stroke-linecap:round; stroke-linejoin:round; stroke-width:4; stroke-opacity:1; fill:none" points="281.684,1018.62 300.581,1018.62 "/>
<polyline clip-path="url(#clip220)" style="stroke:#000000; stroke-linecap:round; stroke-linejoin:round; stroke-width:4; stroke-opacity:1; fill:none" points="281.684,725.784 300.581,725.784 "/>
<polyline clip-path="url(#clip220)" style="stroke:#000000; stroke-linecap:round; stroke-linejoin:round; stroke-width:4; stroke-opacity:1; fill:none" points="281.684,432.95 300.581,432.95 "/>
<polyline clip-path="url(#clip220)" style="stroke:#000000; stroke-linecap:round; stroke-linejoin:round; stroke-width:4; stroke-opacity:1; fill:none" points="281.684,140.117 300.581,140.117 "/>
<polyline clip-path="url(#clip220)" style="stroke:#000000; stroke-linecap:round; stroke-linejoin:round; stroke-width:4; stroke-opacity:1; fill:none" points="2352.76,1311.45 2333.86,1311.45 "/>
<polyline clip-path="url(#clip220)" style="stroke:#000000; stroke-linecap:round; stroke-linejoin:round; stroke-width:4; stroke-opacity:1; fill:none" points="2352.76,1018.62 2333.86,1018.62 "/>
<polyline clip-path="url(#clip220)" style="stroke:#000000; stroke-linecap:round; stroke-linejoin:round; stroke-width:4; stroke-opacity:1; fill:none" points="2352.76,725.784 2333.86,725.784 "/>
<polyline clip-path="url(#clip220)" style="stroke:#000000; stroke-linecap:round; stroke-linejoin:round; stroke-width:4; stroke-opacity:1; fill:none" points="2352.76,432.95 2333.86,432.95 "/>
<polyline clip-path="url(#clip220)" style="stroke:#000000; stroke-linecap:round; stroke-linejoin:round; stroke-width:4; stroke-opacity:1; fill:none" points="2352.76,140.117 2333.86,140.117 "/>
<path clip-path="url(#clip220)" d="M145.243 1331.24 L152.882 1331.24 L152.882 1304.88 L144.572 1306.54 L144.572 1302.29 L152.836 1300.62 L157.512 1300.62 L157.512 1331.24 L165.15 1331.24 L165.15 1335.18 L145.243 1335.18 L145.243 1331.24 Z" fill="#000000" fill-rule="nonzero" fill-opacity="1" /><path clip-path="url(#clip220)" d="M184.595 1303.7 Q180.984 1303.7 179.155 1307.26 Q177.349 1310.8 177.349 1317.93 Q177.349 1325.04 179.155 1328.6 Q180.984 1332.15 184.595 1332.15 Q188.229 1332.15 190.035 1328.6 Q191.863 1325.04 191.863 1317.93 Q191.863 1310.8 190.035 1307.26 Q188.229 1303.7 184.595 1303.7 M184.595 1299.99 Q190.405 1299.99 193.46 1304.6 Q196.539 1309.18 196.539 1317.93 Q196.539 1326.66 193.46 1331.27 Q190.405 1335.85 184.595 1335.85 Q178.785 1335.85 175.706 1331.27 Q172.65 1326.66 172.65 1317.93 Q172.65 1309.18 175.706 1304.6 Q178.785 1299.99 184.595 1299.99 Z" fill="#000000" fill-rule="nonzero" fill-opacity="1" /><path clip-path="url(#clip220)" d="M196.539 1294.09 L220.651 1294.09 L220.651 1297.29 L196.539 1297.29 L196.539 1294.09 Z" fill="#000000" fill-rule="nonzero" fill-opacity="1" /><path clip-path="url(#clip220)" d="M229.509 1304.57 L235.716 1304.57 L235.716 1283.15 L228.964 1284.5 L228.964 1281.04 L235.678 1279.69 L239.477 1279.69 L239.477 1304.57 L245.684 1304.57 L245.684 1307.77 L229.509 1307.77 L229.509 1304.57 Z" fill="#000000" fill-rule="nonzero" fill-opacity="1" /><path clip-path="url(#clip220)" d="M174.978 1038.41 L182.617 1038.41 L182.617 1012.04 L174.307 1013.71 L174.307 1009.45 L182.571 1007.79 L187.247 1007.79 L187.247 1038.41 L194.886 1038.41 L194.886 1042.35 L174.978 1042.35 L174.978 1038.41 Z" fill="#000000" fill-rule="nonzero" fill-opacity="1" /><path clip-path="url(#clip220)" d="M214.33 1010.86 Q210.719 1010.86 208.89 1014.43 Q207.085 1017.97 207.085 1025.1 Q207.085 1032.21 208.89 1035.77 Q210.719 1039.31 214.33 1039.31 Q217.964 1039.31 219.77 1035.77 Q221.598 1032.21 221.598 1025.1 Q221.598 1017.97 219.77 1014.43 Q217.964 1010.86 214.33 1010.86 M214.33 1007.16 Q220.14 1007.16 223.196 1011.77 Q226.274 1016.35 226.274 1025.1 Q226.274 1033.83 223.196 1038.43 Q220.14 1043.02 214.33 1043.02 Q208.52 1043.02 205.441 1038.43 Q202.385 1033.83 202.385 1025.1 Q202.385 1016.35 205.441 1011.77 Q208.52 1007.16 214.33 1007.16 Z" fill="#000000" fill-rule="nonzero" fill-opacity="1" /><path clip-path="url(#clip220)" d="M235.979 989.356 Q233.045 989.356 231.559 992.252 Q230.092 995.13 230.092 1000.92 Q230.092 1006.7 231.559 1009.59 Q233.045 1012.47 235.979 1012.47 Q238.932 1012.47 240.399 1009.59 Q241.885 1006.7 241.885 1000.92 Q241.885 995.13 240.399 992.252 Q238.932 989.356 235.979 989.356 M235.979 986.347 Q240.7 986.347 243.182 990.09 Q245.684 993.814 245.684 1000.92 Q245.684 1008.01 243.182 1011.76 Q240.7 1015.48 235.979 1015.48 Q231.258 1015.48 228.757 1011.76 Q226.274 1008.01 226.274 1000.92 Q226.274 993.814 228.757 990.09 Q231.258 986.347 235.979 986.347 Z" fill="#000000" fill-rule="nonzero" fill-opacity="1" /><path clip-path="url(#clip220)" d="M177.668 745.576 L185.307 745.576 L185.307 719.211 L176.996 720.877 L176.996 716.618 L185.26 714.951 L189.936 714.951 L189.936 745.576 L197.575 745.576 L197.575 749.511 L177.668 749.511 L177.668 745.576 Z" fill="#000000" fill-rule="nonzero" fill-opacity="1" /><path clip-path="url(#clip220)" d="M217.019 718.03 Q213.408 718.03 211.58 721.595 Q209.774 725.137 209.774 732.266 Q209.774 739.373 211.58 742.937 Q213.408 746.479 217.019 746.479 Q220.654 746.479 222.459 742.937 Q224.288 739.373 224.288 732.266 Q224.288 725.137 222.459 721.595 Q220.654 718.03 217.019 718.03 M217.019 714.326 Q222.83 714.326 225.885 718.933 Q228.964 723.516 228.964 732.266 Q228.964 740.993 225.885 745.599 Q222.83 750.183 217.019 750.183 Q211.209 750.183 208.131 745.599 Q205.075 740.993 205.075 732.266 Q205.075 723.516 208.131 718.933 Q211.209 714.326 217.019 714.326 Z" fill="#000000" fill-rule="nonzero" fill-opacity="1" /><path clip-path="url(#clip220)" d="M229.509 718.904 L235.716 718.904 L235.716 697.482 L228.964 698.836 L228.964 695.375 L235.678 694.021 L239.477 694.021 L239.477 718.904 L245.684 718.904 L245.684 722.101 L229.509 722.101 L229.509 718.904 Z" fill="#000000" fill-rule="nonzero" fill-opacity="1" /><path clip-path="url(#clip220)" d="M176.558 452.743 L184.197 452.743 L184.197 426.377 L175.887 428.044 L175.887 423.785 L184.151 422.118 L188.827 422.118 L188.827 452.743 L196.465 452.743 L196.465 456.678 L176.558 456.678 L176.558 452.743 Z" fill="#000000" fill-rule="nonzero" fill-opacity="1" /><path clip-path="url(#clip220)" d="M215.91 425.197 Q212.299 425.197 210.47 428.761 Q208.664 432.303 208.664 439.433 Q208.664 446.539 210.47 450.104 Q212.299 453.646 215.91 453.646 Q219.544 453.646 221.349 450.104 Q223.178 446.539 223.178 439.433 Q223.178 432.303 221.349 428.761 Q219.544 425.197 215.91 425.197 M215.91 421.493 Q221.72 421.493 224.775 426.099 Q227.854 430.683 227.854 439.433 Q227.854 448.159 224.775 452.766 Q221.72 457.349 215.91 457.349 Q210.1 457.349 207.021 452.766 Q203.965 448.159 203.965 439.433 Q203.965 430.683 207.021 426.099 Q210.1 421.493 215.91 421.493 Z" fill="#000000" fill-rule="nonzero" fill-opacity="1" /><path clip-path="url(#clip220)" d="M232.424 426.07 L245.684 426.07 L245.684 429.268 L227.854 429.268 L227.854 426.07 Q230.017 423.832 233.741 420.071 Q237.484 416.29 238.443 415.199 Q240.267 413.149 240.982 411.739 Q241.715 410.309 241.715 408.936 Q241.715 406.698 240.136 405.288 Q238.575 403.877 236.054 403.877 Q234.268 403.877 232.274 404.498 Q230.299 405.118 228.042 406.378 L228.042 402.542 Q230.337 401.62 232.33 401.15 Q234.324 400.68 235.979 400.68 Q240.342 400.68 242.938 402.861 Q245.533 405.043 245.533 408.692 Q245.533 410.422 244.875 411.983 Q244.236 413.525 242.524 415.632 Q242.054 416.177 239.534 418.792 Q237.013 421.387 232.424 426.07 Z" fill="#000000" fill-rule="nonzero" fill-opacity="1" /><path clip-path="url(#clip220)" d="M175.9 159.909 L183.539 159.909 L183.539 133.544 L175.228 135.21 L175.228 130.951 L183.492 129.284 L188.168 129.284 L188.168 159.909 L195.807 159.909 L195.807 163.844 L175.9 163.844 L175.9 159.909 Z" fill="#000000" fill-rule="nonzero" fill-opacity="1" /><path clip-path="url(#clip220)" d="M215.251 132.363 Q211.64 132.363 209.812 135.928 Q208.006 139.469 208.006 146.599 Q208.006 153.706 209.812 157.27 Q211.64 160.812 215.251 160.812 Q218.886 160.812 220.691 157.27 Q222.52 153.706 222.52 146.599 Q222.52 139.469 220.691 135.928 Q218.886 132.363 215.251 132.363 M215.251 128.659 Q221.062 128.659 224.117 133.266 Q227.196 137.849 227.196 146.599 Q227.196 155.326 224.117 159.932 Q221.062 164.516 215.251 164.516 Q209.441 164.516 206.363 159.932 Q203.307 155.326 203.307 146.599 Q203.307 137.849 206.363 133.266 Q209.441 128.659 215.251 128.659 Z" fill="#000000" fill-rule="nonzero" fill-opacity="1" /><path clip-path="url(#clip220)" d="M239.891 121.294 Q242.618 121.877 244.142 123.72 Q245.684 125.563 245.684 128.271 Q245.684 132.428 242.825 134.704 Q239.966 136.979 234.7 136.979 Q232.932 136.979 231.051 136.622 Q229.189 136.283 227.196 135.588 L227.196 131.92 Q228.776 132.842 230.656 133.312 Q232.537 133.782 234.587 133.782 Q238.161 133.782 240.023 132.371 Q241.903 130.961 241.903 128.271 Q241.903 125.789 240.154 124.397 Q238.424 122.986 235.321 122.986 L232.048 122.986 L232.048 119.864 L235.471 119.864 Q238.274 119.864 239.759 118.755 Q241.245 117.626 241.245 115.52 Q241.245 113.357 239.703 112.21 Q238.18 111.043 235.321 111.043 Q233.76 111.043 231.973 111.382 Q230.186 111.721 228.042 112.435 L228.042 109.05 Q230.205 108.448 232.086 108.147 Q233.985 107.846 235.659 107.846 Q239.985 107.846 242.505 109.821 Q245.026 111.777 245.026 115.125 Q245.026 117.457 243.69 119.074 Q242.355 120.673 239.891 121.294 Z" fill="#000000" fill-rule="nonzero" fill-opacity="1" /><path clip-path="url(#clip220)" d="M100.165 822.764 L38.2652 822.764 Q36.3006 822.764 36.3006 821.444 Q36.3006 820.123 38.3618 820.123 L100.004 820.123 Q102.129 820.123 102.129 821.444 Q102.129 822.764 100.165 822.764 M100.165 815.486 L38.7482 815.486 Q36.3006 815.486 36.3006 814.165 Q36.3006 812.845 38.3618 812.845 L100.004 812.845 Q102.129 812.845 102.129 814.165 Q102.129 815.486 100.165 815.486 Z" fill="#000000" fill-rule="nonzero" fill-opacity="1" /><path clip-path="url(#clip220)" d="M84.3839 744.851 Q84.9959 744.851 85.3179 745.109 Q85.6078 745.334 85.6722 745.559 Q85.7044 745.753 85.7044 746.043 Q85.7044 746.88 85.6078 749.778 Q85.5112 752.677 85.5112 753.514 Q85.5112 754.867 85.6078 757.637 Q85.7044 760.406 85.7044 761.759 Q85.7044 762.661 84.9637 762.661 Q84.4806 762.661 84.2229 762.564 Q83.9331 762.467 83.8364 762.21 Q83.7076 761.92 83.7076 761.759 Q83.6754 761.566 83.6754 761.083 Q83.6754 760.439 83.611 759.762 Q83.5144 759.086 83.3212 758.249 Q83.1279 757.411 82.6448 756.896 Q82.1617 756.348 81.4854 756.348 Q81.1956 756.348 78.8123 756.574 Q76.4291 756.799 73.6594 757.089 Q70.8575 757.379 70.471 757.411 L70.471 773.965 Q73.0797 775.479 74.8832 776.541 Q76.6867 777.604 77.2987 777.991 Q77.9106 778.377 78.297 778.603 Q78.6835 778.828 78.9089 778.957 Q80.6159 779.891 81.3566 779.891 Q83.4178 779.891 83.6754 776.799 Q83.6754 775.736 84.4484 775.736 Q85.0281 775.736 85.3501 775.994 Q85.64 776.252 85.6722 776.477 Q85.7044 776.67 85.7044 776.992 Q85.7044 778.055 85.6078 780.277 Q85.5112 782.5 85.5112 783.595 Q85.5112 784.529 85.6078 786.461 Q85.7044 788.393 85.7044 789.263 Q85.7044 789.649 85.4789 789.875 Q85.2535 790.1 84.9637 790.1 Q84.5128 790.1 84.2551 790.036 Q83.9975 789.939 83.8687 789.681 Q83.7398 789.424 83.7398 789.295 Q83.7076 789.166 83.6754 788.715 Q83.5144 786.268 82.355 784.367 Q81.1634 782.435 78.1038 780.599 L39.5856 757.669 Q39.1991 757.443 39.0059 757.282 Q38.8127 757.121 38.6516 756.799 Q38.4906 756.445 38.4906 755.93 Q38.4906 755.125 38.7482 754.964 Q38.9737 754.802 40.0687 754.706 L81.2922 750.68 Q82.1617 750.584 82.516 750.519 Q82.8381 750.422 83.1923 750.004 Q83.5144 749.553 83.611 748.748 Q83.6754 747.91 83.6754 746.365 Q83.6754 745.785 83.7076 745.559 Q83.7076 745.334 83.8687 745.109 Q84.0297 744.851 84.3839 744.851 M68.4098 757.604 L46.6709 759.698 L68.4098 772.709 L68.4098 757.604 Z" fill="#000000" fill-rule="nonzero" fill-opacity="1" /><path clip-path="url(#clip220)" d="M26.2565 738.248 Q18.4562 738.248 12.1664 735.339 Q9.52877 734.1 7.31945 732.364 Q5.11012 730.628 4.14073 729.478 Q3.17133 728.328 3.17133 728.013 Q3.17133 727.562 3.62221 727.539 Q3.84766 727.539 4.41126 728.148 Q11.9861 735.587 26.2565 735.565 Q40.572 735.565 47.8537 728.328 Q48.6428 727.539 48.8908 727.539 Q49.3417 727.539 49.3417 728.013 Q49.3417 728.328 48.4173 729.433 Q47.493 730.538 45.3739 732.251 Q43.2547 733.964 40.6622 735.204 Q34.3724 738.248 26.2565 738.248 Z" fill="#000000" fill-rule="nonzero" fill-opacity="1" /><path clip-path="url(#clip220)" d="M37.7991 723.106 Q36.9649 723.106 36.717 723.038 Q36.469 722.948 36.0857 722.587 L26.2114 713.727 Q20.7557 708.88 15.9989 708.88 Q12.9104 708.88 10.7011 710.503 Q8.49174 712.104 8.49174 715.057 Q8.49174 717.086 9.73167 718.8 Q10.9716 720.513 13.1809 721.302 Q13.1358 721.167 13.1358 720.693 Q13.1358 719.544 13.8572 718.912 Q14.5786 718.259 15.548 718.259 Q16.788 718.259 17.3967 719.07 Q17.9828 719.859 17.9828 720.648 Q17.9828 720.964 17.9152 721.392 Q17.8475 721.798 17.2163 722.452 Q16.5625 723.106 15.4128 723.106 Q12.189 723.106 9.61895 720.671 Q7.04892 718.214 7.04892 714.471 Q7.04892 710.233 9.57386 707.46 Q12.0763 704.665 15.9989 704.665 Q17.3741 704.665 18.6366 705.093 Q19.8765 705.499 20.8459 706.062 Q21.8153 706.603 23.3708 708.091 Q24.9264 709.579 26.0311 710.774 Q27.1357 711.969 29.4803 714.652 L34.2371 719.544 L34.2371 711.225 Q34.2371 707.167 33.8764 706.851 Q33.2226 706.4 29.7734 705.837 L29.7734 704.665 L37.7991 705.972 L37.7991 723.106 Z" fill="#000000" fill-rule="nonzero" fill-opacity="1" /><path clip-path="url(#clip220)" d="M48.8908 699.132 Q48.6653 699.132 48.1017 698.546 Q40.5269 691.106 26.2565 691.106 Q11.941 691.106 4.70433 698.253 Q3.8702 699.132 3.62221 699.132 Q3.17133 699.132 3.17133 698.681 Q3.17133 698.365 4.09564 697.261 Q5.01995 696.134 7.13909 694.443 Q9.25824 692.729 11.8508 691.467 Q18.1406 688.424 26.2565 688.424 Q34.0568 688.424 40.3466 691.332 Q42.9842 692.572 45.1935 694.308 Q47.4029 696.043 48.3723 697.193 Q49.3417 698.343 49.3417 698.681 Q49.3417 699.132 48.8908 699.132 Z" fill="#000000" fill-rule="nonzero" fill-opacity="1" /><path clip-path="url(#clip220)" d="M100.165 674.363 L38.2652 674.363 Q36.3006 674.363 36.3006 673.042 Q36.3006 671.722 38.3618 671.722 L100.004 671.722 Q102.129 671.722 102.129 673.042 Q102.129 674.363 100.165 674.363 M100.165 667.084 L38.7482 667.084 Q36.3006 667.084 36.3006 665.764 Q36.3006 664.443 38.3618 664.443 L100.004 664.443 Q102.129 664.443 102.129 665.764 Q102.129 667.084 100.165 667.084 Z" fill="#000000" fill-rule="nonzero" fill-opacity="1" /><path clip-path="url(#clip220)" d="M93.8925 657.51 L92.4497 657.51 Q92.4497 651.964 89.4964 649.101 Q89.4964 648.312 89.6768 648.177 Q89.8571 648.042 90.6913 648.042 L116.594 648.042 Q117.97 648.042 118.398 647.365 Q118.826 646.689 118.826 643.736 L118.826 642.27 L120.247 642.27 Q120.111 643.894 120.111 649.755 Q120.111 655.617 120.247 657.217 L118.826 657.217 L118.826 655.752 Q118.826 652.844 118.421 652.145 Q117.992 651.446 116.594 651.446 L92.6751 651.446 Q93.8925 653.858 93.8925 657.51 Z" fill="#000000" fill-rule="nonzero" fill-opacity="1" /><circle clip-path="url(#clip222)" cx="340.299" cy="1372.3" r="14.4" fill="#029e73" fill-rule="evenodd" fill-opacity="1" stroke="#000000" stroke-opacity="1" stroke-width="3.2"/>
<circle clip-path="url(#clip222)" cx="340.299" cy="1372.3" r="14.4" fill="#029e73" fill-rule="evenodd" fill-opacity="1" stroke="#000000" stroke-opacity="1" stroke-width="3.2"/>
<circle clip-path="url(#clip222)" cx="393.106" cy="1334.57" r="14.4" fill="#029e73" fill-rule="evenodd" fill-opacity="1" stroke="#000000" stroke-opacity="1" stroke-width="3.2"/>
<circle clip-path="url(#clip222)" cx="393.106" cy="1334.57" r="14.4" fill="#029e73" fill-rule="evenodd" fill-opacity="1" stroke="#000000" stroke-opacity="1" stroke-width="3.2"/>
<circle clip-path="url(#clip222)" cx="445.912" cy="1296.86" r="14.4" fill="#029e73" fill-rule="evenodd" fill-opacity="1" stroke="#000000" stroke-opacity="1" stroke-width="3.2"/>
<circle clip-path="url(#clip222)" cx="445.912" cy="1296.87" r="14.4" fill="#029e73" fill-rule="evenodd" fill-opacity="1" stroke="#000000" stroke-opacity="1" stroke-width="3.2"/>
<circle clip-path="url(#clip222)" cx="498.719" cy="1259.2" r="14.4" fill="#029e73" fill-rule="evenodd" fill-opacity="1" stroke="#000000" stroke-opacity="1" stroke-width="3.2"/>
<circle clip-path="url(#clip222)" cx="498.719" cy="1259.19" r="14.4" fill="#029e73" fill-rule="evenodd" fill-opacity="1" stroke="#000000" stroke-opacity="1" stroke-width="3.2"/>
<circle clip-path="url(#clip222)" cx="551.525" cy="1221.55" r="14.4" fill="#029e73" fill-rule="evenodd" fill-opacity="1" stroke="#000000" stroke-opacity="1" stroke-width="3.2"/>
<circle clip-path="url(#clip222)" cx="551.525" cy="1221.55" r="14.4" fill="#029e73" fill-rule="evenodd" fill-opacity="1" stroke="#000000" stroke-opacity="1" stroke-width="3.2"/>
<circle clip-path="url(#clip222)" cx="604.332" cy="1165.52" r="14.4" fill="#029e73" fill-rule="evenodd" fill-opacity="1" stroke="#000000" stroke-opacity="1" stroke-width="3.2"/>
<circle clip-path="url(#clip222)" cx="604.332" cy="1165.52" r="14.4" fill="#029e73" fill-rule="evenodd" fill-opacity="1" stroke="#000000" stroke-opacity="1" stroke-width="3.2"/>
<circle clip-path="url(#clip222)" cx="657.138" cy="1127.9" r="14.4" fill="#029e73" fill-rule="evenodd" fill-opacity="1" stroke="#000000" stroke-opacity="1" stroke-width="3.2"/>
<circle clip-path="url(#clip222)" cx="657.138" cy="1127.89" r="14.4" fill="#029e73" fill-rule="evenodd" fill-opacity="1" stroke="#000000" stroke-opacity="1" stroke-width="3.2"/>
<circle clip-path="url(#clip222)" cx="709.945" cy="1086.07" r="14.4" fill="#029e73" fill-rule="evenodd" fill-opacity="1" stroke="#000000" stroke-opacity="1" stroke-width="3.2"/>
<circle clip-path="url(#clip222)" cx="709.945" cy="1086.01" r="14.4" fill="#029e73" fill-rule="evenodd" fill-opacity="1" stroke="#000000" stroke-opacity="1" stroke-width="3.2"/>
<circle clip-path="url(#clip222)" cx="762.751" cy="1048.43" r="14.4" fill="#029e73" fill-rule="evenodd" fill-opacity="1" stroke="#000000" stroke-opacity="1" stroke-width="3.2"/>
<circle clip-path="url(#clip222)" cx="762.751" cy="1048.36" r="14.4" fill="#029e73" fill-rule="evenodd" fill-opacity="1" stroke="#000000" stroke-opacity="1" stroke-width="3.2"/>
<circle clip-path="url(#clip222)" cx="815.558" cy="994.336" r="14.4" fill="#029e73" fill-rule="evenodd" fill-opacity="1" stroke="#000000" stroke-opacity="1" stroke-width="3.2"/>
<circle clip-path="url(#clip222)" cx="815.558" cy="990.554" r="14.4" fill="#029e73" fill-rule="evenodd" fill-opacity="1" stroke="#000000" stroke-opacity="1" stroke-width="3.2"/>
<circle clip-path="url(#clip222)" cx="868.364" cy="953.702" r="14.4" fill="#029e73" fill-rule="evenodd" fill-opacity="1" stroke="#000000" stroke-opacity="1" stroke-width="3.2"/>
<circle clip-path="url(#clip222)" cx="868.364" cy="957.055" r="14.4" fill="#029e73" fill-rule="evenodd" fill-opacity="1" stroke="#000000" stroke-opacity="1" stroke-width="3.2"/>
<circle clip-path="url(#clip222)" cx="921.171" cy="918.838" r="14.4" fill="#029e73" fill-rule="evenodd" fill-opacity="1" stroke="#000000" stroke-opacity="1" stroke-width="3.2"/>
<circle clip-path="url(#clip222)" cx="921.171" cy="918.489" r="14.4" fill="#029e73" fill-rule="evenodd" fill-opacity="1" stroke="#000000" stroke-opacity="1" stroke-width="3.2"/>
<circle clip-path="url(#clip222)" cx="973.977" cy="881.421" r="14.4" fill="#029e73" fill-rule="evenodd" fill-opacity="1" stroke="#000000" stroke-opacity="1" stroke-width="3.2"/>
<circle clip-path="url(#clip222)" cx="973.977" cy="881.364" r="14.4" fill="#029e73" fill-rule="evenodd" fill-opacity="1" stroke="#000000" stroke-opacity="1" stroke-width="3.2"/>
<circle clip-path="url(#clip222)" cx="1026.78" cy="843.878" r="14.4" fill="#029e73" fill-rule="evenodd" fill-opacity="1" stroke="#000000" stroke-opacity="1" stroke-width="3.2"/>
<circle clip-path="url(#clip222)" cx="1026.78" cy="843.14" r="14.4" fill="#029e73" fill-rule="evenodd" fill-opacity="1" stroke="#000000" stroke-opacity="1" stroke-width="3.2"/>
<circle clip-path="url(#clip222)" cx="1079.59" cy="806.052" r="14.4" fill="#029e73" fill-rule="evenodd" fill-opacity="1" stroke="#000000" stroke-opacity="1" stroke-width="3.2"/>
<circle clip-path="url(#clip222)" cx="1079.59" cy="805.722" r="14.4" fill="#029e73" fill-rule="evenodd" fill-opacity="1" stroke="#000000" stroke-opacity="1" stroke-width="3.2"/>
<circle clip-path="url(#clip222)" cx="1132.4" cy="767.424" r="14.4" fill="#029e73" fill-rule="evenodd" fill-opacity="1" stroke="#000000" stroke-opacity="1" stroke-width="3.2"/>
<circle clip-path="url(#clip222)" cx="1132.4" cy="767.304" r="14.4" fill="#029e73" fill-rule="evenodd" fill-opacity="1" stroke="#000000" stroke-opacity="1" stroke-width="3.2"/>
<circle clip-path="url(#clip222)" cx="1185.2" cy="729.021" r="14.4" fill="#029e73" fill-rule="evenodd" fill-opacity="1" stroke="#000000" stroke-opacity="1" stroke-width="3.2"/>
<circle clip-path="url(#clip222)" cx="1185.2" cy="728.7" r="14.4" fill="#029e73" fill-rule="evenodd" fill-opacity="1" stroke="#000000" stroke-opacity="1" stroke-width="3.2"/>
<circle clip-path="url(#clip222)" cx="1238.01" cy="689.866" r="14.4" fill="#029e73" fill-rule="evenodd" fill-opacity="1" stroke="#000000" stroke-opacity="1" stroke-width="3.2"/>
<circle clip-path="url(#clip222)" cx="1238.01" cy="689.948" r="14.4" fill="#029e73" fill-rule="evenodd" fill-opacity="1" stroke="#000000" stroke-opacity="1" stroke-width="3.2"/>
<circle clip-path="url(#clip222)" cx="1290.82" cy="650.566" r="14.4" fill="#029e73" fill-rule="evenodd" fill-opacity="1" stroke="#000000" stroke-opacity="1" stroke-width="3.2"/>
<circle clip-path="url(#clip222)" cx="1290.82" cy="650.465" r="14.4" fill="#029e73" fill-rule="evenodd" fill-opacity="1" stroke="#000000" stroke-opacity="1" stroke-width="3.2"/>
<circle clip-path="url(#clip222)" cx="1343.62" cy="611.129" r="14.4" fill="#029e73" fill-rule="evenodd" fill-opacity="1" stroke="#000000" stroke-opacity="1" stroke-width="3.2"/>
<circle clip-path="url(#clip222)" cx="1343.62" cy="610.004" r="14.4" fill="#029e73" fill-rule="evenodd" fill-opacity="1" stroke="#000000" stroke-opacity="1" stroke-width="3.2"/>
<circle clip-path="url(#clip222)" cx="1396.43" cy="568.924" r="14.4" fill="#029e73" fill-rule="evenodd" fill-opacity="1" stroke="#000000" stroke-opacity="1" stroke-width="3.2"/>
<circle clip-path="url(#clip222)" cx="1396.43" cy="569.707" r="14.4" fill="#029e73" fill-rule="evenodd" fill-opacity="1" stroke="#000000" stroke-opacity="1" stroke-width="3.2"/>
<circle clip-path="url(#clip222)" cx="1449.24" cy="526.242" r="14.4" fill="#029e73" fill-rule="evenodd" fill-opacity="1" stroke="#000000" stroke-opacity="1" stroke-width="3.2"/>
<circle clip-path="url(#clip222)" cx="1449.24" cy="527.165" r="14.4" fill="#029e73" fill-rule="evenodd" fill-opacity="1" stroke="#000000" stroke-opacity="1" stroke-width="3.2"/>
<circle clip-path="url(#clip222)" cx="1502.04" cy="483.316" r="14.4" fill="#029e73" fill-rule="evenodd" fill-opacity="1" stroke="#000000" stroke-opacity="1" stroke-width="3.2"/>
<circle clip-path="url(#clip222)" cx="1502.04" cy="483.823" r="14.4" fill="#029e73" fill-rule="evenodd" fill-opacity="1" stroke="#000000" stroke-opacity="1" stroke-width="3.2"/>
<circle clip-path="url(#clip222)" cx="1554.85" cy="438.754" r="14.4" fill="#029e73" fill-rule="evenodd" fill-opacity="1" stroke="#000000" stroke-opacity="1" stroke-width="3.2"/>
<circle clip-path="url(#clip222)" cx="1554.85" cy="438.611" r="14.4" fill="#029e73" fill-rule="evenodd" fill-opacity="1" stroke="#000000" stroke-opacity="1" stroke-width="3.2"/>
<circle clip-path="url(#clip222)" cx="1603.08" cy="396.546" r="14.4" fill="#029e73" fill-rule="evenodd" fill-opacity="1" stroke="#000000" stroke-opacity="1" stroke-width="3.2"/>
<circle clip-path="url(#clip222)" cx="1603.08" cy="395.124" r="14.4" fill="#029e73" fill-rule="evenodd" fill-opacity="1" stroke="#000000" stroke-opacity="1" stroke-width="3.2"/>
<circle clip-path="url(#clip222)" cx="1607.66" cy="392.729" r="14.4" fill="#029e73" fill-rule="evenodd" fill-opacity="1" stroke="#000000" stroke-opacity="1" stroke-width="3.2"/>
<circle clip-path="url(#clip222)" cx="1607.66" cy="391.612" r="14.4" fill="#029e73" fill-rule="evenodd" fill-opacity="1" stroke="#000000" stroke-opacity="1" stroke-width="3.2"/>
<circle clip-path="url(#clip222)" cx="1631.61" cy="370.402" r="14.4" fill="#029e73" fill-rule="evenodd" fill-opacity="1" stroke="#000000" stroke-opacity="1" stroke-width="3.2"/>
<circle clip-path="url(#clip222)" cx="1631.61" cy="370.568" r="14.4" fill="#029e73" fill-rule="evenodd" fill-opacity="1" stroke="#000000" stroke-opacity="1" stroke-width="3.2"/>
<circle clip-path="url(#clip222)" cx="1656.21" cy="349.418" r="14.4" fill="#029e73" fill-rule="evenodd" fill-opacity="1" stroke="#000000" stroke-opacity="1" stroke-width="3.2"/>
<circle clip-path="url(#clip222)" cx="1656.21" cy="349.021" r="14.4" fill="#029e73" fill-rule="evenodd" fill-opacity="1" stroke="#000000" stroke-opacity="1" stroke-width="3.2"/>
<circle clip-path="url(#clip222)" cx="1660.46" cy="344.142" r="14.4" fill="#029e73" fill-rule="evenodd" fill-opacity="1" stroke="#000000" stroke-opacity="1" stroke-width="3.2"/>
<circle clip-path="url(#clip222)" cx="1660.46" cy="344.684" r="14.4" fill="#029e73" fill-rule="evenodd" fill-opacity="1" stroke="#000000" stroke-opacity="1" stroke-width="3.2"/>
<circle clip-path="url(#clip222)" cx="1677.84" cy="329.374" r="14.4" fill="#029e73" fill-rule="evenodd" fill-opacity="1" stroke="#000000" stroke-opacity="1" stroke-width="3.2"/>
<circle clip-path="url(#clip222)" cx="1677.84" cy="328.935" r="14.4" fill="#029e73" fill-rule="evenodd" fill-opacity="1" stroke="#000000" stroke-opacity="1" stroke-width="3.2"/>
<circle clip-path="url(#clip222)" cx="1697.13" cy="313.635" r="14.4" fill="#029e73" fill-rule="evenodd" fill-opacity="1" stroke="#000000" stroke-opacity="1" stroke-width="3.2"/>
<circle clip-path="url(#clip222)" cx="1697.13" cy="311.856" r="14.4" fill="#029e73" fill-rule="evenodd" fill-opacity="1" stroke="#000000" stroke-opacity="1" stroke-width="3.2"/>
<circle clip-path="url(#clip222)" cx="1713.27" cy="301.208" r="14.4" fill="#029e73" fill-rule="evenodd" fill-opacity="1" stroke="#000000" stroke-opacity="1" stroke-width="3.2"/>
<circle clip-path="url(#clip222)" cx="1713.27" cy="300.281" r="14.4" fill="#029e73" fill-rule="evenodd" fill-opacity="1" stroke="#000000" stroke-opacity="1" stroke-width="3.2"/>
<circle clip-path="url(#clip222)" cx="1714.54" cy="298.947" r="14.4" fill="#029e73" fill-rule="evenodd" fill-opacity="1" stroke="#000000" stroke-opacity="1" stroke-width="3.2"/>
<circle clip-path="url(#clip222)" cx="1714.54" cy="300.181" r="14.4" fill="#029e73" fill-rule="evenodd" fill-opacity="1" stroke="#000000" stroke-opacity="1" stroke-width="3.2"/>
<circle clip-path="url(#clip222)" cx="1730.4" cy="283.17" r="14.4" fill="#029e73" fill-rule="evenodd" fill-opacity="1" stroke="#000000" stroke-opacity="1" stroke-width="3.2"/>
<circle clip-path="url(#clip222)" cx="1730.4" cy="286.471" r="14.4" fill="#029e73" fill-rule="evenodd" fill-opacity="1" stroke="#000000" stroke-opacity="1" stroke-width="3.2"/>
<circle clip-path="url(#clip222)" cx="1744.97" cy="273.274" r="14.4" fill="#029e73" fill-rule="evenodd" fill-opacity="1" stroke="#000000" stroke-opacity="1" stroke-width="3.2"/>
<circle clip-path="url(#clip222)" cx="1744.97" cy="272.942" r="14.4" fill="#029e73" fill-rule="evenodd" fill-opacity="1" stroke="#000000" stroke-opacity="1" stroke-width="3.2"/>
<circle clip-path="url(#clip222)" cx="1758.45" cy="263.113" r="14.4" fill="#029e73" fill-rule="evenodd" fill-opacity="1" stroke="#000000" stroke-opacity="1" stroke-width="3.2"/>
<circle clip-path="url(#clip222)" cx="1758.45" cy="262.235" r="14.4" fill="#029e73" fill-rule="evenodd" fill-opacity="1" stroke="#000000" stroke-opacity="1" stroke-width="3.2"/>
<circle clip-path="url(#clip222)" cx="1766.08" cy="257.062" r="14.4" fill="#029e73" fill-rule="evenodd" fill-opacity="1" stroke="#000000" stroke-opacity="1" stroke-width="3.2"/>
<circle clip-path="url(#clip222)" cx="1766.08" cy="259.678" r="14.4" fill="#029e73" fill-rule="evenodd" fill-opacity="1" stroke="#000000" stroke-opacity="1" stroke-width="3.2"/>
<circle clip-path="url(#clip222)" cx="1770.98" cy="251.569" r="14.4" fill="#029e73" fill-rule="evenodd" fill-opacity="1" stroke="#000000" stroke-opacity="1" stroke-width="3.2"/>
<circle clip-path="url(#clip222)" cx="1770.98" cy="251.986" r="14.4" fill="#029e73" fill-rule="evenodd" fill-opacity="1" stroke="#000000" stroke-opacity="1" stroke-width="3.2"/>
<circle clip-path="url(#clip222)" cx="1782.69" cy="242.553" r="14.4" fill="#029e73" fill-rule="evenodd" fill-opacity="1" stroke="#000000" stroke-opacity="1" stroke-width="3.2"/>
<circle clip-path="url(#clip222)" cx="1782.69" cy="243.292" r="14.4" fill="#029e73" fill-rule="evenodd" fill-opacity="1" stroke="#000000" stroke-opacity="1" stroke-width="3.2"/>
<circle clip-path="url(#clip222)" cx="1793.67" cy="239.647" r="14.4" fill="#029e73" fill-rule="evenodd" fill-opacity="1" stroke="#000000" stroke-opacity="1" stroke-width="3.2"/>
<circle clip-path="url(#clip222)" cx="1793.67" cy="234.275" r="14.4" fill="#029e73" fill-rule="evenodd" fill-opacity="1" stroke="#000000" stroke-opacity="1" stroke-width="3.2"/>
<circle clip-path="url(#clip222)" cx="1804.03" cy="226.786" r="14.4" fill="#029e73" fill-rule="evenodd" fill-opacity="1" stroke="#000000" stroke-opacity="1" stroke-width="3.2"/>
<circle clip-path="url(#clip222)" cx="1804.03" cy="228.148" r="14.4" fill="#029e73" fill-rule="evenodd" fill-opacity="1" stroke="#000000" stroke-opacity="1" stroke-width="3.2"/>
<circle clip-path="url(#clip222)" cx="1813.81" cy="223.525" r="14.4" fill="#029e73" fill-rule="evenodd" fill-opacity="1" stroke="#000000" stroke-opacity="1" stroke-width="3.2"/>
<circle clip-path="url(#clip222)" cx="1813.81" cy="220.014" r="14.4" fill="#029e73" fill-rule="evenodd" fill-opacity="1" stroke="#000000" stroke-opacity="1" stroke-width="3.2"/>
<circle clip-path="url(#clip222)" cx="1818.88" cy="217.683" r="14.4" fill="#029e73" fill-rule="evenodd" fill-opacity="1" stroke="#000000" stroke-opacity="1" stroke-width="3.2"/>
<circle clip-path="url(#clip222)" cx="1818.88" cy="215.898" r="14.4" fill="#029e73" fill-rule="evenodd" fill-opacity="1" stroke="#000000" stroke-opacity="1" stroke-width="3.2"/>
<circle clip-path="url(#clip222)" cx="1823.09" cy="217.19" r="14.4" fill="#029e73" fill-rule="evenodd" fill-opacity="1" stroke="#000000" stroke-opacity="1" stroke-width="3.2"/>
<circle clip-path="url(#clip222)" cx="1823.09" cy="215.103" r="14.4" fill="#029e73" fill-rule="evenodd" fill-opacity="1" stroke="#000000" stroke-opacity="1" stroke-width="3.2"/>
<circle clip-path="url(#clip222)" cx="1831.91" cy="208.348" r="14.4" fill="#029e73" fill-rule="evenodd" fill-opacity="1" stroke="#000000" stroke-opacity="1" stroke-width="3.2"/>
<circle clip-path="url(#clip222)" cx="1831.91" cy="209.157" r="14.4" fill="#029e73" fill-rule="evenodd" fill-opacity="1" stroke="#000000" stroke-opacity="1" stroke-width="3.2"/>
<circle clip-path="url(#clip222)" cx="1840.32" cy="203.168" r="14.4" fill="#029e73" fill-rule="evenodd" fill-opacity="1" stroke="#000000" stroke-opacity="1" stroke-width="3.2"/>
<circle clip-path="url(#clip222)" cx="1840.32" cy="208.777" r="14.4" fill="#029e73" fill-rule="evenodd" fill-opacity="1" stroke="#000000" stroke-opacity="1" stroke-width="3.2"/>
<circle clip-path="url(#clip222)" cx="1848.35" cy="197.902" r="14.4" fill="#029e73" fill-rule="evenodd" fill-opacity="1" stroke="#000000" stroke-opacity="1" stroke-width="3.2"/>
<circle clip-path="url(#clip222)" cx="1848.35" cy="200.405" r="14.4" fill="#029e73" fill-rule="evenodd" fill-opacity="1" stroke="#000000" stroke-opacity="1" stroke-width="3.2"/>
<circle clip-path="url(#clip222)" cx="1856.03" cy="196.309" r="14.4" fill="#029e73" fill-rule="evenodd" fill-opacity="1" stroke="#000000" stroke-opacity="1" stroke-width="3.2"/>
<circle clip-path="url(#clip222)" cx="1856.03" cy="190.569" r="14.4" fill="#029e73" fill-rule="evenodd" fill-opacity="1" stroke="#000000" stroke-opacity="1" stroke-width="3.2"/>
<circle clip-path="url(#clip222)" cx="1863.4" cy="188.293" r="14.4" fill="#029e73" fill-rule="evenodd" fill-opacity="1" stroke="#000000" stroke-opacity="1" stroke-width="3.2"/>
<circle clip-path="url(#clip222)" cx="1863.4" cy="188.664" r="14.4" fill="#029e73" fill-rule="evenodd" fill-opacity="1" stroke="#000000" stroke-opacity="1" stroke-width="3.2"/>
<circle clip-path="url(#clip222)" cx="1871.69" cy="184.673" r="14.4" fill="#029e73" fill-rule="evenodd" fill-opacity="1" stroke="#000000" stroke-opacity="1" stroke-width="3.2"/>
<circle clip-path="url(#clip222)" cx="1871.69" cy="185.521" r="14.4" fill="#029e73" fill-rule="evenodd" fill-opacity="1" stroke="#000000" stroke-opacity="1" stroke-width="3.2"/>
<circle clip-path="url(#clip222)" cx="1924.49" cy="159.511" r="14.4" fill="#029e73" fill-rule="evenodd" fill-opacity="1" stroke="#000000" stroke-opacity="1" stroke-width="3.2"/>
<circle clip-path="url(#clip222)" cx="1924.49" cy="155.443" r="14.4" fill="#029e73" fill-rule="evenodd" fill-opacity="1" stroke="#000000" stroke-opacity="1" stroke-width="3.2"/>
<circle clip-path="url(#clip222)" cx="1977.3" cy="137.748" r="14.4" fill="#029e73" fill-rule="evenodd" fill-opacity="1" stroke="#000000" stroke-opacity="1" stroke-width="3.2"/>
<circle clip-path="url(#clip222)" cx="1977.3" cy="137.964" r="14.4" fill="#029e73" fill-rule="evenodd" fill-opacity="1" stroke="#000000" stroke-opacity="1" stroke-width="3.2"/>
<circle clip-path="url(#clip222)" cx="2030.11" cy="120.186" r="14.4" fill="#029e73" fill-rule="evenodd" fill-opacity="1" stroke="#000000" stroke-opacity="1" stroke-width="3.2"/>
<circle clip-path="url(#clip222)" cx="2030.11" cy="119.569" r="14.4" fill="#029e73" fill-rule="evenodd" fill-opacity="1" stroke="#000000" stroke-opacity="1" stroke-width="3.2"/>
<circle clip-path="url(#clip222)" cx="2082.91" cy="109.967" r="14.4" fill="#029e73" fill-rule="evenodd" fill-opacity="1" stroke="#000000" stroke-opacity="1" stroke-width="3.2"/>
<circle clip-path="url(#clip222)" cx="2082.91" cy="108.87" r="14.4" fill="#029e73" fill-rule="evenodd" fill-opacity="1" stroke="#000000" stroke-opacity="1" stroke-width="3.2"/>
<circle clip-path="url(#clip222)" cx="2135.72" cy="103.503" r="14.4" fill="#029e73" fill-rule="evenodd" fill-opacity="1" stroke="#000000" stroke-opacity="1" stroke-width="3.2"/>
<circle clip-path="url(#clip222)" cx="2135.72" cy="101.619" r="14.4" fill="#029e73" fill-rule="evenodd" fill-opacity="1" stroke="#000000" stroke-opacity="1" stroke-width="3.2"/>
<circle clip-path="url(#clip222)" cx="2188.53" cy="94.1379" r="14.4" fill="#029e73" fill-rule="evenodd" fill-opacity="1" stroke="#000000" stroke-opacity="1" stroke-width="3.2"/>
<circle clip-path="url(#clip222)" cx="2188.53" cy="91.9022" r="14.4" fill="#029e73" fill-rule="evenodd" fill-opacity="1" stroke="#000000" stroke-opacity="1" stroke-width="3.2"/>
<circle clip-path="url(#clip222)" cx="2241.33" cy="86.8138" r="14.4" fill="#029e73" fill-rule="evenodd" fill-opacity="1" stroke="#000000" stroke-opacity="1" stroke-width="3.2"/>
<circle clip-path="url(#clip222)" cx="2241.33" cy="90.5876" r="14.4" fill="#029e73" fill-rule="evenodd" fill-opacity="1" stroke="#000000" stroke-opacity="1" stroke-width="3.2"/>
<circle clip-path="url(#clip222)" cx="2294.14" cy="85.838" r="14.4" fill="#029e73" fill-rule="evenodd" fill-opacity="1" stroke="#000000" stroke-opacity="1" stroke-width="3.2"/>
<circle clip-path="url(#clip222)" cx="2294.14" cy="87.3164" r="14.4" fill="#029e73" fill-rule="evenodd" fill-opacity="1" stroke="#000000" stroke-opacity="1" stroke-width="3.2"/>
</svg>
