<?xml version="1.0" encoding="utf-8"?>
<svg xmlns="http://www.w3.org/2000/svg" xmlns:xlink="http://www.w3.org/1999/xlink" width="600" height="400" viewBox="0 0 2400 1600">
<defs>
  <clipPath id="clip430">
    <rect x="0" y="0" width="2400" height="1600"/>
  </clipPath>
</defs>
<path clip-path="url(#clip430)" d="M0 1600 L2400 1600 L2400 0 L0 0  Z" fill="#ffffff" fill-rule="evenodd" fill-opacity="1"/>
<defs>
  <clipPath id="clip431">
    <rect x="480" y="0" width="1681" height="1600"/>
  </clipPath>
</defs>
<path clip-path="url(#clip430)" d="M283.076 1410.9 L2352.76 1410.9 L2352.76 47.2441 L283.076 47.2441  Z" fill="#ffffff" fill-rule="evenodd" fill-opacity="1"/>
<defs>
  <clipPath id="clip432">
    <rect x="283" y="47" width="2071" height="1365"/>
  </clipPath>
</defs>
<polyline clip-path="url(#clip432)" style="stroke:#000000; stroke-linecap:round; stroke-linejoin:round; stroke-width:2; stroke-opacity:0.1; fill:none" points="290.269,1410.9 290.269,47.2441 "/>
<polyline clip-path="url(#clip432)" style="stroke:#000000; stroke-linecap:round; stroke-linejoin:round; stroke-width:2; stroke-opacity:0.1; fill:none" points="691.051,1410.9 691.051,47.2441 "/>
<polyline clip-path="url(#clip432)" style="stroke:#000000; stroke-linecap:round; stroke-linejoin:round; stroke-width:2; stroke-opacity:0.1; fill:none" points="1091.83,1410.9 1091.83,47.2441 "/>
<polyline clip-path="url(#clip432)" style="stroke:#000000; stroke-linecap:round; stroke-linejoin:round; stroke-width:2; stroke-opacity:0.1; fill:none" points="1492.62,1410.9 1492.62,47.2441 "/>
<polyline clip-path="url(#clip432)" style="stroke:#000000; stroke-linecap:round; stroke-linejoin:round; stroke-width:2; stroke-opacity:0.1; fill:none" points="1893.4,1410.9 1893.4,47.2441 "/>
<polyline clip-path="url(#clip432)" style="stroke:#000000; stroke-linecap:round; stroke-linejoin:round; stroke-width:2; stroke-opacity:0.1; fill:none" points="2294.18,1410.9 2294.18,47.2441 "/>
<polyline clip-path="url(#clip432)" style="stroke:#000000; stroke-linecap:round; stroke-linejoin:round; stroke-width:2; stroke-opacity:0.1; fill:none" points="283.076,1358.98 2352.76,1358.98 "/>
<polyline clip-path="url(#clip432)" style="stroke:#000000; stroke-linecap:round; stroke-linejoin:round; stroke-width:2; stroke-opacity:0.1; fill:none" points="283.076,1202.6 2352.76,1202.6 "/>
<polyline clip-path="url(#clip432)" style="stroke:#000000; stroke-linecap:round; stroke-linejoin:round; stroke-width:2; stroke-opacity:0.1; fill:none" points="283.076,1046.21 2352.76,1046.21 "/>
<polyline clip-path="url(#clip432)" style="stroke:#000000; stroke-linecap:round; stroke-linejoin:round; stroke-width:2; stroke-opacity:0.1; fill:none" points="283.076,889.822 2352.76,889.822 "/>
<polyline clip-path="url(#clip432)" style="stroke:#000000; stroke-linecap:round; stroke-linejoin:round; stroke-width:2; stroke-opacity:0.1; fill:none" points="283.076,733.435 2352.76,733.435 "/>
<polyline clip-path="url(#clip432)" style="stroke:#000000; stroke-linecap:round; stroke-linejoin:round; stroke-width:2; stroke-opacity:0.1; fill:none" points="283.076,577.048 2352.76,577.048 "/>
<polyline clip-path="url(#clip432)" style="stroke:#000000; stroke-linecap:round; stroke-linejoin:round; stroke-width:2; stroke-opacity:0.1; fill:none" points="283.076,420.661 2352.76,420.661 "/>
<polyline clip-path="url(#clip432)" style="stroke:#000000; stroke-linecap:round; stroke-linejoin:round; stroke-width:2; stroke-opacity:0.1; fill:none" points="283.076,264.275 2352.76,264.275 "/>
<polyline clip-path="url(#clip432)" style="stroke:#000000; stroke-linecap:round; stroke-linejoin:round; stroke-width:2; stroke-opacity:0.1; fill:none" points="283.076,107.888 2352.76,107.888 "/>
<polyline clip-path="url(#clip430)" style="stroke:#000000; stroke-linecap:round; stroke-linejoin:round; stroke-width:4; stroke-opacity:1; fill:none" points="283.076,1410.9 2352.76,1410.9 "/>
<polyline clip-path="url(#clip430)" style="stroke:#000000; stroke-linecap:round; stroke-linejoin:round; stroke-width:4; stroke-opacity:1; fill:none" points="290.269,1410.9 290.269,1392 "/>
<polyline clip-path="url(#clip430)" style="stroke:#000000; stroke-linecap:round; stroke-linejoin:round; stroke-width:4; stroke-opacity:1; fill:none" points="691.051,1410.9 691.051,1392 "/>
<polyline clip-path="url(#clip430)" style="stroke:#000000; stroke-linecap:round; stroke-linejoin:round; stroke-width:4; stroke-opacity:1; fill:none" points="1091.83,1410.9 1091.83,1392 "/>
<polyline clip-path="url(#clip430)" style="stroke:#000000; stroke-linecap:round; stroke-linejoin:round; stroke-width:4; stroke-opacity:1; fill:none" points="1492.62,1410.9 1492.62,1392 "/>
<polyline clip-path="url(#clip430)" style="stroke:#000000; stroke-linecap:round; stroke-linejoin:round; stroke-width:4; stroke-opacity:1; fill:none" points="1893.4,1410.9 1893.4,1392 "/>
<polyline clip-path="url(#clip430)" style="stroke:#000000; stroke-linecap:round; stroke-linejoin:round; stroke-width:4; stroke-opacity:1; fill:none" points="2294.18,1410.9 2294.18,1392 "/>
<path clip-path="url(#clip430)" d="M240.149 1485.02 L247.788 1485.02 L247.788 1458.66 L239.478 1460.32 L239.478 1456.06 L247.742 1454.4 L252.418 1454.4 L252.418 1485.02 L260.057 1485.02 L260.057 1488.96 L240.149 1488.96 L240.149 1485.02 Z" fill="#000000" fill-rule="nonzero" fill-opacity="1" /><path clip-path="url(#clip430)" d="M279.501 1457.48 Q275.89 1457.48 274.061 1461.04 Q272.256 1464.58 272.256 1471.71 Q272.256 1478.82 274.061 1482.38 Q275.89 1485.92 279.501 1485.92 Q283.135 1485.92 284.941 1482.38 Q286.769 1478.82 286.769 1471.71 Q286.769 1464.58 284.941 1461.04 Q283.135 1457.48 279.501 1457.48 M279.501 1453.77 Q285.311 1453.77 288.367 1458.38 Q291.445 1462.96 291.445 1471.71 Q291.445 1480.44 288.367 1485.04 Q285.311 1489.63 279.501 1489.63 Q273.691 1489.63 270.612 1485.04 Q267.557 1480.44 267.557 1471.71 Q267.557 1462.96 270.612 1458.38 Q273.691 1453.77 279.501 1453.77 Z" fill="#000000" fill-rule="nonzero" fill-opacity="1" /><path clip-path="url(#clip430)" d="M291.445 1447.87 L315.557 1447.87 L315.557 1451.07 L291.445 1451.07 L291.445 1447.87 Z" fill="#000000" fill-rule="nonzero" fill-opacity="1" /><path clip-path="url(#clip430)" d="M335.267 1446.41 Q337.995 1446.99 339.518 1448.83 Q341.06 1450.68 341.06 1453.38 Q341.06 1457.54 338.201 1459.82 Q335.343 1462.09 330.077 1462.09 Q328.309 1462.09 326.428 1461.73 Q324.566 1461.4 322.572 1460.7 L322.572 1457.03 Q324.152 1457.95 326.033 1458.42 Q327.914 1458.89 329.964 1458.89 Q333.537 1458.89 335.399 1457.48 Q337.28 1456.07 337.28 1453.38 Q337.28 1450.9 335.531 1449.51 Q333.8 1448.1 330.697 1448.1 L327.425 1448.1 L327.425 1444.98 L330.848 1444.98 Q333.65 1444.98 335.136 1443.87 Q336.622 1442.74 336.622 1440.63 Q336.622 1438.47 335.079 1437.32 Q333.556 1436.16 330.697 1436.16 Q329.136 1436.16 327.349 1436.49 Q325.563 1436.83 323.419 1437.55 L323.419 1434.16 Q325.581 1433.56 327.462 1433.26 Q329.362 1432.96 331.036 1432.96 Q335.361 1432.96 337.882 1434.93 Q340.402 1436.89 340.402 1440.24 Q340.402 1442.57 339.067 1444.19 Q337.731 1445.79 335.267 1446.41 Z" fill="#000000" fill-rule="nonzero" fill-opacity="1" /><path clip-path="url(#clip430)" d="M641.317 1485.02 L648.956 1485.02 L648.956 1458.66 L640.646 1460.32 L640.646 1456.06 L648.91 1454.4 L653.586 1454.4 L653.586 1485.02 L661.224 1485.02 L661.224 1488.96 L641.317 1488.96 L641.317 1485.02 Z" fill="#000000" fill-rule="nonzero" fill-opacity="1" /><path clip-path="url(#clip430)" d="M680.669 1457.48 Q677.058 1457.48 675.229 1461.04 Q673.423 1464.58 673.423 1471.71 Q673.423 1478.82 675.229 1482.38 Q677.058 1485.92 680.669 1485.92 Q684.303 1485.92 686.108 1482.38 Q687.937 1478.82 687.937 1471.71 Q687.937 1464.58 686.108 1461.04 Q684.303 1457.48 680.669 1457.48 M680.669 1453.77 Q686.479 1453.77 689.534 1458.38 Q692.613 1462.96 692.613 1471.71 Q692.613 1480.44 689.534 1485.04 Q686.479 1489.63 680.669 1489.63 Q674.859 1489.63 671.78 1485.04 Q668.724 1480.44 668.724 1471.71 Q668.724 1462.96 671.78 1458.38 Q674.859 1453.77 680.669 1453.77 Z" fill="#000000" fill-rule="nonzero" fill-opacity="1" /><path clip-path="url(#clip430)" d="M692.613 1447.87 L716.725 1447.87 L716.725 1451.07 L692.613 1451.07 L692.613 1447.87 Z" fill="#000000" fill-rule="nonzero" fill-opacity="1" /><path clip-path="url(#clip430)" d="M728.197 1458.35 L741.457 1458.35 L741.457 1461.55 L723.627 1461.55 L723.627 1458.35 Q725.79 1456.11 729.514 1452.35 Q733.257 1448.57 734.216 1447.48 Q736.04 1445.43 736.755 1444.02 Q737.488 1442.59 737.488 1441.22 Q737.488 1438.98 735.909 1437.57 Q734.348 1436.16 731.827 1436.16 Q730.041 1436.16 728.047 1436.78 Q726.072 1437.4 723.815 1438.66 L723.815 1434.82 Q726.11 1433.9 728.103 1433.43 Q730.097 1432.96 731.752 1432.96 Q736.115 1432.96 738.711 1435.14 Q741.306 1437.32 741.306 1440.97 Q741.306 1442.7 740.648 1444.26 Q740.009 1445.8 738.297 1447.91 Q737.827 1448.46 735.307 1451.07 Q732.786 1453.67 728.197 1458.35 Z" fill="#000000" fill-rule="nonzero" fill-opacity="1" /><path clip-path="url(#clip430)" d="M1041.95 1485.02 L1049.59 1485.02 L1049.59 1458.66 L1041.28 1460.32 L1041.28 1456.06 L1049.54 1454.4 L1054.22 1454.4 L1054.22 1485.02 L1061.86 1485.02 L1061.86 1488.96 L1041.95 1488.96 L1041.95 1485.02 Z" fill="#000000" fill-rule="nonzero" fill-opacity="1" /><path clip-path="url(#clip430)" d="M1081.3 1457.48 Q1077.69 1457.48 1075.86 1461.04 Q1074.06 1464.58 1074.06 1471.71 Q1074.06 1478.82 1075.86 1482.38 Q1077.69 1485.92 1081.3 1485.92 Q1084.93 1485.92 1086.74 1482.38 Q1088.57 1478.82 1088.57 1471.71 Q1088.57 1464.58 1086.74 1461.04 Q1084.93 1457.48 1081.3 1457.48 M1081.3 1453.77 Q1087.11 1453.77 1090.17 1458.38 Q1093.24 1462.96 1093.24 1471.71 Q1093.24 1480.44 1090.17 1485.04 Q1087.11 1489.63 1081.3 1489.63 Q1075.49 1489.63 1072.41 1485.04 Q1069.36 1480.44 1069.36 1471.71 Q1069.36 1462.96 1072.41 1458.38 Q1075.49 1453.77 1081.3 1453.77 Z" fill="#000000" fill-rule="nonzero" fill-opacity="1" /><path clip-path="url(#clip430)" d="M1093.24 1447.87 L1117.36 1447.87 L1117.36 1451.07 L1093.24 1451.07 L1093.24 1447.87 Z" fill="#000000" fill-rule="nonzero" fill-opacity="1" /><path clip-path="url(#clip430)" d="M1126.21 1458.35 L1132.42 1458.35 L1132.42 1436.93 L1125.67 1438.28 L1125.67 1434.82 L1132.38 1433.47 L1136.18 1433.47 L1136.18 1458.35 L1142.39 1458.35 L1142.39 1461.55 L1126.21 1461.55 L1126.21 1458.35 Z" fill="#000000" fill-rule="nonzero" fill-opacity="1" /><path clip-path="url(#clip430)" d="M1457.6 1485.02 L1465.24 1485.02 L1465.24 1458.66 L1456.93 1460.32 L1456.93 1456.06 L1465.19 1454.4 L1469.87 1454.4 L1469.87 1485.02 L1477.51 1485.02 L1477.51 1488.96 L1457.6 1488.96 L1457.6 1485.02 Z" fill="#000000" fill-rule="nonzero" fill-opacity="1" /><path clip-path="url(#clip430)" d="M1496.95 1457.48 Q1493.34 1457.48 1491.51 1461.04 Q1489.7 1464.58 1489.7 1471.71 Q1489.7 1478.82 1491.51 1482.38 Q1493.34 1485.92 1496.95 1485.92 Q1500.58 1485.92 1502.39 1482.38 Q1504.22 1478.82 1504.22 1471.71 Q1504.22 1464.58 1502.39 1461.04 Q1500.58 1457.48 1496.95 1457.48 M1496.95 1453.77 Q1502.76 1453.77 1505.82 1458.38 Q1508.89 1462.96 1508.89 1471.71 Q1508.89 1480.44 1505.82 1485.04 Q1502.76 1489.63 1496.95 1489.63 Q1491.14 1489.63 1488.06 1485.04 Q1485.01 1480.44 1485.01 1471.71 Q1485.01 1462.96 1488.06 1458.38 Q1491.14 1453.77 1496.95 1453.77 Z" fill="#000000" fill-rule="nonzero" fill-opacity="1" /><path clip-path="url(#clip430)" d="M1518.6 1435.97 Q1515.67 1435.97 1514.18 1438.86 Q1512.71 1441.74 1512.71 1447.53 Q1512.71 1453.31 1514.18 1456.2 Q1515.67 1459.08 1518.6 1459.08 Q1521.55 1459.08 1523.02 1456.2 Q1524.5 1453.31 1524.5 1447.53 Q1524.5 1441.74 1523.02 1438.86 Q1521.55 1435.97 1518.6 1435.97 M1518.6 1432.96 Q1523.32 1432.96 1525.8 1436.7 Q1528.3 1440.43 1528.3 1447.53 Q1528.3 1454.62 1525.8 1458.37 Q1523.32 1462.09 1518.6 1462.09 Q1513.88 1462.09 1511.38 1458.37 Q1508.89 1454.62 1508.89 1447.53 Q1508.89 1440.43 1511.38 1436.7 Q1513.88 1432.96 1518.6 1432.96 Z" fill="#000000" fill-rule="nonzero" fill-opacity="1" /><path clip-path="url(#clip430)" d="M1859.73 1485.02 L1867.36 1485.02 L1867.36 1458.66 L1859.05 1460.32 L1859.05 1456.06 L1867.32 1454.4 L1871.99 1454.4 L1871.99 1485.02 L1879.63 1485.02 L1879.63 1488.96 L1859.73 1488.96 L1859.73 1485.02 Z" fill="#000000" fill-rule="nonzero" fill-opacity="1" /><path clip-path="url(#clip430)" d="M1899.08 1457.48 Q1895.47 1457.48 1893.64 1461.04 Q1891.83 1464.58 1891.83 1471.71 Q1891.83 1478.82 1893.64 1482.38 Q1895.47 1485.92 1899.08 1485.92 Q1902.71 1485.92 1904.52 1482.38 Q1906.35 1478.82 1906.35 1471.71 Q1906.35 1464.58 1904.52 1461.04 Q1902.71 1457.48 1899.08 1457.48 M1899.08 1453.77 Q1904.89 1453.77 1907.94 1458.38 Q1911.02 1462.96 1911.02 1471.71 Q1911.02 1480.44 1907.94 1485.04 Q1904.89 1489.63 1899.08 1489.63 Q1893.27 1489.63 1890.19 1485.04 Q1887.13 1480.44 1887.13 1471.71 Q1887.13 1462.96 1890.19 1458.38 Q1893.27 1453.77 1899.08 1453.77 Z" fill="#000000" fill-rule="nonzero" fill-opacity="1" /><path clip-path="url(#clip430)" d="M1911.57 1458.35 L1917.77 1458.35 L1917.77 1436.93 L1911.02 1438.28 L1911.02 1434.82 L1917.74 1433.47 L1921.54 1433.47 L1921.54 1458.35 L1927.74 1458.35 L1927.74 1461.55 L1911.57 1461.55 L1911.57 1458.35 Z" fill="#000000" fill-rule="nonzero" fill-opacity="1" /><path clip-path="url(#clip430)" d="M2259.95 1485.02 L2267.59 1485.02 L2267.59 1458.66 L2259.28 1460.32 L2259.28 1456.06 L2267.55 1454.4 L2272.22 1454.4 L2272.22 1485.02 L2279.86 1485.02 L2279.86 1488.96 L2259.95 1488.96 L2259.95 1485.02 Z" fill="#000000" fill-rule="nonzero" fill-opacity="1" /><path clip-path="url(#clip430)" d="M2299.3 1457.48 Q2295.69 1457.48 2293.86 1461.04 Q2292.06 1464.58 2292.06 1471.71 Q2292.06 1478.82 2293.86 1482.38 Q2295.69 1485.92 2299.3 1485.92 Q2302.94 1485.92 2304.74 1482.38 Q2306.57 1478.82 2306.57 1471.71 Q2306.57 1464.58 2304.74 1461.04 Q2302.94 1457.48 2299.3 1457.48 M2299.3 1453.77 Q2305.11 1453.77 2308.17 1458.38 Q2311.25 1462.96 2311.25 1471.71 Q2311.25 1480.44 2308.17 1485.04 Q2305.11 1489.63 2299.3 1489.63 Q2293.49 1489.63 2290.42 1485.04 Q2287.36 1480.44 2287.36 1471.71 Q2287.36 1462.96 2290.42 1458.38 Q2293.49 1453.77 2299.3 1453.77 Z" fill="#000000" fill-rule="nonzero" fill-opacity="1" /><path clip-path="url(#clip430)" d="M2315.82 1458.35 L2329.08 1458.35 L2329.08 1461.55 L2311.25 1461.55 L2311.25 1458.35 Q2313.41 1456.11 2317.14 1452.35 Q2320.88 1448.57 2321.84 1447.48 Q2323.66 1445.43 2324.38 1444.02 Q2325.11 1442.59 2325.11 1441.22 Q2325.11 1438.98 2323.53 1437.57 Q2321.97 1436.16 2319.45 1436.16 Q2317.66 1436.16 2315.67 1436.78 Q2313.69 1437.4 2311.44 1438.66 L2311.44 1434.82 Q2313.73 1433.9 2315.73 1433.43 Q2317.72 1432.96 2319.37 1432.96 Q2323.74 1432.96 2326.33 1435.14 Q2328.93 1437.32 2328.93 1440.97 Q2328.93 1442.7 2328.27 1444.26 Q2327.63 1445.8 2325.92 1447.91 Q2325.45 1448.46 2322.93 1451.07 Q2320.41 1453.67 2315.82 1458.35 Z" fill="#000000" fill-rule="nonzero" fill-opacity="1" /><path clip-path="url(#clip430)" d="M1341.32 1522.95 Q1341.32 1524.27 1340.22 1524.27 Q1338.29 1524.34 1336.97 1524.72 Q1335.65 1525.08 1334.88 1525.79 Q1334.14 1526.49 1333.72 1527.27 Q1333.33 1528.01 1333.07 1529.14 L1327.21 1552.55 Q1325.54 1559.15 1320.13 1563.95 Q1314.72 1568.72 1308.57 1568.72 Q1305.06 1568.72 1302.12 1567.27 Q1299.23 1565.82 1297.42 1562.89 Q1295.62 1559.96 1295.62 1556.06 Q1295.62 1554.19 1296.1 1552.23 L1300.1 1535.93 L1301.58 1530.13 Q1302.67 1525.85 1302.67 1525.46 Q1302.67 1524.85 1302.29 1524.69 Q1301.93 1524.5 1300.9 1524.4 L1298.39 1524.27 Q1297.62 1524.27 1297.29 1524.24 Q1297 1524.21 1296.78 1524.05 Q1296.55 1523.89 1296.55 1523.53 Q1296.55 1523.08 1296.65 1522.79 Q1296.78 1522.47 1297 1522.37 Q1297.23 1522.28 1297.39 1522.24 Q1297.55 1522.21 1297.81 1522.21 L1306.31 1522.4 L1314.75 1522.21 Q1315.68 1522.21 1315.68 1522.95 Q1315.68 1523.89 1315.26 1524.08 Q1314.85 1524.27 1313.43 1524.27 Q1311.01 1524.27 1309.92 1524.59 Q1308.86 1524.88 1308.53 1525.4 Q1308.24 1525.88 1307.89 1527.3 L1301.48 1552.97 Q1301.16 1554.26 1300.96 1555.54 Q1300.8 1556.8 1300.8 1557.44 L1300.77 1558.09 Q1300.77 1562.18 1303.03 1564.43 Q1305.31 1566.69 1308.82 1566.69 Q1313.98 1566.69 1318.77 1562.6 Q1323.61 1558.51 1325.25 1552.1 L1331.17 1528.56 Q1331.37 1527.98 1331.37 1527.17 Q1331.37 1525.88 1330.4 1525.11 Q1329.47 1524.3 1326.89 1524.27 Q1325.7 1524.27 1325.7 1523.53 Q1325.7 1522.92 1325.92 1522.63 Q1326.18 1522.31 1326.38 1522.28 Q1326.6 1522.21 1326.89 1522.21 Q1327.99 1522.21 1330.3 1522.31 Q1332.62 1522.4 1333.75 1522.4 Q1334.88 1522.4 1337.13 1522.31 Q1339.39 1522.21 1340.48 1522.21 Q1340.87 1522.21 1341.06 1522.4 Q1341.29 1522.57 1341.32 1522.76 L1341.32 1522.95 Z" fill="#000000" fill-rule="nonzero" fill-opacity="1" /><polyline clip-path="url(#clip430)" style="stroke:#000000; stroke-linecap:round; stroke-linejoin:round; stroke-width:4; stroke-opacity:1; fill:none" points="283.076,1410.9 283.076,47.2441 "/>
<polyline clip-path="url(#clip430)" style="stroke:#000000; stroke-linecap:round; stroke-linejoin:round; stroke-width:4; stroke-opacity:1; fill:none" points="283.076,1358.98 301.973,1358.98 "/>
<polyline clip-path="url(#clip430)" style="stroke:#000000; stroke-linecap:round; stroke-linejoin:round; stroke-width:4; stroke-opacity:1; fill:none" points="283.076,1202.6 301.973,1202.6 "/>
<polyline clip-path="url(#clip430)" style="stroke:#000000; stroke-linecap:round; stroke-linejoin:round; stroke-width:4; stroke-opacity:1; fill:none" points="283.076,1046.21 301.973,1046.21 "/>
<polyline clip-path="url(#clip430)" style="stroke:#000000; stroke-linecap:round; stroke-linejoin:round; stroke-width:4; stroke-opacity:1; fill:none" points="283.076,889.822 301.973,889.822 "/>
<polyline clip-path="url(#clip430)" style="stroke:#000000; stroke-linecap:round; stroke-linejoin:round; stroke-width:4; stroke-opacity:1; fill:none" points="283.076,733.435 301.973,733.435 "/>
<polyline clip-path="url(#clip430)" style="stroke:#000000; stroke-linecap:round; stroke-linejoin:round; stroke-width:4; stroke-opacity:1; fill:none" points="283.076,577.048 301.973,577.048 "/>
<polyline clip-path="url(#clip430)" style="stroke:#000000; stroke-linecap:round; stroke-linejoin:round; stroke-width:4; stroke-opacity:1; fill:none" points="283.076,420.661 301.973,420.661 "/>
<polyline clip-path="url(#clip430)" style="stroke:#000000; stroke-linecap:round; stroke-linejoin:round; stroke-width:4; stroke-opacity:1; fill:none" points="283.076,264.275 301.973,264.275 "/>
<polyline clip-path="url(#clip430)" style="stroke:#000000; stroke-linecap:round; stroke-linejoin:round; stroke-width:4; stroke-opacity:1; fill:none" points="283.076,107.888 301.973,107.888 "/>
<path clip-path="url(#clip430)" d="M146.447 1378.77 L154.086 1378.77 L154.086 1352.41 L145.776 1354.08 L145.776 1349.82 L154.039 1348.15 L158.715 1348.15 L158.715 1378.77 L166.354 1378.77 L166.354 1382.71 L146.447 1382.71 L146.447 1378.77 Z" fill="#000000" fill-rule="nonzero" fill-opacity="1" /><path clip-path="url(#clip430)" d="M185.798 1351.23 Q182.187 1351.23 180.359 1354.79 Q178.553 1358.33 178.553 1365.46 Q178.553 1372.57 180.359 1376.14 Q182.187 1379.68 185.798 1379.68 Q189.433 1379.68 191.238 1376.14 Q193.067 1372.57 193.067 1365.46 Q193.067 1358.33 191.238 1354.79 Q189.433 1351.23 185.798 1351.23 M185.798 1347.52 Q191.609 1347.52 194.664 1352.13 Q197.743 1356.71 197.743 1365.46 Q197.743 1374.19 194.664 1378.8 Q191.609 1383.38 185.798 1383.38 Q179.988 1383.38 176.91 1378.8 Q173.854 1374.19 173.854 1365.46 Q173.854 1356.71 176.91 1352.13 Q179.988 1347.52 185.798 1347.52 Z" fill="#000000" fill-rule="nonzero" fill-opacity="1" /><path clip-path="url(#clip430)" d="M197.743 1341.63 L221.854 1341.63 L221.854 1344.82 L197.743 1344.82 L197.743 1341.63 Z" fill="#000000" fill-rule="nonzero" fill-opacity="1" /><path clip-path="url(#clip430)" d="M230.092 1327.22 L245.007 1327.22 L245.007 1330.42 L233.572 1330.42 L233.572 1337.3 Q234.399 1337.02 235.227 1336.89 Q236.054 1336.74 236.882 1336.74 Q241.584 1336.74 244.33 1339.31 Q247.076 1341.89 247.076 1346.29 Q247.076 1350.82 244.254 1353.34 Q241.433 1355.84 236.299 1355.84 Q234.531 1355.84 232.688 1355.54 Q230.863 1355.24 228.907 1354.64 L228.907 1350.82 Q230.6 1351.74 232.406 1352.2 Q234.211 1352.65 236.224 1352.65 Q239.477 1352.65 241.377 1350.94 Q243.276 1349.22 243.276 1346.29 Q243.276 1343.36 241.377 1341.64 Q239.477 1339.93 236.224 1339.93 Q234.7 1339.93 233.177 1340.27 Q231.672 1340.61 230.092 1341.33 L230.092 1327.22 Z" fill="#000000" fill-rule="nonzero" fill-opacity="1" /><path clip-path="url(#clip430)" d="M145.243 1222.39 L152.882 1222.39 L152.882 1196.02 L144.572 1197.69 L144.572 1193.43 L152.836 1191.76 L157.512 1191.76 L157.512 1222.39 L165.15 1222.39 L165.15 1226.32 L145.243 1226.32 L145.243 1222.39 Z" fill="#000000" fill-rule="nonzero" fill-opacity="1" /><path clip-path="url(#clip430)" d="M184.595 1194.84 Q180.984 1194.84 179.155 1198.41 Q177.349 1201.95 177.349 1209.08 Q177.349 1216.18 179.155 1219.75 Q180.984 1223.29 184.595 1223.29 Q188.229 1223.29 190.035 1219.75 Q191.863 1216.18 191.863 1209.08 Q191.863 1201.95 190.035 1198.41 Q188.229 1194.84 184.595 1194.84 M184.595 1191.14 Q190.405 1191.14 193.46 1195.74 Q196.539 1200.33 196.539 1209.08 Q196.539 1217.8 193.46 1222.41 Q190.405 1226.99 184.595 1226.99 Q178.785 1226.99 175.706 1222.41 Q172.65 1217.8 172.65 1209.08 Q172.65 1200.33 175.706 1195.74 Q178.785 1191.14 184.595 1191.14 Z" fill="#000000" fill-rule="nonzero" fill-opacity="1" /><path clip-path="url(#clip430)" d="M196.539 1185.24 L220.651 1185.24 L220.651 1188.44 L196.539 1188.44 L196.539 1185.24 Z" fill="#000000" fill-rule="nonzero" fill-opacity="1" /><path clip-path="url(#clip430)" d="M239.289 1174.14 L229.697 1189.13 L239.289 1189.13 L239.289 1174.14 M238.292 1170.83 L243.07 1170.83 L243.07 1189.13 L247.076 1189.13 L247.076 1192.29 L243.07 1192.29 L243.07 1198.91 L239.289 1198.91 L239.289 1192.29 L226.613 1192.29 L226.613 1188.62 L238.292 1170.83 Z" fill="#000000" fill-rule="nonzero" fill-opacity="1" /><path clip-path="url(#clip430)" d="M146.165 1066 L153.804 1066 L153.804 1039.64 L145.493 1041.3 L145.493 1037.04 L153.757 1035.38 L158.433 1035.38 L158.433 1066 L166.072 1066 L166.072 1069.94 L146.165 1069.94 L146.165 1066 Z" fill="#000000" fill-rule="nonzero" fill-opacity="1" /><path clip-path="url(#clip430)" d="M185.516 1038.45 Q181.905 1038.45 180.077 1042.02 Q178.271 1045.56 178.271 1052.69 Q178.271 1059.8 180.077 1063.36 Q181.905 1066.9 185.516 1066.9 Q189.151 1066.9 190.956 1063.36 Q192.785 1059.8 192.785 1052.69 Q192.785 1045.56 190.956 1042.02 Q189.151 1038.45 185.516 1038.45 M185.516 1034.75 Q191.326 1034.75 194.382 1039.36 Q197.461 1043.94 197.461 1052.69 Q197.461 1061.42 194.382 1066.02 Q191.326 1070.61 185.516 1070.61 Q179.706 1070.61 176.627 1066.02 Q173.572 1061.42 173.572 1052.69 Q173.572 1043.94 176.627 1039.36 Q179.706 1034.75 185.516 1034.75 Z" fill="#000000" fill-rule="nonzero" fill-opacity="1" /><path clip-path="url(#clip430)" d="M197.461 1028.85 L221.572 1028.85 L221.572 1032.05 L197.461 1032.05 L197.461 1028.85 Z" fill="#000000" fill-rule="nonzero" fill-opacity="1" /><path clip-path="url(#clip430)" d="M241.283 1027.39 Q244.01 1027.97 245.533 1029.81 Q247.076 1031.65 247.076 1034.36 Q247.076 1038.52 244.217 1040.8 Q241.358 1043.07 236.092 1043.07 Q234.324 1043.07 232.443 1042.71 Q230.581 1042.38 228.588 1041.68 L228.588 1038.01 Q230.167 1038.93 232.048 1039.4 Q233.929 1039.87 235.979 1039.87 Q239.553 1039.87 241.414 1038.46 Q243.295 1037.05 243.295 1034.36 Q243.295 1031.88 241.546 1030.49 Q239.816 1029.08 236.713 1029.08 L233.44 1029.08 L233.44 1025.96 L236.863 1025.96 Q239.665 1025.96 241.151 1024.85 Q242.637 1023.72 242.637 1021.61 Q242.637 1019.45 241.095 1018.3 Q239.571 1017.14 236.713 1017.14 Q235.151 1017.14 233.365 1017.47 Q231.578 1017.81 229.434 1018.53 L229.434 1015.14 Q231.597 1014.54 233.478 1014.24 Q235.377 1013.94 237.051 1013.94 Q241.377 1013.94 243.897 1015.91 Q246.417 1017.87 246.417 1021.22 Q246.417 1023.55 245.082 1025.17 Q243.747 1026.76 241.283 1027.39 Z" fill="#000000" fill-rule="nonzero" fill-opacity="1" /><path clip-path="url(#clip430)" d="M146.936 909.614 L154.575 909.614 L154.575 883.249 L146.265 884.915 L146.265 880.656 L154.528 878.989 L159.204 878.989 L159.204 909.614 L166.843 909.614 L166.843 913.549 L146.936 913.549 L146.936 909.614 Z" fill="#000000" fill-rule="nonzero" fill-opacity="1" /><path clip-path="url(#clip430)" d="M186.287 882.068 Q182.676 882.068 180.848 885.633 Q179.042 889.175 179.042 896.304 Q179.042 903.411 180.848 906.975 Q182.676 910.517 186.287 910.517 Q189.922 910.517 191.727 906.975 Q193.556 903.411 193.556 896.304 Q193.556 889.175 191.727 885.633 Q189.922 882.068 186.287 882.068 M186.287 878.364 Q192.098 878.364 195.153 882.971 Q198.232 887.554 198.232 896.304 Q198.232 905.031 195.153 909.637 Q192.098 914.221 186.287 914.221 Q180.477 914.221 177.399 909.637 Q174.343 905.031 174.343 896.304 Q174.343 887.554 177.399 882.971 Q180.477 878.364 186.287 878.364 Z" fill="#000000" fill-rule="nonzero" fill-opacity="1" /><path clip-path="url(#clip430)" d="M198.232 872.466 L222.343 872.466 L222.343 875.663 L198.232 875.663 L198.232 872.466 Z" fill="#000000" fill-rule="nonzero" fill-opacity="1" /><path clip-path="url(#clip430)" d="M233.816 882.942 L247.076 882.942 L247.076 886.139 L229.246 886.139 L229.246 882.942 Q231.409 880.704 235.133 876.942 Q238.875 873.162 239.835 872.071 Q241.659 870.021 242.374 868.61 Q243.107 867.181 243.107 865.808 Q243.107 863.57 241.527 862.159 Q239.966 860.749 237.446 860.749 Q235.659 860.749 233.666 861.369 Q231.691 861.99 229.434 863.25 L229.434 859.413 Q231.728 858.492 233.722 858.021 Q235.716 857.551 237.371 857.551 Q241.734 857.551 244.33 859.733 Q246.925 861.915 246.925 865.563 Q246.925 867.294 246.267 868.855 Q245.627 870.397 243.916 872.503 Q243.446 873.049 240.925 875.663 Q238.405 878.259 233.816 882.942 Z" fill="#000000" fill-rule="nonzero" fill-opacity="1" /><path clip-path="url(#clip430)" d="M146.635 753.227 L154.274 753.227 L154.274 726.862 L145.964 728.529 L145.964 724.269 L154.227 722.603 L158.903 722.603 L158.903 753.227 L166.542 753.227 L166.542 757.163 L146.635 757.163 L146.635 753.227 Z" fill="#000000" fill-rule="nonzero" fill-opacity="1" /><path clip-path="url(#clip430)" d="M185.987 725.681 Q182.375 725.681 180.547 729.246 Q178.741 732.788 178.741 739.917 Q178.741 747.024 180.547 750.589 Q182.375 754.13 185.987 754.13 Q189.621 754.13 191.426 750.589 Q193.255 747.024 193.255 739.917 Q193.255 732.788 191.426 729.246 Q189.621 725.681 185.987 725.681 M185.987 721.978 Q191.797 721.978 194.852 726.584 Q197.931 731.167 197.931 739.917 Q197.931 748.644 194.852 753.251 Q191.797 757.834 185.987 757.834 Q180.176 757.834 177.098 753.251 Q174.042 748.644 174.042 739.917 Q174.042 731.167 177.098 726.584 Q180.176 721.978 185.987 721.978 Z" fill="#000000" fill-rule="nonzero" fill-opacity="1" /><path clip-path="url(#clip430)" d="M197.931 716.079 L222.042 716.079 L222.042 719.276 L197.931 719.276 L197.931 716.079 Z" fill="#000000" fill-rule="nonzero" fill-opacity="1" /><path clip-path="url(#clip430)" d="M230.901 726.555 L237.107 726.555 L237.107 705.133 L230.356 706.487 L230.356 703.026 L237.07 701.672 L240.869 701.672 L240.869 726.555 L247.076 726.555 L247.076 729.752 L230.901 729.752 L230.901 726.555 Z" fill="#000000" fill-rule="nonzero" fill-opacity="1" /><path clip-path="url(#clip430)" d="M176.37 596.841 L184.009 596.841 L184.009 570.475 L175.699 572.142 L175.699 567.883 L183.963 566.216 L188.638 566.216 L188.638 596.841 L196.277 596.841 L196.277 600.776 L176.37 600.776 L176.37 596.841 Z" fill="#000000" fill-rule="nonzero" fill-opacity="1" /><path clip-path="url(#clip430)" d="M215.722 569.295 Q212.111 569.295 210.282 572.859 Q208.476 576.401 208.476 583.531 Q208.476 590.637 210.282 594.202 Q212.111 597.743 215.722 597.743 Q219.356 597.743 221.161 594.202 Q222.99 590.637 222.99 583.531 Q222.99 576.401 221.161 572.859 Q219.356 569.295 215.722 569.295 M215.722 565.591 Q221.532 565.591 224.587 570.197 Q227.666 574.781 227.666 583.531 Q227.666 592.257 224.587 596.864 Q221.532 601.447 215.722 601.447 Q209.911 601.447 206.833 596.864 Q203.777 592.257 203.777 583.531 Q203.777 574.781 206.833 570.197 Q209.911 565.591 215.722 565.591 Z" fill="#000000" fill-rule="nonzero" fill-opacity="1" /><path clip-path="url(#clip430)" d="M237.371 547.787 Q234.437 547.787 232.951 550.683 Q231.484 553.561 231.484 559.354 Q231.484 565.128 232.951 568.024 Q234.437 570.902 237.371 570.902 Q240.324 570.902 241.791 568.024 Q243.276 565.128 243.276 559.354 Q243.276 553.561 241.791 550.683 Q240.324 547.787 237.371 547.787 M237.371 544.778 Q242.092 544.778 244.574 548.52 Q247.076 552.244 247.076 559.354 Q247.076 566.444 244.574 570.187 Q242.092 573.911 237.371 573.911 Q232.65 573.911 230.149 570.187 Q227.666 566.444 227.666 559.354 Q227.666 552.244 230.149 548.52 Q232.65 544.778 237.371 544.778 Z" fill="#000000" fill-rule="nonzero" fill-opacity="1" /><path clip-path="url(#clip430)" d="M179.059 440.454 L186.698 440.454 L186.698 414.088 L178.388 415.755 L178.388 411.496 L186.652 409.829 L191.328 409.829 L191.328 440.454 L198.967 440.454 L198.967 444.389 L179.059 444.389 L179.059 440.454 Z" fill="#000000" fill-rule="nonzero" fill-opacity="1" /><path clip-path="url(#clip430)" d="M218.411 412.908 Q214.8 412.908 212.971 416.473 Q211.166 420.014 211.166 427.144 Q211.166 434.25 212.971 437.815 Q214.8 441.357 218.411 441.357 Q222.045 441.357 223.851 437.815 Q225.68 434.25 225.68 427.144 Q225.68 420.014 223.851 416.473 Q222.045 412.908 218.411 412.908 M218.411 409.204 Q224.221 409.204 227.277 413.811 Q230.356 418.394 230.356 427.144 Q230.356 435.871 227.277 440.477 Q224.221 445.06 218.411 445.06 Q212.601 445.06 209.522 440.477 Q206.467 435.871 206.467 427.144 Q206.467 418.394 209.522 413.811 Q212.601 409.204 218.411 409.204 Z" fill="#000000" fill-rule="nonzero" fill-opacity="1" /><path clip-path="url(#clip430)" d="M230.901 413.781 L237.107 413.781 L237.107 392.359 L230.356 393.713 L230.356 390.253 L237.07 388.899 L240.869 388.899 L240.869 413.781 L247.076 413.781 L247.076 416.979 L230.901 416.979 L230.901 413.781 Z" fill="#000000" fill-rule="nonzero" fill-opacity="1" /><path clip-path="url(#clip430)" d="M177.95 284.067 L185.589 284.067 L185.589 257.702 L177.279 259.368 L177.279 255.109 L185.542 253.442 L190.218 253.442 L190.218 284.067 L197.857 284.067 L197.857 288.002 L177.95 288.002 L177.95 284.067 Z" fill="#000000" fill-rule="nonzero" fill-opacity="1" /><path clip-path="url(#clip430)" d="M217.301 256.521 Q213.69 256.521 211.862 260.086 Q210.056 263.627 210.056 270.757 Q210.056 277.863 211.862 281.428 Q213.69 284.97 217.301 284.97 Q220.936 284.97 222.741 281.428 Q224.57 277.863 224.57 270.757 Q224.57 263.627 222.741 260.086 Q220.936 256.521 217.301 256.521 M217.301 252.817 Q223.112 252.817 226.167 257.424 Q229.246 262.007 229.246 270.757 Q229.246 279.484 226.167 284.09 Q223.112 288.674 217.301 288.674 Q211.491 288.674 208.413 284.09 Q205.357 279.484 205.357 270.757 Q205.357 262.007 208.413 257.424 Q211.491 252.817 217.301 252.817 Z" fill="#000000" fill-rule="nonzero" fill-opacity="1" /><path clip-path="url(#clip430)" d="M233.816 257.395 L247.076 257.395 L247.076 260.592 L229.246 260.592 L229.246 257.395 Q231.409 255.156 235.133 251.395 Q238.875 247.615 239.835 246.524 Q241.659 244.474 242.374 243.063 Q243.107 241.634 243.107 240.261 Q243.107 238.023 241.527 236.612 Q239.966 235.201 237.446 235.201 Q235.659 235.201 233.666 235.822 Q231.691 236.443 229.434 237.703 L229.434 233.866 Q231.728 232.944 233.722 232.474 Q235.716 232.004 237.371 232.004 Q241.734 232.004 244.33 234.186 Q246.925 236.367 246.925 240.016 Q246.925 241.747 246.267 243.308 Q245.627 244.85 243.916 246.956 Q243.446 247.502 240.925 250.116 Q238.405 252.711 233.816 257.395 Z" fill="#000000" fill-rule="nonzero" fill-opacity="1" /><path clip-path="url(#clip430)" d="M177.292 127.68 L184.93 127.68 L184.93 101.315 L176.62 102.981 L176.62 98.7222 L184.884 97.0555 L189.56 97.0555 L189.56 127.68 L197.199 127.68 L197.199 131.616 L177.292 131.616 L177.292 127.68 Z" fill="#000000" fill-rule="nonzero" fill-opacity="1" /><path clip-path="url(#clip430)" d="M216.643 100.134 Q213.032 100.134 211.203 103.699 Q209.398 107.241 209.398 114.37 Q209.398 121.477 211.203 125.041 Q213.032 128.583 216.643 128.583 Q220.277 128.583 222.083 125.041 Q223.912 121.477 223.912 114.37 Q223.912 107.241 222.083 103.699 Q220.277 100.134 216.643 100.134 M216.643 96.4305 Q222.453 96.4305 225.509 101.037 Q228.588 105.62 228.588 114.37 Q228.588 123.097 225.509 127.704 Q222.453 132.287 216.643 132.287 Q210.833 132.287 207.754 127.704 Q204.699 123.097 204.699 114.37 Q204.699 105.62 207.754 101.037 Q210.833 96.4305 216.643 96.4305 Z" fill="#000000" fill-rule="nonzero" fill-opacity="1" /><path clip-path="url(#clip430)" d="M241.283 89.0649 Q244.01 89.6479 245.533 91.4911 Q247.076 93.3342 247.076 96.0425 Q247.076 100.199 244.217 102.475 Q241.358 104.751 236.092 104.751 Q234.324 104.751 232.443 104.393 Q230.581 104.055 228.588 103.359 L228.588 99.6913 Q230.167 100.613 232.048 101.083 Q233.929 101.553 235.979 101.553 Q239.553 101.553 241.414 100.143 Q243.295 98.7321 243.295 96.0425 Q243.295 93.5599 241.546 92.1681 Q239.816 90.7576 236.713 90.7576 L233.44 90.7576 L233.44 87.6355 L236.863 87.6355 Q239.665 87.6355 241.151 86.5258 Q242.637 85.3974 242.637 83.2909 Q242.637 81.128 241.095 79.9807 Q239.571 78.8146 236.713 78.8146 Q235.151 78.8146 233.365 79.1532 Q231.578 79.4917 229.434 80.2064 L229.434 76.821 Q231.597 76.2192 233.478 75.9182 Q235.377 75.6173 237.051 75.6173 Q241.377 75.6173 243.897 77.5921 Q246.417 79.5481 246.417 82.8959 Q246.417 85.2281 245.082 86.8455 Q243.747 88.4442 241.283 89.0649 Z" fill="#000000" fill-rule="nonzero" fill-opacity="1" /><path clip-path="url(#clip430)" d="M100.165 824.949 L38.2652 824.949 Q36.3006 824.949 36.3006 823.629 Q36.3006 822.308 38.3618 822.308 L100.004 822.308 Q102.129 822.308 102.129 823.629 Q102.129 824.949 100.165 824.949 M100.165 817.671 L38.7482 817.671 Q36.3006 817.671 36.3006 816.35 Q36.3006 815.03 38.3618 815.03 L100.004 815.03 Q102.129 815.03 102.129 816.35 Q102.129 817.671 100.165 817.671 Z" fill="#000000" fill-rule="nonzero" fill-opacity="1" /><path clip-path="url(#clip430)" d="M84.3839 747.036 Q84.9959 747.036 85.3179 747.294 Q85.6078 747.519 85.6722 747.745 Q85.7044 747.938 85.7044 748.228 Q85.7044 749.065 85.6078 751.964 Q85.5112 754.862 85.5112 755.699 Q85.5112 757.052 85.6078 759.822 Q85.7044 762.591 85.7044 763.944 Q85.7044 764.846 84.9637 764.846 Q84.4806 764.846 84.2229 764.749 Q83.9331 764.653 83.8364 764.395 Q83.7076 764.105 83.7076 763.944 Q83.6754 763.751 83.6754 763.268 Q83.6754 762.624 83.611 761.947 Q83.5144 761.271 83.3212 760.434 Q83.1279 759.596 82.6448 759.081 Q82.1617 758.534 81.4854 758.534 Q81.1956 758.534 78.8123 758.759 Q76.4291 758.984 73.6594 759.274 Q70.8575 759.564 70.471 759.596 L70.471 776.15 Q73.0797 777.664 74.8832 778.727 Q76.6867 779.789 77.2987 780.176 Q77.9106 780.562 78.297 780.788 Q78.6835 781.013 78.9089 781.142 Q80.6159 782.076 81.3566 782.076 Q83.4178 782.076 83.6754 778.984 Q83.6754 777.921 84.4484 777.921 Q85.0281 777.921 85.3501 778.179 Q85.64 778.437 85.6722 778.662 Q85.7044 778.855 85.7044 779.177 Q85.7044 780.24 85.6078 782.462 Q85.5112 784.685 85.5112 785.78 Q85.5112 786.714 85.6078 788.646 Q85.7044 790.578 85.7044 791.448 Q85.7044 791.834 85.4789 792.06 Q85.2535 792.285 84.9637 792.285 Q84.5128 792.285 84.2551 792.221 Q83.9975 792.124 83.8687 791.867 Q83.7398 791.609 83.7398 791.48 Q83.7076 791.351 83.6754 790.9 Q83.5144 788.453 82.355 786.553 Q81.1634 784.62 78.1038 782.785 L39.5856 759.854 Q39.1991 759.629 39.0059 759.467 Q38.8127 759.306 38.6516 758.984 Q38.4906 758.63 38.4906 758.115 Q38.4906 757.31 38.7482 757.149 Q38.9737 756.988 40.0687 756.891 L81.2922 752.865 Q82.1617 752.769 82.516 752.704 Q82.8381 752.608 83.1923 752.189 Q83.5144 751.738 83.611 750.933 Q83.6754 750.096 83.6754 748.55 Q83.6754 747.97 83.7076 747.745 Q83.7076 747.519 83.8687 747.294 Q84.0297 747.036 84.3839 747.036 M68.4098 759.79 L46.6709 761.883 L68.4098 774.894 L68.4098 759.79 Z" fill="#000000" fill-rule="nonzero" fill-opacity="1" /><path clip-path="url(#clip430)" d="M26.2565 740.433 Q18.4562 740.433 12.1664 737.525 Q9.52877 736.285 7.31945 734.549 Q5.11012 732.813 4.14073 731.663 Q3.17133 730.513 3.17133 730.198 Q3.17133 729.747 3.62221 729.724 Q3.84766 729.724 4.41126 730.333 Q11.9861 737.773 26.2565 737.75 Q40.572 737.75 47.8537 730.513 Q48.6428 729.724 48.8908 729.724 Q49.3417 729.724 49.3417 730.198 Q49.3417 730.513 48.4173 731.618 Q47.493 732.723 45.3739 734.436 Q43.2547 736.149 40.6622 737.389 Q34.3724 740.433 26.2565 740.433 Z" fill="#000000" fill-rule="nonzero" fill-opacity="1" /><path clip-path="url(#clip430)" d="M31.1937 701.376 Q31.374 701.376 32.0729 701.579 Q32.7717 701.781 33.8539 702.277 Q34.936 702.751 35.9279 703.405 Q36.8973 704.058 37.6187 705.14 Q38.3176 706.2 38.3176 707.417 Q38.3176 709.041 37.2355 710.123 Q36.1534 711.205 34.5302 711.205 Q33.6284 711.205 32.3885 710.731 Q24.3853 707.733 21.635 707.733 Q18.4111 707.733 18.4111 710.235 Q18.4111 711.475 18.8846 712.648 Q19.3355 713.797 19.9667 714.586 Q20.5979 715.376 21.4771 716.097 Q22.3338 716.796 22.92 717.157 Q23.4836 717.495 24.0472 717.765 L26.3467 718.351 Q26.9779 718.487 29.4352 719.14 L33.6059 720.155 Q36.717 720.876 37.01 721.034 Q37.6413 721.26 37.9794 721.756 Q38.3176 722.251 38.3176 722.747 Q38.3176 723.311 37.9794 723.694 Q37.6413 724.078 37.0551 724.078 Q36.9649 724.078 36.6268 724.01 Q36.2886 723.942 35.8152 723.83 Q35.3418 723.717 35.0712 723.672 L24.4079 720.989 Q22.4691 720.493 21.8604 720.38 Q21.2292 720.245 20.5303 720.245 Q18.4111 720.245 18.4111 721.688 Q18.4111 722.86 19.8089 723.627 Q21.2066 724.393 23.9119 725.047 Q24.6559 725.25 24.8137 725.385 Q24.9715 725.498 24.9715 725.836 Q24.9489 726.4 24.4981 726.4 Q24.3853 726.4 23.6414 726.219 Q22.8974 726.039 21.8378 725.701 Q20.7557 725.34 20.0343 725.002 Q19.4933 724.709 19.2453 724.551 Q18.9747 724.371 18.4562 723.942 Q17.9152 723.491 17.6672 722.905 Q17.3967 722.297 17.3967 721.553 Q17.3967 719.884 18.4788 718.667 Q19.5384 717.45 21.4095 717.292 Q17.3967 714.293 17.3967 710.1 Q17.3967 707.62 18.7042 706.2 Q20.0118 704.78 22.3338 704.78 Q22.8749 704.78 23.5737 704.893 Q24.2501 704.983 25.1067 705.208 Q25.9634 705.411 26.6172 705.591 Q27.271 705.772 28.3306 706.132 Q29.3676 706.493 29.8185 706.651 Q30.2693 706.809 31.3289 707.192 Q32.3659 707.553 32.4787 707.598 Q34.5753 708.432 35.7701 708.432 Q36.5591 708.432 36.9199 708.184 Q37.2806 707.913 37.2806 707.327 Q37.2806 705.749 35.725 704.577 Q34.1469 703.382 31.5769 702.616 Q31.0133 702.435 30.878 702.345 Q30.7428 702.232 30.7428 701.917 Q30.7428 701.376 31.1937 701.376 Z" fill="#000000" fill-rule="nonzero" fill-opacity="1" /><path clip-path="url(#clip430)" d="M48.8908 696.947 Q48.6653 696.947 48.1017 696.361 Q40.5269 688.921 26.2565 688.921 Q11.941 688.921 4.70433 696.068 Q3.8702 696.947 3.62221 696.947 Q3.17133 696.947 3.17133 696.496 Q3.17133 696.18 4.09564 695.076 Q5.01995 693.948 7.13909 692.258 Q9.25824 690.544 11.8508 689.282 Q18.1406 686.238 26.2565 686.238 Q34.0568 686.238 40.3466 689.147 Q42.9842 690.387 45.1935 692.122 Q47.4029 693.858 48.3723 695.008 Q49.3417 696.158 49.3417 696.496 Q49.3417 696.947 48.8908 696.947 Z" fill="#000000" fill-rule="nonzero" fill-opacity="1" /><path clip-path="url(#clip430)" d="M100.165 672.178 L38.2652 672.178 Q36.3006 672.178 36.3006 670.857 Q36.3006 669.537 38.3618 669.537 L100.004 669.537 Q102.129 669.537 102.129 670.857 Q102.129 672.178 100.165 672.178 M100.165 664.899 L38.7482 664.899 Q36.3006 664.899 36.3006 663.579 Q36.3006 662.258 38.3618 662.258 L100.004 662.258 Q102.129 662.258 102.129 663.579 Q102.129 664.899 100.165 664.899 Z" fill="#000000" fill-rule="nonzero" fill-opacity="1" /><path clip-path="url(#clip430)" d="M93.8925 655.325 L92.4497 655.325 Q92.4497 649.779 89.4964 646.916 Q89.4964 646.127 89.6768 645.992 Q89.8571 645.857 90.6913 645.857 L116.594 645.857 Q117.97 645.857 118.398 645.18 Q118.826 644.504 118.826 641.551 L118.826 640.085 L120.247 640.085 Q120.111 641.709 120.111 647.57 Q120.111 653.431 120.247 655.032 L118.826 655.032 L118.826 653.567 Q118.826 650.659 118.421 649.96 Q117.992 649.261 116.594 649.261 L92.6751 649.261 Q93.8925 651.673 93.8925 655.325 Z" fill="#000000" fill-rule="nonzero" fill-opacity="1" /><circle clip-path="url(#clip432)" cx="341.651" cy="1370.83" r="14.4" fill="#009af9" fill-rule="evenodd" fill-opacity="1" stroke="#000000" stroke-opacity="1" stroke-width="3.2"/>
<circle clip-path="url(#clip432)" cx="341.651" cy="1372.3" r="14.4" fill="#009af9" fill-rule="evenodd" fill-opacity="1" stroke="#000000" stroke-opacity="1" stroke-width="3.2"/>
<circle clip-path="url(#clip432)" cx="393.034" cy="1334.11" r="14.4" fill="#009af9" fill-rule="evenodd" fill-opacity="1" stroke="#000000" stroke-opacity="1" stroke-width="3.2"/>
<circle clip-path="url(#clip432)" cx="393.034" cy="1334.34" r="14.4" fill="#009af9" fill-rule="evenodd" fill-opacity="1" stroke="#000000" stroke-opacity="1" stroke-width="3.2"/>
<circle clip-path="url(#clip432)" cx="444.416" cy="1290.67" r="14.4" fill="#009af9" fill-rule="evenodd" fill-opacity="1" stroke="#000000" stroke-opacity="1" stroke-width="3.2"/>
<circle clip-path="url(#clip432)" cx="444.416" cy="1293.76" r="14.4" fill="#009af9" fill-rule="evenodd" fill-opacity="1" stroke="#000000" stroke-opacity="1" stroke-width="3.2"/>
<circle clip-path="url(#clip432)" cx="495.798" cy="1255.53" r="14.4" fill="#009af9" fill-rule="evenodd" fill-opacity="1" stroke="#000000" stroke-opacity="1" stroke-width="3.2"/>
<circle clip-path="url(#clip432)" cx="495.798" cy="1251.59" r="14.4" fill="#009af9" fill-rule="evenodd" fill-opacity="1" stroke="#000000" stroke-opacity="1" stroke-width="3.2"/>
<circle clip-path="url(#clip432)" cx="547.181" cy="1213.72" r="14.4" fill="#009af9" fill-rule="evenodd" fill-opacity="1" stroke="#000000" stroke-opacity="1" stroke-width="3.2"/>
<circle clip-path="url(#clip432)" cx="547.181" cy="1210.15" r="14.4" fill="#009af9" fill-rule="evenodd" fill-opacity="1" stroke="#000000" stroke-opacity="1" stroke-width="3.2"/>
<circle clip-path="url(#clip432)" cx="598.563" cy="1169.56" r="14.4" fill="#009af9" fill-rule="evenodd" fill-opacity="1" stroke="#000000" stroke-opacity="1" stroke-width="3.2"/>
<circle clip-path="url(#clip432)" cx="598.563" cy="1177.49" r="14.4" fill="#009af9" fill-rule="evenodd" fill-opacity="1" stroke="#000000" stroke-opacity="1" stroke-width="3.2"/>
<circle clip-path="url(#clip432)" cx="649.945" cy="1134.85" r="14.4" fill="#009af9" fill-rule="evenodd" fill-opacity="1" stroke="#000000" stroke-opacity="1" stroke-width="3.2"/>
<circle clip-path="url(#clip432)" cx="649.945" cy="1133.97" r="14.4" fill="#009af9" fill-rule="evenodd" fill-opacity="1" stroke="#000000" stroke-opacity="1" stroke-width="3.2"/>
<circle clip-path="url(#clip432)" cx="701.328" cy="1092.86" r="14.4" fill="#009af9" fill-rule="evenodd" fill-opacity="1" stroke="#000000" stroke-opacity="1" stroke-width="3.2"/>
<circle clip-path="url(#clip432)" cx="701.328" cy="1098.41" r="14.4" fill="#009af9" fill-rule="evenodd" fill-opacity="1" stroke="#000000" stroke-opacity="1" stroke-width="3.2"/>
<circle clip-path="url(#clip432)" cx="752.71" cy="1048.4" r="14.4" fill="#009af9" fill-rule="evenodd" fill-opacity="1" stroke="#000000" stroke-opacity="1" stroke-width="3.2"/>
<circle clip-path="url(#clip432)" cx="752.71" cy="1060.72" r="14.4" fill="#009af9" fill-rule="evenodd" fill-opacity="1" stroke="#000000" stroke-opacity="1" stroke-width="3.2"/>
<circle clip-path="url(#clip432)" cx="804.092" cy="1004.96" r="14.4" fill="#009af9" fill-rule="evenodd" fill-opacity="1" stroke="#000000" stroke-opacity="1" stroke-width="3.2"/>
<circle clip-path="url(#clip432)" cx="804.092" cy="1008.52" r="14.4" fill="#009af9" fill-rule="evenodd" fill-opacity="1" stroke="#000000" stroke-opacity="1" stroke-width="3.2"/>
<circle clip-path="url(#clip432)" cx="855.475" cy="973.324" r="14.4" fill="#009af9" fill-rule="evenodd" fill-opacity="1" stroke="#000000" stroke-opacity="1" stroke-width="3.2"/>
<circle clip-path="url(#clip432)" cx="855.475" cy="979.199" r="14.4" fill="#009af9" fill-rule="evenodd" fill-opacity="1" stroke="#000000" stroke-opacity="1" stroke-width="3.2"/>
<circle clip-path="url(#clip432)" cx="906.857" cy="929.802" r="14.4" fill="#009af9" fill-rule="evenodd" fill-opacity="1" stroke="#000000" stroke-opacity="1" stroke-width="3.2"/>
<circle clip-path="url(#clip432)" cx="906.857" cy="930.264" r="14.4" fill="#009af9" fill-rule="evenodd" fill-opacity="1" stroke="#000000" stroke-opacity="1" stroke-width="3.2"/>
<circle clip-path="url(#clip432)" cx="958.239" cy="890.504" r="14.4" fill="#009af9" fill-rule="evenodd" fill-opacity="1" stroke="#000000" stroke-opacity="1" stroke-width="3.2"/>
<circle clip-path="url(#clip432)" cx="958.239" cy="897.509" r="14.4" fill="#009af9" fill-rule="evenodd" fill-opacity="1" stroke="#000000" stroke-opacity="1" stroke-width="3.2"/>
<circle clip-path="url(#clip432)" cx="1009.62" cy="858.458" r="14.4" fill="#009af9" fill-rule="evenodd" fill-opacity="1" stroke="#000000" stroke-opacity="1" stroke-width="3.2"/>
<circle clip-path="url(#clip432)" cx="1009.62" cy="848.248" r="14.4" fill="#009af9" fill-rule="evenodd" fill-opacity="1" stroke="#000000" stroke-opacity="1" stroke-width="3.2"/>
<circle clip-path="url(#clip432)" cx="1061" cy="849.89" r="14.4" fill="#009af9" fill-rule="evenodd" fill-opacity="1" stroke="#000000" stroke-opacity="1" stroke-width="3.2"/>
<circle clip-path="url(#clip432)" cx="1061" cy="850.932" r="14.4" fill="#009af9" fill-rule="evenodd" fill-opacity="1" stroke="#000000" stroke-opacity="1" stroke-width="3.2"/>
<circle clip-path="url(#clip432)" cx="1112.39" cy="816.972" r="14.4" fill="#009af9" fill-rule="evenodd" fill-opacity="1" stroke="#000000" stroke-opacity="1" stroke-width="3.2"/>
<circle clip-path="url(#clip432)" cx="1112.39" cy="839.779" r="14.4" fill="#009af9" fill-rule="evenodd" fill-opacity="1" stroke="#000000" stroke-opacity="1" stroke-width="3.2"/>
<circle clip-path="url(#clip432)" cx="1163.77" cy="789.459" r="14.4" fill="#009af9" fill-rule="evenodd" fill-opacity="1" stroke="#000000" stroke-opacity="1" stroke-width="3.2"/>
<circle clip-path="url(#clip432)" cx="1163.77" cy="809.767" r="14.4" fill="#009af9" fill-rule="evenodd" fill-opacity="1" stroke="#000000" stroke-opacity="1" stroke-width="3.2"/>
<circle clip-path="url(#clip432)" cx="1215.15" cy="781.044" r="14.4" fill="#009af9" fill-rule="evenodd" fill-opacity="1" stroke="#000000" stroke-opacity="1" stroke-width="3.2"/>
<circle clip-path="url(#clip432)" cx="1215.15" cy="776.607" r="14.4" fill="#009af9" fill-rule="evenodd" fill-opacity="1" stroke="#000000" stroke-opacity="1" stroke-width="3.2"/>
<circle clip-path="url(#clip432)" cx="1266.53" cy="724.609" r="14.4" fill="#009af9" fill-rule="evenodd" fill-opacity="1" stroke="#000000" stroke-opacity="1" stroke-width="3.2"/>
<circle clip-path="url(#clip432)" cx="1266.53" cy="758.225" r="14.4" fill="#009af9" fill-rule="evenodd" fill-opacity="1" stroke="#000000" stroke-opacity="1" stroke-width="3.2"/>
<circle clip-path="url(#clip432)" cx="1317.92" cy="735.691" r="14.4" fill="#009af9" fill-rule="evenodd" fill-opacity="1" stroke="#000000" stroke-opacity="1" stroke-width="3.2"/>
<circle clip-path="url(#clip432)" cx="1317.92" cy="752.066" r="14.4" fill="#009af9" fill-rule="evenodd" fill-opacity="1" stroke="#000000" stroke-opacity="1" stroke-width="3.2"/>
<circle clip-path="url(#clip432)" cx="1369.3" cy="672.456" r="14.4" fill="#009af9" fill-rule="evenodd" fill-opacity="1" stroke="#000000" stroke-opacity="1" stroke-width="3.2"/>
<circle clip-path="url(#clip432)" cx="1369.3" cy="677.998" r="14.4" fill="#009af9" fill-rule="evenodd" fill-opacity="1" stroke="#000000" stroke-opacity="1" stroke-width="3.2"/>
<circle clip-path="url(#clip432)" cx="1420.68" cy="641.509" r="14.4" fill="#009af9" fill-rule="evenodd" fill-opacity="1" stroke="#000000" stroke-opacity="1" stroke-width="3.2"/>
<circle clip-path="url(#clip432)" cx="1420.68" cy="655.154" r="14.4" fill="#009af9" fill-rule="evenodd" fill-opacity="1" stroke="#000000" stroke-opacity="1" stroke-width="3.2"/>
<circle clip-path="url(#clip432)" cx="1472.06" cy="604.928" r="14.4" fill="#009af9" fill-rule="evenodd" fill-opacity="1" stroke="#000000" stroke-opacity="1" stroke-width="3.2"/>
<circle clip-path="url(#clip432)" cx="1472.06" cy="606.015" r="14.4" fill="#009af9" fill-rule="evenodd" fill-opacity="1" stroke="#000000" stroke-opacity="1" stroke-width="3.2"/>
<circle clip-path="url(#clip432)" cx="1523.45" cy="584.636" r="14.4" fill="#009af9" fill-rule="evenodd" fill-opacity="1" stroke="#000000" stroke-opacity="1" stroke-width="3.2"/>
<circle clip-path="url(#clip432)" cx="1523.45" cy="572.466" r="14.4" fill="#009af9" fill-rule="evenodd" fill-opacity="1" stroke="#000000" stroke-opacity="1" stroke-width="3.2"/>
<circle clip-path="url(#clip432)" cx="1574.83" cy="507.92" r="14.4" fill="#009af9" fill-rule="evenodd" fill-opacity="1" stroke="#000000" stroke-opacity="1" stroke-width="3.2"/>
<circle clip-path="url(#clip432)" cx="1574.83" cy="549.342" r="14.4" fill="#009af9" fill-rule="evenodd" fill-opacity="1" stroke="#000000" stroke-opacity="1" stroke-width="3.2"/>
<circle clip-path="url(#clip432)" cx="1621.76" cy="530.793" r="14.4" fill="#009af9" fill-rule="evenodd" fill-opacity="1" stroke="#000000" stroke-opacity="1" stroke-width="3.2"/>
<circle clip-path="url(#clip432)" cx="1621.76" cy="509.787" r="14.4" fill="#009af9" fill-rule="evenodd" fill-opacity="1" stroke="#000000" stroke-opacity="1" stroke-width="3.2"/>
<circle clip-path="url(#clip432)" cx="1626.21" cy="474.65" r="14.4" fill="#009af9" fill-rule="evenodd" fill-opacity="1" stroke="#000000" stroke-opacity="1" stroke-width="3.2"/>
<circle clip-path="url(#clip432)" cx="1626.21" cy="496.262" r="14.4" fill="#009af9" fill-rule="evenodd" fill-opacity="1" stroke="#000000" stroke-opacity="1" stroke-width="3.2"/>
<circle clip-path="url(#clip432)" cx="1649.52" cy="450.907" r="14.4" fill="#009af9" fill-rule="evenodd" fill-opacity="1" stroke="#000000" stroke-opacity="1" stroke-width="3.2"/>
<circle clip-path="url(#clip432)" cx="1649.52" cy="452.136" r="14.4" fill="#009af9" fill-rule="evenodd" fill-opacity="1" stroke="#000000" stroke-opacity="1" stroke-width="3.2"/>
<circle clip-path="url(#clip432)" cx="1673.46" cy="437.386" r="14.4" fill="#009af9" fill-rule="evenodd" fill-opacity="1" stroke="#000000" stroke-opacity="1" stroke-width="3.2"/>
<circle clip-path="url(#clip432)" cx="1673.46" cy="429.888" r="14.4" fill="#009af9" fill-rule="evenodd" fill-opacity="1" stroke="#000000" stroke-opacity="1" stroke-width="3.2"/>
<circle clip-path="url(#clip432)" cx="1677.59" cy="443.479" r="14.4" fill="#009af9" fill-rule="evenodd" fill-opacity="1" stroke="#000000" stroke-opacity="1" stroke-width="3.2"/>
<circle clip-path="url(#clip432)" cx="1677.59" cy="479.216" r="14.4" fill="#009af9" fill-rule="evenodd" fill-opacity="1" stroke="#000000" stroke-opacity="1" stroke-width="3.2"/>
<circle clip-path="url(#clip432)" cx="1694.5" cy="460.726" r="14.4" fill="#009af9" fill-rule="evenodd" fill-opacity="1" stroke="#000000" stroke-opacity="1" stroke-width="3.2"/>
<circle clip-path="url(#clip432)" cx="1694.5" cy="418.38" r="14.4" fill="#009af9" fill-rule="evenodd" fill-opacity="1" stroke="#000000" stroke-opacity="1" stroke-width="3.2"/>
<circle clip-path="url(#clip432)" cx="1713.27" cy="430.288" r="14.4" fill="#009af9" fill-rule="evenodd" fill-opacity="1" stroke="#000000" stroke-opacity="1" stroke-width="3.2"/>
<circle clip-path="url(#clip432)" cx="1713.27" cy="420.719" r="14.4" fill="#009af9" fill-rule="evenodd" fill-opacity="1" stroke="#000000" stroke-opacity="1" stroke-width="3.2"/>
<circle clip-path="url(#clip432)" cx="1728.97" cy="405.673" r="14.4" fill="#009af9" fill-rule="evenodd" fill-opacity="1" stroke="#000000" stroke-opacity="1" stroke-width="3.2"/>
<circle clip-path="url(#clip432)" cx="1728.97" cy="434.986" r="14.4" fill="#009af9" fill-rule="evenodd" fill-opacity="1" stroke="#000000" stroke-opacity="1" stroke-width="3.2"/>
<circle clip-path="url(#clip432)" cx="1730.21" cy="425.943" r="14.4" fill="#009af9" fill-rule="evenodd" fill-opacity="1" stroke="#000000" stroke-opacity="1" stroke-width="3.2"/>
<circle clip-path="url(#clip432)" cx="1730.21" cy="398.853" r="14.4" fill="#009af9" fill-rule="evenodd" fill-opacity="1" stroke="#000000" stroke-opacity="1" stroke-width="3.2"/>
<circle clip-path="url(#clip432)" cx="1745.64" cy="404.609" r="14.4" fill="#009af9" fill-rule="evenodd" fill-opacity="1" stroke="#000000" stroke-opacity="1" stroke-width="3.2"/>
<circle clip-path="url(#clip432)" cx="1745.64" cy="380.101" r="14.4" fill="#009af9" fill-rule="evenodd" fill-opacity="1" stroke="#000000" stroke-opacity="1" stroke-width="3.2"/>
<circle clip-path="url(#clip432)" cx="1759.82" cy="401.061" r="14.4" fill="#009af9" fill-rule="evenodd" fill-opacity="1" stroke="#000000" stroke-opacity="1" stroke-width="3.2"/>
<circle clip-path="url(#clip432)" cx="1759.82" cy="405.208" r="14.4" fill="#009af9" fill-rule="evenodd" fill-opacity="1" stroke="#000000" stroke-opacity="1" stroke-width="3.2"/>
<circle clip-path="url(#clip432)" cx="1772.93" cy="375.135" r="14.4" fill="#009af9" fill-rule="evenodd" fill-opacity="1" stroke="#000000" stroke-opacity="1" stroke-width="3.2"/>
<circle clip-path="url(#clip432)" cx="1772.93" cy="399.792" r="14.4" fill="#009af9" fill-rule="evenodd" fill-opacity="1" stroke="#000000" stroke-opacity="1" stroke-width="3.2"/>
<circle clip-path="url(#clip432)" cx="1780.36" cy="90.7791" r="14.4" fill="#009af9" fill-rule="evenodd" fill-opacity="1" stroke="#000000" stroke-opacity="1" stroke-width="3.2"/>
<circle clip-path="url(#clip432)" cx="1780.36" cy="90.2248" r="14.4" fill="#009af9" fill-rule="evenodd" fill-opacity="1" stroke="#000000" stroke-opacity="1" stroke-width="3.2"/>
<circle clip-path="url(#clip432)" cx="1785.13" cy="90.7588" r="14.4" fill="#009af9" fill-rule="evenodd" fill-opacity="1" stroke="#000000" stroke-opacity="1" stroke-width="3.2"/>
<circle clip-path="url(#clip432)" cx="1785.13" cy="90.9811" r="14.4" fill="#009af9" fill-rule="evenodd" fill-opacity="1" stroke="#000000" stroke-opacity="1" stroke-width="3.2"/>
<circle clip-path="url(#clip432)" cx="1796.52" cy="90.736" r="14.4" fill="#009af9" fill-rule="evenodd" fill-opacity="1" stroke="#000000" stroke-opacity="1" stroke-width="3.2"/>
<circle clip-path="url(#clip432)" cx="1796.52" cy="90.5617" r="14.4" fill="#009af9" fill-rule="evenodd" fill-opacity="1" stroke="#000000" stroke-opacity="1" stroke-width="3.2"/>
<circle clip-path="url(#clip432)" cx="1807.21" cy="90.8715" r="14.4" fill="#009af9" fill-rule="evenodd" fill-opacity="1" stroke="#000000" stroke-opacity="1" stroke-width="3.2"/>
<circle clip-path="url(#clip432)" cx="1807.21" cy="90.1538" r="14.4" fill="#009af9" fill-rule="evenodd" fill-opacity="1" stroke="#000000" stroke-opacity="1" stroke-width="3.2"/>
<circle clip-path="url(#clip432)" cx="1817.29" cy="90.4959" r="14.4" fill="#009af9" fill-rule="evenodd" fill-opacity="1" stroke="#000000" stroke-opacity="1" stroke-width="3.2"/>
<circle clip-path="url(#clip432)" cx="1817.29" cy="89.8595" r="14.4" fill="#009af9" fill-rule="evenodd" fill-opacity="1" stroke="#000000" stroke-opacity="1" stroke-width="3.2"/>
<circle clip-path="url(#clip432)" cx="1826.81" cy="90.1654" r="14.4" fill="#009af9" fill-rule="evenodd" fill-opacity="1" stroke="#000000" stroke-opacity="1" stroke-width="3.2"/>
<circle clip-path="url(#clip432)" cx="1826.81" cy="90.2947" r="14.4" fill="#009af9" fill-rule="evenodd" fill-opacity="1" stroke="#000000" stroke-opacity="1" stroke-width="3.2"/>
<circle clip-path="url(#clip432)" cx="1831.74" cy="90.0018" r="14.4" fill="#009af9" fill-rule="evenodd" fill-opacity="1" stroke="#000000" stroke-opacity="1" stroke-width="3.2"/>
<circle clip-path="url(#clip432)" cx="1831.74" cy="90.0515" r="14.4" fill="#009af9" fill-rule="evenodd" fill-opacity="1" stroke="#000000" stroke-opacity="1" stroke-width="3.2"/>
<circle clip-path="url(#clip432)" cx="1835.84" cy="90.3748" r="14.4" fill="#009af9" fill-rule="evenodd" fill-opacity="1" stroke="#000000" stroke-opacity="1" stroke-width="3.2"/>
<circle clip-path="url(#clip432)" cx="1835.84" cy="90.5166" r="14.4" fill="#009af9" fill-rule="evenodd" fill-opacity="1" stroke="#000000" stroke-opacity="1" stroke-width="3.2"/>
<circle clip-path="url(#clip432)" cx="1844.42" cy="90.2674" r="14.4" fill="#009af9" fill-rule="evenodd" fill-opacity="1" stroke="#000000" stroke-opacity="1" stroke-width="3.2"/>
<circle clip-path="url(#clip432)" cx="1844.42" cy="89.7936" r="14.4" fill="#009af9" fill-rule="evenodd" fill-opacity="1" stroke="#000000" stroke-opacity="1" stroke-width="3.2"/>
<circle clip-path="url(#clip432)" cx="1852.6" cy="90.2446" r="14.4" fill="#009af9" fill-rule="evenodd" fill-opacity="1" stroke="#000000" stroke-opacity="1" stroke-width="3.2"/>
<circle clip-path="url(#clip432)" cx="1852.6" cy="90.3248" r="14.4" fill="#009af9" fill-rule="evenodd" fill-opacity="1" stroke="#000000" stroke-opacity="1" stroke-width="3.2"/>
<circle clip-path="url(#clip432)" cx="1860.41" cy="90.1872" r="14.4" fill="#009af9" fill-rule="evenodd" fill-opacity="1" stroke="#000000" stroke-opacity="1" stroke-width="3.2"/>
<circle clip-path="url(#clip432)" cx="1860.41" cy="90.3978" r="14.4" fill="#009af9" fill-rule="evenodd" fill-opacity="1" stroke="#000000" stroke-opacity="1" stroke-width="3.2"/>
<circle clip-path="url(#clip432)" cx="1867.89" cy="90.0266" r="14.4" fill="#009af9" fill-rule="evenodd" fill-opacity="1" stroke="#000000" stroke-opacity="1" stroke-width="3.2"/>
<circle clip-path="url(#clip432)" cx="1867.89" cy="88.8841" r="14.4" fill="#009af9" fill-rule="evenodd" fill-opacity="1" stroke="#000000" stroke-opacity="1" stroke-width="3.2"/>
<circle clip-path="url(#clip432)" cx="1875.06" cy="89.7789" r="14.4" fill="#009af9" fill-rule="evenodd" fill-opacity="1" stroke="#000000" stroke-opacity="1" stroke-width="3.2"/>
<circle clip-path="url(#clip432)" cx="1875.06" cy="89.5454" r="14.4" fill="#009af9" fill-rule="evenodd" fill-opacity="1" stroke="#000000" stroke-opacity="1" stroke-width="3.2"/>
<circle clip-path="url(#clip432)" cx="1883.12" cy="90.1518" r="14.4" fill="#009af9" fill-rule="evenodd" fill-opacity="1" stroke="#000000" stroke-opacity="1" stroke-width="3.2"/>
<circle clip-path="url(#clip432)" cx="1883.12" cy="89.9904" r="14.4" fill="#009af9" fill-rule="evenodd" fill-opacity="1" stroke="#000000" stroke-opacity="1" stroke-width="3.2"/>
<circle clip-path="url(#clip432)" cx="1934.5" cy="89.0332" r="14.4" fill="#009af9" fill-rule="evenodd" fill-opacity="1" stroke="#000000" stroke-opacity="1" stroke-width="3.2"/>
<circle clip-path="url(#clip432)" cx="1934.5" cy="87.417" r="14.4" fill="#009af9" fill-rule="evenodd" fill-opacity="1" stroke="#000000" stroke-opacity="1" stroke-width="3.2"/>
<circle clip-path="url(#clip432)" cx="1985.89" cy="89.284" r="14.4" fill="#009af9" fill-rule="evenodd" fill-opacity="1" stroke="#000000" stroke-opacity="1" stroke-width="3.2"/>
<circle clip-path="url(#clip432)" cx="1985.89" cy="89.5" r="14.4" fill="#009af9" fill-rule="evenodd" fill-opacity="1" stroke="#000000" stroke-opacity="1" stroke-width="3.2"/>
<circle clip-path="url(#clip432)" cx="2037.27" cy="88.707" r="14.4" fill="#009af9" fill-rule="evenodd" fill-opacity="1" stroke="#000000" stroke-opacity="1" stroke-width="3.2"/>
<circle clip-path="url(#clip432)" cx="2037.27" cy="88.8801" r="14.4" fill="#009af9" fill-rule="evenodd" fill-opacity="1" stroke="#000000" stroke-opacity="1" stroke-width="3.2"/>
<circle clip-path="url(#clip432)" cx="2088.65" cy="87.8779" r="14.4" fill="#009af9" fill-rule="evenodd" fill-opacity="1" stroke="#000000" stroke-opacity="1" stroke-width="3.2"/>
<circle clip-path="url(#clip432)" cx="2088.65" cy="89" r="14.4" fill="#009af9" fill-rule="evenodd" fill-opacity="1" stroke="#000000" stroke-opacity="1" stroke-width="3.2"/>
<circle clip-path="url(#clip432)" cx="2140.03" cy="87.2124" r="14.4" fill="#009af9" fill-rule="evenodd" fill-opacity="1" stroke="#000000" stroke-opacity="1" stroke-width="3.2"/>
<circle clip-path="url(#clip432)" cx="2140.03" cy="88.0644" r="14.4" fill="#009af9" fill-rule="evenodd" fill-opacity="1" stroke="#000000" stroke-opacity="1" stroke-width="3.2"/>
<circle clip-path="url(#clip432)" cx="2191.42" cy="86.8087" r="14.4" fill="#009af9" fill-rule="evenodd" fill-opacity="1" stroke="#000000" stroke-opacity="1" stroke-width="3.2"/>
<circle clip-path="url(#clip432)" cx="2191.42" cy="87.8885" r="14.4" fill="#009af9" fill-rule="evenodd" fill-opacity="1" stroke="#000000" stroke-opacity="1" stroke-width="3.2"/>
<circle clip-path="url(#clip432)" cx="2242.8" cy="85.838" r="14.4" fill="#009af9" fill-rule="evenodd" fill-opacity="1" stroke="#000000" stroke-opacity="1" stroke-width="3.2"/>
<circle clip-path="url(#clip432)" cx="2242.8" cy="88.9802" r="14.4" fill="#009af9" fill-rule="evenodd" fill-opacity="1" stroke="#000000" stroke-opacity="1" stroke-width="3.2"/>
<circle clip-path="url(#clip432)" cx="2294.18" cy="88.0021" r="14.4" fill="#009af9" fill-rule="evenodd" fill-opacity="1" stroke="#000000" stroke-opacity="1" stroke-width="3.2"/>
<circle clip-path="url(#clip432)" cx="2294.18" cy="88.8838" r="14.4" fill="#009af9" fill-rule="evenodd" fill-opacity="1" stroke="#000000" stroke-opacity="1" stroke-width="3.2"/>
<circle clip-path="url(#clip432)" cx="341.651" cy="1264.61" r="14.4" fill="#e26f46" fill-rule="evenodd" fill-opacity="1" stroke="#000000" stroke-opacity="1" stroke-width="3.2"/>
<circle clip-path="url(#clip432)" cx="341.651" cy="1264.26" r="14.4" fill="#e26f46" fill-rule="evenodd" fill-opacity="1" stroke="#000000" stroke-opacity="1" stroke-width="3.2"/>
<circle clip-path="url(#clip432)" cx="393.034" cy="751.159" r="14.4" fill="#e26f46" fill-rule="evenodd" fill-opacity="1" stroke="#000000" stroke-opacity="1" stroke-width="3.2"/>
<circle clip-path="url(#clip432)" cx="393.034" cy="751.158" r="14.4" fill="#e26f46" fill-rule="evenodd" fill-opacity="1" stroke="#000000" stroke-opacity="1" stroke-width="3.2"/>
<circle clip-path="url(#clip432)" cx="444.416" cy="731.001" r="14.4" fill="#e26f46" fill-rule="evenodd" fill-opacity="1" stroke="#000000" stroke-opacity="1" stroke-width="3.2"/>
<circle clip-path="url(#clip432)" cx="444.416" cy="731.002" r="14.4" fill="#e26f46" fill-rule="evenodd" fill-opacity="1" stroke="#000000" stroke-opacity="1" stroke-width="3.2"/>
<circle clip-path="url(#clip432)" cx="495.798" cy="710.866" r="14.4" fill="#e26f46" fill-rule="evenodd" fill-opacity="1" stroke="#000000" stroke-opacity="1" stroke-width="3.2"/>
<circle clip-path="url(#clip432)" cx="495.798" cy="710.869" r="14.4" fill="#e26f46" fill-rule="evenodd" fill-opacity="1" stroke="#000000" stroke-opacity="1" stroke-width="3.2"/>
<circle clip-path="url(#clip432)" cx="547.181" cy="675.143" r="14.4" fill="#e26f46" fill-rule="evenodd" fill-opacity="1" stroke="#000000" stroke-opacity="1" stroke-width="3.2"/>
<circle clip-path="url(#clip432)" cx="547.181" cy="675.145" r="14.4" fill="#e26f46" fill-rule="evenodd" fill-opacity="1" stroke="#000000" stroke-opacity="1" stroke-width="3.2"/>
<circle clip-path="url(#clip432)" cx="598.563" cy="655.041" r="14.4" fill="#e26f46" fill-rule="evenodd" fill-opacity="1" stroke="#000000" stroke-opacity="1" stroke-width="3.2"/>
<circle clip-path="url(#clip432)" cx="598.563" cy="655.041" r="14.4" fill="#e26f46" fill-rule="evenodd" fill-opacity="1" stroke="#000000" stroke-opacity="1" stroke-width="3.2"/>
<circle clip-path="url(#clip432)" cx="649.945" cy="634.942" r="14.4" fill="#e26f46" fill-rule="evenodd" fill-opacity="1" stroke="#000000" stroke-opacity="1" stroke-width="3.2"/>
<circle clip-path="url(#clip432)" cx="649.945" cy="634.944" r="14.4" fill="#e26f46" fill-rule="evenodd" fill-opacity="1" stroke="#000000" stroke-opacity="1" stroke-width="3.2"/>
<circle clip-path="url(#clip432)" cx="701.328" cy="614.842" r="14.4" fill="#e26f46" fill-rule="evenodd" fill-opacity="1" stroke="#000000" stroke-opacity="1" stroke-width="3.2"/>
<circle clip-path="url(#clip432)" cx="701.328" cy="614.851" r="14.4" fill="#e26f46" fill-rule="evenodd" fill-opacity="1" stroke="#000000" stroke-opacity="1" stroke-width="3.2"/>
<circle clip-path="url(#clip432)" cx="752.71" cy="594.747" r="14.4" fill="#e26f46" fill-rule="evenodd" fill-opacity="1" stroke="#000000" stroke-opacity="1" stroke-width="3.2"/>
<circle clip-path="url(#clip432)" cx="752.71" cy="594.746" r="14.4" fill="#e26f46" fill-rule="evenodd" fill-opacity="1" stroke="#000000" stroke-opacity="1" stroke-width="3.2"/>
<circle clip-path="url(#clip432)" cx="804.092" cy="572.187" r="14.4" fill="#e26f46" fill-rule="evenodd" fill-opacity="1" stroke="#000000" stroke-opacity="1" stroke-width="3.2"/>
<circle clip-path="url(#clip432)" cx="804.092" cy="572.198" r="14.4" fill="#e26f46" fill-rule="evenodd" fill-opacity="1" stroke="#000000" stroke-opacity="1" stroke-width="3.2"/>
<circle clip-path="url(#clip432)" cx="855.475" cy="552.08" r="14.4" fill="#e26f46" fill-rule="evenodd" fill-opacity="1" stroke="#000000" stroke-opacity="1" stroke-width="3.2"/>
<circle clip-path="url(#clip432)" cx="855.475" cy="552.077" r="14.4" fill="#e26f46" fill-rule="evenodd" fill-opacity="1" stroke="#000000" stroke-opacity="1" stroke-width="3.2"/>
<circle clip-path="url(#clip432)" cx="906.857" cy="531.948" r="14.4" fill="#e26f46" fill-rule="evenodd" fill-opacity="1" stroke="#000000" stroke-opacity="1" stroke-width="3.2"/>
<circle clip-path="url(#clip432)" cx="906.857" cy="530.93" r="14.4" fill="#e26f46" fill-rule="evenodd" fill-opacity="1" stroke="#000000" stroke-opacity="1" stroke-width="3.2"/>
<circle clip-path="url(#clip432)" cx="958.239" cy="510.966" r="14.4" fill="#e26f46" fill-rule="evenodd" fill-opacity="1" stroke="#000000" stroke-opacity="1" stroke-width="3.2"/>
<circle clip-path="url(#clip432)" cx="958.239" cy="510.634" r="14.4" fill="#e26f46" fill-rule="evenodd" fill-opacity="1" stroke="#000000" stroke-opacity="1" stroke-width="3.2"/>
<circle clip-path="url(#clip432)" cx="1009.62" cy="490.835" r="14.4" fill="#e26f46" fill-rule="evenodd" fill-opacity="1" stroke="#000000" stroke-opacity="1" stroke-width="3.2"/>
<circle clip-path="url(#clip432)" cx="1009.62" cy="490.766" r="14.4" fill="#e26f46" fill-rule="evenodd" fill-opacity="1" stroke="#000000" stroke-opacity="1" stroke-width="3.2"/>
<circle clip-path="url(#clip432)" cx="1061" cy="470.623" r="14.4" fill="#e26f46" fill-rule="evenodd" fill-opacity="1" stroke="#000000" stroke-opacity="1" stroke-width="3.2"/>
<circle clip-path="url(#clip432)" cx="1061" cy="470.707" r="14.4" fill="#e26f46" fill-rule="evenodd" fill-opacity="1" stroke="#000000" stroke-opacity="1" stroke-width="3.2"/>
<circle clip-path="url(#clip432)" cx="1112.39" cy="450.139" r="14.4" fill="#e26f46" fill-rule="evenodd" fill-opacity="1" stroke="#000000" stroke-opacity="1" stroke-width="3.2"/>
<circle clip-path="url(#clip432)" cx="1112.39" cy="450.109" r="14.4" fill="#e26f46" fill-rule="evenodd" fill-opacity="1" stroke="#000000" stroke-opacity="1" stroke-width="3.2"/>
<circle clip-path="url(#clip432)" cx="1163.77" cy="429.465" r="14.4" fill="#e26f46" fill-rule="evenodd" fill-opacity="1" stroke="#000000" stroke-opacity="1" stroke-width="3.2"/>
<circle clip-path="url(#clip432)" cx="1163.77" cy="429.686" r="14.4" fill="#e26f46" fill-rule="evenodd" fill-opacity="1" stroke="#000000" stroke-opacity="1" stroke-width="3.2"/>
<circle clip-path="url(#clip432)" cx="1215.15" cy="408.726" r="14.4" fill="#e26f46" fill-rule="evenodd" fill-opacity="1" stroke="#000000" stroke-opacity="1" stroke-width="3.2"/>
<circle clip-path="url(#clip432)" cx="1215.15" cy="408.777" r="14.4" fill="#e26f46" fill-rule="evenodd" fill-opacity="1" stroke="#000000" stroke-opacity="1" stroke-width="3.2"/>
<circle clip-path="url(#clip432)" cx="1266.53" cy="388.176" r="14.4" fill="#e26f46" fill-rule="evenodd" fill-opacity="1" stroke="#000000" stroke-opacity="1" stroke-width="3.2"/>
<circle clip-path="url(#clip432)" cx="1266.53" cy="388.109" r="14.4" fill="#e26f46" fill-rule="evenodd" fill-opacity="1" stroke="#000000" stroke-opacity="1" stroke-width="3.2"/>
<circle clip-path="url(#clip432)" cx="1317.92" cy="367.201" r="14.4" fill="#e26f46" fill-rule="evenodd" fill-opacity="1" stroke="#000000" stroke-opacity="1" stroke-width="3.2"/>
<circle clip-path="url(#clip432)" cx="1317.92" cy="366.765" r="14.4" fill="#e26f46" fill-rule="evenodd" fill-opacity="1" stroke="#000000" stroke-opacity="1" stroke-width="3.2"/>
<circle clip-path="url(#clip432)" cx="1369.3" cy="345.861" r="14.4" fill="#e26f46" fill-rule="evenodd" fill-opacity="1" stroke="#000000" stroke-opacity="1" stroke-width="3.2"/>
<circle clip-path="url(#clip432)" cx="1369.3" cy="345.592" r="14.4" fill="#e26f46" fill-rule="evenodd" fill-opacity="1" stroke="#000000" stroke-opacity="1" stroke-width="3.2"/>
<circle clip-path="url(#clip432)" cx="1420.68" cy="323.901" r="14.4" fill="#e26f46" fill-rule="evenodd" fill-opacity="1" stroke="#000000" stroke-opacity="1" stroke-width="3.2"/>
<circle clip-path="url(#clip432)" cx="1420.68" cy="323.81" r="14.4" fill="#e26f46" fill-rule="evenodd" fill-opacity="1" stroke="#000000" stroke-opacity="1" stroke-width="3.2"/>
<circle clip-path="url(#clip432)" cx="1472.06" cy="300.757" r="14.4" fill="#e26f46" fill-rule="evenodd" fill-opacity="1" stroke="#000000" stroke-opacity="1" stroke-width="3.2"/>
<circle clip-path="url(#clip432)" cx="1472.06" cy="301.124" r="14.4" fill="#e26f46" fill-rule="evenodd" fill-opacity="1" stroke="#000000" stroke-opacity="1" stroke-width="3.2"/>
<circle clip-path="url(#clip432)" cx="1523.45" cy="276.719" r="14.4" fill="#e26f46" fill-rule="evenodd" fill-opacity="1" stroke="#000000" stroke-opacity="1" stroke-width="3.2"/>
<circle clip-path="url(#clip432)" cx="1523.45" cy="277.317" r="14.4" fill="#e26f46" fill-rule="evenodd" fill-opacity="1" stroke="#000000" stroke-opacity="1" stroke-width="3.2"/>
<circle clip-path="url(#clip432)" cx="1574.83" cy="252.898" r="14.4" fill="#e26f46" fill-rule="evenodd" fill-opacity="1" stroke="#000000" stroke-opacity="1" stroke-width="3.2"/>
<circle clip-path="url(#clip432)" cx="1574.83" cy="252.337" r="14.4" fill="#e26f46" fill-rule="evenodd" fill-opacity="1" stroke="#000000" stroke-opacity="1" stroke-width="3.2"/>
<circle clip-path="url(#clip432)" cx="1621.76" cy="228.672" r="14.4" fill="#e26f46" fill-rule="evenodd" fill-opacity="1" stroke="#000000" stroke-opacity="1" stroke-width="3.2"/>
<circle clip-path="url(#clip432)" cx="1621.76" cy="227.511" r="14.4" fill="#e26f46" fill-rule="evenodd" fill-opacity="1" stroke="#000000" stroke-opacity="1" stroke-width="3.2"/>
<circle clip-path="url(#clip432)" cx="1626.21" cy="225.548" r="14.4" fill="#e26f46" fill-rule="evenodd" fill-opacity="1" stroke="#000000" stroke-opacity="1" stroke-width="3.2"/>
<circle clip-path="url(#clip432)" cx="1626.21" cy="225.38" r="14.4" fill="#e26f46" fill-rule="evenodd" fill-opacity="1" stroke="#000000" stroke-opacity="1" stroke-width="3.2"/>
<circle clip-path="url(#clip432)" cx="1649.52" cy="212.975" r="14.4" fill="#e26f46" fill-rule="evenodd" fill-opacity="1" stroke="#000000" stroke-opacity="1" stroke-width="3.2"/>
<circle clip-path="url(#clip432)" cx="1649.52" cy="213.785" r="14.4" fill="#e26f46" fill-rule="evenodd" fill-opacity="1" stroke="#000000" stroke-opacity="1" stroke-width="3.2"/>
<circle clip-path="url(#clip432)" cx="1673.46" cy="200.114" r="14.4" fill="#e26f46" fill-rule="evenodd" fill-opacity="1" stroke="#000000" stroke-opacity="1" stroke-width="3.2"/>
<circle clip-path="url(#clip432)" cx="1673.46" cy="199.632" r="14.4" fill="#e26f46" fill-rule="evenodd" fill-opacity="1" stroke="#000000" stroke-opacity="1" stroke-width="3.2"/>
<circle clip-path="url(#clip432)" cx="1677.59" cy="197.16" r="14.4" fill="#e26f46" fill-rule="evenodd" fill-opacity="1" stroke="#000000" stroke-opacity="1" stroke-width="3.2"/>
<circle clip-path="url(#clip432)" cx="1677.59" cy="199.175" r="14.4" fill="#e26f46" fill-rule="evenodd" fill-opacity="1" stroke="#000000" stroke-opacity="1" stroke-width="3.2"/>
<circle clip-path="url(#clip432)" cx="1694.5" cy="188.278" r="14.4" fill="#e26f46" fill-rule="evenodd" fill-opacity="1" stroke="#000000" stroke-opacity="1" stroke-width="3.2"/>
<circle clip-path="url(#clip432)" cx="1694.5" cy="188.007" r="14.4" fill="#e26f46" fill-rule="evenodd" fill-opacity="1" stroke="#000000" stroke-opacity="1" stroke-width="3.2"/>
<circle clip-path="url(#clip432)" cx="1713.27" cy="177.197" r="14.4" fill="#e26f46" fill-rule="evenodd" fill-opacity="1" stroke="#000000" stroke-opacity="1" stroke-width="3.2"/>
<circle clip-path="url(#clip432)" cx="1713.27" cy="176.3" r="14.4" fill="#e26f46" fill-rule="evenodd" fill-opacity="1" stroke="#000000" stroke-opacity="1" stroke-width="3.2"/>
<circle clip-path="url(#clip432)" cx="1728.97" cy="167.952" r="14.4" fill="#e26f46" fill-rule="evenodd" fill-opacity="1" stroke="#000000" stroke-opacity="1" stroke-width="3.2"/>
<circle clip-path="url(#clip432)" cx="1728.97" cy="167.461" r="14.4" fill="#e26f46" fill-rule="evenodd" fill-opacity="1" stroke="#000000" stroke-opacity="1" stroke-width="3.2"/>
<circle clip-path="url(#clip432)" cx="1730.21" cy="167.827" r="14.4" fill="#e26f46" fill-rule="evenodd" fill-opacity="1" stroke="#000000" stroke-opacity="1" stroke-width="3.2"/>
<circle clip-path="url(#clip432)" cx="1730.21" cy="168.281" r="14.4" fill="#e26f46" fill-rule="evenodd" fill-opacity="1" stroke="#000000" stroke-opacity="1" stroke-width="3.2"/>
<circle clip-path="url(#clip432)" cx="1745.64" cy="158.383" r="14.4" fill="#e26f46" fill-rule="evenodd" fill-opacity="1" stroke="#000000" stroke-opacity="1" stroke-width="3.2"/>
<circle clip-path="url(#clip432)" cx="1745.64" cy="158.637" r="14.4" fill="#e26f46" fill-rule="evenodd" fill-opacity="1" stroke="#000000" stroke-opacity="1" stroke-width="3.2"/>
<circle clip-path="url(#clip432)" cx="1759.82" cy="151.077" r="14.4" fill="#e26f46" fill-rule="evenodd" fill-opacity="1" stroke="#000000" stroke-opacity="1" stroke-width="3.2"/>
<circle clip-path="url(#clip432)" cx="1759.82" cy="150.032" r="14.4" fill="#e26f46" fill-rule="evenodd" fill-opacity="1" stroke="#000000" stroke-opacity="1" stroke-width="3.2"/>
<circle clip-path="url(#clip432)" cx="1772.93" cy="143.607" r="14.4" fill="#e26f46" fill-rule="evenodd" fill-opacity="1" stroke="#000000" stroke-opacity="1" stroke-width="3.2"/>
<circle clip-path="url(#clip432)" cx="1772.93" cy="143.099" r="14.4" fill="#e26f46" fill-rule="evenodd" fill-opacity="1" stroke="#000000" stroke-opacity="1" stroke-width="3.2"/>
<circle clip-path="url(#clip432)" cx="1780.36" cy="145.049" r="14.4" fill="#e26f46" fill-rule="evenodd" fill-opacity="1" stroke="#000000" stroke-opacity="1" stroke-width="3.2"/>
<circle clip-path="url(#clip432)" cx="1780.36" cy="145.628" r="14.4" fill="#e26f46" fill-rule="evenodd" fill-opacity="1" stroke="#000000" stroke-opacity="1" stroke-width="3.2"/>
<circle clip-path="url(#clip432)" cx="1785.13" cy="147.799" r="14.4" fill="#e26f46" fill-rule="evenodd" fill-opacity="1" stroke="#000000" stroke-opacity="1" stroke-width="3.2"/>
<circle clip-path="url(#clip432)" cx="1785.13" cy="147.12" r="14.4" fill="#e26f46" fill-rule="evenodd" fill-opacity="1" stroke="#000000" stroke-opacity="1" stroke-width="3.2"/>
<circle clip-path="url(#clip432)" cx="1796.52" cy="151.029" r="14.4" fill="#e26f46" fill-rule="evenodd" fill-opacity="1" stroke="#000000" stroke-opacity="1" stroke-width="3.2"/>
<circle clip-path="url(#clip432)" cx="1796.52" cy="150.928" r="14.4" fill="#e26f46" fill-rule="evenodd" fill-opacity="1" stroke="#000000" stroke-opacity="1" stroke-width="3.2"/>
<circle clip-path="url(#clip432)" cx="1807.21" cy="154.748" r="14.4" fill="#e26f46" fill-rule="evenodd" fill-opacity="1" stroke="#000000" stroke-opacity="1" stroke-width="3.2"/>
<circle clip-path="url(#clip432)" cx="1807.21" cy="155.415" r="14.4" fill="#e26f46" fill-rule="evenodd" fill-opacity="1" stroke="#000000" stroke-opacity="1" stroke-width="3.2"/>
<circle clip-path="url(#clip432)" cx="1817.29" cy="158.886" r="14.4" fill="#e26f46" fill-rule="evenodd" fill-opacity="1" stroke="#000000" stroke-opacity="1" stroke-width="3.2"/>
<circle clip-path="url(#clip432)" cx="1817.29" cy="158.692" r="14.4" fill="#e26f46" fill-rule="evenodd" fill-opacity="1" stroke="#000000" stroke-opacity="1" stroke-width="3.2"/>
<circle clip-path="url(#clip432)" cx="1826.81" cy="162.735" r="14.4" fill="#e26f46" fill-rule="evenodd" fill-opacity="1" stroke="#000000" stroke-opacity="1" stroke-width="3.2"/>
<circle clip-path="url(#clip432)" cx="1826.81" cy="160.467" r="14.4" fill="#e26f46" fill-rule="evenodd" fill-opacity="1" stroke="#000000" stroke-opacity="1" stroke-width="3.2"/>
<circle clip-path="url(#clip432)" cx="1831.74" cy="163.127" r="14.4" fill="#e26f46" fill-rule="evenodd" fill-opacity="1" stroke="#000000" stroke-opacity="1" stroke-width="3.2"/>
<circle clip-path="url(#clip432)" cx="1831.74" cy="163.32" r="14.4" fill="#e26f46" fill-rule="evenodd" fill-opacity="1" stroke="#000000" stroke-opacity="1" stroke-width="3.2"/>
<circle clip-path="url(#clip432)" cx="1835.84" cy="163.581" r="14.4" fill="#e26f46" fill-rule="evenodd" fill-opacity="1" stroke="#000000" stroke-opacity="1" stroke-width="3.2"/>
<circle clip-path="url(#clip432)" cx="1835.84" cy="164.695" r="14.4" fill="#e26f46" fill-rule="evenodd" fill-opacity="1" stroke="#000000" stroke-opacity="1" stroke-width="3.2"/>
<circle clip-path="url(#clip432)" cx="1844.42" cy="167.781" r="14.4" fill="#e26f46" fill-rule="evenodd" fill-opacity="1" stroke="#000000" stroke-opacity="1" stroke-width="3.2"/>
<circle clip-path="url(#clip432)" cx="1844.42" cy="165.684" r="14.4" fill="#e26f46" fill-rule="evenodd" fill-opacity="1" stroke="#000000" stroke-opacity="1" stroke-width="3.2"/>
<circle clip-path="url(#clip432)" cx="1852.6" cy="168.602" r="14.4" fill="#e26f46" fill-rule="evenodd" fill-opacity="1" stroke="#000000" stroke-opacity="1" stroke-width="3.2"/>
<circle clip-path="url(#clip432)" cx="1852.6" cy="168.194" r="14.4" fill="#e26f46" fill-rule="evenodd" fill-opacity="1" stroke="#000000" stroke-opacity="1" stroke-width="3.2"/>
<circle clip-path="url(#clip432)" cx="1860.41" cy="169.903" r="14.4" fill="#e26f46" fill-rule="evenodd" fill-opacity="1" stroke="#000000" stroke-opacity="1" stroke-width="3.2"/>
<circle clip-path="url(#clip432)" cx="1860.41" cy="170.421" r="14.4" fill="#e26f46" fill-rule="evenodd" fill-opacity="1" stroke="#000000" stroke-opacity="1" stroke-width="3.2"/>
<circle clip-path="url(#clip432)" cx="1867.89" cy="171.383" r="14.4" fill="#e26f46" fill-rule="evenodd" fill-opacity="1" stroke="#000000" stroke-opacity="1" stroke-width="3.2"/>
<circle clip-path="url(#clip432)" cx="1867.89" cy="171.505" r="14.4" fill="#e26f46" fill-rule="evenodd" fill-opacity="1" stroke="#000000" stroke-opacity="1" stroke-width="3.2"/>
<circle clip-path="url(#clip432)" cx="1875.06" cy="172.273" r="14.4" fill="#e26f46" fill-rule="evenodd" fill-opacity="1" stroke="#000000" stroke-opacity="1" stroke-width="3.2"/>
<circle clip-path="url(#clip432)" cx="1875.06" cy="172.077" r="14.4" fill="#e26f46" fill-rule="evenodd" fill-opacity="1" stroke="#000000" stroke-opacity="1" stroke-width="3.2"/>
<circle clip-path="url(#clip432)" cx="1883.12" cy="173.851" r="14.4" fill="#e26f46" fill-rule="evenodd" fill-opacity="1" stroke="#000000" stroke-opacity="1" stroke-width="3.2"/>
<circle clip-path="url(#clip432)" cx="1883.12" cy="173.797" r="14.4" fill="#e26f46" fill-rule="evenodd" fill-opacity="1" stroke="#000000" stroke-opacity="1" stroke-width="3.2"/>
<circle clip-path="url(#clip432)" cx="1934.5" cy="171.544" r="14.4" fill="#e26f46" fill-rule="evenodd" fill-opacity="1" stroke="#000000" stroke-opacity="1" stroke-width="3.2"/>
<circle clip-path="url(#clip432)" cx="1934.5" cy="172.523" r="14.4" fill="#e26f46" fill-rule="evenodd" fill-opacity="1" stroke="#000000" stroke-opacity="1" stroke-width="3.2"/>
<circle clip-path="url(#clip432)" cx="1985.89" cy="163.801" r="14.4" fill="#e26f46" fill-rule="evenodd" fill-opacity="1" stroke="#000000" stroke-opacity="1" stroke-width="3.2"/>
<circle clip-path="url(#clip432)" cx="1985.89" cy="162.58" r="14.4" fill="#e26f46" fill-rule="evenodd" fill-opacity="1" stroke="#000000" stroke-opacity="1" stroke-width="3.2"/>
<circle clip-path="url(#clip432)" cx="2037.27" cy="151.878" r="14.4" fill="#e26f46" fill-rule="evenodd" fill-opacity="1" stroke="#000000" stroke-opacity="1" stroke-width="3.2"/>
<circle clip-path="url(#clip432)" cx="2037.27" cy="152.51" r="14.4" fill="#e26f46" fill-rule="evenodd" fill-opacity="1" stroke="#000000" stroke-opacity="1" stroke-width="3.2"/>
<circle clip-path="url(#clip432)" cx="2088.65" cy="142.385" r="14.4" fill="#e26f46" fill-rule="evenodd" fill-opacity="1" stroke="#000000" stroke-opacity="1" stroke-width="3.2"/>
<circle clip-path="url(#clip432)" cx="2088.65" cy="141.985" r="14.4" fill="#e26f46" fill-rule="evenodd" fill-opacity="1" stroke="#000000" stroke-opacity="1" stroke-width="3.2"/>
<circle clip-path="url(#clip432)" cx="2140.03" cy="135.66" r="14.4" fill="#e26f46" fill-rule="evenodd" fill-opacity="1" stroke="#000000" stroke-opacity="1" stroke-width="3.2"/>
<circle clip-path="url(#clip432)" cx="2140.03" cy="134.563" r="14.4" fill="#e26f46" fill-rule="evenodd" fill-opacity="1" stroke="#000000" stroke-opacity="1" stroke-width="3.2"/>
<circle clip-path="url(#clip432)" cx="2191.42" cy="128.291" r="14.4" fill="#e26f46" fill-rule="evenodd" fill-opacity="1" stroke="#000000" stroke-opacity="1" stroke-width="3.2"/>
<circle clip-path="url(#clip432)" cx="2191.42" cy="129.058" r="14.4" fill="#e26f46" fill-rule="evenodd" fill-opacity="1" stroke="#000000" stroke-opacity="1" stroke-width="3.2"/>
<circle clip-path="url(#clip432)" cx="2242.8" cy="124.654" r="14.4" fill="#e26f46" fill-rule="evenodd" fill-opacity="1" stroke="#000000" stroke-opacity="1" stroke-width="3.2"/>
<circle clip-path="url(#clip432)" cx="2242.8" cy="126.325" r="14.4" fill="#e26f46" fill-rule="evenodd" fill-opacity="1" stroke="#000000" stroke-opacity="1" stroke-width="3.2"/>
<circle clip-path="url(#clip432)" cx="2294.18" cy="122.044" r="14.4" fill="#e26f46" fill-rule="evenodd" fill-opacity="1" stroke="#000000" stroke-opacity="1" stroke-width="3.2"/>
<circle clip-path="url(#clip432)" cx="2294.18" cy="123.037" r="14.4" fill="#e26f46" fill-rule="evenodd" fill-opacity="1" stroke="#000000" stroke-opacity="1" stroke-width="3.2"/>
<path clip-path="url(#clip430)" d="M352.065 248.219 L674.821 248.219 L674.821 92.6992 L352.065 92.6992  Z" fill="#ffffff" fill-rule="evenodd" fill-opacity="1"/>
<polyline clip-path="url(#clip430)" style="stroke:#000000; stroke-linecap:round; stroke-linejoin:round; stroke-width:4; stroke-opacity:1; fill:none" points="352.065,248.219 674.821,248.219 674.821,92.6992 352.065,92.6992 352.065,248.219 "/>
<circle clip-path="url(#clip430)" cx="444.051" cy="144.539" r="20.48" fill="#009af9" fill-rule="evenodd" fill-opacity="1" stroke="#000000" stroke-opacity="1" stroke-width="4.55111"/>
<path clip-path="url(#clip430)" d="M562.035 153.231 Q562.035 153.418 561.825 154.145 Q561.614 154.871 561.099 155.995 Q560.607 157.119 559.927 158.15 Q559.248 159.157 558.124 159.906 Q557.023 160.633 555.758 160.633 Q554.072 160.633 552.948 159.508 Q551.823 158.384 551.823 156.698 Q551.823 155.761 552.315 154.472 Q555.43 146.158 555.43 143.3 Q555.43 139.951 552.83 139.951 Q551.542 139.951 550.324 140.442 Q549.13 140.911 548.31 141.567 Q547.49 142.223 546.741 143.136 Q546.015 144.026 545.64 144.635 Q545.288 145.221 545.007 145.806 L544.398 148.195 Q544.258 148.851 543.579 151.404 L542.525 155.737 Q541.775 158.97 541.611 159.274 Q541.377 159.93 540.862 160.281 Q540.346 160.633 539.831 160.633 Q539.245 160.633 538.847 160.281 Q538.449 159.93 538.449 159.321 Q538.449 159.227 538.519 158.876 Q538.59 158.525 538.707 158.033 Q538.824 157.541 538.871 157.26 L541.658 146.181 Q542.173 144.167 542.29 143.534 Q542.431 142.878 542.431 142.152 Q542.431 139.951 540.932 139.951 Q539.714 139.951 538.918 141.403 Q538.121 142.855 537.442 145.666 Q537.231 146.439 537.091 146.603 Q536.973 146.766 536.622 146.766 Q536.037 146.743 536.037 146.275 Q536.037 146.158 536.224 145.385 Q536.411 144.612 536.763 143.511 Q537.137 142.386 537.489 141.637 Q537.793 141.075 537.957 140.817 Q538.145 140.536 538.59 139.997 Q539.058 139.435 539.667 139.178 Q540.299 138.897 541.072 138.897 Q542.806 138.897 544.07 140.021 Q545.335 141.122 545.499 143.066 Q548.614 138.897 552.971 138.897 Q555.547 138.897 557.023 140.255 Q558.499 141.614 558.499 144.026 Q558.499 144.588 558.382 145.314 Q558.288 146.017 558.054 146.907 Q557.843 147.797 557.655 148.476 Q557.468 149.156 557.093 150.256 Q556.719 151.334 556.555 151.802 Q556.391 152.271 555.992 153.372 Q555.618 154.449 555.571 154.566 Q554.704 156.744 554.704 157.986 Q554.704 158.806 554.962 159.18 Q555.243 159.555 555.852 159.555 Q557.491 159.555 558.709 157.939 Q559.951 156.299 560.747 153.629 Q560.935 153.044 561.028 152.903 Q561.145 152.763 561.473 152.763 Q562.035 152.763 562.035 153.231 Z" fill="#000000" fill-rule="nonzero" fill-opacity="1" /><path clip-path="url(#clip430)" d="M577.823 152.809 Q577.87 152.224 578.783 152.224 L608.178 152.224 Q609.56 152.224 609.584 152.763 Q609.584 153.348 608.272 153.325 L579.111 153.325 Q577.823 153.348 577.823 152.809 M577.823 143.441 Q577.823 142.855 578.83 142.878 L608.131 142.878 Q609.56 142.878 609.584 143.441 Q609.584 143.979 608.366 143.979 L578.783 143.979 Q577.823 143.979 577.823 143.441 Z" fill="#000000" fill-rule="nonzero" fill-opacity="1" /><path clip-path="url(#clip430)" d="M628.074 132.713 L628.074 131.214 Q633.836 131.214 636.811 128.146 Q637.631 128.146 637.771 128.333 Q637.912 128.52 637.912 129.387 L637.912 156.299 Q637.912 157.728 638.615 158.173 Q639.317 158.618 642.386 158.618 L643.908 158.618 L643.908 160.094 Q642.222 159.953 636.132 159.953 Q630.042 159.953 628.379 160.094 L628.379 158.618 L629.901 158.618 Q632.923 158.618 633.649 158.197 Q634.375 157.752 634.375 156.299 L634.375 131.448 Q631.869 132.713 628.074 132.713 Z" fill="#000000" fill-rule="nonzero" fill-opacity="1" /><circle clip-path="url(#clip430)" cx="444.051" cy="196.379" r="20.48" fill="#e26f46" fill-rule="evenodd" fill-opacity="1" stroke="#000000" stroke-opacity="1" stroke-width="4.55111"/>
<path clip-path="url(#clip430)" d="M562.035 205.071 Q562.035 205.258 561.825 205.985 Q561.614 206.711 561.099 207.835 Q560.607 208.959 559.927 209.99 Q559.248 210.997 558.124 211.746 Q557.023 212.473 555.758 212.473 Q554.072 212.473 552.948 211.348 Q551.823 210.224 551.823 208.538 Q551.823 207.601 552.315 206.312 Q555.43 197.998 555.43 195.14 Q555.43 191.791 552.83 191.791 Q551.542 191.791 550.324 192.282 Q549.13 192.751 548.31 193.407 Q547.49 194.063 546.741 194.976 Q546.015 195.866 545.64 196.475 Q545.288 197.061 545.007 197.646 L544.398 200.035 Q544.258 200.691 543.579 203.244 L542.525 207.577 Q541.775 210.81 541.611 211.114 Q541.377 211.77 540.862 212.121 Q540.346 212.473 539.831 212.473 Q539.245 212.473 538.847 212.121 Q538.449 211.77 538.449 211.161 Q538.449 211.067 538.519 210.716 Q538.59 210.365 538.707 209.873 Q538.824 209.381 538.871 209.1 L541.658 198.021 Q542.173 196.007 542.29 195.374 Q542.431 194.718 542.431 193.992 Q542.431 191.791 540.932 191.791 Q539.714 191.791 538.918 193.243 Q538.121 194.695 537.442 197.506 Q537.231 198.279 537.091 198.443 Q536.973 198.606 536.622 198.606 Q536.037 198.583 536.037 198.115 Q536.037 197.998 536.224 197.225 Q536.411 196.452 536.763 195.351 Q537.137 194.226 537.489 193.477 Q537.793 192.915 537.957 192.657 Q538.145 192.376 538.59 191.837 Q539.058 191.275 539.667 191.018 Q540.299 190.737 541.072 190.737 Q542.806 190.737 544.07 191.861 Q545.335 192.962 545.499 194.906 Q548.614 190.737 552.971 190.737 Q555.547 190.737 557.023 192.095 Q558.499 193.454 558.499 195.866 Q558.499 196.428 558.382 197.154 Q558.288 197.857 558.054 198.747 Q557.843 199.637 557.655 200.316 Q557.468 200.996 557.093 202.096 Q556.719 203.174 556.555 203.642 Q556.391 204.111 555.992 205.212 Q555.618 206.289 555.571 206.406 Q554.704 208.584 554.704 209.826 Q554.704 210.646 554.962 211.02 Q555.243 211.395 555.852 211.395 Q557.491 211.395 558.709 209.779 Q559.951 208.139 560.747 205.469 Q560.935 204.884 561.028 204.743 Q561.145 204.603 561.473 204.603 Q562.035 204.603 562.035 205.071 Z" fill="#000000" fill-rule="nonzero" fill-opacity="1" /><path clip-path="url(#clip430)" d="M577.823 204.649 Q577.87 204.064 578.783 204.064 L608.178 204.064 Q609.56 204.064 609.584 204.603 Q609.584 205.188 608.272 205.165 L579.111 205.165 Q577.823 205.188 577.823 204.649 M577.823 195.281 Q577.823 194.695 578.83 194.718 L608.131 194.718 Q609.56 194.718 609.584 195.281 Q609.584 195.819 608.366 195.819 L578.783 195.819 Q577.823 195.819 577.823 195.281 Z" fill="#000000" fill-rule="nonzero" fill-opacity="1" /><path clip-path="url(#clip430)" d="M628.074 211.934 Q628.074 211.067 628.145 210.81 Q628.238 210.552 628.613 210.154 L637.818 199.895 Q642.854 194.226 642.854 189.284 Q642.854 186.075 641.168 183.78 Q639.505 181.485 636.436 181.485 Q634.328 181.485 632.548 182.773 Q630.768 184.061 629.948 186.357 Q630.089 186.31 630.581 186.31 Q631.775 186.31 632.431 187.059 Q633.11 187.809 633.11 188.816 Q633.11 190.104 632.267 190.737 Q631.447 191.346 630.627 191.346 Q630.3 191.346 629.855 191.275 Q629.433 191.205 628.754 190.549 Q628.074 189.87 628.074 188.675 Q628.074 185.326 630.604 182.656 Q633.157 179.986 637.045 179.986 Q641.449 179.986 644.33 182.609 Q647.234 185.209 647.234 189.284 Q647.234 190.713 646.789 192.025 Q646.367 193.313 645.782 194.32 Q645.22 195.327 643.674 196.944 Q642.128 198.56 640.886 199.707 Q639.645 200.855 636.858 203.291 L631.775 208.233 L640.418 208.233 Q644.634 208.233 644.962 207.858 Q645.43 207.179 646.016 203.595 L647.234 203.595 L645.875 211.934 L628.074 211.934 Z" fill="#000000" fill-rule="nonzero" fill-opacity="1" /></svg>
