<?xml version="1.0" encoding="utf-8"?>
<svg xmlns="http://www.w3.org/2000/svg" xmlns:xlink="http://www.w3.org/1999/xlink" width="600" height="400" viewBox="0 0 2400 1600">
<defs>
  <clipPath id="clip020">
    <rect x="0" y="0" width="2400" height="1600"/>
  </clipPath>
</defs>
<path clip-path="url(#clip020)" d="M0 1600 L2400 1600 L2400 0 L0 0  Z" fill="#ffffff" fill-rule="evenodd" fill-opacity="1"/>
<defs>
  <clipPath id="clip021">
    <rect x="480" y="0" width="1681" height="1600"/>
  </clipPath>
</defs>
<path clip-path="url(#clip020)" d="M253.002 1410.9 L2352.76 1410.9 L2352.76 47.2441 L253.002 47.2441  Z" fill="#ffffff" fill-rule="evenodd" fill-opacity="1"/>
<defs>
  <clipPath id="clip022">
    <rect x="253" y="47" width="2101" height="1365"/>
  </clipPath>
</defs>
<polyline clip-path="url(#clip022)" style="stroke:#000000; stroke-linecap:round; stroke-linejoin:round; stroke-width:2; stroke-opacity:0.1; fill:none" points="744.348,1410.9 744.348,47.2441 "/>
<polyline clip-path="url(#clip022)" style="stroke:#000000; stroke-linecap:round; stroke-linejoin:round; stroke-width:2; stroke-opacity:0.1; fill:none" points="1325.21,1410.9 1325.21,47.2441 "/>
<polyline clip-path="url(#clip022)" style="stroke:#000000; stroke-linecap:round; stroke-linejoin:round; stroke-width:2; stroke-opacity:0.1; fill:none" points="1906.06,1410.9 1906.06,47.2441 "/>
<polyline clip-path="url(#clip022)" style="stroke:#000000; stroke-linecap:round; stroke-linejoin:round; stroke-width:2; stroke-opacity:0.1; fill:none" points="253.002,1226.59 2352.76,1226.59 "/>
<polyline clip-path="url(#clip022)" style="stroke:#000000; stroke-linecap:round; stroke-linejoin:round; stroke-width:2; stroke-opacity:0.1; fill:none" points="253.002,483.28 2352.76,483.28 "/>
<polyline clip-path="url(#clip020)" style="stroke:#000000; stroke-linecap:round; stroke-linejoin:round; stroke-width:4; stroke-opacity:1; fill:none" points="253.002,1410.9 2352.76,1410.9 "/>
<polyline clip-path="url(#clip020)" style="stroke:#000000; stroke-linecap:round; stroke-linejoin:round; stroke-width:4; stroke-opacity:1; fill:none" points="744.348,1410.9 744.348,1392 "/>
<polyline clip-path="url(#clip020)" style="stroke:#000000; stroke-linecap:round; stroke-linejoin:round; stroke-width:4; stroke-opacity:1; fill:none" points="1325.21,1410.9 1325.21,1392 "/>
<polyline clip-path="url(#clip020)" style="stroke:#000000; stroke-linecap:round; stroke-linejoin:round; stroke-width:4; stroke-opacity:1; fill:none" points="1906.06,1410.9 1906.06,1392 "/>
<path clip-path="url(#clip020)" d="M694.614 1485.02 L702.253 1485.02 L702.253 1458.66 L693.943 1460.32 L693.943 1456.06 L702.207 1454.4 L706.883 1454.4 L706.883 1485.02 L714.521 1485.02 L714.521 1488.96 L694.614 1488.96 L694.614 1485.02 Z" fill="#000000" fill-rule="nonzero" fill-opacity="1" /><path clip-path="url(#clip020)" d="M733.966 1457.48 Q730.355 1457.48 728.526 1461.04 Q726.72 1464.58 726.72 1471.71 Q726.72 1478.82 728.526 1482.38 Q730.355 1485.92 733.966 1485.92 Q737.6 1485.92 739.406 1482.38 Q741.234 1478.82 741.234 1471.71 Q741.234 1464.58 739.406 1461.04 Q737.6 1457.48 733.966 1457.48 M733.966 1453.77 Q739.776 1453.77 742.831 1458.38 Q745.91 1462.96 745.91 1471.71 Q745.91 1480.44 742.831 1485.04 Q739.776 1489.63 733.966 1489.63 Q728.156 1489.63 725.077 1485.04 Q722.021 1480.44 722.021 1471.71 Q722.021 1462.96 725.077 1458.38 Q728.156 1453.77 733.966 1453.77 Z" fill="#000000" fill-rule="nonzero" fill-opacity="1" /><path clip-path="url(#clip020)" d="M745.91 1447.87 L770.022 1447.87 L770.022 1451.07 L745.91 1451.07 L745.91 1447.87 Z" fill="#000000" fill-rule="nonzero" fill-opacity="1" /><path clip-path="url(#clip020)" d="M781.494 1458.35 L794.754 1458.35 L794.754 1461.55 L776.924 1461.55 L776.924 1458.35 Q779.087 1456.11 782.811 1452.35 Q786.554 1448.57 787.513 1447.48 Q789.337 1445.43 790.052 1444.02 Q790.786 1442.59 790.786 1441.22 Q790.786 1438.98 789.206 1437.57 Q787.645 1436.16 785.124 1436.16 Q783.338 1436.16 781.344 1436.78 Q779.369 1437.4 777.112 1438.66 L777.112 1434.82 Q779.407 1433.9 781.4 1433.43 Q783.394 1432.96 785.049 1432.96 Q789.413 1432.96 792.008 1435.14 Q794.603 1437.32 794.603 1440.97 Q794.603 1442.7 793.945 1444.26 Q793.306 1445.8 791.594 1447.91 Q791.124 1448.46 788.604 1451.07 Q786.084 1453.67 781.494 1458.35 Z" fill="#000000" fill-rule="nonzero" fill-opacity="1" /><path clip-path="url(#clip020)" d="M1275.32 1485.02 L1282.96 1485.02 L1282.96 1458.66 L1274.65 1460.32 L1274.65 1456.06 L1282.91 1454.4 L1287.59 1454.4 L1287.59 1485.02 L1295.23 1485.02 L1295.23 1488.96 L1275.32 1488.96 L1275.32 1485.02 Z" fill="#000000" fill-rule="nonzero" fill-opacity="1" /><path clip-path="url(#clip020)" d="M1314.67 1457.48 Q1311.06 1457.48 1309.23 1461.04 Q1307.43 1464.58 1307.43 1471.71 Q1307.43 1478.82 1309.23 1482.38 Q1311.06 1485.92 1314.67 1485.92 Q1318.31 1485.92 1320.11 1482.38 Q1321.94 1478.82 1321.94 1471.71 Q1321.94 1464.58 1320.11 1461.04 Q1318.31 1457.48 1314.67 1457.48 M1314.67 1453.77 Q1320.48 1453.77 1323.54 1458.38 Q1326.62 1462.96 1326.62 1471.71 Q1326.62 1480.44 1323.54 1485.04 Q1320.48 1489.63 1314.67 1489.63 Q1308.86 1489.63 1305.78 1485.04 Q1302.73 1480.44 1302.73 1471.71 Q1302.73 1462.96 1305.78 1458.38 Q1308.86 1453.77 1314.67 1453.77 Z" fill="#000000" fill-rule="nonzero" fill-opacity="1" /><path clip-path="url(#clip020)" d="M1326.62 1447.87 L1350.73 1447.87 L1350.73 1451.07 L1326.62 1451.07 L1326.62 1447.87 Z" fill="#000000" fill-rule="nonzero" fill-opacity="1" /><path clip-path="url(#clip020)" d="M1359.59 1458.35 L1365.79 1458.35 L1365.79 1436.93 L1359.04 1438.28 L1359.04 1434.82 L1365.76 1433.47 L1369.56 1433.47 L1369.56 1458.35 L1375.76 1458.35 L1375.76 1461.55 L1359.59 1461.55 L1359.59 1458.35 Z" fill="#000000" fill-rule="nonzero" fill-opacity="1" /><path clip-path="url(#clip020)" d="M1871.05 1485.02 L1878.68 1485.02 L1878.68 1458.66 L1870.37 1460.32 L1870.37 1456.06 L1878.64 1454.4 L1883.31 1454.4 L1883.31 1485.02 L1890.95 1485.02 L1890.95 1488.96 L1871.05 1488.96 L1871.05 1485.02 Z" fill="#000000" fill-rule="nonzero" fill-opacity="1" /><path clip-path="url(#clip020)" d="M1910.4 1457.48 Q1906.79 1457.48 1904.96 1461.04 Q1903.15 1464.58 1903.15 1471.71 Q1903.15 1478.82 1904.96 1482.38 Q1906.79 1485.92 1910.4 1485.92 Q1914.03 1485.92 1915.84 1482.38 Q1917.67 1478.82 1917.67 1471.71 Q1917.67 1464.58 1915.84 1461.04 Q1914.03 1457.48 1910.4 1457.48 M1910.4 1453.77 Q1916.21 1453.77 1919.26 1458.38 Q1922.34 1462.96 1922.34 1471.71 Q1922.34 1480.44 1919.26 1485.04 Q1916.21 1489.63 1910.4 1489.63 Q1904.59 1489.63 1901.51 1485.04 Q1898.45 1480.44 1898.45 1471.71 Q1898.45 1462.96 1901.51 1458.38 Q1904.59 1453.77 1910.4 1453.77 Z" fill="#000000" fill-rule="nonzero" fill-opacity="1" /><path clip-path="url(#clip020)" d="M1932.05 1435.97 Q1929.11 1435.97 1927.63 1438.86 Q1926.16 1441.74 1926.16 1447.53 Q1926.16 1453.31 1927.63 1456.2 Q1929.11 1459.08 1932.05 1459.08 Q1935 1459.08 1936.47 1456.2 Q1937.95 1453.31 1937.95 1447.53 Q1937.95 1441.74 1936.47 1438.86 Q1935 1435.97 1932.05 1435.97 M1932.05 1432.96 Q1936.77 1432.96 1939.25 1436.7 Q1941.75 1440.43 1941.75 1447.53 Q1941.75 1454.62 1939.25 1458.37 Q1936.77 1462.09 1932.05 1462.09 Q1927.33 1462.09 1924.82 1458.37 Q1922.34 1454.62 1922.34 1447.53 Q1922.34 1440.43 1924.82 1436.7 Q1927.33 1432.96 1932.05 1432.96 Z" fill="#000000" fill-rule="nonzero" fill-opacity="1" /><path clip-path="url(#clip020)" d="M1326.28 1522.95 Q1326.28 1524.27 1325.19 1524.27 Q1323.25 1524.34 1321.93 1524.72 Q1320.61 1525.08 1319.84 1525.79 Q1319.1 1526.49 1318.68 1527.27 Q1318.29 1528.01 1318.04 1529.14 L1312.18 1552.55 Q1310.5 1559.15 1305.09 1563.95 Q1299.68 1568.72 1293.53 1568.72 Q1290.02 1568.72 1287.09 1567.27 Q1284.19 1565.82 1282.39 1562.89 Q1280.58 1559.96 1280.58 1556.06 Q1280.58 1554.19 1281.06 1552.23 L1285.06 1535.93 L1286.54 1530.13 Q1287.63 1525.85 1287.63 1525.46 Q1287.63 1524.85 1287.25 1524.69 Q1286.89 1524.5 1285.86 1524.4 L1283.35 1524.27 Q1282.58 1524.27 1282.26 1524.24 Q1281.97 1524.21 1281.74 1524.05 Q1281.52 1523.89 1281.52 1523.53 Q1281.52 1523.08 1281.61 1522.79 Q1281.74 1522.47 1281.97 1522.37 Q1282.19 1522.28 1282.35 1522.24 Q1282.51 1522.21 1282.77 1522.21 L1291.27 1522.4 L1299.71 1522.21 Q1300.65 1522.21 1300.65 1522.95 Q1300.65 1523.89 1300.23 1524.08 Q1299.81 1524.27 1298.39 1524.27 Q1295.98 1524.27 1294.88 1524.59 Q1293.82 1524.88 1293.5 1525.4 Q1293.21 1525.88 1292.85 1527.3 L1286.44 1552.97 Q1286.12 1554.26 1285.93 1555.54 Q1285.77 1556.8 1285.77 1557.44 L1285.73 1558.09 Q1285.73 1562.18 1287.99 1564.43 Q1290.28 1566.69 1293.79 1566.69 Q1298.94 1566.69 1303.74 1562.6 Q1308.57 1558.51 1310.21 1552.1 L1316.14 1528.56 Q1316.33 1527.98 1316.33 1527.17 Q1316.33 1525.88 1315.36 1525.11 Q1314.43 1524.3 1311.85 1524.27 Q1310.66 1524.27 1310.66 1523.53 Q1310.66 1522.92 1310.89 1522.63 Q1311.15 1522.31 1311.34 1522.28 Q1311.56 1522.21 1311.85 1522.21 Q1312.95 1522.21 1315.27 1522.31 Q1317.59 1522.4 1318.71 1522.4 Q1319.84 1522.4 1322.1 1522.31 Q1324.35 1522.21 1325.44 1522.21 Q1325.83 1522.21 1326.02 1522.4 Q1326.25 1522.57 1326.28 1522.76 L1326.28 1522.95 Z" fill="#000000" fill-rule="nonzero" fill-opacity="1" /><polyline clip-path="url(#clip020)" style="stroke:#000000; stroke-linecap:round; stroke-linejoin:round; stroke-width:4; stroke-opacity:1; fill:none" points="253.002,1410.9 253.002,47.2441 "/>
<polyline clip-path="url(#clip020)" style="stroke:#000000; stroke-linecap:round; stroke-linejoin:round; stroke-width:4; stroke-opacity:1; fill:none" points="253.002,1226.59 271.9,1226.59 "/>
<polyline clip-path="url(#clip020)" style="stroke:#000000; stroke-linecap:round; stroke-linejoin:round; stroke-width:4; stroke-opacity:1; fill:none" points="253.002,483.28 271.9,483.28 "/>
<path clip-path="url(#clip020)" d="M147.218 1246.38 L154.857 1246.38 L154.857 1220.02 L146.547 1221.69 L146.547 1217.43 L154.81 1215.76 L159.486 1215.76 L159.486 1246.38 L167.125 1246.38 L167.125 1250.32 L147.218 1250.32 L147.218 1246.38 Z" fill="#000000" fill-rule="nonzero" fill-opacity="1" /><path clip-path="url(#clip020)" d="M186.57 1218.84 Q182.958 1218.84 181.13 1222.4 Q179.324 1225.94 179.324 1233.07 Q179.324 1240.18 181.13 1243.75 Q182.958 1247.29 186.57 1247.29 Q190.204 1247.29 192.009 1243.75 Q193.838 1240.18 193.838 1233.07 Q193.838 1225.94 192.009 1222.4 Q190.204 1218.84 186.57 1218.84 M186.57 1215.13 Q192.38 1215.13 195.435 1219.74 Q198.514 1224.32 198.514 1233.07 Q198.514 1241.8 195.435 1246.41 Q192.38 1250.99 186.57 1250.99 Q180.759 1250.99 177.681 1246.41 Q174.625 1241.8 174.625 1233.07 Q174.625 1224.32 177.681 1219.74 Q180.759 1215.13 186.57 1215.13 Z" fill="#000000" fill-rule="nonzero" fill-opacity="1" /><path clip-path="url(#clip020)" d="M211.209 1207.77 Q213.936 1208.35 215.46 1210.2 Q217.002 1212.04 217.002 1214.75 Q217.002 1218.9 214.143 1221.18 Q211.284 1223.45 206.018 1223.45 Q204.25 1223.45 202.37 1223.1 Q200.508 1222.76 198.514 1222.06 L198.514 1218.4 Q200.094 1219.32 201.975 1219.79 Q203.855 1220.26 205.905 1220.26 Q209.479 1220.26 211.341 1218.85 Q213.222 1217.44 213.222 1214.75 Q213.222 1212.26 211.473 1210.87 Q209.742 1209.46 206.639 1209.46 L203.366 1209.46 L203.366 1206.34 L206.789 1206.34 Q209.592 1206.34 211.078 1205.23 Q212.563 1204.1 212.563 1201.99 Q212.563 1199.83 211.021 1198.68 Q209.498 1197.52 206.639 1197.52 Q205.078 1197.52 203.291 1197.86 Q201.504 1198.2 199.36 1198.91 L199.36 1195.53 Q201.523 1194.92 203.404 1194.62 Q205.304 1194.32 206.977 1194.32 Q211.303 1194.32 213.823 1196.3 Q216.344 1198.25 216.344 1201.6 Q216.344 1203.93 215.008 1205.55 Q213.673 1207.15 211.209 1207.77 Z" fill="#000000" fill-rule="nonzero" fill-opacity="1" /><path clip-path="url(#clip020)" d="M145.243 503.072 L152.882 503.072 L152.882 476.707 L144.572 478.374 L144.572 474.114 L152.836 472.448 L157.512 472.448 L157.512 503.072 L165.15 503.072 L165.15 507.008 L145.243 507.008 L145.243 503.072 Z" fill="#000000" fill-rule="nonzero" fill-opacity="1" /><path clip-path="url(#clip020)" d="M184.595 475.526 Q180.984 475.526 179.155 479.091 Q177.349 482.633 177.349 489.762 Q177.349 496.869 179.155 500.434 Q180.984 503.975 184.595 503.975 Q188.229 503.975 190.035 500.434 Q191.863 496.869 191.863 489.762 Q191.863 482.633 190.035 479.091 Q188.229 475.526 184.595 475.526 M184.595 471.823 Q190.405 471.823 193.46 476.429 Q196.539 481.012 196.539 489.762 Q196.539 498.489 193.46 503.096 Q190.405 507.679 184.595 507.679 Q178.785 507.679 175.706 503.096 Q172.65 498.489 172.65 489.762 Q172.65 481.012 175.706 476.429 Q178.785 471.823 184.595 471.823 Z" fill="#000000" fill-rule="nonzero" fill-opacity="1" /><path clip-path="url(#clip020)" d="M209.216 454.827 L199.624 469.817 L209.216 469.817 L209.216 454.827 M208.219 451.517 L212.996 451.517 L212.996 469.817 L217.002 469.817 L217.002 472.977 L212.996 472.977 L212.996 479.597 L209.216 479.597 L209.216 472.977 L196.539 472.977 L196.539 469.309 L208.219 451.517 Z" fill="#000000" fill-rule="nonzero" fill-opacity="1" /><path clip-path="url(#clip020)" d="M100.165 824.949 L38.2652 824.949 Q36.3006 824.949 36.3006 823.629 Q36.3006 822.308 38.3618 822.308 L100.004 822.308 Q102.129 822.308 102.129 823.629 Q102.129 824.949 100.165 824.949 M100.165 817.671 L38.7482 817.671 Q36.3006 817.671 36.3006 816.35 Q36.3006 815.03 38.3618 815.03 L100.004 815.03 Q102.129 815.03 102.129 816.35 Q102.129 817.671 100.165 817.671 Z" fill="#000000" fill-rule="nonzero" fill-opacity="1" /><path clip-path="url(#clip020)" d="M84.3839 747.036 Q84.9959 747.036 85.3179 747.294 Q85.6078 747.519 85.6722 747.745 Q85.7044 747.938 85.7044 748.228 Q85.7044 749.065 85.6078 751.964 Q85.5112 754.862 85.5112 755.699 Q85.5112 757.052 85.6078 759.822 Q85.7044 762.591 85.7044 763.944 Q85.7044 764.846 84.9637 764.846 Q84.4806 764.846 84.2229 764.749 Q83.9331 764.653 83.8364 764.395 Q83.7076 764.105 83.7076 763.944 Q83.6754 763.751 83.6754 763.268 Q83.6754 762.624 83.611 761.947 Q83.5144 761.271 83.3212 760.434 Q83.1279 759.596 82.6448 759.081 Q82.1617 758.534 81.4854 758.534 Q81.1956 758.534 78.8123 758.759 Q76.4291 758.984 73.6594 759.274 Q70.8575 759.564 70.471 759.596 L70.471 776.15 Q73.0797 777.664 74.8832 778.727 Q76.6867 779.789 77.2987 780.176 Q77.9106 780.562 78.297 780.788 Q78.6835 781.013 78.9089 781.142 Q80.6159 782.076 81.3566 782.076 Q83.4178 782.076 83.6754 778.984 Q83.6754 777.921 84.4484 777.921 Q85.0281 777.921 85.3501 778.179 Q85.64 778.437 85.6722 778.662 Q85.7044 778.855 85.7044 779.177 Q85.7044 780.24 85.6078 782.462 Q85.5112 784.685 85.5112 785.78 Q85.5112 786.714 85.6078 788.646 Q85.7044 790.578 85.7044 791.448 Q85.7044 791.834 85.4789 792.06 Q85.2535 792.285 84.9637 792.285 Q84.5128 792.285 84.2551 792.221 Q83.9975 792.124 83.8687 791.867 Q83.7398 791.609 83.7398 791.48 Q83.7076 791.351 83.6754 790.9 Q83.5144 788.453 82.355 786.553 Q81.1634 784.62 78.1038 782.785 L39.5856 759.854 Q39.1991 759.629 39.0059 759.467 Q38.8127 759.306 38.6516 758.984 Q38.4906 758.63 38.4906 758.115 Q38.4906 757.31 38.7482 757.149 Q38.9737 756.988 40.0687 756.891 L81.2922 752.865 Q82.1617 752.769 82.516 752.704 Q82.8381 752.608 83.1923 752.189 Q83.5144 751.738 83.611 750.933 Q83.6754 750.096 83.6754 748.55 Q83.6754 747.97 83.7076 747.745 Q83.7076 747.519 83.8687 747.294 Q84.0297 747.036 84.3839 747.036 M68.4098 759.79 L46.6709 761.883 L68.4098 774.894 L68.4098 759.79 Z" fill="#000000" fill-rule="nonzero" fill-opacity="1" /><path clip-path="url(#clip020)" d="M26.2565 740.433 Q18.4562 740.433 12.1664 737.525 Q9.52877 736.285 7.31945 734.549 Q5.11012 732.813 4.14073 731.663 Q3.17133 730.513 3.17133 730.198 Q3.17133 729.747 3.62221 729.724 Q3.84766 729.724 4.41126 730.333 Q11.9861 737.773 26.2565 737.75 Q40.572 737.75 47.8537 730.513 Q48.6428 729.724 48.8908 729.724 Q49.3417 729.724 49.3417 730.198 Q49.3417 730.513 48.4173 731.618 Q47.493 732.723 45.3739 734.436 Q43.2547 736.149 40.6622 737.389 Q34.3724 740.433 26.2565 740.433 Z" fill="#000000" fill-rule="nonzero" fill-opacity="1" /><path clip-path="url(#clip020)" d="M31.1937 701.376 Q31.374 701.376 32.0729 701.579 Q32.7717 701.781 33.8539 702.277 Q34.936 702.751 35.9279 703.405 Q36.8973 704.058 37.6187 705.14 Q38.3176 706.2 38.3176 707.417 Q38.3176 709.041 37.2355 710.123 Q36.1534 711.205 34.5302 711.205 Q33.6284 711.205 32.3885 710.731 Q24.3853 707.733 21.635 707.733 Q18.4111 707.733 18.4111 710.235 Q18.4111 711.475 18.8846 712.648 Q19.3355 713.797 19.9667 714.586 Q20.5979 715.376 21.4771 716.097 Q22.3338 716.796 22.92 717.157 Q23.4836 717.495 24.0472 717.765 L26.3467 718.351 Q26.9779 718.487 29.4352 719.14 L33.6059 720.155 Q36.717 720.876 37.01 721.034 Q37.6413 721.26 37.9794 721.756 Q38.3176 722.251 38.3176 722.747 Q38.3176 723.311 37.9794 723.694 Q37.6413 724.078 37.0551 724.078 Q36.9649 724.078 36.6268 724.01 Q36.2886 723.942 35.8152 723.83 Q35.3418 723.717 35.0712 723.672 L24.4079 720.989 Q22.4691 720.493 21.8604 720.38 Q21.2292 720.245 20.5303 720.245 Q18.4111 720.245 18.4111 721.688 Q18.4111 722.86 19.8089 723.627 Q21.2066 724.393 23.9119 725.047 Q24.6559 725.25 24.8137 725.385 Q24.9715 725.498 24.9715 725.836 Q24.9489 726.4 24.4981 726.4 Q24.3853 726.4 23.6414 726.219 Q22.8974 726.039 21.8378 725.701 Q20.7557 725.34 20.0343 725.002 Q19.4933 724.709 19.2453 724.551 Q18.9747 724.371 18.4562 723.942 Q17.9152 723.491 17.6672 722.905 Q17.3967 722.297 17.3967 721.553 Q17.3967 719.884 18.4788 718.667 Q19.5384 717.45 21.4095 717.292 Q17.3967 714.293 17.3967 710.1 Q17.3967 707.62 18.7042 706.2 Q20.0118 704.78 22.3338 704.78 Q22.8749 704.78 23.5737 704.893 Q24.2501 704.983 25.1067 705.208 Q25.9634 705.411 26.6172 705.591 Q27.271 705.772 28.3306 706.132 Q29.3676 706.493 29.8185 706.651 Q30.2693 706.809 31.3289 707.192 Q32.3659 707.553 32.4787 707.598 Q34.5753 708.432 35.7701 708.432 Q36.5591 708.432 36.9199 708.184 Q37.2806 707.913 37.2806 707.327 Q37.2806 705.749 35.725 704.577 Q34.1469 703.382 31.5769 702.616 Q31.0133 702.435 30.878 702.345 Q30.7428 702.232 30.7428 701.917 Q30.7428 701.376 31.1937 701.376 Z" fill="#000000" fill-rule="nonzero" fill-opacity="1" /><path clip-path="url(#clip020)" d="M48.8908 696.947 Q48.6653 696.947 48.1017 696.361 Q40.5269 688.921 26.2565 688.921 Q11.941 688.921 4.70433 696.068 Q3.8702 696.947 3.62221 696.947 Q3.17133 696.947 3.17133 696.496 Q3.17133 696.18 4.09564 695.076 Q5.01995 693.948 7.13909 692.258 Q9.25824 690.544 11.8508 689.282 Q18.1406 686.238 26.2565 686.238 Q34.0568 686.238 40.3466 689.147 Q42.9842 690.387 45.1935 692.122 Q47.4029 693.858 48.3723 695.008 Q49.3417 696.158 49.3417 696.496 Q49.3417 696.947 48.8908 696.947 Z" fill="#000000" fill-rule="nonzero" fill-opacity="1" /><path clip-path="url(#clip020)" d="M100.165 672.178 L38.2652 672.178 Q36.3006 672.178 36.3006 670.857 Q36.3006 669.537 38.3618 669.537 L100.004 669.537 Q102.129 669.537 102.129 670.857 Q102.129 672.178 100.165 672.178 M100.165 664.899 L38.7482 664.899 Q36.3006 664.899 36.3006 663.579 Q36.3006 662.258 38.3618 662.258 L100.004 662.258 Q102.129 662.258 102.129 663.579 Q102.129 664.899 100.165 664.899 Z" fill="#000000" fill-rule="nonzero" fill-opacity="1" /><path clip-path="url(#clip020)" d="M93.8925 655.325 L92.4497 655.325 Q92.4497 649.779 89.4964 646.916 Q89.4964 646.127 89.6768 645.992 Q89.8571 645.857 90.6913 645.857 L116.594 645.857 Q117.97 645.857 118.398 645.18 Q118.826 644.504 118.826 641.551 L118.826 640.085 L120.247 640.085 Q120.111 641.709 120.111 647.57 Q120.111 653.431 120.247 655.032 L118.826 655.032 L118.826 653.567 Q118.826 650.659 118.421 649.96 Q117.992 649.261 116.594 649.261 L92.6751 649.261 Q93.8925 651.673 93.8925 655.325 Z" fill="#000000" fill-rule="nonzero" fill-opacity="1" /><circle clip-path="url(#clip022)" cx="312.429" cy="1294.2" r="14.4" fill="#009af9" fill-rule="evenodd" fill-opacity="1" stroke="#000000" stroke-opacity="1" stroke-width="3.2"/>
<circle clip-path="url(#clip022)" cx="386.898" cy="1295.25" r="14.4" fill="#009af9" fill-rule="evenodd" fill-opacity="1" stroke="#000000" stroke-opacity="1" stroke-width="3.2"/>
<circle clip-path="url(#clip022)" cx="461.367" cy="85.838" r="14.4" fill="#009af9" fill-rule="evenodd" fill-opacity="1" stroke="#000000" stroke-opacity="1" stroke-width="3.2"/>
<circle clip-path="url(#clip022)" cx="535.836" cy="1316.5" r="14.4" fill="#009af9" fill-rule="evenodd" fill-opacity="1" stroke="#000000" stroke-opacity="1" stroke-width="3.2"/>
<circle clip-path="url(#clip022)" cx="610.304" cy="1290.21" r="14.4" fill="#009af9" fill-rule="evenodd" fill-opacity="1" stroke="#000000" stroke-opacity="1" stroke-width="3.2"/>
<circle clip-path="url(#clip022)" cx="684.773" cy="1209.64" r="14.4" fill="#009af9" fill-rule="evenodd" fill-opacity="1" stroke="#000000" stroke-opacity="1" stroke-width="3.2"/>
<circle clip-path="url(#clip022)" cx="759.242" cy="1055.84" r="14.4" fill="#009af9" fill-rule="evenodd" fill-opacity="1" stroke="#000000" stroke-opacity="1" stroke-width="3.2"/>
<circle clip-path="url(#clip022)" cx="833.711" cy="1334.57" r="14.4" fill="#009af9" fill-rule="evenodd" fill-opacity="1" stroke="#000000" stroke-opacity="1" stroke-width="3.2"/>
<circle clip-path="url(#clip022)" cx="908.18" cy="925.716" r="14.4" fill="#009af9" fill-rule="evenodd" fill-opacity="1" stroke="#000000" stroke-opacity="1" stroke-width="3.2"/>
<circle clip-path="url(#clip022)" cx="982.649" cy="1329.1" r="14.4" fill="#009af9" fill-rule="evenodd" fill-opacity="1" stroke="#000000" stroke-opacity="1" stroke-width="3.2"/>
<circle clip-path="url(#clip022)" cx="1057.12" cy="882.158" r="14.4" fill="#009af9" fill-rule="evenodd" fill-opacity="1" stroke="#000000" stroke-opacity="1" stroke-width="3.2"/>
<circle clip-path="url(#clip022)" cx="1131.59" cy="915.127" r="14.4" fill="#009af9" fill-rule="evenodd" fill-opacity="1" stroke="#000000" stroke-opacity="1" stroke-width="3.2"/>
<circle clip-path="url(#clip022)" cx="1206.06" cy="1138.27" r="14.4" fill="#009af9" fill-rule="evenodd" fill-opacity="1" stroke="#000000" stroke-opacity="1" stroke-width="3.2"/>
<circle clip-path="url(#clip022)" cx="1280.52" cy="1300.14" r="14.4" fill="#009af9" fill-rule="evenodd" fill-opacity="1" stroke="#000000" stroke-opacity="1" stroke-width="3.2"/>
<circle clip-path="url(#clip022)" cx="1354.99" cy="1335.46" r="14.4" fill="#009af9" fill-rule="evenodd" fill-opacity="1" stroke="#000000" stroke-opacity="1" stroke-width="3.2"/>
<circle clip-path="url(#clip022)" cx="1429.46" cy="1372.3" r="14.4" fill="#009af9" fill-rule="evenodd" fill-opacity="1" stroke="#000000" stroke-opacity="1" stroke-width="3.2"/>
<circle clip-path="url(#clip022)" cx="1503.93" cy="966.743" r="14.4" fill="#009af9" fill-rule="evenodd" fill-opacity="1" stroke="#000000" stroke-opacity="1" stroke-width="3.2"/>
<circle clip-path="url(#clip022)" cx="1578.4" cy="1261.94" r="14.4" fill="#009af9" fill-rule="evenodd" fill-opacity="1" stroke="#000000" stroke-opacity="1" stroke-width="3.2"/>
<circle clip-path="url(#clip022)" cx="1652.87" cy="1289.8" r="14.4" fill="#009af9" fill-rule="evenodd" fill-opacity="1" stroke="#000000" stroke-opacity="1" stroke-width="3.2"/>
<circle clip-path="url(#clip022)" cx="1727.34" cy="1059.56" r="14.4" fill="#009af9" fill-rule="evenodd" fill-opacity="1" stroke="#000000" stroke-opacity="1" stroke-width="3.2"/>
<circle clip-path="url(#clip022)" cx="1801.81" cy="1315.4" r="14.4" fill="#009af9" fill-rule="evenodd" fill-opacity="1" stroke="#000000" stroke-opacity="1" stroke-width="3.2"/>
<circle clip-path="url(#clip022)" cx="1876.28" cy="1294.83" r="14.4" fill="#009af9" fill-rule="evenodd" fill-opacity="1" stroke="#000000" stroke-opacity="1" stroke-width="3.2"/>
<circle clip-path="url(#clip022)" cx="1950.74" cy="1328.81" r="14.4" fill="#009af9" fill-rule="evenodd" fill-opacity="1" stroke="#000000" stroke-opacity="1" stroke-width="3.2"/>
<circle clip-path="url(#clip022)" cx="2025.21" cy="1311.86" r="14.4" fill="#009af9" fill-rule="evenodd" fill-opacity="1" stroke="#000000" stroke-opacity="1" stroke-width="3.2"/>
<circle clip-path="url(#clip022)" cx="2093.23" cy="1291.34" r="14.4" fill="#009af9" fill-rule="evenodd" fill-opacity="1" stroke="#000000" stroke-opacity="1" stroke-width="3.2"/>
<circle clip-path="url(#clip022)" cx="2099.68" cy="1268.86" r="14.4" fill="#009af9" fill-rule="evenodd" fill-opacity="1" stroke="#000000" stroke-opacity="1" stroke-width="3.2"/>
<circle clip-path="url(#clip022)" cx="2133.46" cy="1340.53" r="14.4" fill="#009af9" fill-rule="evenodd" fill-opacity="1" stroke="#000000" stroke-opacity="1" stroke-width="3.2"/>
<circle clip-path="url(#clip022)" cx="2168.16" cy="1272.64" r="14.4" fill="#009af9" fill-rule="evenodd" fill-opacity="1" stroke="#000000" stroke-opacity="1" stroke-width="3.2"/>
<circle clip-path="url(#clip022)" cx="2174.15" cy="1288.57" r="14.4" fill="#009af9" fill-rule="evenodd" fill-opacity="1" stroke="#000000" stroke-opacity="1" stroke-width="3.2"/>
<circle clip-path="url(#clip022)" cx="2198.65" cy="1285.37" r="14.4" fill="#009af9" fill-rule="evenodd" fill-opacity="1" stroke="#000000" stroke-opacity="1" stroke-width="3.2"/>
<circle clip-path="url(#clip022)" cx="2225.85" cy="1273.44" r="14.4" fill="#009af9" fill-rule="evenodd" fill-opacity="1" stroke="#000000" stroke-opacity="1" stroke-width="3.2"/>
<circle clip-path="url(#clip022)" cx="2248.62" cy="237.987" r="14.4" fill="#009af9" fill-rule="evenodd" fill-opacity="1" stroke="#000000" stroke-opacity="1" stroke-width="3.2"/>
<circle clip-path="url(#clip022)" cx="2250.41" cy="1304.67" r="14.4" fill="#009af9" fill-rule="evenodd" fill-opacity="1" stroke="#000000" stroke-opacity="1" stroke-width="3.2"/>
<circle clip-path="url(#clip022)" cx="2272.78" cy="981.963" r="14.4" fill="#009af9" fill-rule="evenodd" fill-opacity="1" stroke="#000000" stroke-opacity="1" stroke-width="3.2"/>
<circle clip-path="url(#clip022)" cx="2293.33" cy="1295.72" r="14.4" fill="#009af9" fill-rule="evenodd" fill-opacity="1" stroke="#000000" stroke-opacity="1" stroke-width="3.2"/>
<circle clip-path="url(#clip022)" cx="312.429" cy="900.469" r="14.4" fill="#e26f46" fill-rule="evenodd" fill-opacity="1" stroke="#000000" stroke-opacity="1" stroke-width="3.2"/>
<circle clip-path="url(#clip022)" cx="386.898" cy="899.866" r="14.4" fill="#e26f46" fill-rule="evenodd" fill-opacity="1" stroke="#000000" stroke-opacity="1" stroke-width="3.2"/>
<circle clip-path="url(#clip022)" cx="461.367" cy="255.551" r="14.4" fill="#e26f46" fill-rule="evenodd" fill-opacity="1" stroke="#000000" stroke-opacity="1" stroke-width="3.2"/>
<circle clip-path="url(#clip022)" cx="535.836" cy="886.717" r="14.4" fill="#e26f46" fill-rule="evenodd" fill-opacity="1" stroke="#000000" stroke-opacity="1" stroke-width="3.2"/>
<circle clip-path="url(#clip022)" cx="610.304" cy="899.597" r="14.4" fill="#e26f46" fill-rule="evenodd" fill-opacity="1" stroke="#000000" stroke-opacity="1" stroke-width="3.2"/>
<circle clip-path="url(#clip022)" cx="684.773" cy="889.621" r="14.4" fill="#e26f46" fill-rule="evenodd" fill-opacity="1" stroke="#000000" stroke-opacity="1" stroke-width="3.2"/>
<circle clip-path="url(#clip022)" cx="759.242" cy="864.217" r="14.4" fill="#e26f46" fill-rule="evenodd" fill-opacity="1" stroke="#000000" stroke-opacity="1" stroke-width="3.2"/>
<circle clip-path="url(#clip022)" cx="833.711" cy="908.794" r="14.4" fill="#e26f46" fill-rule="evenodd" fill-opacity="1" stroke="#000000" stroke-opacity="1" stroke-width="3.2"/>
<circle clip-path="url(#clip022)" cx="908.18" cy="847.949" r="14.4" fill="#e26f46" fill-rule="evenodd" fill-opacity="1" stroke="#000000" stroke-opacity="1" stroke-width="3.2"/>
<circle clip-path="url(#clip022)" cx="982.649" cy="889.482" r="14.4" fill="#e26f46" fill-rule="evenodd" fill-opacity="1" stroke="#000000" stroke-opacity="1" stroke-width="3.2"/>
<circle clip-path="url(#clip022)" cx="1057.12" cy="847.748" r="14.4" fill="#e26f46" fill-rule="evenodd" fill-opacity="1" stroke="#000000" stroke-opacity="1" stroke-width="3.2"/>
<circle clip-path="url(#clip022)" cx="1131.59" cy="830.372" r="14.4" fill="#e26f46" fill-rule="evenodd" fill-opacity="1" stroke="#000000" stroke-opacity="1" stroke-width="3.2"/>
<circle clip-path="url(#clip022)" cx="1206.06" cy="890.03" r="14.4" fill="#e26f46" fill-rule="evenodd" fill-opacity="1" stroke="#000000" stroke-opacity="1" stroke-width="3.2"/>
<circle clip-path="url(#clip022)" cx="1280.52" cy="893.575" r="14.4" fill="#e26f46" fill-rule="evenodd" fill-opacity="1" stroke="#000000" stroke-opacity="1" stroke-width="3.2"/>
<circle clip-path="url(#clip022)" cx="1354.99" cy="915.245" r="14.4" fill="#e26f46" fill-rule="evenodd" fill-opacity="1" stroke="#000000" stroke-opacity="1" stroke-width="3.2"/>
<circle clip-path="url(#clip022)" cx="1429.46" cy="900.081" r="14.4" fill="#e26f46" fill-rule="evenodd" fill-opacity="1" stroke="#000000" stroke-opacity="1" stroke-width="3.2"/>
<circle clip-path="url(#clip022)" cx="1503.93" cy="837.318" r="14.4" fill="#e26f46" fill-rule="evenodd" fill-opacity="1" stroke="#000000" stroke-opacity="1" stroke-width="3.2"/>
<circle clip-path="url(#clip022)" cx="1578.4" cy="893.249" r="14.4" fill="#e26f46" fill-rule="evenodd" fill-opacity="1" stroke="#000000" stroke-opacity="1" stroke-width="3.2"/>
<circle clip-path="url(#clip022)" cx="1652.87" cy="892.818" r="14.4" fill="#e26f46" fill-rule="evenodd" fill-opacity="1" stroke="#000000" stroke-opacity="1" stroke-width="3.2"/>
<circle clip-path="url(#clip022)" cx="1727.34" cy="862.843" r="14.4" fill="#e26f46" fill-rule="evenodd" fill-opacity="1" stroke="#000000" stroke-opacity="1" stroke-width="3.2"/>
<circle clip-path="url(#clip022)" cx="1801.81" cy="891.867" r="14.4" fill="#e26f46" fill-rule="evenodd" fill-opacity="1" stroke="#000000" stroke-opacity="1" stroke-width="3.2"/>
<circle clip-path="url(#clip022)" cx="1876.28" cy="899.769" r="14.4" fill="#e26f46" fill-rule="evenodd" fill-opacity="1" stroke="#000000" stroke-opacity="1" stroke-width="3.2"/>
<circle clip-path="url(#clip022)" cx="1950.74" cy="573.504" r="14.4" fill="#e26f46" fill-rule="evenodd" fill-opacity="1" stroke="#000000" stroke-opacity="1" stroke-width="3.2"/>
<circle clip-path="url(#clip022)" cx="2025.21" cy="894.233" r="14.4" fill="#e26f46" fill-rule="evenodd" fill-opacity="1" stroke="#000000" stroke-opacity="1" stroke-width="3.2"/>
<circle clip-path="url(#clip022)" cx="2093.23" cy="899.851" r="14.4" fill="#e26f46" fill-rule="evenodd" fill-opacity="1" stroke="#000000" stroke-opacity="1" stroke-width="3.2"/>
<circle clip-path="url(#clip022)" cx="2099.68" cy="912.983" r="14.4" fill="#e26f46" fill-rule="evenodd" fill-opacity="1" stroke="#000000" stroke-opacity="1" stroke-width="3.2"/>
<circle clip-path="url(#clip022)" cx="2133.46" cy="886.999" r="14.4" fill="#e26f46" fill-rule="evenodd" fill-opacity="1" stroke="#000000" stroke-opacity="1" stroke-width="3.2"/>
<circle clip-path="url(#clip022)" cx="2168.16" cy="897.961" r="14.4" fill="#e26f46" fill-rule="evenodd" fill-opacity="1" stroke="#000000" stroke-opacity="1" stroke-width="3.2"/>
<circle clip-path="url(#clip022)" cx="2174.15" cy="883.578" r="14.4" fill="#e26f46" fill-rule="evenodd" fill-opacity="1" stroke="#000000" stroke-opacity="1" stroke-width="3.2"/>
<circle clip-path="url(#clip022)" cx="2198.65" cy="791.353" r="14.4" fill="#e26f46" fill-rule="evenodd" fill-opacity="1" stroke="#000000" stroke-opacity="1" stroke-width="3.2"/>
<circle clip-path="url(#clip022)" cx="2225.85" cy="566.625" r="14.4" fill="#e26f46" fill-rule="evenodd" fill-opacity="1" stroke="#000000" stroke-opacity="1" stroke-width="3.2"/>
<circle clip-path="url(#clip022)" cx="2248.62" cy="464.915" r="14.4" fill="#e26f46" fill-rule="evenodd" fill-opacity="1" stroke="#000000" stroke-opacity="1" stroke-width="3.2"/>
<circle clip-path="url(#clip022)" cx="2250.41" cy="908.484" r="14.4" fill="#e26f46" fill-rule="evenodd" fill-opacity="1" stroke="#000000" stroke-opacity="1" stroke-width="3.2"/>
<circle clip-path="url(#clip022)" cx="2272.78" cy="876.901" r="14.4" fill="#e26f46" fill-rule="evenodd" fill-opacity="1" stroke="#000000" stroke-opacity="1" stroke-width="3.2"/>
<circle clip-path="url(#clip022)" cx="2293.33" cy="574.999" r="14.4" fill="#e26f46" fill-rule="evenodd" fill-opacity="1" stroke="#000000" stroke-opacity="1" stroke-width="3.2"/>
<path clip-path="url(#clip020)" d="M322.994 826.365 L648.757 826.365 L648.757 670.845 L322.994 670.845  Z" fill="#ffffff" fill-rule="evenodd" fill-opacity="1"/>
<polyline clip-path="url(#clip020)" style="stroke:#000000; stroke-linecap:round; stroke-linejoin:round; stroke-width:4; stroke-opacity:1; fill:none" points="322.994,826.365 648.757,826.365 648.757,670.845 322.994,670.845 322.994,826.365 "/>
<circle clip-path="url(#clip020)" cx="416.316" cy="722.685" r="20.48" fill="#009af9" fill-rule="evenodd" fill-opacity="1" stroke="#000000" stroke-opacity="1" stroke-width="4.55111"/>
<path clip-path="url(#clip020)" d="M535.637 731.377 Q535.637 731.565 535.427 732.291 Q535.216 733.017 534.701 734.141 Q534.209 735.265 533.529 736.296 Q532.85 737.303 531.726 738.053 Q530.625 738.779 529.36 738.779 Q527.674 738.779 526.55 737.655 Q525.425 736.53 525.425 734.844 Q525.425 733.907 525.917 732.619 Q529.032 724.304 529.032 721.446 Q529.032 718.097 526.432 718.097 Q525.144 718.097 523.926 718.589 Q522.732 719.057 521.912 719.713 Q521.092 720.369 520.343 721.282 Q519.617 722.172 519.242 722.781 Q518.89 723.367 518.609 723.952 L518 726.342 Q517.86 726.997 517.181 729.55 L516.127 733.884 Q515.377 737.116 515.213 737.42 Q514.979 738.076 514.464 738.428 Q513.948 738.779 513.433 738.779 Q512.847 738.779 512.449 738.428 Q512.051 738.076 512.051 737.467 Q512.051 737.374 512.121 737.022 Q512.192 736.671 512.309 736.179 Q512.426 735.687 512.473 735.406 L515.26 724.327 Q515.775 722.313 515.892 721.68 Q516.033 721.025 516.033 720.299 Q516.033 718.097 514.534 718.097 Q513.316 718.097 512.52 719.549 Q511.723 721.001 511.044 723.812 Q510.833 724.585 510.693 724.749 Q510.575 724.913 510.224 724.913 Q509.639 724.889 509.639 724.421 Q509.639 724.304 509.826 723.531 Q510.013 722.758 510.365 721.657 Q510.739 720.533 511.091 719.783 Q511.395 719.221 511.559 718.963 Q511.747 718.682 512.192 718.144 Q512.66 717.582 513.269 717.324 Q513.901 717.043 514.674 717.043 Q516.408 717.043 517.672 718.167 Q518.937 719.268 519.101 721.212 Q522.216 717.043 526.573 717.043 Q529.149 717.043 530.625 718.401 Q532.101 719.76 532.101 722.172 Q532.101 722.734 531.984 723.461 Q531.89 724.163 531.656 725.053 Q531.445 725.943 531.257 726.623 Q531.07 727.302 530.695 728.403 Q530.321 729.48 530.157 729.949 Q529.993 730.417 529.595 731.518 Q529.22 732.595 529.173 732.712 Q528.306 734.891 528.306 736.132 Q528.306 736.952 528.564 737.327 Q528.845 737.701 529.454 737.701 Q531.094 737.701 532.312 736.085 Q533.553 734.446 534.349 731.776 Q534.537 731.19 534.63 731.049 Q534.747 730.909 535.075 730.909 Q535.637 730.909 535.637 731.377 Z" fill="#000000" fill-rule="nonzero" fill-opacity="1" /><path clip-path="url(#clip020)" d="M551.425 730.956 Q551.472 730.37 552.385 730.37 L581.78 730.37 Q583.162 730.37 583.186 730.909 Q583.186 731.494 581.874 731.471 L552.713 731.471 Q551.425 731.494 551.425 730.956 M551.425 721.587 Q551.425 721.001 552.432 721.025 L581.733 721.025 Q583.162 721.025 583.186 721.587 Q583.186 722.125 581.968 722.125 L552.385 722.125 Q551.425 722.125 551.425 721.587 Z" fill="#000000" fill-rule="nonzero" fill-opacity="1" /><path clip-path="url(#clip020)" d="M601.676 710.859 L601.676 709.36 Q607.438 709.36 610.413 706.292 Q611.233 706.292 611.373 706.479 Q611.514 706.667 611.514 707.533 L611.514 734.446 Q611.514 735.874 612.217 736.32 Q612.919 736.765 615.988 736.765 L617.51 736.765 L617.51 738.24 Q615.824 738.1 609.734 738.1 Q603.644 738.1 601.981 738.24 L601.981 736.765 L603.503 736.765 Q606.525 736.765 607.251 736.343 Q607.977 735.898 607.977 734.446 L607.977 709.594 Q605.471 710.859 601.676 710.859 Z" fill="#000000" fill-rule="nonzero" fill-opacity="1" /><circle clip-path="url(#clip020)" cx="416.316" cy="774.525" r="20.48" fill="#e26f46" fill-rule="evenodd" fill-opacity="1" stroke="#000000" stroke-opacity="1" stroke-width="4.55111"/>
<path clip-path="url(#clip020)" d="M535.637 783.217 Q535.637 783.405 535.427 784.131 Q535.216 784.857 534.701 785.981 Q534.209 787.105 533.529 788.136 Q532.85 789.143 531.726 789.893 Q530.625 790.619 529.36 790.619 Q527.674 790.619 526.55 789.495 Q525.425 788.37 525.425 786.684 Q525.425 785.747 525.917 784.459 Q529.032 776.144 529.032 773.286 Q529.032 769.937 526.432 769.937 Q525.144 769.937 523.926 770.429 Q522.732 770.897 521.912 771.553 Q521.092 772.209 520.343 773.122 Q519.617 774.012 519.242 774.621 Q518.89 775.207 518.609 775.792 L518 778.182 Q517.86 778.837 517.181 781.39 L516.127 785.724 Q515.377 788.956 515.213 789.26 Q514.979 789.916 514.464 790.268 Q513.948 790.619 513.433 790.619 Q512.847 790.619 512.449 790.268 Q512.051 789.916 512.051 789.307 Q512.051 789.214 512.121 788.862 Q512.192 788.511 512.309 788.019 Q512.426 787.527 512.473 787.246 L515.26 776.167 Q515.775 774.153 515.892 773.52 Q516.033 772.865 516.033 772.139 Q516.033 769.937 514.534 769.937 Q513.316 769.937 512.52 771.389 Q511.723 772.841 511.044 775.652 Q510.833 776.425 510.693 776.589 Q510.575 776.753 510.224 776.753 Q509.639 776.729 509.639 776.261 Q509.639 776.144 509.826 775.371 Q510.013 774.598 510.365 773.497 Q510.739 772.373 511.091 771.623 Q511.395 771.061 511.559 770.803 Q511.747 770.522 512.192 769.984 Q512.66 769.422 513.269 769.164 Q513.901 768.883 514.674 768.883 Q516.408 768.883 517.672 770.007 Q518.937 771.108 519.101 773.052 Q522.216 768.883 526.573 768.883 Q529.149 768.883 530.625 770.241 Q532.101 771.6 532.101 774.012 Q532.101 774.574 531.984 775.301 Q531.89 776.003 531.656 776.893 Q531.445 777.783 531.257 778.463 Q531.07 779.142 530.695 780.243 Q530.321 781.32 530.157 781.789 Q529.993 782.257 529.595 783.358 Q529.22 784.435 529.173 784.552 Q528.306 786.731 528.306 787.972 Q528.306 788.792 528.564 789.167 Q528.845 789.541 529.454 789.541 Q531.094 789.541 532.312 787.925 Q533.553 786.286 534.349 783.616 Q534.537 783.03 534.63 782.889 Q534.747 782.749 535.075 782.749 Q535.637 782.749 535.637 783.217 Z" fill="#000000" fill-rule="nonzero" fill-opacity="1" /><path clip-path="url(#clip020)" d="M551.425 782.796 Q551.472 782.21 552.385 782.21 L581.78 782.21 Q583.162 782.21 583.186 782.749 Q583.186 783.334 581.874 783.311 L552.713 783.311 Q551.425 783.334 551.425 782.796 M551.425 773.427 Q551.425 772.841 552.432 772.865 L581.733 772.865 Q583.162 772.865 583.186 773.427 Q583.186 773.965 581.968 773.965 L552.385 773.965 Q551.425 773.965 551.425 773.427 Z" fill="#000000" fill-rule="nonzero" fill-opacity="1" /><path clip-path="url(#clip020)" d="M601.676 790.08 Q601.676 789.214 601.747 788.956 Q601.84 788.698 602.215 788.3 L611.42 778.041 Q616.456 772.373 616.456 767.431 Q616.456 764.222 614.77 761.926 Q613.107 759.631 610.038 759.631 Q607.93 759.631 606.15 760.919 Q604.37 762.207 603.55 764.503 Q603.691 764.456 604.183 764.456 Q605.377 764.456 606.033 765.206 Q606.712 765.955 606.712 766.962 Q606.712 768.25 605.869 768.883 Q605.049 769.492 604.229 769.492 Q603.902 769.492 603.457 769.422 Q603.035 769.351 602.356 768.695 Q601.676 768.016 601.676 766.822 Q601.676 763.472 604.206 760.802 Q606.759 758.132 610.647 758.132 Q615.051 758.132 617.932 760.755 Q620.836 763.355 620.836 767.431 Q620.836 768.859 620.391 770.171 Q619.969 771.459 619.384 772.466 Q618.822 773.474 617.276 775.09 Q615.73 776.706 614.489 777.854 Q613.247 779.001 610.46 781.437 L605.377 786.379 L614.02 786.379 Q618.236 786.379 618.564 786.005 Q619.032 785.325 619.618 781.742 L620.836 781.742 L619.478 790.08 L601.676 790.08 Z" fill="#000000" fill-rule="nonzero" fill-opacity="1" /></svg>
