<?xml version="1.0" encoding="utf-8"?>
<svg xmlns="http://www.w3.org/2000/svg" xmlns:xlink="http://www.w3.org/1999/xlink" width="600" height="400" viewBox="0 0 2400 1600">
<defs>
  <clipPath id="clip300">
    <rect x="0" y="0" width="2400" height="1600"/>
  </clipPath>
</defs>
<path clip-path="url(#clip300)" d="M0 1600 L2400 1600 L2400 0 L0 0  Z" fill="#ffffff" fill-rule="evenodd" fill-opacity="1"/>
<defs>
  <clipPath id="clip301">
    <rect x="480" y="0" width="1681" height="1600"/>
  </clipPath>
</defs>
<path clip-path="url(#clip300)" d="M288.059 1380.58 L2352.76 1380.58 L2352.76 47.2441 L288.059 47.2441  Z" fill="#ffffff" fill-rule="evenodd" fill-opacity="1"/>
<defs>
  <clipPath id="clip302">
    <rect x="288" y="47" width="2066" height="1334"/>
  </clipPath>
</defs>
<polyline clip-path="url(#clip302)" style="stroke:#000000; stroke-linecap:round; stroke-linejoin:round; stroke-width:2; stroke-opacity:0.1; fill:none" points="506.392,1380.58 506.392,47.2441 "/>
<polyline clip-path="url(#clip302)" style="stroke:#000000; stroke-linecap:round; stroke-linejoin:round; stroke-width:2; stroke-opacity:0.1; fill:none" points="830.158,1380.58 830.158,47.2441 "/>
<polyline clip-path="url(#clip302)" style="stroke:#000000; stroke-linecap:round; stroke-linejoin:round; stroke-width:2; stroke-opacity:0.1; fill:none" points="1153.92,1380.58 1153.92,47.2441 "/>
<polyline clip-path="url(#clip302)" style="stroke:#000000; stroke-linecap:round; stroke-linejoin:round; stroke-width:2; stroke-opacity:0.1; fill:none" points="1477.69,1380.58 1477.69,47.2441 "/>
<polyline clip-path="url(#clip302)" style="stroke:#000000; stroke-linecap:round; stroke-linejoin:round; stroke-width:2; stroke-opacity:0.1; fill:none" points="1801.46,1380.58 1801.46,47.2441 "/>
<polyline clip-path="url(#clip302)" style="stroke:#000000; stroke-linecap:round; stroke-linejoin:round; stroke-width:2; stroke-opacity:0.1; fill:none" points="2125.22,1380.58 2125.22,47.2441 "/>
<polyline clip-path="url(#clip302)" style="stroke:#000000; stroke-linecap:round; stroke-linejoin:round; stroke-width:2; stroke-opacity:0.1; fill:none" points="506.392,1380.58 506.392,47.2441 "/>
<polyline clip-path="url(#clip302)" style="stroke:#000000; stroke-linecap:round; stroke-linejoin:round; stroke-width:2; stroke-opacity:0.1; fill:none" points="830.158,1380.58 830.158,47.2441 "/>
<polyline clip-path="url(#clip302)" style="stroke:#000000; stroke-linecap:round; stroke-linejoin:round; stroke-width:2; stroke-opacity:0.1; fill:none" points="1153.92,1380.58 1153.92,47.2441 "/>
<polyline clip-path="url(#clip302)" style="stroke:#000000; stroke-linecap:round; stroke-linejoin:round; stroke-width:2; stroke-opacity:0.1; fill:none" points="1477.69,1380.58 1477.69,47.2441 "/>
<polyline clip-path="url(#clip302)" style="stroke:#000000; stroke-linecap:round; stroke-linejoin:round; stroke-width:2; stroke-opacity:0.1; fill:none" points="1801.46,1380.58 1801.46,47.2441 "/>
<polyline clip-path="url(#clip302)" style="stroke:#000000; stroke-linecap:round; stroke-linejoin:round; stroke-width:2; stroke-opacity:0.1; fill:none" points="2125.22,1380.58 2125.22,47.2441 "/>
<polyline clip-path="url(#clip302)" style="stroke:#000000; stroke-linecap:round; stroke-linejoin:round; stroke-width:2; stroke-opacity:0.1; fill:none" points="288.059,1359.32 2352.76,1359.32 "/>
<polyline clip-path="url(#clip302)" style="stroke:#000000; stroke-linecap:round; stroke-linejoin:round; stroke-width:2; stroke-opacity:0.1; fill:none" points="288.059,1187.32 2352.76,1187.32 "/>
<polyline clip-path="url(#clip302)" style="stroke:#000000; stroke-linecap:round; stroke-linejoin:round; stroke-width:2; stroke-opacity:0.1; fill:none" points="288.059,1015.32 2352.76,1015.32 "/>
<polyline clip-path="url(#clip302)" style="stroke:#000000; stroke-linecap:round; stroke-linejoin:round; stroke-width:2; stroke-opacity:0.1; fill:none" points="288.059,843.325 2352.76,843.325 "/>
<polyline clip-path="url(#clip302)" style="stroke:#000000; stroke-linecap:round; stroke-linejoin:round; stroke-width:2; stroke-opacity:0.1; fill:none" points="288.059,671.327 2352.76,671.327 "/>
<polyline clip-path="url(#clip302)" style="stroke:#000000; stroke-linecap:round; stroke-linejoin:round; stroke-width:2; stroke-opacity:0.1; fill:none" points="288.059,499.328 2352.76,499.328 "/>
<polyline clip-path="url(#clip302)" style="stroke:#000000; stroke-linecap:round; stroke-linejoin:round; stroke-width:2; stroke-opacity:0.1; fill:none" points="288.059,327.33 2352.76,327.33 "/>
<polyline clip-path="url(#clip302)" style="stroke:#000000; stroke-linecap:round; stroke-linejoin:round; stroke-width:2; stroke-opacity:0.1; fill:none" points="288.059,155.331 2352.76,155.331 "/>
<polyline clip-path="url(#clip302)" style="stroke:#000000; stroke-linecap:round; stroke-linejoin:round; stroke-width:2; stroke-opacity:0.1; fill:none" points="288.059,1359.32 2352.76,1359.32 "/>
<polyline clip-path="url(#clip302)" style="stroke:#000000; stroke-linecap:round; stroke-linejoin:round; stroke-width:2; stroke-opacity:0.1; fill:none" points="288.059,1187.32 2352.76,1187.32 "/>
<polyline clip-path="url(#clip302)" style="stroke:#000000; stroke-linecap:round; stroke-linejoin:round; stroke-width:2; stroke-opacity:0.1; fill:none" points="288.059,1015.32 2352.76,1015.32 "/>
<polyline clip-path="url(#clip302)" style="stroke:#000000; stroke-linecap:round; stroke-linejoin:round; stroke-width:2; stroke-opacity:0.1; fill:none" points="288.059,843.325 2352.76,843.325 "/>
<polyline clip-path="url(#clip302)" style="stroke:#000000; stroke-linecap:round; stroke-linejoin:round; stroke-width:2; stroke-opacity:0.1; fill:none" points="288.059,671.327 2352.76,671.327 "/>
<polyline clip-path="url(#clip302)" style="stroke:#000000; stroke-linecap:round; stroke-linejoin:round; stroke-width:2; stroke-opacity:0.1; fill:none" points="288.059,499.328 2352.76,499.328 "/>
<polyline clip-path="url(#clip302)" style="stroke:#000000; stroke-linecap:round; stroke-linejoin:round; stroke-width:2; stroke-opacity:0.1; fill:none" points="288.059,327.33 2352.76,327.33 "/>
<polyline clip-path="url(#clip302)" style="stroke:#000000; stroke-linecap:round; stroke-linejoin:round; stroke-width:2; stroke-opacity:0.1; fill:none" points="288.059,155.331 2352.76,155.331 "/>
<polyline clip-path="url(#clip300)" style="stroke:#000000; stroke-linecap:round; stroke-linejoin:round; stroke-width:4; stroke-opacity:1; fill:none" points="288.059,1380.58 2352.76,1380.58 "/>
<polyline clip-path="url(#clip300)" style="stroke:#000000; stroke-linecap:round; stroke-linejoin:round; stroke-width:4; stroke-opacity:1; fill:none" points="288.059,47.2441 2352.76,47.2441 "/>
<polyline clip-path="url(#clip300)" style="stroke:#000000; stroke-linecap:round; stroke-linejoin:round; stroke-width:4; stroke-opacity:1; fill:none" points="506.392,1380.58 506.392,1361.69 "/>
<polyline clip-path="url(#clip300)" style="stroke:#000000; stroke-linecap:round; stroke-linejoin:round; stroke-width:4; stroke-opacity:1; fill:none" points="830.158,1380.58 830.158,1361.69 "/>
<polyline clip-path="url(#clip300)" style="stroke:#000000; stroke-linecap:round; stroke-linejoin:round; stroke-width:4; stroke-opacity:1; fill:none" points="1153.92,1380.58 1153.92,1361.69 "/>
<polyline clip-path="url(#clip300)" style="stroke:#000000; stroke-linecap:round; stroke-linejoin:round; stroke-width:4; stroke-opacity:1; fill:none" points="1477.69,1380.58 1477.69,1361.69 "/>
<polyline clip-path="url(#clip300)" style="stroke:#000000; stroke-linecap:round; stroke-linejoin:round; stroke-width:4; stroke-opacity:1; fill:none" points="1801.46,1380.58 1801.46,1361.69 "/>
<polyline clip-path="url(#clip300)" style="stroke:#000000; stroke-linecap:round; stroke-linejoin:round; stroke-width:4; stroke-opacity:1; fill:none" points="2125.22,1380.58 2125.22,1361.69 "/>
<polyline clip-path="url(#clip300)" style="stroke:#000000; stroke-linecap:round; stroke-linejoin:round; stroke-width:4; stroke-opacity:1; fill:none" points="506.392,47.2441 506.392,66.1417 "/>
<polyline clip-path="url(#clip300)" style="stroke:#000000; stroke-linecap:round; stroke-linejoin:round; stroke-width:4; stroke-opacity:1; fill:none" points="830.158,47.2441 830.158,66.1417 "/>
<polyline clip-path="url(#clip300)" style="stroke:#000000; stroke-linecap:round; stroke-linejoin:round; stroke-width:4; stroke-opacity:1; fill:none" points="1153.92,47.2441 1153.92,66.1417 "/>
<polyline clip-path="url(#clip300)" style="stroke:#000000; stroke-linecap:round; stroke-linejoin:round; stroke-width:4; stroke-opacity:1; fill:none" points="1477.69,47.2441 1477.69,66.1417 "/>
<polyline clip-path="url(#clip300)" style="stroke:#000000; stroke-linecap:round; stroke-linejoin:round; stroke-width:4; stroke-opacity:1; fill:none" points="1801.46,47.2441 1801.46,66.1417 "/>
<polyline clip-path="url(#clip300)" style="stroke:#000000; stroke-linecap:round; stroke-linejoin:round; stroke-width:4; stroke-opacity:1; fill:none" points="2125.22,47.2441 2125.22,66.1417 "/>
<path clip-path="url(#clip300)" d="M456.272 1454.71 L463.911 1454.71 L463.911 1428.34 L455.601 1430.01 L455.601 1425.75 L463.865 1424.08 L468.541 1424.08 L468.541 1454.71 L476.179 1454.71 L476.179 1458.64 L456.272 1458.64 L456.272 1454.71 Z" fill="#000000" fill-rule="nonzero" fill-opacity="1" /><path clip-path="url(#clip300)" d="M495.624 1427.16 Q492.013 1427.16 490.184 1430.73 Q488.378 1434.27 488.378 1441.4 Q488.378 1448.51 490.184 1452.07 Q492.013 1455.61 495.624 1455.61 Q499.258 1455.61 501.064 1452.07 Q502.892 1448.51 502.892 1441.4 Q502.892 1434.27 501.064 1430.73 Q499.258 1427.16 495.624 1427.16 M495.624 1423.46 Q501.434 1423.46 504.489 1428.07 Q507.568 1432.65 507.568 1441.4 Q507.568 1450.13 504.489 1454.73 Q501.434 1459.32 495.624 1459.32 Q489.814 1459.32 486.735 1454.73 Q483.679 1450.13 483.679 1441.4 Q483.679 1432.65 486.735 1428.07 Q489.814 1423.46 495.624 1423.46 Z" fill="#000000" fill-rule="nonzero" fill-opacity="1" /><path clip-path="url(#clip300)" d="M507.568 1417.56 L531.68 1417.56 L531.68 1420.76 L507.568 1420.76 L507.568 1417.56 Z" fill="#000000" fill-rule="nonzero" fill-opacity="1" /><path clip-path="url(#clip300)" d="M551.39 1416.09 Q554.117 1416.68 555.641 1418.52 Q557.183 1420.36 557.183 1423.07 Q557.183 1427.23 554.324 1429.5 Q551.465 1431.78 546.199 1431.78 Q544.431 1431.78 542.551 1431.42 Q540.689 1431.08 538.695 1430.39 L538.695 1426.72 Q540.275 1427.64 542.156 1428.11 Q544.036 1428.58 546.086 1428.58 Q549.66 1428.58 551.522 1427.17 Q553.403 1425.76 553.403 1423.07 Q553.403 1420.59 551.654 1419.2 Q549.923 1417.79 546.82 1417.79 L543.547 1417.79 L543.547 1414.66 L546.97 1414.66 Q549.773 1414.66 551.259 1413.56 Q552.744 1412.43 552.744 1410.32 Q552.744 1408.16 551.202 1407.01 Q549.679 1405.84 546.82 1405.84 Q545.259 1405.84 543.472 1406.18 Q541.685 1406.52 539.541 1407.24 L539.541 1403.85 Q541.704 1403.25 543.585 1402.95 Q545.485 1402.65 547.159 1402.65 Q551.484 1402.65 554.005 1404.62 Q556.525 1406.58 556.525 1409.93 Q556.525 1412.26 555.189 1413.88 Q553.854 1415.47 551.39 1416.09 Z" fill="#000000" fill-rule="nonzero" fill-opacity="1" /><path clip-path="url(#clip300)" d="M780.273 1454.71 L787.912 1454.71 L787.912 1428.34 L779.602 1430.01 L779.602 1425.75 L787.866 1424.08 L792.541 1424.08 L792.541 1454.71 L800.18 1454.71 L800.18 1458.64 L780.273 1458.64 L780.273 1454.71 Z" fill="#000000" fill-rule="nonzero" fill-opacity="1" /><path clip-path="url(#clip300)" d="M819.625 1427.16 Q816.014 1427.16 814.185 1430.73 Q812.379 1434.27 812.379 1441.4 Q812.379 1448.51 814.185 1452.07 Q816.014 1455.61 819.625 1455.61 Q823.259 1455.61 825.064 1452.07 Q826.893 1448.51 826.893 1441.4 Q826.893 1434.27 825.064 1430.73 Q823.259 1427.16 819.625 1427.16 M819.625 1423.46 Q825.435 1423.46 828.49 1428.07 Q831.569 1432.65 831.569 1441.4 Q831.569 1450.13 828.49 1454.73 Q825.435 1459.32 819.625 1459.32 Q813.814 1459.32 810.736 1454.73 Q807.68 1450.13 807.68 1441.4 Q807.68 1432.65 810.736 1428.07 Q813.814 1423.46 819.625 1423.46 Z" fill="#000000" fill-rule="nonzero" fill-opacity="1" /><path clip-path="url(#clip300)" d="M831.569 1417.56 L855.681 1417.56 L855.681 1420.76 L831.569 1420.76 L831.569 1417.56 Z" fill="#000000" fill-rule="nonzero" fill-opacity="1" /><path clip-path="url(#clip300)" d="M864.539 1428.04 L870.746 1428.04 L870.746 1406.62 L863.994 1407.97 L863.994 1404.51 L870.708 1403.15 L874.507 1403.15 L874.507 1428.04 L880.714 1428.04 L880.714 1431.23 L864.539 1431.23 L864.539 1428.04 Z" fill="#000000" fill-rule="nonzero" fill-opacity="1" /><path clip-path="url(#clip300)" d="M1120.25 1454.71 L1127.89 1454.71 L1127.89 1428.34 L1119.58 1430.01 L1119.58 1425.75 L1127.84 1424.08 L1132.52 1424.08 L1132.52 1454.71 L1140.16 1454.71 L1140.16 1458.64 L1120.25 1458.64 L1120.25 1454.71 Z" fill="#000000" fill-rule="nonzero" fill-opacity="1" /><path clip-path="url(#clip300)" d="M1159.6 1427.16 Q1155.99 1427.16 1154.16 1430.73 Q1152.36 1434.27 1152.36 1441.4 Q1152.36 1448.51 1154.16 1452.07 Q1155.99 1455.61 1159.6 1455.61 Q1163.24 1455.61 1165.04 1452.07 Q1166.87 1448.51 1166.87 1441.4 Q1166.87 1434.27 1165.04 1430.73 Q1163.24 1427.16 1159.6 1427.16 M1159.6 1423.46 Q1165.41 1423.46 1168.47 1428.07 Q1171.55 1432.65 1171.55 1441.4 Q1171.55 1450.13 1168.47 1454.73 Q1165.41 1459.32 1159.6 1459.32 Q1153.79 1459.32 1150.71 1454.73 Q1147.66 1450.13 1147.66 1441.4 Q1147.66 1432.65 1150.71 1428.07 Q1153.79 1423.46 1159.6 1423.46 Z" fill="#000000" fill-rule="nonzero" fill-opacity="1" /><path clip-path="url(#clip300)" d="M1172.09 1428.04 L1178.3 1428.04 L1178.3 1406.62 L1171.55 1407.97 L1171.55 1404.51 L1178.26 1403.15 L1182.06 1403.15 L1182.06 1428.04 L1188.27 1428.04 L1188.27 1431.23 L1172.09 1431.23 L1172.09 1428.04 Z" fill="#000000" fill-rule="nonzero" fill-opacity="1" /><path clip-path="url(#clip300)" d="M1443.13 1454.71 L1450.77 1454.71 L1450.77 1428.34 L1442.46 1430.01 L1442.46 1425.75 L1450.73 1424.08 L1455.4 1424.08 L1455.4 1454.71 L1463.04 1454.71 L1463.04 1458.64 L1443.13 1458.64 L1443.13 1454.71 Z" fill="#000000" fill-rule="nonzero" fill-opacity="1" /><path clip-path="url(#clip300)" d="M1482.48 1427.16 Q1478.87 1427.16 1477.04 1430.73 Q1475.24 1434.27 1475.24 1441.4 Q1475.24 1448.51 1477.04 1452.07 Q1478.87 1455.61 1482.48 1455.61 Q1486.12 1455.61 1487.92 1452.07 Q1489.75 1448.51 1489.75 1441.4 Q1489.75 1434.27 1487.92 1430.73 Q1486.12 1427.16 1482.48 1427.16 M1482.48 1423.46 Q1488.29 1423.46 1491.35 1428.07 Q1494.43 1432.65 1494.43 1441.4 Q1494.43 1450.13 1491.35 1454.73 Q1488.29 1459.32 1482.48 1459.32 Q1476.67 1459.32 1473.6 1454.73 Q1470.54 1450.13 1470.54 1441.4 Q1470.54 1432.65 1473.6 1428.07 Q1476.67 1423.46 1482.48 1423.46 Z" fill="#000000" fill-rule="nonzero" fill-opacity="1" /><path clip-path="url(#clip300)" d="M1507.12 1416.09 Q1509.85 1416.68 1511.37 1418.52 Q1512.92 1420.36 1512.92 1423.07 Q1512.92 1427.23 1510.06 1429.5 Q1507.2 1431.78 1501.93 1431.78 Q1500.17 1431.78 1498.28 1431.42 Q1496.42 1431.08 1494.43 1430.39 L1494.43 1426.72 Q1496.01 1427.64 1497.89 1428.11 Q1499.77 1428.58 1501.82 1428.58 Q1505.39 1428.58 1507.26 1427.17 Q1509.14 1425.76 1509.14 1423.07 Q1509.14 1420.59 1507.39 1419.2 Q1505.66 1417.79 1502.55 1417.79 L1499.28 1417.79 L1499.28 1414.66 L1502.7 1414.66 Q1505.51 1414.66 1506.99 1413.56 Q1508.48 1412.43 1508.48 1410.32 Q1508.48 1408.16 1506.94 1407.01 Q1505.41 1405.84 1502.55 1405.84 Q1500.99 1405.84 1499.21 1406.18 Q1497.42 1406.52 1495.28 1407.24 L1495.28 1403.85 Q1497.44 1403.25 1499.32 1402.95 Q1501.22 1402.65 1502.89 1402.65 Q1507.22 1402.65 1509.74 1404.62 Q1512.26 1406.58 1512.26 1409.93 Q1512.26 1412.26 1510.92 1413.88 Q1509.59 1415.47 1507.12 1416.09 Z" fill="#000000" fill-rule="nonzero" fill-opacity="1" /><path clip-path="url(#clip300)" d="M1767.06 1454.71 L1774.7 1454.71 L1774.7 1428.34 L1766.39 1430.01 L1766.39 1425.75 L1774.65 1424.08 L1779.33 1424.08 L1779.33 1454.71 L1786.97 1454.71 L1786.97 1458.64 L1767.06 1458.64 L1767.06 1454.71 Z" fill="#000000" fill-rule="nonzero" fill-opacity="1" /><path clip-path="url(#clip300)" d="M1806.41 1427.16 Q1802.8 1427.16 1800.97 1430.73 Q1799.16 1434.27 1799.16 1441.4 Q1799.16 1448.51 1800.97 1452.07 Q1802.8 1455.61 1806.41 1455.61 Q1810.04 1455.61 1811.85 1452.07 Q1813.68 1448.51 1813.68 1441.4 Q1813.68 1434.27 1811.85 1430.73 Q1810.04 1427.16 1806.41 1427.16 M1806.41 1423.46 Q1812.22 1423.46 1815.28 1428.07 Q1818.35 1432.65 1818.35 1441.4 Q1818.35 1450.13 1815.28 1454.73 Q1812.22 1459.32 1806.41 1459.32 Q1800.6 1459.32 1797.52 1454.73 Q1794.47 1450.13 1794.47 1441.4 Q1794.47 1432.65 1797.52 1428.07 Q1800.6 1423.46 1806.41 1423.46 Z" fill="#000000" fill-rule="nonzero" fill-opacity="1" /><path clip-path="url(#clip300)" d="M1819.54 1403.15 L1834.45 1403.15 L1834.45 1406.35 L1823.02 1406.35 L1823.02 1413.24 Q1823.85 1412.95 1824.67 1412.82 Q1825.5 1412.67 1826.33 1412.67 Q1831.03 1412.67 1833.78 1415.25 Q1836.52 1417.82 1836.52 1422.23 Q1836.52 1426.76 1833.7 1429.28 Q1830.88 1431.78 1825.75 1431.78 Q1823.98 1431.78 1822.13 1431.48 Q1820.31 1431.18 1818.35 1430.58 L1818.35 1426.76 Q1820.05 1427.68 1821.85 1428.13 Q1823.66 1428.58 1825.67 1428.58 Q1828.92 1428.58 1830.82 1426.87 Q1832.72 1425.16 1832.72 1422.23 Q1832.72 1419.29 1830.82 1417.58 Q1828.92 1415.87 1825.67 1415.87 Q1824.15 1415.87 1822.62 1416.21 Q1821.12 1416.55 1819.54 1417.26 L1819.54 1403.15 Z" fill="#000000" fill-rule="nonzero" fill-opacity="1" /><path clip-path="url(#clip300)" d="M2090.88 1454.71 L2098.52 1454.71 L2098.52 1428.34 L2090.21 1430.01 L2090.21 1425.75 L2098.47 1424.08 L2103.15 1424.08 L2103.15 1454.71 L2110.79 1454.71 L2110.79 1458.64 L2090.88 1458.64 L2090.88 1454.71 Z" fill="#000000" fill-rule="nonzero" fill-opacity="1" /><path clip-path="url(#clip300)" d="M2130.23 1427.16 Q2126.62 1427.16 2124.79 1430.73 Q2122.99 1434.27 2122.99 1441.4 Q2122.99 1448.51 2124.79 1452.07 Q2126.62 1455.61 2130.23 1455.61 Q2133.87 1455.61 2135.67 1452.07 Q2137.5 1448.51 2137.5 1441.4 Q2137.5 1434.27 2135.67 1430.73 Q2133.87 1427.16 2130.23 1427.16 M2130.23 1423.46 Q2136.04 1423.46 2139.1 1428.07 Q2142.18 1432.65 2142.18 1441.4 Q2142.18 1450.13 2139.1 1454.73 Q2136.04 1459.32 2130.23 1459.32 Q2124.42 1459.32 2121.34 1454.73 Q2118.29 1450.13 2118.29 1441.4 Q2118.29 1432.65 2121.34 1428.07 Q2124.42 1423.46 2130.23 1423.46 Z" fill="#000000" fill-rule="nonzero" fill-opacity="1" /><path clip-path="url(#clip300)" d="M2142.18 1403.15 L2160.23 1403.15 L2160.23 1404.77 L2150.04 1431.23 L2146.07 1431.23 L2155.66 1406.35 L2142.18 1406.35 L2142.18 1403.15 Z" fill="#000000" fill-rule="nonzero" fill-opacity="1" /><path clip-path="url(#clip300)" d="M1224.53 1571.84 L1224.53 1509.94 Q1224.53 1507.98 1225.85 1507.98 Q1227.17 1507.98 1227.17 1510.04 L1227.17 1571.68 Q1227.17 1573.81 1225.85 1573.81 Q1224.53 1573.81 1224.53 1571.84 M1231.81 1571.84 L1231.81 1510.42 Q1231.81 1507.98 1233.13 1507.98 Q1234.45 1507.98 1234.45 1510.04 L1234.45 1571.68 Q1234.45 1573.81 1233.13 1573.81 Q1231.81 1573.81 1231.81 1571.84 Z" fill="#000000" fill-rule="nonzero" fill-opacity="1" /><path clip-path="url(#clip300)" d="M1302.44 1556.06 Q1302.44 1556.67 1302.18 1556.99 Q1301.96 1557.28 1301.73 1557.35 Q1301.54 1557.38 1301.25 1557.38 Q1300.41 1557.38 1297.51 1557.28 Q1294.62 1557.19 1293.78 1557.19 Q1292.43 1557.19 1289.66 1557.28 Q1286.89 1557.38 1285.53 1557.38 Q1284.63 1557.38 1284.63 1556.64 Q1284.63 1556.16 1284.73 1555.9 Q1284.83 1555.61 1285.08 1555.51 Q1285.37 1555.38 1285.53 1555.38 Q1285.73 1555.35 1286.21 1555.35 Q1286.85 1555.35 1287.53 1555.29 Q1288.21 1555.19 1289.04 1555 Q1289.88 1554.8 1290.4 1554.32 Q1290.94 1553.84 1290.94 1553.16 Q1290.94 1552.87 1290.72 1550.49 Q1290.49 1548.11 1290.2 1545.34 Q1289.91 1542.53 1289.88 1542.15 L1273.33 1542.15 Q1271.81 1544.76 1270.75 1546.56 Q1269.69 1548.36 1269.3 1548.97 Q1268.92 1549.59 1268.69 1549.97 Q1268.46 1550.36 1268.34 1550.58 Q1267.4 1552.29 1267.4 1553.03 Q1267.4 1555.09 1270.49 1555.35 Q1271.56 1555.35 1271.56 1556.12 Q1271.56 1556.7 1271.3 1557.03 Q1271.04 1557.32 1270.82 1557.35 Q1270.62 1557.38 1270.3 1557.38 Q1269.24 1557.38 1267.02 1557.28 Q1264.79 1557.19 1263.7 1557.19 Q1262.76 1557.19 1260.83 1557.28 Q1258.9 1557.38 1258.03 1557.38 Q1257.64 1557.38 1257.42 1557.15 Q1257.19 1556.93 1257.19 1556.64 Q1257.19 1556.19 1257.26 1555.93 Q1257.35 1555.67 1257.61 1555.54 Q1257.87 1555.42 1258 1555.42 Q1258.13 1555.38 1258.58 1555.35 Q1261.03 1555.19 1262.93 1554.03 Q1264.86 1552.84 1266.69 1549.78 L1289.62 1511.26 Q1289.85 1510.88 1290.01 1510.68 Q1290.17 1510.49 1290.49 1510.33 Q1290.85 1510.17 1291.36 1510.17 Q1292.17 1510.17 1292.33 1510.42 Q1292.49 1510.65 1292.59 1511.74 L1296.61 1552.97 Q1296.71 1553.84 1296.77 1554.19 Q1296.87 1554.51 1297.29 1554.87 Q1297.74 1555.19 1298.54 1555.29 Q1299.38 1555.35 1300.93 1555.35 Q1301.51 1555.35 1301.73 1555.38 Q1301.96 1555.38 1302.18 1555.54 Q1302.44 1555.71 1302.44 1556.06 M1289.69 1540.09 L1287.59 1518.35 L1274.58 1540.09 L1289.69 1540.09 Z" fill="#000000" fill-rule="nonzero" fill-opacity="1" /><path clip-path="url(#clip300)" d="M1309.05 1497.93 Q1309.05 1490.13 1311.95 1483.84 Q1313.19 1481.2 1314.93 1479 Q1316.66 1476.79 1317.81 1475.82 Q1318.96 1474.85 1319.28 1474.85 Q1319.73 1474.85 1319.75 1475.3 Q1319.75 1475.52 1319.14 1476.09 Q1311.71 1483.66 1311.73 1497.93 Q1311.73 1512.25 1318.96 1519.53 Q1319.75 1520.32 1319.75 1520.57 Q1319.75 1521.02 1319.28 1521.02 Q1318.96 1521.02 1317.86 1520.09 Q1316.76 1519.17 1315.04 1517.05 Q1313.33 1514.93 1312.09 1512.34 Q1309.05 1506.05 1309.05 1497.93 Z" fill="#000000" fill-rule="nonzero" fill-opacity="1" /><path clip-path="url(#clip300)" d="M1348.1 1502.87 Q1348.1 1503.05 1347.9 1503.75 Q1347.7 1504.45 1347.2 1505.53 Q1346.73 1506.61 1346.07 1507.6 Q1345.42 1508.57 1344.34 1509.29 Q1343.28 1509.99 1342.06 1509.99 Q1340.44 1509.99 1339.36 1508.91 Q1338.27 1507.83 1338.27 1506.21 Q1338.27 1505.3 1338.75 1504.06 Q1341.74 1496.06 1341.74 1493.31 Q1341.74 1490.09 1339.24 1490.09 Q1338 1490.09 1336.83 1490.56 Q1335.68 1491.01 1334.89 1491.64 Q1334.1 1492.27 1333.38 1493.15 Q1332.68 1494.01 1332.32 1494.6 Q1331.98 1495.16 1331.71 1495.72 L1331.13 1498.02 Q1330.99 1498.65 1330.34 1501.11 L1329.32 1505.28 Q1328.6 1508.39 1328.44 1508.69 Q1328.22 1509.32 1327.72 1509.66 Q1327.23 1509.99 1326.73 1509.99 Q1326.17 1509.99 1325.78 1509.66 Q1325.4 1509.32 1325.4 1508.73 Q1325.4 1508.64 1325.47 1508.3 Q1325.54 1507.96 1325.65 1507.49 Q1325.76 1507.02 1325.81 1506.75 L1328.49 1496.08 Q1328.98 1494.15 1329.1 1493.54 Q1329.23 1492.91 1329.23 1492.21 Q1329.23 1490.09 1327.79 1490.09 Q1326.62 1490.09 1325.85 1491.48 Q1325.08 1492.88 1324.43 1495.59 Q1324.23 1496.33 1324.09 1496.49 Q1323.98 1496.65 1323.64 1496.65 Q1323.08 1496.62 1323.08 1496.17 Q1323.08 1496.06 1323.26 1495.32 Q1323.44 1494.57 1323.78 1493.51 Q1324.14 1492.43 1324.48 1491.71 Q1324.77 1491.17 1324.93 1490.92 Q1325.11 1490.65 1325.54 1490.13 Q1325.99 1489.59 1326.57 1489.34 Q1327.18 1489.07 1327.93 1489.07 Q1329.59 1489.07 1330.81 1490.15 Q1332.03 1491.21 1332.19 1493.09 Q1335.18 1489.07 1339.38 1489.07 Q1341.86 1489.07 1343.28 1490.38 Q1344.7 1491.69 1344.7 1494.01 Q1344.7 1494.55 1344.59 1495.25 Q1344.5 1495.93 1344.27 1496.78 Q1344.07 1497.64 1343.89 1498.29 Q1343.71 1498.95 1343.35 1500.01 Q1342.98 1501.04 1342.83 1501.49 Q1342.67 1501.95 1342.29 1503 Q1341.93 1504.04 1341.88 1504.15 Q1341.05 1506.25 1341.05 1507.45 Q1341.05 1508.24 1341.29 1508.6 Q1341.56 1508.96 1342.15 1508.96 Q1343.73 1508.96 1344.9 1507.4 Q1346.1 1505.82 1346.86 1503.25 Q1347.04 1502.69 1347.13 1502.55 Q1347.25 1502.42 1347.56 1502.42 Q1348.1 1502.42 1348.1 1502.87 Z" fill="#000000" fill-rule="nonzero" fill-opacity="1" /><path clip-path="url(#clip300)" d="M1352.53 1520.57 Q1352.53 1520.34 1353.12 1519.78 Q1360.56 1512.2 1360.56 1497.93 Q1360.56 1483.62 1353.41 1476.38 Q1352.53 1475.55 1352.53 1475.3 Q1352.53 1474.85 1352.98 1474.85 Q1353.3 1474.85 1354.4 1475.77 Q1355.53 1476.7 1357.22 1478.82 Q1358.93 1480.93 1360.2 1483.53 Q1363.24 1489.82 1363.24 1497.93 Q1363.24 1505.73 1360.33 1512.02 Q1359.09 1514.66 1357.36 1516.87 Q1355.62 1519.08 1354.47 1520.05 Q1353.32 1521.02 1352.98 1521.02 Q1352.53 1521.02 1352.53 1520.57 Z" fill="#000000" fill-rule="nonzero" fill-opacity="1" /><path clip-path="url(#clip300)" d="M1377.3 1571.84 L1377.3 1509.94 Q1377.3 1507.98 1378.62 1507.98 Q1379.94 1507.98 1379.94 1510.04 L1379.94 1571.68 Q1379.94 1573.81 1378.62 1573.81 Q1377.3 1573.81 1377.3 1571.84 M1384.58 1571.84 L1384.58 1510.42 Q1384.58 1507.98 1385.9 1507.98 Q1387.22 1507.98 1387.22 1510.04 L1387.22 1571.68 Q1387.22 1573.81 1385.9 1573.81 Q1384.58 1573.81 1384.58 1571.84 Z" fill="#000000" fill-rule="nonzero" fill-opacity="1" /><path clip-path="url(#clip300)" d="M1394.15 1565.57 L1394.15 1564.13 Q1399.7 1564.13 1402.56 1561.17 Q1403.35 1561.17 1403.49 1561.35 Q1403.62 1561.53 1403.62 1562.37 L1403.62 1588.27 Q1403.62 1589.65 1404.3 1590.07 Q1404.97 1590.5 1407.93 1590.5 L1409.39 1590.5 L1409.39 1591.92 Q1407.77 1591.79 1401.91 1591.79 Q1396.05 1591.79 1394.45 1591.92 L1394.45 1590.5 L1395.91 1590.5 Q1398.82 1590.5 1399.52 1590.1 Q1400.22 1589.67 1400.22 1588.27 L1400.22 1564.35 Q1397.8 1565.57 1394.15 1565.57 Z" fill="#000000" fill-rule="nonzero" fill-opacity="1" /><polyline clip-path="url(#clip300)" style="stroke:#000000; stroke-linecap:round; stroke-linejoin:round; stroke-width:4; stroke-opacity:1; fill:none" points="288.059,1380.58 288.059,47.2441 "/>
<polyline clip-path="url(#clip300)" style="stroke:#000000; stroke-linecap:round; stroke-linejoin:round; stroke-width:4; stroke-opacity:1; fill:none" points="2352.76,1380.58 2352.76,47.2441 "/>
<polyline clip-path="url(#clip300)" style="stroke:#000000; stroke-linecap:round; stroke-linejoin:round; stroke-width:4; stroke-opacity:1; fill:none" points="288.059,1359.32 306.957,1359.32 "/>
<polyline clip-path="url(#clip300)" style="stroke:#000000; stroke-linecap:round; stroke-linejoin:round; stroke-width:4; stroke-opacity:1; fill:none" points="288.059,1187.32 306.957,1187.32 "/>
<polyline clip-path="url(#clip300)" style="stroke:#000000; stroke-linecap:round; stroke-linejoin:round; stroke-width:4; stroke-opacity:1; fill:none" points="288.059,1015.32 306.957,1015.32 "/>
<polyline clip-path="url(#clip300)" style="stroke:#000000; stroke-linecap:round; stroke-linejoin:round; stroke-width:4; stroke-opacity:1; fill:none" points="288.059,843.325 306.957,843.325 "/>
<polyline clip-path="url(#clip300)" style="stroke:#000000; stroke-linecap:round; stroke-linejoin:round; stroke-width:4; stroke-opacity:1; fill:none" points="288.059,671.327 306.957,671.327 "/>
<polyline clip-path="url(#clip300)" style="stroke:#000000; stroke-linecap:round; stroke-linejoin:round; stroke-width:4; stroke-opacity:1; fill:none" points="288.059,499.328 306.957,499.328 "/>
<polyline clip-path="url(#clip300)" style="stroke:#000000; stroke-linecap:round; stroke-linejoin:round; stroke-width:4; stroke-opacity:1; fill:none" points="288.059,327.33 306.957,327.33 "/>
<polyline clip-path="url(#clip300)" style="stroke:#000000; stroke-linecap:round; stroke-linejoin:round; stroke-width:4; stroke-opacity:1; fill:none" points="288.059,155.331 306.957,155.331 "/>
<polyline clip-path="url(#clip300)" style="stroke:#000000; stroke-linecap:round; stroke-linejoin:round; stroke-width:4; stroke-opacity:1; fill:none" points="2352.76,1359.32 2333.86,1359.32 "/>
<polyline clip-path="url(#clip300)" style="stroke:#000000; stroke-linecap:round; stroke-linejoin:round; stroke-width:4; stroke-opacity:1; fill:none" points="2352.76,1187.32 2333.86,1187.32 "/>
<polyline clip-path="url(#clip300)" style="stroke:#000000; stroke-linecap:round; stroke-linejoin:round; stroke-width:4; stroke-opacity:1; fill:none" points="2352.76,1015.32 2333.86,1015.32 "/>
<polyline clip-path="url(#clip300)" style="stroke:#000000; stroke-linecap:round; stroke-linejoin:round; stroke-width:4; stroke-opacity:1; fill:none" points="2352.76,843.325 2333.86,843.325 "/>
<polyline clip-path="url(#clip300)" style="stroke:#000000; stroke-linecap:round; stroke-linejoin:round; stroke-width:4; stroke-opacity:1; fill:none" points="2352.76,671.327 2333.86,671.327 "/>
<polyline clip-path="url(#clip300)" style="stroke:#000000; stroke-linecap:round; stroke-linejoin:round; stroke-width:4; stroke-opacity:1; fill:none" points="2352.76,499.328 2333.86,499.328 "/>
<polyline clip-path="url(#clip300)" style="stroke:#000000; stroke-linecap:round; stroke-linejoin:round; stroke-width:4; stroke-opacity:1; fill:none" points="2352.76,327.33 2333.86,327.33 "/>
<polyline clip-path="url(#clip300)" style="stroke:#000000; stroke-linecap:round; stroke-linejoin:round; stroke-width:4; stroke-opacity:1; fill:none" points="2352.76,155.331 2333.86,155.331 "/>
<path clip-path="url(#clip300)" d="M126.924 1379.11 L134.563 1379.11 L134.563 1352.75 L126.252 1354.41 L126.252 1350.16 L134.516 1348.49 L139.192 1348.49 L139.192 1379.11 L146.831 1379.11 L146.831 1383.05 L126.924 1383.05 L126.924 1379.11 Z" fill="#000000" fill-rule="nonzero" fill-opacity="1" /><path clip-path="url(#clip300)" d="M166.275 1351.57 Q162.664 1351.57 160.836 1355.13 Q159.03 1358.67 159.03 1365.8 Q159.03 1372.91 160.836 1376.47 Q162.664 1380.02 166.275 1380.02 Q169.91 1380.02 171.715 1376.47 Q173.544 1372.91 173.544 1365.8 Q173.544 1358.67 171.715 1355.13 Q169.91 1351.57 166.275 1351.57 M166.275 1347.86 Q172.085 1347.86 175.141 1352.47 Q178.22 1357.05 178.22 1365.8 Q178.22 1374.53 175.141 1379.14 Q172.085 1383.72 166.275 1383.72 Q160.465 1383.72 157.386 1379.14 Q154.331 1374.53 154.331 1365.8 Q154.331 1357.05 157.386 1352.47 Q160.465 1347.86 166.275 1347.86 Z" fill="#000000" fill-rule="nonzero" fill-opacity="1" /><path clip-path="url(#clip300)" d="M178.22 1341.97 L202.331 1341.97 L202.331 1345.16 L178.22 1345.16 L178.22 1341.97 Z" fill="#000000" fill-rule="nonzero" fill-opacity="1" /><path clip-path="url(#clip300)" d="M211.19 1352.44 L217.396 1352.44 L217.396 1331.02 L210.644 1332.37 L210.644 1328.91 L217.359 1327.56 L221.158 1327.56 L221.158 1352.44 L227.364 1352.44 L227.364 1355.64 L211.19 1355.64 L211.19 1352.44 Z" fill="#000000" fill-rule="nonzero" fill-opacity="1" /><path clip-path="url(#clip300)" d="M235.076 1327.56 L249.99 1327.56 L249.99 1330.76 L238.555 1330.76 L238.555 1337.64 Q239.383 1337.36 240.21 1337.23 Q241.038 1337.08 241.865 1337.08 Q246.567 1337.08 249.313 1339.65 Q252.059 1342.23 252.059 1346.63 Q252.059 1351.16 249.238 1353.68 Q246.417 1356.18 241.282 1356.18 Q239.514 1356.18 237.671 1355.88 Q235.847 1355.58 233.891 1354.98 L233.891 1351.16 Q235.583 1352.08 237.389 1352.53 Q239.194 1352.99 241.207 1352.99 Q244.461 1352.99 246.36 1351.27 Q248.26 1349.56 248.26 1346.63 Q248.26 1343.7 246.36 1341.98 Q244.461 1340.27 241.207 1340.27 Q239.683 1340.27 238.16 1340.61 Q236.655 1340.95 235.076 1341.66 L235.076 1327.56 Z" fill="#000000" fill-rule="nonzero" fill-opacity="1" /><path clip-path="url(#clip300)" d="M126.642 1207.11 L134.28 1207.11 L134.28 1180.75 L125.97 1182.42 L125.97 1178.16 L134.234 1176.49 L138.91 1176.49 L138.91 1207.11 L146.549 1207.11 L146.549 1211.05 L126.642 1211.05 L126.642 1207.11 Z" fill="#000000" fill-rule="nonzero" fill-opacity="1" /><path clip-path="url(#clip300)" d="M165.993 1179.57 Q162.382 1179.57 160.553 1183.13 Q158.748 1186.68 158.748 1193.8 Q158.748 1200.91 160.553 1204.48 Q162.382 1208.02 165.993 1208.02 Q169.627 1208.02 171.433 1204.48 Q173.262 1200.91 173.262 1193.8 Q173.262 1186.68 171.433 1183.13 Q169.627 1179.57 165.993 1179.57 M165.993 1175.87 Q171.803 1175.87 174.859 1180.47 Q177.938 1185.05 177.938 1193.8 Q177.938 1202.53 174.859 1207.14 Q171.803 1211.72 165.993 1211.72 Q160.183 1211.72 157.104 1207.14 Q154.049 1202.53 154.049 1193.8 Q154.049 1185.05 157.104 1180.47 Q160.183 1175.87 165.993 1175.87 Z" fill="#000000" fill-rule="nonzero" fill-opacity="1" /><path clip-path="url(#clip300)" d="M177.938 1169.97 L202.049 1169.97 L202.049 1173.16 L177.938 1173.16 L177.938 1169.97 Z" fill="#000000" fill-rule="nonzero" fill-opacity="1" /><path clip-path="url(#clip300)" d="M210.908 1180.44 L217.114 1180.44 L217.114 1159.02 L210.362 1160.37 L210.362 1156.91 L217.077 1155.56 L220.876 1155.56 L220.876 1180.44 L227.082 1180.44 L227.082 1183.64 L210.908 1183.64 L210.908 1180.44 Z" fill="#000000" fill-rule="nonzero" fill-opacity="1" /><path clip-path="url(#clip300)" d="M246.266 1168.5 Q248.993 1169.08 250.517 1170.93 Q252.059 1172.77 252.059 1175.48 Q252.059 1179.63 249.2 1181.91 Q246.341 1184.19 241.075 1184.19 Q239.307 1184.19 237.427 1183.83 Q235.565 1183.49 233.571 1182.79 L233.571 1179.13 Q235.151 1180.05 237.032 1180.52 Q238.912 1180.99 240.962 1180.99 Q244.536 1180.99 246.398 1179.58 Q248.279 1178.17 248.279 1175.48 Q248.279 1172.99 246.53 1171.6 Q244.799 1170.19 241.696 1170.19 L238.423 1170.19 L238.423 1167.07 L241.846 1167.07 Q244.649 1167.07 246.135 1165.96 Q247.62 1164.83 247.62 1162.73 Q247.62 1160.56 246.078 1159.42 Q244.555 1158.25 241.696 1158.25 Q240.135 1158.25 238.348 1158.59 Q236.561 1158.93 234.417 1159.64 L234.417 1156.26 Q236.58 1155.65 238.461 1155.35 Q240.361 1155.05 242.034 1155.05 Q246.36 1155.05 248.88 1157.03 Q251.401 1158.98 251.401 1162.33 Q251.401 1164.66 250.065 1166.28 Q248.73 1167.88 246.266 1168.5 Z" fill="#000000" fill-rule="nonzero" fill-opacity="1" /><path clip-path="url(#clip300)" d="M127.112 1035.12 L134.751 1035.12 L134.751 1008.75 L126.44 1010.42 L126.44 1006.16 L134.704 1004.49 L139.38 1004.49 L139.38 1035.12 L147.019 1035.12 L147.019 1039.05 L127.112 1039.05 L127.112 1035.12 Z" fill="#000000" fill-rule="nonzero" fill-opacity="1" /><path clip-path="url(#clip300)" d="M166.463 1007.57 Q162.852 1007.57 161.024 1011.13 Q159.218 1014.68 159.218 1021.81 Q159.218 1028.91 161.024 1032.48 Q162.852 1036.02 166.463 1036.02 Q170.098 1036.02 171.903 1032.48 Q173.732 1028.91 173.732 1021.81 Q173.732 1014.68 171.903 1011.13 Q170.098 1007.57 166.463 1007.57 M166.463 1003.87 Q172.274 1003.87 175.329 1008.47 Q178.408 1013.06 178.408 1021.81 Q178.408 1030.53 175.329 1035.14 Q172.274 1039.72 166.463 1039.72 Q160.653 1039.72 157.575 1035.14 Q154.519 1030.53 154.519 1021.81 Q154.519 1013.06 157.575 1008.47 Q160.653 1003.87 166.463 1003.87 Z" fill="#000000" fill-rule="nonzero" fill-opacity="1" /><path clip-path="url(#clip300)" d="M178.408 997.968 L202.519 997.968 L202.519 1001.17 L178.408 1001.17 L178.408 997.968 Z" fill="#000000" fill-rule="nonzero" fill-opacity="1" /><path clip-path="url(#clip300)" d="M211.378 1008.44 L217.584 1008.44 L217.584 987.022 L210.832 988.376 L210.832 984.915 L217.547 983.561 L221.346 983.561 L221.346 1008.44 L227.552 1008.44 L227.552 1011.64 L211.378 1011.64 L211.378 1008.44 Z" fill="#000000" fill-rule="nonzero" fill-opacity="1" /><path clip-path="url(#clip300)" d="M235.884 1008.44 L242.091 1008.44 L242.091 987.022 L235.339 988.376 L235.339 984.915 L242.053 983.561 L245.852 983.561 L245.852 1008.44 L252.059 1008.44 L252.059 1011.64 L235.884 1011.64 L235.884 1008.44 Z" fill="#000000" fill-rule="nonzero" fill-opacity="1" /><path clip-path="url(#clip300)" d="M150.772 863.118 L158.411 863.118 L158.411 836.752 L150.101 838.419 L150.101 834.16 L158.364 832.493 L163.04 832.493 L163.04 863.118 L170.679 863.118 L170.679 867.053 L150.772 867.053 L150.772 863.118 Z" fill="#000000" fill-rule="nonzero" fill-opacity="1" /><path clip-path="url(#clip300)" d="M190.124 835.572 Q186.512 835.572 184.684 839.136 Q182.878 842.678 182.878 849.808 Q182.878 856.914 184.684 860.479 Q186.512 864.02 190.124 864.02 Q193.758 864.02 195.563 860.479 Q197.392 856.914 197.392 849.808 Q197.392 842.678 195.563 839.136 Q193.758 835.572 190.124 835.572 M190.124 831.868 Q195.934 831.868 198.989 836.474 Q202.068 841.058 202.068 849.808 Q202.068 858.534 198.989 863.141 Q195.934 867.724 190.124 867.724 Q184.313 867.724 181.235 863.141 Q178.179 858.534 178.179 849.808 Q178.179 841.058 181.235 836.474 Q184.313 831.868 190.124 831.868 Z" fill="#000000" fill-rule="nonzero" fill-opacity="1" /><path clip-path="url(#clip300)" d="M202.068 825.969 L226.18 825.969 L226.18 829.167 L202.068 829.167 L202.068 825.969 Z" fill="#000000" fill-rule="nonzero" fill-opacity="1" /><path clip-path="url(#clip300)" d="M234.493 839.059 L234.493 835.599 Q235.922 836.276 237.389 836.633 Q238.856 836.991 240.267 836.991 Q244.028 836.991 246.003 834.47 Q247.997 831.931 248.279 826.778 Q247.188 828.395 245.514 829.261 Q243.84 830.126 241.809 830.126 Q237.596 830.126 235.132 827.587 Q232.687 825.029 232.687 820.609 Q232.687 816.283 235.245 813.669 Q237.803 811.055 242.053 811.055 Q246.924 811.055 249.482 814.797 Q252.059 818.521 252.059 825.631 Q252.059 832.27 248.899 836.238 Q245.758 840.188 240.436 840.188 Q239.006 840.188 237.539 839.906 Q236.072 839.624 234.493 839.059 M242.053 827.154 Q244.611 827.154 246.097 825.405 Q247.602 823.656 247.602 820.609 Q247.602 817.581 246.097 815.832 Q244.611 814.064 242.053 814.064 Q239.495 814.064 237.991 815.832 Q236.505 817.581 236.505 820.609 Q236.505 823.656 237.991 825.405 Q239.495 827.154 242.053 827.154 Z" fill="#000000" fill-rule="nonzero" fill-opacity="1" /><path clip-path="url(#clip300)" d="M151.355 691.119 L158.994 691.119 L158.994 664.754 L150.684 666.42 L150.684 662.161 L158.948 660.494 L163.623 660.494 L163.623 691.119 L171.262 691.119 L171.262 695.054 L151.355 695.054 L151.355 691.119 Z" fill="#000000" fill-rule="nonzero" fill-opacity="1" /><path clip-path="url(#clip300)" d="M190.707 663.573 Q187.096 663.573 185.267 667.138 Q183.461 670.679 183.461 677.809 Q183.461 684.915 185.267 688.48 Q187.096 692.022 190.707 692.022 Q194.341 692.022 196.146 688.48 Q197.975 684.915 197.975 677.809 Q197.975 670.679 196.146 667.138 Q194.341 663.573 190.707 663.573 M190.707 659.869 Q196.517 659.869 199.572 664.476 Q202.651 669.059 202.651 677.809 Q202.651 686.536 199.572 691.142 Q196.517 695.726 190.707 695.726 Q184.896 695.726 181.818 691.142 Q178.762 686.536 178.762 677.809 Q178.762 669.059 181.818 664.476 Q184.896 659.869 190.707 659.869 Z" fill="#000000" fill-rule="nonzero" fill-opacity="1" /><path clip-path="url(#clip300)" d="M202.651 653.971 L226.763 653.971 L226.763 657.168 L202.651 657.168 L202.651 653.971 Z" fill="#000000" fill-rule="nonzero" fill-opacity="1" /><path clip-path="url(#clip300)" d="M234.004 639.564 L252.059 639.564 L252.059 641.181 L241.865 667.644 L237.897 667.644 L247.489 642.761 L234.004 642.761 L234.004 639.564 Z" fill="#000000" fill-rule="nonzero" fill-opacity="1" /><path clip-path="url(#clip300)" d="M151.43 519.121 L159.069 519.121 L159.069 492.755 L150.759 494.422 L150.759 490.162 L159.023 488.496 L163.699 488.496 L163.699 519.121 L171.337 519.121 L171.337 523.056 L151.43 523.056 L151.43 519.121 Z" fill="#000000" fill-rule="nonzero" fill-opacity="1" /><path clip-path="url(#clip300)" d="M190.782 491.574 Q187.171 491.574 185.342 495.139 Q183.537 498.681 183.537 505.81 Q183.537 512.917 185.342 516.482 Q187.171 520.023 190.782 520.023 Q194.416 520.023 196.222 516.482 Q198.05 512.917 198.05 505.81 Q198.05 498.681 196.222 495.139 Q194.416 491.574 190.782 491.574 M190.782 487.871 Q196.592 487.871 199.648 492.477 Q202.726 497.06 202.726 505.81 Q202.726 514.537 199.648 519.144 Q196.592 523.727 190.782 523.727 Q184.972 523.727 181.893 519.144 Q178.837 514.537 178.837 505.81 Q178.837 497.06 181.893 492.477 Q184.972 487.871 190.782 487.871 Z" fill="#000000" fill-rule="nonzero" fill-opacity="1" /><path clip-path="url(#clip300)" d="M202.726 481.972 L226.838 481.972 L226.838 485.169 L202.726 485.169 L202.726 481.972 Z" fill="#000000" fill-rule="nonzero" fill-opacity="1" /><path clip-path="url(#clip300)" d="M235.076 467.565 L249.99 467.565 L249.99 470.763 L238.555 470.763 L238.555 477.646 Q239.383 477.364 240.21 477.232 Q241.038 477.082 241.865 477.082 Q246.567 477.082 249.313 479.659 Q252.059 482.235 252.059 486.636 Q252.059 491.169 249.238 493.689 Q246.417 496.191 241.282 496.191 Q239.514 496.191 237.671 495.89 Q235.847 495.589 233.891 494.987 L233.891 491.169 Q235.583 492.091 237.389 492.542 Q239.194 492.993 241.207 492.993 Q244.461 492.993 246.36 491.282 Q248.26 489.57 248.26 486.636 Q248.26 483.702 246.36 481.991 Q244.461 480.279 241.207 480.279 Q239.683 480.279 238.16 480.618 Q236.655 480.956 235.076 481.671 L235.076 467.565 Z" fill="#000000" fill-rule="nonzero" fill-opacity="1" /><path clip-path="url(#clip300)" d="M151.148 347.122 L158.787 347.122 L158.787 320.756 L150.477 322.423 L150.477 318.164 L158.741 316.497 L163.417 316.497 L163.417 347.122 L171.055 347.122 L171.055 351.057 L151.148 351.057 L151.148 347.122 Z" fill="#000000" fill-rule="nonzero" fill-opacity="1" /><path clip-path="url(#clip300)" d="M190.5 319.576 Q186.889 319.576 185.06 323.141 Q183.254 326.682 183.254 333.812 Q183.254 340.918 185.06 344.483 Q186.889 348.025 190.5 348.025 Q194.134 348.025 195.94 344.483 Q197.768 340.918 197.768 333.812 Q197.768 326.682 195.94 323.141 Q194.134 319.576 190.5 319.576 M190.5 315.872 Q196.31 315.872 199.365 320.479 Q202.444 325.062 202.444 333.812 Q202.444 342.539 199.365 347.145 Q196.31 351.728 190.5 351.728 Q184.69 351.728 181.611 347.145 Q178.555 342.539 178.555 333.812 Q178.555 325.062 181.611 320.479 Q184.69 315.872 190.5 315.872 Z" fill="#000000" fill-rule="nonzero" fill-opacity="1" /><path clip-path="url(#clip300)" d="M202.444 309.973 L226.556 309.973 L226.556 313.171 L202.444 313.171 L202.444 309.973 Z" fill="#000000" fill-rule="nonzero" fill-opacity="1" /><path clip-path="url(#clip300)" d="M246.266 308.506 Q248.993 309.089 250.517 310.933 Q252.059 312.776 252.059 315.484 Q252.059 319.641 249.2 321.916 Q246.341 324.192 241.075 324.192 Q239.307 324.192 237.427 323.835 Q235.565 323.496 233.571 322.8 L233.571 319.133 Q235.151 320.054 237.032 320.525 Q238.912 320.995 240.962 320.995 Q244.536 320.995 246.398 319.584 Q248.279 318.174 248.279 315.484 Q248.279 313.002 246.53 311.61 Q244.799 310.199 241.696 310.199 L238.423 310.199 L238.423 307.077 L241.846 307.077 Q244.649 307.077 246.135 305.967 Q247.62 304.839 247.62 302.732 Q247.62 300.57 246.078 299.422 Q244.555 298.256 241.696 298.256 Q240.135 298.256 238.348 298.595 Q236.561 298.933 234.417 299.648 L234.417 296.263 Q236.58 295.661 238.461 295.36 Q240.361 295.059 242.034 295.059 Q246.36 295.059 248.88 297.034 Q251.401 298.99 251.401 302.338 Q251.401 304.67 250.065 306.287 Q248.73 307.886 246.266 308.506 Z" fill="#000000" fill-rule="nonzero" fill-opacity="1" /><path clip-path="url(#clip300)" d="M151.618 175.123 L159.257 175.123 L159.257 148.758 L150.947 150.424 L150.947 146.165 L159.211 144.499 L163.887 144.499 L163.887 175.123 L171.526 175.123 L171.526 179.059 L151.618 179.059 L151.618 175.123 Z" fill="#000000" fill-rule="nonzero" fill-opacity="1" /><path clip-path="url(#clip300)" d="M190.97 147.577 Q187.359 147.577 185.53 151.142 Q183.725 154.684 183.725 161.813 Q183.725 168.92 185.53 172.484 Q187.359 176.026 190.97 176.026 Q194.604 176.026 196.41 172.484 Q198.238 168.92 198.238 161.813 Q198.238 154.684 196.41 151.142 Q194.604 147.577 190.97 147.577 M190.97 143.874 Q196.78 143.874 199.836 148.48 Q202.914 153.063 202.914 161.813 Q202.914 170.54 199.836 175.146 Q196.78 179.73 190.97 179.73 Q185.16 179.73 182.081 175.146 Q179.026 170.54 179.026 161.813 Q179.026 153.063 182.081 148.48 Q185.16 143.874 190.97 143.874 Z" fill="#000000" fill-rule="nonzero" fill-opacity="1" /><path clip-path="url(#clip300)" d="M202.914 137.975 L227.026 137.975 L227.026 141.172 L202.914 141.172 L202.914 137.975 Z" fill="#000000" fill-rule="nonzero" fill-opacity="1" /><path clip-path="url(#clip300)" d="M235.884 148.451 L242.091 148.451 L242.091 127.029 L235.339 128.383 L235.339 124.922 L242.053 123.568 L245.852 123.568 L245.852 148.451 L252.059 148.451 L252.059 151.648 L235.884 151.648 L235.884 148.451 Z" fill="#000000" fill-rule="nonzero" fill-opacity="1" /><path clip-path="url(#clip300)" d="M42.6211 1124.7 L40.56 1124.7 Q40.56 1116.78 36.341 1112.69 Q36.341 1111.56 36.5986 1111.37 Q36.8563 1111.18 38.0479 1111.18 L75.0524 1111.18 Q77.017 1111.18 77.6289 1110.21 Q78.2408 1109.25 78.2408 1105.03 L78.2408 1102.93 L80.2698 1102.93 Q80.0765 1105.25 80.0765 1113.63 Q80.0765 1122 80.2698 1124.29 L78.2408 1124.29 L78.2408 1122.19 Q78.2408 1118.04 77.6611 1117.04 Q77.0492 1116.04 75.0524 1116.04 L40.882 1116.04 Q42.6211 1119.49 42.6211 1124.7 Z" fill="#000000" fill-rule="nonzero" fill-opacity="1" /><path clip-path="url(#clip300)" d="M62.8464 1030.2 Q63.2329 1029.81 63.7804 1029.81 Q64.3279 1029.81 64.7143 1030.2 Q65.1008 1030.58 65.1008 1031.13 L65.1008 1072.42 Q65.1008 1072.96 64.7143 1073.35 Q64.3279 1073.74 63.7804 1073.74 Q63.2329 1073.74 62.8464 1073.35 Q62.4599 1072.96 62.4599 1072.42 L62.4599 1031.13 Q62.4599 1030.58 62.8464 1030.2 Z" fill="#000000" fill-rule="nonzero" fill-opacity="1" /><path clip-path="url(#clip300)" d="M94.7302 1004.62 L33.3136 1004.62 Q30.866 1004.62 30.866 1003.3 Q30.866 1001.98 32.8305 1001.98 L94.2471 1001.98 Q96.6948 1001.98 96.6948 1003.3 Q96.6948 1004.62 94.7302 1004.62 Z" fill="#000000" fill-rule="nonzero" fill-opacity="1" /><path clip-path="url(#clip300)" d="M95.4387 962.484 Q95.9862 962.484 96.3727 962.87 Q96.7592 963.257 96.7592 963.804 Q96.7592 964.738 95.8896 965.06 L64.2313 977.331 Q64.1024 977.395 63.7804 977.395 Q63.4583 977.395 63.3295 977.331 L31.6711 965.06 Q30.8016 964.738 30.8016 963.804 Q30.8016 963.257 31.188 962.87 Q31.5745 962.484 32.122 962.484 Q32.4441 962.484 32.5729 962.548 L63.7804 974.69 L94.9879 962.548 Q95.1167 962.484 95.4387 962.484 Z" fill="#000000" fill-rule="nonzero" fill-opacity="1" /><path clip-path="url(#clip300)" d="M37.2105 904.178 L48.6114 905.499 Q49.642 905.595 49.9641 905.756 Q50.2539 905.917 50.2539 906.433 Q50.2539 906.819 50.0285 907.045 Q49.7708 907.238 49.481 907.238 Q49.3199 907.238 48.9013 907.206 Q48.4826 907.174 48.2894 907.174 Q46.2926 906.884 44.7789 906.884 Q41.977 906.884 40.4633 907.721 Q38.9175 908.558 38.2089 910.716 Q37.4682 912.874 37.4682 916.932 L37.4682 926.207 Q37.4682 928.333 37.8547 928.848 Q38.2411 929.331 40.0447 929.782 L55.9221 933.743 L55.9221 927.528 Q55.9221 925.209 55.6323 923.824 Q55.3424 922.407 54.5373 921.473 Q53.6999 920.507 52.5727 919.991 Q51.4455 919.444 49.4166 918.896 Q48.7402 918.735 48.4826 918.574 Q48.2249 918.381 48.2249 917.962 Q48.2249 917.64 48.4504 917.415 Q48.6436 917.19 48.9335 917.19 L64.3601 920.958 Q65.133 921.151 65.4229 921.344 Q65.6805 921.537 65.6805 921.924 Q65.6805 922.342 65.4551 922.568 Q65.2296 922.793 64.972 922.793 Q64.7143 922.793 64.2313 922.6 Q62.1379 922.117 61.0107 922.117 Q60.3666 922.117 60.0445 922.181 Q59.7224 922.214 59.2716 922.504 Q58.7885 922.761 58.563 923.341 Q58.3376 923.921 58.1766 925.016 Q57.9833 926.111 57.9833 927.753 L57.9833 934.259 L75.9864 938.767 Q77.178 939.09 77.5001 939.09 Q77.8543 939.09 77.9832 938.929 Q78.0798 938.735 78.1442 938.22 Q78.2408 937.64 78.2408 936.771 L78.2408 927.141 Q78.2408 925.016 78.0476 923.309 Q77.8543 921.602 77.3712 920.185 Q76.8882 918.735 76.3407 917.64 Q75.7932 916.545 74.7948 915.515 Q73.7642 914.484 72.8624 913.776 Q71.9285 913.035 70.3504 912.165 Q68.7723 911.296 67.4841 910.684 Q66.1636 910.072 64.038 909.138 Q63.2651 908.88 63.2651 908.269 Q63.2651 907.914 63.4583 907.721 Q63.6193 907.528 63.7804 907.496 L63.9736 907.496 Q64.5855 907.689 64.9076 907.818 L79.1426 913.872 Q79.9477 914.227 80.1087 914.516 Q80.2698 914.806 80.2698 915.934 L80.2698 950.168 Q80.2698 950.941 80.2376 951.263 Q80.2054 951.553 80.0443 951.779 Q79.8511 952.004 79.4646 952.004 Q78.8527 952.004 78.5951 951.746 Q78.3052 951.489 78.273 951.199 Q78.2408 950.909 78.2408 950.168 Q78.2408 948.558 78.1442 947.592 Q78.0476 946.626 77.9187 946.014 Q77.7577 945.37 77.3068 945.048 Q76.856 944.693 76.4695 944.532 Q76.0508 944.371 75.1168 944.146 L40.2379 935.45 Q39.0463 935.128 38.6598 935.128 Q38.2411 935.128 37.9835 935.418 Q37.7258 935.676 37.6292 936.384 Q37.5004 937.093 37.5004 937.672 Q37.4682 938.22 37.4682 939.412 Q37.4682 940.185 37.436 940.507 Q37.4038 940.796 37.2427 941.022 Q37.0817 941.247 36.7275 941.247 Q35.8257 941.247 35.6325 940.861 Q35.407 940.442 35.407 939.283 L35.407 905.982 Q35.407 904.661 35.6969 904.372 Q35.9545 904.05 37.2105 904.178 Z" fill="#000000" fill-rule="nonzero" fill-opacity="1" /><path clip-path="url(#clip300)" d="M98.5463 897.48 Q97.7122 897.48 97.4642 897.412 Q97.2162 897.322 96.833 896.961 L86.9587 888.101 Q81.503 883.254 76.7462 883.254 Q73.6577 883.254 71.4483 884.878 Q69.239 886.478 69.239 889.431 Q69.239 891.46 70.4789 893.174 Q71.7189 894.887 73.9282 895.676 Q73.8831 895.541 73.8831 895.067 Q73.8831 893.918 74.6045 893.287 Q75.3259 892.633 76.2953 892.633 Q77.5352 892.633 78.1439 893.444 Q78.7301 894.233 78.7301 895.022 Q78.7301 895.338 78.6624 895.766 Q78.5948 896.172 77.9636 896.826 Q77.3098 897.48 76.16 897.48 Q72.9362 897.48 70.3662 895.045 Q67.7962 892.588 67.7962 888.845 Q67.7962 884.607 70.3211 881.834 Q72.8235 879.039 76.7462 879.039 Q78.1214 879.039 79.3839 879.467 Q80.6238 879.873 81.5932 880.436 Q82.5626 880.977 84.1181 882.465 Q85.6737 883.953 86.7783 885.148 Q87.883 886.343 90.2276 889.026 L94.9844 893.918 L94.9844 885.599 Q94.9844 881.541 94.6237 881.225 Q93.9699 880.775 90.5206 880.211 L90.5206 879.039 L98.5463 880.346 L98.5463 897.48 Z" fill="#000000" fill-rule="nonzero" fill-opacity="1" /><path clip-path="url(#clip300)" d="M63.7804 867.575 Q52.6371 867.575 43.6517 863.42 Q39.8836 861.649 36.7275 859.169 Q33.5713 856.689 32.1864 855.047 Q30.8016 853.404 30.8016 852.953 Q30.8016 852.309 31.4457 852.277 Q31.7678 852.277 32.5729 853.147 Q43.3941 863.775 63.7804 863.742 Q84.2311 863.742 94.6336 853.404 Q95.7608 852.277 96.1151 852.277 Q96.7592 852.277 96.7592 852.953 Q96.7592 853.404 95.4387 854.982 Q94.1183 856.56 91.0909 859.008 Q88.0636 861.456 84.3599 863.227 Q75.3745 867.575 63.7804 867.575 Z" fill="#000000" fill-rule="nonzero" fill-opacity="1" /><path clip-path="url(#clip300)" d="M35.9545 799.187 Q37.275 799.187 37.275 800.282 Q37.3394 802.215 37.7258 803.535 Q38.0801 804.856 38.7886 805.629 Q39.4972 806.369 40.2701 806.788 Q41.0108 807.174 42.138 807.432 L65.5517 813.294 Q72.1539 814.968 76.9526 820.379 Q81.719 825.789 81.719 831.941 Q81.719 835.451 80.2698 838.382 Q78.8205 841.28 75.8898 843.084 Q72.959 844.887 69.0621 844.887 Q67.1942 844.887 65.2296 844.404 L48.9335 840.411 L43.1364 838.929 Q38.853 837.834 38.4666 837.834 Q37.8547 837.834 37.6936 838.221 Q37.5004 838.575 37.4038 839.606 L37.275 842.118 Q37.275 842.891 37.2427 843.213 Q37.2105 843.503 37.0495 843.728 Q36.8885 843.953 36.5342 843.953 Q36.0833 843.953 35.7935 843.857 Q35.4714 843.728 35.3748 843.503 Q35.2782 843.277 35.246 843.116 Q35.2138 842.955 35.2138 842.697 L35.407 834.195 L35.2138 825.757 Q35.2138 824.823 35.9545 824.823 Q36.8885 824.823 37.0817 825.242 Q37.275 825.661 37.275 827.078 Q37.275 829.493 37.597 830.588 Q37.8869 831.651 38.4022 831.973 Q38.8852 832.263 40.3023 832.617 L65.9704 839.026 Q67.2586 839.348 68.5468 839.541 Q69.8029 839.702 70.447 839.702 L71.0911 839.735 Q75.1813 839.735 77.4357 837.48 Q79.6901 835.193 79.6901 831.683 Q79.6901 826.53 75.5999 821.731 Q71.5098 816.901 65.1008 815.258 L41.5583 809.332 Q40.9786 809.139 40.1735 809.139 Q38.8852 809.139 38.1123 810.105 Q37.3072 811.039 37.275 813.616 Q37.275 814.807 36.5342 814.807 Q35.9223 814.807 35.6325 814.582 Q35.3104 814.324 35.2782 814.131 Q35.2138 813.905 35.2138 813.616 Q35.2138 812.521 35.3104 810.202 Q35.407 807.883 35.407 806.756 Q35.407 805.629 35.3104 803.374 Q35.2138 801.12 35.2138 800.025 Q35.2138 799.638 35.407 799.445 Q35.568 799.22 35.7613 799.187 L35.9545 799.187 Z" fill="#000000" fill-rule="nonzero" fill-opacity="1" /><path clip-path="url(#clip300)" d="M96.1151 794.221 Q95.793 794.221 94.9879 793.384 Q84.1667 782.756 63.7804 782.756 Q43.3297 782.756 32.9916 792.965 Q31.8 794.221 31.4457 794.221 Q30.8016 794.221 30.8016 793.577 Q30.8016 793.126 32.122 791.548 Q33.4425 789.938 36.4698 787.523 Q39.4972 785.075 43.2008 783.271 Q52.1863 778.924 63.7804 778.924 Q74.9236 778.924 83.909 783.078 Q87.6771 784.849 90.8333 787.329 Q93.9895 789.809 95.3743 791.452 Q96.7592 793.094 96.7592 793.577 Q96.7592 794.221 96.1151 794.221 Z" fill="#000000" fill-rule="nonzero" fill-opacity="1" /><path clip-path="url(#clip300)" d="M94.7302 765.198 L33.3136 765.198 Q30.866 765.198 30.866 763.878 Q30.866 762.557 32.8305 762.557 L94.2471 762.557 Q96.6948 762.557 96.6948 763.878 Q96.6948 765.198 94.7302 765.198 Z" fill="#000000" fill-rule="nonzero" fill-opacity="1" /><path clip-path="url(#clip300)" d="M34.8917 694.237 Q35.6325 695.783 36.341 696.685 Q37.4038 698.166 39.4327 699.519 Q41.3007 700.839 44.1348 702.16 Q52.8626 706.024 64.2957 708.826 Q69.0299 710.018 72.0251 710.082 Q75.149 710.082 76.4373 709.084 Q77.178 708.633 77.178 707.506 Q77.178 706.218 76.244 705.058 Q75.2779 703.802 72.8302 701.902 L73.732 700.775 Q77.0492 703.158 78.6273 705.123 Q80.8495 707.989 80.8495 710.726 Q80.8495 712.82 79.6257 713.625 Q77.6289 715.203 73.2167 715.074 L75.922 718.327 Q81.3326 725.155 81.3326 731.306 Q81.3326 734.881 78.4985 736.974 Q77.5645 737.715 75.4389 737.844 Q73.4743 737.844 70.7046 737.167 Q65.7449 735.911 58.3054 732.562 Q50.2539 728.923 45.4552 727.763 Q43.9738 727.409 43.1364 727.28 Q42.2991 727.119 41.2041 727.28 Q40.1091 727.409 39.3039 728.021 Q38.8852 728.246 38.5954 728.858 Q38.3055 729.438 38.3055 730.05 Q38.3055 731.081 39.2395 732.433 Q41.0108 734.527 43.7161 735.203 Q44.7145 735.461 47.8707 735.944 L48.4826 737.973 Q45.4552 737.586 43.3297 737.103 Q39.1429 736.072 36.5342 732.82 Q34.6341 730.469 34.6341 727.28 Q34.6341 724.285 36.2122 723.126 Q37.1139 722.417 39.4972 722.288 Q41.9126 722.288 44.5213 722.932 Q49.5132 724.221 58.1766 728.15 Q64.5211 731.081 67.7417 731.853 Q70.7368 732.594 73.2811 732.498 Q75.4067 732.498 76.856 731.564 Q78.4985 730.308 78.4985 727.828 Q78.4985 724.092 74.4727 719.1 Q71.9607 716.073 70.6402 714.688 Q59.6902 712.015 38.6598 704.543 Q35.7613 699.487 34.151 695.171 L34.8917 694.237 Z" fill="#000000" fill-rule="nonzero" fill-opacity="1" /><path clip-path="url(#clip300)" d="M94.7302 689.391 L33.3136 689.391 Q30.866 689.391 30.866 688.071 Q30.866 686.75 32.8305 686.75 L94.2471 686.75 Q96.6948 686.75 96.6948 688.071 Q96.6948 689.391 94.7302 689.391 Z" fill="#000000" fill-rule="nonzero" fill-opacity="1" /><path clip-path="url(#clip300)" d="M37.2105 614.34 L48.6114 615.661 Q49.642 615.757 49.9641 615.918 Q50.2539 616.079 50.2539 616.595 Q50.2539 616.981 50.0285 617.206 Q49.7708 617.4 49.481 617.4 Q49.3199 617.4 48.9013 617.367 Q48.4826 617.335 48.2894 617.335 Q46.2926 617.045 44.7789 617.045 Q41.977 617.045 40.4633 617.883 Q38.9175 618.72 38.2089 620.878 Q37.4682 623.036 37.4682 627.094 L37.4682 636.369 Q37.4682 638.495 37.8547 639.01 Q38.2411 639.493 40.0447 639.944 L55.9221 643.905 L55.9221 637.689 Q55.9221 635.371 55.6323 633.986 Q55.3424 632.569 54.5373 631.635 Q53.6999 630.668 52.5727 630.153 Q51.4455 629.606 49.4166 629.058 Q48.7402 628.897 48.4826 628.736 Q48.2249 628.543 48.2249 628.124 Q48.2249 627.802 48.4504 627.577 Q48.6436 627.351 48.9335 627.351 L64.3601 631.119 Q65.133 631.313 65.4229 631.506 Q65.6805 631.699 65.6805 632.086 Q65.6805 632.504 65.4551 632.73 Q65.2296 632.955 64.972 632.955 Q64.7143 632.955 64.2313 632.762 Q62.1379 632.279 61.0107 632.279 Q60.3666 632.279 60.0445 632.343 Q59.7224 632.375 59.2716 632.665 Q58.7885 632.923 58.563 633.503 Q58.3376 634.082 58.1766 635.177 Q57.9833 636.272 57.9833 637.915 L57.9833 644.42 L75.9864 648.929 Q77.178 649.251 77.5001 649.251 Q77.8543 649.251 77.9832 649.09 Q78.0798 648.897 78.1442 648.382 Q78.2408 647.802 78.2408 646.932 L78.2408 637.303 Q78.2408 635.177 78.0476 633.47 Q77.8543 631.763 77.3712 630.346 Q76.8882 628.897 76.3407 627.802 Q75.7932 626.707 74.7948 625.677 Q73.7642 624.646 72.8624 623.937 Q71.9285 623.197 70.3504 622.327 Q68.7723 621.458 67.4841 620.846 Q66.1636 620.234 64.038 619.3 Q63.2651 619.042 63.2651 618.43 Q63.2651 618.076 63.4583 617.883 Q63.6193 617.69 63.7804 617.657 L63.9736 617.657 Q64.5855 617.851 64.9076 617.979 L79.1426 624.034 Q79.9477 624.388 80.1087 624.678 Q80.2698 624.968 80.2698 626.095 L80.2698 660.33 Q80.2698 661.103 80.2376 661.425 Q80.2054 661.715 80.0443 661.94 Q79.8511 662.166 79.4646 662.166 Q78.8527 662.166 78.5951 661.908 Q78.3052 661.651 78.273 661.361 Q78.2408 661.071 78.2408 660.33 Q78.2408 658.72 78.1442 657.754 Q78.0476 656.787 77.9187 656.176 Q77.7577 655.531 77.3068 655.209 Q76.856 654.855 76.4695 654.694 Q76.0508 654.533 75.1168 654.308 L40.2379 645.612 Q39.0463 645.29 38.6598 645.29 Q38.2411 645.29 37.9835 645.58 Q37.7258 645.837 37.6292 646.546 Q37.5004 647.255 37.5004 647.834 Q37.4682 648.382 37.4682 649.573 Q37.4682 650.346 37.436 650.668 Q37.4038 650.958 37.2427 651.184 Q37.0817 651.409 36.7275 651.409 Q35.8257 651.409 35.6325 651.023 Q35.407 650.604 35.407 649.445 L35.407 616.144 Q35.407 614.823 35.6969 614.533 Q35.9545 614.211 37.2105 614.34 Z" fill="#000000" fill-rule="nonzero" fill-opacity="1" /><path clip-path="url(#clip300)" d="M91.2349 607.641 L89.8146 607.641 L68.1497 593.461 Q67.5861 593.101 67.6087 592.537 Q67.6087 592.018 67.8115 591.906 Q68.0144 591.793 68.8035 591.793 L89.8146 591.793 L89.8146 587.171 L91.2349 587.171 L91.2349 591.793 L95.2477 591.793 Q96.5778 591.793 97.0062 591.252 Q97.4345 590.688 97.4345 588.299 L97.4345 587.329 L98.8548 587.329 Q98.7195 589.223 98.7195 593.596 Q98.7195 597.947 98.8548 599.841 L97.4345 599.841 L97.4345 598.872 Q97.4345 596.482 97.0287 595.919 Q96.6004 595.355 95.2477 595.355 L91.2349 595.355 L91.2349 607.641 M89.8146 606.334 L89.8146 595.084 L72.5909 595.084 L89.8146 606.334 Z" fill="#000000" fill-rule="nonzero" fill-opacity="1" /><path clip-path="url(#clip300)" d="M63.7804 577.737 Q52.6371 577.737 43.6517 573.582 Q39.8836 571.811 36.7275 569.331 Q33.5713 566.851 32.1864 565.209 Q30.8016 563.566 30.8016 563.115 Q30.8016 562.471 31.4457 562.439 Q31.7678 562.439 32.5729 563.308 Q43.3941 573.936 63.7804 573.904 Q84.2311 573.904 94.6336 563.566 Q95.7608 562.439 96.1151 562.439 Q96.7592 562.439 96.7592 563.115 Q96.7592 563.566 95.4387 565.144 Q94.1183 566.722 91.0909 569.17 Q88.0636 571.617 84.3599 573.389 Q75.3745 577.737 63.7804 577.737 Z" fill="#000000" fill-rule="nonzero" fill-opacity="1" /><path clip-path="url(#clip300)" d="M35.9545 509.349 Q37.275 509.349 37.275 510.444 Q37.3394 512.376 37.7258 513.697 Q38.0801 515.017 38.7886 515.79 Q39.4972 516.531 40.2701 516.95 Q41.0108 517.336 42.138 517.594 L65.5517 523.455 Q72.1539 525.13 76.9526 530.541 Q81.719 535.951 81.719 542.102 Q81.719 545.613 80.2698 548.544 Q78.8205 551.442 75.8898 553.246 Q72.959 555.049 69.0621 555.049 Q67.1942 555.049 65.2296 554.566 L48.9335 550.573 L43.1364 549.091 Q38.853 547.996 38.4666 547.996 Q37.8547 547.996 37.6936 548.383 Q37.5004 548.737 37.4038 549.767 L37.275 552.279 Q37.275 553.052 37.2427 553.374 Q37.2105 553.664 37.0495 553.89 Q36.8885 554.115 36.5342 554.115 Q36.0833 554.115 35.7935 554.019 Q35.4714 553.89 35.3748 553.664 Q35.2782 553.439 35.246 553.278 Q35.2138 553.117 35.2138 552.859 L35.407 544.357 L35.2138 535.919 Q35.2138 534.985 35.9545 534.985 Q36.8885 534.985 37.0817 535.404 Q37.275 535.822 37.275 537.239 Q37.275 539.655 37.597 540.75 Q37.8869 541.813 38.4022 542.135 Q38.8852 542.425 40.3023 542.779 L65.9704 549.188 Q67.2586 549.51 68.5468 549.703 Q69.8029 549.864 70.447 549.864 L71.0911 549.896 Q75.1813 549.896 77.4357 547.642 Q79.6901 545.355 79.6901 541.845 Q79.6901 536.692 75.5999 531.893 Q71.5098 527.062 65.1008 525.42 L41.5583 519.494 Q40.9786 519.301 40.1735 519.301 Q38.8852 519.301 38.1123 520.267 Q37.3072 521.201 37.275 523.777 Q37.275 524.969 36.5342 524.969 Q35.9223 524.969 35.6325 524.743 Q35.3104 524.486 35.2782 524.293 Q35.2138 524.067 35.2138 523.777 Q35.2138 522.682 35.3104 520.363 Q35.407 518.045 35.407 516.917 Q35.407 515.79 35.3104 513.536 Q35.2138 511.281 35.2138 510.186 Q35.2138 509.8 35.407 509.607 Q35.568 509.381 35.7613 509.349 L35.9545 509.349 Z" fill="#000000" fill-rule="nonzero" fill-opacity="1" /><path clip-path="url(#clip300)" d="M70.2538 492.152 Q69.4486 492.088 69.4486 490.832 L69.4486 450.414 Q69.4486 448.514 70.1893 448.481 Q70.9945 448.481 70.9623 450.285 L70.9623 490.381 Q70.9945 492.152 70.2538 492.152 M57.3714 492.152 Q56.5663 492.152 56.5985 490.768 L56.5985 450.478 Q56.5985 448.514 57.3714 448.481 Q58.1121 448.481 58.1121 450.156 L58.1121 490.832 Q58.1121 492.152 57.3714 492.152 Z" fill="#000000" fill-rule="nonzero" fill-opacity="1" /><path clip-path="url(#clip300)" d="M59.1749 423.036 Q49.481 423.036 44.1992 420.588 Q36.341 417.174 36.341 409.123 Q36.341 407.416 36.8241 405.644 Q37.275 403.841 39.0463 401.586 Q40.8176 399.3 43.7161 397.915 Q49.3199 395.274 59.1749 395.274 Q68.8045 395.274 74.054 397.722 Q81.719 401.297 81.719 409.187 Q81.719 412.15 80.2054 415.177 Q78.6917 418.172 75.0524 420.073 Q69.6096 423.036 59.1749 423.036 M58.3698 417.561 Q68.3214 417.561 72.2827 416.852 Q76.5661 416.047 78.434 413.857 Q80.2698 411.635 80.2698 409.187 Q80.2698 406.546 78.3052 404.356 Q76.3085 402.134 72.0251 401.458 Q67.8061 400.717 58.3698 400.749 Q49.1911 400.749 45.5197 401.393 Q41.2363 402.263 39.5294 404.582 Q37.7902 406.868 37.7902 409.187 Q37.7902 410.057 38.0479 410.991 Q38.3055 411.892 39.0463 413.213 Q39.787 414.533 41.6227 415.564 Q43.4585 416.562 46.2282 417.045 Q49.803 417.561 58.3698 417.561 Z" fill="#000000" fill-rule="nonzero" fill-opacity="1" /><path clip-path="url(#clip300)" d="M96.1151 388.788 Q95.793 388.788 94.9879 387.95 Q84.1667 377.322 63.7804 377.322 Q43.3297 377.322 32.9916 387.531 Q31.8 388.788 31.4457 388.788 Q30.8016 388.788 30.8016 388.143 Q30.8016 387.693 32.122 386.114 Q33.4425 384.504 36.4698 382.089 Q39.4972 379.641 43.2008 377.838 Q52.1863 373.49 63.7804 373.49 Q74.9236 373.49 83.909 377.644 Q87.6771 379.416 90.8333 381.895 Q93.9895 384.375 95.3743 386.018 Q96.7592 387.66 96.7592 388.143 Q96.7592 388.788 96.1151 388.788 Z" fill="#000000" fill-rule="nonzero" fill-opacity="1" /><path clip-path="url(#clip300)" d="M63.3295 348.645 Q63.4583 348.581 63.7804 348.581 Q64.1024 348.581 64.2313 348.645 L95.8896 360.916 Q96.7592 361.238 96.7592 362.14 Q96.7592 362.687 96.3727 363.074 Q95.9862 363.46 95.4387 363.46 Q95.1167 363.46 94.9879 363.396 L63.7804 351.286 L32.5729 363.396 Q32.4441 363.46 32.122 363.46 Q31.5745 363.46 31.188 363.074 Q30.8016 362.687 30.8016 362.14 Q30.8016 361.238 31.6711 360.916 L63.3295 348.645 Z" fill="#000000" fill-rule="nonzero" fill-opacity="1" /><path clip-path="url(#clip300)" d="M94.7302 338.069 L33.3136 338.069 Q30.866 338.069 30.866 336.748 Q30.866 335.428 32.8305 335.428 L94.2471 335.428 Q96.6948 335.428 96.6948 336.748 Q96.6948 338.069 94.7302 338.069 Z" fill="#000000" fill-rule="nonzero" fill-opacity="1" /><path clip-path="url(#clip300)" d="M40.4706 328.42 Q39.6364 328.42 39.3884 328.352 Q39.1405 328.262 38.7572 327.901 L28.8829 319.041 Q23.4272 314.194 18.6704 314.194 Q15.5819 314.194 13.3725 315.817 Q11.1632 317.418 11.1632 320.371 Q11.1632 322.4 12.4032 324.114 Q13.6431 325.827 15.8524 326.616 Q15.8073 326.481 15.8073 326.007 Q15.8073 324.858 16.5287 324.226 Q17.2501 323.573 18.2195 323.573 Q19.4595 323.573 20.0681 324.384 Q20.6543 325.173 20.6543 325.962 Q20.6543 326.278 20.5867 326.706 Q20.519 327.112 19.8878 327.766 Q19.234 328.42 18.0843 328.42 Q14.8605 328.42 12.2904 325.985 Q9.7204 323.527 9.7204 319.785 Q9.7204 315.547 12.2453 312.774 Q14.7477 309.978 18.6704 309.978 Q20.0456 309.978 21.3081 310.407 Q22.548 310.813 23.5174 311.376 Q24.4868 311.917 26.0423 313.405 Q27.5979 314.893 28.7025 316.088 Q29.8072 317.283 32.1518 319.965 L36.9086 324.858 L36.9086 316.539 Q36.9086 312.481 36.5479 312.165 Q35.8941 311.714 32.4449 311.151 L32.4449 309.978 L40.4706 311.286 L40.4706 328.42 Z" fill="#000000" fill-rule="nonzero" fill-opacity="1" /><circle clip-path="url(#clip302)" cx="1505.82" cy="1253.29" r="14.4" fill="#de8f05" fill-rule="evenodd" fill-opacity="1" stroke="#000000" stroke-opacity="1" stroke-width="3.2"/>
<circle clip-path="url(#clip302)" cx="1501.06" cy="115.874" r="14.4" fill="#de8f05" fill-rule="evenodd" fill-opacity="1" stroke="#000000" stroke-opacity="1" stroke-width="3.2"/>
<circle clip-path="url(#clip302)" cx="1499.23" cy="115.874" r="14.4" fill="#de8f05" fill-rule="evenodd" fill-opacity="1" stroke="#000000" stroke-opacity="1" stroke-width="3.2"/>
<circle clip-path="url(#clip302)" cx="1501.67" cy="115.874" r="14.4" fill="#de8f05" fill-rule="evenodd" fill-opacity="1" stroke="#000000" stroke-opacity="1" stroke-width="3.2"/>
<circle clip-path="url(#clip302)" cx="1697.25" cy="115.058" r="14.4" fill="#de8f05" fill-rule="evenodd" fill-opacity="1" stroke="#000000" stroke-opacity="1" stroke-width="3.2"/>
<circle clip-path="url(#clip302)" cx="1502.32" cy="689.953" r="14.4" fill="#de8f05" fill-rule="evenodd" fill-opacity="1" stroke="#000000" stroke-opacity="1" stroke-width="3.2"/>
<circle clip-path="url(#clip302)" cx="1503.17" cy="115.874" r="14.4" fill="#de8f05" fill-rule="evenodd" fill-opacity="1" stroke="#000000" stroke-opacity="1" stroke-width="3.2"/>
<circle clip-path="url(#clip302)" cx="1497.79" cy="115.874" r="14.4" fill="#de8f05" fill-rule="evenodd" fill-opacity="1" stroke="#000000" stroke-opacity="1" stroke-width="3.2"/>
<circle clip-path="url(#clip302)" cx="1501.72" cy="115.874" r="14.4" fill="#de8f05" fill-rule="evenodd" fill-opacity="1" stroke="#000000" stroke-opacity="1" stroke-width="3.2"/>
<circle clip-path="url(#clip302)" cx="1499.65" cy="115.874" r="14.4" fill="#de8f05" fill-rule="evenodd" fill-opacity="1" stroke="#000000" stroke-opacity="1" stroke-width="3.2"/>
<circle clip-path="url(#clip302)" cx="1500.37" cy="115.874" r="14.4" fill="#de8f05" fill-rule="evenodd" fill-opacity="1" stroke="#000000" stroke-opacity="1" stroke-width="3.2"/>
<circle clip-path="url(#clip302)" cx="1851.21" cy="112.931" r="14.4" fill="#de8f05" fill-rule="evenodd" fill-opacity="1" stroke="#000000" stroke-opacity="1" stroke-width="3.2"/>
<circle clip-path="url(#clip302)" cx="1503.39" cy="115.873" r="14.4" fill="#de8f05" fill-rule="evenodd" fill-opacity="1" stroke="#000000" stroke-opacity="1" stroke-width="3.2"/>
<circle clip-path="url(#clip302)" cx="1567.12" cy="115.873" r="14.4" fill="#de8f05" fill-rule="evenodd" fill-opacity="1" stroke="#000000" stroke-opacity="1" stroke-width="3.2"/>
<circle clip-path="url(#clip302)" cx="1503" cy="115.873" r="14.4" fill="#de8f05" fill-rule="evenodd" fill-opacity="1" stroke="#000000" stroke-opacity="1" stroke-width="3.2"/>
<circle clip-path="url(#clip302)" cx="1523.78" cy="115.872" r="14.4" fill="#de8f05" fill-rule="evenodd" fill-opacity="1" stroke="#000000" stroke-opacity="1" stroke-width="3.2"/>
<circle clip-path="url(#clip302)" cx="1473.81" cy="447.363" r="14.4" fill="#de8f05" fill-rule="evenodd" fill-opacity="1" stroke="#000000" stroke-opacity="1" stroke-width="3.2"/>
<circle clip-path="url(#clip302)" cx="2294.32" cy="84.9802" r="14.4" fill="#de8f05" fill-rule="evenodd" fill-opacity="1" stroke="#000000" stroke-opacity="1" stroke-width="3.2"/>
<circle clip-path="url(#clip302)" cx="1764.84" cy="93.0896" r="14.4" fill="#de8f05" fill-rule="evenodd" fill-opacity="1" stroke="#000000" stroke-opacity="1" stroke-width="3.2"/>
<circle clip-path="url(#clip302)" cx="1496.53" cy="115.858" r="14.4" fill="#de8f05" fill-rule="evenodd" fill-opacity="1" stroke="#000000" stroke-opacity="1" stroke-width="3.2"/>
<circle clip-path="url(#clip302)" cx="1527.59" cy="115.846" r="14.4" fill="#de8f05" fill-rule="evenodd" fill-opacity="1" stroke="#000000" stroke-opacity="1" stroke-width="3.2"/>
<circle clip-path="url(#clip302)" cx="1611.53" cy="115.005" r="14.4" fill="#de8f05" fill-rule="evenodd" fill-opacity="1" stroke="#000000" stroke-opacity="1" stroke-width="3.2"/>
<circle clip-path="url(#clip302)" cx="1490.84" cy="316.118" r="14.4" fill="#de8f05" fill-rule="evenodd" fill-opacity="1" stroke="#000000" stroke-opacity="1" stroke-width="3.2"/>
<circle clip-path="url(#clip302)" cx="1503.27" cy="294.559" r="14.4" fill="#de8f05" fill-rule="evenodd" fill-opacity="1" stroke="#000000" stroke-opacity="1" stroke-width="3.2"/>
<circle clip-path="url(#clip302)" cx="1499.89" cy="115.594" r="14.4" fill="#de8f05" fill-rule="evenodd" fill-opacity="1" stroke="#000000" stroke-opacity="1" stroke-width="3.2"/>
<circle clip-path="url(#clip302)" cx="1498.02" cy="115.382" r="14.4" fill="#de8f05" fill-rule="evenodd" fill-opacity="1" stroke="#000000" stroke-opacity="1" stroke-width="3.2"/>
<circle clip-path="url(#clip302)" cx="1505.1" cy="231.612" r="14.4" fill="#de8f05" fill-rule="evenodd" fill-opacity="1" stroke="#000000" stroke-opacity="1" stroke-width="3.2"/>
<circle clip-path="url(#clip302)" cx="1501.44" cy="114.493" r="14.4" fill="#de8f05" fill-rule="evenodd" fill-opacity="1" stroke="#000000" stroke-opacity="1" stroke-width="3.2"/>
<circle clip-path="url(#clip302)" cx="1500.87" cy="114.429" r="14.4" fill="#de8f05" fill-rule="evenodd" fill-opacity="1" stroke="#000000" stroke-opacity="1" stroke-width="3.2"/>
<circle clip-path="url(#clip302)" cx="1534.13" cy="114.056" r="14.4" fill="#de8f05" fill-rule="evenodd" fill-opacity="1" stroke="#000000" stroke-opacity="1" stroke-width="3.2"/>
<circle clip-path="url(#clip302)" cx="1513.1" cy="113.588" r="14.4" fill="#de8f05" fill-rule="evenodd" fill-opacity="1" stroke="#000000" stroke-opacity="1" stroke-width="3.2"/>
<circle clip-path="url(#clip302)" cx="1471.68" cy="192.869" r="14.4" fill="#de8f05" fill-rule="evenodd" fill-opacity="1" stroke="#000000" stroke-opacity="1" stroke-width="3.2"/>
<circle clip-path="url(#clip302)" cx="1490.05" cy="186.947" r="14.4" fill="#de8f05" fill-rule="evenodd" fill-opacity="1" stroke="#000000" stroke-opacity="1" stroke-width="3.2"/>
<circle clip-path="url(#clip302)" cx="1507.05" cy="112.598" r="14.4" fill="#de8f05" fill-rule="evenodd" fill-opacity="1" stroke="#000000" stroke-opacity="1" stroke-width="3.2"/>
<circle clip-path="url(#clip302)" cx="1508.2" cy="112.129" r="14.4" fill="#de8f05" fill-rule="evenodd" fill-opacity="1" stroke="#000000" stroke-opacity="1" stroke-width="3.2"/>
<circle clip-path="url(#clip302)" cx="1499.67" cy="175.006" r="14.4" fill="#de8f05" fill-rule="evenodd" fill-opacity="1" stroke="#000000" stroke-opacity="1" stroke-width="3.2"/>
<circle clip-path="url(#clip302)" cx="1510.58" cy="111.582" r="14.4" fill="#de8f05" fill-rule="evenodd" fill-opacity="1" stroke="#000000" stroke-opacity="1" stroke-width="3.2"/>
<circle clip-path="url(#clip302)" cx="1510.63" cy="111.078" r="14.4" fill="#de8f05" fill-rule="evenodd" fill-opacity="1" stroke="#000000" stroke-opacity="1" stroke-width="3.2"/>
<circle clip-path="url(#clip302)" cx="1473.48" cy="161.905" r="14.4" fill="#de8f05" fill-rule="evenodd" fill-opacity="1" stroke="#000000" stroke-opacity="1" stroke-width="3.2"/>
<circle clip-path="url(#clip302)" cx="1513" cy="110.287" r="14.4" fill="#de8f05" fill-rule="evenodd" fill-opacity="1" stroke="#000000" stroke-opacity="1" stroke-width="3.2"/>
<circle clip-path="url(#clip302)" cx="1501.26" cy="110.092" r="14.4" fill="#de8f05" fill-rule="evenodd" fill-opacity="1" stroke="#000000" stroke-opacity="1" stroke-width="3.2"/>
<circle clip-path="url(#clip302)" cx="1507.58" cy="155.305" r="14.4" fill="#de8f05" fill-rule="evenodd" fill-opacity="1" stroke="#000000" stroke-opacity="1" stroke-width="3.2"/>
<circle clip-path="url(#clip302)" cx="1598.12" cy="109.097" r="14.4" fill="#de8f05" fill-rule="evenodd" fill-opacity="1" stroke="#000000" stroke-opacity="1" stroke-width="3.2"/>
<circle clip-path="url(#clip302)" cx="1498.39" cy="149.895" r="14.4" fill="#de8f05" fill-rule="evenodd" fill-opacity="1" stroke="#000000" stroke-opacity="1" stroke-width="3.2"/>
<circle clip-path="url(#clip302)" cx="1510.39" cy="108.281" r="14.4" fill="#de8f05" fill-rule="evenodd" fill-opacity="1" stroke="#000000" stroke-opacity="1" stroke-width="3.2"/>
<circle clip-path="url(#clip302)" cx="1501.05" cy="146.358" r="14.4" fill="#de8f05" fill-rule="evenodd" fill-opacity="1" stroke="#000000" stroke-opacity="1" stroke-width="3.2"/>
<circle clip-path="url(#clip302)" cx="1624.25" cy="145.39" r="14.4" fill="#de8f05" fill-rule="evenodd" fill-opacity="1" stroke="#000000" stroke-opacity="1" stroke-width="3.2"/>
<circle clip-path="url(#clip302)" cx="2115.53" cy="85.0879" r="14.4" fill="#de8f05" fill-rule="evenodd" fill-opacity="1" stroke="#000000" stroke-opacity="1" stroke-width="3.2"/>
<circle clip-path="url(#clip302)" cx="1491.31" cy="141.591" r="14.4" fill="#de8f05" fill-rule="evenodd" fill-opacity="1" stroke="#000000" stroke-opacity="1" stroke-width="3.2"/>
<circle clip-path="url(#clip302)" cx="1494.17" cy="139.908" r="14.4" fill="#de8f05" fill-rule="evenodd" fill-opacity="1" stroke="#000000" stroke-opacity="1" stroke-width="3.2"/>
<circle clip-path="url(#clip302)" cx="1513.78" cy="106.359" r="14.4" fill="#de8f05" fill-rule="evenodd" fill-opacity="1" stroke="#000000" stroke-opacity="1" stroke-width="3.2"/>
<circle clip-path="url(#clip302)" cx="1530.67" cy="106.019" r="14.4" fill="#de8f05" fill-rule="evenodd" fill-opacity="1" stroke="#000000" stroke-opacity="1" stroke-width="3.2"/>
<circle clip-path="url(#clip302)" cx="1480.86" cy="135.33" r="14.4" fill="#de8f05" fill-rule="evenodd" fill-opacity="1" stroke="#000000" stroke-opacity="1" stroke-width="3.2"/>
<circle clip-path="url(#clip302)" cx="1491.04" cy="126.623" r="14.4" fill="#de8f05" fill-rule="evenodd" fill-opacity="1" stroke="#000000" stroke-opacity="1" stroke-width="3.2"/>
<circle clip-path="url(#clip302)" cx="1512.91" cy="101.16" r="14.4" fill="#de8f05" fill-rule="evenodd" fill-opacity="1" stroke="#000000" stroke-opacity="1" stroke-width="3.2"/>
<circle clip-path="url(#clip302)" cx="1504.58" cy="114.978" r="14.4" fill="#de8f05" fill-rule="evenodd" fill-opacity="1" stroke="#000000" stroke-opacity="1" stroke-width="3.2"/>
<circle clip-path="url(#clip302)" cx="1526.22" cy="97.9435" r="14.4" fill="#de8f05" fill-rule="evenodd" fill-opacity="1" stroke="#000000" stroke-opacity="1" stroke-width="3.2"/>
<circle clip-path="url(#clip302)" cx="1503.15" cy="108.576" r="14.4" fill="#de8f05" fill-rule="evenodd" fill-opacity="1" stroke="#000000" stroke-opacity="1" stroke-width="3.2"/>
<circle clip-path="url(#clip302)" cx="1489.26" cy="106.582" r="14.4" fill="#de8f05" fill-rule="evenodd" fill-opacity="1" stroke="#000000" stroke-opacity="1" stroke-width="3.2"/>
<circle clip-path="url(#clip302)" cx="1505.64" cy="105.116" r="14.4" fill="#de8f05" fill-rule="evenodd" fill-opacity="1" stroke="#000000" stroke-opacity="1" stroke-width="3.2"/>
<circle clip-path="url(#clip302)" cx="346.494" cy="1318.32" r="14.4" fill="#029e73" fill-rule="evenodd" fill-opacity="1" stroke="#000000" stroke-opacity="1" stroke-width="3.2"/>
<circle clip-path="url(#clip302)" cx="1487.09" cy="1191.1" r="14.4" fill="#029e73" fill-rule="evenodd" fill-opacity="1" stroke="#000000" stroke-opacity="1" stroke-width="3.2"/>
<circle clip-path="url(#clip302)" cx="1488.43" cy="1219.56" r="14.4" fill="#029e73" fill-rule="evenodd" fill-opacity="1" stroke="#000000" stroke-opacity="1" stroke-width="3.2"/>
<circle clip-path="url(#clip302)" cx="1488.19" cy="1166.05" r="14.4" fill="#029e73" fill-rule="evenodd" fill-opacity="1" stroke="#000000" stroke-opacity="1" stroke-width="3.2"/>
<circle clip-path="url(#clip302)" cx="1585.42" cy="645.559" r="14.4" fill="#029e73" fill-rule="evenodd" fill-opacity="1" stroke="#000000" stroke-opacity="1" stroke-width="3.2"/>
<circle clip-path="url(#clip302)" cx="903.728" cy="1277.75" r="14.4" fill="#029e73" fill-rule="evenodd" fill-opacity="1" stroke="#000000" stroke-opacity="1" stroke-width="3.2"/>
<circle clip-path="url(#clip302)" cx="1487.92" cy="1070.46" r="14.4" fill="#029e73" fill-rule="evenodd" fill-opacity="1" stroke="#000000" stroke-opacity="1" stroke-width="3.2"/>
<circle clip-path="url(#clip302)" cx="1488.64" cy="1176.39" r="14.4" fill="#029e73" fill-rule="evenodd" fill-opacity="1" stroke="#000000" stroke-opacity="1" stroke-width="3.2"/>
<circle clip-path="url(#clip302)" cx="1487.32" cy="1178.39" r="14.4" fill="#029e73" fill-rule="evenodd" fill-opacity="1" stroke="#000000" stroke-opacity="1" stroke-width="3.2"/>
<circle clip-path="url(#clip302)" cx="1487.55" cy="1189.84" r="14.4" fill="#029e73" fill-rule="evenodd" fill-opacity="1" stroke="#000000" stroke-opacity="1" stroke-width="3.2"/>
<circle clip-path="url(#clip302)" cx="1485.86" cy="1195.89" r="14.4" fill="#029e73" fill-rule="evenodd" fill-opacity="1" stroke="#000000" stroke-opacity="1" stroke-width="3.2"/>
<circle clip-path="url(#clip302)" cx="1628.4" cy="295.319" r="14.4" fill="#029e73" fill-rule="evenodd" fill-opacity="1" stroke="#000000" stroke-opacity="1" stroke-width="3.2"/>
<circle clip-path="url(#clip302)" cx="1488.55" cy="1193.81" r="14.4" fill="#029e73" fill-rule="evenodd" fill-opacity="1" stroke="#000000" stroke-opacity="1" stroke-width="3.2"/>
<circle clip-path="url(#clip302)" cx="1499.44" cy="810.398" r="14.4" fill="#029e73" fill-rule="evenodd" fill-opacity="1" stroke="#000000" stroke-opacity="1" stroke-width="3.2"/>
<circle clip-path="url(#clip302)" cx="1487.64" cy="1161.44" r="14.4" fill="#029e73" fill-rule="evenodd" fill-opacity="1" stroke="#000000" stroke-opacity="1" stroke-width="3.2"/>
<circle clip-path="url(#clip302)" cx="1495.3" cy="1076.21" r="14.4" fill="#029e73" fill-rule="evenodd" fill-opacity="1" stroke="#000000" stroke-opacity="1" stroke-width="3.2"/>
<circle clip-path="url(#clip302)" cx="1122.44" cy="1264.52" r="14.4" fill="#029e73" fill-rule="evenodd" fill-opacity="1" stroke="#000000" stroke-opacity="1" stroke-width="3.2"/>
<circle clip-path="url(#clip302)" cx="1616.2" cy="116.271" r="14.4" fill="#029e73" fill-rule="evenodd" fill-opacity="1" stroke="#000000" stroke-opacity="1" stroke-width="3.2"/>
<circle clip-path="url(#clip302)" cx="1636.16" cy="348.103" r="14.4" fill="#029e73" fill-rule="evenodd" fill-opacity="1" stroke="#000000" stroke-opacity="1" stroke-width="3.2"/>
<circle clip-path="url(#clip302)" cx="1488.58" cy="1228.51" r="14.4" fill="#029e73" fill-rule="evenodd" fill-opacity="1" stroke="#000000" stroke-opacity="1" stroke-width="3.2"/>
<circle clip-path="url(#clip302)" cx="1492.43" cy="1141.94" r="14.4" fill="#029e73" fill-rule="evenodd" fill-opacity="1" stroke="#000000" stroke-opacity="1" stroke-width="3.2"/>
<circle clip-path="url(#clip302)" cx="1525.08" cy="856.639" r="14.4" fill="#029e73" fill-rule="evenodd" fill-opacity="1" stroke="#000000" stroke-opacity="1" stroke-width="3.2"/>
<circle clip-path="url(#clip302)" cx="1253.97" cy="1230.3" r="14.4" fill="#029e73" fill-rule="evenodd" fill-opacity="1" stroke="#000000" stroke-opacity="1" stroke-width="3.2"/>
<circle clip-path="url(#clip302)" cx="1278.16" cy="1243.34" r="14.4" fill="#029e73" fill-rule="evenodd" fill-opacity="1" stroke="#000000" stroke-opacity="1" stroke-width="3.2"/>
<circle clip-path="url(#clip302)" cx="1488.82" cy="1237.03" r="14.4" fill="#029e73" fill-rule="evenodd" fill-opacity="1" stroke="#000000" stroke-opacity="1" stroke-width="3.2"/>
<circle clip-path="url(#clip302)" cx="1490.18" cy="1220.65" r="14.4" fill="#029e73" fill-rule="evenodd" fill-opacity="1" stroke="#000000" stroke-opacity="1" stroke-width="3.2"/>
<circle clip-path="url(#clip302)" cx="1343.12" cy="1198.49" r="14.4" fill="#029e73" fill-rule="evenodd" fill-opacity="1" stroke="#000000" stroke-opacity="1" stroke-width="3.2"/>
<circle clip-path="url(#clip302)" cx="1491.87" cy="1187.27" r="14.4" fill="#029e73" fill-rule="evenodd" fill-opacity="1" stroke="#000000" stroke-opacity="1" stroke-width="3.2"/>
<circle clip-path="url(#clip302)" cx="1492.24" cy="1244.09" r="14.4" fill="#029e73" fill-rule="evenodd" fill-opacity="1" stroke="#000000" stroke-opacity="1" stroke-width="3.2"/>
<circle clip-path="url(#clip302)" cx="1500.66" cy="957.372" r="14.4" fill="#029e73" fill-rule="evenodd" fill-opacity="1" stroke="#000000" stroke-opacity="1" stroke-width="3.2"/>
<circle clip-path="url(#clip302)" cx="1494.58" cy="1129.04" r="14.4" fill="#029e73" fill-rule="evenodd" fill-opacity="1" stroke="#000000" stroke-opacity="1" stroke-width="3.2"/>
<circle clip-path="url(#clip302)" cx="1384.09" cy="1212.26" r="14.4" fill="#029e73" fill-rule="evenodd" fill-opacity="1" stroke="#000000" stroke-opacity="1" stroke-width="3.2"/>
<circle clip-path="url(#clip302)" cx="1394.47" cy="1252.1" r="14.4" fill="#029e73" fill-rule="evenodd" fill-opacity="1" stroke="#000000" stroke-opacity="1" stroke-width="3.2"/>
<circle clip-path="url(#clip302)" cx="1495.82" cy="1151.3" r="14.4" fill="#029e73" fill-rule="evenodd" fill-opacity="1" stroke="#000000" stroke-opacity="1" stroke-width="3.2"/>
<circle clip-path="url(#clip302)" cx="1495.2" cy="1171.52" r="14.4" fill="#029e73" fill-rule="evenodd" fill-opacity="1" stroke="#000000" stroke-opacity="1" stroke-width="3.2"/>
<circle clip-path="url(#clip302)" cx="1409.42" cy="1248.3" r="14.4" fill="#029e73" fill-rule="evenodd" fill-opacity="1" stroke="#000000" stroke-opacity="1" stroke-width="3.2"/>
<circle clip-path="url(#clip302)" cx="1496.81" cy="1147.87" r="14.4" fill="#029e73" fill-rule="evenodd" fill-opacity="1" stroke="#000000" stroke-opacity="1" stroke-width="3.2"/>
<circle clip-path="url(#clip302)" cx="1498.97" cy="1125.93" r="14.4" fill="#029e73" fill-rule="evenodd" fill-opacity="1" stroke="#000000" stroke-opacity="1" stroke-width="3.2"/>
<circle clip-path="url(#clip302)" cx="1425.47" cy="1292.43" r="14.4" fill="#029e73" fill-rule="evenodd" fill-opacity="1" stroke="#000000" stroke-opacity="1" stroke-width="3.2"/>
<circle clip-path="url(#clip302)" cx="1499.37" cy="1164.33" r="14.4" fill="#029e73" fill-rule="evenodd" fill-opacity="1" stroke="#000000" stroke-opacity="1" stroke-width="3.2"/>
<circle clip-path="url(#clip302)" cx="1501.31" cy="1230.96" r="14.4" fill="#029e73" fill-rule="evenodd" fill-opacity="1" stroke="#000000" stroke-opacity="1" stroke-width="3.2"/>
<circle clip-path="url(#clip302)" cx="1436.72" cy="1295.3" r="14.4" fill="#029e73" fill-rule="evenodd" fill-opacity="1" stroke="#000000" stroke-opacity="1" stroke-width="3.2"/>
<circle clip-path="url(#clip302)" cx="1542.58" cy="777.377" r="14.4" fill="#029e73" fill-rule="evenodd" fill-opacity="1" stroke="#000000" stroke-opacity="1" stroke-width="3.2"/>
<circle clip-path="url(#clip302)" cx="1442.66" cy="1284.94" r="14.4" fill="#029e73" fill-rule="evenodd" fill-opacity="1" stroke="#000000" stroke-opacity="1" stroke-width="3.2"/>
<circle clip-path="url(#clip302)" cx="1505.36" cy="1207.34" r="14.4" fill="#029e73" fill-rule="evenodd" fill-opacity="1" stroke="#000000" stroke-opacity="1" stroke-width="3.2"/>
<circle clip-path="url(#clip302)" cx="1447.74" cy="1307.57" r="14.4" fill="#029e73" fill-rule="evenodd" fill-opacity="1" stroke="#000000" stroke-opacity="1" stroke-width="3.2"/>
<circle clip-path="url(#clip302)" cx="1553.67" cy="825.191" r="14.4" fill="#029e73" fill-rule="evenodd" fill-opacity="1" stroke="#000000" stroke-opacity="1" stroke-width="3.2"/>
<circle clip-path="url(#clip302)" cx="1673.5" cy="121.474" r="14.4" fill="#029e73" fill-rule="evenodd" fill-opacity="1" stroke="#000000" stroke-opacity="1" stroke-width="3.2"/>
<circle clip-path="url(#clip302)" cx="1455.98" cy="1309.71" r="14.4" fill="#029e73" fill-rule="evenodd" fill-opacity="1" stroke="#000000" stroke-opacity="1" stroke-width="3.2"/>
<circle clip-path="url(#clip302)" cx="1458.14" cy="1279.18" r="14.4" fill="#029e73" fill-rule="evenodd" fill-opacity="1" stroke="#000000" stroke-opacity="1" stroke-width="3.2"/>
<circle clip-path="url(#clip302)" cx="1509.41" cy="1172.15" r="14.4" fill="#029e73" fill-rule="evenodd" fill-opacity="1" stroke="#000000" stroke-opacity="1" stroke-width="3.2"/>
<circle clip-path="url(#clip302)" cx="1512.49" cy="1070.37" r="14.4" fill="#029e73" fill-rule="evenodd" fill-opacity="1" stroke="#000000" stroke-opacity="1" stroke-width="3.2"/>
<circle clip-path="url(#clip302)" cx="1465.51" cy="1273.35" r="14.4" fill="#029e73" fill-rule="evenodd" fill-opacity="1" stroke="#000000" stroke-opacity="1" stroke-width="3.2"/>
<circle clip-path="url(#clip302)" cx="1479.06" cy="1271.73" r="14.4" fill="#029e73" fill-rule="evenodd" fill-opacity="1" stroke="#000000" stroke-opacity="1" stroke-width="3.2"/>
<circle clip-path="url(#clip302)" cx="1518.81" cy="1200.79" r="14.4" fill="#029e73" fill-rule="evenodd" fill-opacity="1" stroke="#000000" stroke-opacity="1" stroke-width="3.2"/>
<circle clip-path="url(#clip302)" cx="1497.39" cy="1276.83" r="14.4" fill="#029e73" fill-rule="evenodd" fill-opacity="1" stroke="#000000" stroke-opacity="1" stroke-width="3.2"/>
<circle clip-path="url(#clip302)" cx="1523.7" cy="982.106" r="14.4" fill="#029e73" fill-rule="evenodd" fill-opacity="1" stroke="#000000" stroke-opacity="1" stroke-width="3.2"/>
<circle clip-path="url(#clip302)" cx="1508.22" cy="1292.43" r="14.4" fill="#029e73" fill-rule="evenodd" fill-opacity="1" stroke="#000000" stroke-opacity="1" stroke-width="3.2"/>
<circle clip-path="url(#clip302)" cx="1511.04" cy="1342.85" r="14.4" fill="#029e73" fill-rule="evenodd" fill-opacity="1" stroke="#000000" stroke-opacity="1" stroke-width="3.2"/>
<circle clip-path="url(#clip302)" cx="1516.15" cy="1284.37" r="14.4" fill="#029e73" fill-rule="evenodd" fill-opacity="1" stroke="#000000" stroke-opacity="1" stroke-width="3.2"/>
<path clip-path="url(#clip300)" d="M356.882 247.209 L679.14 247.209 L679.14 91.6888 L356.882 91.6888  Z" fill="#ffffff" fill-rule="evenodd" fill-opacity="1"/>
<polyline clip-path="url(#clip300)" style="stroke:#000000; stroke-linecap:round; stroke-linejoin:round; stroke-width:4; stroke-opacity:1; fill:none" points="356.882,247.209 679.14,247.209 679.14,91.6888 356.882,91.6888 356.882,247.209 "/>
<circle clip-path="url(#clip300)" cx="448.647" cy="143.529" r="20.48" fill="#de8f05" fill-rule="evenodd" fill-opacity="1" stroke="#000000" stroke-opacity="1" stroke-width="4.55111"/>
<path clip-path="url(#clip300)" d="M566.41 152.221 Q566.41 152.408 566.199 153.134 Q565.988 153.86 565.473 154.985 Q564.981 156.109 564.302 157.139 Q563.622 158.147 562.498 158.896 Q561.397 159.622 560.133 159.622 Q558.446 159.622 557.322 158.498 Q556.198 157.374 556.198 155.687 Q556.198 154.75 556.689 153.462 Q559.805 145.147 559.805 142.29 Q559.805 138.94 557.205 138.94 Q555.916 138.94 554.699 139.432 Q553.504 139.9 552.684 140.556 Q551.864 141.212 551.115 142.126 Q550.389 143.016 550.014 143.625 Q549.663 144.21 549.382 144.796 L548.773 147.185 Q548.632 147.841 547.953 150.394 L546.899 154.727 Q546.149 157.959 545.985 158.264 Q545.751 158.92 545.236 159.271 Q544.721 159.622 544.205 159.622 Q543.62 159.622 543.222 159.271 Q542.823 158.92 542.823 158.311 Q542.823 158.217 542.894 157.866 Q542.964 157.514 543.081 157.022 Q543.198 156.53 543.245 156.249 L546.032 145.171 Q546.548 143.156 546.665 142.524 Q546.805 141.868 546.805 141.142 Q546.805 138.94 545.306 138.94 Q544.088 138.94 543.292 140.392 Q542.495 141.845 541.816 144.655 Q541.605 145.428 541.465 145.592 Q541.348 145.756 540.996 145.756 Q540.411 145.733 540.411 145.264 Q540.411 145.147 540.598 144.374 Q540.786 143.601 541.137 142.5 Q541.512 141.376 541.863 140.627 Q542.168 140.064 542.331 139.807 Q542.519 139.526 542.964 138.987 Q543.432 138.425 544.041 138.167 Q544.674 137.886 545.447 137.886 Q547.18 137.886 548.445 139.01 Q549.71 140.111 549.874 142.055 Q552.989 137.886 557.345 137.886 Q559.922 137.886 561.397 139.245 Q562.873 140.603 562.873 143.016 Q562.873 143.578 562.756 144.304 Q562.662 145.007 562.428 145.897 Q562.217 146.787 562.03 147.466 Q561.842 148.145 561.468 149.246 Q561.093 150.323 560.929 150.792 Q560.765 151.26 560.367 152.361 Q559.992 153.439 559.945 153.556 Q559.079 155.734 559.079 156.975 Q559.079 157.795 559.336 158.17 Q559.617 158.545 560.226 158.545 Q561.866 158.545 563.084 156.929 Q564.325 155.289 565.122 152.619 Q565.309 152.033 565.403 151.893 Q565.52 151.752 565.848 151.752 Q566.41 151.752 566.41 152.221 Z" fill="#000000" fill-rule="nonzero" fill-opacity="1" /><path clip-path="url(#clip300)" d="M582.197 151.799 Q582.244 151.214 583.157 151.214 L612.552 151.214 Q613.934 151.214 613.958 151.752 Q613.958 152.338 612.646 152.314 L583.485 152.314 Q582.197 152.338 582.197 151.799 M582.197 142.43 Q582.197 141.845 583.204 141.868 L612.506 141.868 Q613.934 141.868 613.958 142.43 Q613.958 142.969 612.74 142.969 L583.157 142.969 Q582.197 142.969 582.197 142.43 Z" fill="#000000" fill-rule="nonzero" fill-opacity="1" /><path clip-path="url(#clip300)" d="M632.449 131.703 L632.449 130.204 Q638.211 130.204 641.185 127.135 Q642.005 127.135 642.146 127.323 Q642.286 127.51 642.286 128.377 L642.286 155.289 Q642.286 156.718 642.989 157.163 Q643.691 157.608 646.76 157.608 L648.282 157.608 L648.282 159.083 Q646.596 158.943 640.506 158.943 Q634.416 158.943 632.753 159.083 L632.753 157.608 L634.276 157.608 Q637.297 157.608 638.023 157.186 Q638.749 156.741 638.749 155.289 L638.749 130.438 Q636.243 131.703 632.449 131.703 Z" fill="#000000" fill-rule="nonzero" fill-opacity="1" /><circle clip-path="url(#clip300)" cx="448.647" cy="195.369" r="20.48" fill="#029e73" fill-rule="evenodd" fill-opacity="1" stroke="#000000" stroke-opacity="1" stroke-width="4.55111"/>
<path clip-path="url(#clip300)" d="M566.41 204.061 Q566.41 204.248 566.199 204.974 Q565.988 205.7 565.473 206.825 Q564.981 207.949 564.302 208.979 Q563.622 209.987 562.498 210.736 Q561.397 211.462 560.133 211.462 Q558.446 211.462 557.322 210.338 Q556.198 209.214 556.198 207.527 Q556.198 206.59 556.689 205.302 Q559.805 196.987 559.805 194.13 Q559.805 190.78 557.205 190.78 Q555.916 190.78 554.699 191.272 Q553.504 191.74 552.684 192.396 Q551.864 193.052 551.115 193.966 Q550.389 194.856 550.014 195.465 Q549.663 196.05 549.382 196.636 L548.773 199.025 Q548.632 199.681 547.953 202.234 L546.899 206.567 Q546.149 209.799 545.985 210.104 Q545.751 210.76 545.236 211.111 Q544.721 211.462 544.205 211.462 Q543.62 211.462 543.222 211.111 Q542.823 210.76 542.823 210.151 Q542.823 210.057 542.894 209.706 Q542.964 209.354 543.081 208.862 Q543.198 208.37 543.245 208.089 L546.032 197.011 Q546.548 194.996 546.665 194.364 Q546.805 193.708 546.805 192.982 Q546.805 190.78 545.306 190.78 Q544.088 190.78 543.292 192.232 Q542.495 193.685 541.816 196.495 Q541.605 197.268 541.465 197.432 Q541.348 197.596 540.996 197.596 Q540.411 197.573 540.411 197.104 Q540.411 196.987 540.598 196.214 Q540.786 195.441 541.137 194.34 Q541.512 193.216 541.863 192.467 Q542.168 191.904 542.331 191.647 Q542.519 191.366 542.964 190.827 Q543.432 190.265 544.041 190.007 Q544.674 189.726 545.447 189.726 Q547.18 189.726 548.445 190.85 Q549.71 191.951 549.874 193.895 Q552.989 189.726 557.345 189.726 Q559.922 189.726 561.397 191.085 Q562.873 192.443 562.873 194.856 Q562.873 195.418 562.756 196.144 Q562.662 196.847 562.428 197.737 Q562.217 198.627 562.03 199.306 Q561.842 199.985 561.468 201.086 Q561.093 202.163 560.929 202.632 Q560.765 203.1 560.367 204.201 Q559.992 205.279 559.945 205.396 Q559.079 207.574 559.079 208.815 Q559.079 209.635 559.336 210.01 Q559.617 210.385 560.226 210.385 Q561.866 210.385 563.084 208.769 Q564.325 207.129 565.122 204.459 Q565.309 203.873 565.403 203.733 Q565.52 203.592 565.848 203.592 Q566.41 203.592 566.41 204.061 Z" fill="#000000" fill-rule="nonzero" fill-opacity="1" /><path clip-path="url(#clip300)" d="M582.197 203.639 Q582.244 203.054 583.157 203.054 L612.552 203.054 Q613.934 203.054 613.958 203.592 Q613.958 204.178 612.646 204.154 L583.485 204.154 Q582.197 204.178 582.197 203.639 M582.197 194.27 Q582.197 193.685 583.204 193.708 L612.506 193.708 Q613.934 193.708 613.958 194.27 Q613.958 194.809 612.74 194.809 L583.157 194.809 Q582.197 194.809 582.197 194.27 Z" fill="#000000" fill-rule="nonzero" fill-opacity="1" /><path clip-path="url(#clip300)" d="M632.449 210.923 Q632.449 210.057 632.519 209.799 Q632.613 209.542 632.987 209.143 L642.192 198.884 Q647.228 193.216 647.228 188.274 Q647.228 185.065 645.542 182.77 Q643.879 180.474 640.811 180.474 Q638.702 180.474 636.922 181.763 Q635.142 183.051 634.323 185.346 Q634.463 185.299 634.955 185.299 Q636.149 185.299 636.805 186.049 Q637.485 186.798 637.485 187.806 Q637.485 189.094 636.641 189.726 Q635.822 190.335 635.002 190.335 Q634.674 190.335 634.229 190.265 Q633.807 190.195 633.128 189.539 Q632.449 188.86 632.449 187.665 Q632.449 184.316 634.978 181.645 Q637.531 178.975 641.42 178.975 Q645.823 178.975 648.704 181.599 Q651.608 184.198 651.608 188.274 Q651.608 189.703 651.163 191.014 Q650.742 192.303 650.156 193.31 Q649.594 194.317 648.048 195.933 Q646.502 197.549 645.261 198.697 Q644.019 199.845 641.232 202.281 L636.149 207.223 L644.792 207.223 Q649.008 207.223 649.336 206.848 Q649.805 206.169 650.39 202.585 L651.608 202.585 L650.25 210.923 L632.449 210.923 Z" fill="#000000" fill-rule="nonzero" fill-opacity="1" /></svg>
