<?xml version="1.0" encoding="utf-8"?>
<svg xmlns="http://www.w3.org/2000/svg" xmlns:xlink="http://www.w3.org/1999/xlink" width="600" height="400" viewBox="0 0 2400 1600">
<defs>
  <clipPath id="clip340">
    <rect x="0" y="0" width="2400" height="1600"/>
  </clipPath>
</defs>
<path clip-path="url(#clip340)" d="M0 1600 L2400 1600 L2400 0 L0 0  Z" fill="#ffffff" fill-rule="evenodd" fill-opacity="1"/>
<defs>
  <clipPath id="clip341">
    <rect x="480" y="0" width="1681" height="1600"/>
  </clipPath>
</defs>
<path clip-path="url(#clip340)" d="M288.059 1380.58 L2352.76 1380.58 L2352.76 47.2441 L288.059 47.2441  Z" fill="#ffffff" fill-rule="evenodd" fill-opacity="1"/>
<defs>
  <clipPath id="clip342">
    <rect x="288" y="47" width="2066" height="1334"/>
  </clipPath>
</defs>
<polyline clip-path="url(#clip342)" style="stroke:#000000; stroke-linecap:round; stroke-linejoin:round; stroke-width:2; stroke-opacity:0.1; fill:none" points="740.923,1380.58 740.923,47.2441 "/>
<polyline clip-path="url(#clip342)" style="stroke:#000000; stroke-linecap:round; stroke-linejoin:round; stroke-width:2; stroke-opacity:0.1; fill:none" points="1246.53,1380.58 1246.53,47.2441 "/>
<polyline clip-path="url(#clip342)" style="stroke:#000000; stroke-linecap:round; stroke-linejoin:round; stroke-width:2; stroke-opacity:0.1; fill:none" points="1752.14,1380.58 1752.14,47.2441 "/>
<polyline clip-path="url(#clip342)" style="stroke:#000000; stroke-linecap:round; stroke-linejoin:round; stroke-width:2; stroke-opacity:0.1; fill:none" points="2257.75,1380.58 2257.75,47.2441 "/>
<polyline clip-path="url(#clip342)" style="stroke:#000000; stroke-linecap:round; stroke-linejoin:round; stroke-width:2; stroke-opacity:0.1; fill:none" points="740.923,1380.58 740.923,47.2441 "/>
<polyline clip-path="url(#clip342)" style="stroke:#000000; stroke-linecap:round; stroke-linejoin:round; stroke-width:2; stroke-opacity:0.1; fill:none" points="1246.53,1380.58 1246.53,47.2441 "/>
<polyline clip-path="url(#clip342)" style="stroke:#000000; stroke-linecap:round; stroke-linejoin:round; stroke-width:2; stroke-opacity:0.1; fill:none" points="1752.14,1380.58 1752.14,47.2441 "/>
<polyline clip-path="url(#clip342)" style="stroke:#000000; stroke-linecap:round; stroke-linejoin:round; stroke-width:2; stroke-opacity:0.1; fill:none" points="2257.75,1380.58 2257.75,47.2441 "/>
<polyline clip-path="url(#clip342)" style="stroke:#000000; stroke-linecap:round; stroke-linejoin:round; stroke-width:2; stroke-opacity:0.1; fill:none" points="288.059,1342.85 2352.76,1342.85 "/>
<polyline clip-path="url(#clip342)" style="stroke:#000000; stroke-linecap:round; stroke-linejoin:round; stroke-width:2; stroke-opacity:0.1; fill:none" points="288.059,1166.38 2352.76,1166.38 "/>
<polyline clip-path="url(#clip342)" style="stroke:#000000; stroke-linecap:round; stroke-linejoin:round; stroke-width:2; stroke-opacity:0.1; fill:none" points="288.059,989.904 2352.76,989.904 "/>
<polyline clip-path="url(#clip342)" style="stroke:#000000; stroke-linecap:round; stroke-linejoin:round; stroke-width:2; stroke-opacity:0.1; fill:none" points="288.059,813.431 2352.76,813.431 "/>
<polyline clip-path="url(#clip342)" style="stroke:#000000; stroke-linecap:round; stroke-linejoin:round; stroke-width:2; stroke-opacity:0.1; fill:none" points="288.059,636.959 2352.76,636.959 "/>
<polyline clip-path="url(#clip342)" style="stroke:#000000; stroke-linecap:round; stroke-linejoin:round; stroke-width:2; stroke-opacity:0.1; fill:none" points="288.059,460.486 2352.76,460.486 "/>
<polyline clip-path="url(#clip342)" style="stroke:#000000; stroke-linecap:round; stroke-linejoin:round; stroke-width:2; stroke-opacity:0.1; fill:none" points="288.059,284.014 2352.76,284.014 "/>
<polyline clip-path="url(#clip342)" style="stroke:#000000; stroke-linecap:round; stroke-linejoin:round; stroke-width:2; stroke-opacity:0.1; fill:none" points="288.059,107.541 2352.76,107.541 "/>
<polyline clip-path="url(#clip342)" style="stroke:#000000; stroke-linecap:round; stroke-linejoin:round; stroke-width:2; stroke-opacity:0.1; fill:none" points="288.059,1342.85 2352.76,1342.85 "/>
<polyline clip-path="url(#clip342)" style="stroke:#000000; stroke-linecap:round; stroke-linejoin:round; stroke-width:2; stroke-opacity:0.1; fill:none" points="288.059,1166.38 2352.76,1166.38 "/>
<polyline clip-path="url(#clip342)" style="stroke:#000000; stroke-linecap:round; stroke-linejoin:round; stroke-width:2; stroke-opacity:0.1; fill:none" points="288.059,989.904 2352.76,989.904 "/>
<polyline clip-path="url(#clip342)" style="stroke:#000000; stroke-linecap:round; stroke-linejoin:round; stroke-width:2; stroke-opacity:0.1; fill:none" points="288.059,813.431 2352.76,813.431 "/>
<polyline clip-path="url(#clip342)" style="stroke:#000000; stroke-linecap:round; stroke-linejoin:round; stroke-width:2; stroke-opacity:0.1; fill:none" points="288.059,636.959 2352.76,636.959 "/>
<polyline clip-path="url(#clip342)" style="stroke:#000000; stroke-linecap:round; stroke-linejoin:round; stroke-width:2; stroke-opacity:0.1; fill:none" points="288.059,460.486 2352.76,460.486 "/>
<polyline clip-path="url(#clip342)" style="stroke:#000000; stroke-linecap:round; stroke-linejoin:round; stroke-width:2; stroke-opacity:0.1; fill:none" points="288.059,284.014 2352.76,284.014 "/>
<polyline clip-path="url(#clip342)" style="stroke:#000000; stroke-linecap:round; stroke-linejoin:round; stroke-width:2; stroke-opacity:0.1; fill:none" points="288.059,107.541 2352.76,107.541 "/>
<polyline clip-path="url(#clip340)" style="stroke:#000000; stroke-linecap:round; stroke-linejoin:round; stroke-width:4; stroke-opacity:1; fill:none" points="288.059,1380.58 2352.76,1380.58 "/>
<polyline clip-path="url(#clip340)" style="stroke:#000000; stroke-linecap:round; stroke-linejoin:round; stroke-width:4; stroke-opacity:1; fill:none" points="288.059,47.2441 2352.76,47.2441 "/>
<polyline clip-path="url(#clip340)" style="stroke:#000000; stroke-linecap:round; stroke-linejoin:round; stroke-width:4; stroke-opacity:1; fill:none" points="740.923,1380.58 740.923,1361.69 "/>
<polyline clip-path="url(#clip340)" style="stroke:#000000; stroke-linecap:round; stroke-linejoin:round; stroke-width:4; stroke-opacity:1; fill:none" points="1246.53,1380.58 1246.53,1361.69 "/>
<polyline clip-path="url(#clip340)" style="stroke:#000000; stroke-linecap:round; stroke-linejoin:round; stroke-width:4; stroke-opacity:1; fill:none" points="1752.14,1380.58 1752.14,1361.69 "/>
<polyline clip-path="url(#clip340)" style="stroke:#000000; stroke-linecap:round; stroke-linejoin:round; stroke-width:4; stroke-opacity:1; fill:none" points="2257.75,1380.58 2257.75,1361.69 "/>
<polyline clip-path="url(#clip340)" style="stroke:#000000; stroke-linecap:round; stroke-linejoin:round; stroke-width:4; stroke-opacity:1; fill:none" points="740.923,47.2441 740.923,66.1417 "/>
<polyline clip-path="url(#clip340)" style="stroke:#000000; stroke-linecap:round; stroke-linejoin:round; stroke-width:4; stroke-opacity:1; fill:none" points="1246.53,47.2441 1246.53,66.1417 "/>
<polyline clip-path="url(#clip340)" style="stroke:#000000; stroke-linecap:round; stroke-linejoin:round; stroke-width:4; stroke-opacity:1; fill:none" points="1752.14,47.2441 1752.14,66.1417 "/>
<polyline clip-path="url(#clip340)" style="stroke:#000000; stroke-linecap:round; stroke-linejoin:round; stroke-width:4; stroke-opacity:1; fill:none" points="2257.75,47.2441 2257.75,66.1417 "/>
<path clip-path="url(#clip340)" d="M690.803 1454.71 L698.442 1454.71 L698.442 1428.34 L690.132 1430.01 L690.132 1425.75 L698.396 1424.08 L703.072 1424.08 L703.072 1454.71 L710.711 1454.71 L710.711 1458.64 L690.803 1458.64 L690.803 1454.71 Z" fill="#000000" fill-rule="nonzero" fill-opacity="1" /><path clip-path="url(#clip340)" d="M730.155 1427.16 Q726.544 1427.16 724.715 1430.73 Q722.91 1434.27 722.91 1441.4 Q722.91 1448.51 724.715 1452.07 Q726.544 1455.61 730.155 1455.61 Q733.789 1455.61 735.595 1452.07 Q737.423 1448.51 737.423 1441.4 Q737.423 1434.27 735.595 1430.73 Q733.789 1427.16 730.155 1427.16 M730.155 1423.46 Q735.965 1423.46 739.021 1428.07 Q742.099 1432.65 742.099 1441.4 Q742.099 1450.13 739.021 1454.73 Q735.965 1459.32 730.155 1459.32 Q724.345 1459.32 721.266 1454.73 Q718.211 1450.13 718.211 1441.4 Q718.211 1432.65 721.266 1428.07 Q724.345 1423.46 730.155 1423.46 Z" fill="#000000" fill-rule="nonzero" fill-opacity="1" /><path clip-path="url(#clip340)" d="M742.099 1417.56 L766.211 1417.56 L766.211 1420.76 L742.099 1420.76 L742.099 1417.56 Z" fill="#000000" fill-rule="nonzero" fill-opacity="1" /><path clip-path="url(#clip340)" d="M785.921 1416.09 Q788.649 1416.68 790.172 1418.52 Q791.714 1420.36 791.714 1423.07 Q791.714 1427.23 788.855 1429.5 Q785.997 1431.78 780.731 1431.78 Q778.963 1431.78 777.082 1431.42 Q775.22 1431.08 773.226 1430.39 L773.226 1426.72 Q774.806 1427.64 776.687 1428.11 Q778.568 1428.58 780.618 1428.58 Q784.191 1428.58 786.053 1427.17 Q787.934 1425.76 787.934 1423.07 Q787.934 1420.59 786.185 1419.2 Q784.454 1417.79 781.351 1417.79 L778.079 1417.79 L778.079 1414.66 L781.502 1414.66 Q784.304 1414.66 785.79 1413.56 Q787.276 1412.43 787.276 1410.32 Q787.276 1408.16 785.733 1407.01 Q784.21 1405.84 781.351 1405.84 Q779.79 1405.84 778.003 1406.18 Q776.217 1406.52 774.073 1407.24 L774.073 1403.85 Q776.235 1403.25 778.116 1402.95 Q780.016 1402.65 781.69 1402.65 Q786.015 1402.65 788.536 1404.62 Q791.056 1406.58 791.056 1409.93 Q791.056 1412.26 789.721 1413.88 Q788.385 1415.47 785.921 1416.09 Z" fill="#000000" fill-rule="nonzero" fill-opacity="1" /><path clip-path="url(#clip340)" d="M1196.65 1454.71 L1204.29 1454.71 L1204.29 1428.34 L1195.98 1430.01 L1195.98 1425.75 L1204.24 1424.08 L1208.92 1424.08 L1208.92 1454.71 L1216.56 1454.71 L1216.56 1458.64 L1196.65 1458.64 L1196.65 1454.71 Z" fill="#000000" fill-rule="nonzero" fill-opacity="1" /><path clip-path="url(#clip340)" d="M1236 1427.16 Q1232.39 1427.16 1230.56 1430.73 Q1228.76 1434.27 1228.76 1441.4 Q1228.76 1448.51 1230.56 1452.07 Q1232.39 1455.61 1236 1455.61 Q1239.63 1455.61 1241.44 1452.07 Q1243.27 1448.51 1243.27 1441.4 Q1243.27 1434.27 1241.44 1430.73 Q1239.63 1427.16 1236 1427.16 M1236 1423.46 Q1241.81 1423.46 1244.87 1428.07 Q1247.94 1432.65 1247.94 1441.4 Q1247.94 1450.13 1244.87 1454.73 Q1241.81 1459.32 1236 1459.32 Q1230.19 1459.32 1227.11 1454.73 Q1224.06 1450.13 1224.06 1441.4 Q1224.06 1432.65 1227.11 1428.07 Q1230.19 1423.46 1236 1423.46 Z" fill="#000000" fill-rule="nonzero" fill-opacity="1" /><path clip-path="url(#clip340)" d="M1247.94 1417.56 L1272.06 1417.56 L1272.06 1420.76 L1247.94 1420.76 L1247.94 1417.56 Z" fill="#000000" fill-rule="nonzero" fill-opacity="1" /><path clip-path="url(#clip340)" d="M1280.91 1428.04 L1287.12 1428.04 L1287.12 1406.62 L1280.37 1407.97 L1280.37 1404.51 L1287.08 1403.15 L1290.88 1403.15 L1290.88 1428.04 L1297.09 1428.04 L1297.09 1431.23 L1280.91 1431.23 L1280.91 1428.04 Z" fill="#000000" fill-rule="nonzero" fill-opacity="1" /><path clip-path="url(#clip340)" d="M1718.47 1454.71 L1726.11 1454.71 L1726.11 1428.34 L1717.8 1430.01 L1717.8 1425.75 L1726.06 1424.08 L1730.74 1424.08 L1730.74 1454.71 L1738.38 1454.71 L1738.38 1458.64 L1718.47 1458.64 L1718.47 1454.71 Z" fill="#000000" fill-rule="nonzero" fill-opacity="1" /><path clip-path="url(#clip340)" d="M1757.82 1427.16 Q1754.21 1427.16 1752.38 1430.73 Q1750.58 1434.27 1750.58 1441.4 Q1750.58 1448.51 1752.38 1452.07 Q1754.21 1455.61 1757.82 1455.61 Q1761.46 1455.61 1763.26 1452.07 Q1765.09 1448.51 1765.09 1441.4 Q1765.09 1434.27 1763.26 1430.73 Q1761.46 1427.16 1757.82 1427.16 M1757.82 1423.46 Q1763.63 1423.46 1766.69 1428.07 Q1769.77 1432.65 1769.77 1441.4 Q1769.77 1450.13 1766.69 1454.73 Q1763.63 1459.32 1757.82 1459.32 Q1752.01 1459.32 1748.93 1454.73 Q1745.88 1450.13 1745.88 1441.4 Q1745.88 1432.65 1748.93 1428.07 Q1752.01 1423.46 1757.82 1423.46 Z" fill="#000000" fill-rule="nonzero" fill-opacity="1" /><path clip-path="url(#clip340)" d="M1770.31 1428.04 L1776.52 1428.04 L1776.52 1406.62 L1769.77 1407.97 L1769.77 1404.51 L1776.48 1403.15 L1780.28 1403.15 L1780.28 1428.04 L1786.49 1428.04 L1786.49 1431.23 L1770.31 1431.23 L1770.31 1428.04 Z" fill="#000000" fill-rule="nonzero" fill-opacity="1" /><path clip-path="url(#clip340)" d="M2223.2 1454.71 L2230.84 1454.71 L2230.84 1428.34 L2222.53 1430.01 L2222.53 1425.75 L2230.79 1424.08 L2235.47 1424.08 L2235.47 1454.71 L2243.11 1454.71 L2243.11 1458.64 L2223.2 1458.64 L2223.2 1454.71 Z" fill="#000000" fill-rule="nonzero" fill-opacity="1" /><path clip-path="url(#clip340)" d="M2262.55 1427.16 Q2258.94 1427.16 2257.11 1430.73 Q2255.3 1434.27 2255.3 1441.4 Q2255.3 1448.51 2257.11 1452.07 Q2258.94 1455.61 2262.55 1455.61 Q2266.18 1455.61 2267.99 1452.07 Q2269.82 1448.51 2269.82 1441.4 Q2269.82 1434.27 2267.99 1430.73 Q2266.18 1427.16 2262.55 1427.16 M2262.55 1423.46 Q2268.36 1423.46 2271.42 1428.07 Q2274.49 1432.65 2274.49 1441.4 Q2274.49 1450.13 2271.42 1454.73 Q2268.36 1459.32 2262.55 1459.32 Q2256.74 1459.32 2253.66 1454.73 Q2250.61 1450.13 2250.61 1441.4 Q2250.61 1432.65 2253.66 1428.07 Q2256.74 1423.46 2262.55 1423.46 Z" fill="#000000" fill-rule="nonzero" fill-opacity="1" /><path clip-path="url(#clip340)" d="M2287.19 1416.09 Q2289.92 1416.68 2291.44 1418.52 Q2292.98 1420.36 2292.98 1423.07 Q2292.98 1427.23 2290.12 1429.5 Q2287.26 1431.78 2282 1431.78 Q2280.23 1431.78 2278.35 1431.42 Q2276.49 1431.08 2274.49 1430.39 L2274.49 1426.72 Q2276.07 1427.64 2277.95 1428.11 Q2279.84 1428.58 2281.89 1428.58 Q2285.46 1428.58 2287.32 1427.17 Q2289.2 1425.76 2289.2 1423.07 Q2289.2 1420.59 2287.45 1419.2 Q2285.72 1417.79 2282.62 1417.79 L2279.35 1417.79 L2279.35 1414.66 L2282.77 1414.66 Q2285.57 1414.66 2287.06 1413.56 Q2288.54 1412.43 2288.54 1410.32 Q2288.54 1408.16 2287 1407.01 Q2285.48 1405.84 2282.62 1405.84 Q2281.06 1405.84 2279.27 1406.18 Q2277.48 1406.52 2275.34 1407.24 L2275.34 1403.85 Q2277.5 1403.25 2279.38 1402.95 Q2281.28 1402.65 2282.96 1402.65 Q2287.28 1402.65 2289.8 1404.62 Q2292.32 1406.58 2292.32 1409.93 Q2292.32 1412.26 2290.99 1413.88 Q2289.65 1415.47 2287.19 1416.09 Z" fill="#000000" fill-rule="nonzero" fill-opacity="1" /><path clip-path="url(#clip340)" d="M1224.53 1571.84 L1224.53 1509.94 Q1224.53 1507.98 1225.85 1507.98 Q1227.17 1507.98 1227.17 1510.04 L1227.17 1571.68 Q1227.17 1573.81 1225.85 1573.81 Q1224.53 1573.81 1224.53 1571.84 M1231.81 1571.84 L1231.81 1510.42 Q1231.81 1507.98 1233.13 1507.98 Q1234.45 1507.98 1234.45 1510.04 L1234.45 1571.68 Q1234.45 1573.81 1233.13 1573.81 Q1231.81 1573.81 1231.81 1571.84 Z" fill="#000000" fill-rule="nonzero" fill-opacity="1" /><path clip-path="url(#clip340)" d="M1302.44 1556.06 Q1302.44 1556.67 1302.18 1556.99 Q1301.96 1557.28 1301.73 1557.35 Q1301.54 1557.38 1301.25 1557.38 Q1300.41 1557.38 1297.51 1557.28 Q1294.62 1557.19 1293.78 1557.19 Q1292.43 1557.19 1289.66 1557.28 Q1286.89 1557.38 1285.53 1557.38 Q1284.63 1557.38 1284.63 1556.64 Q1284.63 1556.16 1284.73 1555.9 Q1284.83 1555.61 1285.08 1555.51 Q1285.37 1555.38 1285.53 1555.38 Q1285.73 1555.35 1286.21 1555.35 Q1286.85 1555.35 1287.53 1555.29 Q1288.21 1555.19 1289.04 1555 Q1289.88 1554.8 1290.4 1554.32 Q1290.94 1553.84 1290.94 1553.16 Q1290.94 1552.87 1290.72 1550.49 Q1290.49 1548.11 1290.2 1545.34 Q1289.91 1542.53 1289.88 1542.15 L1273.33 1542.15 Q1271.81 1544.76 1270.75 1546.56 Q1269.69 1548.36 1269.3 1548.97 Q1268.92 1549.59 1268.69 1549.97 Q1268.46 1550.36 1268.34 1550.58 Q1267.4 1552.29 1267.4 1553.03 Q1267.4 1555.09 1270.49 1555.35 Q1271.56 1555.35 1271.56 1556.12 Q1271.56 1556.7 1271.3 1557.03 Q1271.04 1557.32 1270.82 1557.35 Q1270.62 1557.38 1270.3 1557.38 Q1269.24 1557.38 1267.02 1557.28 Q1264.79 1557.19 1263.7 1557.19 Q1262.76 1557.19 1260.83 1557.28 Q1258.9 1557.38 1258.03 1557.38 Q1257.64 1557.38 1257.42 1557.15 Q1257.19 1556.93 1257.19 1556.64 Q1257.19 1556.19 1257.26 1555.93 Q1257.35 1555.67 1257.61 1555.54 Q1257.87 1555.42 1258 1555.42 Q1258.13 1555.38 1258.58 1555.35 Q1261.03 1555.19 1262.93 1554.03 Q1264.86 1552.84 1266.69 1549.78 L1289.62 1511.26 Q1289.85 1510.88 1290.01 1510.68 Q1290.17 1510.49 1290.49 1510.33 Q1290.85 1510.17 1291.36 1510.17 Q1292.17 1510.17 1292.33 1510.42 Q1292.49 1510.65 1292.59 1511.74 L1296.61 1552.97 Q1296.71 1553.84 1296.77 1554.19 Q1296.87 1554.51 1297.29 1554.87 Q1297.74 1555.19 1298.54 1555.29 Q1299.38 1555.35 1300.93 1555.35 Q1301.51 1555.35 1301.73 1555.38 Q1301.96 1555.38 1302.18 1555.54 Q1302.44 1555.71 1302.44 1556.06 M1289.69 1540.09 L1287.59 1518.35 L1274.58 1540.09 L1289.69 1540.09 Z" fill="#000000" fill-rule="nonzero" fill-opacity="1" /><path clip-path="url(#clip340)" d="M1309.05 1497.93 Q1309.05 1490.13 1311.95 1483.84 Q1313.19 1481.2 1314.93 1479 Q1316.66 1476.79 1317.81 1475.82 Q1318.96 1474.85 1319.28 1474.85 Q1319.73 1474.85 1319.75 1475.3 Q1319.75 1475.52 1319.14 1476.09 Q1311.71 1483.66 1311.73 1497.93 Q1311.73 1512.25 1318.96 1519.53 Q1319.75 1520.32 1319.75 1520.57 Q1319.75 1521.02 1319.28 1521.02 Q1318.96 1521.02 1317.86 1520.09 Q1316.76 1519.17 1315.04 1517.05 Q1313.33 1514.93 1312.09 1512.34 Q1309.05 1506.05 1309.05 1497.93 Z" fill="#000000" fill-rule="nonzero" fill-opacity="1" /><path clip-path="url(#clip340)" d="M1348.1 1502.87 Q1348.1 1503.05 1347.9 1503.75 Q1347.7 1504.45 1347.2 1505.53 Q1346.73 1506.61 1346.07 1507.6 Q1345.42 1508.57 1344.34 1509.29 Q1343.28 1509.99 1342.06 1509.99 Q1340.44 1509.99 1339.36 1508.91 Q1338.27 1507.83 1338.27 1506.21 Q1338.27 1505.3 1338.75 1504.06 Q1341.74 1496.06 1341.74 1493.31 Q1341.74 1490.09 1339.24 1490.09 Q1338 1490.09 1336.83 1490.56 Q1335.68 1491.01 1334.89 1491.64 Q1334.1 1492.27 1333.38 1493.15 Q1332.68 1494.01 1332.32 1494.6 Q1331.98 1495.16 1331.71 1495.72 L1331.13 1498.02 Q1330.99 1498.65 1330.34 1501.11 L1329.32 1505.28 Q1328.6 1508.39 1328.44 1508.69 Q1328.22 1509.32 1327.72 1509.66 Q1327.23 1509.99 1326.73 1509.99 Q1326.17 1509.99 1325.78 1509.66 Q1325.4 1509.32 1325.4 1508.73 Q1325.4 1508.64 1325.47 1508.3 Q1325.54 1507.96 1325.65 1507.49 Q1325.76 1507.02 1325.81 1506.75 L1328.49 1496.08 Q1328.98 1494.15 1329.1 1493.54 Q1329.23 1492.91 1329.23 1492.21 Q1329.23 1490.09 1327.79 1490.09 Q1326.62 1490.09 1325.85 1491.48 Q1325.08 1492.88 1324.43 1495.59 Q1324.23 1496.33 1324.09 1496.49 Q1323.98 1496.65 1323.64 1496.65 Q1323.08 1496.62 1323.08 1496.17 Q1323.08 1496.06 1323.26 1495.32 Q1323.44 1494.57 1323.78 1493.51 Q1324.14 1492.43 1324.48 1491.71 Q1324.77 1491.17 1324.93 1490.92 Q1325.11 1490.65 1325.54 1490.13 Q1325.99 1489.59 1326.57 1489.34 Q1327.18 1489.07 1327.93 1489.07 Q1329.59 1489.07 1330.81 1490.15 Q1332.03 1491.21 1332.19 1493.09 Q1335.18 1489.07 1339.38 1489.07 Q1341.86 1489.07 1343.28 1490.38 Q1344.7 1491.69 1344.7 1494.01 Q1344.7 1494.55 1344.59 1495.25 Q1344.5 1495.93 1344.27 1496.78 Q1344.07 1497.64 1343.89 1498.29 Q1343.71 1498.95 1343.35 1500.01 Q1342.98 1501.04 1342.83 1501.49 Q1342.67 1501.95 1342.29 1503 Q1341.93 1504.04 1341.88 1504.15 Q1341.05 1506.25 1341.05 1507.45 Q1341.05 1508.24 1341.29 1508.6 Q1341.56 1508.96 1342.15 1508.96 Q1343.73 1508.96 1344.9 1507.4 Q1346.1 1505.82 1346.86 1503.25 Q1347.04 1502.69 1347.13 1502.55 Q1347.25 1502.42 1347.56 1502.42 Q1348.1 1502.42 1348.1 1502.87 Z" fill="#000000" fill-rule="nonzero" fill-opacity="1" /><path clip-path="url(#clip340)" d="M1352.53 1520.57 Q1352.53 1520.34 1353.12 1519.78 Q1360.56 1512.2 1360.56 1497.93 Q1360.56 1483.62 1353.41 1476.38 Q1352.53 1475.55 1352.53 1475.3 Q1352.53 1474.85 1352.98 1474.85 Q1353.3 1474.85 1354.4 1475.77 Q1355.53 1476.7 1357.22 1478.82 Q1358.93 1480.93 1360.2 1483.53 Q1363.24 1489.82 1363.24 1497.93 Q1363.24 1505.73 1360.33 1512.02 Q1359.09 1514.66 1357.36 1516.87 Q1355.62 1519.08 1354.47 1520.05 Q1353.32 1521.02 1352.98 1521.02 Q1352.53 1521.02 1352.53 1520.57 Z" fill="#000000" fill-rule="nonzero" fill-opacity="1" /><path clip-path="url(#clip340)" d="M1377.3 1571.84 L1377.3 1509.94 Q1377.3 1507.98 1378.62 1507.98 Q1379.94 1507.98 1379.94 1510.04 L1379.94 1571.68 Q1379.94 1573.81 1378.62 1573.81 Q1377.3 1573.81 1377.3 1571.84 M1384.58 1571.84 L1384.58 1510.42 Q1384.58 1507.98 1385.9 1507.98 Q1387.22 1507.98 1387.22 1510.04 L1387.22 1571.68 Q1387.22 1573.81 1385.9 1573.81 Q1384.58 1573.81 1384.58 1571.84 Z" fill="#000000" fill-rule="nonzero" fill-opacity="1" /><path clip-path="url(#clip340)" d="M1394.15 1565.57 L1394.15 1564.13 Q1399.7 1564.13 1402.56 1561.17 Q1403.35 1561.17 1403.49 1561.35 Q1403.62 1561.53 1403.62 1562.37 L1403.62 1588.27 Q1403.62 1589.65 1404.3 1590.07 Q1404.97 1590.5 1407.93 1590.5 L1409.39 1590.5 L1409.39 1591.92 Q1407.77 1591.79 1401.91 1591.79 Q1396.05 1591.79 1394.45 1591.92 L1394.45 1590.5 L1395.91 1590.5 Q1398.82 1590.5 1399.52 1590.1 Q1400.22 1589.67 1400.22 1588.27 L1400.22 1564.35 Q1397.8 1565.57 1394.15 1565.57 Z" fill="#000000" fill-rule="nonzero" fill-opacity="1" /><polyline clip-path="url(#clip340)" style="stroke:#000000; stroke-linecap:round; stroke-linejoin:round; stroke-width:4; stroke-opacity:1; fill:none" points="288.059,1380.58 288.059,47.2441 "/>
<polyline clip-path="url(#clip340)" style="stroke:#000000; stroke-linecap:round; stroke-linejoin:round; stroke-width:4; stroke-opacity:1; fill:none" points="2352.76,1380.58 2352.76,47.2441 "/>
<polyline clip-path="url(#clip340)" style="stroke:#000000; stroke-linecap:round; stroke-linejoin:round; stroke-width:4; stroke-opacity:1; fill:none" points="288.059,1342.85 306.957,1342.85 "/>
<polyline clip-path="url(#clip340)" style="stroke:#000000; stroke-linecap:round; stroke-linejoin:round; stroke-width:4; stroke-opacity:1; fill:none" points="288.059,1166.38 306.957,1166.38 "/>
<polyline clip-path="url(#clip340)" style="stroke:#000000; stroke-linecap:round; stroke-linejoin:round; stroke-width:4; stroke-opacity:1; fill:none" points="288.059,989.904 306.957,989.904 "/>
<polyline clip-path="url(#clip340)" style="stroke:#000000; stroke-linecap:round; stroke-linejoin:round; stroke-width:4; stroke-opacity:1; fill:none" points="288.059,813.431 306.957,813.431 "/>
<polyline clip-path="url(#clip340)" style="stroke:#000000; stroke-linecap:round; stroke-linejoin:round; stroke-width:4; stroke-opacity:1; fill:none" points="288.059,636.959 306.957,636.959 "/>
<polyline clip-path="url(#clip340)" style="stroke:#000000; stroke-linecap:round; stroke-linejoin:round; stroke-width:4; stroke-opacity:1; fill:none" points="288.059,460.486 306.957,460.486 "/>
<polyline clip-path="url(#clip340)" style="stroke:#000000; stroke-linecap:round; stroke-linejoin:round; stroke-width:4; stroke-opacity:1; fill:none" points="288.059,284.014 306.957,284.014 "/>
<polyline clip-path="url(#clip340)" style="stroke:#000000; stroke-linecap:round; stroke-linejoin:round; stroke-width:4; stroke-opacity:1; fill:none" points="288.059,107.541 306.957,107.541 "/>
<polyline clip-path="url(#clip340)" style="stroke:#000000; stroke-linecap:round; stroke-linejoin:round; stroke-width:4; stroke-opacity:1; fill:none" points="2352.76,1342.85 2333.86,1342.85 "/>
<polyline clip-path="url(#clip340)" style="stroke:#000000; stroke-linecap:round; stroke-linejoin:round; stroke-width:4; stroke-opacity:1; fill:none" points="2352.76,1166.38 2333.86,1166.38 "/>
<polyline clip-path="url(#clip340)" style="stroke:#000000; stroke-linecap:round; stroke-linejoin:round; stroke-width:4; stroke-opacity:1; fill:none" points="2352.76,989.904 2333.86,989.904 "/>
<polyline clip-path="url(#clip340)" style="stroke:#000000; stroke-linecap:round; stroke-linejoin:round; stroke-width:4; stroke-opacity:1; fill:none" points="2352.76,813.431 2333.86,813.431 "/>
<polyline clip-path="url(#clip340)" style="stroke:#000000; stroke-linecap:round; stroke-linejoin:round; stroke-width:4; stroke-opacity:1; fill:none" points="2352.76,636.959 2333.86,636.959 "/>
<polyline clip-path="url(#clip340)" style="stroke:#000000; stroke-linecap:round; stroke-linejoin:round; stroke-width:4; stroke-opacity:1; fill:none" points="2352.76,460.486 2333.86,460.486 "/>
<polyline clip-path="url(#clip340)" style="stroke:#000000; stroke-linecap:round; stroke-linejoin:round; stroke-width:4; stroke-opacity:1; fill:none" points="2352.76,284.014 2333.86,284.014 "/>
<polyline clip-path="url(#clip340)" style="stroke:#000000; stroke-linecap:round; stroke-linejoin:round; stroke-width:4; stroke-opacity:1; fill:none" points="2352.76,107.541 2333.86,107.541 "/>
<path clip-path="url(#clip340)" d="M126.924 1362.64 L134.563 1362.64 L134.563 1336.28 L126.252 1337.94 L126.252 1333.68 L134.516 1332.02 L139.192 1332.02 L139.192 1362.64 L146.831 1362.64 L146.831 1366.58 L126.924 1366.58 L126.924 1362.64 Z" fill="#000000" fill-rule="nonzero" fill-opacity="1" /><path clip-path="url(#clip340)" d="M166.275 1335.1 Q162.664 1335.1 160.836 1338.66 Q159.03 1342.2 159.03 1349.33 Q159.03 1356.44 160.836 1360 Q162.664 1363.54 166.275 1363.54 Q169.91 1363.54 171.715 1360 Q173.544 1356.44 173.544 1349.33 Q173.544 1342.2 171.715 1338.66 Q169.91 1335.1 166.275 1335.1 M166.275 1331.39 Q172.085 1331.39 175.141 1336 Q178.22 1340.58 178.22 1349.33 Q178.22 1358.06 175.141 1362.66 Q172.085 1367.25 166.275 1367.25 Q160.465 1367.25 157.386 1362.66 Q154.331 1358.06 154.331 1349.33 Q154.331 1340.58 157.386 1336 Q160.465 1331.39 166.275 1331.39 Z" fill="#000000" fill-rule="nonzero" fill-opacity="1" /><path clip-path="url(#clip340)" d="M178.22 1325.49 L202.331 1325.49 L202.331 1328.69 L178.22 1328.69 L178.22 1325.49 Z" fill="#000000" fill-rule="nonzero" fill-opacity="1" /><path clip-path="url(#clip340)" d="M211.19 1335.97 L217.396 1335.97 L217.396 1314.55 L210.644 1315.9 L210.644 1312.44 L217.359 1311.09 L221.158 1311.09 L221.158 1335.97 L227.364 1335.97 L227.364 1339.17 L211.19 1339.17 L211.19 1335.97 Z" fill="#000000" fill-rule="nonzero" fill-opacity="1" /><path clip-path="url(#clip340)" d="M235.076 1311.09 L249.99 1311.09 L249.99 1314.28 L238.555 1314.28 L238.555 1321.17 Q239.383 1320.88 240.21 1320.75 Q241.038 1320.6 241.865 1320.6 Q246.567 1320.6 249.313 1323.18 Q252.059 1325.76 252.059 1330.16 Q252.059 1334.69 249.238 1337.21 Q246.417 1339.71 241.282 1339.71 Q239.514 1339.71 237.671 1339.41 Q235.847 1339.11 233.891 1338.51 L233.891 1334.69 Q235.583 1335.61 237.389 1336.06 Q239.194 1336.51 241.207 1336.51 Q244.461 1336.51 246.36 1334.8 Q248.26 1333.09 248.26 1330.16 Q248.26 1327.22 246.36 1325.51 Q244.461 1323.8 241.207 1323.8 Q239.683 1323.8 238.16 1324.14 Q236.655 1324.48 235.076 1325.19 L235.076 1311.09 Z" fill="#000000" fill-rule="nonzero" fill-opacity="1" /><path clip-path="url(#clip340)" d="M126.642 1186.17 L134.28 1186.17 L134.28 1159.8 L125.97 1161.47 L125.97 1157.21 L134.234 1155.54 L138.91 1155.54 L138.91 1186.17 L146.549 1186.17 L146.549 1190.1 L126.642 1190.1 L126.642 1186.17 Z" fill="#000000" fill-rule="nonzero" fill-opacity="1" /><path clip-path="url(#clip340)" d="M165.993 1158.62 Q162.382 1158.62 160.553 1162.19 Q158.748 1165.73 158.748 1172.86 Q158.748 1179.97 160.553 1183.53 Q162.382 1187.07 165.993 1187.07 Q169.627 1187.07 171.433 1183.53 Q173.262 1179.97 173.262 1172.86 Q173.262 1165.73 171.433 1162.19 Q169.627 1158.62 165.993 1158.62 M165.993 1154.92 Q171.803 1154.92 174.859 1159.53 Q177.938 1164.11 177.938 1172.86 Q177.938 1181.59 174.859 1186.19 Q171.803 1190.78 165.993 1190.78 Q160.183 1190.78 157.104 1186.19 Q154.049 1181.59 154.049 1172.86 Q154.049 1164.11 157.104 1159.53 Q160.183 1154.92 165.993 1154.92 Z" fill="#000000" fill-rule="nonzero" fill-opacity="1" /><path clip-path="url(#clip340)" d="M177.938 1149.02 L202.049 1149.02 L202.049 1152.22 L177.938 1152.22 L177.938 1149.02 Z" fill="#000000" fill-rule="nonzero" fill-opacity="1" /><path clip-path="url(#clip340)" d="M210.908 1159.5 L217.114 1159.5 L217.114 1138.07 L210.362 1139.43 L210.362 1135.97 L217.077 1134.61 L220.876 1134.61 L220.876 1159.5 L227.082 1159.5 L227.082 1162.69 L210.908 1162.69 L210.908 1159.5 Z" fill="#000000" fill-rule="nonzero" fill-opacity="1" /><path clip-path="url(#clip340)" d="M246.266 1147.55 Q248.993 1148.14 250.517 1149.98 Q252.059 1151.82 252.059 1154.53 Q252.059 1158.69 249.2 1160.96 Q246.341 1163.24 241.075 1163.24 Q239.307 1163.24 237.427 1162.88 Q235.565 1162.54 233.571 1161.85 L233.571 1158.18 Q235.151 1159.1 237.032 1159.57 Q238.912 1160.04 240.962 1160.04 Q244.536 1160.04 246.398 1158.63 Q248.279 1157.22 248.279 1154.53 Q248.279 1152.05 246.53 1150.66 Q244.799 1149.25 241.696 1149.25 L238.423 1149.25 L238.423 1146.12 L241.846 1146.12 Q244.649 1146.12 246.135 1145.01 Q247.62 1143.89 247.62 1141.78 Q247.62 1139.62 246.078 1138.47 Q244.555 1137.3 241.696 1137.3 Q240.135 1137.3 238.348 1137.64 Q236.561 1137.98 234.417 1138.69 L234.417 1135.31 Q236.58 1134.71 238.461 1134.41 Q240.361 1134.11 242.034 1134.11 Q246.36 1134.11 248.88 1136.08 Q251.401 1138.04 251.401 1141.38 Q251.401 1143.72 250.065 1145.33 Q248.73 1146.93 246.266 1147.55 Z" fill="#000000" fill-rule="nonzero" fill-opacity="1" /><path clip-path="url(#clip340)" d="M127.112 1009.7 L134.751 1009.7 L134.751 983.331 L126.44 984.997 L126.44 980.738 L134.704 979.071 L139.38 979.071 L139.38 1009.7 L147.019 1009.7 L147.019 1013.63 L127.112 1013.63 L127.112 1009.7 Z" fill="#000000" fill-rule="nonzero" fill-opacity="1" /><path clip-path="url(#clip340)" d="M166.463 982.15 Q162.852 982.15 161.024 985.715 Q159.218 989.257 159.218 996.386 Q159.218 1003.49 161.024 1007.06 Q162.852 1010.6 166.463 1010.6 Q170.098 1010.6 171.903 1007.06 Q173.732 1003.49 173.732 996.386 Q173.732 989.257 171.903 985.715 Q170.098 982.15 166.463 982.15 M166.463 978.446 Q172.274 978.446 175.329 983.053 Q178.408 987.636 178.408 996.386 Q178.408 1005.11 175.329 1009.72 Q172.274 1014.3 166.463 1014.3 Q160.653 1014.3 157.575 1009.72 Q154.519 1005.11 154.519 996.386 Q154.519 987.636 157.575 983.053 Q160.653 978.446 166.463 978.446 Z" fill="#000000" fill-rule="nonzero" fill-opacity="1" /><path clip-path="url(#clip340)" d="M178.408 972.548 L202.519 972.548 L202.519 975.745 L178.408 975.745 L178.408 972.548 Z" fill="#000000" fill-rule="nonzero" fill-opacity="1" /><path clip-path="url(#clip340)" d="M211.378 983.024 L217.584 983.024 L217.584 961.602 L210.832 962.956 L210.832 959.495 L217.547 958.141 L221.346 958.141 L221.346 983.024 L227.552 983.024 L227.552 986.221 L211.378 986.221 L211.378 983.024 Z" fill="#000000" fill-rule="nonzero" fill-opacity="1" /><path clip-path="url(#clip340)" d="M235.884 983.024 L242.091 983.024 L242.091 961.602 L235.339 962.956 L235.339 959.495 L242.053 958.141 L245.852 958.141 L245.852 983.024 L252.059 983.024 L252.059 986.221 L235.884 986.221 L235.884 983.024 Z" fill="#000000" fill-rule="nonzero" fill-opacity="1" /><path clip-path="url(#clip340)" d="M150.772 833.224 L158.411 833.224 L158.411 806.858 L150.101 808.525 L150.101 804.266 L158.364 802.599 L163.04 802.599 L163.04 833.224 L170.679 833.224 L170.679 837.159 L150.772 837.159 L150.772 833.224 Z" fill="#000000" fill-rule="nonzero" fill-opacity="1" /><path clip-path="url(#clip340)" d="M190.124 805.678 Q186.512 805.678 184.684 809.242 Q182.878 812.784 182.878 819.914 Q182.878 827.02 184.684 830.585 Q186.512 834.126 190.124 834.126 Q193.758 834.126 195.563 830.585 Q197.392 827.02 197.392 819.914 Q197.392 812.784 195.563 809.242 Q193.758 805.678 190.124 805.678 M190.124 801.974 Q195.934 801.974 198.989 806.58 Q202.068 811.164 202.068 819.914 Q202.068 828.64 198.989 833.247 Q195.934 837.83 190.124 837.83 Q184.313 837.83 181.235 833.247 Q178.179 828.64 178.179 819.914 Q178.179 811.164 181.235 806.58 Q184.313 801.974 190.124 801.974 Z" fill="#000000" fill-rule="nonzero" fill-opacity="1" /><path clip-path="url(#clip340)" d="M202.068 796.075 L226.18 796.075 L226.18 799.273 L202.068 799.273 L202.068 796.075 Z" fill="#000000" fill-rule="nonzero" fill-opacity="1" /><path clip-path="url(#clip340)" d="M234.493 809.165 L234.493 805.705 Q235.922 806.382 237.389 806.739 Q238.856 807.097 240.267 807.097 Q244.028 807.097 246.003 804.576 Q247.997 802.037 248.279 796.884 Q247.188 798.501 245.514 799.367 Q243.84 800.232 241.809 800.232 Q237.596 800.232 235.132 797.693 Q232.687 795.135 232.687 790.715 Q232.687 786.389 235.245 783.775 Q237.803 781.161 242.053 781.161 Q246.924 781.161 249.482 784.903 Q252.059 788.627 252.059 795.737 Q252.059 802.376 248.899 806.344 Q245.758 810.294 240.436 810.294 Q239.006 810.294 237.539 810.012 Q236.072 809.73 234.493 809.165 M242.053 797.26 Q244.611 797.26 246.097 795.511 Q247.602 793.762 247.602 790.715 Q247.602 787.687 246.097 785.938 Q244.611 784.17 242.053 784.17 Q239.495 784.17 237.991 785.938 Q236.505 787.687 236.505 790.715 Q236.505 793.762 237.991 795.511 Q239.495 797.26 242.053 797.26 Z" fill="#000000" fill-rule="nonzero" fill-opacity="1" /><path clip-path="url(#clip340)" d="M151.355 656.751 L158.994 656.751 L158.994 630.386 L150.684 632.052 L150.684 627.793 L158.948 626.126 L163.623 626.126 L163.623 656.751 L171.262 656.751 L171.262 660.686 L151.355 660.686 L151.355 656.751 Z" fill="#000000" fill-rule="nonzero" fill-opacity="1" /><path clip-path="url(#clip340)" d="M190.707 629.205 Q187.096 629.205 185.267 632.77 Q183.461 636.311 183.461 643.441 Q183.461 650.547 185.267 654.112 Q187.096 657.654 190.707 657.654 Q194.341 657.654 196.146 654.112 Q197.975 650.547 197.975 643.441 Q197.975 636.311 196.146 632.77 Q194.341 629.205 190.707 629.205 M190.707 625.501 Q196.517 625.501 199.572 630.108 Q202.651 634.691 202.651 643.441 Q202.651 652.168 199.572 656.774 Q196.517 661.358 190.707 661.358 Q184.896 661.358 181.818 656.774 Q178.762 652.168 178.762 643.441 Q178.762 634.691 181.818 630.108 Q184.896 625.501 190.707 625.501 Z" fill="#000000" fill-rule="nonzero" fill-opacity="1" /><path clip-path="url(#clip340)" d="M202.651 619.603 L226.763 619.603 L226.763 622.8 L202.651 622.8 L202.651 619.603 Z" fill="#000000" fill-rule="nonzero" fill-opacity="1" /><path clip-path="url(#clip340)" d="M234.004 605.196 L252.059 605.196 L252.059 606.813 L241.865 633.276 L237.897 633.276 L247.489 608.393 L234.004 608.393 L234.004 605.196 Z" fill="#000000" fill-rule="nonzero" fill-opacity="1" /><path clip-path="url(#clip340)" d="M151.43 480.279 L159.069 480.279 L159.069 453.913 L150.759 455.58 L150.759 451.32 L159.023 449.654 L163.699 449.654 L163.699 480.279 L171.337 480.279 L171.337 484.214 L151.43 484.214 L151.43 480.279 Z" fill="#000000" fill-rule="nonzero" fill-opacity="1" /><path clip-path="url(#clip340)" d="M190.782 452.732 Q187.171 452.732 185.342 456.297 Q183.537 459.839 183.537 466.968 Q183.537 474.075 185.342 477.64 Q187.171 481.181 190.782 481.181 Q194.416 481.181 196.222 477.64 Q198.05 474.075 198.05 466.968 Q198.05 459.839 196.222 456.297 Q194.416 452.732 190.782 452.732 M190.782 449.029 Q196.592 449.029 199.648 453.635 Q202.726 458.219 202.726 466.968 Q202.726 475.695 199.648 480.302 Q196.592 484.885 190.782 484.885 Q184.972 484.885 181.893 480.302 Q178.837 475.695 178.837 466.968 Q178.837 458.219 181.893 453.635 Q184.972 449.029 190.782 449.029 Z" fill="#000000" fill-rule="nonzero" fill-opacity="1" /><path clip-path="url(#clip340)" d="M202.726 443.13 L226.838 443.13 L226.838 446.327 L202.726 446.327 L202.726 443.13 Z" fill="#000000" fill-rule="nonzero" fill-opacity="1" /><path clip-path="url(#clip340)" d="M235.076 428.723 L249.99 428.723 L249.99 431.921 L238.555 431.921 L238.555 438.804 Q239.383 438.522 240.21 438.391 Q241.038 438.24 241.865 438.24 Q246.567 438.24 249.313 440.817 Q252.059 443.393 252.059 447.794 Q252.059 452.327 249.238 454.847 Q246.417 457.349 241.282 457.349 Q239.514 457.349 237.671 457.048 Q235.847 456.747 233.891 456.145 L233.891 452.327 Q235.583 453.249 237.389 453.7 Q239.194 454.151 241.207 454.151 Q244.461 454.151 246.36 452.44 Q248.26 450.728 248.26 447.794 Q248.26 444.86 246.36 443.149 Q244.461 441.437 241.207 441.437 Q239.683 441.437 238.16 441.776 Q236.655 442.114 235.076 442.829 L235.076 428.723 Z" fill="#000000" fill-rule="nonzero" fill-opacity="1" /><path clip-path="url(#clip340)" d="M151.148 303.806 L158.787 303.806 L158.787 277.44 L150.477 279.107 L150.477 274.848 L158.741 273.181 L163.417 273.181 L163.417 303.806 L171.055 303.806 L171.055 307.741 L151.148 307.741 L151.148 303.806 Z" fill="#000000" fill-rule="nonzero" fill-opacity="1" /><path clip-path="url(#clip340)" d="M190.5 276.26 Q186.889 276.26 185.06 279.825 Q183.254 283.366 183.254 290.496 Q183.254 297.602 185.06 301.167 Q186.889 304.709 190.5 304.709 Q194.134 304.709 195.94 301.167 Q197.768 297.602 197.768 290.496 Q197.768 283.366 195.94 279.825 Q194.134 276.26 190.5 276.26 M190.5 272.556 Q196.31 272.556 199.365 277.163 Q202.444 281.746 202.444 290.496 Q202.444 299.223 199.365 303.829 Q196.31 308.412 190.5 308.412 Q184.69 308.412 181.611 303.829 Q178.555 299.223 178.555 290.496 Q178.555 281.746 181.611 277.163 Q184.69 272.556 190.5 272.556 Z" fill="#000000" fill-rule="nonzero" fill-opacity="1" /><path clip-path="url(#clip340)" d="M202.444 266.658 L226.556 266.658 L226.556 269.855 L202.444 269.855 L202.444 266.658 Z" fill="#000000" fill-rule="nonzero" fill-opacity="1" /><path clip-path="url(#clip340)" d="M246.266 265.191 Q248.993 265.774 250.517 267.617 Q252.059 269.46 252.059 272.168 Q252.059 276.325 249.2 278.6 Q246.341 280.876 241.075 280.876 Q239.307 280.876 237.427 280.519 Q235.565 280.18 233.571 279.484 L233.571 275.817 Q235.151 276.739 237.032 277.209 Q238.912 277.679 240.962 277.679 Q244.536 277.679 246.398 276.268 Q248.279 274.858 248.279 272.168 Q248.279 269.686 246.53 268.294 Q244.799 266.883 241.696 266.883 L238.423 266.883 L238.423 263.761 L241.846 263.761 Q244.649 263.761 246.135 262.651 Q247.62 261.523 247.62 259.417 Q247.62 257.254 246.078 256.106 Q244.555 254.94 241.696 254.94 Q240.135 254.94 238.348 255.279 Q236.561 255.617 234.417 256.332 L234.417 252.947 Q236.58 252.345 238.461 252.044 Q240.361 251.743 242.034 251.743 Q246.36 251.743 248.88 253.718 Q251.401 255.674 251.401 259.022 Q251.401 261.354 250.065 262.971 Q248.73 264.57 246.266 265.191 Z" fill="#000000" fill-rule="nonzero" fill-opacity="1" /><path clip-path="url(#clip340)" d="M151.618 127.333 L159.257 127.333 L159.257 100.968 L150.947 102.635 L150.947 98.3753 L159.211 96.7086 L163.887 96.7086 L163.887 127.333 L171.526 127.333 L171.526 131.269 L151.618 131.269 L151.618 127.333 Z" fill="#000000" fill-rule="nonzero" fill-opacity="1" /><path clip-path="url(#clip340)" d="M190.97 99.7873 Q187.359 99.7873 185.53 103.352 Q183.725 106.894 183.725 114.023 Q183.725 121.13 185.53 124.695 Q187.359 128.236 190.97 128.236 Q194.604 128.236 196.41 124.695 Q198.238 121.13 198.238 114.023 Q198.238 106.894 196.41 103.352 Q194.604 99.7873 190.97 99.7873 M190.97 96.0836 Q196.78 96.0836 199.836 100.69 Q202.914 105.273 202.914 114.023 Q202.914 122.75 199.836 127.357 Q196.78 131.94 190.97 131.94 Q185.16 131.94 182.081 127.357 Q179.026 122.75 179.026 114.023 Q179.026 105.273 182.081 100.69 Q185.16 96.0836 190.97 96.0836 Z" fill="#000000" fill-rule="nonzero" fill-opacity="1" /><path clip-path="url(#clip340)" d="M202.914 90.185 L227.026 90.185 L227.026 93.3823 L202.914 93.3823 L202.914 90.185 Z" fill="#000000" fill-rule="nonzero" fill-opacity="1" /><path clip-path="url(#clip340)" d="M235.884 100.661 L242.091 100.661 L242.091 79.2389 L235.339 80.593 L235.339 77.1324 L242.053 75.7782 L245.852 75.7782 L245.852 100.661 L252.059 100.661 L252.059 103.858 L235.884 103.858 L235.884 100.661 Z" fill="#000000" fill-rule="nonzero" fill-opacity="1" /><path clip-path="url(#clip340)" d="M42.6211 1162.34 L40.56 1162.34 Q40.56 1154.42 36.341 1150.33 Q36.341 1149.2 36.5986 1149.01 Q36.8563 1148.82 38.0479 1148.82 L75.0524 1148.82 Q77.017 1148.82 77.6289 1147.85 Q78.2408 1146.89 78.2408 1142.67 L78.2408 1140.57 L80.2698 1140.57 Q80.0765 1142.89 80.0765 1151.27 Q80.0765 1159.64 80.2698 1161.93 L78.2408 1161.93 L78.2408 1159.83 Q78.2408 1155.68 77.6611 1154.68 Q77.0492 1153.68 75.0524 1153.68 L40.882 1153.68 Q42.6211 1157.13 42.6211 1162.34 Z" fill="#000000" fill-rule="nonzero" fill-opacity="1" /><path clip-path="url(#clip340)" d="M62.8464 1067.84 Q63.2329 1067.45 63.7804 1067.45 Q64.3279 1067.45 64.7143 1067.84 Q65.1008 1068.22 65.1008 1068.77 L65.1008 1110.06 Q65.1008 1110.61 64.7143 1110.99 Q64.3279 1111.38 63.7804 1111.38 Q63.2329 1111.38 62.8464 1110.99 Q62.4599 1110.61 62.4599 1110.06 L62.4599 1068.77 Q62.4599 1068.22 62.8464 1067.84 Z" fill="#000000" fill-rule="nonzero" fill-opacity="1" /><path clip-path="url(#clip340)" d="M94.7302 1042.26 L33.3136 1042.26 Q30.866 1042.26 30.866 1040.94 Q30.866 1039.62 32.8305 1039.62 L94.2471 1039.62 Q96.6948 1039.62 96.6948 1040.94 Q96.6948 1042.26 94.7302 1042.26 Z" fill="#000000" fill-rule="nonzero" fill-opacity="1" /><path clip-path="url(#clip340)" d="M95.4387 1000.12 Q95.9862 1000.12 96.3727 1000.51 Q96.7592 1000.9 96.7592 1001.44 Q96.7592 1002.38 95.8896 1002.7 L64.2313 1014.97 Q64.1024 1015.04 63.7804 1015.04 Q63.4583 1015.04 63.3295 1014.97 L31.6711 1002.7 Q30.8016 1002.38 30.8016 1001.44 Q30.8016 1000.9 31.188 1000.51 Q31.5745 1000.12 32.122 1000.12 Q32.4441 1000.12 32.5729 1000.19 L63.7804 1012.33 L94.9879 1000.19 Q95.1167 1000.12 95.4387 1000.12 Z" fill="#000000" fill-rule="nonzero" fill-opacity="1" /><path clip-path="url(#clip340)" d="M37.2105 941.819 L48.6114 943.139 Q49.642 943.236 49.9641 943.397 Q50.2539 943.558 50.2539 944.073 Q50.2539 944.46 50.0285 944.685 Q49.7708 944.878 49.481 944.878 Q49.3199 944.878 48.9013 944.846 Q48.4826 944.814 48.2894 944.814 Q46.2926 944.524 44.7789 944.524 Q41.977 944.524 40.4633 945.362 Q38.9175 946.199 38.2089 948.357 Q37.4682 950.514 37.4682 954.572 L37.4682 963.848 Q37.4682 965.973 37.8547 966.489 Q38.2411 966.972 40.0447 967.423 L55.9221 971.384 L55.9221 965.168 Q55.9221 962.849 55.6323 961.464 Q55.3424 960.047 54.5373 959.113 Q53.6999 958.147 52.5727 957.632 Q51.4455 957.084 49.4166 956.537 Q48.7402 956.376 48.4826 956.215 Q48.2249 956.022 48.2249 955.603 Q48.2249 955.281 48.4504 955.055 Q48.6436 954.83 48.9335 954.83 L64.3601 958.598 Q65.133 958.791 65.4229 958.985 Q65.6805 959.178 65.6805 959.564 Q65.6805 959.983 65.4551 960.208 Q65.2296 960.434 64.972 960.434 Q64.7143 960.434 64.2313 960.241 Q62.1379 959.758 61.0107 959.758 Q60.3666 959.758 60.0445 959.822 Q59.7224 959.854 59.2716 960.144 Q58.7885 960.402 58.563 960.981 Q58.3376 961.561 58.1766 962.656 Q57.9833 963.751 57.9833 965.394 L57.9833 971.899 L75.9864 976.408 Q77.178 976.73 77.5001 976.73 Q77.8543 976.73 77.9832 976.569 Q78.0798 976.376 78.1442 975.86 Q78.2408 975.281 78.2408 974.411 L78.2408 964.782 Q78.2408 962.656 78.0476 960.949 Q77.8543 959.242 77.3712 957.825 Q76.8882 956.376 76.3407 955.281 Q75.7932 954.186 74.7948 953.155 Q73.7642 952.125 72.8624 951.416 Q71.9285 950.675 70.3504 949.806 Q68.7723 948.936 67.4841 948.324 Q66.1636 947.713 64.038 946.779 Q63.2651 946.521 63.2651 945.909 Q63.2651 945.555 63.4583 945.362 Q63.6193 945.168 63.7804 945.136 L63.9736 945.136 Q64.5855 945.329 64.9076 945.458 L79.1426 951.513 Q79.9477 951.867 80.1087 952.157 Q80.2698 952.447 80.2698 953.574 L80.2698 987.809 Q80.2698 988.582 80.2376 988.904 Q80.2054 989.194 80.0443 989.419 Q79.8511 989.645 79.4646 989.645 Q78.8527 989.645 78.5951 989.387 Q78.3052 989.129 78.273 988.839 Q78.2408 988.55 78.2408 987.809 Q78.2408 986.199 78.1442 985.232 Q78.0476 984.266 77.9187 983.654 Q77.7577 983.01 77.3068 982.688 Q76.856 982.334 76.4695 982.173 Q76.0508 982.012 75.1168 981.786 L40.2379 973.091 Q39.0463 972.769 38.6598 972.769 Q38.2411 972.769 37.9835 973.059 Q37.7258 973.316 37.6292 974.025 Q37.5004 974.733 37.5004 975.313 Q37.4682 975.86 37.4682 977.052 Q37.4682 977.825 37.436 978.147 Q37.4038 978.437 37.2427 978.662 Q37.0817 978.888 36.7275 978.888 Q35.8257 978.888 35.6325 978.501 Q35.407 978.083 35.407 976.923 L35.407 943.622 Q35.407 942.302 35.6969 942.012 Q35.9545 941.69 37.2105 941.819 Z" fill="#000000" fill-rule="nonzero" fill-opacity="1" /><path clip-path="url(#clip340)" d="M98.8548 935.12 Q98.0206 935.12 97.7727 935.053 Q97.5247 934.962 97.1414 934.602 L87.2671 925.742 Q81.8114 920.895 77.0546 920.895 Q73.9661 920.895 71.7568 922.518 Q69.5474 924.119 69.5474 927.072 Q69.5474 929.101 70.7874 930.814 Q72.0273 932.528 74.2366 933.317 Q74.1915 933.181 74.1915 932.708 Q74.1915 931.558 74.9129 930.927 Q75.6344 930.273 76.6037 930.273 Q77.8437 930.273 78.4524 931.085 Q79.0385 931.874 79.0385 932.663 Q79.0385 932.979 78.9709 933.407 Q78.9032 933.813 78.272 934.466 Q77.6182 935.12 76.4685 935.12 Q73.2447 935.12 70.6746 932.685 Q68.1046 930.228 68.1046 926.486 Q68.1046 922.248 70.6296 919.475 Q73.132 916.679 77.0546 916.679 Q78.4298 916.679 79.6923 917.107 Q80.9322 917.513 81.9016 918.077 Q82.871 918.618 84.4266 920.106 Q85.9821 921.594 87.0868 922.789 Q88.1914 923.983 90.536 926.666 L95.2928 931.558 L95.2928 923.239 Q95.2928 919.182 94.9321 918.866 Q94.2783 918.415 90.8291 917.851 L90.8291 916.679 L98.8548 917.987 L98.8548 935.12 Z" fill="#000000" fill-rule="nonzero" fill-opacity="1" /><path clip-path="url(#clip340)" d="M72.5007 913.032 L71.0579 913.032 Q71.0579 907.487 68.1046 904.623 Q68.1046 903.834 68.285 903.699 Q68.4653 903.564 69.2995 903.564 L95.2026 903.564 Q96.5778 903.564 97.0062 902.888 Q97.4345 902.211 97.4345 899.258 L97.4345 897.793 L98.8548 897.793 Q98.7195 899.416 98.7195 905.277 Q98.7195 911.139 98.8548 912.739 L97.4345 912.739 L97.4345 911.274 Q97.4345 908.366 97.0287 907.667 Q96.6004 906.968 95.2026 906.968 L71.2833 906.968 Q72.5007 909.38 72.5007 913.032 Z" fill="#000000" fill-rule="nonzero" fill-opacity="1" /><path clip-path="url(#clip340)" d="M91.2349 897.48 L89.8146 897.48 L68.1497 883.299 Q67.5861 882.939 67.6087 882.375 Q67.6087 881.857 67.8115 881.744 Q68.0144 881.631 68.8035 881.631 L89.8146 881.631 L89.8146 877.01 L91.2349 877.01 L91.2349 881.631 L95.2477 881.631 Q96.5778 881.631 97.0062 881.09 Q97.4345 880.527 97.4345 878.137 L97.4345 877.167 L98.8548 877.167 Q98.7195 879.061 98.7195 883.435 Q98.7195 887.786 98.8548 889.679 L97.4345 889.679 L97.4345 888.71 Q97.4345 886.32 97.0287 885.757 Q96.6004 885.193 95.2477 885.193 L91.2349 885.193 L91.2349 897.48 M89.8146 896.172 L89.8146 884.923 L72.5909 884.923 L89.8146 896.172 Z" fill="#000000" fill-rule="nonzero" fill-opacity="1" /><path clip-path="url(#clip340)" d="M63.7804 867.575 Q52.6371 867.575 43.6517 863.42 Q39.8836 861.649 36.7275 859.169 Q33.5713 856.689 32.1864 855.047 Q30.8016 853.404 30.8016 852.953 Q30.8016 852.309 31.4457 852.277 Q31.7678 852.277 32.5729 853.147 Q43.3941 863.775 63.7804 863.742 Q84.2311 863.742 94.6336 853.404 Q95.7608 852.277 96.1151 852.277 Q96.7592 852.277 96.7592 852.953 Q96.7592 853.404 95.4387 854.982 Q94.1183 856.56 91.0909 859.008 Q88.0636 861.456 84.3599 863.227 Q75.3745 867.575 63.7804 867.575 Z" fill="#000000" fill-rule="nonzero" fill-opacity="1" /><path clip-path="url(#clip340)" d="M35.9545 799.187 Q37.275 799.187 37.275 800.282 Q37.3394 802.215 37.7258 803.535 Q38.0801 804.856 38.7886 805.629 Q39.4972 806.369 40.2701 806.788 Q41.0108 807.174 42.138 807.432 L65.5517 813.294 Q72.1539 814.968 76.9526 820.379 Q81.719 825.789 81.719 831.941 Q81.719 835.451 80.2698 838.382 Q78.8205 841.28 75.8898 843.084 Q72.959 844.887 69.0621 844.887 Q67.1942 844.887 65.2296 844.404 L48.9335 840.411 L43.1364 838.929 Q38.853 837.834 38.4666 837.834 Q37.8547 837.834 37.6936 838.221 Q37.5004 838.575 37.4038 839.606 L37.275 842.118 Q37.275 842.891 37.2427 843.213 Q37.2105 843.503 37.0495 843.728 Q36.8885 843.953 36.5342 843.953 Q36.0833 843.953 35.7935 843.857 Q35.4714 843.728 35.3748 843.503 Q35.2782 843.277 35.246 843.116 Q35.2138 842.955 35.2138 842.697 L35.407 834.195 L35.2138 825.757 Q35.2138 824.823 35.9545 824.823 Q36.8885 824.823 37.0817 825.242 Q37.275 825.661 37.275 827.078 Q37.275 829.493 37.597 830.588 Q37.8869 831.651 38.4022 831.973 Q38.8852 832.263 40.3023 832.617 L65.9704 839.026 Q67.2586 839.348 68.5468 839.541 Q69.8029 839.702 70.447 839.702 L71.0911 839.735 Q75.1813 839.735 77.4357 837.48 Q79.6901 835.193 79.6901 831.683 Q79.6901 826.53 75.5999 821.731 Q71.5098 816.901 65.1008 815.258 L41.5583 809.332 Q40.9786 809.139 40.1735 809.139 Q38.8852 809.139 38.1123 810.105 Q37.3072 811.039 37.275 813.616 Q37.275 814.807 36.5342 814.807 Q35.9223 814.807 35.6325 814.582 Q35.3104 814.324 35.2782 814.131 Q35.2138 813.905 35.2138 813.616 Q35.2138 812.521 35.3104 810.202 Q35.407 807.883 35.407 806.756 Q35.407 805.629 35.3104 803.374 Q35.2138 801.12 35.2138 800.025 Q35.2138 799.638 35.407 799.445 Q35.568 799.22 35.7613 799.187 L35.9545 799.187 Z" fill="#000000" fill-rule="nonzero" fill-opacity="1" /><path clip-path="url(#clip340)" d="M96.1151 794.221 Q95.793 794.221 94.9879 793.384 Q84.1667 782.756 63.7804 782.756 Q43.3297 782.756 32.9916 792.965 Q31.8 794.221 31.4457 794.221 Q30.8016 794.221 30.8016 793.577 Q30.8016 793.126 32.122 791.548 Q33.4425 789.938 36.4698 787.523 Q39.4972 785.075 43.2008 783.271 Q52.1863 778.924 63.7804 778.924 Q74.9236 778.924 83.909 783.078 Q87.6771 784.849 90.8333 787.329 Q93.9895 789.809 95.3743 791.452 Q96.7592 793.094 96.7592 793.577 Q96.7592 794.221 96.1151 794.221 Z" fill="#000000" fill-rule="nonzero" fill-opacity="1" /><path clip-path="url(#clip340)" d="M94.7302 765.198 L33.3136 765.198 Q30.866 765.198 30.866 763.878 Q30.866 762.557 32.8305 762.557 L94.2471 762.557 Q96.6948 762.557 96.6948 763.878 Q96.6948 765.198 94.7302 765.198 Z" fill="#000000" fill-rule="nonzero" fill-opacity="1" /><path clip-path="url(#clip340)" d="M34.8917 694.237 Q35.6325 695.783 36.341 696.685 Q37.4038 698.166 39.4327 699.519 Q41.3007 700.839 44.1348 702.16 Q52.8626 706.024 64.2957 708.826 Q69.0299 710.018 72.0251 710.082 Q75.149 710.082 76.4373 709.084 Q77.178 708.633 77.178 707.506 Q77.178 706.218 76.244 705.058 Q75.2779 703.802 72.8302 701.902 L73.732 700.775 Q77.0492 703.158 78.6273 705.123 Q80.8495 707.989 80.8495 710.726 Q80.8495 712.82 79.6257 713.625 Q77.6289 715.203 73.2167 715.074 L75.922 718.327 Q81.3326 725.155 81.3326 731.306 Q81.3326 734.881 78.4985 736.974 Q77.5645 737.715 75.4389 737.844 Q73.4743 737.844 70.7046 737.167 Q65.7449 735.911 58.3054 732.562 Q50.2539 728.923 45.4552 727.763 Q43.9738 727.409 43.1364 727.28 Q42.2991 727.119 41.2041 727.28 Q40.1091 727.409 39.3039 728.021 Q38.8852 728.246 38.5954 728.858 Q38.3055 729.438 38.3055 730.05 Q38.3055 731.081 39.2395 732.433 Q41.0108 734.527 43.7161 735.203 Q44.7145 735.461 47.8707 735.944 L48.4826 737.973 Q45.4552 737.586 43.3297 737.103 Q39.1429 736.072 36.5342 732.82 Q34.6341 730.469 34.6341 727.28 Q34.6341 724.285 36.2122 723.126 Q37.1139 722.417 39.4972 722.288 Q41.9126 722.288 44.5213 722.932 Q49.5132 724.221 58.1766 728.15 Q64.5211 731.081 67.7417 731.853 Q70.7368 732.594 73.2811 732.498 Q75.4067 732.498 76.856 731.564 Q78.4985 730.308 78.4985 727.828 Q78.4985 724.092 74.4727 719.1 Q71.9607 716.073 70.6402 714.688 Q59.6902 712.015 38.6598 704.543 Q35.7613 699.487 34.151 695.171 L34.8917 694.237 Z" fill="#000000" fill-rule="nonzero" fill-opacity="1" /><path clip-path="url(#clip340)" d="M94.7302 689.391 L33.3136 689.391 Q30.866 689.391 30.866 688.071 Q30.866 686.75 32.8305 686.75 L94.2471 686.75 Q96.6948 686.75 96.6948 688.071 Q96.6948 689.391 94.7302 689.391 Z" fill="#000000" fill-rule="nonzero" fill-opacity="1" /><path clip-path="url(#clip340)" d="M37.2105 614.34 L48.6114 615.661 Q49.642 615.757 49.9641 615.918 Q50.2539 616.079 50.2539 616.595 Q50.2539 616.981 50.0285 617.206 Q49.7708 617.4 49.481 617.4 Q49.3199 617.4 48.9013 617.367 Q48.4826 617.335 48.2894 617.335 Q46.2926 617.045 44.7789 617.045 Q41.977 617.045 40.4633 617.883 Q38.9175 618.72 38.2089 620.878 Q37.4682 623.036 37.4682 627.094 L37.4682 636.369 Q37.4682 638.495 37.8547 639.01 Q38.2411 639.493 40.0447 639.944 L55.9221 643.905 L55.9221 637.689 Q55.9221 635.371 55.6323 633.986 Q55.3424 632.569 54.5373 631.635 Q53.6999 630.668 52.5727 630.153 Q51.4455 629.606 49.4166 629.058 Q48.7402 628.897 48.4826 628.736 Q48.2249 628.543 48.2249 628.124 Q48.2249 627.802 48.4504 627.577 Q48.6436 627.351 48.9335 627.351 L64.3601 631.119 Q65.133 631.313 65.4229 631.506 Q65.6805 631.699 65.6805 632.086 Q65.6805 632.504 65.4551 632.73 Q65.2296 632.955 64.972 632.955 Q64.7143 632.955 64.2313 632.762 Q62.1379 632.279 61.0107 632.279 Q60.3666 632.279 60.0445 632.343 Q59.7224 632.375 59.2716 632.665 Q58.7885 632.923 58.563 633.503 Q58.3376 634.082 58.1766 635.177 Q57.9833 636.272 57.9833 637.915 L57.9833 644.42 L75.9864 648.929 Q77.178 649.251 77.5001 649.251 Q77.8543 649.251 77.9832 649.09 Q78.0798 648.897 78.1442 648.382 Q78.2408 647.802 78.2408 646.932 L78.2408 637.303 Q78.2408 635.177 78.0476 633.47 Q77.8543 631.763 77.3712 630.346 Q76.8882 628.897 76.3407 627.802 Q75.7932 626.707 74.7948 625.677 Q73.7642 624.646 72.8624 623.937 Q71.9285 623.197 70.3504 622.327 Q68.7723 621.458 67.4841 620.846 Q66.1636 620.234 64.038 619.3 Q63.2651 619.042 63.2651 618.43 Q63.2651 618.076 63.4583 617.883 Q63.6193 617.69 63.7804 617.657 L63.9736 617.657 Q64.5855 617.851 64.9076 617.979 L79.1426 624.034 Q79.9477 624.388 80.1087 624.678 Q80.2698 624.968 80.2698 626.095 L80.2698 660.33 Q80.2698 661.103 80.2376 661.425 Q80.2054 661.715 80.0443 661.94 Q79.8511 662.166 79.4646 662.166 Q78.8527 662.166 78.5951 661.908 Q78.3052 661.651 78.273 661.361 Q78.2408 661.071 78.2408 660.33 Q78.2408 658.72 78.1442 657.754 Q78.0476 656.787 77.9187 656.176 Q77.7577 655.531 77.3068 655.209 Q76.856 654.855 76.4695 654.694 Q76.0508 654.533 75.1168 654.308 L40.2379 645.612 Q39.0463 645.29 38.6598 645.29 Q38.2411 645.29 37.9835 645.58 Q37.7258 645.837 37.6292 646.546 Q37.5004 647.255 37.5004 647.834 Q37.4682 648.382 37.4682 649.573 Q37.4682 650.346 37.436 650.668 Q37.4038 650.958 37.2427 651.184 Q37.0817 651.409 36.7275 651.409 Q35.8257 651.409 35.6325 651.023 Q35.407 650.604 35.407 649.445 L35.407 616.144 Q35.407 614.823 35.6969 614.533 Q35.9545 614.211 37.2105 614.34 Z" fill="#000000" fill-rule="nonzero" fill-opacity="1" /><path clip-path="url(#clip340)" d="M98.8548 607.641 Q98.0206 607.641 97.7727 607.574 Q97.5247 607.484 97.1414 607.123 L87.2671 598.263 Q81.8114 593.416 77.0546 593.416 Q73.9661 593.416 71.7568 595.039 Q69.5474 596.64 69.5474 599.593 Q69.5474 601.622 70.7874 603.336 Q72.0273 605.049 74.2366 605.838 Q74.1915 605.703 74.1915 605.229 Q74.1915 604.079 74.9129 603.448 Q75.6344 602.794 76.6037 602.794 Q77.8437 602.794 78.4524 603.606 Q79.0385 604.395 79.0385 605.184 Q79.0385 605.5 78.9709 605.928 Q78.9032 606.334 78.272 606.988 Q77.6182 607.641 76.4685 607.641 Q73.2447 607.641 70.6746 605.207 Q68.1046 602.749 68.1046 599.007 Q68.1046 594.769 70.6296 591.996 Q73.132 589.2 77.0546 589.2 Q78.4298 589.2 79.6923 589.629 Q80.9322 590.035 81.9016 590.598 Q82.871 591.139 84.4266 592.627 Q85.9821 594.115 87.0868 595.31 Q88.1914 596.505 90.536 599.187 L95.2928 604.079 L95.2928 595.761 Q95.2928 591.703 94.9321 591.387 Q94.2783 590.936 90.8291 590.373 L90.8291 589.2 L98.8548 590.508 L98.8548 607.641 Z" fill="#000000" fill-rule="nonzero" fill-opacity="1" /><path clip-path="url(#clip340)" d="M72.5007 585.554 L71.0579 585.554 Q71.0579 580.008 68.1046 577.145 Q68.1046 576.356 68.285 576.22 Q68.4653 576.085 69.2995 576.085 L95.2026 576.085 Q96.5778 576.085 97.0062 575.409 Q97.4345 574.732 97.4345 571.779 L97.4345 570.314 L98.8548 570.314 Q98.7195 571.937 98.7195 577.798 Q98.7195 583.66 98.8548 585.261 L97.4345 585.261 L97.4345 583.795 Q97.4345 580.887 97.0287 580.188 Q96.6004 579.489 95.2026 579.489 L71.2833 579.489 Q72.5007 581.901 72.5007 585.554 Z" fill="#000000" fill-rule="nonzero" fill-opacity="1" /><path clip-path="url(#clip340)" d="M91.2349 570.001 L89.8146 570.001 L68.1497 555.821 Q67.5861 555.46 67.6087 554.896 Q67.6087 554.378 67.8115 554.265 Q68.0144 554.152 68.8035 554.152 L89.8146 554.152 L89.8146 549.531 L91.2349 549.531 L91.2349 554.152 L95.2477 554.152 Q96.5778 554.152 97.0062 553.611 Q97.4345 553.048 97.4345 550.658 L97.4345 549.689 L98.8548 549.689 Q98.7195 551.582 98.7195 555.956 Q98.7195 560.307 98.8548 562.201 L97.4345 562.201 L97.4345 561.231 Q97.4345 558.842 97.0287 558.278 Q96.6004 557.714 95.2477 557.714 L91.2349 557.714 L91.2349 570.001 M89.8146 568.693 L89.8146 557.444 L72.5909 557.444 L89.8146 568.693 Z" fill="#000000" fill-rule="nonzero" fill-opacity="1" /><path clip-path="url(#clip340)" d="M63.7804 540.096 Q52.6371 540.096 43.6517 535.942 Q39.8836 534.17 36.7275 531.69 Q33.5713 529.211 32.1864 527.568 Q30.8016 525.926 30.8016 525.475 Q30.8016 524.831 31.4457 524.798 Q31.7678 524.798 32.5729 525.668 Q43.3941 536.296 63.7804 536.264 Q84.2311 536.264 94.6336 525.926 Q95.7608 524.798 96.1151 524.798 Q96.7592 524.798 96.7592 525.475 Q96.7592 525.926 95.4387 527.504 Q94.1183 529.082 91.0909 531.529 Q88.0636 533.977 84.3599 535.748 Q75.3745 540.096 63.7804 540.096 Z" fill="#000000" fill-rule="nonzero" fill-opacity="1" /><path clip-path="url(#clip340)" d="M35.9545 471.709 Q37.275 471.709 37.275 472.804 Q37.3394 474.736 37.7258 476.056 Q38.0801 477.377 38.7886 478.15 Q39.4972 478.891 40.2701 479.309 Q41.0108 479.696 42.138 479.953 L65.5517 485.815 Q72.1539 487.489 76.9526 492.9 Q81.719 498.311 81.719 504.462 Q81.719 507.972 80.2698 510.903 Q78.8205 513.802 75.8898 515.605 Q72.959 517.409 69.0621 517.409 Q67.1942 517.409 65.2296 516.926 L48.9335 512.932 L43.1364 511.451 Q38.853 510.356 38.4666 510.356 Q37.8547 510.356 37.6936 510.742 Q37.5004 511.096 37.4038 512.127 L37.275 514.639 Q37.275 515.412 37.2427 515.734 Q37.2105 516.024 37.0495 516.249 Q36.8885 516.475 36.5342 516.475 Q36.0833 516.475 35.7935 516.378 Q35.4714 516.249 35.3748 516.024 Q35.2782 515.798 35.246 515.637 Q35.2138 515.476 35.2138 515.219 L35.407 506.716 L35.2138 498.278 Q35.2138 497.344 35.9545 497.344 Q36.8885 497.344 37.0817 497.763 Q37.275 498.182 37.275 499.599 Q37.275 502.014 37.597 503.109 Q37.8869 504.172 38.4022 504.494 Q38.8852 504.784 40.3023 505.138 L65.9704 511.547 Q67.2586 511.869 68.5468 512.063 Q69.8029 512.224 70.447 512.224 L71.0911 512.256 Q75.1813 512.256 77.4357 510.001 Q79.6901 507.715 79.6901 504.204 Q79.6901 499.051 75.5999 494.253 Q71.5098 489.422 65.1008 487.779 L41.5583 481.853 Q40.9786 481.66 40.1735 481.66 Q38.8852 481.66 38.1123 482.626 Q37.3072 483.56 37.275 486.137 Q37.275 487.328 36.5342 487.328 Q35.9223 487.328 35.6325 487.103 Q35.3104 486.845 35.2782 486.652 Q35.2138 486.427 35.2138 486.137 Q35.2138 485.042 35.3104 482.723 Q35.407 480.404 35.407 479.277 Q35.407 478.15 35.3104 475.895 Q35.2138 473.641 35.2138 472.546 Q35.2138 472.159 35.407 471.966 Q35.568 471.741 35.7613 471.709 L35.9545 471.709 Z" fill="#000000" fill-rule="nonzero" fill-opacity="1" /><path clip-path="url(#clip340)" d="M70.2538 454.512 Q69.4486 454.448 69.4486 453.192 L69.4486 412.773 Q69.4486 410.873 70.1893 410.841 Q70.9945 410.841 70.9623 412.644 L70.9623 452.741 Q70.9945 454.512 70.2538 454.512 M57.3714 454.512 Q56.5663 454.512 56.5985 453.127 L56.5985 412.838 Q56.5985 410.873 57.3714 410.841 Q58.1121 410.841 58.1121 412.516 L58.1121 453.192 Q58.1121 454.512 57.3714 454.512 Z" fill="#000000" fill-rule="nonzero" fill-opacity="1" /><path clip-path="url(#clip340)" d="M59.1749 385.395 Q49.481 385.395 44.1992 382.947 Q36.341 379.534 36.341 371.482 Q36.341 369.775 36.8241 368.004 Q37.275 366.2 39.0463 363.946 Q40.8176 361.659 43.7161 360.275 Q49.3199 357.634 59.1749 357.634 Q68.8045 357.634 74.054 360.081 Q81.719 363.656 81.719 371.547 Q81.719 374.51 80.2054 377.537 Q78.6917 380.532 75.0524 382.432 Q69.6096 385.395 59.1749 385.395 M58.3698 379.92 Q68.3214 379.92 72.2827 379.212 Q76.5661 378.406 78.434 376.216 Q80.2698 373.994 80.2698 371.547 Q80.2698 368.906 78.3052 366.716 Q76.3085 364.493 72.0251 363.817 Q67.8061 363.076 58.3698 363.109 Q49.1911 363.109 45.5197 363.753 Q41.2363 364.622 39.5294 366.941 Q37.7902 369.228 37.7902 371.547 Q37.7902 372.416 38.0479 373.35 Q38.3055 374.252 39.0463 375.572 Q39.787 376.893 41.6227 377.923 Q43.4585 378.922 46.2282 379.405 Q49.803 379.92 58.3698 379.92 Z" fill="#000000" fill-rule="nonzero" fill-opacity="1" /><path clip-path="url(#clip340)" d="M96.1151 351.147 Q95.793 351.147 94.9879 350.31 Q84.1667 339.682 63.7804 339.682 Q43.3297 339.682 32.9916 349.891 Q31.8 351.147 31.4457 351.147 Q30.8016 351.147 30.8016 350.503 Q30.8016 350.052 32.122 348.474 Q33.4425 346.864 36.4698 344.448 Q39.4972 342.001 43.2008 340.197 Q52.1863 335.849 63.7804 335.849 Q74.9236 335.849 83.909 340.004 Q87.6771 341.775 90.8333 344.255 Q93.9895 346.735 95.3743 348.377 Q96.7592 350.02 96.7592 350.503 Q96.7592 351.147 96.1151 351.147 Z" fill="#000000" fill-rule="nonzero" fill-opacity="1" /><path clip-path="url(#clip340)" d="M63.3295 311.005 Q63.4583 310.941 63.7804 310.941 Q64.1024 310.941 64.2313 311.005 L95.8896 323.275 Q96.7592 323.597 96.7592 324.499 Q96.7592 325.047 96.3727 325.433 Q95.9862 325.82 95.4387 325.82 Q95.1167 325.82 94.9879 325.755 L63.7804 313.646 L32.5729 325.755 Q32.4441 325.82 32.122 325.82 Q31.5745 325.82 31.188 325.433 Q30.8016 325.047 30.8016 324.499 Q30.8016 323.597 31.6711 323.275 L63.3295 311.005 Z" fill="#000000" fill-rule="nonzero" fill-opacity="1" /><path clip-path="url(#clip340)" d="M94.7302 300.428 L33.3136 300.428 Q30.866 300.428 30.866 299.108 Q30.866 297.788 32.8305 297.788 L94.2471 297.788 Q96.6948 297.788 96.6948 299.108 Q96.6948 300.428 94.7302 300.428 Z" fill="#000000" fill-rule="nonzero" fill-opacity="1" /><path clip-path="url(#clip340)" d="M40.4706 290.779 Q39.6364 290.779 39.3884 290.711 Q39.1405 290.621 38.7572 290.261 L28.8829 281.401 Q23.4272 276.554 18.6704 276.554 Q15.5819 276.554 13.3725 278.177 Q11.1632 279.778 11.1632 282.731 Q11.1632 284.76 12.4032 286.473 Q13.6431 288.186 15.8524 288.976 Q15.8073 288.84 15.8073 288.367 Q15.8073 287.217 16.5287 286.586 Q17.2501 285.932 18.2195 285.932 Q19.4595 285.932 20.0681 286.744 Q20.6543 287.533 20.6543 288.322 Q20.6543 288.637 20.5867 289.066 Q20.519 289.471 19.8878 290.125 Q19.234 290.779 18.0843 290.779 Q14.8605 290.779 12.2904 288.344 Q9.7204 285.887 9.7204 282.145 Q9.7204 277.906 12.2453 275.133 Q14.7477 272.338 18.6704 272.338 Q20.0456 272.338 21.3081 272.766 Q22.548 273.172 23.5174 273.736 Q24.4868 274.277 26.0423 275.765 Q27.5979 277.253 28.7025 278.447 Q29.8072 279.642 32.1518 282.325 L36.9086 287.217 L36.9086 278.898 Q36.9086 274.84 36.5479 274.525 Q35.8941 274.074 32.4449 273.51 L32.4449 272.338 L40.4706 273.646 L40.4706 290.779 Z" fill="#000000" fill-rule="nonzero" fill-opacity="1" /><circle clip-path="url(#clip342)" cx="346.494" cy="656.645" r="14.4" fill="#de8f05" fill-rule="evenodd" fill-opacity="1" stroke="#000000" stroke-opacity="1" stroke-width="3.2"/>
<circle clip-path="url(#clip342)" cx="359.895" cy="633.957" r="14.4" fill="#de8f05" fill-rule="evenodd" fill-opacity="1" stroke="#000000" stroke-opacity="1" stroke-width="3.2"/>
<circle clip-path="url(#clip342)" cx="349.867" cy="611.284" r="14.4" fill="#de8f05" fill-rule="evenodd" fill-opacity="1" stroke="#000000" stroke-opacity="1" stroke-width="3.2"/>
<circle clip-path="url(#clip342)" cx="460.31" cy="588.621" r="14.4" fill="#de8f05" fill-rule="evenodd" fill-opacity="1" stroke="#000000" stroke-opacity="1" stroke-width="3.2"/>
<circle clip-path="url(#clip342)" cx="506.916" cy="565.964" r="14.4" fill="#de8f05" fill-rule="evenodd" fill-opacity="1" stroke="#000000" stroke-opacity="1" stroke-width="3.2"/>
<circle clip-path="url(#clip342)" cx="587.793" cy="543.312" r="14.4" fill="#de8f05" fill-rule="evenodd" fill-opacity="1" stroke="#000000" stroke-opacity="1" stroke-width="3.2"/>
<circle clip-path="url(#clip342)" cx="580.85" cy="520.661" r="14.4" fill="#de8f05" fill-rule="evenodd" fill-opacity="1" stroke="#000000" stroke-opacity="1" stroke-width="3.2"/>
<circle clip-path="url(#clip342)" cx="681.76" cy="498.009" r="14.4" fill="#de8f05" fill-rule="evenodd" fill-opacity="1" stroke="#000000" stroke-opacity="1" stroke-width="3.2"/>
<circle clip-path="url(#clip342)" cx="749.636" cy="475.354" r="14.4" fill="#de8f05" fill-rule="evenodd" fill-opacity="1" stroke="#000000" stroke-opacity="1" stroke-width="3.2"/>
<circle clip-path="url(#clip342)" cx="825.42" cy="452.693" r="14.4" fill="#de8f05" fill-rule="evenodd" fill-opacity="1" stroke="#000000" stroke-opacity="1" stroke-width="3.2"/>
<circle clip-path="url(#clip342)" cx="894.345" cy="430.024" r="14.4" fill="#de8f05" fill-rule="evenodd" fill-opacity="1" stroke="#000000" stroke-opacity="1" stroke-width="3.2"/>
<circle clip-path="url(#clip342)" cx="991.737" cy="407.343" r="14.4" fill="#de8f05" fill-rule="evenodd" fill-opacity="1" stroke="#000000" stroke-opacity="1" stroke-width="3.2"/>
<circle clip-path="url(#clip342)" cx="1010.44" cy="384.644" r="14.4" fill="#de8f05" fill-rule="evenodd" fill-opacity="1" stroke="#000000" stroke-opacity="1" stroke-width="3.2"/>
<circle clip-path="url(#clip342)" cx="1035.62" cy="361.923" r="14.4" fill="#de8f05" fill-rule="evenodd" fill-opacity="1" stroke="#000000" stroke-opacity="1" stroke-width="3.2"/>
<circle clip-path="url(#clip342)" cx="1126.09" cy="339.173" r="14.4" fill="#de8f05" fill-rule="evenodd" fill-opacity="1" stroke="#000000" stroke-opacity="1" stroke-width="3.2"/>
<circle clip-path="url(#clip342)" cx="1228.46" cy="316.384" r="14.4" fill="#de8f05" fill-rule="evenodd" fill-opacity="1" stroke="#000000" stroke-opacity="1" stroke-width="3.2"/>
<circle clip-path="url(#clip342)" cx="1322.44" cy="293.548" r="14.4" fill="#de8f05" fill-rule="evenodd" fill-opacity="1" stroke="#000000" stroke-opacity="1" stroke-width="3.2"/>
<circle clip-path="url(#clip342)" cx="1357.33" cy="270.656" r="14.4" fill="#de8f05" fill-rule="evenodd" fill-opacity="1" stroke="#000000" stroke-opacity="1" stroke-width="3.2"/>
<circle clip-path="url(#clip342)" cx="1374.97" cy="247.701" r="14.4" fill="#de8f05" fill-rule="evenodd" fill-opacity="1" stroke="#000000" stroke-opacity="1" stroke-width="3.2"/>
<circle clip-path="url(#clip342)" cx="1511.84" cy="224.684" r="14.4" fill="#de8f05" fill-rule="evenodd" fill-opacity="1" stroke="#000000" stroke-opacity="1" stroke-width="3.2"/>
<circle clip-path="url(#clip342)" cx="1477.09" cy="201.629" r="14.4" fill="#de8f05" fill-rule="evenodd" fill-opacity="1" stroke="#000000" stroke-opacity="1" stroke-width="3.2"/>
<circle clip-path="url(#clip342)" cx="1565.87" cy="178.607" r="14.4" fill="#de8f05" fill-rule="evenodd" fill-opacity="1" stroke="#000000" stroke-opacity="1" stroke-width="3.2"/>
<circle clip-path="url(#clip342)" cx="1663.44" cy="157.741" r="14.4" fill="#de8f05" fill-rule="evenodd" fill-opacity="1" stroke="#000000" stroke-opacity="1" stroke-width="3.2"/>
<circle clip-path="url(#clip342)" cx="1605.6" cy="155.777" r="14.4" fill="#de8f05" fill-rule="evenodd" fill-opacity="1" stroke="#000000" stroke-opacity="1" stroke-width="3.2"/>
<circle clip-path="url(#clip342)" cx="1709.77" cy="145.562" r="14.4" fill="#de8f05" fill-rule="evenodd" fill-opacity="1" stroke="#000000" stroke-opacity="1" stroke-width="3.2"/>
<circle clip-path="url(#clip342)" cx="1718.51" cy="135.225" r="14.4" fill="#de8f05" fill-rule="evenodd" fill-opacity="1" stroke="#000000" stroke-opacity="1" stroke-width="3.2"/>
<circle clip-path="url(#clip342)" cx="1764.17" cy="133.46" r="14.4" fill="#de8f05" fill-rule="evenodd" fill-opacity="1" stroke="#000000" stroke-opacity="1" stroke-width="3.2"/>
<circle clip-path="url(#clip342)" cx="1743.11" cy="126.318" r="14.4" fill="#de8f05" fill-rule="evenodd" fill-opacity="1" stroke="#000000" stroke-opacity="1" stroke-width="3.2"/>
<circle clip-path="url(#clip342)" cx="1770.55" cy="118.556" r="14.4" fill="#de8f05" fill-rule="evenodd" fill-opacity="1" stroke="#000000" stroke-opacity="1" stroke-width="3.2"/>
<circle clip-path="url(#clip342)" cx="1764.79" cy="112.225" r="14.4" fill="#de8f05" fill-rule="evenodd" fill-opacity="1" stroke="#000000" stroke-opacity="1" stroke-width="3.2"/>
<circle clip-path="url(#clip342)" cx="1802.34" cy="111.735" r="14.4" fill="#de8f05" fill-rule="evenodd" fill-opacity="1" stroke="#000000" stroke-opacity="1" stroke-width="3.2"/>
<circle clip-path="url(#clip342)" cx="1821.79" cy="105.702" r="14.4" fill="#de8f05" fill-rule="evenodd" fill-opacity="1" stroke="#000000" stroke-opacity="1" stroke-width="3.2"/>
<circle clip-path="url(#clip342)" cx="1851.41" cy="100.337" r="14.4" fill="#de8f05" fill-rule="evenodd" fill-opacity="1" stroke="#000000" stroke-opacity="1" stroke-width="3.2"/>
<circle clip-path="url(#clip342)" cx="2285.63" cy="95.9935" r="14.4" fill="#de8f05" fill-rule="evenodd" fill-opacity="1" stroke="#000000" stroke-opacity="1" stroke-width="3.2"/>
<circle clip-path="url(#clip342)" cx="2285.58" cy="97.8042" r="14.4" fill="#de8f05" fill-rule="evenodd" fill-opacity="1" stroke="#000000" stroke-opacity="1" stroke-width="3.2"/>
<circle clip-path="url(#clip342)" cx="2286.98" cy="98.9817" r="14.4" fill="#de8f05" fill-rule="evenodd" fill-opacity="1" stroke="#000000" stroke-opacity="1" stroke-width="3.2"/>
<circle clip-path="url(#clip342)" cx="2285.73" cy="101.821" r="14.4" fill="#de8f05" fill-rule="evenodd" fill-opacity="1" stroke="#000000" stroke-opacity="1" stroke-width="3.2"/>
<circle clip-path="url(#clip342)" cx="2285.54" cy="104.485" r="14.4" fill="#de8f05" fill-rule="evenodd" fill-opacity="1" stroke="#000000" stroke-opacity="1" stroke-width="3.2"/>
<circle clip-path="url(#clip342)" cx="2286.43" cy="106.952" r="14.4" fill="#de8f05" fill-rule="evenodd" fill-opacity="1" stroke="#000000" stroke-opacity="1" stroke-width="3.2"/>
<circle clip-path="url(#clip342)" cx="2287.16" cy="109.202" r="14.4" fill="#de8f05" fill-rule="evenodd" fill-opacity="1" stroke="#000000" stroke-opacity="1" stroke-width="3.2"/>
<circle clip-path="url(#clip342)" cx="2286.11" cy="110.322" r="14.4" fill="#de8f05" fill-rule="evenodd" fill-opacity="1" stroke="#000000" stroke-opacity="1" stroke-width="3.2"/>
<circle clip-path="url(#clip342)" cx="2286.62" cy="111.224" r="14.4" fill="#de8f05" fill-rule="evenodd" fill-opacity="1" stroke="#000000" stroke-opacity="1" stroke-width="3.2"/>
<circle clip-path="url(#clip342)" cx="2286.45" cy="113.008" r="14.4" fill="#de8f05" fill-rule="evenodd" fill-opacity="1" stroke="#000000" stroke-opacity="1" stroke-width="3.2"/>
<circle clip-path="url(#clip342)" cx="2286.68" cy="114.553" r="14.4" fill="#de8f05" fill-rule="evenodd" fill-opacity="1" stroke="#000000" stroke-opacity="1" stroke-width="3.2"/>
<circle clip-path="url(#clip342)" cx="2287.11" cy="115.861" r="14.4" fill="#de8f05" fill-rule="evenodd" fill-opacity="1" stroke="#000000" stroke-opacity="1" stroke-width="3.2"/>
<circle clip-path="url(#clip342)" cx="2290.25" cy="116.939" r="14.4" fill="#de8f05" fill-rule="evenodd" fill-opacity="1" stroke="#000000" stroke-opacity="1" stroke-width="3.2"/>
<circle clip-path="url(#clip342)" cx="2289.91" cy="117.799" r="14.4" fill="#de8f05" fill-rule="evenodd" fill-opacity="1" stroke="#000000" stroke-opacity="1" stroke-width="3.2"/>
<circle clip-path="url(#clip342)" cx="2288.56" cy="118.55" r="14.4" fill="#de8f05" fill-rule="evenodd" fill-opacity="1" stroke="#000000" stroke-opacity="1" stroke-width="3.2"/>
<circle clip-path="url(#clip342)" cx="2289.15" cy="117.972" r="14.4" fill="#de8f05" fill-rule="evenodd" fill-opacity="1" stroke="#000000" stroke-opacity="1" stroke-width="3.2"/>
<circle clip-path="url(#clip342)" cx="2291.48" cy="111.264" r="14.4" fill="#de8f05" fill-rule="evenodd" fill-opacity="1" stroke="#000000" stroke-opacity="1" stroke-width="3.2"/>
<circle clip-path="url(#clip342)" cx="2289.72" cy="103.425" r="14.4" fill="#de8f05" fill-rule="evenodd" fill-opacity="1" stroke="#000000" stroke-opacity="1" stroke-width="3.2"/>
<circle clip-path="url(#clip342)" cx="2290.02" cy="96.742" r="14.4" fill="#de8f05" fill-rule="evenodd" fill-opacity="1" stroke="#000000" stroke-opacity="1" stroke-width="3.2"/>
<circle clip-path="url(#clip342)" cx="2289.26" cy="91.6007" r="14.4" fill="#de8f05" fill-rule="evenodd" fill-opacity="1" stroke="#000000" stroke-opacity="1" stroke-width="3.2"/>
<circle clip-path="url(#clip342)" cx="2293.37" cy="87.7833" r="14.4" fill="#de8f05" fill-rule="evenodd" fill-opacity="1" stroke="#000000" stroke-opacity="1" stroke-width="3.2"/>
<circle clip-path="url(#clip342)" cx="2294.32" cy="84.9802" r="14.4" fill="#de8f05" fill-rule="evenodd" fill-opacity="1" stroke="#000000" stroke-opacity="1" stroke-width="3.2"/>
<circle clip-path="url(#clip342)" cx="1314.08" cy="1294.27" r="14.4" fill="#029e73" fill-rule="evenodd" fill-opacity="1" stroke="#000000" stroke-opacity="1" stroke-width="3.2"/>
<circle clip-path="url(#clip342)" cx="1346.6" cy="1282.07" r="14.4" fill="#029e73" fill-rule="evenodd" fill-opacity="1" stroke="#000000" stroke-opacity="1" stroke-width="3.2"/>
<circle clip-path="url(#clip342)" cx="1379.08" cy="1274.22" r="14.4" fill="#029e73" fill-rule="evenodd" fill-opacity="1" stroke="#000000" stroke-opacity="1" stroke-width="3.2"/>
<circle clip-path="url(#clip342)" cx="1411.58" cy="1255.5" r="14.4" fill="#029e73" fill-rule="evenodd" fill-opacity="1" stroke="#000000" stroke-opacity="1" stroke-width="3.2"/>
<circle clip-path="url(#clip342)" cx="1444.05" cy="1320.83" r="14.4" fill="#029e73" fill-rule="evenodd" fill-opacity="1" stroke="#000000" stroke-opacity="1" stroke-width="3.2"/>
<circle clip-path="url(#clip342)" cx="1476.54" cy="1328.79" r="14.4" fill="#029e73" fill-rule="evenodd" fill-opacity="1" stroke="#000000" stroke-opacity="1" stroke-width="3.2"/>
<circle clip-path="url(#clip342)" cx="1509.03" cy="1299.39" r="14.4" fill="#029e73" fill-rule="evenodd" fill-opacity="1" stroke="#000000" stroke-opacity="1" stroke-width="3.2"/>
<circle clip-path="url(#clip342)" cx="1541.55" cy="1284.77" r="14.4" fill="#029e73" fill-rule="evenodd" fill-opacity="1" stroke="#000000" stroke-opacity="1" stroke-width="3.2"/>
<circle clip-path="url(#clip342)" cx="1574.09" cy="1295.49" r="14.4" fill="#029e73" fill-rule="evenodd" fill-opacity="1" stroke="#000000" stroke-opacity="1" stroke-width="3.2"/>
<circle clip-path="url(#clip342)" cx="1606.67" cy="1290.84" r="14.4" fill="#029e73" fill-rule="evenodd" fill-opacity="1" stroke="#000000" stroke-opacity="1" stroke-width="3.2"/>
<circle clip-path="url(#clip342)" cx="1639.28" cy="1269.55" r="14.4" fill="#029e73" fill-rule="evenodd" fill-opacity="1" stroke="#000000" stroke-opacity="1" stroke-width="3.2"/>
<circle clip-path="url(#clip342)" cx="1672.04" cy="1295.49" r="14.4" fill="#029e73" fill-rule="evenodd" fill-opacity="1" stroke="#000000" stroke-opacity="1" stroke-width="3.2"/>
<circle clip-path="url(#clip342)" cx="1704.91" cy="1270.18" r="14.4" fill="#029e73" fill-rule="evenodd" fill-opacity="1" stroke="#000000" stroke-opacity="1" stroke-width="3.2"/>
<circle clip-path="url(#clip342)" cx="1737.88" cy="1261.12" r="14.4" fill="#029e73" fill-rule="evenodd" fill-opacity="1" stroke="#000000" stroke-opacity="1" stroke-width="3.2"/>
<circle clip-path="url(#clip342)" cx="1771.33" cy="1222.54" r="14.4" fill="#029e73" fill-rule="evenodd" fill-opacity="1" stroke="#000000" stroke-opacity="1" stroke-width="3.2"/>
<circle clip-path="url(#clip342)" cx="1804.67" cy="1282.95" r="14.4" fill="#029e73" fill-rule="evenodd" fill-opacity="1" stroke="#000000" stroke-opacity="1" stroke-width="3.2"/>
<circle clip-path="url(#clip342)" cx="1839.02" cy="1284.77" r="14.4" fill="#029e73" fill-rule="evenodd" fill-opacity="1" stroke="#000000" stroke-opacity="1" stroke-width="3.2"/>
<circle clip-path="url(#clip342)" cx="1873.56" cy="1289.76" r="14.4" fill="#029e73" fill-rule="evenodd" fill-opacity="1" stroke="#000000" stroke-opacity="1" stroke-width="3.2"/>
<circle clip-path="url(#clip342)" cx="1908.81" cy="1300.78" r="14.4" fill="#029e73" fill-rule="evenodd" fill-opacity="1" stroke="#000000" stroke-opacity="1" stroke-width="3.2"/>
<circle clip-path="url(#clip342)" cx="1945.56" cy="1281.21" r="14.4" fill="#029e73" fill-rule="evenodd" fill-opacity="1" stroke="#000000" stroke-opacity="1" stroke-width="3.2"/>
<circle clip-path="url(#clip342)" cx="1984.47" cy="1308.63" r="14.4" fill="#029e73" fill-rule="evenodd" fill-opacity="1" stroke="#000000" stroke-opacity="1" stroke-width="3.2"/>
<circle clip-path="url(#clip342)" cx="2025.31" cy="1286.69" r="14.4" fill="#029e73" fill-rule="evenodd" fill-opacity="1" stroke="#000000" stroke-opacity="1" stroke-width="3.2"/>
<circle clip-path="url(#clip342)" cx="2064.26" cy="1299.39" r="14.4" fill="#029e73" fill-rule="evenodd" fill-opacity="1" stroke="#000000" stroke-opacity="1" stroke-width="3.2"/>
<circle clip-path="url(#clip342)" cx="2067.27" cy="1278.73" r="14.4" fill="#029e73" fill-rule="evenodd" fill-opacity="1" stroke="#000000" stroke-opacity="1" stroke-width="3.2"/>
<circle clip-path="url(#clip342)" cx="2090.07" cy="1342.85" r="14.4" fill="#029e73" fill-rule="evenodd" fill-opacity="1" stroke="#000000" stroke-opacity="1" stroke-width="3.2"/>
<circle clip-path="url(#clip342)" cx="2109.28" cy="1274.22" r="14.4" fill="#029e73" fill-rule="evenodd" fill-opacity="1" stroke="#000000" stroke-opacity="1" stroke-width="3.2"/>
<circle clip-path="url(#clip342)" cx="2115.27" cy="1281.21" r="14.4" fill="#029e73" fill-rule="evenodd" fill-opacity="1" stroke="#000000" stroke-opacity="1" stroke-width="3.2"/>
<circle clip-path="url(#clip342)" cx="2129.08" cy="1342.85" r="14.4" fill="#029e73" fill-rule="evenodd" fill-opacity="1" stroke="#000000" stroke-opacity="1" stroke-width="3.2"/>
<circle clip-path="url(#clip342)" cx="2147.08" cy="1335.19" r="14.4" fill="#029e73" fill-rule="evenodd" fill-opacity="1" stroke="#000000" stroke-opacity="1" stroke-width="3.2"/>
<circle clip-path="url(#clip342)" cx="2161.05" cy="1287.68" r="14.4" fill="#029e73" fill-rule="evenodd" fill-opacity="1" stroke="#000000" stroke-opacity="1" stroke-width="3.2"/>
<circle clip-path="url(#clip342)" cx="2161.67" cy="1296.74" r="14.4" fill="#029e73" fill-rule="evenodd" fill-opacity="1" stroke="#000000" stroke-opacity="1" stroke-width="3.2"/>
<circle clip-path="url(#clip342)" cx="2178.93" cy="1278.73" r="14.4" fill="#029e73" fill-rule="evenodd" fill-opacity="1" stroke="#000000" stroke-opacity="1" stroke-width="3.2"/>
<circle clip-path="url(#clip342)" cx="2187.82" cy="1335.19" r="14.4" fill="#029e73" fill-rule="evenodd" fill-opacity="1" stroke="#000000" stroke-opacity="1" stroke-width="3.2"/>
<circle clip-path="url(#clip342)" cx="2200.35" cy="1312.28" r="14.4" fill="#029e73" fill-rule="evenodd" fill-opacity="1" stroke="#000000" stroke-opacity="1" stroke-width="3.2"/>
<circle clip-path="url(#clip342)" cx="2193.53" cy="1335.19" r="14.4" fill="#029e73" fill-rule="evenodd" fill-opacity="1" stroke="#000000" stroke-opacity="1" stroke-width="3.2"/>
<circle clip-path="url(#clip342)" cx="2190.21" cy="1267.11" r="14.4" fill="#029e73" fill-rule="evenodd" fill-opacity="1" stroke="#000000" stroke-opacity="1" stroke-width="3.2"/>
<circle clip-path="url(#clip342)" cx="2185.4" cy="1338.84" r="14.4" fill="#029e73" fill-rule="evenodd" fill-opacity="1" stroke="#000000" stroke-opacity="1" stroke-width="3.2"/>
<circle clip-path="url(#clip342)" cx="2179.55" cy="1265.95" r="14.4" fill="#029e73" fill-rule="evenodd" fill-opacity="1" stroke="#000000" stroke-opacity="1" stroke-width="3.2"/>
<circle clip-path="url(#clip342)" cx="2175.65" cy="1342.85" r="14.4" fill="#029e73" fill-rule="evenodd" fill-opacity="1" stroke="#000000" stroke-opacity="1" stroke-width="3.2"/>
<circle clip-path="url(#clip342)" cx="2169.48" cy="1305.29" r="14.4" fill="#029e73" fill-rule="evenodd" fill-opacity="1" stroke="#000000" stroke-opacity="1" stroke-width="3.2"/>
<circle clip-path="url(#clip342)" cx="2164.76" cy="1256.83" r="14.4" fill="#029e73" fill-rule="evenodd" fill-opacity="1" stroke="#000000" stroke-opacity="1" stroke-width="3.2"/>
<circle clip-path="url(#clip342)" cx="2164.99" cy="1256.39" r="14.4" fill="#029e73" fill-rule="evenodd" fill-opacity="1" stroke="#000000" stroke-opacity="1" stroke-width="3.2"/>
<circle clip-path="url(#clip342)" cx="2159.04" cy="1293.09" r="14.4" fill="#029e73" fill-rule="evenodd" fill-opacity="1" stroke="#000000" stroke-opacity="1" stroke-width="3.2"/>
<circle clip-path="url(#clip342)" cx="2158.11" cy="1318.51" r="14.4" fill="#029e73" fill-rule="evenodd" fill-opacity="1" stroke="#000000" stroke-opacity="1" stroke-width="3.2"/>
<circle clip-path="url(#clip342)" cx="2153.83" cy="1251.77" r="14.4" fill="#029e73" fill-rule="evenodd" fill-opacity="1" stroke="#000000" stroke-opacity="1" stroke-width="3.2"/>
<circle clip-path="url(#clip342)" cx="2153.61" cy="1237.71" r="14.4" fill="#029e73" fill-rule="evenodd" fill-opacity="1" stroke="#000000" stroke-opacity="1" stroke-width="3.2"/>
<circle clip-path="url(#clip342)" cx="2152.02" cy="1290.84" r="14.4" fill="#029e73" fill-rule="evenodd" fill-opacity="1" stroke="#000000" stroke-opacity="1" stroke-width="3.2"/>
<circle clip-path="url(#clip342)" cx="2152.8" cy="1312.28" r="14.4" fill="#029e73" fill-rule="evenodd" fill-opacity="1" stroke="#000000" stroke-opacity="1" stroke-width="3.2"/>
<circle clip-path="url(#clip342)" cx="2154.85" cy="1300.78" r="14.4" fill="#029e73" fill-rule="evenodd" fill-opacity="1" stroke="#000000" stroke-opacity="1" stroke-width="3.2"/>
<circle clip-path="url(#clip342)" cx="2169.71" cy="1299.39" r="14.4" fill="#029e73" fill-rule="evenodd" fill-opacity="1" stroke="#000000" stroke-opacity="1" stroke-width="3.2"/>
<circle clip-path="url(#clip342)" cx="2186.47" cy="1272.82" r="14.4" fill="#029e73" fill-rule="evenodd" fill-opacity="1" stroke="#000000" stroke-opacity="1" stroke-width="3.2"/>
<circle clip-path="url(#clip342)" cx="2203.08" cy="1291.95" r="14.4" fill="#029e73" fill-rule="evenodd" fill-opacity="1" stroke="#000000" stroke-opacity="1" stroke-width="3.2"/>
<circle clip-path="url(#clip342)" cx="2213.1" cy="1279.54" r="14.4" fill="#029e73" fill-rule="evenodd" fill-opacity="1" stroke="#000000" stroke-opacity="1" stroke-width="3.2"/>
<circle clip-path="url(#clip342)" cx="2224.26" cy="1298.04" r="14.4" fill="#029e73" fill-rule="evenodd" fill-opacity="1" stroke="#000000" stroke-opacity="1" stroke-width="3.2"/>
<circle clip-path="url(#clip342)" cx="2232.02" cy="1288.71" r="14.4" fill="#029e73" fill-rule="evenodd" fill-opacity="1" stroke="#000000" stroke-opacity="1" stroke-width="3.2"/>
<path clip-path="url(#clip340)" d="M356.882 247.209 L679.14 247.209 L679.14 91.6888 L356.882 91.6888  Z" fill="#ffffff" fill-rule="evenodd" fill-opacity="1"/>
<polyline clip-path="url(#clip340)" style="stroke:#000000; stroke-linecap:round; stroke-linejoin:round; stroke-width:4; stroke-opacity:1; fill:none" points="356.882,247.209 679.14,247.209 679.14,91.6888 356.882,91.6888 356.882,247.209 "/>
<circle clip-path="url(#clip340)" cx="448.647" cy="143.529" r="20.48" fill="#de8f05" fill-rule="evenodd" fill-opacity="1" stroke="#000000" stroke-opacity="1" stroke-width="4.55111"/>
<path clip-path="url(#clip340)" d="M566.41 152.221 Q566.41 152.408 566.199 153.134 Q565.988 153.86 565.473 154.985 Q564.981 156.109 564.302 157.139 Q563.622 158.147 562.498 158.896 Q561.397 159.622 560.133 159.622 Q558.446 159.622 557.322 158.498 Q556.198 157.374 556.198 155.687 Q556.198 154.75 556.689 153.462 Q559.805 145.147 559.805 142.29 Q559.805 138.94 557.205 138.94 Q555.916 138.94 554.699 139.432 Q553.504 139.9 552.684 140.556 Q551.864 141.212 551.115 142.126 Q550.389 143.016 550.014 143.625 Q549.663 144.21 549.382 144.796 L548.773 147.185 Q548.632 147.841 547.953 150.394 L546.899 154.727 Q546.149 157.959 545.985 158.264 Q545.751 158.92 545.236 159.271 Q544.721 159.622 544.205 159.622 Q543.62 159.622 543.222 159.271 Q542.823 158.92 542.823 158.311 Q542.823 158.217 542.894 157.866 Q542.964 157.514 543.081 157.022 Q543.198 156.53 543.245 156.249 L546.032 145.171 Q546.548 143.156 546.665 142.524 Q546.805 141.868 546.805 141.142 Q546.805 138.94 545.306 138.94 Q544.088 138.94 543.292 140.392 Q542.495 141.845 541.816 144.655 Q541.605 145.428 541.465 145.592 Q541.348 145.756 540.996 145.756 Q540.411 145.733 540.411 145.264 Q540.411 145.147 540.598 144.374 Q540.786 143.601 541.137 142.5 Q541.512 141.376 541.863 140.627 Q542.168 140.064 542.331 139.807 Q542.519 139.526 542.964 138.987 Q543.432 138.425 544.041 138.167 Q544.674 137.886 545.447 137.886 Q547.18 137.886 548.445 139.01 Q549.71 140.111 549.874 142.055 Q552.989 137.886 557.345 137.886 Q559.922 137.886 561.397 139.245 Q562.873 140.603 562.873 143.016 Q562.873 143.578 562.756 144.304 Q562.662 145.007 562.428 145.897 Q562.217 146.787 562.03 147.466 Q561.842 148.145 561.468 149.246 Q561.093 150.323 560.929 150.792 Q560.765 151.26 560.367 152.361 Q559.992 153.439 559.945 153.556 Q559.079 155.734 559.079 156.975 Q559.079 157.795 559.336 158.17 Q559.617 158.545 560.226 158.545 Q561.866 158.545 563.084 156.929 Q564.325 155.289 565.122 152.619 Q565.309 152.033 565.403 151.893 Q565.52 151.752 565.848 151.752 Q566.41 151.752 566.41 152.221 Z" fill="#000000" fill-rule="nonzero" fill-opacity="1" /><path clip-path="url(#clip340)" d="M582.197 151.799 Q582.244 151.214 583.157 151.214 L612.552 151.214 Q613.934 151.214 613.958 151.752 Q613.958 152.338 612.646 152.314 L583.485 152.314 Q582.197 152.338 582.197 151.799 M582.197 142.43 Q582.197 141.845 583.204 141.868 L612.506 141.868 Q613.934 141.868 613.958 142.43 Q613.958 142.969 612.74 142.969 L583.157 142.969 Q582.197 142.969 582.197 142.43 Z" fill="#000000" fill-rule="nonzero" fill-opacity="1" /><path clip-path="url(#clip340)" d="M632.449 131.703 L632.449 130.204 Q638.211 130.204 641.185 127.135 Q642.005 127.135 642.146 127.323 Q642.286 127.51 642.286 128.377 L642.286 155.289 Q642.286 156.718 642.989 157.163 Q643.691 157.608 646.76 157.608 L648.282 157.608 L648.282 159.083 Q646.596 158.943 640.506 158.943 Q634.416 158.943 632.753 159.083 L632.753 157.608 L634.276 157.608 Q637.297 157.608 638.023 157.186 Q638.749 156.741 638.749 155.289 L638.749 130.438 Q636.243 131.703 632.449 131.703 Z" fill="#000000" fill-rule="nonzero" fill-opacity="1" /><circle clip-path="url(#clip340)" cx="448.647" cy="195.369" r="20.48" fill="#029e73" fill-rule="evenodd" fill-opacity="1" stroke="#000000" stroke-opacity="1" stroke-width="4.55111"/>
<path clip-path="url(#clip340)" d="M566.41 204.061 Q566.41 204.248 566.199 204.974 Q565.988 205.7 565.473 206.825 Q564.981 207.949 564.302 208.979 Q563.622 209.987 562.498 210.736 Q561.397 211.462 560.133 211.462 Q558.446 211.462 557.322 210.338 Q556.198 209.214 556.198 207.527 Q556.198 206.59 556.689 205.302 Q559.805 196.987 559.805 194.13 Q559.805 190.78 557.205 190.78 Q555.916 190.78 554.699 191.272 Q553.504 191.74 552.684 192.396 Q551.864 193.052 551.115 193.966 Q550.389 194.856 550.014 195.465 Q549.663 196.05 549.382 196.636 L548.773 199.025 Q548.632 199.681 547.953 202.234 L546.899 206.567 Q546.149 209.799 545.985 210.104 Q545.751 210.76 545.236 211.111 Q544.721 211.462 544.205 211.462 Q543.62 211.462 543.222 211.111 Q542.823 210.76 542.823 210.151 Q542.823 210.057 542.894 209.706 Q542.964 209.354 543.081 208.862 Q543.198 208.37 543.245 208.089 L546.032 197.011 Q546.548 194.996 546.665 194.364 Q546.805 193.708 546.805 192.982 Q546.805 190.78 545.306 190.78 Q544.088 190.78 543.292 192.232 Q542.495 193.685 541.816 196.495 Q541.605 197.268 541.465 197.432 Q541.348 197.596 540.996 197.596 Q540.411 197.573 540.411 197.104 Q540.411 196.987 540.598 196.214 Q540.786 195.441 541.137 194.34 Q541.512 193.216 541.863 192.467 Q542.168 191.904 542.331 191.647 Q542.519 191.366 542.964 190.827 Q543.432 190.265 544.041 190.007 Q544.674 189.726 545.447 189.726 Q547.18 189.726 548.445 190.85 Q549.71 191.951 549.874 193.895 Q552.989 189.726 557.345 189.726 Q559.922 189.726 561.397 191.085 Q562.873 192.443 562.873 194.856 Q562.873 195.418 562.756 196.144 Q562.662 196.847 562.428 197.737 Q562.217 198.627 562.03 199.306 Q561.842 199.985 561.468 201.086 Q561.093 202.163 560.929 202.632 Q560.765 203.1 560.367 204.201 Q559.992 205.279 559.945 205.396 Q559.079 207.574 559.079 208.815 Q559.079 209.635 559.336 210.01 Q559.617 210.385 560.226 210.385 Q561.866 210.385 563.084 208.769 Q564.325 207.129 565.122 204.459 Q565.309 203.873 565.403 203.733 Q565.52 203.592 565.848 203.592 Q566.41 203.592 566.41 204.061 Z" fill="#000000" fill-rule="nonzero" fill-opacity="1" /><path clip-path="url(#clip340)" d="M582.197 203.639 Q582.244 203.054 583.157 203.054 L612.552 203.054 Q613.934 203.054 613.958 203.592 Q613.958 204.178 612.646 204.154 L583.485 204.154 Q582.197 204.178 582.197 203.639 M582.197 194.27 Q582.197 193.685 583.204 193.708 L612.506 193.708 Q613.934 193.708 613.958 194.27 Q613.958 194.809 612.74 194.809 L583.157 194.809 Q582.197 194.809 582.197 194.27 Z" fill="#000000" fill-rule="nonzero" fill-opacity="1" /><path clip-path="url(#clip340)" d="M632.449 210.923 Q632.449 210.057 632.519 209.799 Q632.613 209.542 632.987 209.143 L642.192 198.884 Q647.228 193.216 647.228 188.274 Q647.228 185.065 645.542 182.77 Q643.879 180.474 640.811 180.474 Q638.702 180.474 636.922 181.763 Q635.142 183.051 634.323 185.346 Q634.463 185.299 634.955 185.299 Q636.149 185.299 636.805 186.049 Q637.485 186.798 637.485 187.806 Q637.485 189.094 636.641 189.726 Q635.822 190.335 635.002 190.335 Q634.674 190.335 634.229 190.265 Q633.807 190.195 633.128 189.539 Q632.449 188.86 632.449 187.665 Q632.449 184.316 634.978 181.645 Q637.531 178.975 641.42 178.975 Q645.823 178.975 648.704 181.599 Q651.608 184.198 651.608 188.274 Q651.608 189.703 651.163 191.014 Q650.742 192.303 650.156 193.31 Q649.594 194.317 648.048 195.933 Q646.502 197.549 645.261 198.697 Q644.019 199.845 641.232 202.281 L636.149 207.223 L644.792 207.223 Q649.008 207.223 649.336 206.848 Q649.805 206.169 650.39 202.585 L651.608 202.585 L650.25 210.923 L632.449 210.923 Z" fill="#000000" fill-rule="nonzero" fill-opacity="1" /></svg>
