<?xml version="1.0" encoding="utf-8"?>
<svg xmlns="http://www.w3.org/2000/svg" xmlns:xlink="http://www.w3.org/1999/xlink" width="600" height="400" viewBox="0 0 2400 1600">
<defs>
  <clipPath id="clip930">
    <rect x="0" y="0" width="2400" height="1600"/>
  </clipPath>
</defs>
<path clip-path="url(#clip930)" d="M0 1600 L2400 1600 L2400 0 L0 0  Z" fill="#ffffff" fill-rule="evenodd" fill-opacity="1"/>
<defs>
  <clipPath id="clip931">
    <rect x="480" y="0" width="1681" height="1600"/>
  </clipPath>
</defs>
<path clip-path="url(#clip930)" d="M287.853 1380.58 L2352.76 1380.58 L2352.76 47.2441 L287.853 47.2441  Z" fill="#ffffff" fill-rule="evenodd" fill-opacity="1"/>
<defs>
  <clipPath id="clip932">
    <rect x="287" y="47" width="2066" height="1334"/>
  </clipPath>
</defs>
<polyline clip-path="url(#clip932)" style="stroke:#000000; stroke-linecap:round; stroke-linejoin:round; stroke-width:2; stroke-opacity:0.1; fill:none" points="754.73,1380.58 754.73,47.2441 "/>
<polyline clip-path="url(#clip932)" style="stroke:#000000; stroke-linecap:round; stroke-linejoin:round; stroke-width:2; stroke-opacity:0.1; fill:none" points="1253.17,1380.58 1253.17,47.2441 "/>
<polyline clip-path="url(#clip932)" style="stroke:#000000; stroke-linecap:round; stroke-linejoin:round; stroke-width:2; stroke-opacity:0.1; fill:none" points="1751.61,1380.58 1751.61,47.2441 "/>
<polyline clip-path="url(#clip932)" style="stroke:#000000; stroke-linecap:round; stroke-linejoin:round; stroke-width:2; stroke-opacity:0.1; fill:none" points="2250.06,1380.58 2250.06,47.2441 "/>
<polyline clip-path="url(#clip932)" style="stroke:#000000; stroke-linecap:round; stroke-linejoin:round; stroke-width:2; stroke-opacity:0.1; fill:none" points="754.73,1380.58 754.73,47.2441 "/>
<polyline clip-path="url(#clip932)" style="stroke:#000000; stroke-linecap:round; stroke-linejoin:round; stroke-width:2; stroke-opacity:0.1; fill:none" points="1253.17,1380.58 1253.17,47.2441 "/>
<polyline clip-path="url(#clip932)" style="stroke:#000000; stroke-linecap:round; stroke-linejoin:round; stroke-width:2; stroke-opacity:0.1; fill:none" points="1751.61,1380.58 1751.61,47.2441 "/>
<polyline clip-path="url(#clip932)" style="stroke:#000000; stroke-linecap:round; stroke-linejoin:round; stroke-width:2; stroke-opacity:0.1; fill:none" points="2250.06,1380.58 2250.06,47.2441 "/>
<polyline clip-path="url(#clip932)" style="stroke:#000000; stroke-linecap:round; stroke-linejoin:round; stroke-width:2; stroke-opacity:0.1; fill:none" points="287.853,1327.81 2352.76,1327.81 "/>
<polyline clip-path="url(#clip932)" style="stroke:#000000; stroke-linecap:round; stroke-linejoin:round; stroke-width:2; stroke-opacity:0.1; fill:none" points="287.853,1157.37 2352.76,1157.37 "/>
<polyline clip-path="url(#clip932)" style="stroke:#000000; stroke-linecap:round; stroke-linejoin:round; stroke-width:2; stroke-opacity:0.1; fill:none" points="287.853,986.935 2352.76,986.935 "/>
<polyline clip-path="url(#clip932)" style="stroke:#000000; stroke-linecap:round; stroke-linejoin:round; stroke-width:2; stroke-opacity:0.1; fill:none" points="287.853,816.496 2352.76,816.496 "/>
<polyline clip-path="url(#clip932)" style="stroke:#000000; stroke-linecap:round; stroke-linejoin:round; stroke-width:2; stroke-opacity:0.1; fill:none" points="287.853,646.057 2352.76,646.057 "/>
<polyline clip-path="url(#clip932)" style="stroke:#000000; stroke-linecap:round; stroke-linejoin:round; stroke-width:2; stroke-opacity:0.1; fill:none" points="287.853,475.618 2352.76,475.618 "/>
<polyline clip-path="url(#clip932)" style="stroke:#000000; stroke-linecap:round; stroke-linejoin:round; stroke-width:2; stroke-opacity:0.1; fill:none" points="287.853,305.179 2352.76,305.179 "/>
<polyline clip-path="url(#clip932)" style="stroke:#000000; stroke-linecap:round; stroke-linejoin:round; stroke-width:2; stroke-opacity:0.1; fill:none" points="287.853,134.739 2352.76,134.739 "/>
<polyline clip-path="url(#clip932)" style="stroke:#000000; stroke-linecap:round; stroke-linejoin:round; stroke-width:2; stroke-opacity:0.1; fill:none" points="287.853,1327.81 2352.76,1327.81 "/>
<polyline clip-path="url(#clip932)" style="stroke:#000000; stroke-linecap:round; stroke-linejoin:round; stroke-width:2; stroke-opacity:0.1; fill:none" points="287.853,1157.37 2352.76,1157.37 "/>
<polyline clip-path="url(#clip932)" style="stroke:#000000; stroke-linecap:round; stroke-linejoin:round; stroke-width:2; stroke-opacity:0.1; fill:none" points="287.853,986.935 2352.76,986.935 "/>
<polyline clip-path="url(#clip932)" style="stroke:#000000; stroke-linecap:round; stroke-linejoin:round; stroke-width:2; stroke-opacity:0.1; fill:none" points="287.853,816.496 2352.76,816.496 "/>
<polyline clip-path="url(#clip932)" style="stroke:#000000; stroke-linecap:round; stroke-linejoin:round; stroke-width:2; stroke-opacity:0.1; fill:none" points="287.853,646.057 2352.76,646.057 "/>
<polyline clip-path="url(#clip932)" style="stroke:#000000; stroke-linecap:round; stroke-linejoin:round; stroke-width:2; stroke-opacity:0.1; fill:none" points="287.853,475.618 2352.76,475.618 "/>
<polyline clip-path="url(#clip932)" style="stroke:#000000; stroke-linecap:round; stroke-linejoin:round; stroke-width:2; stroke-opacity:0.1; fill:none" points="287.853,305.179 2352.76,305.179 "/>
<polyline clip-path="url(#clip932)" style="stroke:#000000; stroke-linecap:round; stroke-linejoin:round; stroke-width:2; stroke-opacity:0.1; fill:none" points="287.853,134.739 2352.76,134.739 "/>
<polyline clip-path="url(#clip930)" style="stroke:#000000; stroke-linecap:round; stroke-linejoin:round; stroke-width:4; stroke-opacity:1; fill:none" points="287.853,1380.58 2352.76,1380.58 "/>
<polyline clip-path="url(#clip930)" style="stroke:#000000; stroke-linecap:round; stroke-linejoin:round; stroke-width:4; stroke-opacity:1; fill:none" points="287.853,47.2441 2352.76,47.2441 "/>
<polyline clip-path="url(#clip930)" style="stroke:#000000; stroke-linecap:round; stroke-linejoin:round; stroke-width:4; stroke-opacity:1; fill:none" points="754.73,1380.58 754.73,1361.69 "/>
<polyline clip-path="url(#clip930)" style="stroke:#000000; stroke-linecap:round; stroke-linejoin:round; stroke-width:4; stroke-opacity:1; fill:none" points="1253.17,1380.58 1253.17,1361.69 "/>
<polyline clip-path="url(#clip930)" style="stroke:#000000; stroke-linecap:round; stroke-linejoin:round; stroke-width:4; stroke-opacity:1; fill:none" points="1751.61,1380.58 1751.61,1361.69 "/>
<polyline clip-path="url(#clip930)" style="stroke:#000000; stroke-linecap:round; stroke-linejoin:round; stroke-width:4; stroke-opacity:1; fill:none" points="2250.06,1380.58 2250.06,1361.69 "/>
<polyline clip-path="url(#clip930)" style="stroke:#000000; stroke-linecap:round; stroke-linejoin:round; stroke-width:4; stroke-opacity:1; fill:none" points="754.73,47.2441 754.73,66.1417 "/>
<polyline clip-path="url(#clip930)" style="stroke:#000000; stroke-linecap:round; stroke-linejoin:round; stroke-width:4; stroke-opacity:1; fill:none" points="1253.17,47.2441 1253.17,66.1417 "/>
<polyline clip-path="url(#clip930)" style="stroke:#000000; stroke-linecap:round; stroke-linejoin:round; stroke-width:4; stroke-opacity:1; fill:none" points="1751.61,47.2441 1751.61,66.1417 "/>
<polyline clip-path="url(#clip930)" style="stroke:#000000; stroke-linecap:round; stroke-linejoin:round; stroke-width:4; stroke-opacity:1; fill:none" points="2250.06,47.2441 2250.06,66.1417 "/>
<path clip-path="url(#clip930)" d="M704.61 1454.71 L712.249 1454.71 L712.249 1428.34 L703.939 1430.01 L703.939 1425.75 L712.203 1424.08 L716.879 1424.08 L716.879 1454.71 L724.517 1454.71 L724.517 1458.64 L704.61 1458.64 L704.61 1454.71 Z" fill="#000000" fill-rule="nonzero" fill-opacity="1" /><path clip-path="url(#clip930)" d="M743.962 1427.16 Q740.351 1427.16 738.522 1430.73 Q736.716 1434.27 736.716 1441.4 Q736.716 1448.51 738.522 1452.07 Q740.351 1455.61 743.962 1455.61 Q747.596 1455.61 749.402 1452.07 Q751.23 1448.51 751.23 1441.4 Q751.23 1434.27 749.402 1430.73 Q747.596 1427.16 743.962 1427.16 M743.962 1423.46 Q749.772 1423.46 752.828 1428.07 Q755.906 1432.65 755.906 1441.4 Q755.906 1450.13 752.828 1454.73 Q749.772 1459.32 743.962 1459.32 Q738.152 1459.32 735.073 1454.73 Q732.017 1450.13 732.017 1441.4 Q732.017 1432.65 735.073 1428.07 Q738.152 1423.46 743.962 1423.46 Z" fill="#000000" fill-rule="nonzero" fill-opacity="1" /><path clip-path="url(#clip930)" d="M755.906 1417.56 L780.018 1417.56 L780.018 1420.76 L755.906 1420.76 L755.906 1417.56 Z" fill="#000000" fill-rule="nonzero" fill-opacity="1" /><path clip-path="url(#clip930)" d="M799.728 1416.09 Q802.455 1416.68 803.979 1418.52 Q805.521 1420.36 805.521 1423.07 Q805.521 1427.23 802.662 1429.5 Q799.804 1431.78 794.537 1431.78 Q792.769 1431.78 790.889 1431.42 Q789.027 1431.08 787.033 1430.39 L787.033 1426.72 Q788.613 1427.64 790.494 1428.11 Q792.374 1428.58 794.425 1428.58 Q797.998 1428.58 799.86 1427.17 Q801.741 1425.76 801.741 1423.07 Q801.741 1420.59 799.992 1419.2 Q798.261 1417.79 795.158 1417.79 L791.885 1417.79 L791.885 1414.66 L795.308 1414.66 Q798.111 1414.66 799.597 1413.56 Q801.082 1412.43 801.082 1410.32 Q801.082 1408.16 799.54 1407.01 Q798.017 1405.84 795.158 1405.84 Q793.597 1405.84 791.81 1406.18 Q790.023 1406.52 787.879 1407.24 L787.879 1403.85 Q790.042 1403.25 791.923 1402.95 Q793.823 1402.65 795.497 1402.65 Q799.822 1402.65 802.343 1404.62 Q804.863 1406.58 804.863 1409.93 Q804.863 1412.26 803.527 1413.88 Q802.192 1415.47 799.728 1416.09 Z" fill="#000000" fill-rule="nonzero" fill-opacity="1" /><path clip-path="url(#clip930)" d="M1203.29 1454.71 L1210.93 1454.71 L1210.93 1428.34 L1202.62 1430.01 L1202.62 1425.75 L1210.88 1424.08 L1215.56 1424.08 L1215.56 1454.71 L1223.19 1454.71 L1223.19 1458.64 L1203.29 1458.64 L1203.29 1454.71 Z" fill="#000000" fill-rule="nonzero" fill-opacity="1" /><path clip-path="url(#clip930)" d="M1242.64 1427.16 Q1239.03 1427.16 1237.2 1430.73 Q1235.39 1434.27 1235.39 1441.4 Q1235.39 1448.51 1237.2 1452.07 Q1239.03 1455.61 1242.64 1455.61 Q1246.27 1455.61 1248.08 1452.07 Q1249.91 1448.51 1249.91 1441.4 Q1249.91 1434.27 1248.08 1430.73 Q1246.27 1427.16 1242.64 1427.16 M1242.64 1423.46 Q1248.45 1423.46 1251.5 1428.07 Q1254.58 1432.65 1254.58 1441.4 Q1254.58 1450.13 1251.5 1454.73 Q1248.45 1459.32 1242.64 1459.32 Q1236.83 1459.32 1233.75 1454.73 Q1230.69 1450.13 1230.69 1441.4 Q1230.69 1432.65 1233.75 1428.07 Q1236.83 1423.46 1242.64 1423.46 Z" fill="#000000" fill-rule="nonzero" fill-opacity="1" /><path clip-path="url(#clip930)" d="M1254.58 1417.56 L1278.7 1417.56 L1278.7 1420.76 L1254.58 1420.76 L1254.58 1417.56 Z" fill="#000000" fill-rule="nonzero" fill-opacity="1" /><path clip-path="url(#clip930)" d="M1287.55 1428.04 L1293.76 1428.04 L1293.76 1406.62 L1287.01 1407.97 L1287.01 1404.51 L1293.72 1403.15 L1297.52 1403.15 L1297.52 1428.04 L1303.73 1428.04 L1303.73 1431.23 L1287.55 1431.23 L1287.55 1428.04 Z" fill="#000000" fill-rule="nonzero" fill-opacity="1" /><path clip-path="url(#clip930)" d="M1717.94 1454.71 L1725.58 1454.71 L1725.58 1428.34 L1717.27 1430.01 L1717.27 1425.75 L1725.53 1424.08 L1730.21 1424.08 L1730.21 1454.71 L1737.85 1454.71 L1737.85 1458.64 L1717.94 1458.64 L1717.94 1454.71 Z" fill="#000000" fill-rule="nonzero" fill-opacity="1" /><path clip-path="url(#clip930)" d="M1757.29 1427.16 Q1753.68 1427.16 1751.85 1430.73 Q1750.05 1434.27 1750.05 1441.4 Q1750.05 1448.51 1751.85 1452.07 Q1753.68 1455.61 1757.29 1455.61 Q1760.93 1455.61 1762.73 1452.07 Q1764.56 1448.51 1764.56 1441.4 Q1764.56 1434.27 1762.73 1430.73 Q1760.93 1427.16 1757.29 1427.16 M1757.29 1423.46 Q1763.1 1423.46 1766.16 1428.07 Q1769.24 1432.65 1769.24 1441.4 Q1769.24 1450.13 1766.16 1454.73 Q1763.1 1459.32 1757.29 1459.32 Q1751.48 1459.32 1748.4 1454.73 Q1745.35 1450.13 1745.35 1441.4 Q1745.35 1432.65 1748.4 1428.07 Q1751.48 1423.46 1757.29 1423.46 Z" fill="#000000" fill-rule="nonzero" fill-opacity="1" /><path clip-path="url(#clip930)" d="M1769.78 1428.04 L1775.99 1428.04 L1775.99 1406.62 L1769.24 1407.97 L1769.24 1404.51 L1775.95 1403.15 L1779.75 1403.15 L1779.75 1428.04 L1785.96 1428.04 L1785.96 1431.23 L1769.78 1431.23 L1769.78 1428.04 Z" fill="#000000" fill-rule="nonzero" fill-opacity="1" /><path clip-path="url(#clip930)" d="M2215.5 1454.71 L2223.14 1454.71 L2223.14 1428.34 L2214.83 1430.01 L2214.83 1425.75 L2223.09 1424.08 L2227.77 1424.08 L2227.77 1454.71 L2235.41 1454.71 L2235.41 1458.64 L2215.5 1458.64 L2215.5 1454.71 Z" fill="#000000" fill-rule="nonzero" fill-opacity="1" /><path clip-path="url(#clip930)" d="M2254.85 1427.16 Q2251.24 1427.16 2249.41 1430.73 Q2247.61 1434.27 2247.61 1441.4 Q2247.61 1448.51 2249.41 1452.07 Q2251.24 1455.61 2254.85 1455.61 Q2258.49 1455.61 2260.29 1452.07 Q2262.12 1448.51 2262.12 1441.4 Q2262.12 1434.27 2260.29 1430.73 Q2258.49 1427.16 2254.85 1427.16 M2254.85 1423.46 Q2260.66 1423.46 2263.72 1428.07 Q2266.8 1432.65 2266.8 1441.4 Q2266.8 1450.13 2263.72 1454.73 Q2260.66 1459.32 2254.85 1459.32 Q2249.04 1459.32 2245.96 1454.73 Q2242.91 1450.13 2242.91 1441.4 Q2242.91 1432.65 2245.96 1428.07 Q2249.04 1423.46 2254.85 1423.46 Z" fill="#000000" fill-rule="nonzero" fill-opacity="1" /><path clip-path="url(#clip930)" d="M2279.49 1416.09 Q2282.22 1416.68 2283.74 1418.52 Q2285.28 1420.36 2285.28 1423.07 Q2285.28 1427.23 2282.43 1429.5 Q2279.57 1431.78 2274.3 1431.78 Q2272.53 1431.78 2270.65 1431.42 Q2268.79 1431.08 2266.8 1430.39 L2266.8 1426.72 Q2268.38 1427.64 2270.26 1428.11 Q2272.14 1428.58 2274.19 1428.58 Q2277.76 1428.58 2279.62 1427.17 Q2281.5 1425.76 2281.5 1423.07 Q2281.5 1420.59 2279.75 1419.2 Q2278.02 1417.79 2274.92 1417.79 L2271.65 1417.79 L2271.65 1414.66 L2275.07 1414.66 Q2277.87 1414.66 2279.36 1413.56 Q2280.85 1412.43 2280.85 1410.32 Q2280.85 1408.16 2279.3 1407.01 Q2277.78 1405.84 2274.92 1405.84 Q2273.36 1405.84 2271.57 1406.18 Q2269.79 1406.52 2267.64 1407.24 L2267.64 1403.85 Q2269.81 1403.25 2271.69 1402.95 Q2273.59 1402.65 2275.26 1402.65 Q2279.59 1402.65 2282.11 1404.62 Q2284.63 1406.58 2284.63 1409.93 Q2284.63 1412.26 2283.29 1413.88 Q2281.96 1415.47 2279.49 1416.09 Z" fill="#000000" fill-rule="nonzero" fill-opacity="1" /><path clip-path="url(#clip930)" d="M1224.43 1571.84 L1224.43 1509.94 Q1224.43 1507.98 1225.75 1507.98 Q1227.07 1507.98 1227.07 1510.04 L1227.07 1571.68 Q1227.07 1573.81 1225.75 1573.81 Q1224.43 1573.81 1224.43 1571.84 M1231.7 1571.84 L1231.7 1510.42 Q1231.7 1507.98 1233.02 1507.98 Q1234.35 1507.98 1234.35 1510.04 L1234.35 1571.68 Q1234.35 1573.81 1233.02 1573.81 Q1231.7 1573.81 1231.7 1571.84 Z" fill="#000000" fill-rule="nonzero" fill-opacity="1" /><path clip-path="url(#clip930)" d="M1302.34 1556.06 Q1302.34 1556.67 1302.08 1556.99 Q1301.86 1557.28 1301.63 1557.35 Q1301.44 1557.38 1301.15 1557.38 Q1300.31 1557.38 1297.41 1557.28 Q1294.51 1557.19 1293.68 1557.19 Q1292.32 1557.19 1289.55 1557.28 Q1286.78 1557.38 1285.43 1557.38 Q1284.53 1557.38 1284.53 1556.64 Q1284.53 1556.16 1284.63 1555.9 Q1284.72 1555.61 1284.98 1555.51 Q1285.27 1555.38 1285.43 1555.38 Q1285.62 1555.35 1286.11 1555.35 Q1286.75 1555.35 1287.43 1555.29 Q1288.1 1555.19 1288.94 1555 Q1289.78 1554.8 1290.29 1554.32 Q1290.84 1553.84 1290.84 1553.16 Q1290.84 1552.87 1290.62 1550.49 Q1290.39 1548.11 1290.1 1545.34 Q1289.81 1542.53 1289.78 1542.15 L1273.22 1542.15 Q1271.71 1544.76 1270.65 1546.56 Q1269.59 1548.36 1269.2 1548.97 Q1268.81 1549.59 1268.59 1549.97 Q1268.36 1550.36 1268.23 1550.58 Q1267.3 1552.29 1267.3 1553.03 Q1267.3 1555.09 1270.39 1555.35 Q1271.45 1555.35 1271.45 1556.12 Q1271.45 1556.7 1271.2 1557.03 Q1270.94 1557.32 1270.71 1557.35 Q1270.52 1557.38 1270.2 1557.38 Q1269.13 1557.38 1266.91 1557.28 Q1264.69 1557.19 1263.6 1557.19 Q1262.66 1557.19 1260.73 1557.28 Q1258.8 1557.38 1257.93 1557.38 Q1257.54 1557.38 1257.32 1557.15 Q1257.09 1556.93 1257.09 1556.64 Q1257.09 1556.19 1257.15 1555.93 Q1257.25 1555.67 1257.51 1555.54 Q1257.77 1555.42 1257.89 1555.42 Q1258.02 1555.38 1258.47 1555.35 Q1260.92 1555.19 1262.82 1554.03 Q1264.75 1552.84 1266.59 1549.78 L1289.52 1511.26 Q1289.75 1510.88 1289.91 1510.68 Q1290.07 1510.49 1290.39 1510.33 Q1290.74 1510.17 1291.26 1510.17 Q1292.07 1510.17 1292.23 1510.42 Q1292.39 1510.65 1292.48 1511.74 L1296.51 1552.97 Q1296.61 1553.84 1296.67 1554.19 Q1296.77 1554.51 1297.19 1554.87 Q1297.64 1555.19 1298.44 1555.29 Q1299.28 1555.35 1300.83 1555.35 Q1301.4 1555.35 1301.63 1555.38 Q1301.86 1555.38 1302.08 1555.54 Q1302.34 1555.71 1302.34 1556.06 M1289.59 1540.09 L1287.49 1518.35 L1274.48 1540.09 L1289.59 1540.09 Z" fill="#000000" fill-rule="nonzero" fill-opacity="1" /><path clip-path="url(#clip930)" d="M1308.94 1497.93 Q1308.94 1490.13 1311.85 1483.84 Q1313.09 1481.2 1314.83 1479 Q1316.56 1476.79 1317.71 1475.82 Q1318.86 1474.85 1319.18 1474.85 Q1319.63 1474.85 1319.65 1475.3 Q1319.65 1475.52 1319.04 1476.09 Q1311.6 1483.66 1311.62 1497.93 Q1311.62 1512.25 1318.86 1519.53 Q1319.65 1520.32 1319.65 1520.57 Q1319.65 1521.02 1319.18 1521.02 Q1318.86 1521.02 1317.76 1520.09 Q1316.65 1519.17 1314.94 1517.05 Q1313.23 1514.93 1311.99 1512.34 Q1308.94 1506.05 1308.94 1497.93 Z" fill="#000000" fill-rule="nonzero" fill-opacity="1" /><path clip-path="url(#clip930)" d="M1348 1502.87 Q1348 1503.05 1347.8 1503.75 Q1347.59 1504.45 1347.1 1505.53 Q1346.62 1506.61 1345.97 1507.6 Q1345.32 1508.57 1344.23 1509.29 Q1343.17 1509.99 1341.96 1509.99 Q1340.33 1509.99 1339.25 1508.91 Q1338.17 1507.83 1338.17 1506.21 Q1338.17 1505.3 1338.64 1504.06 Q1341.64 1496.06 1341.64 1493.31 Q1341.64 1490.09 1339.14 1490.09 Q1337.9 1490.09 1336.73 1490.56 Q1335.58 1491.01 1334.79 1491.64 Q1334 1492.27 1333.28 1493.15 Q1332.58 1494.01 1332.22 1494.6 Q1331.88 1495.16 1331.61 1495.72 L1331.02 1498.02 Q1330.89 1498.65 1330.23 1501.11 L1329.22 1505.28 Q1328.5 1508.39 1328.34 1508.69 Q1328.12 1509.32 1327.62 1509.66 Q1327.12 1509.99 1326.63 1509.99 Q1326.06 1509.99 1325.68 1509.66 Q1325.3 1509.32 1325.3 1508.73 Q1325.3 1508.64 1325.37 1508.3 Q1325.43 1507.96 1325.55 1507.49 Q1325.66 1507.02 1325.7 1506.75 L1328.39 1496.08 Q1328.88 1494.15 1328.99 1493.54 Q1329.13 1492.91 1329.13 1492.21 Q1329.13 1490.09 1327.69 1490.09 Q1326.51 1490.09 1325.75 1491.48 Q1324.98 1492.88 1324.33 1495.59 Q1324.13 1496.33 1323.99 1496.49 Q1323.88 1496.65 1323.54 1496.65 Q1322.98 1496.62 1322.98 1496.17 Q1322.98 1496.06 1323.16 1495.32 Q1323.34 1494.57 1323.67 1493.51 Q1324.03 1492.43 1324.37 1491.71 Q1324.67 1491.17 1324.82 1490.92 Q1325 1490.65 1325.43 1490.13 Q1325.88 1489.59 1326.47 1489.34 Q1327.08 1489.07 1327.82 1489.07 Q1329.49 1489.07 1330.71 1490.15 Q1331.93 1491.21 1332.08 1493.09 Q1335.08 1489.07 1339.27 1489.07 Q1341.75 1489.07 1343.17 1490.38 Q1344.6 1491.69 1344.6 1494.01 Q1344.6 1494.55 1344.48 1495.25 Q1344.39 1495.93 1344.17 1496.78 Q1343.96 1497.64 1343.78 1498.29 Q1343.6 1498.95 1343.24 1500.01 Q1342.88 1501.04 1342.72 1501.49 Q1342.57 1501.95 1342.18 1503 Q1341.82 1504.04 1341.78 1504.15 Q1340.94 1506.25 1340.94 1507.45 Q1340.94 1508.24 1341.19 1508.6 Q1341.46 1508.96 1342.05 1508.96 Q1343.63 1508.96 1344.8 1507.4 Q1345.99 1505.82 1346.76 1503.25 Q1346.94 1502.69 1347.03 1502.55 Q1347.14 1502.42 1347.46 1502.42 Q1348 1502.42 1348 1502.87 Z" fill="#000000" fill-rule="nonzero" fill-opacity="1" /><path clip-path="url(#clip930)" d="M1352.43 1520.57 Q1352.43 1520.34 1353.01 1519.78 Q1360.45 1512.2 1360.45 1497.93 Q1360.45 1483.62 1353.31 1476.38 Q1352.43 1475.55 1352.43 1475.3 Q1352.43 1474.85 1352.88 1474.85 Q1353.19 1474.85 1354.3 1475.77 Q1355.43 1476.7 1357.12 1478.82 Q1358.83 1480.93 1360.09 1483.53 Q1363.14 1489.82 1363.14 1497.93 Q1363.14 1505.73 1360.23 1512.02 Q1358.99 1514.66 1357.25 1516.87 Q1355.52 1519.08 1354.37 1520.05 Q1353.22 1521.02 1352.88 1521.02 Q1352.43 1521.02 1352.43 1520.57 Z" fill="#000000" fill-rule="nonzero" fill-opacity="1" /><path clip-path="url(#clip930)" d="M1377.2 1571.84 L1377.2 1509.94 Q1377.2 1507.98 1378.52 1507.98 Q1379.84 1507.98 1379.84 1510.04 L1379.84 1571.68 Q1379.84 1573.81 1378.52 1573.81 Q1377.2 1573.81 1377.2 1571.84 M1384.48 1571.84 L1384.48 1510.42 Q1384.48 1507.98 1385.8 1507.98 Q1387.12 1507.98 1387.12 1510.04 L1387.12 1571.68 Q1387.12 1573.81 1385.8 1573.81 Q1384.48 1573.81 1384.48 1571.84 Z" fill="#000000" fill-rule="nonzero" fill-opacity="1" /><path clip-path="url(#clip930)" d="M1394.05 1565.57 L1394.05 1564.13 Q1399.6 1564.13 1402.46 1561.17 Q1403.25 1561.17 1403.38 1561.35 Q1403.52 1561.53 1403.52 1562.37 L1403.52 1588.27 Q1403.52 1589.65 1404.19 1590.07 Q1404.87 1590.5 1407.82 1590.5 L1409.29 1590.5 L1409.29 1591.92 Q1407.67 1591.79 1401.81 1591.79 Q1395.94 1591.79 1394.34 1591.92 L1394.34 1590.5 L1395.81 1590.5 Q1398.72 1590.5 1399.42 1590.1 Q1400.11 1589.67 1400.11 1588.27 L1400.11 1564.35 Q1397.7 1565.57 1394.05 1565.57 Z" fill="#000000" fill-rule="nonzero" fill-opacity="1" /><polyline clip-path="url(#clip930)" style="stroke:#000000; stroke-linecap:round; stroke-linejoin:round; stroke-width:4; stroke-opacity:1; fill:none" points="287.853,1380.58 287.853,47.2441 "/>
<polyline clip-path="url(#clip930)" style="stroke:#000000; stroke-linecap:round; stroke-linejoin:round; stroke-width:4; stroke-opacity:1; fill:none" points="2352.76,1380.58 2352.76,47.2441 "/>
<polyline clip-path="url(#clip930)" style="stroke:#000000; stroke-linecap:round; stroke-linejoin:round; stroke-width:4; stroke-opacity:1; fill:none" points="287.853,1327.81 306.751,1327.81 "/>
<polyline clip-path="url(#clip930)" style="stroke:#000000; stroke-linecap:round; stroke-linejoin:round; stroke-width:4; stroke-opacity:1; fill:none" points="287.853,1157.37 306.751,1157.37 "/>
<polyline clip-path="url(#clip930)" style="stroke:#000000; stroke-linecap:round; stroke-linejoin:round; stroke-width:4; stroke-opacity:1; fill:none" points="287.853,986.935 306.751,986.935 "/>
<polyline clip-path="url(#clip930)" style="stroke:#000000; stroke-linecap:round; stroke-linejoin:round; stroke-width:4; stroke-opacity:1; fill:none" points="287.853,816.496 306.751,816.496 "/>
<polyline clip-path="url(#clip930)" style="stroke:#000000; stroke-linecap:round; stroke-linejoin:round; stroke-width:4; stroke-opacity:1; fill:none" points="287.853,646.057 306.751,646.057 "/>
<polyline clip-path="url(#clip930)" style="stroke:#000000; stroke-linecap:round; stroke-linejoin:round; stroke-width:4; stroke-opacity:1; fill:none" points="287.853,475.618 306.751,475.618 "/>
<polyline clip-path="url(#clip930)" style="stroke:#000000; stroke-linecap:round; stroke-linejoin:round; stroke-width:4; stroke-opacity:1; fill:none" points="287.853,305.179 306.751,305.179 "/>
<polyline clip-path="url(#clip930)" style="stroke:#000000; stroke-linecap:round; stroke-linejoin:round; stroke-width:4; stroke-opacity:1; fill:none" points="287.853,134.739 306.751,134.739 "/>
<polyline clip-path="url(#clip930)" style="stroke:#000000; stroke-linecap:round; stroke-linejoin:round; stroke-width:4; stroke-opacity:1; fill:none" points="2352.76,1327.81 2333.86,1327.81 "/>
<polyline clip-path="url(#clip930)" style="stroke:#000000; stroke-linecap:round; stroke-linejoin:round; stroke-width:4; stroke-opacity:1; fill:none" points="2352.76,1157.37 2333.86,1157.37 "/>
<polyline clip-path="url(#clip930)" style="stroke:#000000; stroke-linecap:round; stroke-linejoin:round; stroke-width:4; stroke-opacity:1; fill:none" points="2352.76,986.935 2333.86,986.935 "/>
<polyline clip-path="url(#clip930)" style="stroke:#000000; stroke-linecap:round; stroke-linejoin:round; stroke-width:4; stroke-opacity:1; fill:none" points="2352.76,816.496 2333.86,816.496 "/>
<polyline clip-path="url(#clip930)" style="stroke:#000000; stroke-linecap:round; stroke-linejoin:round; stroke-width:4; stroke-opacity:1; fill:none" points="2352.76,646.057 2333.86,646.057 "/>
<polyline clip-path="url(#clip930)" style="stroke:#000000; stroke-linecap:round; stroke-linejoin:round; stroke-width:4; stroke-opacity:1; fill:none" points="2352.76,475.618 2333.86,475.618 "/>
<polyline clip-path="url(#clip930)" style="stroke:#000000; stroke-linecap:round; stroke-linejoin:round; stroke-width:4; stroke-opacity:1; fill:none" points="2352.76,305.179 2333.86,305.179 "/>
<polyline clip-path="url(#clip930)" style="stroke:#000000; stroke-linecap:round; stroke-linejoin:round; stroke-width:4; stroke-opacity:1; fill:none" points="2352.76,134.739 2333.86,134.739 "/>
<path clip-path="url(#clip930)" d="M126.718 1347.61 L134.357 1347.61 L134.357 1321.24 L126.047 1322.91 L126.047 1318.65 L134.311 1316.98 L138.986 1316.98 L138.986 1347.61 L146.625 1347.61 L146.625 1351.54 L126.718 1351.54 L126.718 1347.61 Z" fill="#000000" fill-rule="nonzero" fill-opacity="1" /><path clip-path="url(#clip930)" d="M166.07 1320.06 Q162.459 1320.06 160.63 1323.62 Q158.824 1327.17 158.824 1334.3 Q158.824 1341.4 160.63 1344.97 Q162.459 1348.51 166.07 1348.51 Q169.704 1348.51 171.509 1344.97 Q173.338 1341.4 173.338 1334.3 Q173.338 1327.17 171.509 1323.62 Q169.704 1320.06 166.07 1320.06 M166.07 1316.36 Q171.88 1316.36 174.935 1320.96 Q178.014 1325.55 178.014 1334.3 Q178.014 1343.02 174.935 1347.63 Q171.88 1352.21 166.07 1352.21 Q160.26 1352.21 157.181 1347.63 Q154.125 1343.02 154.125 1334.3 Q154.125 1325.55 157.181 1320.96 Q160.26 1316.36 166.07 1316.36 Z" fill="#000000" fill-rule="nonzero" fill-opacity="1" /><path clip-path="url(#clip930)" d="M178.014 1310.46 L202.126 1310.46 L202.126 1313.65 L178.014 1313.65 L178.014 1310.46 Z" fill="#000000" fill-rule="nonzero" fill-opacity="1" /><path clip-path="url(#clip930)" d="M210.984 1320.93 L217.191 1320.93 L217.191 1299.51 L210.439 1300.86 L210.439 1297.4 L217.153 1296.05 L220.952 1296.05 L220.952 1320.93 L227.159 1320.93 L227.159 1324.13 L210.984 1324.13 L210.984 1320.93 Z" fill="#000000" fill-rule="nonzero" fill-opacity="1" /><path clip-path="url(#clip930)" d="M234.87 1296.05 L249.785 1296.05 L249.785 1299.25 L238.349 1299.25 L238.349 1306.13 Q239.177 1305.85 240.004 1305.72 Q240.832 1305.57 241.66 1305.57 Q246.362 1305.57 249.107 1308.14 Q251.853 1310.72 251.853 1315.12 Q251.853 1319.65 249.032 1322.17 Q246.211 1324.68 241.077 1324.68 Q239.309 1324.68 237.465 1324.37 Q235.641 1324.07 233.685 1323.47 L233.685 1319.65 Q235.378 1320.58 237.183 1321.03 Q238.989 1321.48 241.001 1321.48 Q244.255 1321.48 246.155 1319.77 Q248.054 1318.06 248.054 1315.12 Q248.054 1312.19 246.155 1310.48 Q244.255 1308.76 241.001 1308.76 Q239.478 1308.76 237.954 1309.1 Q236.45 1309.44 234.87 1310.16 L234.87 1296.05 Z" fill="#000000" fill-rule="nonzero" fill-opacity="1" /><path clip-path="url(#clip930)" d="M126.436 1177.17 L134.075 1177.17 L134.075 1150.8 L125.765 1152.47 L125.765 1148.21 L134.028 1146.54 L138.704 1146.54 L138.704 1177.17 L146.343 1177.17 L146.343 1181.1 L126.436 1181.1 L126.436 1177.17 Z" fill="#000000" fill-rule="nonzero" fill-opacity="1" /><path clip-path="url(#clip930)" d="M165.788 1149.62 Q162.176 1149.62 160.348 1153.18 Q158.542 1156.73 158.542 1163.86 Q158.542 1170.96 160.348 1174.53 Q162.176 1178.07 165.788 1178.07 Q169.422 1178.07 171.227 1174.53 Q173.056 1170.96 173.056 1163.86 Q173.056 1156.73 171.227 1153.18 Q169.422 1149.62 165.788 1149.62 M165.788 1145.92 Q171.598 1145.92 174.653 1150.52 Q177.732 1155.11 177.732 1163.86 Q177.732 1172.58 174.653 1177.19 Q171.598 1181.77 165.788 1181.77 Q159.977 1181.77 156.899 1177.19 Q153.843 1172.58 153.843 1163.86 Q153.843 1155.11 156.899 1150.52 Q159.977 1145.92 165.788 1145.92 Z" fill="#000000" fill-rule="nonzero" fill-opacity="1" /><path clip-path="url(#clip930)" d="M177.732 1140.02 L201.844 1140.02 L201.844 1143.22 L177.732 1143.22 L177.732 1140.02 Z" fill="#000000" fill-rule="nonzero" fill-opacity="1" /><path clip-path="url(#clip930)" d="M210.702 1150.49 L216.909 1150.49 L216.909 1129.07 L210.157 1130.43 L210.157 1126.97 L216.871 1125.61 L220.67 1125.61 L220.67 1150.49 L226.877 1150.49 L226.877 1153.69 L210.702 1153.69 L210.702 1150.49 Z" fill="#000000" fill-rule="nonzero" fill-opacity="1" /><path clip-path="url(#clip930)" d="M246.061 1138.55 Q248.788 1139.13 250.311 1140.98 Q251.853 1142.82 251.853 1145.53 Q251.853 1149.68 248.995 1151.96 Q246.136 1154.24 240.87 1154.24 Q239.102 1154.24 237.221 1153.88 Q235.359 1153.54 233.365 1152.84 L233.365 1149.18 Q234.945 1150.1 236.826 1150.57 Q238.707 1151.04 240.757 1151.04 Q244.33 1151.04 246.192 1149.63 Q248.073 1148.22 248.073 1145.53 Q248.073 1143.05 246.324 1141.65 Q244.594 1140.24 241.49 1140.24 L238.218 1140.24 L238.218 1137.12 L241.641 1137.12 Q244.443 1137.12 245.929 1136.01 Q247.415 1134.88 247.415 1132.78 Q247.415 1130.61 245.873 1129.47 Q244.349 1128.3 241.49 1128.3 Q239.929 1128.3 238.143 1128.64 Q236.356 1128.98 234.212 1129.69 L234.212 1126.31 Q236.375 1125.71 238.255 1125.4 Q240.155 1125.1 241.829 1125.1 Q246.155 1125.1 248.675 1127.08 Q251.195 1129.03 251.195 1132.38 Q251.195 1134.71 249.86 1136.33 Q248.524 1137.93 246.061 1138.55 Z" fill="#000000" fill-rule="nonzero" fill-opacity="1" /><path clip-path="url(#clip930)" d="M126.906 1006.73 L134.545 1006.73 L134.545 980.362 L126.235 982.028 L126.235 977.769 L134.499 976.102 L139.175 976.102 L139.175 1006.73 L146.813 1006.73 L146.813 1010.66 L126.906 1010.66 L126.906 1006.73 Z" fill="#000000" fill-rule="nonzero" fill-opacity="1" /><path clip-path="url(#clip930)" d="M166.258 979.181 Q162.647 979.181 160.818 982.746 Q159.012 986.288 159.012 993.417 Q159.012 1000.52 160.818 1004.09 Q162.647 1007.63 166.258 1007.63 Q169.892 1007.63 171.698 1004.09 Q173.526 1000.52 173.526 993.417 Q173.526 986.288 171.698 982.746 Q169.892 979.181 166.258 979.181 M166.258 975.477 Q172.068 975.477 175.123 980.084 Q178.202 984.667 178.202 993.417 Q178.202 1002.14 175.123 1006.75 Q172.068 1011.33 166.258 1011.33 Q160.448 1011.33 157.369 1006.75 Q154.313 1002.14 154.313 993.417 Q154.313 984.667 157.369 980.084 Q160.448 975.477 166.258 975.477 Z" fill="#000000" fill-rule="nonzero" fill-opacity="1" /><path clip-path="url(#clip930)" d="M178.202 969.579 L202.314 969.579 L202.314 972.776 L178.202 972.776 L178.202 969.579 Z" fill="#000000" fill-rule="nonzero" fill-opacity="1" /><path clip-path="url(#clip930)" d="M211.172 980.055 L217.379 980.055 L217.379 958.633 L210.627 959.987 L210.627 956.526 L217.341 955.172 L221.14 955.172 L221.14 980.055 L227.347 980.055 L227.347 983.252 L211.172 983.252 L211.172 980.055 Z" fill="#000000" fill-rule="nonzero" fill-opacity="1" /><path clip-path="url(#clip930)" d="M235.679 980.055 L241.885 980.055 L241.885 958.633 L235.133 959.987 L235.133 956.526 L241.848 955.172 L245.647 955.172 L245.647 980.055 L251.853 980.055 L251.853 983.252 L235.679 983.252 L235.679 980.055 Z" fill="#000000" fill-rule="nonzero" fill-opacity="1" /><path clip-path="url(#clip930)" d="M150.566 836.288 L158.205 836.288 L158.205 809.923 L149.895 811.589 L149.895 807.33 L158.159 805.663 L162.835 805.663 L162.835 836.288 L170.474 836.288 L170.474 840.223 L150.566 840.223 L150.566 836.288 Z" fill="#000000" fill-rule="nonzero" fill-opacity="1" /><path clip-path="url(#clip930)" d="M189.918 808.742 Q186.307 808.742 184.478 812.307 Q182.673 815.848 182.673 822.978 Q182.673 830.084 184.478 833.649 Q186.307 837.191 189.918 837.191 Q193.552 837.191 195.358 833.649 Q197.186 830.084 197.186 822.978 Q197.186 815.848 195.358 812.307 Q193.552 808.742 189.918 808.742 M189.918 805.038 Q195.728 805.038 198.784 809.645 Q201.862 814.228 201.862 822.978 Q201.862 831.705 198.784 836.311 Q195.728 840.895 189.918 840.895 Q184.108 840.895 181.029 836.311 Q177.974 831.705 177.974 822.978 Q177.974 814.228 181.029 809.645 Q184.108 805.038 189.918 805.038 Z" fill="#000000" fill-rule="nonzero" fill-opacity="1" /><path clip-path="url(#clip930)" d="M201.862 799.14 L225.974 799.14 L225.974 802.337 L201.862 802.337 L201.862 799.14 Z" fill="#000000" fill-rule="nonzero" fill-opacity="1" /><path clip-path="url(#clip930)" d="M234.287 812.23 L234.287 808.769 Q235.716 809.446 237.183 809.804 Q238.65 810.161 240.061 810.161 Q243.822 810.161 245.797 807.641 Q247.791 805.102 248.073 799.948 Q246.982 801.566 245.308 802.431 Q243.634 803.296 241.603 803.296 Q237.39 803.296 234.926 800.757 Q232.481 798.199 232.481 793.779 Q232.481 789.454 235.039 786.839 Q237.597 784.225 241.848 784.225 Q246.719 784.225 249.277 787.968 Q251.853 791.692 251.853 798.801 Q251.853 805.44 248.694 809.409 Q245.553 813.358 240.23 813.358 Q238.801 813.358 237.334 813.076 Q235.867 812.794 234.287 812.23 M241.848 800.325 Q244.405 800.325 245.891 798.575 Q247.396 796.826 247.396 793.779 Q247.396 790.751 245.891 789.002 Q244.405 787.234 241.848 787.234 Q239.29 787.234 237.785 789.002 Q236.299 790.751 236.299 793.779 Q236.299 796.826 237.785 798.575 Q239.29 800.325 241.848 800.325 Z" fill="#000000" fill-rule="nonzero" fill-opacity="1" /><path clip-path="url(#clip930)" d="M151.149 665.849 L158.788 665.849 L158.788 639.483 L150.478 641.15 L150.478 636.891 L158.742 635.224 L163.418 635.224 L163.418 665.849 L171.057 665.849 L171.057 669.784 L151.149 669.784 L151.149 665.849 Z" fill="#000000" fill-rule="nonzero" fill-opacity="1" /><path clip-path="url(#clip930)" d="M190.501 638.303 Q186.89 638.303 185.061 641.868 Q183.256 645.409 183.256 652.539 Q183.256 659.645 185.061 663.21 Q186.89 666.752 190.501 666.752 Q194.135 666.752 195.941 663.21 Q197.769 659.645 197.769 652.539 Q197.769 645.409 195.941 641.868 Q194.135 638.303 190.501 638.303 M190.501 634.599 Q196.311 634.599 199.367 639.206 Q202.445 643.789 202.445 652.539 Q202.445 661.266 199.367 665.872 Q196.311 670.456 190.501 670.456 Q184.691 670.456 181.612 665.872 Q178.557 661.266 178.557 652.539 Q178.557 643.789 181.612 639.206 Q184.691 634.599 190.501 634.599 Z" fill="#000000" fill-rule="nonzero" fill-opacity="1" /><path clip-path="url(#clip930)" d="M202.445 628.701 L226.557 628.701 L226.557 631.898 L202.445 631.898 L202.445 628.701 Z" fill="#000000" fill-rule="nonzero" fill-opacity="1" /><path clip-path="url(#clip930)" d="M233.798 614.294 L251.853 614.294 L251.853 615.911 L241.66 642.374 L237.691 642.374 L247.283 617.491 L233.798 617.491 L233.798 614.294 Z" fill="#000000" fill-rule="nonzero" fill-opacity="1" /><path clip-path="url(#clip930)" d="M151.225 495.41 L158.863 495.41 L158.863 469.044 L150.553 470.711 L150.553 466.452 L158.817 464.785 L163.493 464.785 L163.493 495.41 L171.132 495.41 L171.132 499.345 L151.225 499.345 L151.225 495.41 Z" fill="#000000" fill-rule="nonzero" fill-opacity="1" /><path clip-path="url(#clip930)" d="M190.576 467.864 Q186.965 467.864 185.136 471.429 Q183.331 474.97 183.331 482.1 Q183.331 489.206 185.136 492.771 Q186.965 496.313 190.576 496.313 Q194.21 496.313 196.016 492.771 Q197.845 489.206 197.845 482.1 Q197.845 474.97 196.016 471.429 Q194.21 467.864 190.576 467.864 M190.576 464.16 Q196.386 464.16 199.442 468.767 Q202.521 473.35 202.521 482.1 Q202.521 490.827 199.442 495.433 Q196.386 500.016 190.576 500.016 Q184.766 500.016 181.687 495.433 Q178.632 490.827 178.632 482.1 Q178.632 473.35 181.687 468.767 Q184.766 464.16 190.576 464.16 Z" fill="#000000" fill-rule="nonzero" fill-opacity="1" /><path clip-path="url(#clip930)" d="M202.521 458.262 L226.632 458.262 L226.632 461.459 L202.521 461.459 L202.521 458.262 Z" fill="#000000" fill-rule="nonzero" fill-opacity="1" /><path clip-path="url(#clip930)" d="M234.87 443.855 L249.785 443.855 L249.785 447.052 L238.349 447.052 L238.349 453.936 Q239.177 453.654 240.004 453.522 Q240.832 453.371 241.66 453.371 Q246.362 453.371 249.107 455.948 Q251.853 458.525 251.853 462.926 Q251.853 467.459 249.032 469.979 Q246.211 472.48 241.077 472.48 Q239.309 472.48 237.465 472.179 Q235.641 471.878 233.685 471.276 L233.685 467.459 Q235.378 468.38 237.183 468.831 Q238.989 469.283 241.001 469.283 Q244.255 469.283 246.155 467.571 Q248.054 465.86 248.054 462.926 Q248.054 459.992 246.155 458.28 Q244.255 456.569 241.001 456.569 Q239.478 456.569 237.954 456.907 Q236.45 457.246 234.87 457.961 L234.87 443.855 Z" fill="#000000" fill-rule="nonzero" fill-opacity="1" /><path clip-path="url(#clip930)" d="M150.942 324.971 L158.581 324.971 L158.581 298.605 L150.271 300.272 L150.271 296.013 L158.535 294.346 L163.211 294.346 L163.211 324.971 L170.85 324.971 L170.85 328.906 L150.942 328.906 L150.942 324.971 Z" fill="#000000" fill-rule="nonzero" fill-opacity="1" /><path clip-path="url(#clip930)" d="M190.294 297.425 Q186.683 297.425 184.854 300.99 Q183.049 304.531 183.049 311.661 Q183.049 318.767 184.854 322.332 Q186.683 325.874 190.294 325.874 Q193.928 325.874 195.734 322.332 Q197.563 318.767 197.563 311.661 Q197.563 304.531 195.734 300.99 Q193.928 297.425 190.294 297.425 M190.294 293.721 Q196.104 293.721 199.16 298.328 Q202.238 302.911 202.238 311.661 Q202.238 320.388 199.16 324.994 Q196.104 329.577 190.294 329.577 Q184.484 329.577 181.405 324.994 Q178.35 320.388 178.35 311.661 Q178.35 302.911 181.405 298.328 Q184.484 293.721 190.294 293.721 Z" fill="#000000" fill-rule="nonzero" fill-opacity="1" /><path clip-path="url(#clip930)" d="M202.238 287.822 L226.35 287.822 L226.35 291.02 L202.238 291.02 L202.238 287.822 Z" fill="#000000" fill-rule="nonzero" fill-opacity="1" /><path clip-path="url(#clip930)" d="M246.061 286.355 Q248.788 286.938 250.311 288.782 Q251.853 290.625 251.853 293.333 Q251.853 297.49 248.995 299.765 Q246.136 302.041 240.87 302.041 Q239.102 302.041 237.221 301.684 Q235.359 301.345 233.365 300.649 L233.365 296.982 Q234.945 297.903 236.826 298.374 Q238.707 298.844 240.757 298.844 Q244.33 298.844 246.192 297.433 Q248.073 296.023 248.073 293.333 Q248.073 290.851 246.324 289.459 Q244.594 288.048 241.49 288.048 L238.218 288.048 L238.218 284.926 L241.641 284.926 Q244.443 284.926 245.929 283.816 Q247.415 282.688 247.415 280.581 Q247.415 278.419 245.873 277.271 Q244.349 276.105 241.49 276.105 Q239.929 276.105 238.143 276.444 Q236.356 276.782 234.212 277.497 L234.212 274.112 Q236.375 273.51 238.255 273.209 Q240.155 272.908 241.829 272.908 Q246.155 272.908 248.675 274.883 Q251.195 276.839 251.195 280.186 Q251.195 282.519 249.86 284.136 Q248.524 285.735 246.061 286.355 Z" fill="#000000" fill-rule="nonzero" fill-opacity="1" /><path clip-path="url(#clip930)" d="M151.413 154.532 L159.051 154.532 L159.051 128.166 L150.741 129.833 L150.741 125.574 L159.005 123.907 L163.681 123.907 L163.681 154.532 L171.32 154.532 L171.32 158.467 L151.413 158.467 L151.413 154.532 Z" fill="#000000" fill-rule="nonzero" fill-opacity="1" /><path clip-path="url(#clip930)" d="M190.764 126.986 Q187.153 126.986 185.325 130.551 Q183.519 134.092 183.519 141.222 Q183.519 148.328 185.325 151.893 Q187.153 155.435 190.764 155.435 Q194.399 155.435 196.204 151.893 Q198.033 148.328 198.033 141.222 Q198.033 134.092 196.204 130.551 Q194.399 126.986 190.764 126.986 M190.764 123.282 Q196.574 123.282 199.63 127.888 Q202.709 132.472 202.709 141.222 Q202.709 149.949 199.63 154.555 Q196.574 159.138 190.764 159.138 Q184.954 159.138 181.875 154.555 Q178.82 149.949 178.82 141.222 Q178.82 132.472 181.875 127.888 Q184.954 123.282 190.764 123.282 Z" fill="#000000" fill-rule="nonzero" fill-opacity="1" /><path clip-path="url(#clip930)" d="M202.709 117.383 L226.82 117.383 L226.82 120.581 L202.709 120.581 L202.709 117.383 Z" fill="#000000" fill-rule="nonzero" fill-opacity="1" /><path clip-path="url(#clip930)" d="M235.679 127.859 L241.885 127.859 L241.885 106.437 L235.133 107.791 L235.133 104.331 L241.848 102.977 L245.647 102.977 L245.647 127.859 L251.853 127.859 L251.853 131.057 L235.679 131.057 L235.679 127.859 Z" fill="#000000" fill-rule="nonzero" fill-opacity="1" /><path clip-path="url(#clip930)" d="M42.6931 1124.7 L40.6319 1124.7 Q40.6319 1116.78 36.413 1112.69 Q36.413 1111.56 36.6706 1111.37 Q36.9282 1111.18 38.1199 1111.18 L75.1244 1111.18 Q77.089 1111.18 77.7009 1110.21 Q78.3128 1109.25 78.3128 1105.03 L78.3128 1102.93 L80.3417 1102.93 Q80.1485 1105.25 80.1485 1113.63 Q80.1485 1122 80.3417 1124.29 L78.3128 1124.29 L78.3128 1122.19 Q78.3128 1118.04 77.7331 1117.04 Q77.1212 1116.04 75.1244 1116.04 L40.954 1116.04 Q42.6931 1119.49 42.6931 1124.7 Z" fill="#000000" fill-rule="nonzero" fill-opacity="1" /><path clip-path="url(#clip930)" d="M62.9184 1030.2 Q63.3048 1029.81 63.8523 1029.81 Q64.3998 1029.81 64.7863 1030.2 Q65.1728 1030.58 65.1728 1031.13 L65.1728 1072.42 Q65.1728 1072.96 64.7863 1073.35 Q64.3998 1073.74 63.8523 1073.74 Q63.3048 1073.74 62.9184 1073.35 Q62.5319 1072.96 62.5319 1072.42 L62.5319 1031.13 Q62.5319 1030.58 62.9184 1030.2 Z" fill="#000000" fill-rule="nonzero" fill-opacity="1" /><path clip-path="url(#clip930)" d="M94.8022 1004.62 L33.3856 1004.62 Q30.938 1004.62 30.938 1003.3 Q30.938 1001.98 32.9025 1001.98 L94.3191 1001.98 Q96.7667 1001.98 96.7667 1003.3 Q96.7667 1004.62 94.8022 1004.62 Z" fill="#000000" fill-rule="nonzero" fill-opacity="1" /><path clip-path="url(#clip930)" d="M95.5107 962.484 Q96.0582 962.484 96.4447 962.87 Q96.8311 963.257 96.8311 963.804 Q96.8311 964.738 95.9616 965.06 L64.3032 977.331 Q64.1744 977.395 63.8523 977.395 Q63.5303 977.395 63.4015 977.331 L31.7431 965.06 Q30.8735 964.738 30.8735 963.804 Q30.8735 963.257 31.26 962.87 Q31.6465 962.484 32.194 962.484 Q32.516 962.484 32.6449 962.548 L63.8523 974.69 L95.0598 962.548 Q95.1886 962.484 95.5107 962.484 Z" fill="#000000" fill-rule="nonzero" fill-opacity="1" /><path clip-path="url(#clip930)" d="M37.2825 904.178 L48.6834 905.499 Q49.714 905.595 50.036 905.756 Q50.3259 905.917 50.3259 906.433 Q50.3259 906.819 50.1004 907.045 Q49.8428 907.238 49.5529 907.238 Q49.3919 907.238 48.9732 907.206 Q48.5546 907.174 48.3613 907.174 Q46.3646 906.884 44.8509 906.884 Q42.049 906.884 40.5353 907.721 Q38.9894 908.558 38.2809 910.716 Q37.5402 912.874 37.5402 916.932 L37.5402 926.207 Q37.5402 928.333 37.9266 928.848 Q38.3131 929.331 40.1166 929.782 L55.9941 933.743 L55.9941 927.528 Q55.9941 925.209 55.7043 923.824 Q55.4144 922.407 54.6093 921.473 Q53.7719 920.507 52.6447 919.991 Q51.5175 919.444 49.4885 918.896 Q48.8122 918.735 48.5546 918.574 Q48.2969 918.381 48.2969 917.962 Q48.2969 917.64 48.5224 917.415 Q48.7156 917.19 49.0054 917.19 L64.4321 920.958 Q65.205 921.151 65.4948 921.344 Q65.7525 921.537 65.7525 921.924 Q65.7525 922.342 65.527 922.568 Q65.3016 922.793 65.044 922.793 Q64.7863 922.793 64.3032 922.6 Q62.2098 922.117 61.0826 922.117 Q60.4385 922.117 60.1165 922.181 Q59.7944 922.214 59.3435 922.504 Q58.8604 922.761 58.635 923.341 Q58.4096 923.921 58.2485 925.016 Q58.0553 926.111 58.0553 927.753 L58.0553 934.259 L76.0584 938.767 Q77.25 939.09 77.572 939.09 Q77.9263 939.09 78.0551 938.929 Q78.1517 938.735 78.2162 938.22 Q78.3128 937.64 78.3128 936.771 L78.3128 927.141 Q78.3128 925.016 78.1195 923.309 Q77.9263 921.602 77.4432 920.185 Q76.9601 918.735 76.4126 917.64 Q75.8651 916.545 74.8667 915.515 Q73.8362 914.484 72.9344 913.776 Q72.0004 913.035 70.4223 912.165 Q68.8443 911.296 67.556 910.684 Q66.2356 910.072 64.11 909.138 Q63.3371 908.88 63.3371 908.269 Q63.3371 907.914 63.5303 907.721 Q63.6913 907.528 63.8523 907.496 L64.0456 907.496 Q64.6575 907.689 64.9796 907.818 L79.2145 913.872 Q80.0197 914.227 80.1807 914.516 Q80.3417 914.806 80.3417 915.934 L80.3417 950.168 Q80.3417 950.941 80.3095 951.263 Q80.2773 951.553 80.1163 951.779 Q79.9231 952.004 79.5366 952.004 Q78.9247 952.004 78.667 951.746 Q78.3772 951.489 78.345 951.199 Q78.3128 950.909 78.3128 950.168 Q78.3128 948.558 78.2162 947.592 Q78.1195 946.626 77.9907 946.014 Q77.8297 945.37 77.3788 945.048 Q76.9279 944.693 76.5415 944.532 Q76.1228 944.371 75.1888 944.146 L40.3099 935.45 Q39.1182 935.128 38.7318 935.128 Q38.3131 935.128 38.0555 935.418 Q37.7978 935.676 37.7012 936.384 Q37.5724 937.093 37.5724 937.672 Q37.5402 938.22 37.5402 939.412 Q37.5402 940.185 37.508 940.507 Q37.4757 940.796 37.3147 941.022 Q37.1537 941.247 36.7994 941.247 Q35.8977 941.247 35.7044 940.861 Q35.479 940.442 35.479 939.283 L35.479 905.982 Q35.479 904.661 35.7688 904.372 Q36.0265 904.05 37.2825 904.178 Z" fill="#000000" fill-rule="nonzero" fill-opacity="1" /><path clip-path="url(#clip930)" d="M72.2643 897.48 L70.8214 897.48 Q70.8214 891.934 67.8682 889.071 Q67.8682 888.282 68.0485 888.146 Q68.2289 888.011 69.063 888.011 L94.9662 888.011 Q96.3414 888.011 96.7697 887.335 Q97.198 886.659 97.198 883.705 L97.198 882.24 L98.6183 882.24 Q98.483 883.863 98.483 889.725 Q98.483 895.586 98.6183 897.187 L97.198 897.187 L97.198 895.721 Q97.198 892.813 96.7922 892.114 Q96.3639 891.415 94.9662 891.415 L71.0469 891.415 Q72.2643 893.828 72.2643 897.48 Z" fill="#000000" fill-rule="nonzero" fill-opacity="1" /><path clip-path="url(#clip930)" d="M63.8523 867.575 Q52.7091 867.575 43.7237 863.42 Q39.9556 861.649 36.7994 859.169 Q33.6432 856.689 32.2584 855.047 Q30.8735 853.404 30.8735 852.953 Q30.8735 852.309 31.5177 852.277 Q31.8397 852.277 32.6449 853.147 Q43.466 863.775 63.8523 863.742 Q84.3031 863.742 94.7056 853.404 Q95.8328 852.277 96.187 852.277 Q96.8311 852.277 96.8311 852.953 Q96.8311 853.404 95.5107 854.982 Q94.1903 856.56 91.1629 859.008 Q88.1356 861.456 84.4319 863.227 Q75.4465 867.575 63.8523 867.575 Z" fill="#000000" fill-rule="nonzero" fill-opacity="1" /><path clip-path="url(#clip930)" d="M36.0265 799.187 Q37.3469 799.187 37.3469 800.282 Q37.4113 802.215 37.7978 803.535 Q38.1521 804.856 38.8606 805.629 Q39.5691 806.369 40.3421 806.788 Q41.0828 807.174 42.21 807.432 L65.6237 813.294 Q72.2259 814.968 77.0245 820.379 Q81.791 825.789 81.791 831.941 Q81.791 835.451 80.3417 838.382 Q78.8925 841.28 75.9617 843.084 Q73.031 844.887 69.1341 844.887 Q67.2662 844.887 65.3016 844.404 L49.0054 840.411 L43.2084 838.929 Q38.925 837.834 38.5385 837.834 Q37.9266 837.834 37.7656 838.221 Q37.5724 838.575 37.4757 839.606 L37.3469 842.118 Q37.3469 842.891 37.3147 843.213 Q37.2825 843.503 37.1215 843.728 Q36.9605 843.953 36.6062 843.953 Q36.1553 843.953 35.8655 843.857 Q35.5434 843.728 35.4468 843.503 Q35.3502 843.277 35.318 843.116 Q35.2857 842.955 35.2857 842.697 L35.479 834.195 L35.2857 825.757 Q35.2857 824.823 36.0265 824.823 Q36.9605 824.823 37.1537 825.242 Q37.3469 825.661 37.3469 827.078 Q37.3469 829.493 37.669 830.588 Q37.9588 831.651 38.4741 831.973 Q38.9572 832.263 40.3743 832.617 L66.0423 839.026 Q67.3306 839.348 68.6188 839.541 Q69.8748 839.702 70.519 839.702 L71.1631 839.735 Q75.2532 839.735 77.5076 837.48 Q79.762 835.193 79.762 831.683 Q79.762 826.53 75.6719 821.731 Q71.5818 816.901 65.1728 815.258 L41.6303 809.332 Q41.0506 809.139 40.2454 809.139 Q38.9572 809.139 38.1843 810.105 Q37.3791 811.039 37.3469 813.616 Q37.3469 814.807 36.6062 814.807 Q35.9943 814.807 35.7044 814.582 Q35.3824 814.324 35.3502 814.131 Q35.2857 813.905 35.2857 813.616 Q35.2857 812.521 35.3824 810.202 Q35.479 807.883 35.479 806.756 Q35.479 805.629 35.3824 803.374 Q35.2857 801.12 35.2857 800.025 Q35.2857 799.638 35.479 799.445 Q35.64 799.22 35.8332 799.187 L36.0265 799.187 Z" fill="#000000" fill-rule="nonzero" fill-opacity="1" /><path clip-path="url(#clip930)" d="M96.187 794.221 Q95.865 794.221 95.0598 793.384 Q84.2387 782.756 63.8523 782.756 Q43.4016 782.756 33.0635 792.965 Q31.8719 794.221 31.5177 794.221 Q30.8735 794.221 30.8735 793.577 Q30.8735 793.126 32.194 791.548 Q33.5144 789.938 36.5418 787.523 Q39.5691 785.075 43.2728 783.271 Q52.2582 778.924 63.8523 778.924 Q74.9956 778.924 83.981 783.078 Q87.7491 784.849 90.9053 787.329 Q94.0614 789.809 95.4463 791.452 Q96.8311 793.094 96.8311 793.577 Q96.8311 794.221 96.187 794.221 Z" fill="#000000" fill-rule="nonzero" fill-opacity="1" /><path clip-path="url(#clip930)" d="M94.8022 765.198 L33.3856 765.198 Q30.938 765.198 30.938 763.878 Q30.938 762.557 32.9025 762.557 L94.3191 762.557 Q96.7667 762.557 96.7667 763.878 Q96.7667 765.198 94.8022 765.198 Z" fill="#000000" fill-rule="nonzero" fill-opacity="1" /><path clip-path="url(#clip930)" d="M34.9637 694.237 Q35.7044 695.783 36.413 696.685 Q37.4757 698.166 39.5047 699.519 Q41.3727 700.839 44.2068 702.16 Q52.9346 706.024 64.3676 708.826 Q69.1019 710.018 72.097 710.082 Q75.221 710.082 76.5092 709.084 Q77.25 708.633 77.25 707.506 Q77.25 706.218 76.316 705.058 Q75.3498 703.802 72.9022 701.902 L73.804 700.775 Q77.1212 703.158 78.6992 705.123 Q80.9215 707.989 80.9215 710.726 Q80.9215 712.82 79.6976 713.625 Q77.7009 715.203 73.2887 715.074 L75.994 718.327 Q81.4045 725.155 81.4045 731.306 Q81.4045 734.881 78.5704 736.974 Q77.6365 737.715 75.5109 737.844 Q73.5463 737.844 70.7766 737.167 Q65.8169 735.911 58.3773 732.562 Q50.3259 728.923 45.5272 727.763 Q44.0457 727.409 43.2084 727.28 Q42.371 727.119 41.276 727.28 Q40.181 727.409 39.3759 728.021 Q38.9572 728.246 38.6674 728.858 Q38.3775 729.438 38.3775 730.05 Q38.3775 731.081 39.3115 732.433 Q41.0828 734.527 43.7881 735.203 Q44.7865 735.461 47.9426 735.944 L48.5546 737.973 Q45.5272 737.586 43.4016 737.103 Q39.2149 736.072 36.6062 732.82 Q34.706 730.469 34.706 727.28 Q34.706 724.285 36.2841 723.126 Q37.1859 722.417 39.5691 722.288 Q41.9846 722.288 44.5932 722.932 Q49.5851 724.221 58.2485 728.15 Q64.5931 731.081 67.8137 731.853 Q70.8088 732.594 73.3531 732.498 Q75.4787 732.498 76.9279 731.564 Q78.5704 730.308 78.5704 727.828 Q78.5704 724.092 74.5447 719.1 Q72.0326 716.073 70.7122 714.688 Q59.7622 712.015 38.7318 704.543 Q35.8332 699.487 34.223 695.171 L34.9637 694.237 Z" fill="#000000" fill-rule="nonzero" fill-opacity="1" /><path clip-path="url(#clip930)" d="M94.8022 689.391 L33.3856 689.391 Q30.938 689.391 30.938 688.071 Q30.938 686.75 32.9025 686.75 L94.3191 686.75 Q96.7667 686.75 96.7667 688.071 Q96.7667 689.391 94.8022 689.391 Z" fill="#000000" fill-rule="nonzero" fill-opacity="1" /><path clip-path="url(#clip930)" d="M37.2825 614.34 L48.6834 615.661 Q49.714 615.757 50.036 615.918 Q50.3259 616.079 50.3259 616.595 Q50.3259 616.981 50.1004 617.206 Q49.8428 617.4 49.5529 617.4 Q49.3919 617.4 48.9732 617.367 Q48.5546 617.335 48.3613 617.335 Q46.3646 617.045 44.8509 617.045 Q42.049 617.045 40.5353 617.883 Q38.9894 618.72 38.2809 620.878 Q37.5402 623.036 37.5402 627.094 L37.5402 636.369 Q37.5402 638.495 37.9266 639.01 Q38.3131 639.493 40.1166 639.944 L55.9941 643.905 L55.9941 637.689 Q55.9941 635.371 55.7043 633.986 Q55.4144 632.569 54.6093 631.635 Q53.7719 630.668 52.6447 630.153 Q51.5175 629.606 49.4885 629.058 Q48.8122 628.897 48.5546 628.736 Q48.2969 628.543 48.2969 628.124 Q48.2969 627.802 48.5224 627.577 Q48.7156 627.351 49.0054 627.351 L64.4321 631.119 Q65.205 631.313 65.4948 631.506 Q65.7525 631.699 65.7525 632.086 Q65.7525 632.504 65.527 632.73 Q65.3016 632.955 65.044 632.955 Q64.7863 632.955 64.3032 632.762 Q62.2098 632.279 61.0826 632.279 Q60.4385 632.279 60.1165 632.343 Q59.7944 632.375 59.3435 632.665 Q58.8604 632.923 58.635 633.503 Q58.4096 634.082 58.2485 635.177 Q58.0553 636.272 58.0553 637.915 L58.0553 644.42 L76.0584 648.929 Q77.25 649.251 77.572 649.251 Q77.9263 649.251 78.0551 649.09 Q78.1517 648.897 78.2162 648.382 Q78.3128 647.802 78.3128 646.932 L78.3128 637.303 Q78.3128 635.177 78.1195 633.47 Q77.9263 631.763 77.4432 630.346 Q76.9601 628.897 76.4126 627.802 Q75.8651 626.707 74.8667 625.677 Q73.8362 624.646 72.9344 623.937 Q72.0004 623.197 70.4223 622.327 Q68.8443 621.458 67.556 620.846 Q66.2356 620.234 64.11 619.3 Q63.3371 619.042 63.3371 618.43 Q63.3371 618.076 63.5303 617.883 Q63.6913 617.69 63.8523 617.657 L64.0456 617.657 Q64.6575 617.851 64.9796 617.979 L79.2145 624.034 Q80.0197 624.388 80.1807 624.678 Q80.3417 624.968 80.3417 626.095 L80.3417 660.33 Q80.3417 661.103 80.3095 661.425 Q80.2773 661.715 80.1163 661.94 Q79.9231 662.166 79.5366 662.166 Q78.9247 662.166 78.667 661.908 Q78.3772 661.651 78.345 661.361 Q78.3128 661.071 78.3128 660.33 Q78.3128 658.72 78.2162 657.754 Q78.1195 656.787 77.9907 656.176 Q77.8297 655.531 77.3788 655.209 Q76.9279 654.855 76.5415 654.694 Q76.1228 654.533 75.1888 654.308 L40.3099 645.612 Q39.1182 645.29 38.7318 645.29 Q38.3131 645.29 38.0555 645.58 Q37.7978 645.837 37.7012 646.546 Q37.5724 647.255 37.5724 647.834 Q37.5402 648.382 37.5402 649.573 Q37.5402 650.346 37.508 650.668 Q37.4757 650.958 37.3147 651.184 Q37.1537 651.409 36.7994 651.409 Q35.8977 651.409 35.7044 651.023 Q35.479 650.604 35.479 649.445 L35.479 616.144 Q35.479 614.823 35.7688 614.533 Q36.0265 614.211 37.2825 614.34 Z" fill="#000000" fill-rule="nonzero" fill-opacity="1" /><path clip-path="url(#clip930)" d="M72.2643 607.641 L70.8214 607.641 Q70.8214 602.096 67.8682 599.233 Q67.8682 598.443 68.0485 598.308 Q68.2289 598.173 69.063 598.173 L94.9662 598.173 Q96.3414 598.173 96.7697 597.497 Q97.198 596.82 97.198 593.867 L97.198 592.402 L98.6183 592.402 Q98.483 594.025 98.483 599.886 Q98.483 605.748 98.6183 607.348 L97.198 607.348 L97.198 605.883 Q97.198 602.975 96.7922 602.276 Q96.3639 601.577 94.9662 601.577 L71.0469 601.577 Q72.2643 603.989 72.2643 607.641 Z" fill="#000000" fill-rule="nonzero" fill-opacity="1" /><path clip-path="url(#clip930)" d="M63.8523 577.737 Q52.7091 577.737 43.7237 573.582 Q39.9556 571.811 36.7994 569.331 Q33.6432 566.851 32.2584 565.209 Q30.8735 563.566 30.8735 563.115 Q30.8735 562.471 31.5177 562.439 Q31.8397 562.439 32.6449 563.308 Q43.466 573.936 63.8523 573.904 Q84.3031 573.904 94.7056 563.566 Q95.8328 562.439 96.187 562.439 Q96.8311 562.439 96.8311 563.115 Q96.8311 563.566 95.5107 565.144 Q94.1903 566.722 91.1629 569.17 Q88.1356 571.617 84.4319 573.389 Q75.4465 577.737 63.8523 577.737 Z" fill="#000000" fill-rule="nonzero" fill-opacity="1" /><path clip-path="url(#clip930)" d="M36.0265 509.349 Q37.3469 509.349 37.3469 510.444 Q37.4113 512.376 37.7978 513.697 Q38.1521 515.017 38.8606 515.79 Q39.5691 516.531 40.3421 516.95 Q41.0828 517.336 42.21 517.594 L65.6237 523.455 Q72.2259 525.13 77.0245 530.541 Q81.791 535.951 81.791 542.102 Q81.791 545.613 80.3417 548.544 Q78.8925 551.442 75.9617 553.246 Q73.031 555.049 69.1341 555.049 Q67.2662 555.049 65.3016 554.566 L49.0054 550.573 L43.2084 549.091 Q38.925 547.996 38.5385 547.996 Q37.9266 547.996 37.7656 548.383 Q37.5724 548.737 37.4757 549.767 L37.3469 552.279 Q37.3469 553.052 37.3147 553.374 Q37.2825 553.664 37.1215 553.89 Q36.9605 554.115 36.6062 554.115 Q36.1553 554.115 35.8655 554.019 Q35.5434 553.89 35.4468 553.664 Q35.3502 553.439 35.318 553.278 Q35.2857 553.117 35.2857 552.859 L35.479 544.357 L35.2857 535.919 Q35.2857 534.985 36.0265 534.985 Q36.9605 534.985 37.1537 535.404 Q37.3469 535.822 37.3469 537.239 Q37.3469 539.655 37.669 540.75 Q37.9588 541.813 38.4741 542.135 Q38.9572 542.425 40.3743 542.779 L66.0423 549.188 Q67.3306 549.51 68.6188 549.703 Q69.8748 549.864 70.519 549.864 L71.1631 549.896 Q75.2532 549.896 77.5076 547.642 Q79.762 545.355 79.762 541.845 Q79.762 536.692 75.6719 531.893 Q71.5818 527.062 65.1728 525.42 L41.6303 519.494 Q41.0506 519.301 40.2454 519.301 Q38.9572 519.301 38.1843 520.267 Q37.3791 521.201 37.3469 523.777 Q37.3469 524.969 36.6062 524.969 Q35.9943 524.969 35.7044 524.743 Q35.3824 524.486 35.3502 524.293 Q35.2857 524.067 35.2857 523.777 Q35.2857 522.682 35.3824 520.363 Q35.479 518.045 35.479 516.917 Q35.479 515.79 35.3824 513.536 Q35.2857 511.281 35.2857 510.186 Q35.2857 509.8 35.479 509.607 Q35.64 509.381 35.8332 509.349 L36.0265 509.349 Z" fill="#000000" fill-rule="nonzero" fill-opacity="1" /><path clip-path="url(#clip930)" d="M70.3257 492.152 Q69.5206 492.088 69.5206 490.832 L69.5206 450.414 Q69.5206 448.514 70.2613 448.481 Q71.0665 448.481 71.0343 450.285 L71.0343 490.381 Q71.0665 492.152 70.3257 492.152 M57.4434 492.152 Q56.6382 492.152 56.6704 490.768 L56.6704 450.478 Q56.6704 448.514 57.4434 448.481 Q58.1841 448.481 58.1841 450.156 L58.1841 490.832 Q58.1841 492.152 57.4434 492.152 Z" fill="#000000" fill-rule="nonzero" fill-opacity="1" /><path clip-path="url(#clip930)" d="M59.2469 423.036 Q49.5529 423.036 44.2712 420.588 Q36.413 417.174 36.413 409.123 Q36.413 407.416 36.896 405.644 Q37.3469 403.841 39.1182 401.586 Q40.8896 399.3 43.7881 397.915 Q49.3919 395.274 59.2469 395.274 Q68.8765 395.274 74.126 397.722 Q81.791 401.297 81.791 409.187 Q81.791 412.15 80.2773 415.177 Q78.7637 418.172 75.1244 420.073 Q69.6816 423.036 59.2469 423.036 M58.4418 417.561 Q68.3934 417.561 72.3547 416.852 Q76.6381 416.047 78.506 413.857 Q80.3417 411.635 80.3417 409.187 Q80.3417 406.546 78.3772 404.356 Q76.3804 402.134 72.097 401.458 Q67.8781 400.717 58.4418 400.749 Q49.2631 400.749 45.5916 401.393 Q41.3082 402.263 39.6013 404.582 Q37.8622 406.868 37.8622 409.187 Q37.8622 410.057 38.1199 410.991 Q38.3775 411.892 39.1182 413.213 Q39.859 414.533 41.6947 415.564 Q43.5304 416.562 46.3002 417.045 Q49.875 417.561 58.4418 417.561 Z" fill="#000000" fill-rule="nonzero" fill-opacity="1" /><path clip-path="url(#clip930)" d="M96.187 388.788 Q95.865 388.788 95.0598 387.95 Q84.2387 377.322 63.8523 377.322 Q43.4016 377.322 33.0635 387.531 Q31.8719 388.788 31.5177 388.788 Q30.8735 388.788 30.8735 388.143 Q30.8735 387.693 32.194 386.114 Q33.5144 384.504 36.5418 382.089 Q39.5691 379.641 43.2728 377.838 Q52.2582 373.49 63.8523 373.49 Q74.9956 373.49 83.981 377.644 Q87.7491 379.416 90.9053 381.895 Q94.0614 384.375 95.4463 386.018 Q96.8311 387.66 96.8311 388.143 Q96.8311 388.788 96.187 388.788 Z" fill="#000000" fill-rule="nonzero" fill-opacity="1" /><path clip-path="url(#clip930)" d="M63.4015 348.645 Q63.5303 348.581 63.8523 348.581 Q64.1744 348.581 64.3032 348.645 L95.9616 360.916 Q96.8311 361.238 96.8311 362.14 Q96.8311 362.687 96.4447 363.074 Q96.0582 363.46 95.5107 363.46 Q95.1886 363.46 95.0598 363.396 L63.8523 351.286 L32.6449 363.396 Q32.516 363.46 32.194 363.46 Q31.6465 363.46 31.26 363.074 Q30.8735 362.687 30.8735 362.14 Q30.8735 361.238 31.7431 360.916 L63.4015 348.645 Z" fill="#000000" fill-rule="nonzero" fill-opacity="1" /><path clip-path="url(#clip930)" d="M94.8022 338.069 L33.3856 338.069 Q30.938 338.069 30.938 336.748 Q30.938 335.428 32.9025 335.428 L94.3191 335.428 Q96.7667 335.428 96.7667 336.748 Q96.7667 338.069 94.8022 338.069 Z" fill="#000000" fill-rule="nonzero" fill-opacity="1" /><path clip-path="url(#clip930)" d="M40.5425 328.42 Q39.7084 328.42 39.4604 328.352 Q39.2124 328.262 38.8292 327.901 L28.9549 319.041 Q23.4992 314.194 18.7424 314.194 Q15.6538 314.194 13.4445 315.817 Q11.2352 317.418 11.2352 320.371 Q11.2352 322.4 12.4751 324.114 Q13.715 325.827 15.9244 326.616 Q15.8793 326.481 15.8793 326.007 Q15.8793 324.858 16.6007 324.226 Q17.3221 323.573 18.2915 323.573 Q19.5314 323.573 20.1401 324.384 Q20.7263 325.173 20.7263 325.962 Q20.7263 326.278 20.6586 326.706 Q20.591 327.112 19.9598 327.766 Q19.306 328.42 18.1562 328.42 Q14.9324 328.42 12.3624 325.985 Q9.79237 323.527 9.79237 319.785 Q9.79237 315.547 12.3173 312.774 Q14.8197 309.978 18.7424 309.978 Q20.1176 309.978 21.38 310.407 Q22.62 310.813 23.5894 311.376 Q24.5588 311.917 26.1143 313.405 Q27.6698 314.893 28.7745 316.088 Q29.8792 317.283 32.2238 319.965 L36.9806 324.858 L36.9806 316.539 Q36.9806 312.481 36.6199 312.165 Q35.9661 311.714 32.5168 311.151 L32.5168 309.978 L40.5425 311.286 L40.5425 328.42 Z" fill="#000000" fill-rule="nonzero" fill-opacity="1" /><circle clip-path="url(#clip932)" cx="346.294" cy="664.517" r="14.4" fill="#de8f05" fill-rule="evenodd" fill-opacity="1" stroke="#000000" stroke-opacity="1" stroke-width="3.2"/>
<circle clip-path="url(#clip932)" cx="390.374" cy="642.61" r="14.4" fill="#de8f05" fill-rule="evenodd" fill-opacity="1" stroke="#000000" stroke-opacity="1" stroke-width="3.2"/>
<circle clip-path="url(#clip932)" cx="419.025" cy="620.719" r="14.4" fill="#de8f05" fill-rule="evenodd" fill-opacity="1" stroke="#000000" stroke-opacity="1" stroke-width="3.2"/>
<circle clip-path="url(#clip932)" cx="498.937" cy="598.84" r="14.4" fill="#de8f05" fill-rule="evenodd" fill-opacity="1" stroke="#000000" stroke-opacity="1" stroke-width="3.2"/>
<circle clip-path="url(#clip932)" cx="514.377" cy="576.971" r="14.4" fill="#de8f05" fill-rule="evenodd" fill-opacity="1" stroke="#000000" stroke-opacity="1" stroke-width="3.2"/>
<circle clip-path="url(#clip932)" cx="522.452" cy="555.111" r="14.4" fill="#de8f05" fill-rule="evenodd" fill-opacity="1" stroke="#000000" stroke-opacity="1" stroke-width="3.2"/>
<circle clip-path="url(#clip932)" cx="630.804" cy="533.258" r="14.4" fill="#de8f05" fill-rule="evenodd" fill-opacity="1" stroke="#000000" stroke-opacity="1" stroke-width="3.2"/>
<circle clip-path="url(#clip932)" cx="701.946" cy="511.412" r="14.4" fill="#de8f05" fill-rule="evenodd" fill-opacity="1" stroke="#000000" stroke-opacity="1" stroke-width="3.2"/>
<circle clip-path="url(#clip932)" cx="765.901" cy="489.574" r="14.4" fill="#de8f05" fill-rule="evenodd" fill-opacity="1" stroke="#000000" stroke-opacity="1" stroke-width="3.2"/>
<circle clip-path="url(#clip932)" cx="827.36" cy="467.745" r="14.4" fill="#de8f05" fill-rule="evenodd" fill-opacity="1" stroke="#000000" stroke-opacity="1" stroke-width="3.2"/>
<circle clip-path="url(#clip932)" cx="898.89" cy="445.927" r="14.4" fill="#de8f05" fill-rule="evenodd" fill-opacity="1" stroke="#000000" stroke-opacity="1" stroke-width="3.2"/>
<circle clip-path="url(#clip932)" cx="915.83" cy="424.123" r="14.4" fill="#de8f05" fill-rule="evenodd" fill-opacity="1" stroke="#000000" stroke-opacity="1" stroke-width="3.2"/>
<circle clip-path="url(#clip932)" cx="944.61" cy="402.339" r="14.4" fill="#de8f05" fill-rule="evenodd" fill-opacity="1" stroke="#000000" stroke-opacity="1" stroke-width="3.2"/>
<circle clip-path="url(#clip932)" cx="1050.87" cy="380.58" r="14.4" fill="#de8f05" fill-rule="evenodd" fill-opacity="1" stroke="#000000" stroke-opacity="1" stroke-width="3.2"/>
<circle clip-path="url(#clip932)" cx="1131.33" cy="358.856" r="14.4" fill="#de8f05" fill-rule="evenodd" fill-opacity="1" stroke="#000000" stroke-opacity="1" stroke-width="3.2"/>
<circle clip-path="url(#clip932)" cx="1227.02" cy="337.181" r="14.4" fill="#de8f05" fill-rule="evenodd" fill-opacity="1" stroke="#000000" stroke-opacity="1" stroke-width="3.2"/>
<circle clip-path="url(#clip932)" cx="1207.87" cy="315.576" r="14.4" fill="#de8f05" fill-rule="evenodd" fill-opacity="1" stroke="#000000" stroke-opacity="1" stroke-width="3.2"/>
<circle clip-path="url(#clip932)" cx="1346.23" cy="294.069" r="14.4" fill="#de8f05" fill-rule="evenodd" fill-opacity="1" stroke="#000000" stroke-opacity="1" stroke-width="3.2"/>
<circle clip-path="url(#clip932)" cx="1353.88" cy="272.705" r="14.4" fill="#de8f05" fill-rule="evenodd" fill-opacity="1" stroke="#000000" stroke-opacity="1" stroke-width="3.2"/>
<circle clip-path="url(#clip932)" cx="1454.02" cy="251.551" r="14.4" fill="#de8f05" fill-rule="evenodd" fill-opacity="1" stroke="#000000" stroke-opacity="1" stroke-width="3.2"/>
<circle clip-path="url(#clip932)" cx="1481.18" cy="230.708" r="14.4" fill="#de8f05" fill-rule="evenodd" fill-opacity="1" stroke="#000000" stroke-opacity="1" stroke-width="3.2"/>
<circle clip-path="url(#clip932)" cx="1583.79" cy="210.329" r="14.4" fill="#de8f05" fill-rule="evenodd" fill-opacity="1" stroke="#000000" stroke-opacity="1" stroke-width="3.2"/>
<circle clip-path="url(#clip932)" cx="1643.07" cy="192.308" r="14.4" fill="#de8f05" fill-rule="evenodd" fill-opacity="1" stroke="#000000" stroke-opacity="1" stroke-width="3.2"/>
<circle clip-path="url(#clip932)" cx="1623.59" cy="190.635" r="14.4" fill="#de8f05" fill-rule="evenodd" fill-opacity="1" stroke="#000000" stroke-opacity="1" stroke-width="3.2"/>
<circle clip-path="url(#clip932)" cx="1652.35" cy="182.008" r="14.4" fill="#de8f05" fill-rule="evenodd" fill-opacity="1" stroke="#000000" stroke-opacity="1" stroke-width="3.2"/>
<circle clip-path="url(#clip932)" cx="1698.29" cy="173.397" r="14.4" fill="#de8f05" fill-rule="evenodd" fill-opacity="1" stroke="#000000" stroke-opacity="1" stroke-width="3.2"/>
<circle clip-path="url(#clip932)" cx="1726.67" cy="171.938" r="14.4" fill="#de8f05" fill-rule="evenodd" fill-opacity="1" stroke="#000000" stroke-opacity="1" stroke-width="3.2"/>
<circle clip-path="url(#clip932)" cx="1703.2" cy="166.069" r="14.4" fill="#de8f05" fill-rule="evenodd" fill-opacity="1" stroke="#000000" stroke-opacity="1" stroke-width="3.2"/>
<circle clip-path="url(#clip932)" cx="1747.14" cy="159.748" r="14.4" fill="#de8f05" fill-rule="evenodd" fill-opacity="1" stroke="#000000" stroke-opacity="1" stroke-width="3.2"/>
<circle clip-path="url(#clip932)" cx="1759.98" cy="154.63" r="14.4" fill="#de8f05" fill-rule="evenodd" fill-opacity="1" stroke="#000000" stroke-opacity="1" stroke-width="3.2"/>
<circle clip-path="url(#clip932)" cx="1799.13" cy="154.236" r="14.4" fill="#de8f05" fill-rule="evenodd" fill-opacity="1" stroke="#000000" stroke-opacity="1" stroke-width="3.2"/>
<circle clip-path="url(#clip932)" cx="1744.87" cy="149.387" r="14.4" fill="#de8f05" fill-rule="evenodd" fill-opacity="1" stroke="#000000" stroke-opacity="1" stroke-width="3.2"/>
<circle clip-path="url(#clip932)" cx="1762.28" cy="145.089" r="14.4" fill="#de8f05" fill-rule="evenodd" fill-opacity="1" stroke="#000000" stroke-opacity="1" stroke-width="3.2"/>
<circle clip-path="url(#clip932)" cx="1803.83" cy="141.254" r="14.4" fill="#de8f05" fill-rule="evenodd" fill-opacity="1" stroke="#000000" stroke-opacity="1" stroke-width="3.2"/>
<circle clip-path="url(#clip932)" cx="1778.37" cy="139.145" r="14.4" fill="#de8f05" fill-rule="evenodd" fill-opacity="1" stroke="#000000" stroke-opacity="1" stroke-width="3.2"/>
<circle clip-path="url(#clip932)" cx="1816.72" cy="137.815" r="14.4" fill="#de8f05" fill-rule="evenodd" fill-opacity="1" stroke="#000000" stroke-opacity="1" stroke-width="3.2"/>
<circle clip-path="url(#clip932)" cx="1824.53" cy="134.714" r="14.4" fill="#de8f05" fill-rule="evenodd" fill-opacity="1" stroke="#000000" stroke-opacity="1" stroke-width="3.2"/>
<circle clip-path="url(#clip932)" cx="1803.18" cy="131.906" r="14.4" fill="#de8f05" fill-rule="evenodd" fill-opacity="1" stroke="#000000" stroke-opacity="1" stroke-width="3.2"/>
<circle clip-path="url(#clip932)" cx="1828.03" cy="129.353" r="14.4" fill="#de8f05" fill-rule="evenodd" fill-opacity="1" stroke="#000000" stroke-opacity="1" stroke-width="3.2"/>
<circle clip-path="url(#clip932)" cx="1861.55" cy="127.023" r="14.4" fill="#de8f05" fill-rule="evenodd" fill-opacity="1" stroke="#000000" stroke-opacity="1" stroke-width="3.2"/>
<circle clip-path="url(#clip932)" cx="1835.27" cy="125.848" r="14.4" fill="#de8f05" fill-rule="evenodd" fill-opacity="1" stroke="#000000" stroke-opacity="1" stroke-width="3.2"/>
<circle clip-path="url(#clip932)" cx="1818.86" cy="124.889" r="14.4" fill="#de8f05" fill-rule="evenodd" fill-opacity="1" stroke="#000000" stroke-opacity="1" stroke-width="3.2"/>
<circle clip-path="url(#clip932)" cx="1813.29" cy="122.929" r="14.4" fill="#de8f05" fill-rule="evenodd" fill-opacity="1" stroke="#000000" stroke-opacity="1" stroke-width="3.2"/>
<circle clip-path="url(#clip932)" cx="1838.67" cy="121.124" r="14.4" fill="#de8f05" fill-rule="evenodd" fill-opacity="1" stroke="#000000" stroke-opacity="1" stroke-width="3.2"/>
<circle clip-path="url(#clip932)" cx="1888.07" cy="119.456" r="14.4" fill="#de8f05" fill-rule="evenodd" fill-opacity="1" stroke="#000000" stroke-opacity="1" stroke-width="3.2"/>
<circle clip-path="url(#clip932)" cx="1867.97" cy="117.911" r="14.4" fill="#de8f05" fill-rule="evenodd" fill-opacity="1" stroke="#000000" stroke-opacity="1" stroke-width="3.2"/>
<circle clip-path="url(#clip932)" cx="1820.22" cy="116.477" r="14.4" fill="#de8f05" fill-rule="evenodd" fill-opacity="1" stroke="#000000" stroke-opacity="1" stroke-width="3.2"/>
<circle clip-path="url(#clip932)" cx="1894.94" cy="114.919" r="14.4" fill="#de8f05" fill-rule="evenodd" fill-opacity="1" stroke="#000000" stroke-opacity="1" stroke-width="3.2"/>
<circle clip-path="url(#clip932)" cx="1882.53" cy="106.292" r="14.4" fill="#de8f05" fill-rule="evenodd" fill-opacity="1" stroke="#000000" stroke-opacity="1" stroke-width="3.2"/>
<circle clip-path="url(#clip932)" cx="1914.23" cy="99.6932" r="14.4" fill="#de8f05" fill-rule="evenodd" fill-opacity="1" stroke="#000000" stroke-opacity="1" stroke-width="3.2"/>
<circle clip-path="url(#clip932)" cx="1943.72" cy="94.7527" r="14.4" fill="#de8f05" fill-rule="evenodd" fill-opacity="1" stroke="#000000" stroke-opacity="1" stroke-width="3.2"/>
<circle clip-path="url(#clip932)" cx="1894.93" cy="91.0979" r="14.4" fill="#de8f05" fill-rule="evenodd" fill-opacity="1" stroke="#000000" stroke-opacity="1" stroke-width="3.2"/>
<circle clip-path="url(#clip932)" cx="1929.16" cy="88.4088" r="14.4" fill="#de8f05" fill-rule="evenodd" fill-opacity="1" stroke="#000000" stroke-opacity="1" stroke-width="3.2"/>
<circle clip-path="url(#clip932)" cx="1915.1" cy="86.4329" r="14.4" fill="#de8f05" fill-rule="evenodd" fill-opacity="1" stroke="#000000" stroke-opacity="1" stroke-width="3.2"/>
<circle clip-path="url(#clip932)" cx="1951.75" cy="84.9802" r="14.4" fill="#de8f05" fill-rule="evenodd" fill-opacity="1" stroke="#000000" stroke-opacity="1" stroke-width="3.2"/>
<circle clip-path="url(#clip932)" cx="1299.55" cy="1258.25" r="14.4" fill="#029e73" fill-rule="evenodd" fill-opacity="1" stroke="#000000" stroke-opacity="1" stroke-width="3.2"/>
<circle clip-path="url(#clip932)" cx="1331.6" cy="1255.24" r="14.4" fill="#029e73" fill-rule="evenodd" fill-opacity="1" stroke="#000000" stroke-opacity="1" stroke-width="3.2"/>
<circle clip-path="url(#clip932)" cx="1363.64" cy="1227.07" r="14.4" fill="#029e73" fill-rule="evenodd" fill-opacity="1" stroke="#000000" stroke-opacity="1" stroke-width="3.2"/>
<circle clip-path="url(#clip932)" cx="1395.65" cy="1342.85" r="14.4" fill="#029e73" fill-rule="evenodd" fill-opacity="1" stroke="#000000" stroke-opacity="1" stroke-width="3.2"/>
<circle clip-path="url(#clip932)" cx="1427.66" cy="1317.2" r="14.4" fill="#029e73" fill-rule="evenodd" fill-opacity="1" stroke="#000000" stroke-opacity="1" stroke-width="3.2"/>
<circle clip-path="url(#clip932)" cx="1459.69" cy="1298.29" r="14.4" fill="#029e73" fill-rule="evenodd" fill-opacity="1" stroke="#000000" stroke-opacity="1" stroke-width="3.2"/>
<circle clip-path="url(#clip932)" cx="1491.68" cy="1258.25" r="14.4" fill="#029e73" fill-rule="evenodd" fill-opacity="1" stroke="#000000" stroke-opacity="1" stroke-width="3.2"/>
<circle clip-path="url(#clip932)" cx="1523.78" cy="1267.46" r="14.4" fill="#029e73" fill-rule="evenodd" fill-opacity="1" stroke="#000000" stroke-opacity="1" stroke-width="3.2"/>
<circle clip-path="url(#clip932)" cx="1555.8" cy="1266.67" r="14.4" fill="#029e73" fill-rule="evenodd" fill-opacity="1" stroke="#000000" stroke-opacity="1" stroke-width="3.2"/>
<circle clip-path="url(#clip932)" cx="1587.91" cy="1255.82" r="14.4" fill="#029e73" fill-rule="evenodd" fill-opacity="1" stroke="#000000" stroke-opacity="1" stroke-width="3.2"/>
<circle clip-path="url(#clip932)" cx="1620" cy="1304.3" r="14.4" fill="#029e73" fill-rule="evenodd" fill-opacity="1" stroke="#000000" stroke-opacity="1" stroke-width="3.2"/>
<circle clip-path="url(#clip932)" cx="1652.36" cy="1236.57" r="14.4" fill="#029e73" fill-rule="evenodd" fill-opacity="1" stroke="#000000" stroke-opacity="1" stroke-width="3.2"/>
<circle clip-path="url(#clip932)" cx="1684.57" cy="1274.53" r="14.4" fill="#029e73" fill-rule="evenodd" fill-opacity="1" stroke="#000000" stroke-opacity="1" stroke-width="3.2"/>
<circle clip-path="url(#clip932)" cx="1716.82" cy="1233.55" r="14.4" fill="#029e73" fill-rule="evenodd" fill-opacity="1" stroke="#000000" stroke-opacity="1" stroke-width="3.2"/>
<circle clip-path="url(#clip932)" cx="1749.77" cy="1201.83" r="14.4" fill="#029e73" fill-rule="evenodd" fill-opacity="1" stroke="#000000" stroke-opacity="1" stroke-width="3.2"/>
<circle clip-path="url(#clip932)" cx="1782.49" cy="1195.56" r="14.4" fill="#029e73" fill-rule="evenodd" fill-opacity="1" stroke="#000000" stroke-opacity="1" stroke-width="3.2"/>
<circle clip-path="url(#clip932)" cx="1816.39" cy="1081.93" r="14.4" fill="#029e73" fill-rule="evenodd" fill-opacity="1" stroke="#000000" stroke-opacity="1" stroke-width="3.2"/>
<circle clip-path="url(#clip932)" cx="1850.54" cy="1027.95" r="14.4" fill="#029e73" fill-rule="evenodd" fill-opacity="1" stroke="#000000" stroke-opacity="1" stroke-width="3.2"/>
<circle clip-path="url(#clip932)" cx="1884.88" cy="987.109" r="14.4" fill="#029e73" fill-rule="evenodd" fill-opacity="1" stroke="#000000" stroke-opacity="1" stroke-width="3.2"/>
<circle clip-path="url(#clip932)" cx="1920.11" cy="935.328" r="14.4" fill="#029e73" fill-rule="evenodd" fill-opacity="1" stroke="#000000" stroke-opacity="1" stroke-width="3.2"/>
<circle clip-path="url(#clip932)" cx="1958.04" cy="849.171" r="14.4" fill="#029e73" fill-rule="evenodd" fill-opacity="1" stroke="#000000" stroke-opacity="1" stroke-width="3.2"/>
<circle clip-path="url(#clip932)" cx="1995.71" cy="800.542" r="14.4" fill="#029e73" fill-rule="evenodd" fill-opacity="1" stroke="#000000" stroke-opacity="1" stroke-width="3.2"/>
<circle clip-path="url(#clip932)" cx="2032.54" cy="777.982" r="14.4" fill="#029e73" fill-rule="evenodd" fill-opacity="1" stroke="#000000" stroke-opacity="1" stroke-width="3.2"/>
<circle clip-path="url(#clip932)" cx="2034.74" cy="776.556" r="14.4" fill="#029e73" fill-rule="evenodd" fill-opacity="1" stroke="#000000" stroke-opacity="1" stroke-width="3.2"/>
<circle clip-path="url(#clip932)" cx="2052.45" cy="835.332" r="14.4" fill="#029e73" fill-rule="evenodd" fill-opacity="1" stroke="#000000" stroke-opacity="1" stroke-width="3.2"/>
<circle clip-path="url(#clip932)" cx="2072.75" cy="1046.73" r="14.4" fill="#029e73" fill-rule="evenodd" fill-opacity="1" stroke="#000000" stroke-opacity="1" stroke-width="3.2"/>
<circle clip-path="url(#clip932)" cx="2076.03" cy="1023.87" r="14.4" fill="#029e73" fill-rule="evenodd" fill-opacity="1" stroke="#000000" stroke-opacity="1" stroke-width="3.2"/>
<circle clip-path="url(#clip932)" cx="2089.1" cy="1073.56" r="14.4" fill="#029e73" fill-rule="evenodd" fill-opacity="1" stroke="#000000" stroke-opacity="1" stroke-width="3.2"/>
<circle clip-path="url(#clip932)" cx="2102.63" cy="1146.21" r="14.4" fill="#029e73" fill-rule="evenodd" fill-opacity="1" stroke="#000000" stroke-opacity="1" stroke-width="3.2"/>
<circle clip-path="url(#clip932)" cx="2115.67" cy="992.931" r="14.4" fill="#029e73" fill-rule="evenodd" fill-opacity="1" stroke="#000000" stroke-opacity="1" stroke-width="3.2"/>
<circle clip-path="url(#clip932)" cx="2115.64" cy="997.52" r="14.4" fill="#029e73" fill-rule="evenodd" fill-opacity="1" stroke="#000000" stroke-opacity="1" stroke-width="3.2"/>
<circle clip-path="url(#clip932)" cx="2125.34" cy="1005.09" r="14.4" fill="#029e73" fill-rule="evenodd" fill-opacity="1" stroke="#000000" stroke-opacity="1" stroke-width="3.2"/>
<circle clip-path="url(#clip932)" cx="2138" cy="988.228" r="14.4" fill="#029e73" fill-rule="evenodd" fill-opacity="1" stroke="#000000" stroke-opacity="1" stroke-width="3.2"/>
<circle clip-path="url(#clip932)" cx="2146.11" cy="980.498" r="14.4" fill="#029e73" fill-rule="evenodd" fill-opacity="1" stroke="#000000" stroke-opacity="1" stroke-width="3.2"/>
<circle clip-path="url(#clip932)" cx="2152.22" cy="1009.65" r="14.4" fill="#029e73" fill-rule="evenodd" fill-opacity="1" stroke="#000000" stroke-opacity="1" stroke-width="3.2"/>
<circle clip-path="url(#clip932)" cx="2154.97" cy="906.449" r="14.4" fill="#029e73" fill-rule="evenodd" fill-opacity="1" stroke="#000000" stroke-opacity="1" stroke-width="3.2"/>
<circle clip-path="url(#clip932)" cx="2163.87" cy="961.111" r="14.4" fill="#029e73" fill-rule="evenodd" fill-opacity="1" stroke="#000000" stroke-opacity="1" stroke-width="3.2"/>
<circle clip-path="url(#clip932)" cx="2170.6" cy="938.006" r="14.4" fill="#029e73" fill-rule="evenodd" fill-opacity="1" stroke="#000000" stroke-opacity="1" stroke-width="3.2"/>
<circle clip-path="url(#clip932)" cx="2174.92" cy="889.203" r="14.4" fill="#029e73" fill-rule="evenodd" fill-opacity="1" stroke="#000000" stroke-opacity="1" stroke-width="3.2"/>
<circle clip-path="url(#clip932)" cx="2182" cy="869.49" r="14.4" fill="#029e73" fill-rule="evenodd" fill-opacity="1" stroke="#000000" stroke-opacity="1" stroke-width="3.2"/>
<circle clip-path="url(#clip932)" cx="2185.76" cy="862.472" r="14.4" fill="#029e73" fill-rule="evenodd" fill-opacity="1" stroke="#000000" stroke-opacity="1" stroke-width="3.2"/>
<circle clip-path="url(#clip932)" cx="2188.89" cy="871.589" r="14.4" fill="#029e73" fill-rule="evenodd" fill-opacity="1" stroke="#000000" stroke-opacity="1" stroke-width="3.2"/>
<circle clip-path="url(#clip932)" cx="2192.12" cy="895.351" r="14.4" fill="#029e73" fill-rule="evenodd" fill-opacity="1" stroke="#000000" stroke-opacity="1" stroke-width="3.2"/>
<circle clip-path="url(#clip932)" cx="2197.43" cy="924.927" r="14.4" fill="#029e73" fill-rule="evenodd" fill-opacity="1" stroke="#000000" stroke-opacity="1" stroke-width="3.2"/>
<circle clip-path="url(#clip932)" cx="2201.69" cy="874.653" r="14.4" fill="#029e73" fill-rule="evenodd" fill-opacity="1" stroke="#000000" stroke-opacity="1" stroke-width="3.2"/>
<circle clip-path="url(#clip932)" cx="2205.72" cy="922.19" r="14.4" fill="#029e73" fill-rule="evenodd" fill-opacity="1" stroke="#000000" stroke-opacity="1" stroke-width="3.2"/>
<circle clip-path="url(#clip932)" cx="2208.69" cy="912.989" r="14.4" fill="#029e73" fill-rule="evenodd" fill-opacity="1" stroke="#000000" stroke-opacity="1" stroke-width="3.2"/>
<circle clip-path="url(#clip932)" cx="2212.07" cy="914.78" r="14.4" fill="#029e73" fill-rule="evenodd" fill-opacity="1" stroke="#000000" stroke-opacity="1" stroke-width="3.2"/>
<circle clip-path="url(#clip932)" cx="2237.23" cy="911.752" r="14.4" fill="#029e73" fill-rule="evenodd" fill-opacity="1" stroke="#000000" stroke-opacity="1" stroke-width="3.2"/>
<circle clip-path="url(#clip932)" cx="2254.5" cy="895.983" r="14.4" fill="#029e73" fill-rule="evenodd" fill-opacity="1" stroke="#000000" stroke-opacity="1" stroke-width="3.2"/>
<circle clip-path="url(#clip932)" cx="2268.35" cy="897.579" r="14.4" fill="#029e73" fill-rule="evenodd" fill-opacity="1" stroke="#000000" stroke-opacity="1" stroke-width="3.2"/>
<circle clip-path="url(#clip932)" cx="2274.98" cy="955.642" r="14.4" fill="#029e73" fill-rule="evenodd" fill-opacity="1" stroke="#000000" stroke-opacity="1" stroke-width="3.2"/>
<circle clip-path="url(#clip932)" cx="2287.08" cy="911.528" r="14.4" fill="#029e73" fill-rule="evenodd" fill-opacity="1" stroke="#000000" stroke-opacity="1" stroke-width="3.2"/>
<circle clip-path="url(#clip932)" cx="2289.93" cy="890.629" r="14.4" fill="#029e73" fill-rule="evenodd" fill-opacity="1" stroke="#000000" stroke-opacity="1" stroke-width="3.2"/>
<circle clip-path="url(#clip932)" cx="2294.32" cy="911.133" r="14.4" fill="#029e73" fill-rule="evenodd" fill-opacity="1" stroke="#000000" stroke-opacity="1" stroke-width="3.2"/>
<path clip-path="url(#clip930)" d="M356.683 247.209 L678.962 247.209 L678.962 91.6888 L356.683 91.6888  Z" fill="#ffffff" fill-rule="evenodd" fill-opacity="1"/>
<polyline clip-path="url(#clip930)" style="stroke:#000000; stroke-linecap:round; stroke-linejoin:round; stroke-width:4; stroke-opacity:1; fill:none" points="356.683,247.209 678.962,247.209 678.962,91.6888 356.683,91.6888 356.683,247.209 "/>
<circle clip-path="url(#clip930)" cx="448.457" cy="143.529" r="20.48" fill="#de8f05" fill-rule="evenodd" fill-opacity="1" stroke="#000000" stroke-opacity="1" stroke-width="4.55111"/>
<path clip-path="url(#clip930)" d="M566.229 152.221 Q566.229 152.408 566.018 153.134 Q565.808 153.86 565.292 154.985 Q564.8 156.109 564.121 157.139 Q563.442 158.147 562.318 158.896 Q561.217 159.622 559.952 159.622 Q558.266 159.622 557.141 158.498 Q556.017 157.374 556.017 155.687 Q556.017 154.75 556.509 153.462 Q559.624 145.147 559.624 142.29 Q559.624 138.94 557.024 138.94 Q555.736 138.94 554.518 139.432 Q553.323 139.9 552.504 140.556 Q551.684 141.212 550.934 142.126 Q550.208 143.016 549.834 143.625 Q549.482 144.21 549.201 144.796 L548.592 147.185 Q548.452 147.841 547.772 150.394 L546.718 154.727 Q545.969 157.959 545.805 158.264 Q545.571 158.92 545.055 159.271 Q544.54 159.622 544.025 159.622 Q543.439 159.622 543.041 159.271 Q542.643 158.92 542.643 158.311 Q542.643 158.217 542.713 157.866 Q542.783 157.514 542.901 157.022 Q543.018 156.53 543.064 156.249 L545.852 145.171 Q546.367 143.156 546.484 142.524 Q546.625 141.868 546.625 141.142 Q546.625 138.94 545.126 138.94 Q543.908 138.94 543.111 140.392 Q542.315 141.845 541.636 144.655 Q541.425 145.428 541.284 145.592 Q541.167 145.756 540.816 145.756 Q540.23 145.733 540.23 145.264 Q540.23 145.147 540.418 144.374 Q540.605 143.601 540.956 142.5 Q541.331 141.376 541.683 140.627 Q541.987 140.064 542.151 139.807 Q542.338 139.526 542.783 138.987 Q543.252 138.425 543.861 138.167 Q544.493 137.886 545.266 137.886 Q546.999 137.886 548.264 139.01 Q549.529 140.111 549.693 142.055 Q552.808 137.886 557.165 137.886 Q559.741 137.886 561.217 139.245 Q562.692 140.603 562.692 143.016 Q562.692 143.578 562.575 144.304 Q562.482 145.007 562.247 145.897 Q562.037 146.787 561.849 147.466 Q561.662 148.145 561.287 149.246 Q560.912 150.323 560.748 150.792 Q560.584 151.26 560.186 152.361 Q559.812 153.439 559.765 153.556 Q558.898 155.734 558.898 156.975 Q558.898 157.795 559.156 158.17 Q559.437 158.545 560.046 158.545 Q561.685 158.545 562.903 156.929 Q564.145 155.289 564.941 152.619 Q565.128 152.033 565.222 151.893 Q565.339 151.752 565.667 151.752 Q566.229 151.752 566.229 152.221 Z" fill="#000000" fill-rule="nonzero" fill-opacity="1" /><path clip-path="url(#clip930)" d="M582.016 151.799 Q582.063 151.214 582.977 151.214 L612.372 151.214 Q613.754 151.214 613.777 151.752 Q613.777 152.338 612.466 152.314 L583.305 152.314 Q582.016 152.338 582.016 151.799 M582.016 142.43 Q582.016 141.845 583.024 141.868 L612.325 141.868 Q613.754 141.868 613.777 142.43 Q613.777 142.969 612.559 142.969 L582.977 142.969 Q582.016 142.969 582.016 142.43 Z" fill="#000000" fill-rule="nonzero" fill-opacity="1" /><path clip-path="url(#clip930)" d="M632.268 131.703 L632.268 130.204 Q638.03 130.204 641.005 127.135 Q641.825 127.135 641.965 127.323 Q642.106 127.51 642.106 128.377 L642.106 155.289 Q642.106 156.718 642.808 157.163 Q643.511 157.608 646.579 157.608 L648.102 157.608 L648.102 159.083 Q646.415 158.943 640.326 158.943 Q634.236 158.943 632.573 159.083 L632.573 157.608 L634.095 157.608 Q637.117 157.608 637.843 157.186 Q638.569 156.741 638.569 155.289 L638.569 130.438 Q636.063 131.703 632.268 131.703 Z" fill="#000000" fill-rule="nonzero" fill-opacity="1" /><circle clip-path="url(#clip930)" cx="448.457" cy="195.369" r="20.48" fill="#029e73" fill-rule="evenodd" fill-opacity="1" stroke="#000000" stroke-opacity="1" stroke-width="4.55111"/>
<path clip-path="url(#clip930)" d="M566.229 204.061 Q566.229 204.248 566.018 204.974 Q565.808 205.7 565.292 206.825 Q564.8 207.949 564.121 208.979 Q563.442 209.987 562.318 210.736 Q561.217 211.462 559.952 211.462 Q558.266 211.462 557.141 210.338 Q556.017 209.214 556.017 207.527 Q556.017 206.59 556.509 205.302 Q559.624 196.987 559.624 194.13 Q559.624 190.78 557.024 190.78 Q555.736 190.78 554.518 191.272 Q553.323 191.74 552.504 192.396 Q551.684 193.052 550.934 193.966 Q550.208 194.856 549.834 195.465 Q549.482 196.05 549.201 196.636 L548.592 199.025 Q548.452 199.681 547.772 202.234 L546.718 206.567 Q545.969 209.799 545.805 210.104 Q545.571 210.76 545.055 211.111 Q544.54 211.462 544.025 211.462 Q543.439 211.462 543.041 211.111 Q542.643 210.76 542.643 210.151 Q542.643 210.057 542.713 209.706 Q542.783 209.354 542.901 208.862 Q543.018 208.37 543.064 208.089 L545.852 197.011 Q546.367 194.996 546.484 194.364 Q546.625 193.708 546.625 192.982 Q546.625 190.78 545.126 190.78 Q543.908 190.78 543.111 192.232 Q542.315 193.685 541.636 196.495 Q541.425 197.268 541.284 197.432 Q541.167 197.596 540.816 197.596 Q540.23 197.573 540.23 197.104 Q540.23 196.987 540.418 196.214 Q540.605 195.441 540.956 194.34 Q541.331 193.216 541.683 192.467 Q541.987 191.904 542.151 191.647 Q542.338 191.366 542.783 190.827 Q543.252 190.265 543.861 190.007 Q544.493 189.726 545.266 189.726 Q546.999 189.726 548.264 190.85 Q549.529 191.951 549.693 193.895 Q552.808 189.726 557.165 189.726 Q559.741 189.726 561.217 191.085 Q562.692 192.443 562.692 194.856 Q562.692 195.418 562.575 196.144 Q562.482 196.847 562.247 197.737 Q562.037 198.627 561.849 199.306 Q561.662 199.985 561.287 201.086 Q560.912 202.163 560.748 202.632 Q560.584 203.1 560.186 204.201 Q559.812 205.279 559.765 205.396 Q558.898 207.574 558.898 208.815 Q558.898 209.635 559.156 210.01 Q559.437 210.385 560.046 210.385 Q561.685 210.385 562.903 208.769 Q564.145 207.129 564.941 204.459 Q565.128 203.873 565.222 203.733 Q565.339 203.592 565.667 203.592 Q566.229 203.592 566.229 204.061 Z" fill="#000000" fill-rule="nonzero" fill-opacity="1" /><path clip-path="url(#clip930)" d="M582.016 203.639 Q582.063 203.054 582.977 203.054 L612.372 203.054 Q613.754 203.054 613.777 203.592 Q613.777 204.178 612.466 204.154 L583.305 204.154 Q582.016 204.178 582.016 203.639 M582.016 194.27 Q582.016 193.685 583.024 193.708 L612.325 193.708 Q613.754 193.708 613.777 194.27 Q613.777 194.809 612.559 194.809 L582.977 194.809 Q582.016 194.809 582.016 194.27 Z" fill="#000000" fill-rule="nonzero" fill-opacity="1" /><path clip-path="url(#clip930)" d="M632.268 210.923 Q632.268 210.057 632.338 209.799 Q632.432 209.542 632.807 209.143 L642.012 198.884 Q647.048 193.216 647.048 188.274 Q647.048 185.065 645.361 182.77 Q643.698 180.474 640.63 180.474 Q638.522 180.474 636.742 181.763 Q634.962 183.051 634.142 185.346 Q634.283 185.299 634.774 185.299 Q635.969 185.299 636.625 186.049 Q637.304 186.798 637.304 187.806 Q637.304 189.094 636.461 189.726 Q635.641 190.335 634.821 190.335 Q634.493 190.335 634.048 190.265 Q633.627 190.195 632.947 189.539 Q632.268 188.86 632.268 187.665 Q632.268 184.316 634.798 181.645 Q637.351 178.975 641.239 178.975 Q645.642 178.975 648.523 181.599 Q651.428 184.198 651.428 188.274 Q651.428 189.703 650.983 191.014 Q650.561 192.303 649.976 193.31 Q649.413 194.317 647.868 195.933 Q646.322 197.549 645.08 198.697 Q643.839 199.845 641.052 202.281 L635.969 207.223 L644.612 207.223 Q648.828 207.223 649.156 206.848 Q649.624 206.169 650.21 202.585 L651.428 202.585 L650.069 210.923 L632.268 210.923 Z" fill="#000000" fill-rule="nonzero" fill-opacity="1" /></svg>
