<?xml version="1.0" encoding="utf-8"?>
<svg xmlns="http://www.w3.org/2000/svg" xmlns:xlink="http://www.w3.org/1999/xlink" width="600" height="400" viewBox="0 0 2400 1600">
<defs>
  <clipPath id="clip820">
    <rect x="0" y="0" width="2400" height="1600"/>
  </clipPath>
</defs>
<path clip-path="url(#clip820)" d="M0 1600 L2400 1600 L2400 0 L0 0  Z" fill="#ffffff" fill-rule="evenodd" fill-opacity="1"/>
<defs>
  <clipPath id="clip821">
    <rect x="480" y="0" width="1681" height="1600"/>
  </clipPath>
</defs>
<path clip-path="url(#clip820)" d="M287.853 1380.58 L2352.76 1380.58 L2352.76 47.2441 L287.853 47.2441  Z" fill="#ffffff" fill-rule="evenodd" fill-opacity="1"/>
<defs>
  <clipPath id="clip822">
    <rect x="287" y="47" width="2066" height="1334"/>
  </clipPath>
</defs>
<polyline clip-path="url(#clip822)" style="stroke:#000000; stroke-linecap:round; stroke-linejoin:round; stroke-width:2; stroke-opacity:0.1; fill:none" points="746.752,1380.58 746.752,47.2441 "/>
<polyline clip-path="url(#clip822)" style="stroke:#000000; stroke-linecap:round; stroke-linejoin:round; stroke-width:2; stroke-opacity:0.1; fill:none" points="1247.55,1380.58 1247.55,47.2441 "/>
<polyline clip-path="url(#clip822)" style="stroke:#000000; stroke-linecap:round; stroke-linejoin:round; stroke-width:2; stroke-opacity:0.1; fill:none" points="1748.36,1380.58 1748.36,47.2441 "/>
<polyline clip-path="url(#clip822)" style="stroke:#000000; stroke-linecap:round; stroke-linejoin:round; stroke-width:2; stroke-opacity:0.1; fill:none" points="2249.16,1380.58 2249.16,47.2441 "/>
<polyline clip-path="url(#clip822)" style="stroke:#000000; stroke-linecap:round; stroke-linejoin:round; stroke-width:2; stroke-opacity:0.1; fill:none" points="746.752,1380.58 746.752,47.2441 "/>
<polyline clip-path="url(#clip822)" style="stroke:#000000; stroke-linecap:round; stroke-linejoin:round; stroke-width:2; stroke-opacity:0.1; fill:none" points="1247.55,1380.58 1247.55,47.2441 "/>
<polyline clip-path="url(#clip822)" style="stroke:#000000; stroke-linecap:round; stroke-linejoin:round; stroke-width:2; stroke-opacity:0.1; fill:none" points="1748.36,1380.58 1748.36,47.2441 "/>
<polyline clip-path="url(#clip822)" style="stroke:#000000; stroke-linecap:round; stroke-linejoin:round; stroke-width:2; stroke-opacity:0.1; fill:none" points="2249.16,1380.58 2249.16,47.2441 "/>
<polyline clip-path="url(#clip822)" style="stroke:#000000; stroke-linecap:round; stroke-linejoin:round; stroke-width:2; stroke-opacity:0.1; fill:none" points="287.853,1342.85 2352.76,1342.85 "/>
<polyline clip-path="url(#clip822)" style="stroke:#000000; stroke-linecap:round; stroke-linejoin:round; stroke-width:2; stroke-opacity:0.1; fill:none" points="287.853,1170.35 2352.76,1170.35 "/>
<polyline clip-path="url(#clip822)" style="stroke:#000000; stroke-linecap:round; stroke-linejoin:round; stroke-width:2; stroke-opacity:0.1; fill:none" points="287.853,997.847 2352.76,997.847 "/>
<polyline clip-path="url(#clip822)" style="stroke:#000000; stroke-linecap:round; stroke-linejoin:round; stroke-width:2; stroke-opacity:0.1; fill:none" points="287.853,825.346 2352.76,825.346 "/>
<polyline clip-path="url(#clip822)" style="stroke:#000000; stroke-linecap:round; stroke-linejoin:round; stroke-width:2; stroke-opacity:0.1; fill:none" points="287.853,652.845 2352.76,652.845 "/>
<polyline clip-path="url(#clip822)" style="stroke:#000000; stroke-linecap:round; stroke-linejoin:round; stroke-width:2; stroke-opacity:0.1; fill:none" points="287.853,480.344 2352.76,480.344 "/>
<polyline clip-path="url(#clip822)" style="stroke:#000000; stroke-linecap:round; stroke-linejoin:round; stroke-width:2; stroke-opacity:0.1; fill:none" points="287.853,307.842 2352.76,307.842 "/>
<polyline clip-path="url(#clip822)" style="stroke:#000000; stroke-linecap:round; stroke-linejoin:round; stroke-width:2; stroke-opacity:0.1; fill:none" points="287.853,135.341 2352.76,135.341 "/>
<polyline clip-path="url(#clip822)" style="stroke:#000000; stroke-linecap:round; stroke-linejoin:round; stroke-width:2; stroke-opacity:0.1; fill:none" points="287.853,1342.85 2352.76,1342.85 "/>
<polyline clip-path="url(#clip822)" style="stroke:#000000; stroke-linecap:round; stroke-linejoin:round; stroke-width:2; stroke-opacity:0.1; fill:none" points="287.853,1170.35 2352.76,1170.35 "/>
<polyline clip-path="url(#clip822)" style="stroke:#000000; stroke-linecap:round; stroke-linejoin:round; stroke-width:2; stroke-opacity:0.1; fill:none" points="287.853,997.847 2352.76,997.847 "/>
<polyline clip-path="url(#clip822)" style="stroke:#000000; stroke-linecap:round; stroke-linejoin:round; stroke-width:2; stroke-opacity:0.1; fill:none" points="287.853,825.346 2352.76,825.346 "/>
<polyline clip-path="url(#clip822)" style="stroke:#000000; stroke-linecap:round; stroke-linejoin:round; stroke-width:2; stroke-opacity:0.1; fill:none" points="287.853,652.845 2352.76,652.845 "/>
<polyline clip-path="url(#clip822)" style="stroke:#000000; stroke-linecap:round; stroke-linejoin:round; stroke-width:2; stroke-opacity:0.1; fill:none" points="287.853,480.344 2352.76,480.344 "/>
<polyline clip-path="url(#clip822)" style="stroke:#000000; stroke-linecap:round; stroke-linejoin:round; stroke-width:2; stroke-opacity:0.1; fill:none" points="287.853,307.842 2352.76,307.842 "/>
<polyline clip-path="url(#clip822)" style="stroke:#000000; stroke-linecap:round; stroke-linejoin:round; stroke-width:2; stroke-opacity:0.1; fill:none" points="287.853,135.341 2352.76,135.341 "/>
<polyline clip-path="url(#clip820)" style="stroke:#000000; stroke-linecap:round; stroke-linejoin:round; stroke-width:4; stroke-opacity:1; fill:none" points="287.853,1380.58 2352.76,1380.58 "/>
<polyline clip-path="url(#clip820)" style="stroke:#000000; stroke-linecap:round; stroke-linejoin:round; stroke-width:4; stroke-opacity:1; fill:none" points="287.853,47.2441 2352.76,47.2441 "/>
<polyline clip-path="url(#clip820)" style="stroke:#000000; stroke-linecap:round; stroke-linejoin:round; stroke-width:4; stroke-opacity:1; fill:none" points="746.752,1380.58 746.752,1361.69 "/>
<polyline clip-path="url(#clip820)" style="stroke:#000000; stroke-linecap:round; stroke-linejoin:round; stroke-width:4; stroke-opacity:1; fill:none" points="1247.55,1380.58 1247.55,1361.69 "/>
<polyline clip-path="url(#clip820)" style="stroke:#000000; stroke-linecap:round; stroke-linejoin:round; stroke-width:4; stroke-opacity:1; fill:none" points="1748.36,1380.58 1748.36,1361.69 "/>
<polyline clip-path="url(#clip820)" style="stroke:#000000; stroke-linecap:round; stroke-linejoin:round; stroke-width:4; stroke-opacity:1; fill:none" points="2249.16,1380.58 2249.16,1361.69 "/>
<polyline clip-path="url(#clip820)" style="stroke:#000000; stroke-linecap:round; stroke-linejoin:round; stroke-width:4; stroke-opacity:1; fill:none" points="746.752,47.2441 746.752,66.1417 "/>
<polyline clip-path="url(#clip820)" style="stroke:#000000; stroke-linecap:round; stroke-linejoin:round; stroke-width:4; stroke-opacity:1; fill:none" points="1247.55,47.2441 1247.55,66.1417 "/>
<polyline clip-path="url(#clip820)" style="stroke:#000000; stroke-linecap:round; stroke-linejoin:round; stroke-width:4; stroke-opacity:1; fill:none" points="1748.36,47.2441 1748.36,66.1417 "/>
<polyline clip-path="url(#clip820)" style="stroke:#000000; stroke-linecap:round; stroke-linejoin:round; stroke-width:4; stroke-opacity:1; fill:none" points="2249.16,47.2441 2249.16,66.1417 "/>
<path clip-path="url(#clip820)" d="M696.632 1454.71 L704.271 1454.71 L704.271 1428.34 L695.961 1430.01 L695.961 1425.75 L704.225 1424.08 L708.901 1424.08 L708.901 1454.71 L716.539 1454.71 L716.539 1458.64 L696.632 1458.64 L696.632 1454.71 Z" fill="#000000" fill-rule="nonzero" fill-opacity="1" /><path clip-path="url(#clip820)" d="M735.984 1427.16 Q732.373 1427.16 730.544 1430.73 Q728.738 1434.27 728.738 1441.4 Q728.738 1448.51 730.544 1452.07 Q732.373 1455.61 735.984 1455.61 Q739.618 1455.61 741.424 1452.07 Q743.252 1448.51 743.252 1441.4 Q743.252 1434.27 741.424 1430.73 Q739.618 1427.16 735.984 1427.16 M735.984 1423.46 Q741.794 1423.46 744.849 1428.07 Q747.928 1432.65 747.928 1441.4 Q747.928 1450.13 744.849 1454.73 Q741.794 1459.32 735.984 1459.32 Q730.174 1459.32 727.095 1454.73 Q724.039 1450.13 724.039 1441.4 Q724.039 1432.65 727.095 1428.07 Q730.174 1423.46 735.984 1423.46 Z" fill="#000000" fill-rule="nonzero" fill-opacity="1" /><path clip-path="url(#clip820)" d="M747.928 1417.56 L772.04 1417.56 L772.04 1420.76 L747.928 1420.76 L747.928 1417.56 Z" fill="#000000" fill-rule="nonzero" fill-opacity="1" /><path clip-path="url(#clip820)" d="M791.75 1416.09 Q794.477 1416.68 796.001 1418.52 Q797.543 1420.36 797.543 1423.07 Q797.543 1427.23 794.684 1429.5 Q791.825 1431.78 786.559 1431.78 Q784.791 1431.78 782.911 1431.42 Q781.049 1431.08 779.055 1430.39 L779.055 1426.72 Q780.635 1427.64 782.516 1428.11 Q784.396 1428.58 786.446 1428.58 Q790.02 1428.58 791.882 1427.17 Q793.763 1425.76 793.763 1423.07 Q793.763 1420.59 792.014 1419.2 Q790.283 1417.79 787.18 1417.79 L783.907 1417.79 L783.907 1414.66 L787.33 1414.66 Q790.133 1414.66 791.619 1413.56 Q793.104 1412.43 793.104 1410.32 Q793.104 1408.16 791.562 1407.01 Q790.039 1405.84 787.18 1405.84 Q785.619 1405.84 783.832 1406.18 Q782.045 1406.52 779.901 1407.24 L779.901 1403.85 Q782.064 1403.25 783.945 1402.95 Q785.845 1402.65 787.518 1402.65 Q791.844 1402.65 794.365 1404.62 Q796.885 1406.58 796.885 1409.93 Q796.885 1412.26 795.549 1413.88 Q794.214 1415.47 791.75 1416.09 Z" fill="#000000" fill-rule="nonzero" fill-opacity="1" /><path clip-path="url(#clip820)" d="M1197.67 1454.71 L1205.31 1454.71 L1205.31 1428.34 L1197 1430.01 L1197 1425.75 L1205.26 1424.08 L1209.94 1424.08 L1209.94 1454.71 L1217.58 1454.71 L1217.58 1458.64 L1197.67 1458.64 L1197.67 1454.71 Z" fill="#000000" fill-rule="nonzero" fill-opacity="1" /><path clip-path="url(#clip820)" d="M1237.02 1427.16 Q1233.41 1427.16 1231.58 1430.73 Q1229.78 1434.27 1229.78 1441.4 Q1229.78 1448.51 1231.58 1452.07 Q1233.41 1455.61 1237.02 1455.61 Q1240.66 1455.61 1242.46 1452.07 Q1244.29 1448.51 1244.29 1441.4 Q1244.29 1434.27 1242.46 1430.73 Q1240.66 1427.16 1237.02 1427.16 M1237.02 1423.46 Q1242.83 1423.46 1245.89 1428.07 Q1248.97 1432.65 1248.97 1441.4 Q1248.97 1450.13 1245.89 1454.73 Q1242.83 1459.32 1237.02 1459.32 Q1231.21 1459.32 1228.13 1454.73 Q1225.08 1450.13 1225.08 1441.4 Q1225.08 1432.65 1228.13 1428.07 Q1231.21 1423.46 1237.02 1423.46 Z" fill="#000000" fill-rule="nonzero" fill-opacity="1" /><path clip-path="url(#clip820)" d="M1248.97 1417.56 L1273.08 1417.56 L1273.08 1420.76 L1248.97 1420.76 L1248.97 1417.56 Z" fill="#000000" fill-rule="nonzero" fill-opacity="1" /><path clip-path="url(#clip820)" d="M1281.94 1428.04 L1288.14 1428.04 L1288.14 1406.62 L1281.39 1407.97 L1281.39 1404.51 L1288.1 1403.15 L1291.9 1403.15 L1291.9 1428.04 L1298.11 1428.04 L1298.11 1431.23 L1281.94 1431.23 L1281.94 1428.04 Z" fill="#000000" fill-rule="nonzero" fill-opacity="1" /><path clip-path="url(#clip820)" d="M1714.68 1454.71 L1722.32 1454.71 L1722.32 1428.34 L1714.01 1430.01 L1714.01 1425.75 L1722.28 1424.08 L1726.95 1424.08 L1726.95 1454.71 L1734.59 1454.71 L1734.59 1458.64 L1714.68 1458.64 L1714.68 1454.71 Z" fill="#000000" fill-rule="nonzero" fill-opacity="1" /><path clip-path="url(#clip820)" d="M1754.04 1427.16 Q1750.42 1427.16 1748.6 1430.73 Q1746.79 1434.27 1746.79 1441.4 Q1746.79 1448.51 1748.6 1452.07 Q1750.42 1455.61 1754.04 1455.61 Q1757.67 1455.61 1759.48 1452.07 Q1761.3 1448.51 1761.3 1441.4 Q1761.3 1434.27 1759.48 1430.73 Q1757.67 1427.16 1754.04 1427.16 M1754.04 1423.46 Q1759.85 1423.46 1762.9 1428.07 Q1765.98 1432.65 1765.98 1441.4 Q1765.98 1450.13 1762.9 1454.73 Q1759.85 1459.32 1754.04 1459.32 Q1748.23 1459.32 1745.15 1454.73 Q1742.09 1450.13 1742.09 1441.4 Q1742.09 1432.65 1745.15 1428.07 Q1748.23 1423.46 1754.04 1423.46 Z" fill="#000000" fill-rule="nonzero" fill-opacity="1" /><path clip-path="url(#clip820)" d="M1766.53 1428.04 L1772.73 1428.04 L1772.73 1406.62 L1765.98 1407.97 L1765.98 1404.51 L1772.69 1403.15 L1776.49 1403.15 L1776.49 1428.04 L1782.7 1428.04 L1782.7 1431.23 L1766.53 1431.23 L1766.53 1428.04 Z" fill="#000000" fill-rule="nonzero" fill-opacity="1" /><path clip-path="url(#clip820)" d="M2214.6 1454.71 L2222.24 1454.71 L2222.24 1428.34 L2213.93 1430.01 L2213.93 1425.75 L2222.2 1424.08 L2226.87 1424.08 L2226.87 1454.71 L2234.51 1454.71 L2234.51 1458.64 L2214.6 1458.64 L2214.6 1454.71 Z" fill="#000000" fill-rule="nonzero" fill-opacity="1" /><path clip-path="url(#clip820)" d="M2253.95 1427.16 Q2250.34 1427.16 2248.51 1430.73 Q2246.71 1434.27 2246.71 1441.4 Q2246.71 1448.51 2248.51 1452.07 Q2250.34 1455.61 2253.95 1455.61 Q2257.59 1455.61 2259.39 1452.07 Q2261.22 1448.51 2261.22 1441.4 Q2261.22 1434.27 2259.39 1430.73 Q2257.59 1427.16 2253.95 1427.16 M2253.95 1423.46 Q2259.76 1423.46 2262.82 1428.07 Q2265.9 1432.65 2265.9 1441.4 Q2265.9 1450.13 2262.82 1454.73 Q2259.76 1459.32 2253.95 1459.32 Q2248.14 1459.32 2245.07 1454.73 Q2242.01 1450.13 2242.01 1441.4 Q2242.01 1432.65 2245.07 1428.07 Q2248.14 1423.46 2253.95 1423.46 Z" fill="#000000" fill-rule="nonzero" fill-opacity="1" /><path clip-path="url(#clip820)" d="M2278.59 1416.09 Q2281.32 1416.68 2282.84 1418.52 Q2284.39 1420.36 2284.39 1423.07 Q2284.39 1427.23 2281.53 1429.5 Q2278.67 1431.78 2273.4 1431.78 Q2271.63 1431.78 2269.75 1431.42 Q2267.89 1431.08 2265.9 1430.39 L2265.9 1426.72 Q2267.48 1427.64 2269.36 1428.11 Q2271.24 1428.58 2273.29 1428.58 Q2276.86 1428.58 2278.73 1427.17 Q2280.61 1425.76 2280.61 1423.07 Q2280.61 1420.59 2278.86 1419.2 Q2277.13 1417.79 2274.02 1417.79 L2270.75 1417.79 L2270.75 1414.66 L2274.17 1414.66 Q2276.98 1414.66 2278.46 1413.56 Q2279.95 1412.43 2279.95 1410.32 Q2279.95 1408.16 2278.41 1407.01 Q2276.88 1405.84 2274.02 1405.84 Q2272.46 1405.84 2270.68 1406.18 Q2268.89 1406.52 2266.74 1407.24 L2266.74 1403.85 Q2268.91 1403.25 2270.79 1402.95 Q2272.69 1402.65 2274.36 1402.65 Q2278.69 1402.65 2281.21 1404.62 Q2283.73 1406.58 2283.73 1409.93 Q2283.73 1412.26 2282.39 1413.88 Q2281.06 1415.47 2278.59 1416.09 Z" fill="#000000" fill-rule="nonzero" fill-opacity="1" /><path clip-path="url(#clip820)" d="M1224.43 1571.84 L1224.43 1509.94 Q1224.43 1507.98 1225.75 1507.98 Q1227.07 1507.98 1227.07 1510.04 L1227.07 1571.68 Q1227.07 1573.81 1225.75 1573.81 Q1224.43 1573.81 1224.43 1571.84 M1231.7 1571.84 L1231.7 1510.42 Q1231.7 1507.98 1233.02 1507.98 Q1234.35 1507.98 1234.35 1510.04 L1234.35 1571.68 Q1234.35 1573.81 1233.02 1573.81 Q1231.7 1573.81 1231.7 1571.84 Z" fill="#000000" fill-rule="nonzero" fill-opacity="1" /><path clip-path="url(#clip820)" d="M1302.34 1556.06 Q1302.34 1556.67 1302.08 1556.99 Q1301.86 1557.28 1301.63 1557.35 Q1301.44 1557.38 1301.15 1557.38 Q1300.31 1557.38 1297.41 1557.28 Q1294.51 1557.19 1293.68 1557.19 Q1292.32 1557.19 1289.55 1557.28 Q1286.78 1557.38 1285.43 1557.38 Q1284.53 1557.38 1284.53 1556.64 Q1284.53 1556.16 1284.63 1555.9 Q1284.72 1555.61 1284.98 1555.51 Q1285.27 1555.38 1285.43 1555.38 Q1285.62 1555.35 1286.11 1555.35 Q1286.75 1555.35 1287.43 1555.29 Q1288.1 1555.19 1288.94 1555 Q1289.78 1554.8 1290.29 1554.32 Q1290.84 1553.84 1290.84 1553.16 Q1290.84 1552.87 1290.62 1550.49 Q1290.39 1548.11 1290.1 1545.34 Q1289.81 1542.53 1289.78 1542.15 L1273.22 1542.15 Q1271.71 1544.76 1270.65 1546.56 Q1269.59 1548.36 1269.2 1548.97 Q1268.81 1549.59 1268.59 1549.97 Q1268.36 1550.36 1268.23 1550.58 Q1267.3 1552.29 1267.3 1553.03 Q1267.3 1555.09 1270.39 1555.35 Q1271.45 1555.35 1271.45 1556.12 Q1271.45 1556.7 1271.2 1557.03 Q1270.94 1557.32 1270.71 1557.35 Q1270.52 1557.38 1270.2 1557.38 Q1269.13 1557.38 1266.91 1557.28 Q1264.69 1557.19 1263.6 1557.19 Q1262.66 1557.19 1260.73 1557.28 Q1258.8 1557.38 1257.93 1557.38 Q1257.54 1557.38 1257.32 1557.15 Q1257.09 1556.93 1257.09 1556.64 Q1257.09 1556.19 1257.15 1555.93 Q1257.25 1555.67 1257.51 1555.54 Q1257.77 1555.42 1257.89 1555.42 Q1258.02 1555.38 1258.47 1555.35 Q1260.92 1555.19 1262.82 1554.03 Q1264.75 1552.84 1266.59 1549.78 L1289.52 1511.26 Q1289.75 1510.88 1289.91 1510.68 Q1290.07 1510.49 1290.39 1510.33 Q1290.74 1510.17 1291.26 1510.17 Q1292.07 1510.17 1292.23 1510.42 Q1292.39 1510.65 1292.48 1511.74 L1296.51 1552.97 Q1296.61 1553.84 1296.67 1554.19 Q1296.77 1554.51 1297.19 1554.87 Q1297.64 1555.19 1298.44 1555.29 Q1299.28 1555.35 1300.83 1555.35 Q1301.4 1555.35 1301.63 1555.38 Q1301.86 1555.38 1302.08 1555.54 Q1302.34 1555.71 1302.34 1556.06 M1289.59 1540.09 L1287.49 1518.35 L1274.48 1540.09 L1289.59 1540.09 Z" fill="#000000" fill-rule="nonzero" fill-opacity="1" /><path clip-path="url(#clip820)" d="M1308.94 1497.93 Q1308.94 1490.13 1311.85 1483.84 Q1313.09 1481.2 1314.83 1479 Q1316.56 1476.79 1317.71 1475.82 Q1318.86 1474.85 1319.18 1474.85 Q1319.63 1474.85 1319.65 1475.3 Q1319.65 1475.52 1319.04 1476.09 Q1311.6 1483.66 1311.62 1497.93 Q1311.62 1512.25 1318.86 1519.53 Q1319.65 1520.32 1319.65 1520.57 Q1319.65 1521.02 1319.18 1521.02 Q1318.86 1521.02 1317.76 1520.09 Q1316.65 1519.17 1314.94 1517.05 Q1313.23 1514.93 1311.99 1512.34 Q1308.94 1506.05 1308.94 1497.93 Z" fill="#000000" fill-rule="nonzero" fill-opacity="1" /><path clip-path="url(#clip820)" d="M1348 1502.87 Q1348 1503.05 1347.8 1503.75 Q1347.59 1504.45 1347.1 1505.53 Q1346.62 1506.61 1345.97 1507.6 Q1345.32 1508.57 1344.23 1509.29 Q1343.17 1509.99 1341.96 1509.99 Q1340.33 1509.99 1339.25 1508.91 Q1338.17 1507.83 1338.17 1506.21 Q1338.17 1505.3 1338.64 1504.06 Q1341.64 1496.06 1341.64 1493.31 Q1341.64 1490.09 1339.14 1490.09 Q1337.9 1490.09 1336.73 1490.56 Q1335.58 1491.01 1334.79 1491.64 Q1334 1492.27 1333.28 1493.15 Q1332.58 1494.01 1332.22 1494.6 Q1331.88 1495.16 1331.61 1495.72 L1331.02 1498.02 Q1330.89 1498.65 1330.23 1501.11 L1329.22 1505.28 Q1328.5 1508.39 1328.34 1508.69 Q1328.12 1509.32 1327.62 1509.66 Q1327.12 1509.99 1326.63 1509.99 Q1326.06 1509.99 1325.68 1509.66 Q1325.3 1509.32 1325.3 1508.73 Q1325.3 1508.64 1325.37 1508.3 Q1325.43 1507.96 1325.55 1507.49 Q1325.66 1507.02 1325.7 1506.75 L1328.39 1496.08 Q1328.88 1494.15 1328.99 1493.54 Q1329.13 1492.91 1329.13 1492.21 Q1329.13 1490.09 1327.69 1490.09 Q1326.51 1490.09 1325.75 1491.48 Q1324.98 1492.88 1324.33 1495.59 Q1324.13 1496.33 1323.99 1496.49 Q1323.88 1496.65 1323.54 1496.65 Q1322.98 1496.62 1322.98 1496.17 Q1322.98 1496.06 1323.16 1495.32 Q1323.34 1494.57 1323.67 1493.51 Q1324.03 1492.43 1324.37 1491.71 Q1324.67 1491.17 1324.82 1490.92 Q1325 1490.65 1325.43 1490.13 Q1325.88 1489.59 1326.47 1489.34 Q1327.08 1489.07 1327.82 1489.07 Q1329.49 1489.07 1330.71 1490.15 Q1331.93 1491.21 1332.08 1493.09 Q1335.08 1489.07 1339.27 1489.07 Q1341.75 1489.07 1343.17 1490.38 Q1344.6 1491.69 1344.6 1494.01 Q1344.6 1494.55 1344.48 1495.25 Q1344.39 1495.93 1344.17 1496.78 Q1343.96 1497.64 1343.78 1498.29 Q1343.6 1498.95 1343.24 1500.01 Q1342.88 1501.04 1342.72 1501.49 Q1342.57 1501.95 1342.18 1503 Q1341.82 1504.04 1341.78 1504.15 Q1340.94 1506.25 1340.94 1507.45 Q1340.94 1508.24 1341.19 1508.6 Q1341.46 1508.96 1342.05 1508.96 Q1343.63 1508.96 1344.8 1507.4 Q1345.99 1505.82 1346.76 1503.25 Q1346.94 1502.69 1347.03 1502.55 Q1347.14 1502.42 1347.46 1502.42 Q1348 1502.42 1348 1502.87 Z" fill="#000000" fill-rule="nonzero" fill-opacity="1" /><path clip-path="url(#clip820)" d="M1352.43 1520.57 Q1352.43 1520.34 1353.01 1519.78 Q1360.45 1512.2 1360.45 1497.93 Q1360.45 1483.62 1353.31 1476.38 Q1352.43 1475.55 1352.43 1475.3 Q1352.43 1474.85 1352.88 1474.85 Q1353.19 1474.85 1354.3 1475.77 Q1355.43 1476.7 1357.12 1478.82 Q1358.83 1480.93 1360.09 1483.53 Q1363.14 1489.82 1363.14 1497.93 Q1363.14 1505.73 1360.23 1512.02 Q1358.99 1514.66 1357.25 1516.87 Q1355.52 1519.08 1354.37 1520.05 Q1353.22 1521.02 1352.88 1521.02 Q1352.43 1521.02 1352.43 1520.57 Z" fill="#000000" fill-rule="nonzero" fill-opacity="1" /><path clip-path="url(#clip820)" d="M1377.2 1571.84 L1377.2 1509.94 Q1377.2 1507.98 1378.52 1507.98 Q1379.84 1507.98 1379.84 1510.04 L1379.84 1571.68 Q1379.84 1573.81 1378.52 1573.81 Q1377.2 1573.81 1377.2 1571.84 M1384.48 1571.84 L1384.48 1510.42 Q1384.48 1507.98 1385.8 1507.98 Q1387.12 1507.98 1387.12 1510.04 L1387.12 1571.68 Q1387.12 1573.81 1385.8 1573.81 Q1384.48 1573.81 1384.48 1571.84 Z" fill="#000000" fill-rule="nonzero" fill-opacity="1" /><path clip-path="url(#clip820)" d="M1394.05 1565.57 L1394.05 1564.13 Q1399.6 1564.13 1402.46 1561.17 Q1403.25 1561.17 1403.38 1561.35 Q1403.52 1561.53 1403.52 1562.37 L1403.52 1588.27 Q1403.52 1589.65 1404.19 1590.07 Q1404.87 1590.5 1407.82 1590.5 L1409.29 1590.5 L1409.29 1591.92 Q1407.67 1591.79 1401.81 1591.79 Q1395.94 1591.79 1394.34 1591.92 L1394.34 1590.5 L1395.81 1590.5 Q1398.72 1590.5 1399.42 1590.1 Q1400.11 1589.67 1400.11 1588.27 L1400.11 1564.35 Q1397.7 1565.57 1394.05 1565.57 Z" fill="#000000" fill-rule="nonzero" fill-opacity="1" /><polyline clip-path="url(#clip820)" style="stroke:#000000; stroke-linecap:round; stroke-linejoin:round; stroke-width:4; stroke-opacity:1; fill:none" points="287.853,1380.58 287.853,47.2441 "/>
<polyline clip-path="url(#clip820)" style="stroke:#000000; stroke-linecap:round; stroke-linejoin:round; stroke-width:4; stroke-opacity:1; fill:none" points="2352.76,1380.58 2352.76,47.2441 "/>
<polyline clip-path="url(#clip820)" style="stroke:#000000; stroke-linecap:round; stroke-linejoin:round; stroke-width:4; stroke-opacity:1; fill:none" points="287.853,1342.85 306.751,1342.85 "/>
<polyline clip-path="url(#clip820)" style="stroke:#000000; stroke-linecap:round; stroke-linejoin:round; stroke-width:4; stroke-opacity:1; fill:none" points="287.853,1170.35 306.751,1170.35 "/>
<polyline clip-path="url(#clip820)" style="stroke:#000000; stroke-linecap:round; stroke-linejoin:round; stroke-width:4; stroke-opacity:1; fill:none" points="287.853,997.847 306.751,997.847 "/>
<polyline clip-path="url(#clip820)" style="stroke:#000000; stroke-linecap:round; stroke-linejoin:round; stroke-width:4; stroke-opacity:1; fill:none" points="287.853,825.346 306.751,825.346 "/>
<polyline clip-path="url(#clip820)" style="stroke:#000000; stroke-linecap:round; stroke-linejoin:round; stroke-width:4; stroke-opacity:1; fill:none" points="287.853,652.845 306.751,652.845 "/>
<polyline clip-path="url(#clip820)" style="stroke:#000000; stroke-linecap:round; stroke-linejoin:round; stroke-width:4; stroke-opacity:1; fill:none" points="287.853,480.344 306.751,480.344 "/>
<polyline clip-path="url(#clip820)" style="stroke:#000000; stroke-linecap:round; stroke-linejoin:round; stroke-width:4; stroke-opacity:1; fill:none" points="287.853,307.842 306.751,307.842 "/>
<polyline clip-path="url(#clip820)" style="stroke:#000000; stroke-linecap:round; stroke-linejoin:round; stroke-width:4; stroke-opacity:1; fill:none" points="287.853,135.341 306.751,135.341 "/>
<polyline clip-path="url(#clip820)" style="stroke:#000000; stroke-linecap:round; stroke-linejoin:round; stroke-width:4; stroke-opacity:1; fill:none" points="2352.76,1342.85 2333.86,1342.85 "/>
<polyline clip-path="url(#clip820)" style="stroke:#000000; stroke-linecap:round; stroke-linejoin:round; stroke-width:4; stroke-opacity:1; fill:none" points="2352.76,1170.35 2333.86,1170.35 "/>
<polyline clip-path="url(#clip820)" style="stroke:#000000; stroke-linecap:round; stroke-linejoin:round; stroke-width:4; stroke-opacity:1; fill:none" points="2352.76,997.847 2333.86,997.847 "/>
<polyline clip-path="url(#clip820)" style="stroke:#000000; stroke-linecap:round; stroke-linejoin:round; stroke-width:4; stroke-opacity:1; fill:none" points="2352.76,825.346 2333.86,825.346 "/>
<polyline clip-path="url(#clip820)" style="stroke:#000000; stroke-linecap:round; stroke-linejoin:round; stroke-width:4; stroke-opacity:1; fill:none" points="2352.76,652.845 2333.86,652.845 "/>
<polyline clip-path="url(#clip820)" style="stroke:#000000; stroke-linecap:round; stroke-linejoin:round; stroke-width:4; stroke-opacity:1; fill:none" points="2352.76,480.344 2333.86,480.344 "/>
<polyline clip-path="url(#clip820)" style="stroke:#000000; stroke-linecap:round; stroke-linejoin:round; stroke-width:4; stroke-opacity:1; fill:none" points="2352.76,307.842 2333.86,307.842 "/>
<polyline clip-path="url(#clip820)" style="stroke:#000000; stroke-linecap:round; stroke-linejoin:round; stroke-width:4; stroke-opacity:1; fill:none" points="2352.76,135.341 2333.86,135.341 "/>
<path clip-path="url(#clip820)" d="M126.718 1362.64 L134.357 1362.64 L134.357 1336.28 L126.047 1337.94 L126.047 1333.68 L134.311 1332.02 L138.986 1332.02 L138.986 1362.64 L146.625 1362.64 L146.625 1366.58 L126.718 1366.58 L126.718 1362.64 Z" fill="#000000" fill-rule="nonzero" fill-opacity="1" /><path clip-path="url(#clip820)" d="M166.07 1335.1 Q162.459 1335.1 160.63 1338.66 Q158.824 1342.2 158.824 1349.33 Q158.824 1356.44 160.63 1360 Q162.459 1363.54 166.07 1363.54 Q169.704 1363.54 171.509 1360 Q173.338 1356.44 173.338 1349.33 Q173.338 1342.2 171.509 1338.66 Q169.704 1335.1 166.07 1335.1 M166.07 1331.39 Q171.88 1331.39 174.935 1336 Q178.014 1340.58 178.014 1349.33 Q178.014 1358.06 174.935 1362.66 Q171.88 1367.25 166.07 1367.25 Q160.26 1367.25 157.181 1362.66 Q154.125 1358.06 154.125 1349.33 Q154.125 1340.58 157.181 1336 Q160.26 1331.39 166.07 1331.39 Z" fill="#000000" fill-rule="nonzero" fill-opacity="1" /><path clip-path="url(#clip820)" d="M178.014 1325.49 L202.126 1325.49 L202.126 1328.69 L178.014 1328.69 L178.014 1325.49 Z" fill="#000000" fill-rule="nonzero" fill-opacity="1" /><path clip-path="url(#clip820)" d="M210.984 1335.97 L217.191 1335.97 L217.191 1314.55 L210.439 1315.9 L210.439 1312.44 L217.153 1311.09 L220.952 1311.09 L220.952 1335.97 L227.159 1335.97 L227.159 1339.17 L210.984 1339.17 L210.984 1335.97 Z" fill="#000000" fill-rule="nonzero" fill-opacity="1" /><path clip-path="url(#clip820)" d="M234.87 1311.09 L249.785 1311.09 L249.785 1314.28 L238.349 1314.28 L238.349 1321.17 Q239.177 1320.88 240.004 1320.75 Q240.832 1320.6 241.66 1320.6 Q246.362 1320.6 249.107 1323.18 Q251.853 1325.76 251.853 1330.16 Q251.853 1334.69 249.032 1337.21 Q246.211 1339.71 241.077 1339.71 Q239.309 1339.71 237.465 1339.41 Q235.641 1339.11 233.685 1338.51 L233.685 1334.69 Q235.378 1335.61 237.183 1336.06 Q238.989 1336.51 241.001 1336.51 Q244.255 1336.51 246.155 1334.8 Q248.054 1333.09 248.054 1330.16 Q248.054 1327.22 246.155 1325.51 Q244.255 1323.8 241.001 1323.8 Q239.478 1323.8 237.954 1324.14 Q236.45 1324.48 234.87 1325.19 L234.87 1311.09 Z" fill="#000000" fill-rule="nonzero" fill-opacity="1" /><path clip-path="url(#clip820)" d="M126.436 1190.14 L134.075 1190.14 L134.075 1163.77 L125.765 1165.44 L125.765 1161.18 L134.028 1159.52 L138.704 1159.52 L138.704 1190.14 L146.343 1190.14 L146.343 1194.08 L126.436 1194.08 L126.436 1190.14 Z" fill="#000000" fill-rule="nonzero" fill-opacity="1" /><path clip-path="url(#clip820)" d="M165.788 1162.59 Q162.176 1162.59 160.348 1166.16 Q158.542 1169.7 158.542 1176.83 Q158.542 1183.94 160.348 1187.5 Q162.176 1191.04 165.788 1191.04 Q169.422 1191.04 171.227 1187.5 Q173.056 1183.94 173.056 1176.83 Q173.056 1169.7 171.227 1166.16 Q169.422 1162.59 165.788 1162.59 M165.788 1158.89 Q171.598 1158.89 174.653 1163.5 Q177.732 1168.08 177.732 1176.83 Q177.732 1185.56 174.653 1190.16 Q171.598 1194.75 165.788 1194.75 Q159.977 1194.75 156.899 1190.16 Q153.843 1185.56 153.843 1176.83 Q153.843 1168.08 156.899 1163.5 Q159.977 1158.89 165.788 1158.89 Z" fill="#000000" fill-rule="nonzero" fill-opacity="1" /><path clip-path="url(#clip820)" d="M177.732 1152.99 L201.844 1152.99 L201.844 1156.19 L177.732 1156.19 L177.732 1152.99 Z" fill="#000000" fill-rule="nonzero" fill-opacity="1" /><path clip-path="url(#clip820)" d="M210.702 1163.47 L216.909 1163.47 L216.909 1142.05 L210.157 1143.4 L210.157 1139.94 L216.871 1138.59 L220.67 1138.59 L220.67 1163.47 L226.877 1163.47 L226.877 1166.67 L210.702 1166.67 L210.702 1163.47 Z" fill="#000000" fill-rule="nonzero" fill-opacity="1" /><path clip-path="url(#clip820)" d="M246.061 1151.52 Q248.788 1152.11 250.311 1153.95 Q251.853 1155.79 251.853 1158.5 Q251.853 1162.66 248.995 1164.93 Q246.136 1167.21 240.87 1167.21 Q239.102 1167.21 237.221 1166.85 Q235.359 1166.51 233.365 1165.82 L233.365 1162.15 Q234.945 1163.07 236.826 1163.54 Q238.707 1164.01 240.757 1164.01 Q244.33 1164.01 246.192 1162.6 Q248.073 1161.19 248.073 1158.5 Q248.073 1156.02 246.324 1154.63 Q244.594 1153.22 241.49 1153.22 L238.218 1153.22 L238.218 1150.1 L241.641 1150.1 Q244.443 1150.1 245.929 1148.99 Q247.415 1147.86 247.415 1145.75 Q247.415 1143.59 245.873 1142.44 Q244.349 1141.27 241.49 1141.27 Q239.929 1141.27 238.143 1141.61 Q236.356 1141.95 234.212 1142.67 L234.212 1139.28 Q236.375 1138.68 238.255 1138.38 Q240.155 1138.08 241.829 1138.08 Q246.155 1138.08 248.675 1140.05 Q251.195 1142.01 251.195 1145.36 Q251.195 1147.69 249.86 1149.31 Q248.524 1150.9 246.061 1151.52 Z" fill="#000000" fill-rule="nonzero" fill-opacity="1" /><path clip-path="url(#clip820)" d="M126.906 1017.64 L134.545 1017.64 L134.545 991.274 L126.235 992.94 L126.235 988.681 L134.499 987.014 L139.175 987.014 L139.175 1017.64 L146.813 1017.64 L146.813 1021.57 L126.906 1021.57 L126.906 1017.64 Z" fill="#000000" fill-rule="nonzero" fill-opacity="1" /><path clip-path="url(#clip820)" d="M166.258 990.093 Q162.647 990.093 160.818 993.658 Q159.012 997.2 159.012 1004.33 Q159.012 1011.44 160.818 1015 Q162.647 1018.54 166.258 1018.54 Q169.892 1018.54 171.698 1015 Q173.526 1011.44 173.526 1004.33 Q173.526 997.2 171.698 993.658 Q169.892 990.093 166.258 990.093 M166.258 986.389 Q172.068 986.389 175.123 990.996 Q178.202 995.579 178.202 1004.33 Q178.202 1013.06 175.123 1017.66 Q172.068 1022.25 166.258 1022.25 Q160.448 1022.25 157.369 1017.66 Q154.313 1013.06 154.313 1004.33 Q154.313 995.579 157.369 990.996 Q160.448 986.389 166.258 986.389 Z" fill="#000000" fill-rule="nonzero" fill-opacity="1" /><path clip-path="url(#clip820)" d="M178.202 980.491 L202.314 980.491 L202.314 983.688 L178.202 983.688 L178.202 980.491 Z" fill="#000000" fill-rule="nonzero" fill-opacity="1" /><path clip-path="url(#clip820)" d="M211.172 990.967 L217.379 990.967 L217.379 969.545 L210.627 970.899 L210.627 967.438 L217.341 966.084 L221.14 966.084 L221.14 990.967 L227.347 990.967 L227.347 994.164 L211.172 994.164 L211.172 990.967 Z" fill="#000000" fill-rule="nonzero" fill-opacity="1" /><path clip-path="url(#clip820)" d="M235.679 990.967 L241.885 990.967 L241.885 969.545 L235.133 970.899 L235.133 967.438 L241.848 966.084 L245.647 966.084 L245.647 990.967 L251.853 990.967 L251.853 994.164 L235.679 994.164 L235.679 990.967 Z" fill="#000000" fill-rule="nonzero" fill-opacity="1" /><path clip-path="url(#clip820)" d="M150.566 845.138 L158.205 845.138 L158.205 818.773 L149.895 820.439 L149.895 816.18 L158.159 814.513 L162.835 814.513 L162.835 845.138 L170.474 845.138 L170.474 849.073 L150.566 849.073 L150.566 845.138 Z" fill="#000000" fill-rule="nonzero" fill-opacity="1" /><path clip-path="url(#clip820)" d="M189.918 817.592 Q186.307 817.592 184.478 821.157 Q182.673 824.698 182.673 831.828 Q182.673 838.934 184.478 842.499 Q186.307 846.041 189.918 846.041 Q193.552 846.041 195.358 842.499 Q197.186 838.934 197.186 831.828 Q197.186 824.698 195.358 821.157 Q193.552 817.592 189.918 817.592 M189.918 813.888 Q195.728 813.888 198.784 818.495 Q201.862 823.078 201.862 831.828 Q201.862 840.555 198.784 845.161 Q195.728 849.745 189.918 849.745 Q184.108 849.745 181.029 845.161 Q177.974 840.555 177.974 831.828 Q177.974 823.078 181.029 818.495 Q184.108 813.888 189.918 813.888 Z" fill="#000000" fill-rule="nonzero" fill-opacity="1" /><path clip-path="url(#clip820)" d="M201.862 807.99 L225.974 807.99 L225.974 811.187 L201.862 811.187 L201.862 807.99 Z" fill="#000000" fill-rule="nonzero" fill-opacity="1" /><path clip-path="url(#clip820)" d="M234.287 821.08 L234.287 817.619 Q235.716 818.296 237.183 818.654 Q238.65 819.011 240.061 819.011 Q243.822 819.011 245.797 816.491 Q247.791 813.952 248.073 808.798 Q246.982 810.416 245.308 811.281 Q243.634 812.146 241.603 812.146 Q237.39 812.146 234.926 809.607 Q232.481 807.049 232.481 802.629 Q232.481 798.304 235.039 795.689 Q237.597 793.075 241.848 793.075 Q246.719 793.075 249.277 796.818 Q251.853 800.542 251.853 807.651 Q251.853 814.29 248.694 818.259 Q245.553 822.208 240.23 822.208 Q238.801 822.208 237.334 821.926 Q235.867 821.644 234.287 821.08 M241.848 809.175 Q244.405 809.175 245.891 807.425 Q247.396 805.676 247.396 802.629 Q247.396 799.601 245.891 797.852 Q244.405 796.084 241.848 796.084 Q239.29 796.084 237.785 797.852 Q236.299 799.601 236.299 802.629 Q236.299 805.676 237.785 807.425 Q239.29 809.175 241.848 809.175 Z" fill="#000000" fill-rule="nonzero" fill-opacity="1" /><path clip-path="url(#clip820)" d="M151.149 672.637 L158.788 672.637 L158.788 646.271 L150.478 647.938 L150.478 643.679 L158.742 642.012 L163.418 642.012 L163.418 672.637 L171.057 672.637 L171.057 676.572 L151.149 676.572 L151.149 672.637 Z" fill="#000000" fill-rule="nonzero" fill-opacity="1" /><path clip-path="url(#clip820)" d="M190.501 645.091 Q186.89 645.091 185.061 648.656 Q183.256 652.197 183.256 659.327 Q183.256 666.433 185.061 669.998 Q186.89 673.54 190.501 673.54 Q194.135 673.54 195.941 669.998 Q197.769 666.433 197.769 659.327 Q197.769 652.197 195.941 648.656 Q194.135 645.091 190.501 645.091 M190.501 641.387 Q196.311 641.387 199.367 645.994 Q202.445 650.577 202.445 659.327 Q202.445 668.054 199.367 672.66 Q196.311 677.244 190.501 677.244 Q184.691 677.244 181.612 672.66 Q178.557 668.054 178.557 659.327 Q178.557 650.577 181.612 645.994 Q184.691 641.387 190.501 641.387 Z" fill="#000000" fill-rule="nonzero" fill-opacity="1" /><path clip-path="url(#clip820)" d="M202.445 635.489 L226.557 635.489 L226.557 638.686 L202.445 638.686 L202.445 635.489 Z" fill="#000000" fill-rule="nonzero" fill-opacity="1" /><path clip-path="url(#clip820)" d="M233.798 621.082 L251.853 621.082 L251.853 622.699 L241.66 649.162 L237.691 649.162 L247.283 624.279 L233.798 624.279 L233.798 621.082 Z" fill="#000000" fill-rule="nonzero" fill-opacity="1" /><path clip-path="url(#clip820)" d="M151.225 500.136 L158.863 500.136 L158.863 473.77 L150.553 475.437 L150.553 471.178 L158.817 469.511 L163.493 469.511 L163.493 500.136 L171.132 500.136 L171.132 504.071 L151.225 504.071 L151.225 500.136 Z" fill="#000000" fill-rule="nonzero" fill-opacity="1" /><path clip-path="url(#clip820)" d="M190.576 472.59 Q186.965 472.59 185.136 476.155 Q183.331 479.696 183.331 486.826 Q183.331 493.932 185.136 497.497 Q186.965 501.039 190.576 501.039 Q194.21 501.039 196.016 497.497 Q197.845 493.932 197.845 486.826 Q197.845 479.696 196.016 476.155 Q194.21 472.59 190.576 472.59 M190.576 468.886 Q196.386 468.886 199.442 473.493 Q202.521 478.076 202.521 486.826 Q202.521 495.553 199.442 500.159 Q196.386 504.742 190.576 504.742 Q184.766 504.742 181.687 500.159 Q178.632 495.553 178.632 486.826 Q178.632 478.076 181.687 473.493 Q184.766 468.886 190.576 468.886 Z" fill="#000000" fill-rule="nonzero" fill-opacity="1" /><path clip-path="url(#clip820)" d="M202.521 462.988 L226.632 462.988 L226.632 466.185 L202.521 466.185 L202.521 462.988 Z" fill="#000000" fill-rule="nonzero" fill-opacity="1" /><path clip-path="url(#clip820)" d="M234.87 448.581 L249.785 448.581 L249.785 451.778 L238.349 451.778 L238.349 458.662 Q239.177 458.38 240.004 458.248 Q240.832 458.097 241.66 458.097 Q246.362 458.097 249.107 460.674 Q251.853 463.251 251.853 467.652 Q251.853 472.185 249.032 474.705 Q246.211 477.206 241.077 477.206 Q239.309 477.206 237.465 476.905 Q235.641 476.604 233.685 476.002 L233.685 472.185 Q235.378 473.106 237.183 473.557 Q238.989 474.009 241.001 474.009 Q244.255 474.009 246.155 472.297 Q248.054 470.586 248.054 467.652 Q248.054 464.718 246.155 463.006 Q244.255 461.295 241.001 461.295 Q239.478 461.295 237.954 461.633 Q236.45 461.972 234.87 462.687 L234.87 448.581 Z" fill="#000000" fill-rule="nonzero" fill-opacity="1" /><path clip-path="url(#clip820)" d="M150.942 327.635 L158.581 327.635 L158.581 301.269 L150.271 302.936 L150.271 298.677 L158.535 297.01 L163.211 297.01 L163.211 327.635 L170.85 327.635 L170.85 331.57 L150.942 331.57 L150.942 327.635 Z" fill="#000000" fill-rule="nonzero" fill-opacity="1" /><path clip-path="url(#clip820)" d="M190.294 300.089 Q186.683 300.089 184.854 303.654 Q183.049 307.195 183.049 314.325 Q183.049 321.431 184.854 324.996 Q186.683 328.538 190.294 328.538 Q193.928 328.538 195.734 324.996 Q197.563 321.431 197.563 314.325 Q197.563 307.195 195.734 303.654 Q193.928 300.089 190.294 300.089 M190.294 296.385 Q196.104 296.385 199.16 300.992 Q202.238 305.575 202.238 314.325 Q202.238 323.052 199.16 327.658 Q196.104 332.241 190.294 332.241 Q184.484 332.241 181.405 327.658 Q178.35 323.052 178.35 314.325 Q178.35 305.575 181.405 300.992 Q184.484 296.385 190.294 296.385 Z" fill="#000000" fill-rule="nonzero" fill-opacity="1" /><path clip-path="url(#clip820)" d="M202.238 290.486 L226.35 290.486 L226.35 293.684 L202.238 293.684 L202.238 290.486 Z" fill="#000000" fill-rule="nonzero" fill-opacity="1" /><path clip-path="url(#clip820)" d="M246.061 289.019 Q248.788 289.602 250.311 291.446 Q251.853 293.289 251.853 295.997 Q251.853 300.154 248.995 302.429 Q246.136 304.705 240.87 304.705 Q239.102 304.705 237.221 304.348 Q235.359 304.009 233.365 303.313 L233.365 299.646 Q234.945 300.567 236.826 301.038 Q238.707 301.508 240.757 301.508 Q244.33 301.508 246.192 300.097 Q248.073 298.687 248.073 295.997 Q248.073 293.515 246.324 292.123 Q244.594 290.712 241.49 290.712 L238.218 290.712 L238.218 287.59 L241.641 287.59 Q244.443 287.59 245.929 286.48 Q247.415 285.352 247.415 283.245 Q247.415 281.083 245.873 279.935 Q244.349 278.769 241.49 278.769 Q239.929 278.769 238.143 279.108 Q236.356 279.446 234.212 280.161 L234.212 276.776 Q236.375 276.174 238.255 275.873 Q240.155 275.572 241.829 275.572 Q246.155 275.572 248.675 277.547 Q251.195 279.503 251.195 282.85 Q251.195 285.183 249.86 286.8 Q248.524 288.399 246.061 289.019 Z" fill="#000000" fill-rule="nonzero" fill-opacity="1" /><path clip-path="url(#clip820)" d="M151.413 155.134 L159.051 155.134 L159.051 128.768 L150.741 130.435 L150.741 126.176 L159.005 124.509 L163.681 124.509 L163.681 155.134 L171.32 155.134 L171.32 159.069 L151.413 159.069 L151.413 155.134 Z" fill="#000000" fill-rule="nonzero" fill-opacity="1" /><path clip-path="url(#clip820)" d="M190.764 127.588 Q187.153 127.588 185.325 131.153 Q183.519 134.694 183.519 141.824 Q183.519 148.93 185.325 152.495 Q187.153 156.037 190.764 156.037 Q194.399 156.037 196.204 152.495 Q198.033 148.93 198.033 141.824 Q198.033 134.694 196.204 131.153 Q194.399 127.588 190.764 127.588 M190.764 123.884 Q196.574 123.884 199.63 128.49 Q202.709 133.074 202.709 141.824 Q202.709 150.551 199.63 155.157 Q196.574 159.74 190.764 159.74 Q184.954 159.74 181.875 155.157 Q178.82 150.551 178.82 141.824 Q178.82 133.074 181.875 128.49 Q184.954 123.884 190.764 123.884 Z" fill="#000000" fill-rule="nonzero" fill-opacity="1" /><path clip-path="url(#clip820)" d="M202.709 117.985 L226.82 117.985 L226.82 121.183 L202.709 121.183 L202.709 117.985 Z" fill="#000000" fill-rule="nonzero" fill-opacity="1" /><path clip-path="url(#clip820)" d="M235.679 128.461 L241.885 128.461 L241.885 107.039 L235.133 108.393 L235.133 104.933 L241.848 103.579 L245.647 103.579 L245.647 128.461 L251.853 128.461 L251.853 131.659 L235.679 131.659 L235.679 128.461 Z" fill="#000000" fill-rule="nonzero" fill-opacity="1" /><path clip-path="url(#clip820)" d="M42.6931 1124.7 L40.6319 1124.7 Q40.6319 1116.78 36.413 1112.69 Q36.413 1111.56 36.6706 1111.37 Q36.9282 1111.18 38.1199 1111.18 L75.1244 1111.18 Q77.089 1111.18 77.7009 1110.21 Q78.3128 1109.25 78.3128 1105.03 L78.3128 1102.93 L80.3417 1102.93 Q80.1485 1105.25 80.1485 1113.63 Q80.1485 1122 80.3417 1124.29 L78.3128 1124.29 L78.3128 1122.19 Q78.3128 1118.04 77.7331 1117.04 Q77.1212 1116.04 75.1244 1116.04 L40.954 1116.04 Q42.6931 1119.49 42.6931 1124.7 Z" fill="#000000" fill-rule="nonzero" fill-opacity="1" /><path clip-path="url(#clip820)" d="M62.9184 1030.2 Q63.3048 1029.81 63.8523 1029.81 Q64.3998 1029.81 64.7863 1030.2 Q65.1728 1030.58 65.1728 1031.13 L65.1728 1072.42 Q65.1728 1072.96 64.7863 1073.35 Q64.3998 1073.74 63.8523 1073.74 Q63.3048 1073.74 62.9184 1073.35 Q62.5319 1072.96 62.5319 1072.42 L62.5319 1031.13 Q62.5319 1030.58 62.9184 1030.2 Z" fill="#000000" fill-rule="nonzero" fill-opacity="1" /><path clip-path="url(#clip820)" d="M94.8022 1004.62 L33.3856 1004.62 Q30.938 1004.62 30.938 1003.3 Q30.938 1001.98 32.9025 1001.98 L94.3191 1001.98 Q96.7667 1001.98 96.7667 1003.3 Q96.7667 1004.62 94.8022 1004.62 Z" fill="#000000" fill-rule="nonzero" fill-opacity="1" /><path clip-path="url(#clip820)" d="M95.5107 962.484 Q96.0582 962.484 96.4447 962.87 Q96.8311 963.257 96.8311 963.804 Q96.8311 964.738 95.9616 965.06 L64.3032 977.331 Q64.1744 977.395 63.8523 977.395 Q63.5303 977.395 63.4015 977.331 L31.7431 965.06 Q30.8735 964.738 30.8735 963.804 Q30.8735 963.257 31.26 962.87 Q31.6465 962.484 32.194 962.484 Q32.516 962.484 32.6449 962.548 L63.8523 974.69 L95.0598 962.548 Q95.1886 962.484 95.5107 962.484 Z" fill="#000000" fill-rule="nonzero" fill-opacity="1" /><path clip-path="url(#clip820)" d="M37.2825 904.178 L48.6834 905.499 Q49.714 905.595 50.036 905.756 Q50.3259 905.917 50.3259 906.433 Q50.3259 906.819 50.1004 907.045 Q49.8428 907.238 49.5529 907.238 Q49.3919 907.238 48.9732 907.206 Q48.5546 907.174 48.3613 907.174 Q46.3646 906.884 44.8509 906.884 Q42.049 906.884 40.5353 907.721 Q38.9894 908.558 38.2809 910.716 Q37.5402 912.874 37.5402 916.932 L37.5402 926.207 Q37.5402 928.333 37.9266 928.848 Q38.3131 929.331 40.1166 929.782 L55.9941 933.743 L55.9941 927.528 Q55.9941 925.209 55.7043 923.824 Q55.4144 922.407 54.6093 921.473 Q53.7719 920.507 52.6447 919.991 Q51.5175 919.444 49.4885 918.896 Q48.8122 918.735 48.5546 918.574 Q48.2969 918.381 48.2969 917.962 Q48.2969 917.64 48.5224 917.415 Q48.7156 917.19 49.0054 917.19 L64.4321 920.958 Q65.205 921.151 65.4948 921.344 Q65.7525 921.537 65.7525 921.924 Q65.7525 922.342 65.527 922.568 Q65.3016 922.793 65.044 922.793 Q64.7863 922.793 64.3032 922.6 Q62.2098 922.117 61.0826 922.117 Q60.4385 922.117 60.1165 922.181 Q59.7944 922.214 59.3435 922.504 Q58.8604 922.761 58.635 923.341 Q58.4096 923.921 58.2485 925.016 Q58.0553 926.111 58.0553 927.753 L58.0553 934.259 L76.0584 938.767 Q77.25 939.09 77.572 939.09 Q77.9263 939.09 78.0551 938.929 Q78.1517 938.735 78.2162 938.22 Q78.3128 937.64 78.3128 936.771 L78.3128 927.141 Q78.3128 925.016 78.1195 923.309 Q77.9263 921.602 77.4432 920.185 Q76.9601 918.735 76.4126 917.64 Q75.8651 916.545 74.8667 915.515 Q73.8362 914.484 72.9344 913.776 Q72.0004 913.035 70.4223 912.165 Q68.8443 911.296 67.556 910.684 Q66.2356 910.072 64.11 909.138 Q63.3371 908.88 63.3371 908.269 Q63.3371 907.914 63.5303 907.721 Q63.6913 907.528 63.8523 907.496 L64.0456 907.496 Q64.6575 907.689 64.9796 907.818 L79.2145 913.872 Q80.0197 914.227 80.1807 914.516 Q80.3417 914.806 80.3417 915.934 L80.3417 950.168 Q80.3417 950.941 80.3095 951.263 Q80.2773 951.553 80.1163 951.779 Q79.9231 952.004 79.5366 952.004 Q78.9247 952.004 78.667 951.746 Q78.3772 951.489 78.345 951.199 Q78.3128 950.909 78.3128 950.168 Q78.3128 948.558 78.2162 947.592 Q78.1195 946.626 77.9907 946.014 Q77.8297 945.37 77.3788 945.048 Q76.9279 944.693 76.5415 944.532 Q76.1228 944.371 75.1888 944.146 L40.3099 935.45 Q39.1182 935.128 38.7318 935.128 Q38.3131 935.128 38.0555 935.418 Q37.7978 935.676 37.7012 936.384 Q37.5724 937.093 37.5724 937.672 Q37.5402 938.22 37.5402 939.412 Q37.5402 940.185 37.508 940.507 Q37.4757 940.796 37.3147 941.022 Q37.1537 941.247 36.7994 941.247 Q35.8977 941.247 35.7044 940.861 Q35.479 940.442 35.479 939.283 L35.479 905.982 Q35.479 904.661 35.7688 904.372 Q36.0265 904.05 37.2825 904.178 Z" fill="#000000" fill-rule="nonzero" fill-opacity="1" /><path clip-path="url(#clip820)" d="M98.6183 897.48 Q97.7842 897.48 97.5362 897.412 Q97.2882 897.322 96.905 896.961 L87.0306 888.101 Q81.575 883.254 76.8182 883.254 Q73.7296 883.254 71.5203 884.878 Q69.311 886.478 69.311 889.431 Q69.311 891.46 70.5509 893.174 Q71.7908 894.887 74.0001 895.676 Q73.9551 895.541 73.9551 895.067 Q73.9551 893.918 74.6765 893.287 Q75.3979 892.633 76.3673 892.633 Q77.6072 892.633 78.2159 893.444 Q78.802 894.233 78.802 895.022 Q78.802 895.338 78.7344 895.766 Q78.6668 896.172 78.0355 896.826 Q77.3818 897.48 76.232 897.48 Q73.0082 897.48 70.4382 895.045 Q67.8682 892.588 67.8682 888.845 Q67.8682 884.607 70.3931 881.834 Q72.8955 879.039 76.8182 879.039 Q78.1934 879.039 79.4558 879.467 Q80.6957 879.873 81.6651 880.436 Q82.6345 880.977 84.1901 882.465 Q85.7456 883.953 86.8503 885.148 Q87.9549 886.343 90.2995 889.026 L95.0563 893.918 L95.0563 885.599 Q95.0563 881.541 94.6956 881.225 Q94.0419 880.775 90.5926 880.211 L90.5926 879.039 L98.6183 880.346 L98.6183 897.48 Z" fill="#000000" fill-rule="nonzero" fill-opacity="1" /><path clip-path="url(#clip820)" d="M63.8523 867.575 Q52.7091 867.575 43.7237 863.42 Q39.9556 861.649 36.7994 859.169 Q33.6432 856.689 32.2584 855.047 Q30.8735 853.404 30.8735 852.953 Q30.8735 852.309 31.5177 852.277 Q31.8397 852.277 32.6449 853.147 Q43.466 863.775 63.8523 863.742 Q84.3031 863.742 94.7056 853.404 Q95.8328 852.277 96.187 852.277 Q96.8311 852.277 96.8311 852.953 Q96.8311 853.404 95.5107 854.982 Q94.1903 856.56 91.1629 859.008 Q88.1356 861.456 84.4319 863.227 Q75.4465 867.575 63.8523 867.575 Z" fill="#000000" fill-rule="nonzero" fill-opacity="1" /><path clip-path="url(#clip820)" d="M36.0265 799.187 Q37.3469 799.187 37.3469 800.282 Q37.4113 802.215 37.7978 803.535 Q38.1521 804.856 38.8606 805.629 Q39.5691 806.369 40.3421 806.788 Q41.0828 807.174 42.21 807.432 L65.6237 813.294 Q72.2259 814.968 77.0245 820.379 Q81.791 825.789 81.791 831.941 Q81.791 835.451 80.3417 838.382 Q78.8925 841.28 75.9617 843.084 Q73.031 844.887 69.1341 844.887 Q67.2662 844.887 65.3016 844.404 L49.0054 840.411 L43.2084 838.929 Q38.925 837.834 38.5385 837.834 Q37.9266 837.834 37.7656 838.221 Q37.5724 838.575 37.4757 839.606 L37.3469 842.118 Q37.3469 842.891 37.3147 843.213 Q37.2825 843.503 37.1215 843.728 Q36.9605 843.953 36.6062 843.953 Q36.1553 843.953 35.8655 843.857 Q35.5434 843.728 35.4468 843.503 Q35.3502 843.277 35.318 843.116 Q35.2857 842.955 35.2857 842.697 L35.479 834.195 L35.2857 825.757 Q35.2857 824.823 36.0265 824.823 Q36.9605 824.823 37.1537 825.242 Q37.3469 825.661 37.3469 827.078 Q37.3469 829.493 37.669 830.588 Q37.9588 831.651 38.4741 831.973 Q38.9572 832.263 40.3743 832.617 L66.0423 839.026 Q67.3306 839.348 68.6188 839.541 Q69.8748 839.702 70.519 839.702 L71.1631 839.735 Q75.2532 839.735 77.5076 837.48 Q79.762 835.193 79.762 831.683 Q79.762 826.53 75.6719 821.731 Q71.5818 816.901 65.1728 815.258 L41.6303 809.332 Q41.0506 809.139 40.2454 809.139 Q38.9572 809.139 38.1843 810.105 Q37.3791 811.039 37.3469 813.616 Q37.3469 814.807 36.6062 814.807 Q35.9943 814.807 35.7044 814.582 Q35.3824 814.324 35.3502 814.131 Q35.2857 813.905 35.2857 813.616 Q35.2857 812.521 35.3824 810.202 Q35.479 807.883 35.479 806.756 Q35.479 805.629 35.3824 803.374 Q35.2857 801.12 35.2857 800.025 Q35.2857 799.638 35.479 799.445 Q35.64 799.22 35.8332 799.187 L36.0265 799.187 Z" fill="#000000" fill-rule="nonzero" fill-opacity="1" /><path clip-path="url(#clip820)" d="M96.187 794.221 Q95.865 794.221 95.0598 793.384 Q84.2387 782.756 63.8523 782.756 Q43.4016 782.756 33.0635 792.965 Q31.8719 794.221 31.5177 794.221 Q30.8735 794.221 30.8735 793.577 Q30.8735 793.126 32.194 791.548 Q33.5144 789.938 36.5418 787.523 Q39.5691 785.075 43.2728 783.271 Q52.2582 778.924 63.8523 778.924 Q74.9956 778.924 83.981 783.078 Q87.7491 784.849 90.9053 787.329 Q94.0614 789.809 95.4463 791.452 Q96.8311 793.094 96.8311 793.577 Q96.8311 794.221 96.187 794.221 Z" fill="#000000" fill-rule="nonzero" fill-opacity="1" /><path clip-path="url(#clip820)" d="M94.8022 765.198 L33.3856 765.198 Q30.938 765.198 30.938 763.878 Q30.938 762.557 32.9025 762.557 L94.3191 762.557 Q96.7667 762.557 96.7667 763.878 Q96.7667 765.198 94.8022 765.198 Z" fill="#000000" fill-rule="nonzero" fill-opacity="1" /><path clip-path="url(#clip820)" d="M34.9637 694.237 Q35.7044 695.783 36.413 696.685 Q37.4757 698.166 39.5047 699.519 Q41.3727 700.839 44.2068 702.16 Q52.9346 706.024 64.3676 708.826 Q69.1019 710.018 72.097 710.082 Q75.221 710.082 76.5092 709.084 Q77.25 708.633 77.25 707.506 Q77.25 706.218 76.316 705.058 Q75.3498 703.802 72.9022 701.902 L73.804 700.775 Q77.1212 703.158 78.6992 705.123 Q80.9215 707.989 80.9215 710.726 Q80.9215 712.82 79.6976 713.625 Q77.7009 715.203 73.2887 715.074 L75.994 718.327 Q81.4045 725.155 81.4045 731.306 Q81.4045 734.881 78.5704 736.974 Q77.6365 737.715 75.5109 737.844 Q73.5463 737.844 70.7766 737.167 Q65.8169 735.911 58.3773 732.562 Q50.3259 728.923 45.5272 727.763 Q44.0457 727.409 43.2084 727.28 Q42.371 727.119 41.276 727.28 Q40.181 727.409 39.3759 728.021 Q38.9572 728.246 38.6674 728.858 Q38.3775 729.438 38.3775 730.05 Q38.3775 731.081 39.3115 732.433 Q41.0828 734.527 43.7881 735.203 Q44.7865 735.461 47.9426 735.944 L48.5546 737.973 Q45.5272 737.586 43.4016 737.103 Q39.2149 736.072 36.6062 732.82 Q34.706 730.469 34.706 727.28 Q34.706 724.285 36.2841 723.126 Q37.1859 722.417 39.5691 722.288 Q41.9846 722.288 44.5932 722.932 Q49.5851 724.221 58.2485 728.15 Q64.5931 731.081 67.8137 731.853 Q70.8088 732.594 73.3531 732.498 Q75.4787 732.498 76.9279 731.564 Q78.5704 730.308 78.5704 727.828 Q78.5704 724.092 74.5447 719.1 Q72.0326 716.073 70.7122 714.688 Q59.7622 712.015 38.7318 704.543 Q35.8332 699.487 34.223 695.171 L34.9637 694.237 Z" fill="#000000" fill-rule="nonzero" fill-opacity="1" /><path clip-path="url(#clip820)" d="M94.8022 689.391 L33.3856 689.391 Q30.938 689.391 30.938 688.071 Q30.938 686.75 32.9025 686.75 L94.3191 686.75 Q96.7667 686.75 96.7667 688.071 Q96.7667 689.391 94.8022 689.391 Z" fill="#000000" fill-rule="nonzero" fill-opacity="1" /><path clip-path="url(#clip820)" d="M37.2825 614.34 L48.6834 615.661 Q49.714 615.757 50.036 615.918 Q50.3259 616.079 50.3259 616.595 Q50.3259 616.981 50.1004 617.206 Q49.8428 617.4 49.5529 617.4 Q49.3919 617.4 48.9732 617.367 Q48.5546 617.335 48.3613 617.335 Q46.3646 617.045 44.8509 617.045 Q42.049 617.045 40.5353 617.883 Q38.9894 618.72 38.2809 620.878 Q37.5402 623.036 37.5402 627.094 L37.5402 636.369 Q37.5402 638.495 37.9266 639.01 Q38.3131 639.493 40.1166 639.944 L55.9941 643.905 L55.9941 637.689 Q55.9941 635.371 55.7043 633.986 Q55.4144 632.569 54.6093 631.635 Q53.7719 630.668 52.6447 630.153 Q51.5175 629.606 49.4885 629.058 Q48.8122 628.897 48.5546 628.736 Q48.2969 628.543 48.2969 628.124 Q48.2969 627.802 48.5224 627.577 Q48.7156 627.351 49.0054 627.351 L64.4321 631.119 Q65.205 631.313 65.4948 631.506 Q65.7525 631.699 65.7525 632.086 Q65.7525 632.504 65.527 632.73 Q65.3016 632.955 65.044 632.955 Q64.7863 632.955 64.3032 632.762 Q62.2098 632.279 61.0826 632.279 Q60.4385 632.279 60.1165 632.343 Q59.7944 632.375 59.3435 632.665 Q58.8604 632.923 58.635 633.503 Q58.4096 634.082 58.2485 635.177 Q58.0553 636.272 58.0553 637.915 L58.0553 644.42 L76.0584 648.929 Q77.25 649.251 77.572 649.251 Q77.9263 649.251 78.0551 649.09 Q78.1517 648.897 78.2162 648.382 Q78.3128 647.802 78.3128 646.932 L78.3128 637.303 Q78.3128 635.177 78.1195 633.47 Q77.9263 631.763 77.4432 630.346 Q76.9601 628.897 76.4126 627.802 Q75.8651 626.707 74.8667 625.677 Q73.8362 624.646 72.9344 623.937 Q72.0004 623.197 70.4223 622.327 Q68.8443 621.458 67.556 620.846 Q66.2356 620.234 64.11 619.3 Q63.3371 619.042 63.3371 618.43 Q63.3371 618.076 63.5303 617.883 Q63.6913 617.69 63.8523 617.657 L64.0456 617.657 Q64.6575 617.851 64.9796 617.979 L79.2145 624.034 Q80.0197 624.388 80.1807 624.678 Q80.3417 624.968 80.3417 626.095 L80.3417 660.33 Q80.3417 661.103 80.3095 661.425 Q80.2773 661.715 80.1163 661.94 Q79.9231 662.166 79.5366 662.166 Q78.9247 662.166 78.667 661.908 Q78.3772 661.651 78.345 661.361 Q78.3128 661.071 78.3128 660.33 Q78.3128 658.72 78.2162 657.754 Q78.1195 656.787 77.9907 656.176 Q77.8297 655.531 77.3788 655.209 Q76.9279 654.855 76.5415 654.694 Q76.1228 654.533 75.1888 654.308 L40.3099 645.612 Q39.1182 645.29 38.7318 645.29 Q38.3131 645.29 38.0555 645.58 Q37.7978 645.837 37.7012 646.546 Q37.5724 647.255 37.5724 647.834 Q37.5402 648.382 37.5402 649.573 Q37.5402 650.346 37.508 650.668 Q37.4757 650.958 37.3147 651.184 Q37.1537 651.409 36.7994 651.409 Q35.8977 651.409 35.7044 651.023 Q35.479 650.604 35.479 649.445 L35.479 616.144 Q35.479 614.823 35.7688 614.533 Q36.0265 614.211 37.2825 614.34 Z" fill="#000000" fill-rule="nonzero" fill-opacity="1" /><path clip-path="url(#clip820)" d="M98.6183 607.641 Q97.7842 607.641 97.5362 607.574 Q97.2882 607.484 96.905 607.123 L87.0306 598.263 Q81.575 593.416 76.8182 593.416 Q73.7296 593.416 71.5203 595.039 Q69.311 596.64 69.311 599.593 Q69.311 601.622 70.5509 603.336 Q71.7908 605.049 74.0001 605.838 Q73.9551 605.703 73.9551 605.229 Q73.9551 604.079 74.6765 603.448 Q75.3979 602.794 76.3673 602.794 Q77.6072 602.794 78.2159 603.606 Q78.802 604.395 78.802 605.184 Q78.802 605.5 78.7344 605.928 Q78.6668 606.334 78.0355 606.988 Q77.3818 607.641 76.232 607.641 Q73.0082 607.641 70.4382 605.207 Q67.8682 602.749 67.8682 599.007 Q67.8682 594.769 70.3931 591.996 Q72.8955 589.2 76.8182 589.2 Q78.1934 589.2 79.4558 589.629 Q80.6957 590.035 81.6651 590.598 Q82.6345 591.139 84.1901 592.627 Q85.7456 594.115 86.8503 595.31 Q87.9549 596.505 90.2995 599.187 L95.0563 604.079 L95.0563 595.761 Q95.0563 591.703 94.6956 591.387 Q94.0419 590.936 90.5926 590.373 L90.5926 589.2 L98.6183 590.508 L98.6183 607.641 Z" fill="#000000" fill-rule="nonzero" fill-opacity="1" /><path clip-path="url(#clip820)" d="M63.8523 577.737 Q52.7091 577.737 43.7237 573.582 Q39.9556 571.811 36.7994 569.331 Q33.6432 566.851 32.2584 565.209 Q30.8735 563.566 30.8735 563.115 Q30.8735 562.471 31.5177 562.439 Q31.8397 562.439 32.6449 563.308 Q43.466 573.936 63.8523 573.904 Q84.3031 573.904 94.7056 563.566 Q95.8328 562.439 96.187 562.439 Q96.8311 562.439 96.8311 563.115 Q96.8311 563.566 95.5107 565.144 Q94.1903 566.722 91.1629 569.17 Q88.1356 571.617 84.4319 573.389 Q75.4465 577.737 63.8523 577.737 Z" fill="#000000" fill-rule="nonzero" fill-opacity="1" /><path clip-path="url(#clip820)" d="M36.0265 509.349 Q37.3469 509.349 37.3469 510.444 Q37.4113 512.376 37.7978 513.697 Q38.1521 515.017 38.8606 515.79 Q39.5691 516.531 40.3421 516.95 Q41.0828 517.336 42.21 517.594 L65.6237 523.455 Q72.2259 525.13 77.0245 530.541 Q81.791 535.951 81.791 542.102 Q81.791 545.613 80.3417 548.544 Q78.8925 551.442 75.9617 553.246 Q73.031 555.049 69.1341 555.049 Q67.2662 555.049 65.3016 554.566 L49.0054 550.573 L43.2084 549.091 Q38.925 547.996 38.5385 547.996 Q37.9266 547.996 37.7656 548.383 Q37.5724 548.737 37.4757 549.767 L37.3469 552.279 Q37.3469 553.052 37.3147 553.374 Q37.2825 553.664 37.1215 553.89 Q36.9605 554.115 36.6062 554.115 Q36.1553 554.115 35.8655 554.019 Q35.5434 553.89 35.4468 553.664 Q35.3502 553.439 35.318 553.278 Q35.2857 553.117 35.2857 552.859 L35.479 544.357 L35.2857 535.919 Q35.2857 534.985 36.0265 534.985 Q36.9605 534.985 37.1537 535.404 Q37.3469 535.822 37.3469 537.239 Q37.3469 539.655 37.669 540.75 Q37.9588 541.813 38.4741 542.135 Q38.9572 542.425 40.3743 542.779 L66.0423 549.188 Q67.3306 549.51 68.6188 549.703 Q69.8748 549.864 70.519 549.864 L71.1631 549.896 Q75.2532 549.896 77.5076 547.642 Q79.762 545.355 79.762 541.845 Q79.762 536.692 75.6719 531.893 Q71.5818 527.062 65.1728 525.42 L41.6303 519.494 Q41.0506 519.301 40.2454 519.301 Q38.9572 519.301 38.1843 520.267 Q37.3791 521.201 37.3469 523.777 Q37.3469 524.969 36.6062 524.969 Q35.9943 524.969 35.7044 524.743 Q35.3824 524.486 35.3502 524.293 Q35.2857 524.067 35.2857 523.777 Q35.2857 522.682 35.3824 520.363 Q35.479 518.045 35.479 516.917 Q35.479 515.79 35.3824 513.536 Q35.2857 511.281 35.2857 510.186 Q35.2857 509.8 35.479 509.607 Q35.64 509.381 35.8332 509.349 L36.0265 509.349 Z" fill="#000000" fill-rule="nonzero" fill-opacity="1" /><path clip-path="url(#clip820)" d="M70.3257 492.152 Q69.5206 492.088 69.5206 490.832 L69.5206 450.414 Q69.5206 448.514 70.2613 448.481 Q71.0665 448.481 71.0343 450.285 L71.0343 490.381 Q71.0665 492.152 70.3257 492.152 M57.4434 492.152 Q56.6382 492.152 56.6704 490.768 L56.6704 450.478 Q56.6704 448.514 57.4434 448.481 Q58.1841 448.481 58.1841 450.156 L58.1841 490.832 Q58.1841 492.152 57.4434 492.152 Z" fill="#000000" fill-rule="nonzero" fill-opacity="1" /><path clip-path="url(#clip820)" d="M59.2469 423.036 Q49.5529 423.036 44.2712 420.588 Q36.413 417.174 36.413 409.123 Q36.413 407.416 36.896 405.644 Q37.3469 403.841 39.1182 401.586 Q40.8896 399.3 43.7881 397.915 Q49.3919 395.274 59.2469 395.274 Q68.8765 395.274 74.126 397.722 Q81.791 401.297 81.791 409.187 Q81.791 412.15 80.2773 415.177 Q78.7637 418.172 75.1244 420.073 Q69.6816 423.036 59.2469 423.036 M58.4418 417.561 Q68.3934 417.561 72.3547 416.852 Q76.6381 416.047 78.506 413.857 Q80.3417 411.635 80.3417 409.187 Q80.3417 406.546 78.3772 404.356 Q76.3804 402.134 72.097 401.458 Q67.8781 400.717 58.4418 400.749 Q49.2631 400.749 45.5916 401.393 Q41.3082 402.263 39.6013 404.582 Q37.8622 406.868 37.8622 409.187 Q37.8622 410.057 38.1199 410.991 Q38.3775 411.892 39.1182 413.213 Q39.859 414.533 41.6947 415.564 Q43.5304 416.562 46.3002 417.045 Q49.875 417.561 58.4418 417.561 Z" fill="#000000" fill-rule="nonzero" fill-opacity="1" /><path clip-path="url(#clip820)" d="M96.187 388.788 Q95.865 388.788 95.0598 387.95 Q84.2387 377.322 63.8523 377.322 Q43.4016 377.322 33.0635 387.531 Q31.8719 388.788 31.5177 388.788 Q30.8735 388.788 30.8735 388.143 Q30.8735 387.693 32.194 386.114 Q33.5144 384.504 36.5418 382.089 Q39.5691 379.641 43.2728 377.838 Q52.2582 373.49 63.8523 373.49 Q74.9956 373.49 83.981 377.644 Q87.7491 379.416 90.9053 381.895 Q94.0614 384.375 95.4463 386.018 Q96.8311 387.66 96.8311 388.143 Q96.8311 388.788 96.187 388.788 Z" fill="#000000" fill-rule="nonzero" fill-opacity="1" /><path clip-path="url(#clip820)" d="M63.4015 348.645 Q63.5303 348.581 63.8523 348.581 Q64.1744 348.581 64.3032 348.645 L95.9616 360.916 Q96.8311 361.238 96.8311 362.14 Q96.8311 362.687 96.4447 363.074 Q96.0582 363.46 95.5107 363.46 Q95.1886 363.46 95.0598 363.396 L63.8523 351.286 L32.6449 363.396 Q32.516 363.46 32.194 363.46 Q31.6465 363.46 31.26 363.074 Q30.8735 362.687 30.8735 362.14 Q30.8735 361.238 31.7431 360.916 L63.4015 348.645 Z" fill="#000000" fill-rule="nonzero" fill-opacity="1" /><path clip-path="url(#clip820)" d="M94.8022 338.069 L33.3856 338.069 Q30.938 338.069 30.938 336.748 Q30.938 335.428 32.9025 335.428 L94.3191 335.428 Q96.7667 335.428 96.7667 336.748 Q96.7667 338.069 94.8022 338.069 Z" fill="#000000" fill-rule="nonzero" fill-opacity="1" /><path clip-path="url(#clip820)" d="M40.5425 328.42 Q39.7084 328.42 39.4604 328.352 Q39.2124 328.262 38.8292 327.901 L28.9549 319.041 Q23.4992 314.194 18.7424 314.194 Q15.6538 314.194 13.4445 315.817 Q11.2352 317.418 11.2352 320.371 Q11.2352 322.4 12.4751 324.114 Q13.715 325.827 15.9244 326.616 Q15.8793 326.481 15.8793 326.007 Q15.8793 324.858 16.6007 324.226 Q17.3221 323.573 18.2915 323.573 Q19.5314 323.573 20.1401 324.384 Q20.7263 325.173 20.7263 325.962 Q20.7263 326.278 20.6586 326.706 Q20.591 327.112 19.9598 327.766 Q19.306 328.42 18.1562 328.42 Q14.9324 328.42 12.3624 325.985 Q9.79237 323.527 9.79237 319.785 Q9.79237 315.547 12.3173 312.774 Q14.8197 309.978 18.7424 309.978 Q20.1176 309.978 21.38 310.407 Q22.62 310.813 23.5894 311.376 Q24.5588 311.917 26.1143 313.405 Q27.6698 314.893 28.7745 316.088 Q29.8792 317.283 32.2238 319.965 L36.9806 324.858 L36.9806 316.539 Q36.9806 312.481 36.6199 312.165 Q35.9661 311.714 32.5168 311.151 L32.5168 309.978 L40.5425 311.286 L40.5425 328.42 Z" fill="#000000" fill-rule="nonzero" fill-opacity="1" /><circle clip-path="url(#clip822)" cx="346.294" cy="671.528" r="14.4" fill="#de8f05" fill-rule="evenodd" fill-opacity="1" stroke="#000000" stroke-opacity="1" stroke-width="3.2"/>
<circle clip-path="url(#clip822)" cx="364.208" cy="649.357" r="14.4" fill="#de8f05" fill-rule="evenodd" fill-opacity="1" stroke="#000000" stroke-opacity="1" stroke-width="3.2"/>
<circle clip-path="url(#clip822)" cx="404.537" cy="627.201" r="14.4" fill="#de8f05" fill-rule="evenodd" fill-opacity="1" stroke="#000000" stroke-opacity="1" stroke-width="3.2"/>
<circle clip-path="url(#clip822)" cx="495.539" cy="605.057" r="14.4" fill="#de8f05" fill-rule="evenodd" fill-opacity="1" stroke="#000000" stroke-opacity="1" stroke-width="3.2"/>
<circle clip-path="url(#clip822)" cx="463.044" cy="582.924" r="14.4" fill="#de8f05" fill-rule="evenodd" fill-opacity="1" stroke="#000000" stroke-opacity="1" stroke-width="3.2"/>
<circle clip-path="url(#clip822)" cx="560.56" cy="560.799" r="14.4" fill="#de8f05" fill-rule="evenodd" fill-opacity="1" stroke="#000000" stroke-opacity="1" stroke-width="3.2"/>
<circle clip-path="url(#clip822)" cx="670.62" cy="538.681" r="14.4" fill="#de8f05" fill-rule="evenodd" fill-opacity="1" stroke="#000000" stroke-opacity="1" stroke-width="3.2"/>
<circle clip-path="url(#clip822)" cx="693.453" cy="516.571" r="14.4" fill="#de8f05" fill-rule="evenodd" fill-opacity="1" stroke="#000000" stroke-opacity="1" stroke-width="3.2"/>
<circle clip-path="url(#clip822)" cx="730.9" cy="494.469" r="14.4" fill="#de8f05" fill-rule="evenodd" fill-opacity="1" stroke="#000000" stroke-opacity="1" stroke-width="3.2"/>
<circle clip-path="url(#clip822)" cx="848.821" cy="472.376" r="14.4" fill="#de8f05" fill-rule="evenodd" fill-opacity="1" stroke="#000000" stroke-opacity="1" stroke-width="3.2"/>
<circle clip-path="url(#clip822)" cx="845.605" cy="450.294" r="14.4" fill="#de8f05" fill-rule="evenodd" fill-opacity="1" stroke="#000000" stroke-opacity="1" stroke-width="3.2"/>
<circle clip-path="url(#clip822)" cx="895.282" cy="428.226" r="14.4" fill="#de8f05" fill-rule="evenodd" fill-opacity="1" stroke="#000000" stroke-opacity="1" stroke-width="3.2"/>
<circle clip-path="url(#clip822)" cx="1051.72" cy="406.178" r="14.4" fill="#de8f05" fill-rule="evenodd" fill-opacity="1" stroke="#000000" stroke-opacity="1" stroke-width="3.2"/>
<circle clip-path="url(#clip822)" cx="1093.76" cy="384.156" r="14.4" fill="#de8f05" fill-rule="evenodd" fill-opacity="1" stroke="#000000" stroke-opacity="1" stroke-width="3.2"/>
<circle clip-path="url(#clip822)" cx="1126.49" cy="362.169" r="14.4" fill="#de8f05" fill-rule="evenodd" fill-opacity="1" stroke="#000000" stroke-opacity="1" stroke-width="3.2"/>
<circle clip-path="url(#clip822)" cx="1205.26" cy="340.232" r="14.4" fill="#de8f05" fill-rule="evenodd" fill-opacity="1" stroke="#000000" stroke-opacity="1" stroke-width="3.2"/>
<circle clip-path="url(#clip822)" cx="1194.26" cy="318.365" r="14.4" fill="#de8f05" fill-rule="evenodd" fill-opacity="1" stroke="#000000" stroke-opacity="1" stroke-width="3.2"/>
<circle clip-path="url(#clip822)" cx="1310.11" cy="296.598" r="14.4" fill="#de8f05" fill-rule="evenodd" fill-opacity="1" stroke="#000000" stroke-opacity="1" stroke-width="3.2"/>
<circle clip-path="url(#clip822)" cx="1398.85" cy="274.976" r="14.4" fill="#de8f05" fill-rule="evenodd" fill-opacity="1" stroke="#000000" stroke-opacity="1" stroke-width="3.2"/>
<circle clip-path="url(#clip822)" cx="1431.06" cy="253.566" r="14.4" fill="#de8f05" fill-rule="evenodd" fill-opacity="1" stroke="#000000" stroke-opacity="1" stroke-width="3.2"/>
<circle clip-path="url(#clip822)" cx="1506.4" cy="232.471" r="14.4" fill="#de8f05" fill-rule="evenodd" fill-opacity="1" stroke="#000000" stroke-opacity="1" stroke-width="3.2"/>
<circle clip-path="url(#clip822)" cx="1613.85" cy="211.845" r="14.4" fill="#de8f05" fill-rule="evenodd" fill-opacity="1" stroke="#000000" stroke-opacity="1" stroke-width="3.2"/>
<circle clip-path="url(#clip822)" cx="1639.83" cy="193.606" r="14.4" fill="#de8f05" fill-rule="evenodd" fill-opacity="1" stroke="#000000" stroke-opacity="1" stroke-width="3.2"/>
<circle clip-path="url(#clip822)" cx="1633.41" cy="191.913" r="14.4" fill="#de8f05" fill-rule="evenodd" fill-opacity="1" stroke="#000000" stroke-opacity="1" stroke-width="3.2"/>
<circle clip-path="url(#clip822)" cx="1662.88" cy="183.182" r="14.4" fill="#de8f05" fill-rule="evenodd" fill-opacity="1" stroke="#000000" stroke-opacity="1" stroke-width="3.2"/>
<circle clip-path="url(#clip822)" cx="1694.36" cy="174.466" r="14.4" fill="#de8f05" fill-rule="evenodd" fill-opacity="1" stroke="#000000" stroke-opacity="1" stroke-width="3.2"/>
<circle clip-path="url(#clip822)" cx="1719.05" cy="172.99" r="14.4" fill="#de8f05" fill-rule="evenodd" fill-opacity="1" stroke="#000000" stroke-opacity="1" stroke-width="3.2"/>
<circle clip-path="url(#clip822)" cx="1693.62" cy="167.05" r="14.4" fill="#de8f05" fill-rule="evenodd" fill-opacity="1" stroke="#000000" stroke-opacity="1" stroke-width="3.2"/>
<circle clip-path="url(#clip822)" cx="1702.76" cy="160.652" r="14.4" fill="#de8f05" fill-rule="evenodd" fill-opacity="1" stroke="#000000" stroke-opacity="1" stroke-width="3.2"/>
<circle clip-path="url(#clip822)" cx="1734.89" cy="155.473" r="14.4" fill="#de8f05" fill-rule="evenodd" fill-opacity="1" stroke="#000000" stroke-opacity="1" stroke-width="3.2"/>
<circle clip-path="url(#clip822)" cx="1754.97" cy="155.074" r="14.4" fill="#de8f05" fill-rule="evenodd" fill-opacity="1" stroke="#000000" stroke-opacity="1" stroke-width="3.2"/>
<circle clip-path="url(#clip822)" cx="1759.97" cy="150.166" r="14.4" fill="#de8f05" fill-rule="evenodd" fill-opacity="1" stroke="#000000" stroke-opacity="1" stroke-width="3.2"/>
<circle clip-path="url(#clip822)" cx="1765.1" cy="145.816" r="14.4" fill="#de8f05" fill-rule="evenodd" fill-opacity="1" stroke="#000000" stroke-opacity="1" stroke-width="3.2"/>
<circle clip-path="url(#clip822)" cx="1801.21" cy="141.935" r="14.4" fill="#de8f05" fill-rule="evenodd" fill-opacity="1" stroke="#000000" stroke-opacity="1" stroke-width="3.2"/>
<circle clip-path="url(#clip822)" cx="1794.11" cy="139.801" r="14.4" fill="#de8f05" fill-rule="evenodd" fill-opacity="1" stroke="#000000" stroke-opacity="1" stroke-width="3.2"/>
<circle clip-path="url(#clip822)" cx="1797.03" cy="138.454" r="14.4" fill="#de8f05" fill-rule="evenodd" fill-opacity="1" stroke="#000000" stroke-opacity="1" stroke-width="3.2"/>
<circle clip-path="url(#clip822)" cx="1818.5" cy="135.315" r="14.4" fill="#de8f05" fill-rule="evenodd" fill-opacity="1" stroke="#000000" stroke-opacity="1" stroke-width="3.2"/>
<circle clip-path="url(#clip822)" cx="1780" cy="132.473" r="14.4" fill="#de8f05" fill-rule="evenodd" fill-opacity="1" stroke="#000000" stroke-opacity="1" stroke-width="3.2"/>
<circle clip-path="url(#clip822)" cx="1858.71" cy="129.889" r="14.4" fill="#de8f05" fill-rule="evenodd" fill-opacity="1" stroke="#000000" stroke-opacity="1" stroke-width="3.2"/>
<circle clip-path="url(#clip822)" cx="1827.02" cy="127.531" r="14.4" fill="#de8f05" fill-rule="evenodd" fill-opacity="1" stroke="#000000" stroke-opacity="1" stroke-width="3.2"/>
<circle clip-path="url(#clip822)" cx="1809.79" cy="126.343" r="14.4" fill="#de8f05" fill-rule="evenodd" fill-opacity="1" stroke="#000000" stroke-opacity="1" stroke-width="3.2"/>
<circle clip-path="url(#clip822)" cx="1840.56" cy="125.372" r="14.4" fill="#de8f05" fill-rule="evenodd" fill-opacity="1" stroke="#000000" stroke-opacity="1" stroke-width="3.2"/>
<circle clip-path="url(#clip822)" cx="1838.7" cy="123.388" r="14.4" fill="#de8f05" fill-rule="evenodd" fill-opacity="1" stroke="#000000" stroke-opacity="1" stroke-width="3.2"/>
<circle clip-path="url(#clip822)" cx="1857.94" cy="121.561" r="14.4" fill="#de8f05" fill-rule="evenodd" fill-opacity="1" stroke="#000000" stroke-opacity="1" stroke-width="3.2"/>
<circle clip-path="url(#clip822)" cx="1841.68" cy="119.873" r="14.4" fill="#de8f05" fill-rule="evenodd" fill-opacity="1" stroke="#000000" stroke-opacity="1" stroke-width="3.2"/>
<circle clip-path="url(#clip822)" cx="1863.7" cy="118.31" r="14.4" fill="#de8f05" fill-rule="evenodd" fill-opacity="1" stroke="#000000" stroke-opacity="1" stroke-width="3.2"/>
<circle clip-path="url(#clip822)" cx="1844.55" cy="116.859" r="14.4" fill="#de8f05" fill-rule="evenodd" fill-opacity="1" stroke="#000000" stroke-opacity="1" stroke-width="3.2"/>
<circle clip-path="url(#clip822)" cx="1918.63" cy="115.282" r="14.4" fill="#de8f05" fill-rule="evenodd" fill-opacity="1" stroke="#000000" stroke-opacity="1" stroke-width="3.2"/>
<circle clip-path="url(#clip822)" cx="1879.87" cy="106.55" r="14.4" fill="#de8f05" fill-rule="evenodd" fill-opacity="1" stroke="#000000" stroke-opacity="1" stroke-width="3.2"/>
<circle clip-path="url(#clip822)" cx="1863.91" cy="99.8712" r="14.4" fill="#de8f05" fill-rule="evenodd" fill-opacity="1" stroke="#000000" stroke-opacity="1" stroke-width="3.2"/>
<circle clip-path="url(#clip822)" cx="1897.35" cy="94.8709" r="14.4" fill="#de8f05" fill-rule="evenodd" fill-opacity="1" stroke="#000000" stroke-opacity="1" stroke-width="3.2"/>
<circle clip-path="url(#clip822)" cx="1960.62" cy="91.1719" r="14.4" fill="#de8f05" fill-rule="evenodd" fill-opacity="1" stroke="#000000" stroke-opacity="1" stroke-width="3.2"/>
<circle clip-path="url(#clip822)" cx="1924.35" cy="88.4502" r="14.4" fill="#de8f05" fill-rule="evenodd" fill-opacity="1" stroke="#000000" stroke-opacity="1" stroke-width="3.2"/>
<circle clip-path="url(#clip822)" cx="1956.63" cy="86.4505" r="14.4" fill="#de8f05" fill-rule="evenodd" fill-opacity="1" stroke="#000000" stroke-opacity="1" stroke-width="3.2"/>
<circle clip-path="url(#clip822)" cx="1943.68" cy="84.9802" r="14.4" fill="#de8f05" fill-rule="evenodd" fill-opacity="1" stroke="#000000" stroke-opacity="1" stroke-width="3.2"/>
<circle clip-path="url(#clip822)" cx="1294.15" cy="1281.77" r="14.4" fill="#029e73" fill-rule="evenodd" fill-opacity="1" stroke="#000000" stroke-opacity="1" stroke-width="3.2"/>
<circle clip-path="url(#clip822)" cx="1326.35" cy="1269.4" r="14.4" fill="#029e73" fill-rule="evenodd" fill-opacity="1" stroke="#000000" stroke-opacity="1" stroke-width="3.2"/>
<circle clip-path="url(#clip822)" cx="1358.54" cy="1240.08" r="14.4" fill="#029e73" fill-rule="evenodd" fill-opacity="1" stroke="#000000" stroke-opacity="1" stroke-width="3.2"/>
<circle clip-path="url(#clip822)" cx="1390.71" cy="1319.06" r="14.4" fill="#029e73" fill-rule="evenodd" fill-opacity="1" stroke="#000000" stroke-opacity="1" stroke-width="3.2"/>
<circle clip-path="url(#clip822)" cx="1422.87" cy="1342.85" r="14.4" fill="#029e73" fill-rule="evenodd" fill-opacity="1" stroke="#000000" stroke-opacity="1" stroke-width="3.2"/>
<circle clip-path="url(#clip822)" cx="1455.04" cy="1279.4" r="14.4" fill="#029e73" fill-rule="evenodd" fill-opacity="1" stroke="#000000" stroke-opacity="1" stroke-width="3.2"/>
<circle clip-path="url(#clip822)" cx="1487.17" cy="1303.14" r="14.4" fill="#029e73" fill-rule="evenodd" fill-opacity="1" stroke="#000000" stroke-opacity="1" stroke-width="3.2"/>
<circle clip-path="url(#clip822)" cx="1519.38" cy="1319.06" r="14.4" fill="#029e73" fill-rule="evenodd" fill-opacity="1" stroke="#000000" stroke-opacity="1" stroke-width="3.2"/>
<circle clip-path="url(#clip822)" cx="1551.56" cy="1284.3" r="14.4" fill="#029e73" fill-rule="evenodd" fill-opacity="1" stroke="#000000" stroke-opacity="1" stroke-width="3.2"/>
<circle clip-path="url(#clip822)" cx="1583.88" cy="1244.02" r="14.4" fill="#029e73" fill-rule="evenodd" fill-opacity="1" stroke="#000000" stroke-opacity="1" stroke-width="3.2"/>
<circle clip-path="url(#clip822)" cx="1616.1" cy="1240.08" r="14.4" fill="#029e73" fill-rule="evenodd" fill-opacity="1" stroke="#000000" stroke-opacity="1" stroke-width="3.2"/>
<circle clip-path="url(#clip822)" cx="1648.55" cy="1226.72" r="14.4" fill="#029e73" fill-rule="evenodd" fill-opacity="1" stroke="#000000" stroke-opacity="1" stroke-width="3.2"/>
<circle clip-path="url(#clip822)" cx="1680.93" cy="1309.4" r="14.4" fill="#029e73" fill-rule="evenodd" fill-opacity="1" stroke="#000000" stroke-opacity="1" stroke-width="3.2"/>
<circle clip-path="url(#clip822)" cx="1713.55" cy="1259.66" r="14.4" fill="#029e73" fill-rule="evenodd" fill-opacity="1" stroke="#000000" stroke-opacity="1" stroke-width="3.2"/>
<circle clip-path="url(#clip822)" cx="1746.37" cy="1288.93" r="14.4" fill="#029e73" fill-rule="evenodd" fill-opacity="1" stroke="#000000" stroke-opacity="1" stroke-width="3.2"/>
<circle clip-path="url(#clip822)" cx="1779.69" cy="1229.84" r="14.4" fill="#029e73" fill-rule="evenodd" fill-opacity="1" stroke="#000000" stroke-opacity="1" stroke-width="3.2"/>
<circle clip-path="url(#clip822)" cx="1813.03" cy="1180.33" r="14.4" fill="#029e73" fill-rule="evenodd" fill-opacity="1" stroke="#000000" stroke-opacity="1" stroke-width="3.2"/>
<circle clip-path="url(#clip822)" cx="1847.28" cy="1127.56" r="14.4" fill="#029e73" fill-rule="evenodd" fill-opacity="1" stroke="#000000" stroke-opacity="1" stroke-width="3.2"/>
<circle clip-path="url(#clip822)" cx="1882.32" cy="973.748" r="14.4" fill="#029e73" fill-rule="evenodd" fill-opacity="1" stroke="#000000" stroke-opacity="1" stroke-width="3.2"/>
<circle clip-path="url(#clip822)" cx="1917.88" cy="972.52" r="14.4" fill="#029e73" fill-rule="evenodd" fill-opacity="1" stroke="#000000" stroke-opacity="1" stroke-width="3.2"/>
<circle clip-path="url(#clip822)" cx="1954.83" cy="832.768" r="14.4" fill="#029e73" fill-rule="evenodd" fill-opacity="1" stroke="#000000" stroke-opacity="1" stroke-width="3.2"/>
<circle clip-path="url(#clip822)" cx="1993.58" cy="830.231" r="14.4" fill="#029e73" fill-rule="evenodd" fill-opacity="1" stroke="#000000" stroke-opacity="1" stroke-width="3.2"/>
<circle clip-path="url(#clip822)" cx="2030.85" cy="809.024" r="14.4" fill="#029e73" fill-rule="evenodd" fill-opacity="1" stroke="#000000" stroke-opacity="1" stroke-width="3.2"/>
<circle clip-path="url(#clip822)" cx="2034.8" cy="789.695" r="14.4" fill="#029e73" fill-rule="evenodd" fill-opacity="1" stroke="#000000" stroke-opacity="1" stroke-width="3.2"/>
<circle clip-path="url(#clip822)" cx="2053.18" cy="1083.96" r="14.4" fill="#029e73" fill-rule="evenodd" fill-opacity="1" stroke="#000000" stroke-opacity="1" stroke-width="3.2"/>
<circle clip-path="url(#clip822)" cx="2070.95" cy="1195.52" r="14.4" fill="#029e73" fill-rule="evenodd" fill-opacity="1" stroke="#000000" stroke-opacity="1" stroke-width="3.2"/>
<circle clip-path="url(#clip822)" cx="2075.34" cy="780.22" r="14.4" fill="#029e73" fill-rule="evenodd" fill-opacity="1" stroke="#000000" stroke-opacity="1" stroke-width="3.2"/>
<circle clip-path="url(#clip822)" cx="2089.62" cy="1108.25" r="14.4" fill="#029e73" fill-rule="evenodd" fill-opacity="1" stroke="#000000" stroke-opacity="1" stroke-width="3.2"/>
<circle clip-path="url(#clip822)" cx="2102.52" cy="1094.52" r="14.4" fill="#029e73" fill-rule="evenodd" fill-opacity="1" stroke="#000000" stroke-opacity="1" stroke-width="3.2"/>
<circle clip-path="url(#clip822)" cx="2114.48" cy="1118.16" r="14.4" fill="#029e73" fill-rule="evenodd" fill-opacity="1" stroke="#000000" stroke-opacity="1" stroke-width="3.2"/>
<circle clip-path="url(#clip822)" cx="2114.49" cy="1012.79" r="14.4" fill="#029e73" fill-rule="evenodd" fill-opacity="1" stroke="#000000" stroke-opacity="1" stroke-width="3.2"/>
<circle clip-path="url(#clip822)" cx="2126.98" cy="976.492" r="14.4" fill="#029e73" fill-rule="evenodd" fill-opacity="1" stroke="#000000" stroke-opacity="1" stroke-width="3.2"/>
<circle clip-path="url(#clip822)" cx="2136.4" cy="990.662" r="14.4" fill="#029e73" fill-rule="evenodd" fill-opacity="1" stroke="#000000" stroke-opacity="1" stroke-width="3.2"/>
<circle clip-path="url(#clip822)" cx="2144.6" cy="975.846" r="14.4" fill="#029e73" fill-rule="evenodd" fill-opacity="1" stroke="#000000" stroke-opacity="1" stroke-width="3.2"/>
<circle clip-path="url(#clip822)" cx="2152.79" cy="963.748" r="14.4" fill="#029e73" fill-rule="evenodd" fill-opacity="1" stroke="#000000" stroke-opacity="1" stroke-width="3.2"/>
<circle clip-path="url(#clip822)" cx="2153.2" cy="1042.26" r="14.4" fill="#029e73" fill-rule="evenodd" fill-opacity="1" stroke="#000000" stroke-opacity="1" stroke-width="3.2"/>
<circle clip-path="url(#clip822)" cx="2163.54" cy="914.982" r="14.4" fill="#029e73" fill-rule="evenodd" fill-opacity="1" stroke="#000000" stroke-opacity="1" stroke-width="3.2"/>
<circle clip-path="url(#clip822)" cx="2167.9" cy="907.339" r="14.4" fill="#029e73" fill-rule="evenodd" fill-opacity="1" stroke="#000000" stroke-opacity="1" stroke-width="3.2"/>
<circle clip-path="url(#clip822)" cx="2175.56" cy="898.013" r="14.4" fill="#029e73" fill-rule="evenodd" fill-opacity="1" stroke="#000000" stroke-opacity="1" stroke-width="3.2"/>
<circle clip-path="url(#clip822)" cx="2179.8" cy="877.569" r="14.4" fill="#029e73" fill-rule="evenodd" fill-opacity="1" stroke="#000000" stroke-opacity="1" stroke-width="3.2"/>
<circle clip-path="url(#clip822)" cx="2183.98" cy="904.862" r="14.4" fill="#029e73" fill-rule="evenodd" fill-opacity="1" stroke="#000000" stroke-opacity="1" stroke-width="3.2"/>
<circle clip-path="url(#clip822)" cx="2187.31" cy="911.844" r="14.4" fill="#029e73" fill-rule="evenodd" fill-opacity="1" stroke="#000000" stroke-opacity="1" stroke-width="3.2"/>
<circle clip-path="url(#clip822)" cx="2190.11" cy="873.531" r="14.4" fill="#029e73" fill-rule="evenodd" fill-opacity="1" stroke="#000000" stroke-opacity="1" stroke-width="3.2"/>
<circle clip-path="url(#clip822)" cx="2195.21" cy="904.617" r="14.4" fill="#029e73" fill-rule="evenodd" fill-opacity="1" stroke="#000000" stroke-opacity="1" stroke-width="3.2"/>
<circle clip-path="url(#clip822)" cx="2200.17" cy="890.617" r="14.4" fill="#029e73" fill-rule="evenodd" fill-opacity="1" stroke="#000000" stroke-opacity="1" stroke-width="3.2"/>
<circle clip-path="url(#clip822)" cx="2203.15" cy="956.967" r="14.4" fill="#029e73" fill-rule="evenodd" fill-opacity="1" stroke="#000000" stroke-opacity="1" stroke-width="3.2"/>
<circle clip-path="url(#clip822)" cx="2207.22" cy="881.49" r="14.4" fill="#029e73" fill-rule="evenodd" fill-opacity="1" stroke="#000000" stroke-opacity="1" stroke-width="3.2"/>
<circle clip-path="url(#clip822)" cx="2211.79" cy="986.503" r="14.4" fill="#029e73" fill-rule="evenodd" fill-opacity="1" stroke="#000000" stroke-opacity="1" stroke-width="3.2"/>
<circle clip-path="url(#clip822)" cx="2234.35" cy="894.201" r="14.4" fill="#029e73" fill-rule="evenodd" fill-opacity="1" stroke="#000000" stroke-opacity="1" stroke-width="3.2"/>
<circle clip-path="url(#clip822)" cx="2252.66" cy="914.978" r="14.4" fill="#029e73" fill-rule="evenodd" fill-opacity="1" stroke="#000000" stroke-opacity="1" stroke-width="3.2"/>
<circle clip-path="url(#clip822)" cx="2265.34" cy="955.125" r="14.4" fill="#029e73" fill-rule="evenodd" fill-opacity="1" stroke="#000000" stroke-opacity="1" stroke-width="3.2"/>
<circle clip-path="url(#clip822)" cx="2277.01" cy="944.509" r="14.4" fill="#029e73" fill-rule="evenodd" fill-opacity="1" stroke="#000000" stroke-opacity="1" stroke-width="3.2"/>
<circle clip-path="url(#clip822)" cx="2284.77" cy="1011.76" r="14.4" fill="#029e73" fill-rule="evenodd" fill-opacity="1" stroke="#000000" stroke-opacity="1" stroke-width="3.2"/>
<circle clip-path="url(#clip822)" cx="2290.87" cy="935.108" r="14.4" fill="#029e73" fill-rule="evenodd" fill-opacity="1" stroke="#000000" stroke-opacity="1" stroke-width="3.2"/>
<circle clip-path="url(#clip822)" cx="2294.32" cy="888.215" r="14.4" fill="#029e73" fill-rule="evenodd" fill-opacity="1" stroke="#000000" stroke-opacity="1" stroke-width="3.2"/>
<path clip-path="url(#clip820)" d="M356.683 247.209 L678.962 247.209 L678.962 91.6888 L356.683 91.6888  Z" fill="#ffffff" fill-rule="evenodd" fill-opacity="1"/>
<polyline clip-path="url(#clip820)" style="stroke:#000000; stroke-linecap:round; stroke-linejoin:round; stroke-width:4; stroke-opacity:1; fill:none" points="356.683,247.209 678.962,247.209 678.962,91.6888 356.683,91.6888 356.683,247.209 "/>
<circle clip-path="url(#clip820)" cx="448.457" cy="143.529" r="20.48" fill="#de8f05" fill-rule="evenodd" fill-opacity="1" stroke="#000000" stroke-opacity="1" stroke-width="4.55111"/>
<path clip-path="url(#clip820)" d="M566.229 152.221 Q566.229 152.408 566.018 153.134 Q565.808 153.86 565.292 154.985 Q564.8 156.109 564.121 157.139 Q563.442 158.147 562.318 158.896 Q561.217 159.622 559.952 159.622 Q558.266 159.622 557.141 158.498 Q556.017 157.374 556.017 155.687 Q556.017 154.75 556.509 153.462 Q559.624 145.147 559.624 142.29 Q559.624 138.94 557.024 138.94 Q555.736 138.94 554.518 139.432 Q553.323 139.9 552.504 140.556 Q551.684 141.212 550.934 142.126 Q550.208 143.016 549.834 143.625 Q549.482 144.21 549.201 144.796 L548.592 147.185 Q548.452 147.841 547.772 150.394 L546.718 154.727 Q545.969 157.959 545.805 158.264 Q545.571 158.92 545.055 159.271 Q544.54 159.622 544.025 159.622 Q543.439 159.622 543.041 159.271 Q542.643 158.92 542.643 158.311 Q542.643 158.217 542.713 157.866 Q542.783 157.514 542.901 157.022 Q543.018 156.53 543.064 156.249 L545.852 145.171 Q546.367 143.156 546.484 142.524 Q546.625 141.868 546.625 141.142 Q546.625 138.94 545.126 138.94 Q543.908 138.94 543.111 140.392 Q542.315 141.845 541.636 144.655 Q541.425 145.428 541.284 145.592 Q541.167 145.756 540.816 145.756 Q540.23 145.733 540.23 145.264 Q540.23 145.147 540.418 144.374 Q540.605 143.601 540.956 142.5 Q541.331 141.376 541.683 140.627 Q541.987 140.064 542.151 139.807 Q542.338 139.526 542.783 138.987 Q543.252 138.425 543.861 138.167 Q544.493 137.886 545.266 137.886 Q546.999 137.886 548.264 139.01 Q549.529 140.111 549.693 142.055 Q552.808 137.886 557.165 137.886 Q559.741 137.886 561.217 139.245 Q562.692 140.603 562.692 143.016 Q562.692 143.578 562.575 144.304 Q562.482 145.007 562.247 145.897 Q562.037 146.787 561.849 147.466 Q561.662 148.145 561.287 149.246 Q560.912 150.323 560.748 150.792 Q560.584 151.26 560.186 152.361 Q559.812 153.439 559.765 153.556 Q558.898 155.734 558.898 156.975 Q558.898 157.795 559.156 158.17 Q559.437 158.545 560.046 158.545 Q561.685 158.545 562.903 156.929 Q564.145 155.289 564.941 152.619 Q565.128 152.033 565.222 151.893 Q565.339 151.752 565.667 151.752 Q566.229 151.752 566.229 152.221 Z" fill="#000000" fill-rule="nonzero" fill-opacity="1" /><path clip-path="url(#clip820)" d="M582.016 151.799 Q582.063 151.214 582.977 151.214 L612.372 151.214 Q613.754 151.214 613.777 151.752 Q613.777 152.338 612.466 152.314 L583.305 152.314 Q582.016 152.338 582.016 151.799 M582.016 142.43 Q582.016 141.845 583.024 141.868 L612.325 141.868 Q613.754 141.868 613.777 142.43 Q613.777 142.969 612.559 142.969 L582.977 142.969 Q582.016 142.969 582.016 142.43 Z" fill="#000000" fill-rule="nonzero" fill-opacity="1" /><path clip-path="url(#clip820)" d="M632.268 131.703 L632.268 130.204 Q638.03 130.204 641.005 127.135 Q641.825 127.135 641.965 127.323 Q642.106 127.51 642.106 128.377 L642.106 155.289 Q642.106 156.718 642.808 157.163 Q643.511 157.608 646.579 157.608 L648.102 157.608 L648.102 159.083 Q646.415 158.943 640.326 158.943 Q634.236 158.943 632.573 159.083 L632.573 157.608 L634.095 157.608 Q637.117 157.608 637.843 157.186 Q638.569 156.741 638.569 155.289 L638.569 130.438 Q636.063 131.703 632.268 131.703 Z" fill="#000000" fill-rule="nonzero" fill-opacity="1" /><circle clip-path="url(#clip820)" cx="448.457" cy="195.369" r="20.48" fill="#029e73" fill-rule="evenodd" fill-opacity="1" stroke="#000000" stroke-opacity="1" stroke-width="4.55111"/>
<path clip-path="url(#clip820)" d="M566.229 204.061 Q566.229 204.248 566.018 204.974 Q565.808 205.7 565.292 206.825 Q564.8 207.949 564.121 208.979 Q563.442 209.987 562.318 210.736 Q561.217 211.462 559.952 211.462 Q558.266 211.462 557.141 210.338 Q556.017 209.214 556.017 207.527 Q556.017 206.59 556.509 205.302 Q559.624 196.987 559.624 194.13 Q559.624 190.78 557.024 190.78 Q555.736 190.78 554.518 191.272 Q553.323 191.74 552.504 192.396 Q551.684 193.052 550.934 193.966 Q550.208 194.856 549.834 195.465 Q549.482 196.05 549.201 196.636 L548.592 199.025 Q548.452 199.681 547.772 202.234 L546.718 206.567 Q545.969 209.799 545.805 210.104 Q545.571 210.76 545.055 211.111 Q544.54 211.462 544.025 211.462 Q543.439 211.462 543.041 211.111 Q542.643 210.76 542.643 210.151 Q542.643 210.057 542.713 209.706 Q542.783 209.354 542.901 208.862 Q543.018 208.37 543.064 208.089 L545.852 197.011 Q546.367 194.996 546.484 194.364 Q546.625 193.708 546.625 192.982 Q546.625 190.78 545.126 190.78 Q543.908 190.78 543.111 192.232 Q542.315 193.685 541.636 196.495 Q541.425 197.268 541.284 197.432 Q541.167 197.596 540.816 197.596 Q540.23 197.573 540.23 197.104 Q540.23 196.987 540.418 196.214 Q540.605 195.441 540.956 194.34 Q541.331 193.216 541.683 192.467 Q541.987 191.904 542.151 191.647 Q542.338 191.366 542.783 190.827 Q543.252 190.265 543.861 190.007 Q544.493 189.726 545.266 189.726 Q546.999 189.726 548.264 190.85 Q549.529 191.951 549.693 193.895 Q552.808 189.726 557.165 189.726 Q559.741 189.726 561.217 191.085 Q562.692 192.443 562.692 194.856 Q562.692 195.418 562.575 196.144 Q562.482 196.847 562.247 197.737 Q562.037 198.627 561.849 199.306 Q561.662 199.985 561.287 201.086 Q560.912 202.163 560.748 202.632 Q560.584 203.1 560.186 204.201 Q559.812 205.279 559.765 205.396 Q558.898 207.574 558.898 208.815 Q558.898 209.635 559.156 210.01 Q559.437 210.385 560.046 210.385 Q561.685 210.385 562.903 208.769 Q564.145 207.129 564.941 204.459 Q565.128 203.873 565.222 203.733 Q565.339 203.592 565.667 203.592 Q566.229 203.592 566.229 204.061 Z" fill="#000000" fill-rule="nonzero" fill-opacity="1" /><path clip-path="url(#clip820)" d="M582.016 203.639 Q582.063 203.054 582.977 203.054 L612.372 203.054 Q613.754 203.054 613.777 203.592 Q613.777 204.178 612.466 204.154 L583.305 204.154 Q582.016 204.178 582.016 203.639 M582.016 194.27 Q582.016 193.685 583.024 193.708 L612.325 193.708 Q613.754 193.708 613.777 194.27 Q613.777 194.809 612.559 194.809 L582.977 194.809 Q582.016 194.809 582.016 194.27 Z" fill="#000000" fill-rule="nonzero" fill-opacity="1" /><path clip-path="url(#clip820)" d="M632.268 210.923 Q632.268 210.057 632.338 209.799 Q632.432 209.542 632.807 209.143 L642.012 198.884 Q647.048 193.216 647.048 188.274 Q647.048 185.065 645.361 182.77 Q643.698 180.474 640.63 180.474 Q638.522 180.474 636.742 181.763 Q634.962 183.051 634.142 185.346 Q634.283 185.299 634.774 185.299 Q635.969 185.299 636.625 186.049 Q637.304 186.798 637.304 187.806 Q637.304 189.094 636.461 189.726 Q635.641 190.335 634.821 190.335 Q634.493 190.335 634.048 190.265 Q633.627 190.195 632.947 189.539 Q632.268 188.86 632.268 187.665 Q632.268 184.316 634.798 181.645 Q637.351 178.975 641.239 178.975 Q645.642 178.975 648.523 181.599 Q651.428 184.198 651.428 188.274 Q651.428 189.703 650.983 191.014 Q650.561 192.303 649.976 193.31 Q649.413 194.317 647.868 195.933 Q646.322 197.549 645.08 198.697 Q643.839 199.845 641.052 202.281 L635.969 207.223 L644.612 207.223 Q648.828 207.223 649.156 206.848 Q649.624 206.169 650.21 202.585 L651.428 202.585 L650.069 210.923 L632.268 210.923 Z" fill="#000000" fill-rule="nonzero" fill-opacity="1" /></svg>
