<?xml version="1.0" encoding="utf-8"?>
<svg xmlns="http://www.w3.org/2000/svg" xmlns:xlink="http://www.w3.org/1999/xlink" width="600" height="400" viewBox="0 0 2400 1600">
<defs>
  <clipPath id="clip900">
    <rect x="0" y="0" width="2400" height="1600"/>
  </clipPath>
</defs>
<path clip-path="url(#clip900)" d="M0 1600 L2400 1600 L2400 0 L0 0  Z" fill="#ffffff" fill-rule="evenodd" fill-opacity="1"/>
<defs>
  <clipPath id="clip901">
    <rect x="480" y="0" width="1681" height="1600"/>
  </clipPath>
</defs>
<path clip-path="url(#clip900)" d="M263.347 1380.58 L2352.76 1380.58 L2352.76 47.2441 L263.347 47.2441  Z" fill="#ffffff" fill-rule="evenodd" fill-opacity="1"/>
<defs>
  <clipPath id="clip902">
    <rect x="263" y="47" width="2090" height="1334"/>
  </clipPath>
</defs>
<polyline clip-path="url(#clip902)" style="stroke:#000000; stroke-linecap:round; stroke-linejoin:round; stroke-width:2; stroke-opacity:0.1; fill:none" points="616.151,1380.58 616.151,47.2441 "/>
<polyline clip-path="url(#clip902)" style="stroke:#000000; stroke-linecap:round; stroke-linejoin:round; stroke-width:2; stroke-opacity:0.1; fill:none" points="1143.6,1380.58 1143.6,47.2441 "/>
<polyline clip-path="url(#clip902)" style="stroke:#000000; stroke-linecap:round; stroke-linejoin:round; stroke-width:2; stroke-opacity:0.1; fill:none" points="1671.05,1380.58 1671.05,47.2441 "/>
<polyline clip-path="url(#clip902)" style="stroke:#000000; stroke-linecap:round; stroke-linejoin:round; stroke-width:2; stroke-opacity:0.1; fill:none" points="2198.5,1380.58 2198.5,47.2441 "/>
<polyline clip-path="url(#clip902)" style="stroke:#000000; stroke-linecap:round; stroke-linejoin:round; stroke-width:2; stroke-opacity:0.1; fill:none" points="616.151,1380.58 616.151,47.2441 "/>
<polyline clip-path="url(#clip902)" style="stroke:#000000; stroke-linecap:round; stroke-linejoin:round; stroke-width:2; stroke-opacity:0.1; fill:none" points="1143.6,1380.58 1143.6,47.2441 "/>
<polyline clip-path="url(#clip902)" style="stroke:#000000; stroke-linecap:round; stroke-linejoin:round; stroke-width:2; stroke-opacity:0.1; fill:none" points="1671.05,1380.58 1671.05,47.2441 "/>
<polyline clip-path="url(#clip902)" style="stroke:#000000; stroke-linecap:round; stroke-linejoin:round; stroke-width:2; stroke-opacity:0.1; fill:none" points="2198.5,1380.58 2198.5,47.2441 "/>
<polyline clip-path="url(#clip902)" style="stroke:#000000; stroke-linecap:round; stroke-linejoin:round; stroke-width:2; stroke-opacity:0.1; fill:none" points="263.347,1002.16 2352.76,1002.16 "/>
<polyline clip-path="url(#clip902)" style="stroke:#000000; stroke-linecap:round; stroke-linejoin:round; stroke-width:2; stroke-opacity:0.1; fill:none" points="263.347,601.987 2352.76,601.987 "/>
<polyline clip-path="url(#clip902)" style="stroke:#000000; stroke-linecap:round; stroke-linejoin:round; stroke-width:2; stroke-opacity:0.1; fill:none" points="263.347,201.811 2352.76,201.811 "/>
<polyline clip-path="url(#clip902)" style="stroke:#000000; stroke-linecap:round; stroke-linejoin:round; stroke-width:2; stroke-opacity:0.1; fill:none" points="263.347,1002.16 2352.76,1002.16 "/>
<polyline clip-path="url(#clip902)" style="stroke:#000000; stroke-linecap:round; stroke-linejoin:round; stroke-width:2; stroke-opacity:0.1; fill:none" points="263.347,601.987 2352.76,601.987 "/>
<polyline clip-path="url(#clip902)" style="stroke:#000000; stroke-linecap:round; stroke-linejoin:round; stroke-width:2; stroke-opacity:0.1; fill:none" points="263.347,201.811 2352.76,201.811 "/>
<polyline clip-path="url(#clip900)" style="stroke:#000000; stroke-linecap:round; stroke-linejoin:round; stroke-width:4; stroke-opacity:1; fill:none" points="263.347,1380.58 2352.76,1380.58 "/>
<polyline clip-path="url(#clip900)" style="stroke:#000000; stroke-linecap:round; stroke-linejoin:round; stroke-width:4; stroke-opacity:1; fill:none" points="263.347,47.2441 2352.76,47.2441 "/>
<polyline clip-path="url(#clip900)" style="stroke:#000000; stroke-linecap:round; stroke-linejoin:round; stroke-width:4; stroke-opacity:1; fill:none" points="616.151,1380.58 616.151,1361.69 "/>
<polyline clip-path="url(#clip900)" style="stroke:#000000; stroke-linecap:round; stroke-linejoin:round; stroke-width:4; stroke-opacity:1; fill:none" points="1143.6,1380.58 1143.6,1361.69 "/>
<polyline clip-path="url(#clip900)" style="stroke:#000000; stroke-linecap:round; stroke-linejoin:round; stroke-width:4; stroke-opacity:1; fill:none" points="1671.05,1380.58 1671.05,1361.69 "/>
<polyline clip-path="url(#clip900)" style="stroke:#000000; stroke-linecap:round; stroke-linejoin:round; stroke-width:4; stroke-opacity:1; fill:none" points="2198.5,1380.58 2198.5,1361.69 "/>
<polyline clip-path="url(#clip900)" style="stroke:#000000; stroke-linecap:round; stroke-linejoin:round; stroke-width:4; stroke-opacity:1; fill:none" points="616.151,47.2441 616.151,66.1417 "/>
<polyline clip-path="url(#clip900)" style="stroke:#000000; stroke-linecap:round; stroke-linejoin:round; stroke-width:4; stroke-opacity:1; fill:none" points="1143.6,47.2441 1143.6,66.1417 "/>
<polyline clip-path="url(#clip900)" style="stroke:#000000; stroke-linecap:round; stroke-linejoin:round; stroke-width:4; stroke-opacity:1; fill:none" points="1671.05,47.2441 1671.05,66.1417 "/>
<polyline clip-path="url(#clip900)" style="stroke:#000000; stroke-linecap:round; stroke-linejoin:round; stroke-width:4; stroke-opacity:1; fill:none" points="2198.5,47.2441 2198.5,66.1417 "/>
<path clip-path="url(#clip900)" d="M581.134 1454.71 L588.773 1454.71 L588.773 1428.34 L580.463 1430.01 L580.463 1425.75 L588.727 1424.08 L593.403 1424.08 L593.403 1454.71 L601.042 1454.71 L601.042 1458.64 L581.134 1458.64 L581.134 1454.71 Z" fill="#000000" fill-rule="nonzero" fill-opacity="1" /><path clip-path="url(#clip900)" d="M620.486 1427.16 Q616.875 1427.16 615.046 1430.73 Q613.241 1434.27 613.241 1441.4 Q613.241 1448.51 615.046 1452.07 Q616.875 1455.61 620.486 1455.61 Q624.12 1455.61 625.926 1452.07 Q627.754 1448.51 627.754 1441.4 Q627.754 1434.27 625.926 1430.73 Q624.12 1427.16 620.486 1427.16 M620.486 1423.46 Q626.296 1423.46 629.352 1428.07 Q632.43 1432.65 632.43 1441.4 Q632.43 1450.13 629.352 1454.73 Q626.296 1459.32 620.486 1459.32 Q614.676 1459.32 611.597 1454.73 Q608.542 1450.13 608.542 1441.4 Q608.542 1432.65 611.597 1428.07 Q614.676 1423.46 620.486 1423.46 Z" fill="#000000" fill-rule="nonzero" fill-opacity="1" /><path clip-path="url(#clip900)" d="M642.135 1405.66 Q639.201 1405.66 637.715 1408.55 Q636.248 1411.43 636.248 1417.22 Q636.248 1423 637.715 1425.89 Q639.201 1428.77 642.135 1428.77 Q645.088 1428.77 646.555 1425.89 Q648.041 1423 648.041 1417.22 Q648.041 1411.43 646.555 1408.55 Q645.088 1405.66 642.135 1405.66 M642.135 1402.65 Q646.856 1402.65 649.339 1406.39 Q651.84 1410.11 651.84 1417.22 Q651.84 1424.31 649.339 1428.06 Q646.856 1431.78 642.135 1431.78 Q637.414 1431.78 634.913 1428.06 Q632.43 1424.31 632.43 1417.22 Q632.43 1410.11 634.913 1406.39 Q637.414 1402.65 642.135 1402.65 Z" fill="#000000" fill-rule="nonzero" fill-opacity="1" /><path clip-path="url(#clip900)" d="M1109.93 1454.71 L1117.57 1454.71 L1117.57 1428.34 L1109.26 1430.01 L1109.26 1425.75 L1117.52 1424.08 L1122.2 1424.08 L1122.2 1454.71 L1129.84 1454.71 L1129.84 1458.64 L1109.93 1458.64 L1109.93 1454.71 Z" fill="#000000" fill-rule="nonzero" fill-opacity="1" /><path clip-path="url(#clip900)" d="M1149.28 1427.16 Q1145.67 1427.16 1143.84 1430.73 Q1142.04 1434.27 1142.04 1441.4 Q1142.04 1448.51 1143.84 1452.07 Q1145.67 1455.61 1149.28 1455.61 Q1152.92 1455.61 1154.72 1452.07 Q1156.55 1448.51 1156.55 1441.4 Q1156.55 1434.27 1154.72 1430.73 Q1152.92 1427.16 1149.28 1427.16 M1149.28 1423.46 Q1155.09 1423.46 1158.15 1428.07 Q1161.23 1432.65 1161.23 1441.4 Q1161.23 1450.13 1158.15 1454.73 Q1155.09 1459.32 1149.28 1459.32 Q1143.47 1459.32 1140.39 1454.73 Q1137.34 1450.13 1137.34 1441.4 Q1137.34 1432.65 1140.39 1428.07 Q1143.47 1423.46 1149.28 1423.46 Z" fill="#000000" fill-rule="nonzero" fill-opacity="1" /><path clip-path="url(#clip900)" d="M1161.77 1428.04 L1167.98 1428.04 L1167.98 1406.62 L1161.23 1407.97 L1161.23 1404.51 L1167.94 1403.15 L1171.74 1403.15 L1171.74 1428.04 L1177.95 1428.04 L1177.95 1431.23 L1161.77 1431.23 L1161.77 1428.04 Z" fill="#000000" fill-rule="nonzero" fill-opacity="1" /><path clip-path="url(#clip900)" d="M1636.83 1454.71 L1644.46 1454.71 L1644.46 1428.34 L1636.15 1430.01 L1636.15 1425.75 L1644.42 1424.08 L1649.09 1424.08 L1649.09 1454.71 L1656.73 1454.71 L1656.73 1458.64 L1636.83 1458.64 L1636.83 1454.71 Z" fill="#000000" fill-rule="nonzero" fill-opacity="1" /><path clip-path="url(#clip900)" d="M1676.18 1427.16 Q1672.57 1427.16 1670.74 1430.73 Q1668.93 1434.27 1668.93 1441.4 Q1668.93 1448.51 1670.74 1452.07 Q1672.57 1455.61 1676.18 1455.61 Q1679.81 1455.61 1681.62 1452.07 Q1683.45 1448.51 1683.45 1441.4 Q1683.45 1434.27 1681.62 1430.73 Q1679.81 1427.16 1676.18 1427.16 M1676.18 1423.46 Q1681.99 1423.46 1685.04 1428.07 Q1688.12 1432.65 1688.12 1441.4 Q1688.12 1450.13 1685.04 1454.73 Q1681.99 1459.32 1676.18 1459.32 Q1670.37 1459.32 1667.29 1454.73 Q1664.23 1450.13 1664.23 1441.4 Q1664.23 1432.65 1667.29 1428.07 Q1670.37 1423.46 1676.18 1423.46 Z" fill="#000000" fill-rule="nonzero" fill-opacity="1" /><path clip-path="url(#clip900)" d="M1692.69 1428.04 L1705.95 1428.04 L1705.95 1431.23 L1688.12 1431.23 L1688.12 1428.04 Q1690.28 1425.8 1694.01 1422.04 Q1697.75 1418.26 1698.71 1417.17 Q1700.53 1415.12 1701.25 1413.71 Q1701.98 1412.28 1701.98 1410.9 Q1701.98 1408.67 1700.4 1407.25 Q1698.84 1405.84 1696.32 1405.84 Q1694.53 1405.84 1692.54 1406.46 Q1690.57 1407.09 1688.31 1408.35 L1688.31 1404.51 Q1690.6 1403.59 1692.6 1403.12 Q1694.59 1402.65 1696.25 1402.65 Q1700.61 1402.65 1703.21 1404.83 Q1705.8 1407.01 1705.8 1410.66 Q1705.8 1412.39 1705.14 1413.95 Q1704.5 1415.49 1702.79 1417.6 Q1702.32 1418.14 1699.8 1420.76 Q1697.28 1423.35 1692.69 1428.04 Z" fill="#000000" fill-rule="nonzero" fill-opacity="1" /><path clip-path="url(#clip900)" d="M2163.95 1454.71 L2171.59 1454.71 L2171.59 1428.34 L2163.28 1430.01 L2163.28 1425.75 L2171.54 1424.08 L2176.22 1424.08 L2176.22 1454.71 L2183.85 1454.71 L2183.85 1458.64 L2163.95 1458.64 L2163.95 1454.71 Z" fill="#000000" fill-rule="nonzero" fill-opacity="1" /><path clip-path="url(#clip900)" d="M2203.3 1427.16 Q2199.69 1427.16 2197.86 1430.73 Q2196.05 1434.27 2196.05 1441.4 Q2196.05 1448.51 2197.86 1452.07 Q2199.69 1455.61 2203.3 1455.61 Q2206.93 1455.61 2208.74 1452.07 Q2210.57 1448.51 2210.57 1441.4 Q2210.57 1434.27 2208.74 1430.73 Q2206.93 1427.16 2203.3 1427.16 M2203.3 1423.46 Q2209.11 1423.46 2212.16 1428.07 Q2215.24 1432.65 2215.24 1441.4 Q2215.24 1450.13 2212.16 1454.73 Q2209.11 1459.32 2203.3 1459.32 Q2197.49 1459.32 2194.41 1454.73 Q2191.35 1450.13 2191.35 1441.4 Q2191.35 1432.65 2194.41 1428.07 Q2197.49 1423.46 2203.3 1423.46 Z" fill="#000000" fill-rule="nonzero" fill-opacity="1" /><path clip-path="url(#clip900)" d="M2227.94 1416.09 Q2230.67 1416.68 2232.19 1418.52 Q2233.73 1420.36 2233.73 1423.07 Q2233.73 1427.23 2230.87 1429.5 Q2228.01 1431.78 2222.75 1431.78 Q2220.98 1431.78 2219.1 1431.42 Q2217.24 1431.08 2215.24 1430.39 L2215.24 1426.72 Q2216.82 1427.64 2218.7 1428.11 Q2220.58 1428.58 2222.63 1428.58 Q2226.21 1428.58 2228.07 1427.17 Q2229.95 1425.76 2229.95 1423.07 Q2229.95 1420.59 2228.2 1419.2 Q2226.47 1417.79 2223.37 1417.79 L2220.1 1417.79 L2220.1 1414.66 L2223.52 1414.66 Q2226.32 1414.66 2227.81 1413.56 Q2229.29 1412.43 2229.29 1410.32 Q2229.29 1408.16 2227.75 1407.01 Q2226.23 1405.84 2223.37 1405.84 Q2221.81 1405.84 2220.02 1406.18 Q2218.23 1406.52 2216.09 1407.24 L2216.09 1403.85 Q2218.25 1403.25 2220.13 1402.95 Q2222.03 1402.65 2223.71 1402.65 Q2228.03 1402.65 2230.55 1404.62 Q2233.07 1406.58 2233.07 1409.93 Q2233.07 1412.26 2231.74 1413.88 Q2230.4 1415.47 2227.94 1416.09 Z" fill="#000000" fill-rule="nonzero" fill-opacity="1" /><path clip-path="url(#clip900)" d="M1214.36 1571.84 L1214.36 1509.94 Q1214.36 1507.98 1215.68 1507.98 Q1217 1507.98 1217 1510.04 L1217 1571.68 Q1217 1573.81 1215.68 1573.81 Q1214.36 1573.81 1214.36 1571.84 M1221.64 1571.84 L1221.64 1510.42 Q1221.64 1507.98 1222.96 1507.98 Q1224.28 1507.98 1224.28 1510.04 L1224.28 1571.68 Q1224.28 1573.81 1222.96 1573.81 Q1221.64 1573.81 1221.64 1571.84 Z" fill="#000000" fill-rule="nonzero" fill-opacity="1" /><path clip-path="url(#clip900)" d="M1292.27 1556.06 Q1292.27 1556.67 1292.01 1556.99 Q1291.79 1557.28 1291.56 1557.35 Q1291.37 1557.38 1291.08 1557.38 Q1290.24 1557.38 1287.34 1557.28 Q1284.44 1557.19 1283.61 1557.19 Q1282.25 1557.19 1279.49 1557.28 Q1276.72 1557.38 1275.36 1557.38 Q1274.46 1557.38 1274.46 1556.64 Q1274.46 1556.16 1274.56 1555.9 Q1274.65 1555.61 1274.91 1555.51 Q1275.2 1555.38 1275.36 1555.38 Q1275.56 1555.35 1276.04 1555.35 Q1276.68 1555.35 1277.36 1555.29 Q1278.04 1555.19 1278.87 1555 Q1279.71 1554.8 1280.23 1554.32 Q1280.77 1553.84 1280.77 1553.16 Q1280.77 1552.87 1280.55 1550.49 Q1280.32 1548.11 1280.03 1545.34 Q1279.74 1542.53 1279.71 1542.15 L1263.16 1542.15 Q1261.64 1544.76 1260.58 1546.56 Q1259.52 1548.36 1259.13 1548.97 Q1258.74 1549.59 1258.52 1549.97 Q1258.29 1550.36 1258.16 1550.58 Q1257.23 1552.29 1257.23 1553.03 Q1257.23 1555.09 1260.32 1555.35 Q1261.39 1555.35 1261.39 1556.12 Q1261.39 1556.7 1261.13 1557.03 Q1260.87 1557.32 1260.64 1557.35 Q1260.45 1557.38 1260.13 1557.38 Q1259.07 1557.38 1256.84 1557.28 Q1254.62 1557.19 1253.53 1557.19 Q1252.59 1557.19 1250.66 1557.28 Q1248.73 1557.38 1247.86 1557.38 Q1247.47 1557.38 1247.25 1557.15 Q1247.02 1556.93 1247.02 1556.64 Q1247.02 1556.19 1247.09 1555.93 Q1247.18 1555.67 1247.44 1555.54 Q1247.7 1555.42 1247.83 1555.42 Q1247.96 1555.38 1248.41 1555.35 Q1250.85 1555.19 1252.75 1554.03 Q1254.69 1552.84 1256.52 1549.78 L1279.45 1511.26 Q1279.68 1510.88 1279.84 1510.68 Q1280 1510.49 1280.32 1510.33 Q1280.68 1510.17 1281.19 1510.17 Q1282 1510.17 1282.16 1510.42 Q1282.32 1510.65 1282.42 1511.74 L1286.44 1552.97 Q1286.54 1553.84 1286.6 1554.19 Q1286.7 1554.51 1287.12 1554.87 Q1287.57 1555.19 1288.37 1555.29 Q1289.21 1555.35 1290.76 1555.35 Q1291.34 1555.35 1291.56 1555.38 Q1291.79 1555.38 1292.01 1555.54 Q1292.27 1555.71 1292.27 1556.06 M1279.52 1540.09 L1277.42 1518.35 L1264.41 1540.09 L1279.52 1540.09 Z" fill="#000000" fill-rule="nonzero" fill-opacity="1" /><path clip-path="url(#clip900)" d="M1298.87 1497.93 Q1298.87 1490.13 1301.78 1483.84 Q1303.02 1481.2 1304.76 1479 Q1306.49 1476.79 1307.64 1475.82 Q1308.79 1474.85 1309.11 1474.85 Q1309.56 1474.85 1309.58 1475.3 Q1309.58 1475.52 1308.97 1476.09 Q1301.53 1483.66 1301.56 1497.93 Q1301.56 1512.25 1308.79 1519.53 Q1309.58 1520.32 1309.58 1520.57 Q1309.58 1521.02 1309.11 1521.02 Q1308.79 1521.02 1307.69 1520.09 Q1306.58 1519.17 1304.87 1517.05 Q1303.16 1514.93 1301.92 1512.34 Q1298.87 1506.05 1298.87 1497.93 Z" fill="#000000" fill-rule="nonzero" fill-opacity="1" /><path clip-path="url(#clip900)" d="M1314.02 1509.48 Q1314.02 1508.64 1314.08 1508.39 Q1314.17 1508.14 1314.53 1507.76 L1323.39 1497.89 Q1328.24 1492.43 1328.24 1487.67 Q1328.24 1484.59 1326.62 1482.38 Q1325.02 1480.17 1322.06 1480.17 Q1320.04 1480.17 1318.32 1481.41 Q1316.61 1482.65 1315.82 1484.86 Q1315.95 1484.81 1316.43 1484.81 Q1317.58 1484.81 1318.21 1485.53 Q1318.86 1486.25 1318.86 1487.22 Q1318.86 1488.46 1318.05 1489.07 Q1317.26 1489.66 1316.47 1489.66 Q1316.16 1489.66 1315.73 1489.59 Q1315.32 1489.52 1314.67 1488.89 Q1314.02 1488.24 1314.02 1487.09 Q1314.02 1483.86 1316.45 1481.29 Q1318.91 1478.72 1322.65 1478.72 Q1326.89 1478.72 1329.66 1481.25 Q1332.46 1483.75 1332.46 1487.67 Q1332.46 1489.05 1332.03 1490.31 Q1331.62 1491.55 1331.06 1492.52 Q1330.52 1493.49 1329.03 1495.05 Q1327.54 1496.6 1326.35 1497.71 Q1325.15 1498.81 1322.47 1501.16 L1317.58 1505.91 L1325.9 1505.91 Q1329.95 1505.91 1330.27 1505.55 Q1330.72 1504.9 1331.28 1501.45 L1332.46 1501.45 L1331.15 1509.48 L1314.02 1509.48 Z" fill="#000000" fill-rule="nonzero" fill-opacity="1" /><path clip-path="url(#clip900)" d="M1337.99 1520.57 Q1337.99 1520.34 1338.58 1519.78 Q1346.02 1512.2 1346.02 1497.93 Q1346.02 1483.62 1338.87 1476.38 Q1337.99 1475.55 1337.99 1475.3 Q1337.99 1474.85 1338.44 1474.85 Q1338.76 1474.85 1339.86 1475.77 Q1340.99 1476.7 1342.68 1478.82 Q1344.39 1480.93 1345.65 1483.53 Q1348.7 1489.82 1348.7 1497.93 Q1348.7 1505.73 1345.79 1512.02 Q1344.55 1514.66 1342.81 1516.87 Q1341.08 1519.08 1339.93 1520.05 Q1338.78 1521.02 1338.44 1521.02 Q1337.99 1521.02 1337.99 1520.57 Z" fill="#000000" fill-rule="nonzero" fill-opacity="1" /><path clip-path="url(#clip900)" d="M1362.76 1571.84 L1362.76 1509.94 Q1362.76 1507.98 1364.08 1507.98 Q1365.4 1507.98 1365.4 1510.04 L1365.4 1571.68 Q1365.4 1573.81 1364.08 1573.81 Q1362.76 1573.81 1362.76 1571.84 M1370.04 1571.84 L1370.04 1510.42 Q1370.04 1507.98 1371.36 1507.98 Q1372.68 1507.98 1372.68 1510.04 L1372.68 1571.68 Q1372.68 1573.81 1371.36 1573.81 Q1370.04 1573.81 1370.04 1571.84 Z" fill="#000000" fill-rule="nonzero" fill-opacity="1" /><path clip-path="url(#clip900)" d="M1379.61 1565.57 L1379.61 1564.13 Q1385.16 1564.13 1388.02 1561.17 Q1388.81 1561.17 1388.94 1561.35 Q1389.08 1561.53 1389.08 1562.37 L1389.08 1588.27 Q1389.08 1589.65 1389.76 1590.07 Q1390.43 1590.5 1393.39 1590.5 L1394.85 1590.5 L1394.85 1591.92 Q1393.23 1591.79 1387.37 1591.79 Q1381.51 1591.79 1379.9 1591.92 L1379.9 1590.5 L1381.37 1590.5 Q1384.28 1590.5 1384.98 1590.1 Q1385.68 1589.67 1385.68 1588.27 L1385.68 1564.35 Q1383.26 1565.57 1379.61 1565.57 Z" fill="#000000" fill-rule="nonzero" fill-opacity="1" /><polyline clip-path="url(#clip900)" style="stroke:#000000; stroke-linecap:round; stroke-linejoin:round; stroke-width:4; stroke-opacity:1; fill:none" points="263.347,1380.58 263.347,47.2441 "/>
<polyline clip-path="url(#clip900)" style="stroke:#000000; stroke-linecap:round; stroke-linejoin:round; stroke-width:4; stroke-opacity:1; fill:none" points="2352.76,1380.58 2352.76,47.2441 "/>
<polyline clip-path="url(#clip900)" style="stroke:#000000; stroke-linecap:round; stroke-linejoin:round; stroke-width:4; stroke-opacity:1; fill:none" points="263.347,1002.16 282.244,1002.16 "/>
<polyline clip-path="url(#clip900)" style="stroke:#000000; stroke-linecap:round; stroke-linejoin:round; stroke-width:4; stroke-opacity:1; fill:none" points="263.347,601.987 282.244,601.987 "/>
<polyline clip-path="url(#clip900)" style="stroke:#000000; stroke-linecap:round; stroke-linejoin:round; stroke-width:4; stroke-opacity:1; fill:none" points="263.347,201.811 282.244,201.811 "/>
<polyline clip-path="url(#clip900)" style="stroke:#000000; stroke-linecap:round; stroke-linejoin:round; stroke-width:4; stroke-opacity:1; fill:none" points="2352.76,1002.16 2333.86,1002.16 "/>
<polyline clip-path="url(#clip900)" style="stroke:#000000; stroke-linecap:round; stroke-linejoin:round; stroke-width:4; stroke-opacity:1; fill:none" points="2352.76,601.987 2333.86,601.987 "/>
<polyline clip-path="url(#clip900)" style="stroke:#000000; stroke-linecap:round; stroke-linejoin:round; stroke-width:4; stroke-opacity:1; fill:none" points="2352.76,201.811 2333.86,201.811 "/>
<path clip-path="url(#clip900)" d="M126.718 1021.96 L134.357 1021.96 L134.357 995.59 L126.047 997.256 L126.047 992.997 L134.311 991.331 L138.986 991.331 L138.986 1021.96 L146.625 1021.96 L146.625 1025.89 L126.718 1025.89 L126.718 1021.96 Z" fill="#000000" fill-rule="nonzero" fill-opacity="1" /><path clip-path="url(#clip900)" d="M166.07 994.409 Q162.459 994.409 160.63 997.974 Q158.824 1001.52 158.824 1008.65 Q158.824 1015.75 160.63 1019.32 Q162.459 1022.86 166.07 1022.86 Q169.704 1022.86 171.509 1019.32 Q173.338 1015.75 173.338 1008.65 Q173.338 1001.52 171.509 997.974 Q169.704 994.409 166.07 994.409 M166.07 990.706 Q171.88 990.706 174.935 995.312 Q178.014 999.895 178.014 1008.65 Q178.014 1017.37 174.935 1021.98 Q171.88 1026.56 166.07 1026.56 Q160.26 1026.56 157.181 1021.98 Q154.125 1017.37 154.125 1008.65 Q154.125 999.895 157.181 995.312 Q160.26 990.706 166.07 990.706 Z" fill="#000000" fill-rule="nonzero" fill-opacity="1" /><path clip-path="url(#clip900)" d="M178.014 984.807 L202.126 984.807 L202.126 988.004 L178.014 988.004 L178.014 984.807 Z" fill="#000000" fill-rule="nonzero" fill-opacity="1" /><path clip-path="url(#clip900)" d="M210.363 970.4 L225.278 970.4 L225.278 973.597 L213.843 973.597 L213.843 980.481 Q214.67 980.199 215.498 980.067 Q216.325 979.917 217.153 979.917 Q221.855 979.917 224.601 982.494 Q227.347 985.07 227.347 989.471 Q227.347 994.004 224.526 996.524 Q221.705 999.026 216.57 999.026 Q214.802 999.026 212.959 998.725 Q211.135 998.424 209.179 997.822 L209.179 994.004 Q210.871 994.925 212.677 995.377 Q214.482 995.828 216.495 995.828 Q219.749 995.828 221.648 994.117 Q223.548 992.405 223.548 989.471 Q223.548 986.537 221.648 984.826 Q219.749 983.114 216.495 983.114 Q214.971 983.114 213.448 983.453 Q211.943 983.791 210.363 984.506 L210.363 970.4 Z" fill="#000000" fill-rule="nonzero" fill-opacity="1" /><path clip-path="url(#clip900)" d="M126.436 621.779 L134.075 621.779 L134.075 595.414 L125.765 597.08 L125.765 592.821 L134.028 591.154 L138.704 591.154 L138.704 621.779 L146.343 621.779 L146.343 625.714 L126.436 625.714 L126.436 621.779 Z" fill="#000000" fill-rule="nonzero" fill-opacity="1" /><path clip-path="url(#clip900)" d="M165.788 594.233 Q162.176 594.233 160.348 597.798 Q158.542 601.34 158.542 608.469 Q158.542 615.576 160.348 619.14 Q162.176 622.682 165.788 622.682 Q169.422 622.682 171.227 619.14 Q173.056 615.576 173.056 608.469 Q173.056 601.34 171.227 597.798 Q169.422 594.233 165.788 594.233 M165.788 590.529 Q171.598 590.529 174.653 595.136 Q177.732 599.719 177.732 608.469 Q177.732 617.196 174.653 621.802 Q171.598 626.386 165.788 626.386 Q159.977 626.386 156.899 621.802 Q153.843 617.196 153.843 608.469 Q153.843 599.719 156.899 595.136 Q159.977 590.529 165.788 590.529 Z" fill="#000000" fill-rule="nonzero" fill-opacity="1" /><path clip-path="url(#clip900)" d="M177.732 584.631 L201.844 584.631 L201.844 587.828 L177.732 587.828 L177.732 584.631 Z" fill="#000000" fill-rule="nonzero" fill-opacity="1" /><path clip-path="url(#clip900)" d="M221.554 583.164 Q224.281 583.747 225.805 585.59 Q227.347 587.433 227.347 590.141 Q227.347 594.298 224.488 596.574 Q221.629 598.849 216.363 598.849 Q214.595 598.849 212.714 598.492 Q210.852 598.154 208.859 597.458 L208.859 593.79 Q210.439 594.712 212.319 595.182 Q214.2 595.652 216.25 595.652 Q219.824 595.652 221.686 594.241 Q223.566 592.831 223.566 590.141 Q223.566 587.659 221.817 586.267 Q220.087 584.856 216.984 584.856 L213.711 584.856 L213.711 581.734 L217.134 581.734 Q219.937 581.734 221.422 580.625 Q222.908 579.496 222.908 577.39 Q222.908 575.227 221.366 574.08 Q219.843 572.913 216.984 572.913 Q215.423 572.913 213.636 573.252 Q211.849 573.591 209.705 574.305 L209.705 570.92 Q211.868 570.318 213.749 570.017 Q215.648 569.716 217.322 569.716 Q221.648 569.716 224.168 571.691 Q226.689 573.647 226.689 576.995 Q226.689 579.327 225.353 580.944 Q224.018 582.543 221.554 583.164 Z" fill="#000000" fill-rule="nonzero" fill-opacity="1" /><path clip-path="url(#clip900)" d="M126.906 221.603 L134.545 221.603 L134.545 195.237 L126.235 196.904 L126.235 192.645 L134.499 190.978 L139.175 190.978 L139.175 221.603 L146.813 221.603 L146.813 225.538 L126.906 225.538 L126.906 221.603 Z" fill="#000000" fill-rule="nonzero" fill-opacity="1" /><path clip-path="url(#clip900)" d="M166.258 194.057 Q162.647 194.057 160.818 197.622 Q159.012 201.163 159.012 208.293 Q159.012 215.399 160.818 218.964 Q162.647 222.506 166.258 222.506 Q169.892 222.506 171.698 218.964 Q173.526 215.399 173.526 208.293 Q173.526 201.163 171.698 197.622 Q169.892 194.057 166.258 194.057 M166.258 190.353 Q172.068 190.353 175.123 194.96 Q178.202 199.543 178.202 208.293 Q178.202 217.02 175.123 221.626 Q172.068 226.21 166.258 226.21 Q160.448 226.21 157.369 221.626 Q154.313 217.02 154.313 208.293 Q154.313 199.543 157.369 194.96 Q160.448 190.353 166.258 190.353 Z" fill="#000000" fill-rule="nonzero" fill-opacity="1" /><path clip-path="url(#clip900)" d="M178.202 184.455 L202.314 184.455 L202.314 187.652 L178.202 187.652 L178.202 184.455 Z" fill="#000000" fill-rule="nonzero" fill-opacity="1" /><path clip-path="url(#clip900)" d="M211.172 194.931 L217.379 194.931 L217.379 173.508 L210.627 174.863 L210.627 171.402 L217.341 170.048 L221.14 170.048 L221.14 194.931 L227.347 194.931 L227.347 198.128 L211.172 198.128 L211.172 194.931 Z" fill="#000000" fill-rule="nonzero" fill-opacity="1" /><path clip-path="url(#clip900)" d="M42.6931 1124.7 L40.6319 1124.7 Q40.6319 1116.78 36.413 1112.69 Q36.413 1111.56 36.6706 1111.37 Q36.9282 1111.18 38.1199 1111.18 L75.1244 1111.18 Q77.089 1111.18 77.7009 1110.21 Q78.3128 1109.25 78.3128 1105.03 L78.3128 1102.93 L80.3417 1102.93 Q80.1485 1105.25 80.1485 1113.63 Q80.1485 1122 80.3417 1124.29 L78.3128 1124.29 L78.3128 1122.19 Q78.3128 1118.04 77.7331 1117.04 Q77.1212 1116.04 75.1244 1116.04 L40.954 1116.04 Q42.6931 1119.49 42.6931 1124.7 Z" fill="#000000" fill-rule="nonzero" fill-opacity="1" /><path clip-path="url(#clip900)" d="M62.9184 1030.2 Q63.3048 1029.81 63.8523 1029.81 Q64.3998 1029.81 64.7863 1030.2 Q65.1728 1030.58 65.1728 1031.13 L65.1728 1072.42 Q65.1728 1072.96 64.7863 1073.35 Q64.3998 1073.74 63.8523 1073.74 Q63.3048 1073.74 62.9184 1073.35 Q62.5319 1072.96 62.5319 1072.42 L62.5319 1031.13 Q62.5319 1030.58 62.9184 1030.2 Z" fill="#000000" fill-rule="nonzero" fill-opacity="1" /><path clip-path="url(#clip900)" d="M94.8022 1004.62 L33.3856 1004.62 Q30.938 1004.62 30.938 1003.3 Q30.938 1001.98 32.9025 1001.98 L94.3191 1001.98 Q96.7667 1001.98 96.7667 1003.3 Q96.7667 1004.62 94.8022 1004.62 Z" fill="#000000" fill-rule="nonzero" fill-opacity="1" /><path clip-path="url(#clip900)" d="M95.5107 962.484 Q96.0582 962.484 96.4447 962.87 Q96.8311 963.257 96.8311 963.804 Q96.8311 964.738 95.9616 965.06 L64.3032 977.331 Q64.1744 977.395 63.8523 977.395 Q63.5303 977.395 63.4015 977.331 L31.7431 965.06 Q30.8735 964.738 30.8735 963.804 Q30.8735 963.257 31.26 962.87 Q31.6465 962.484 32.194 962.484 Q32.516 962.484 32.6449 962.548 L63.8523 974.69 L95.0598 962.548 Q95.1886 962.484 95.5107 962.484 Z" fill="#000000" fill-rule="nonzero" fill-opacity="1" /><path clip-path="url(#clip900)" d="M37.2825 904.178 L48.6834 905.499 Q49.714 905.595 50.036 905.756 Q50.3259 905.917 50.3259 906.433 Q50.3259 906.819 50.1004 907.045 Q49.8428 907.238 49.5529 907.238 Q49.3919 907.238 48.9732 907.206 Q48.5546 907.174 48.3613 907.174 Q46.3646 906.884 44.8509 906.884 Q42.049 906.884 40.5353 907.721 Q38.9894 908.558 38.2809 910.716 Q37.5402 912.874 37.5402 916.932 L37.5402 926.207 Q37.5402 928.333 37.9266 928.848 Q38.3131 929.331 40.1166 929.782 L55.9941 933.743 L55.9941 927.528 Q55.9941 925.209 55.7043 923.824 Q55.4144 922.407 54.6093 921.473 Q53.7719 920.507 52.6447 919.991 Q51.5175 919.444 49.4885 918.896 Q48.8122 918.735 48.5546 918.574 Q48.2969 918.381 48.2969 917.962 Q48.2969 917.64 48.5224 917.415 Q48.7156 917.19 49.0054 917.19 L64.4321 920.958 Q65.205 921.151 65.4948 921.344 Q65.7525 921.537 65.7525 921.924 Q65.7525 922.342 65.527 922.568 Q65.3016 922.793 65.044 922.793 Q64.7863 922.793 64.3032 922.6 Q62.2098 922.117 61.0826 922.117 Q60.4385 922.117 60.1165 922.181 Q59.7944 922.214 59.3435 922.504 Q58.8604 922.761 58.635 923.341 Q58.4096 923.921 58.2485 925.016 Q58.0553 926.111 58.0553 927.753 L58.0553 934.259 L76.0584 938.767 Q77.25 939.09 77.572 939.09 Q77.9263 939.09 78.0551 938.929 Q78.1517 938.735 78.2162 938.22 Q78.3128 937.64 78.3128 936.771 L78.3128 927.141 Q78.3128 925.016 78.1195 923.309 Q77.9263 921.602 77.4432 920.185 Q76.9601 918.735 76.4126 917.64 Q75.8651 916.545 74.8667 915.515 Q73.8362 914.484 72.9344 913.776 Q72.0004 913.035 70.4223 912.165 Q68.8443 911.296 67.556 910.684 Q66.2356 910.072 64.11 909.138 Q63.3371 908.88 63.3371 908.269 Q63.3371 907.914 63.5303 907.721 Q63.6913 907.528 63.8523 907.496 L64.0456 907.496 Q64.6575 907.689 64.9796 907.818 L79.2145 913.872 Q80.0197 914.227 80.1807 914.516 Q80.3417 914.806 80.3417 915.934 L80.3417 950.168 Q80.3417 950.941 80.3095 951.263 Q80.2773 951.553 80.1163 951.779 Q79.9231 952.004 79.5366 952.004 Q78.9247 952.004 78.667 951.746 Q78.3772 951.489 78.345 951.199 Q78.3128 950.909 78.3128 950.168 Q78.3128 948.558 78.2162 947.592 Q78.1195 946.626 77.9907 946.014 Q77.8297 945.37 77.3788 945.048 Q76.9279 944.693 76.5415 944.532 Q76.1228 944.371 75.1888 944.146 L40.3099 935.45 Q39.1182 935.128 38.7318 935.128 Q38.3131 935.128 38.0555 935.418 Q37.7978 935.676 37.7012 936.384 Q37.5724 937.093 37.5724 937.672 Q37.5402 938.22 37.5402 939.412 Q37.5402 940.185 37.508 940.507 Q37.4757 940.796 37.3147 941.022 Q37.1537 941.247 36.7994 941.247 Q35.8977 941.247 35.7044 940.861 Q35.479 940.442 35.479 939.283 L35.479 905.982 Q35.479 904.661 35.7688 904.372 Q36.0265 904.05 37.2825 904.178 Z" fill="#000000" fill-rule="nonzero" fill-opacity="1" /><path clip-path="url(#clip900)" d="M98.6183 897.48 Q97.7842 897.48 97.5362 897.412 Q97.2882 897.322 96.905 896.961 L87.0306 888.101 Q81.575 883.254 76.8182 883.254 Q73.7296 883.254 71.5203 884.878 Q69.311 886.478 69.311 889.431 Q69.311 891.46 70.5509 893.174 Q71.7908 894.887 74.0001 895.676 Q73.9551 895.541 73.9551 895.067 Q73.9551 893.918 74.6765 893.287 Q75.3979 892.633 76.3673 892.633 Q77.6072 892.633 78.2159 893.444 Q78.802 894.233 78.802 895.022 Q78.802 895.338 78.7344 895.766 Q78.6668 896.172 78.0355 896.826 Q77.3818 897.48 76.232 897.48 Q73.0082 897.48 70.4382 895.045 Q67.8682 892.588 67.8682 888.845 Q67.8682 884.607 70.3931 881.834 Q72.8955 879.039 76.8182 879.039 Q78.1934 879.039 79.4558 879.467 Q80.6957 879.873 81.6651 880.436 Q82.6345 880.977 84.1901 882.465 Q85.7456 883.953 86.8503 885.148 Q87.9549 886.343 90.2995 889.026 L95.0563 893.918 L95.0563 885.599 Q95.0563 881.541 94.6956 881.225 Q94.0419 880.775 90.5926 880.211 L90.5926 879.039 L98.6183 880.346 L98.6183 897.48 Z" fill="#000000" fill-rule="nonzero" fill-opacity="1" /><path clip-path="url(#clip900)" d="M63.8523 867.575 Q52.7091 867.575 43.7237 863.42 Q39.9556 861.649 36.7994 859.169 Q33.6432 856.689 32.2584 855.047 Q30.8735 853.404 30.8735 852.953 Q30.8735 852.309 31.5177 852.277 Q31.8397 852.277 32.6449 853.147 Q43.466 863.775 63.8523 863.742 Q84.3031 863.742 94.7056 853.404 Q95.8328 852.277 96.187 852.277 Q96.8311 852.277 96.8311 852.953 Q96.8311 853.404 95.5107 854.982 Q94.1903 856.56 91.1629 859.008 Q88.1356 861.456 84.4319 863.227 Q75.4465 867.575 63.8523 867.575 Z" fill="#000000" fill-rule="nonzero" fill-opacity="1" /><path clip-path="url(#clip900)" d="M36.0265 799.187 Q37.3469 799.187 37.3469 800.282 Q37.4113 802.215 37.7978 803.535 Q38.1521 804.856 38.8606 805.629 Q39.5691 806.369 40.3421 806.788 Q41.0828 807.174 42.21 807.432 L65.6237 813.294 Q72.2259 814.968 77.0245 820.379 Q81.791 825.789 81.791 831.941 Q81.791 835.451 80.3417 838.382 Q78.8925 841.28 75.9617 843.084 Q73.031 844.887 69.1341 844.887 Q67.2662 844.887 65.3016 844.404 L49.0054 840.411 L43.2084 838.929 Q38.925 837.834 38.5385 837.834 Q37.9266 837.834 37.7656 838.221 Q37.5724 838.575 37.4757 839.606 L37.3469 842.118 Q37.3469 842.891 37.3147 843.213 Q37.2825 843.503 37.1215 843.728 Q36.9605 843.953 36.6062 843.953 Q36.1553 843.953 35.8655 843.857 Q35.5434 843.728 35.4468 843.503 Q35.3502 843.277 35.318 843.116 Q35.2857 842.955 35.2857 842.697 L35.479 834.195 L35.2857 825.757 Q35.2857 824.823 36.0265 824.823 Q36.9605 824.823 37.1537 825.242 Q37.3469 825.661 37.3469 827.078 Q37.3469 829.493 37.669 830.588 Q37.9588 831.651 38.4741 831.973 Q38.9572 832.263 40.3743 832.617 L66.0423 839.026 Q67.3306 839.348 68.6188 839.541 Q69.8748 839.702 70.519 839.702 L71.1631 839.735 Q75.2532 839.735 77.5076 837.48 Q79.762 835.193 79.762 831.683 Q79.762 826.53 75.6719 821.731 Q71.5818 816.901 65.1728 815.258 L41.6303 809.332 Q41.0506 809.139 40.2454 809.139 Q38.9572 809.139 38.1843 810.105 Q37.3791 811.039 37.3469 813.616 Q37.3469 814.807 36.6062 814.807 Q35.9943 814.807 35.7044 814.582 Q35.3824 814.324 35.3502 814.131 Q35.2857 813.905 35.2857 813.616 Q35.2857 812.521 35.3824 810.202 Q35.479 807.883 35.479 806.756 Q35.479 805.629 35.3824 803.374 Q35.2857 801.12 35.2857 800.025 Q35.2857 799.638 35.479 799.445 Q35.64 799.22 35.8332 799.187 L36.0265 799.187 Z" fill="#000000" fill-rule="nonzero" fill-opacity="1" /><path clip-path="url(#clip900)" d="M96.187 794.221 Q95.865 794.221 95.0598 793.384 Q84.2387 782.756 63.8523 782.756 Q43.4016 782.756 33.0635 792.965 Q31.8719 794.221 31.5177 794.221 Q30.8735 794.221 30.8735 793.577 Q30.8735 793.126 32.194 791.548 Q33.5144 789.938 36.5418 787.523 Q39.5691 785.075 43.2728 783.271 Q52.2582 778.924 63.8523 778.924 Q74.9956 778.924 83.981 783.078 Q87.7491 784.849 90.9053 787.329 Q94.0614 789.809 95.4463 791.452 Q96.8311 793.094 96.8311 793.577 Q96.8311 794.221 96.187 794.221 Z" fill="#000000" fill-rule="nonzero" fill-opacity="1" /><path clip-path="url(#clip900)" d="M94.8022 765.198 L33.3856 765.198 Q30.938 765.198 30.938 763.878 Q30.938 762.557 32.9025 762.557 L94.3191 762.557 Q96.7667 762.557 96.7667 763.878 Q96.7667 765.198 94.8022 765.198 Z" fill="#000000" fill-rule="nonzero" fill-opacity="1" /><path clip-path="url(#clip900)" d="M34.9637 694.237 Q35.7044 695.783 36.413 696.685 Q37.4757 698.166 39.5047 699.519 Q41.3727 700.839 44.2068 702.16 Q52.9346 706.024 64.3676 708.826 Q69.1019 710.018 72.097 710.082 Q75.221 710.082 76.5092 709.084 Q77.25 708.633 77.25 707.506 Q77.25 706.218 76.316 705.058 Q75.3498 703.802 72.9022 701.902 L73.804 700.775 Q77.1212 703.158 78.6992 705.123 Q80.9215 707.989 80.9215 710.726 Q80.9215 712.82 79.6976 713.625 Q77.7009 715.203 73.2887 715.074 L75.994 718.327 Q81.4045 725.155 81.4045 731.306 Q81.4045 734.881 78.5704 736.974 Q77.6365 737.715 75.5109 737.844 Q73.5463 737.844 70.7766 737.167 Q65.8169 735.911 58.3773 732.562 Q50.3259 728.923 45.5272 727.763 Q44.0457 727.409 43.2084 727.28 Q42.371 727.119 41.276 727.28 Q40.181 727.409 39.3759 728.021 Q38.9572 728.246 38.6674 728.858 Q38.3775 729.438 38.3775 730.05 Q38.3775 731.081 39.3115 732.433 Q41.0828 734.527 43.7881 735.203 Q44.7865 735.461 47.9426 735.944 L48.5546 737.973 Q45.5272 737.586 43.4016 737.103 Q39.2149 736.072 36.6062 732.82 Q34.706 730.469 34.706 727.28 Q34.706 724.285 36.2841 723.126 Q37.1859 722.417 39.5691 722.288 Q41.9846 722.288 44.5932 722.932 Q49.5851 724.221 58.2485 728.15 Q64.5931 731.081 67.8137 731.853 Q70.8088 732.594 73.3531 732.498 Q75.4787 732.498 76.9279 731.564 Q78.5704 730.308 78.5704 727.828 Q78.5704 724.092 74.5447 719.1 Q72.0326 716.073 70.7122 714.688 Q59.7622 712.015 38.7318 704.543 Q35.8332 699.487 34.223 695.171 L34.9637 694.237 Z" fill="#000000" fill-rule="nonzero" fill-opacity="1" /><path clip-path="url(#clip900)" d="M94.8022 689.391 L33.3856 689.391 Q30.938 689.391 30.938 688.071 Q30.938 686.75 32.9025 686.75 L94.3191 686.75 Q96.7667 686.75 96.7667 688.071 Q96.7667 689.391 94.8022 689.391 Z" fill="#000000" fill-rule="nonzero" fill-opacity="1" /><path clip-path="url(#clip900)" d="M37.2825 614.34 L48.6834 615.661 Q49.714 615.757 50.036 615.918 Q50.3259 616.079 50.3259 616.595 Q50.3259 616.981 50.1004 617.206 Q49.8428 617.4 49.5529 617.4 Q49.3919 617.4 48.9732 617.367 Q48.5546 617.335 48.3613 617.335 Q46.3646 617.045 44.8509 617.045 Q42.049 617.045 40.5353 617.883 Q38.9894 618.72 38.2809 620.878 Q37.5402 623.036 37.5402 627.094 L37.5402 636.369 Q37.5402 638.495 37.9266 639.01 Q38.3131 639.493 40.1166 639.944 L55.9941 643.905 L55.9941 637.689 Q55.9941 635.371 55.7043 633.986 Q55.4144 632.569 54.6093 631.635 Q53.7719 630.668 52.6447 630.153 Q51.5175 629.606 49.4885 629.058 Q48.8122 628.897 48.5546 628.736 Q48.2969 628.543 48.2969 628.124 Q48.2969 627.802 48.5224 627.577 Q48.7156 627.351 49.0054 627.351 L64.4321 631.119 Q65.205 631.313 65.4948 631.506 Q65.7525 631.699 65.7525 632.086 Q65.7525 632.504 65.527 632.73 Q65.3016 632.955 65.044 632.955 Q64.7863 632.955 64.3032 632.762 Q62.2098 632.279 61.0826 632.279 Q60.4385 632.279 60.1165 632.343 Q59.7944 632.375 59.3435 632.665 Q58.8604 632.923 58.635 633.503 Q58.4096 634.082 58.2485 635.177 Q58.0553 636.272 58.0553 637.915 L58.0553 644.42 L76.0584 648.929 Q77.25 649.251 77.572 649.251 Q77.9263 649.251 78.0551 649.09 Q78.1517 648.897 78.2162 648.382 Q78.3128 647.802 78.3128 646.932 L78.3128 637.303 Q78.3128 635.177 78.1195 633.47 Q77.9263 631.763 77.4432 630.346 Q76.9601 628.897 76.4126 627.802 Q75.8651 626.707 74.8667 625.677 Q73.8362 624.646 72.9344 623.937 Q72.0004 623.197 70.4223 622.327 Q68.8443 621.458 67.556 620.846 Q66.2356 620.234 64.11 619.3 Q63.3371 619.042 63.3371 618.43 Q63.3371 618.076 63.5303 617.883 Q63.6913 617.69 63.8523 617.657 L64.0456 617.657 Q64.6575 617.851 64.9796 617.979 L79.2145 624.034 Q80.0197 624.388 80.1807 624.678 Q80.3417 624.968 80.3417 626.095 L80.3417 660.33 Q80.3417 661.103 80.3095 661.425 Q80.2773 661.715 80.1163 661.94 Q79.9231 662.166 79.5366 662.166 Q78.9247 662.166 78.667 661.908 Q78.3772 661.651 78.345 661.361 Q78.3128 661.071 78.3128 660.33 Q78.3128 658.72 78.2162 657.754 Q78.1195 656.787 77.9907 656.176 Q77.8297 655.531 77.3788 655.209 Q76.9279 654.855 76.5415 654.694 Q76.1228 654.533 75.1888 654.308 L40.3099 645.612 Q39.1182 645.29 38.7318 645.29 Q38.3131 645.29 38.0555 645.58 Q37.7978 645.837 37.7012 646.546 Q37.5724 647.255 37.5724 647.834 Q37.5402 648.382 37.5402 649.573 Q37.5402 650.346 37.508 650.668 Q37.4757 650.958 37.3147 651.184 Q37.1537 651.409 36.7994 651.409 Q35.8977 651.409 35.7044 651.023 Q35.479 650.604 35.479 649.445 L35.479 616.144 Q35.479 614.823 35.7688 614.533 Q36.0265 614.211 37.2825 614.34 Z" fill="#000000" fill-rule="nonzero" fill-opacity="1" /><path clip-path="url(#clip900)" d="M98.6183 607.641 Q97.7842 607.641 97.5362 607.574 Q97.2882 607.484 96.905 607.123 L87.0306 598.263 Q81.575 593.416 76.8182 593.416 Q73.7296 593.416 71.5203 595.039 Q69.311 596.64 69.311 599.593 Q69.311 601.622 70.5509 603.336 Q71.7908 605.049 74.0001 605.838 Q73.9551 605.703 73.9551 605.229 Q73.9551 604.079 74.6765 603.448 Q75.3979 602.794 76.3673 602.794 Q77.6072 602.794 78.2159 603.606 Q78.802 604.395 78.802 605.184 Q78.802 605.5 78.7344 605.928 Q78.6668 606.334 78.0355 606.988 Q77.3818 607.641 76.232 607.641 Q73.0082 607.641 70.4382 605.207 Q67.8682 602.749 67.8682 599.007 Q67.8682 594.769 70.3931 591.996 Q72.8955 589.2 76.8182 589.2 Q78.1934 589.2 79.4558 589.629 Q80.6957 590.035 81.6651 590.598 Q82.6345 591.139 84.1901 592.627 Q85.7456 594.115 86.8503 595.31 Q87.9549 596.505 90.2995 599.187 L95.0563 604.079 L95.0563 595.761 Q95.0563 591.703 94.6956 591.387 Q94.0419 590.936 90.5926 590.373 L90.5926 589.2 L98.6183 590.508 L98.6183 607.641 Z" fill="#000000" fill-rule="nonzero" fill-opacity="1" /><path clip-path="url(#clip900)" d="M63.8523 577.737 Q52.7091 577.737 43.7237 573.582 Q39.9556 571.811 36.7994 569.331 Q33.6432 566.851 32.2584 565.209 Q30.8735 563.566 30.8735 563.115 Q30.8735 562.471 31.5177 562.439 Q31.8397 562.439 32.6449 563.308 Q43.466 573.936 63.8523 573.904 Q84.3031 573.904 94.7056 563.566 Q95.8328 562.439 96.187 562.439 Q96.8311 562.439 96.8311 563.115 Q96.8311 563.566 95.5107 565.144 Q94.1903 566.722 91.1629 569.17 Q88.1356 571.617 84.4319 573.389 Q75.4465 577.737 63.8523 577.737 Z" fill="#000000" fill-rule="nonzero" fill-opacity="1" /><path clip-path="url(#clip900)" d="M36.0265 509.349 Q37.3469 509.349 37.3469 510.444 Q37.4113 512.376 37.7978 513.697 Q38.1521 515.017 38.8606 515.79 Q39.5691 516.531 40.3421 516.95 Q41.0828 517.336 42.21 517.594 L65.6237 523.455 Q72.2259 525.13 77.0245 530.541 Q81.791 535.951 81.791 542.102 Q81.791 545.613 80.3417 548.544 Q78.8925 551.442 75.9617 553.246 Q73.031 555.049 69.1341 555.049 Q67.2662 555.049 65.3016 554.566 L49.0054 550.573 L43.2084 549.091 Q38.925 547.996 38.5385 547.996 Q37.9266 547.996 37.7656 548.383 Q37.5724 548.737 37.4757 549.767 L37.3469 552.279 Q37.3469 553.052 37.3147 553.374 Q37.2825 553.664 37.1215 553.89 Q36.9605 554.115 36.6062 554.115 Q36.1553 554.115 35.8655 554.019 Q35.5434 553.89 35.4468 553.664 Q35.3502 553.439 35.318 553.278 Q35.2857 553.117 35.2857 552.859 L35.479 544.357 L35.2857 535.919 Q35.2857 534.985 36.0265 534.985 Q36.9605 534.985 37.1537 535.404 Q37.3469 535.822 37.3469 537.239 Q37.3469 539.655 37.669 540.75 Q37.9588 541.813 38.4741 542.135 Q38.9572 542.425 40.3743 542.779 L66.0423 549.188 Q67.3306 549.51 68.6188 549.703 Q69.8748 549.864 70.519 549.864 L71.1631 549.896 Q75.2532 549.896 77.5076 547.642 Q79.762 545.355 79.762 541.845 Q79.762 536.692 75.6719 531.893 Q71.5818 527.062 65.1728 525.42 L41.6303 519.494 Q41.0506 519.301 40.2454 519.301 Q38.9572 519.301 38.1843 520.267 Q37.3791 521.201 37.3469 523.777 Q37.3469 524.969 36.6062 524.969 Q35.9943 524.969 35.7044 524.743 Q35.3824 524.486 35.3502 524.293 Q35.2857 524.067 35.2857 523.777 Q35.2857 522.682 35.3824 520.363 Q35.479 518.045 35.479 516.917 Q35.479 515.79 35.3824 513.536 Q35.2857 511.281 35.2857 510.186 Q35.2857 509.8 35.479 509.607 Q35.64 509.381 35.8332 509.349 L36.0265 509.349 Z" fill="#000000" fill-rule="nonzero" fill-opacity="1" /><path clip-path="url(#clip900)" d="M70.3257 492.152 Q69.5206 492.088 69.5206 490.832 L69.5206 450.414 Q69.5206 448.514 70.2613 448.481 Q71.0665 448.481 71.0343 450.285 L71.0343 490.381 Q71.0665 492.152 70.3257 492.152 M57.4434 492.152 Q56.6382 492.152 56.6704 490.768 L56.6704 450.478 Q56.6704 448.514 57.4434 448.481 Q58.1841 448.481 58.1841 450.156 L58.1841 490.832 Q58.1841 492.152 57.4434 492.152 Z" fill="#000000" fill-rule="nonzero" fill-opacity="1" /><path clip-path="url(#clip900)" d="M59.2469 423.036 Q49.5529 423.036 44.2712 420.588 Q36.413 417.174 36.413 409.123 Q36.413 407.416 36.896 405.644 Q37.3469 403.841 39.1182 401.586 Q40.8896 399.3 43.7881 397.915 Q49.3919 395.274 59.2469 395.274 Q68.8765 395.274 74.126 397.722 Q81.791 401.297 81.791 409.187 Q81.791 412.15 80.2773 415.177 Q78.7637 418.172 75.1244 420.073 Q69.6816 423.036 59.2469 423.036 M58.4418 417.561 Q68.3934 417.561 72.3547 416.852 Q76.6381 416.047 78.506 413.857 Q80.3417 411.635 80.3417 409.187 Q80.3417 406.546 78.3772 404.356 Q76.3804 402.134 72.097 401.458 Q67.8781 400.717 58.4418 400.749 Q49.2631 400.749 45.5916 401.393 Q41.3082 402.263 39.6013 404.582 Q37.8622 406.868 37.8622 409.187 Q37.8622 410.057 38.1199 410.991 Q38.3775 411.892 39.1182 413.213 Q39.859 414.533 41.6947 415.564 Q43.5304 416.562 46.3002 417.045 Q49.875 417.561 58.4418 417.561 Z" fill="#000000" fill-rule="nonzero" fill-opacity="1" /><path clip-path="url(#clip900)" d="M96.187 388.788 Q95.865 388.788 95.0598 387.95 Q84.2387 377.322 63.8523 377.322 Q43.4016 377.322 33.0635 387.531 Q31.8719 388.788 31.5177 388.788 Q30.8735 388.788 30.8735 388.143 Q30.8735 387.693 32.194 386.114 Q33.5144 384.504 36.5418 382.089 Q39.5691 379.641 43.2728 377.838 Q52.2582 373.49 63.8523 373.49 Q74.9956 373.49 83.981 377.644 Q87.7491 379.416 90.9053 381.895 Q94.0614 384.375 95.4463 386.018 Q96.8311 387.66 96.8311 388.143 Q96.8311 388.788 96.187 388.788 Z" fill="#000000" fill-rule="nonzero" fill-opacity="1" /><path clip-path="url(#clip900)" d="M63.4015 348.645 Q63.5303 348.581 63.8523 348.581 Q64.1744 348.581 64.3032 348.645 L95.9616 360.916 Q96.8311 361.238 96.8311 362.14 Q96.8311 362.687 96.4447 363.074 Q96.0582 363.46 95.5107 363.46 Q95.1886 363.46 95.0598 363.396 L63.8523 351.286 L32.6449 363.396 Q32.516 363.46 32.194 363.46 Q31.6465 363.46 31.26 363.074 Q30.8735 362.687 30.8735 362.14 Q30.8735 361.238 31.7431 360.916 L63.4015 348.645 Z" fill="#000000" fill-rule="nonzero" fill-opacity="1" /><path clip-path="url(#clip900)" d="M94.8022 338.069 L33.3856 338.069 Q30.938 338.069 30.938 336.748 Q30.938 335.428 32.9025 335.428 L94.3191 335.428 Q96.7667 335.428 96.7667 336.748 Q96.7667 338.069 94.8022 338.069 Z" fill="#000000" fill-rule="nonzero" fill-opacity="1" /><path clip-path="url(#clip900)" d="M40.5425 328.42 Q39.7084 328.42 39.4604 328.352 Q39.2124 328.262 38.8292 327.901 L28.9549 319.041 Q23.4992 314.194 18.7424 314.194 Q15.6538 314.194 13.4445 315.817 Q11.2352 317.418 11.2352 320.371 Q11.2352 322.4 12.4751 324.114 Q13.715 325.827 15.9244 326.616 Q15.8793 326.481 15.8793 326.007 Q15.8793 324.858 16.6007 324.226 Q17.3221 323.573 18.2915 323.573 Q19.5314 323.573 20.1401 324.384 Q20.7263 325.173 20.7263 325.962 Q20.7263 326.278 20.6586 326.706 Q20.591 327.112 19.9598 327.766 Q19.306 328.42 18.1562 328.42 Q14.9324 328.42 12.3624 325.985 Q9.79237 323.527 9.79237 319.785 Q9.79237 315.547 12.3173 312.774 Q14.8197 309.978 18.7424 309.978 Q20.1176 309.978 21.38 310.407 Q22.62 310.813 23.5894 311.376 Q24.5588 311.917 26.1143 313.405 Q27.6698 314.893 28.7745 316.088 Q29.8792 317.283 32.2238 319.965 L36.9806 324.858 L36.9806 316.539 Q36.9806 312.481 36.6199 312.165 Q35.9661 311.714 32.5168 311.151 L32.5168 309.978 L40.5425 311.286 L40.5425 328.42 Z" fill="#000000" fill-rule="nonzero" fill-opacity="1" /><circle clip-path="url(#clip902)" cx="322.481" cy="1342.85" r="14.4" fill="#009af9" fill-rule="evenodd" fill-opacity="1" stroke="#000000" stroke-opacity="1" stroke-width="3.2"/>
<circle clip-path="url(#clip902)" cx="390.25" cy="1291.48" r="14.4" fill="#009af9" fill-rule="evenodd" fill-opacity="1" stroke="#000000" stroke-opacity="1" stroke-width="3.2"/>
<circle clip-path="url(#clip902)" cx="457.984" cy="1240.13" r="14.4" fill="#009af9" fill-rule="evenodd" fill-opacity="1" stroke="#000000" stroke-opacity="1" stroke-width="3.2"/>
<circle clip-path="url(#clip902)" cx="525.756" cy="1188.81" r="14.4" fill="#009af9" fill-rule="evenodd" fill-opacity="1" stroke="#000000" stroke-opacity="1" stroke-width="3.2"/>
<circle clip-path="url(#clip902)" cx="593.43" cy="1137.5" r="14.4" fill="#009af9" fill-rule="evenodd" fill-opacity="1" stroke="#000000" stroke-opacity="1" stroke-width="3.2"/>
<circle clip-path="url(#clip902)" cx="661.286" cy="1086.2" r="14.4" fill="#009af9" fill-rule="evenodd" fill-opacity="1" stroke="#000000" stroke-opacity="1" stroke-width="3.2"/>
<circle clip-path="url(#clip902)" cx="729.063" cy="1034.93" r="14.4" fill="#009af9" fill-rule="evenodd" fill-opacity="1" stroke="#000000" stroke-opacity="1" stroke-width="3.2"/>
<circle clip-path="url(#clip902)" cx="797.154" cy="983.678" r="14.4" fill="#009af9" fill-rule="evenodd" fill-opacity="1" stroke="#000000" stroke-opacity="1" stroke-width="3.2"/>
<circle clip-path="url(#clip902)" cx="865.007" cy="932.452" r="14.4" fill="#009af9" fill-rule="evenodd" fill-opacity="1" stroke="#000000" stroke-opacity="1" stroke-width="3.2"/>
<circle clip-path="url(#clip902)" cx="933.363" cy="881.259" r="14.4" fill="#009af9" fill-rule="evenodd" fill-opacity="1" stroke="#000000" stroke-opacity="1" stroke-width="3.2"/>
<circle clip-path="url(#clip902)" cx="1001.56" cy="830.111" r="14.4" fill="#009af9" fill-rule="evenodd" fill-opacity="1" stroke="#000000" stroke-opacity="1" stroke-width="3.2"/>
<circle clip-path="url(#clip902)" cx="1070.29" cy="779.023" r="14.4" fill="#009af9" fill-rule="evenodd" fill-opacity="1" stroke="#000000" stroke-opacity="1" stroke-width="3.2"/>
<circle clip-path="url(#clip902)" cx="1139.41" cy="728.017" r="14.4" fill="#009af9" fill-rule="evenodd" fill-opacity="1" stroke="#000000" stroke-opacity="1" stroke-width="3.2"/>
<circle clip-path="url(#clip902)" cx="1209.6" cy="677.126" r="14.4" fill="#009af9" fill-rule="evenodd" fill-opacity="1" stroke="#000000" stroke-opacity="1" stroke-width="3.2"/>
<circle clip-path="url(#clip902)" cx="1279.83" cy="626.398" r="14.4" fill="#009af9" fill-rule="evenodd" fill-opacity="1" stroke="#000000" stroke-opacity="1" stroke-width="3.2"/>
<circle clip-path="url(#clip902)" cx="1351.98" cy="575.902" r="14.4" fill="#009af9" fill-rule="evenodd" fill-opacity="1" stroke="#000000" stroke-opacity="1" stroke-width="3.2"/>
<circle clip-path="url(#clip902)" cx="1425.79" cy="525.741" r="14.4" fill="#009af9" fill-rule="evenodd" fill-opacity="1" stroke="#000000" stroke-opacity="1" stroke-width="3.2"/>
<circle clip-path="url(#clip902)" cx="1500.69" cy="476.074" r="14.4" fill="#009af9" fill-rule="evenodd" fill-opacity="1" stroke="#000000" stroke-opacity="1" stroke-width="3.2"/>
<circle clip-path="url(#clip902)" cx="1578.53" cy="427.137" r="14.4" fill="#009af9" fill-rule="evenodd" fill-opacity="1" stroke="#000000" stroke-opacity="1" stroke-width="3.2"/>
<circle clip-path="url(#clip902)" cx="1660.14" cy="379.288" r="14.4" fill="#009af9" fill-rule="evenodd" fill-opacity="1" stroke="#000000" stroke-opacity="1" stroke-width="3.2"/>
<circle clip-path="url(#clip902)" cx="1738.64" cy="336.977" r="14.4" fill="#009af9" fill-rule="evenodd" fill-opacity="1" stroke="#000000" stroke-opacity="1" stroke-width="3.2"/>
<circle clip-path="url(#clip902)" cx="1746.98" cy="333.049" r="14.4" fill="#009af9" fill-rule="evenodd" fill-opacity="1" stroke="#000000" stroke-opacity="1" stroke-width="3.2"/>
<circle clip-path="url(#clip902)" cx="1785.7" cy="312.793" r="14.4" fill="#009af9" fill-rule="evenodd" fill-opacity="1" stroke="#000000" stroke-opacity="1" stroke-width="3.2"/>
<circle clip-path="url(#clip902)" cx="1823.12" cy="292.574" r="14.4" fill="#009af9" fill-rule="evenodd" fill-opacity="1" stroke="#000000" stroke-opacity="1" stroke-width="3.2"/>
<circle clip-path="url(#clip902)" cx="1832.37" cy="289.149" r="14.4" fill="#009af9" fill-rule="evenodd" fill-opacity="1" stroke="#000000" stroke-opacity="1" stroke-width="3.2"/>
<circle clip-path="url(#clip902)" cx="1862.45" cy="275.369" r="14.4" fill="#009af9" fill-rule="evenodd" fill-opacity="1" stroke="#000000" stroke-opacity="1" stroke-width="3.2"/>
<circle clip-path="url(#clip902)" cx="1889.63" cy="260.528" r="14.4" fill="#009af9" fill-rule="evenodd" fill-opacity="1" stroke="#000000" stroke-opacity="1" stroke-width="3.2"/>
<circle clip-path="url(#clip902)" cx="1914.82" cy="248.513" r="14.4" fill="#009af9" fill-rule="evenodd" fill-opacity="1" stroke="#000000" stroke-opacity="1" stroke-width="3.2"/>
<circle clip-path="url(#clip902)" cx="1914.82" cy="247.587" r="14.4" fill="#009af9" fill-rule="evenodd" fill-opacity="1" stroke="#000000" stroke-opacity="1" stroke-width="3.2"/>
<circle clip-path="url(#clip902)" cx="1941.15" cy="236.201" r="14.4" fill="#009af9" fill-rule="evenodd" fill-opacity="1" stroke="#000000" stroke-opacity="1" stroke-width="3.2"/>
<circle clip-path="url(#clip902)" cx="1960.99" cy="226.109" r="14.4" fill="#009af9" fill-rule="evenodd" fill-opacity="1" stroke="#000000" stroke-opacity="1" stroke-width="3.2"/>
<circle clip-path="url(#clip902)" cx="1978.25" cy="217.107" r="14.4" fill="#009af9" fill-rule="evenodd" fill-opacity="1" stroke="#000000" stroke-opacity="1" stroke-width="3.2"/>
<circle clip-path="url(#clip902)" cx="1995.52" cy="212.155" r="14.4" fill="#009af9" fill-rule="evenodd" fill-opacity="1" stroke="#000000" stroke-opacity="1" stroke-width="3.2"/>
<circle clip-path="url(#clip902)" cx="1996.37" cy="209.031" r="14.4" fill="#009af9" fill-rule="evenodd" fill-opacity="1" stroke="#000000" stroke-opacity="1" stroke-width="3.2"/>
<circle clip-path="url(#clip902)" cx="2018.14" cy="201.75" r="14.4" fill="#009af9" fill-rule="evenodd" fill-opacity="1" stroke="#000000" stroke-opacity="1" stroke-width="3.2"/>
<circle clip-path="url(#clip902)" cx="2027.33" cy="195.157" r="14.4" fill="#009af9" fill-rule="evenodd" fill-opacity="1" stroke="#000000" stroke-opacity="1" stroke-width="3.2"/>
<circle clip-path="url(#clip902)" cx="2043.48" cy="189.163" r="14.4" fill="#009af9" fill-rule="evenodd" fill-opacity="1" stroke="#000000" stroke-opacity="1" stroke-width="3.2"/>
<circle clip-path="url(#clip902)" cx="2052.41" cy="183.692" r="14.4" fill="#009af9" fill-rule="evenodd" fill-opacity="1" stroke="#000000" stroke-opacity="1" stroke-width="3.2"/>
<circle clip-path="url(#clip902)" cx="2061.22" cy="180.935" r="14.4" fill="#009af9" fill-rule="evenodd" fill-opacity="1" stroke="#000000" stroke-opacity="1" stroke-width="3.2"/>
<circle clip-path="url(#clip902)" cx="2068.23" cy="178.683" r="14.4" fill="#009af9" fill-rule="evenodd" fill-opacity="1" stroke="#000000" stroke-opacity="1" stroke-width="3.2"/>
<circle clip-path="url(#clip902)" cx="2074.13" cy="174.081" r="14.4" fill="#009af9" fill-rule="evenodd" fill-opacity="1" stroke="#000000" stroke-opacity="1" stroke-width="3.2"/>
<circle clip-path="url(#clip902)" cx="2084.86" cy="169.842" r="14.4" fill="#009af9" fill-rule="evenodd" fill-opacity="1" stroke="#000000" stroke-opacity="1" stroke-width="3.2"/>
<circle clip-path="url(#clip902)" cx="2095.32" cy="165.926" r="14.4" fill="#009af9" fill-rule="evenodd" fill-opacity="1" stroke="#000000" stroke-opacity="1" stroke-width="3.2"/>
<circle clip-path="url(#clip902)" cx="2101.59" cy="162.3" r="14.4" fill="#009af9" fill-rule="evenodd" fill-opacity="1" stroke="#000000" stroke-opacity="1" stroke-width="3.2"/>
<circle clip-path="url(#clip902)" cx="2110.17" cy="158.933" r="14.4" fill="#009af9" fill-rule="evenodd" fill-opacity="1" stroke="#000000" stroke-opacity="1" stroke-width="3.2"/>
<circle clip-path="url(#clip902)" cx="2119.78" cy="155.275" r="14.4" fill="#009af9" fill-rule="evenodd" fill-opacity="1" stroke="#000000" stroke-opacity="1" stroke-width="3.2"/>
<circle clip-path="url(#clip902)" cx="2167.3" cy="135.018" r="14.4" fill="#009af9" fill-rule="evenodd" fill-opacity="1" stroke="#000000" stroke-opacity="1" stroke-width="3.2"/>
<circle clip-path="url(#clip902)" cx="2205.87" cy="119.525" r="14.4" fill="#009af9" fill-rule="evenodd" fill-opacity="1" stroke="#000000" stroke-opacity="1" stroke-width="3.2"/>
<circle clip-path="url(#clip902)" cx="2232.59" cy="107.925" r="14.4" fill="#009af9" fill-rule="evenodd" fill-opacity="1" stroke="#000000" stroke-opacity="1" stroke-width="3.2"/>
<circle clip-path="url(#clip902)" cx="2257.17" cy="99.344" r="14.4" fill="#009af9" fill-rule="evenodd" fill-opacity="1" stroke="#000000" stroke-opacity="1" stroke-width="3.2"/>
<circle clip-path="url(#clip902)" cx="2273.52" cy="93.0302" r="14.4" fill="#009af9" fill-rule="evenodd" fill-opacity="1" stroke="#000000" stroke-opacity="1" stroke-width="3.2"/>
<circle clip-path="url(#clip902)" cx="2286.37" cy="88.3912" r="14.4" fill="#009af9" fill-rule="evenodd" fill-opacity="1" stroke="#000000" stroke-opacity="1" stroke-width="3.2"/>
<circle clip-path="url(#clip902)" cx="2293.62" cy="84.9802" r="14.4" fill="#009af9" fill-rule="evenodd" fill-opacity="1" stroke="#000000" stroke-opacity="1" stroke-width="3.2"/>
</svg>
