<?xml version="1.0" encoding="utf-8"?>
<svg xmlns="http://www.w3.org/2000/svg" xmlns:xlink="http://www.w3.org/1999/xlink" width="600" height="400" viewBox="0 0 2400 1600">
<defs>
  <clipPath id="clip010">
    <rect x="0" y="0" width="2400" height="1600"/>
  </clipPath>
</defs>
<path clip-path="url(#clip010)" d="M0 1600 L2400 1600 L2400 0 L0 0  Z" fill="#ffffff" fill-rule="evenodd" fill-opacity="1"/>
<defs>
  <clipPath id="clip011">
    <rect x="480" y="0" width="1681" height="1600"/>
  </clipPath>
</defs>
<path clip-path="url(#clip010)" d="M263.347 1380.58 L2352.76 1380.58 L2352.76 47.2441 L263.347 47.2441  Z" fill="#ffffff" fill-rule="evenodd" fill-opacity="1"/>
<defs>
  <clipPath id="clip012">
    <rect x="263" y="47" width="2090" height="1334"/>
  </clipPath>
</defs>
<polyline clip-path="url(#clip012)" style="stroke:#000000; stroke-linecap:round; stroke-linejoin:round; stroke-width:2; stroke-opacity:0.1; fill:none" points="616.364,1380.58 616.364,47.2441 "/>
<polyline clip-path="url(#clip012)" style="stroke:#000000; stroke-linecap:round; stroke-linejoin:round; stroke-width:2; stroke-opacity:0.1; fill:none" points="1144.2,1380.58 1144.2,47.2441 "/>
<polyline clip-path="url(#clip012)" style="stroke:#000000; stroke-linecap:round; stroke-linejoin:round; stroke-width:2; stroke-opacity:0.1; fill:none" points="1672.04,1380.58 1672.04,47.2441 "/>
<polyline clip-path="url(#clip012)" style="stroke:#000000; stroke-linecap:round; stroke-linejoin:round; stroke-width:2; stroke-opacity:0.1; fill:none" points="2199.88,1380.58 2199.88,47.2441 "/>
<polyline clip-path="url(#clip012)" style="stroke:#000000; stroke-linecap:round; stroke-linejoin:round; stroke-width:2; stroke-opacity:0.1; fill:none" points="616.364,1380.58 616.364,47.2441 "/>
<polyline clip-path="url(#clip012)" style="stroke:#000000; stroke-linecap:round; stroke-linejoin:round; stroke-width:2; stroke-opacity:0.1; fill:none" points="1144.2,1380.58 1144.2,47.2441 "/>
<polyline clip-path="url(#clip012)" style="stroke:#000000; stroke-linecap:round; stroke-linejoin:round; stroke-width:2; stroke-opacity:0.1; fill:none" points="1672.04,1380.58 1672.04,47.2441 "/>
<polyline clip-path="url(#clip012)" style="stroke:#000000; stroke-linecap:round; stroke-linejoin:round; stroke-width:2; stroke-opacity:0.1; fill:none" points="2199.88,1380.58 2199.88,47.2441 "/>
<polyline clip-path="url(#clip012)" style="stroke:#000000; stroke-linecap:round; stroke-linejoin:round; stroke-width:2; stroke-opacity:0.1; fill:none" points="263.347,1002.16 2352.76,1002.16 "/>
<polyline clip-path="url(#clip012)" style="stroke:#000000; stroke-linecap:round; stroke-linejoin:round; stroke-width:2; stroke-opacity:0.1; fill:none" points="263.347,601.987 2352.76,601.987 "/>
<polyline clip-path="url(#clip012)" style="stroke:#000000; stroke-linecap:round; stroke-linejoin:round; stroke-width:2; stroke-opacity:0.1; fill:none" points="263.347,201.811 2352.76,201.811 "/>
<polyline clip-path="url(#clip012)" style="stroke:#000000; stroke-linecap:round; stroke-linejoin:round; stroke-width:2; stroke-opacity:0.1; fill:none" points="263.347,1002.16 2352.76,1002.16 "/>
<polyline clip-path="url(#clip012)" style="stroke:#000000; stroke-linecap:round; stroke-linejoin:round; stroke-width:2; stroke-opacity:0.1; fill:none" points="263.347,601.987 2352.76,601.987 "/>
<polyline clip-path="url(#clip012)" style="stroke:#000000; stroke-linecap:round; stroke-linejoin:round; stroke-width:2; stroke-opacity:0.1; fill:none" points="263.347,201.811 2352.76,201.811 "/>
<polyline clip-path="url(#clip010)" style="stroke:#000000; stroke-linecap:round; stroke-linejoin:round; stroke-width:4; stroke-opacity:1; fill:none" points="263.347,1380.58 2352.76,1380.58 "/>
<polyline clip-path="url(#clip010)" style="stroke:#000000; stroke-linecap:round; stroke-linejoin:round; stroke-width:4; stroke-opacity:1; fill:none" points="263.347,47.2441 2352.76,47.2441 "/>
<polyline clip-path="url(#clip010)" style="stroke:#000000; stroke-linecap:round; stroke-linejoin:round; stroke-width:4; stroke-opacity:1; fill:none" points="616.364,1380.58 616.364,1361.69 "/>
<polyline clip-path="url(#clip010)" style="stroke:#000000; stroke-linecap:round; stroke-linejoin:round; stroke-width:4; stroke-opacity:1; fill:none" points="1144.2,1380.58 1144.2,1361.69 "/>
<polyline clip-path="url(#clip010)" style="stroke:#000000; stroke-linecap:round; stroke-linejoin:round; stroke-width:4; stroke-opacity:1; fill:none" points="1672.04,1380.58 1672.04,1361.69 "/>
<polyline clip-path="url(#clip010)" style="stroke:#000000; stroke-linecap:round; stroke-linejoin:round; stroke-width:4; stroke-opacity:1; fill:none" points="2199.88,1380.58 2199.88,1361.69 "/>
<polyline clip-path="url(#clip010)" style="stroke:#000000; stroke-linecap:round; stroke-linejoin:round; stroke-width:4; stroke-opacity:1; fill:none" points="616.364,47.2441 616.364,66.1417 "/>
<polyline clip-path="url(#clip010)" style="stroke:#000000; stroke-linecap:round; stroke-linejoin:round; stroke-width:4; stroke-opacity:1; fill:none" points="1144.2,47.2441 1144.2,66.1417 "/>
<polyline clip-path="url(#clip010)" style="stroke:#000000; stroke-linecap:round; stroke-linejoin:round; stroke-width:4; stroke-opacity:1; fill:none" points="1672.04,47.2441 1672.04,66.1417 "/>
<polyline clip-path="url(#clip010)" style="stroke:#000000; stroke-linecap:round; stroke-linejoin:round; stroke-width:4; stroke-opacity:1; fill:none" points="2199.88,47.2441 2199.88,66.1417 "/>
<path clip-path="url(#clip010)" d="M581.347 1454.71 L588.986 1454.71 L588.986 1428.34 L580.676 1430.01 L580.676 1425.75 L588.94 1424.08 L593.615 1424.08 L593.615 1454.71 L601.254 1454.71 L601.254 1458.64 L581.347 1458.64 L581.347 1454.71 Z" fill="#000000" fill-rule="nonzero" fill-opacity="1" /><path clip-path="url(#clip010)" d="M620.699 1427.16 Q617.088 1427.16 615.259 1430.73 Q613.453 1434.27 613.453 1441.4 Q613.453 1448.51 615.259 1452.07 Q617.088 1455.61 620.699 1455.61 Q624.333 1455.61 626.138 1452.07 Q627.967 1448.51 627.967 1441.4 Q627.967 1434.27 626.138 1430.73 Q624.333 1427.16 620.699 1427.16 M620.699 1423.46 Q626.509 1423.46 629.564 1428.07 Q632.643 1432.65 632.643 1441.4 Q632.643 1450.13 629.564 1454.73 Q626.509 1459.32 620.699 1459.32 Q614.888 1459.32 611.81 1454.73 Q608.754 1450.13 608.754 1441.4 Q608.754 1432.65 611.81 1428.07 Q614.888 1423.46 620.699 1423.46 Z" fill="#000000" fill-rule="nonzero" fill-opacity="1" /><path clip-path="url(#clip010)" d="M642.348 1405.66 Q639.414 1405.66 637.928 1408.55 Q636.461 1411.43 636.461 1417.22 Q636.461 1423 637.928 1425.89 Q639.414 1428.77 642.348 1428.77 Q645.301 1428.77 646.768 1425.89 Q648.253 1423 648.253 1417.22 Q648.253 1411.43 646.768 1408.55 Q645.301 1405.66 642.348 1405.66 M642.348 1402.65 Q647.069 1402.65 649.551 1406.39 Q652.053 1410.11 652.053 1417.22 Q652.053 1424.31 649.551 1428.06 Q647.069 1431.78 642.348 1431.78 Q637.627 1431.78 635.126 1428.06 Q632.643 1424.31 632.643 1417.22 Q632.643 1410.11 635.126 1406.39 Q637.627 1402.65 642.348 1402.65 Z" fill="#000000" fill-rule="nonzero" fill-opacity="1" /><path clip-path="url(#clip010)" d="M1110.53 1454.71 L1118.17 1454.71 L1118.17 1428.34 L1109.86 1430.01 L1109.86 1425.75 L1118.12 1424.08 L1122.8 1424.08 L1122.8 1454.71 L1130.44 1454.71 L1130.44 1458.64 L1110.53 1458.64 L1110.53 1454.71 Z" fill="#000000" fill-rule="nonzero" fill-opacity="1" /><path clip-path="url(#clip010)" d="M1149.88 1427.16 Q1146.27 1427.16 1144.44 1430.73 Q1142.64 1434.27 1142.64 1441.4 Q1142.64 1448.51 1144.44 1452.07 Q1146.27 1455.61 1149.88 1455.61 Q1153.52 1455.61 1155.32 1452.07 Q1157.15 1448.51 1157.15 1441.4 Q1157.15 1434.27 1155.32 1430.73 Q1153.52 1427.16 1149.88 1427.16 M1149.88 1423.46 Q1155.69 1423.46 1158.75 1428.07 Q1161.83 1432.65 1161.83 1441.4 Q1161.83 1450.13 1158.75 1454.73 Q1155.69 1459.32 1149.88 1459.32 Q1144.07 1459.32 1140.99 1454.73 Q1137.94 1450.13 1137.94 1441.4 Q1137.94 1432.65 1140.99 1428.07 Q1144.07 1423.46 1149.88 1423.46 Z" fill="#000000" fill-rule="nonzero" fill-opacity="1" /><path clip-path="url(#clip010)" d="M1162.37 1428.04 L1168.58 1428.04 L1168.58 1406.62 L1161.83 1407.97 L1161.83 1404.51 L1168.54 1403.15 L1172.34 1403.15 L1172.34 1428.04 L1178.55 1428.04 L1178.55 1431.23 L1162.37 1431.23 L1162.37 1428.04 Z" fill="#000000" fill-rule="nonzero" fill-opacity="1" /><path clip-path="url(#clip010)" d="M1637.82 1454.71 L1645.46 1454.71 L1645.46 1428.34 L1637.15 1430.01 L1637.15 1425.75 L1645.41 1424.08 L1650.08 1424.08 L1650.08 1454.71 L1657.72 1454.71 L1657.72 1458.64 L1637.82 1458.64 L1637.82 1454.71 Z" fill="#000000" fill-rule="nonzero" fill-opacity="1" /><path clip-path="url(#clip010)" d="M1677.17 1427.16 Q1673.56 1427.16 1671.73 1430.73 Q1669.92 1434.27 1669.92 1441.4 Q1669.92 1448.51 1671.73 1452.07 Q1673.56 1455.61 1677.17 1455.61 Q1680.8 1455.61 1682.61 1452.07 Q1684.44 1448.51 1684.44 1441.4 Q1684.44 1434.27 1682.61 1430.73 Q1680.8 1427.16 1677.17 1427.16 M1677.17 1423.46 Q1682.98 1423.46 1686.03 1428.07 Q1689.11 1432.65 1689.11 1441.4 Q1689.11 1450.13 1686.03 1454.73 Q1682.98 1459.32 1677.17 1459.32 Q1671.36 1459.32 1668.28 1454.73 Q1665.22 1450.13 1665.22 1441.4 Q1665.22 1432.65 1668.28 1428.07 Q1671.36 1423.46 1677.17 1423.46 Z" fill="#000000" fill-rule="nonzero" fill-opacity="1" /><path clip-path="url(#clip010)" d="M1693.68 1428.04 L1706.94 1428.04 L1706.94 1431.23 L1689.11 1431.23 L1689.11 1428.04 Q1691.28 1425.8 1695 1422.04 Q1698.74 1418.26 1699.7 1417.17 Q1701.53 1415.12 1702.24 1413.71 Q1702.97 1412.28 1702.97 1410.9 Q1702.97 1408.67 1701.39 1407.25 Q1699.83 1405.84 1697.31 1405.84 Q1695.53 1405.84 1693.53 1406.46 Q1691.56 1407.09 1689.3 1408.35 L1689.3 1404.51 Q1691.6 1403.59 1693.59 1403.12 Q1695.58 1402.65 1697.24 1402.65 Q1701.6 1402.65 1704.2 1404.83 Q1706.79 1407.01 1706.79 1410.66 Q1706.79 1412.39 1706.13 1413.95 Q1705.49 1415.49 1703.78 1417.6 Q1703.31 1418.14 1700.79 1420.76 Q1698.27 1423.35 1693.68 1428.04 Z" fill="#000000" fill-rule="nonzero" fill-opacity="1" /><path clip-path="url(#clip010)" d="M2165.33 1454.71 L2172.97 1454.71 L2172.97 1428.34 L2164.66 1430.01 L2164.66 1425.75 L2172.92 1424.08 L2177.6 1424.08 L2177.6 1454.71 L2185.23 1454.71 L2185.23 1458.64 L2165.33 1458.64 L2165.33 1454.71 Z" fill="#000000" fill-rule="nonzero" fill-opacity="1" /><path clip-path="url(#clip010)" d="M2204.68 1427.16 Q2201.07 1427.16 2199.24 1430.73 Q2197.43 1434.27 2197.43 1441.4 Q2197.43 1448.51 2199.24 1452.07 Q2201.07 1455.61 2204.68 1455.61 Q2208.31 1455.61 2210.12 1452.07 Q2211.95 1448.51 2211.95 1441.4 Q2211.95 1434.27 2210.12 1430.73 Q2208.31 1427.16 2204.68 1427.16 M2204.68 1423.46 Q2210.49 1423.46 2213.54 1428.07 Q2216.62 1432.65 2216.62 1441.4 Q2216.62 1450.13 2213.54 1454.73 Q2210.49 1459.32 2204.68 1459.32 Q2198.87 1459.32 2195.79 1454.73 Q2192.73 1450.13 2192.73 1441.4 Q2192.73 1432.65 2195.79 1428.07 Q2198.87 1423.46 2204.68 1423.46 Z" fill="#000000" fill-rule="nonzero" fill-opacity="1" /><path clip-path="url(#clip010)" d="M2229.32 1416.09 Q2232.05 1416.68 2233.57 1418.52 Q2235.11 1420.36 2235.11 1423.07 Q2235.11 1427.23 2232.25 1429.5 Q2229.39 1431.78 2224.13 1431.78 Q2222.36 1431.78 2220.48 1431.42 Q2218.62 1431.08 2216.62 1430.39 L2216.62 1426.72 Q2218.2 1427.64 2220.08 1428.11 Q2221.96 1428.58 2224.01 1428.58 Q2227.59 1428.58 2229.45 1427.17 Q2231.33 1425.76 2231.33 1423.07 Q2231.33 1420.59 2229.58 1419.2 Q2227.85 1417.79 2224.75 1417.79 L2221.48 1417.79 L2221.48 1414.66 L2224.9 1414.66 Q2227.7 1414.66 2229.19 1413.56 Q2230.67 1412.43 2230.67 1410.32 Q2230.67 1408.16 2229.13 1407.01 Q2227.61 1405.84 2224.75 1405.84 Q2223.19 1405.84 2221.4 1406.18 Q2219.61 1406.52 2217.47 1407.24 L2217.47 1403.85 Q2219.63 1403.25 2221.51 1402.95 Q2223.41 1402.65 2225.09 1402.65 Q2229.41 1402.65 2231.93 1404.62 Q2234.45 1406.58 2234.45 1409.93 Q2234.45 1412.26 2233.12 1413.88 Q2231.78 1415.47 2229.32 1416.09 Z" fill="#000000" fill-rule="nonzero" fill-opacity="1" /><path clip-path="url(#clip010)" d="M1214.36 1571.84 L1214.36 1509.94 Q1214.36 1507.98 1215.68 1507.98 Q1217 1507.98 1217 1510.04 L1217 1571.68 Q1217 1573.81 1215.68 1573.81 Q1214.36 1573.81 1214.36 1571.84 M1221.64 1571.84 L1221.64 1510.42 Q1221.64 1507.98 1222.96 1507.98 Q1224.28 1507.98 1224.28 1510.04 L1224.28 1571.68 Q1224.28 1573.81 1222.96 1573.81 Q1221.64 1573.81 1221.64 1571.84 Z" fill="#000000" fill-rule="nonzero" fill-opacity="1" /><path clip-path="url(#clip010)" d="M1292.27 1556.06 Q1292.27 1556.67 1292.01 1556.99 Q1291.79 1557.28 1291.56 1557.35 Q1291.37 1557.38 1291.08 1557.38 Q1290.24 1557.38 1287.34 1557.28 Q1284.44 1557.19 1283.61 1557.19 Q1282.25 1557.19 1279.49 1557.28 Q1276.72 1557.38 1275.36 1557.38 Q1274.46 1557.38 1274.46 1556.64 Q1274.46 1556.16 1274.56 1555.9 Q1274.65 1555.61 1274.91 1555.51 Q1275.2 1555.38 1275.36 1555.38 Q1275.56 1555.35 1276.04 1555.35 Q1276.68 1555.35 1277.36 1555.29 Q1278.04 1555.19 1278.87 1555 Q1279.71 1554.8 1280.23 1554.32 Q1280.77 1553.84 1280.77 1553.16 Q1280.77 1552.87 1280.55 1550.49 Q1280.32 1548.11 1280.03 1545.34 Q1279.74 1542.53 1279.71 1542.15 L1263.16 1542.15 Q1261.64 1544.76 1260.58 1546.56 Q1259.52 1548.36 1259.13 1548.97 Q1258.74 1549.59 1258.52 1549.97 Q1258.29 1550.36 1258.16 1550.58 Q1257.23 1552.29 1257.23 1553.03 Q1257.23 1555.09 1260.32 1555.35 Q1261.39 1555.35 1261.39 1556.12 Q1261.39 1556.7 1261.13 1557.03 Q1260.87 1557.32 1260.64 1557.35 Q1260.45 1557.38 1260.13 1557.38 Q1259.07 1557.38 1256.84 1557.28 Q1254.62 1557.19 1253.53 1557.19 Q1252.59 1557.19 1250.66 1557.28 Q1248.73 1557.38 1247.86 1557.38 Q1247.47 1557.38 1247.25 1557.15 Q1247.02 1556.93 1247.02 1556.64 Q1247.02 1556.19 1247.09 1555.93 Q1247.18 1555.67 1247.44 1555.54 Q1247.7 1555.42 1247.83 1555.42 Q1247.96 1555.38 1248.41 1555.35 Q1250.85 1555.19 1252.75 1554.03 Q1254.69 1552.84 1256.52 1549.78 L1279.45 1511.26 Q1279.68 1510.88 1279.84 1510.68 Q1280 1510.49 1280.32 1510.33 Q1280.68 1510.17 1281.19 1510.17 Q1282 1510.17 1282.16 1510.42 Q1282.32 1510.65 1282.42 1511.74 L1286.44 1552.97 Q1286.54 1553.84 1286.6 1554.19 Q1286.7 1554.51 1287.12 1554.87 Q1287.57 1555.19 1288.37 1555.29 Q1289.21 1555.35 1290.76 1555.35 Q1291.34 1555.35 1291.56 1555.38 Q1291.79 1555.38 1292.01 1555.54 Q1292.27 1555.71 1292.27 1556.06 M1279.52 1540.09 L1277.42 1518.35 L1264.41 1540.09 L1279.52 1540.09 Z" fill="#000000" fill-rule="nonzero" fill-opacity="1" /><path clip-path="url(#clip010)" d="M1298.87 1497.93 Q1298.87 1490.13 1301.78 1483.84 Q1303.02 1481.2 1304.76 1479 Q1306.49 1476.79 1307.64 1475.82 Q1308.79 1474.85 1309.11 1474.85 Q1309.56 1474.85 1309.58 1475.3 Q1309.58 1475.52 1308.97 1476.09 Q1301.53 1483.66 1301.56 1497.93 Q1301.56 1512.25 1308.79 1519.53 Q1309.58 1520.32 1309.58 1520.57 Q1309.58 1521.02 1309.11 1521.02 Q1308.79 1521.02 1307.69 1520.09 Q1306.58 1519.17 1304.87 1517.05 Q1303.16 1514.93 1301.92 1512.34 Q1298.87 1506.05 1298.87 1497.93 Z" fill="#000000" fill-rule="nonzero" fill-opacity="1" /><path clip-path="url(#clip010)" d="M1314.02 1509.48 Q1314.02 1508.64 1314.08 1508.39 Q1314.17 1508.14 1314.53 1507.76 L1323.39 1497.89 Q1328.24 1492.43 1328.24 1487.67 Q1328.24 1484.59 1326.62 1482.38 Q1325.02 1480.17 1322.06 1480.17 Q1320.04 1480.17 1318.32 1481.41 Q1316.61 1482.65 1315.82 1484.86 Q1315.95 1484.81 1316.43 1484.81 Q1317.58 1484.81 1318.21 1485.53 Q1318.86 1486.25 1318.86 1487.22 Q1318.86 1488.46 1318.05 1489.07 Q1317.26 1489.66 1316.47 1489.66 Q1316.16 1489.66 1315.73 1489.59 Q1315.32 1489.52 1314.67 1488.89 Q1314.02 1488.24 1314.02 1487.09 Q1314.02 1483.86 1316.45 1481.29 Q1318.91 1478.72 1322.65 1478.72 Q1326.89 1478.72 1329.66 1481.25 Q1332.46 1483.75 1332.46 1487.67 Q1332.46 1489.05 1332.03 1490.31 Q1331.62 1491.55 1331.06 1492.52 Q1330.52 1493.49 1329.03 1495.05 Q1327.54 1496.6 1326.35 1497.71 Q1325.15 1498.81 1322.47 1501.16 L1317.58 1505.91 L1325.9 1505.91 Q1329.95 1505.91 1330.27 1505.55 Q1330.72 1504.9 1331.28 1501.45 L1332.46 1501.45 L1331.15 1509.48 L1314.02 1509.48 Z" fill="#000000" fill-rule="nonzero" fill-opacity="1" /><path clip-path="url(#clip010)" d="M1337.99 1520.57 Q1337.99 1520.34 1338.58 1519.78 Q1346.02 1512.2 1346.02 1497.93 Q1346.02 1483.62 1338.87 1476.38 Q1337.99 1475.55 1337.99 1475.3 Q1337.99 1474.85 1338.44 1474.85 Q1338.76 1474.85 1339.86 1475.77 Q1340.99 1476.7 1342.68 1478.82 Q1344.39 1480.93 1345.65 1483.53 Q1348.7 1489.82 1348.7 1497.93 Q1348.7 1505.73 1345.79 1512.02 Q1344.55 1514.66 1342.81 1516.87 Q1341.08 1519.08 1339.93 1520.05 Q1338.78 1521.02 1338.44 1521.02 Q1337.99 1521.02 1337.99 1520.57 Z" fill="#000000" fill-rule="nonzero" fill-opacity="1" /><path clip-path="url(#clip010)" d="M1362.76 1571.84 L1362.76 1509.94 Q1362.76 1507.98 1364.08 1507.98 Q1365.4 1507.98 1365.4 1510.04 L1365.4 1571.68 Q1365.4 1573.81 1364.08 1573.81 Q1362.76 1573.81 1362.76 1571.84 M1370.04 1571.84 L1370.04 1510.42 Q1370.04 1507.98 1371.36 1507.98 Q1372.68 1507.98 1372.68 1510.04 L1372.68 1571.68 Q1372.68 1573.81 1371.36 1573.81 Q1370.04 1573.81 1370.04 1571.84 Z" fill="#000000" fill-rule="nonzero" fill-opacity="1" /><path clip-path="url(#clip010)" d="M1379.61 1565.57 L1379.61 1564.13 Q1385.16 1564.13 1388.02 1561.17 Q1388.81 1561.17 1388.94 1561.35 Q1389.08 1561.53 1389.08 1562.37 L1389.08 1588.27 Q1389.08 1589.65 1389.76 1590.07 Q1390.43 1590.5 1393.39 1590.5 L1394.85 1590.5 L1394.85 1591.92 Q1393.23 1591.79 1387.37 1591.79 Q1381.51 1591.79 1379.9 1591.92 L1379.9 1590.5 L1381.37 1590.5 Q1384.28 1590.5 1384.98 1590.1 Q1385.68 1589.67 1385.68 1588.27 L1385.68 1564.35 Q1383.26 1565.57 1379.61 1565.57 Z" fill="#000000" fill-rule="nonzero" fill-opacity="1" /><polyline clip-path="url(#clip010)" style="stroke:#000000; stroke-linecap:round; stroke-linejoin:round; stroke-width:4; stroke-opacity:1; fill:none" points="263.347,1380.58 263.347,47.2441 "/>
<polyline clip-path="url(#clip010)" style="stroke:#000000; stroke-linecap:round; stroke-linejoin:round; stroke-width:4; stroke-opacity:1; fill:none" points="2352.76,1380.58 2352.76,47.2441 "/>
<polyline clip-path="url(#clip010)" style="stroke:#000000; stroke-linecap:round; stroke-linejoin:round; stroke-width:4; stroke-opacity:1; fill:none" points="263.347,1002.16 282.244,1002.16 "/>
<polyline clip-path="url(#clip010)" style="stroke:#000000; stroke-linecap:round; stroke-linejoin:round; stroke-width:4; stroke-opacity:1; fill:none" points="263.347,601.987 282.244,601.987 "/>
<polyline clip-path="url(#clip010)" style="stroke:#000000; stroke-linecap:round; stroke-linejoin:round; stroke-width:4; stroke-opacity:1; fill:none" points="263.347,201.811 282.244,201.811 "/>
<polyline clip-path="url(#clip010)" style="stroke:#000000; stroke-linecap:round; stroke-linejoin:round; stroke-width:4; stroke-opacity:1; fill:none" points="2352.76,1002.16 2333.86,1002.16 "/>
<polyline clip-path="url(#clip010)" style="stroke:#000000; stroke-linecap:round; stroke-linejoin:round; stroke-width:4; stroke-opacity:1; fill:none" points="2352.76,601.987 2333.86,601.987 "/>
<polyline clip-path="url(#clip010)" style="stroke:#000000; stroke-linecap:round; stroke-linejoin:round; stroke-width:4; stroke-opacity:1; fill:none" points="2352.76,201.811 2333.86,201.811 "/>
<path clip-path="url(#clip010)" d="M126.718 1021.96 L134.357 1021.96 L134.357 995.59 L126.047 997.256 L126.047 992.997 L134.311 991.331 L138.986 991.331 L138.986 1021.96 L146.625 1021.96 L146.625 1025.89 L126.718 1025.89 L126.718 1021.96 Z" fill="#000000" fill-rule="nonzero" fill-opacity="1" /><path clip-path="url(#clip010)" d="M166.07 994.409 Q162.459 994.409 160.63 997.974 Q158.824 1001.52 158.824 1008.65 Q158.824 1015.75 160.63 1019.32 Q162.459 1022.86 166.07 1022.86 Q169.704 1022.86 171.509 1019.32 Q173.338 1015.75 173.338 1008.65 Q173.338 1001.52 171.509 997.974 Q169.704 994.409 166.07 994.409 M166.07 990.706 Q171.88 990.706 174.935 995.312 Q178.014 999.895 178.014 1008.65 Q178.014 1017.37 174.935 1021.98 Q171.88 1026.56 166.07 1026.56 Q160.26 1026.56 157.181 1021.98 Q154.125 1017.37 154.125 1008.65 Q154.125 999.895 157.181 995.312 Q160.26 990.706 166.07 990.706 Z" fill="#000000" fill-rule="nonzero" fill-opacity="1" /><path clip-path="url(#clip010)" d="M178.014 984.807 L202.126 984.807 L202.126 988.004 L178.014 988.004 L178.014 984.807 Z" fill="#000000" fill-rule="nonzero" fill-opacity="1" /><path clip-path="url(#clip010)" d="M210.363 970.4 L225.278 970.4 L225.278 973.597 L213.843 973.597 L213.843 980.481 Q214.67 980.199 215.498 980.067 Q216.325 979.917 217.153 979.917 Q221.855 979.917 224.601 982.494 Q227.347 985.07 227.347 989.471 Q227.347 994.004 224.526 996.524 Q221.705 999.026 216.57 999.026 Q214.802 999.026 212.959 998.725 Q211.135 998.424 209.179 997.822 L209.179 994.004 Q210.871 994.925 212.677 995.377 Q214.482 995.828 216.495 995.828 Q219.749 995.828 221.648 994.117 Q223.548 992.405 223.548 989.471 Q223.548 986.537 221.648 984.826 Q219.749 983.114 216.495 983.114 Q214.971 983.114 213.448 983.453 Q211.943 983.791 210.363 984.506 L210.363 970.4 Z" fill="#000000" fill-rule="nonzero" fill-opacity="1" /><path clip-path="url(#clip010)" d="M126.436 621.779 L134.075 621.779 L134.075 595.414 L125.765 597.08 L125.765 592.821 L134.028 591.154 L138.704 591.154 L138.704 621.779 L146.343 621.779 L146.343 625.714 L126.436 625.714 L126.436 621.779 Z" fill="#000000" fill-rule="nonzero" fill-opacity="1" /><path clip-path="url(#clip010)" d="M165.788 594.233 Q162.176 594.233 160.348 597.798 Q158.542 601.34 158.542 608.469 Q158.542 615.576 160.348 619.14 Q162.176 622.682 165.788 622.682 Q169.422 622.682 171.227 619.14 Q173.056 615.576 173.056 608.469 Q173.056 601.34 171.227 597.798 Q169.422 594.233 165.788 594.233 M165.788 590.529 Q171.598 590.529 174.653 595.136 Q177.732 599.719 177.732 608.469 Q177.732 617.196 174.653 621.802 Q171.598 626.386 165.788 626.386 Q159.977 626.386 156.899 621.802 Q153.843 617.196 153.843 608.469 Q153.843 599.719 156.899 595.136 Q159.977 590.529 165.788 590.529 Z" fill="#000000" fill-rule="nonzero" fill-opacity="1" /><path clip-path="url(#clip010)" d="M177.732 584.631 L201.844 584.631 L201.844 587.828 L177.732 587.828 L177.732 584.631 Z" fill="#000000" fill-rule="nonzero" fill-opacity="1" /><path clip-path="url(#clip010)" d="M221.554 583.164 Q224.281 583.747 225.805 585.59 Q227.347 587.433 227.347 590.141 Q227.347 594.298 224.488 596.574 Q221.629 598.849 216.363 598.849 Q214.595 598.849 212.714 598.492 Q210.852 598.154 208.859 597.458 L208.859 593.79 Q210.439 594.712 212.319 595.182 Q214.2 595.652 216.25 595.652 Q219.824 595.652 221.686 594.241 Q223.566 592.831 223.566 590.141 Q223.566 587.659 221.817 586.267 Q220.087 584.856 216.984 584.856 L213.711 584.856 L213.711 581.734 L217.134 581.734 Q219.937 581.734 221.422 580.625 Q222.908 579.496 222.908 577.39 Q222.908 575.227 221.366 574.08 Q219.843 572.913 216.984 572.913 Q215.423 572.913 213.636 573.252 Q211.849 573.591 209.705 574.305 L209.705 570.92 Q211.868 570.318 213.749 570.017 Q215.648 569.716 217.322 569.716 Q221.648 569.716 224.168 571.691 Q226.689 573.647 226.689 576.995 Q226.689 579.327 225.353 580.944 Q224.018 582.543 221.554 583.164 Z" fill="#000000" fill-rule="nonzero" fill-opacity="1" /><path clip-path="url(#clip010)" d="M126.906 221.603 L134.545 221.603 L134.545 195.237 L126.235 196.904 L126.235 192.645 L134.499 190.978 L139.175 190.978 L139.175 221.603 L146.813 221.603 L146.813 225.538 L126.906 225.538 L126.906 221.603 Z" fill="#000000" fill-rule="nonzero" fill-opacity="1" /><path clip-path="url(#clip010)" d="M166.258 194.057 Q162.647 194.057 160.818 197.622 Q159.012 201.163 159.012 208.293 Q159.012 215.399 160.818 218.964 Q162.647 222.506 166.258 222.506 Q169.892 222.506 171.698 218.964 Q173.526 215.399 173.526 208.293 Q173.526 201.163 171.698 197.622 Q169.892 194.057 166.258 194.057 M166.258 190.353 Q172.068 190.353 175.123 194.96 Q178.202 199.543 178.202 208.293 Q178.202 217.02 175.123 221.626 Q172.068 226.21 166.258 226.21 Q160.448 226.21 157.369 221.626 Q154.313 217.02 154.313 208.293 Q154.313 199.543 157.369 194.96 Q160.448 190.353 166.258 190.353 Z" fill="#000000" fill-rule="nonzero" fill-opacity="1" /><path clip-path="url(#clip010)" d="M178.202 184.455 L202.314 184.455 L202.314 187.652 L178.202 187.652 L178.202 184.455 Z" fill="#000000" fill-rule="nonzero" fill-opacity="1" /><path clip-path="url(#clip010)" d="M211.172 194.931 L217.379 194.931 L217.379 173.508 L210.627 174.863 L210.627 171.402 L217.341 170.048 L221.14 170.048 L221.14 194.931 L227.347 194.931 L227.347 198.128 L211.172 198.128 L211.172 194.931 Z" fill="#000000" fill-rule="nonzero" fill-opacity="1" /><path clip-path="url(#clip010)" d="M42.6931 1086.8 L40.6319 1086.8 Q40.6319 1078.88 36.413 1074.79 Q36.413 1073.66 36.6706 1073.47 Q36.9282 1073.27 38.1199 1073.27 L75.1244 1073.27 Q77.089 1073.27 77.7009 1072.31 Q78.3128 1071.34 78.3128 1067.12 L78.3128 1065.03 L80.3417 1065.03 Q80.1485 1067.35 80.1485 1075.72 Q80.1485 1084.1 80.3417 1086.38 L78.3128 1086.38 L78.3128 1084.29 Q78.3128 1080.13 77.7331 1079.14 Q77.1212 1078.14 75.1244 1078.14 L40.954 1078.14 Q42.6931 1081.58 42.6931 1086.8 Z" fill="#000000" fill-rule="nonzero" fill-opacity="1" /><path clip-path="url(#clip010)" d="M62.9184 992.292 Q63.3048 991.905 63.8523 991.905 Q64.3998 991.905 64.7863 992.292 Q65.1728 992.678 65.1728 993.226 L65.1728 1034.51 Q65.1728 1035.06 64.7863 1035.45 Q64.3998 1035.83 63.8523 1035.83 Q63.3048 1035.83 62.9184 1035.45 Q62.5319 1035.06 62.5319 1034.51 L62.5319 993.226 Q62.5319 992.678 62.9184 992.292 Z" fill="#000000" fill-rule="nonzero" fill-opacity="1" /><path clip-path="url(#clip010)" d="M94.8022 966.717 L33.3856 966.717 Q30.938 966.717 30.938 965.397 Q30.938 964.076 32.9025 964.076 L94.3191 964.076 Q96.7667 964.076 96.7667 965.397 Q96.7667 966.717 94.8022 966.717 Z" fill="#000000" fill-rule="nonzero" fill-opacity="1" /><path clip-path="url(#clip010)" d="M95.5107 924.581 Q96.0582 924.581 96.4447 924.967 Q96.8311 925.354 96.8311 925.901 Q96.8311 926.835 95.9616 927.157 L64.3032 939.427 Q64.1744 939.492 63.8523 939.492 Q63.5303 939.492 63.4015 939.427 L31.7431 927.157 Q30.8735 926.835 30.8735 925.901 Q30.8735 925.354 31.26 924.967 Q31.6465 924.581 32.194 924.581 Q32.516 924.581 32.6449 924.645 L63.8523 936.787 L95.0598 924.645 Q95.1886 924.581 95.5107 924.581 Z" fill="#000000" fill-rule="nonzero" fill-opacity="1" /><path clip-path="url(#clip010)" d="M37.2825 866.275 L48.6834 867.595 Q49.714 867.692 50.036 867.853 Q50.3259 868.014 50.3259 868.529 Q50.3259 868.916 50.1004 869.141 Q49.8428 869.335 49.5529 869.335 Q49.3919 869.335 48.9732 869.302 Q48.5546 869.27 48.3613 869.27 Q46.3646 868.98 44.8509 868.98 Q42.049 868.98 40.5353 869.818 Q38.9894 870.655 38.2809 872.813 Q37.5402 874.971 37.5402 879.029 L37.5402 888.304 Q37.5402 890.429 37.9266 890.945 Q38.3131 891.428 40.1166 891.879 L55.9941 895.84 L55.9941 889.624 Q55.9941 887.305 55.7043 885.921 Q55.4144 884.504 54.6093 883.57 Q53.7719 882.603 52.6447 882.088 Q51.5175 881.541 49.4885 880.993 Q48.8122 880.832 48.5546 880.671 Q48.2969 880.478 48.2969 880.059 Q48.2969 879.737 48.5224 879.512 Q48.7156 879.286 49.0054 879.286 L64.4321 883.054 Q65.205 883.247 65.4948 883.441 Q65.7525 883.634 65.7525 884.02 Q65.7525 884.439 65.527 884.665 Q65.3016 884.89 65.044 884.89 Q64.7863 884.89 64.3032 884.697 Q62.2098 884.214 61.0826 884.214 Q60.4385 884.214 60.1165 884.278 Q59.7944 884.31 59.3435 884.6 Q58.8604 884.858 58.635 885.437 Q58.4096 886.017 58.2485 887.112 Q58.0553 888.207 58.0553 889.85 L58.0553 896.355 L76.0584 900.864 Q77.25 901.186 77.572 901.186 Q77.9263 901.186 78.0551 901.025 Q78.1517 900.832 78.2162 900.317 Q78.3128 899.737 78.3128 898.867 L78.3128 889.238 Q78.3128 887.112 78.1195 885.405 Q77.9263 883.698 77.4432 882.281 Q76.9601 880.832 76.4126 879.737 Q75.8651 878.642 74.8667 877.611 Q73.8362 876.581 72.9344 875.872 Q72.0004 875.132 70.4223 874.262 Q68.8443 873.392 67.556 872.781 Q66.2356 872.169 64.11 871.235 Q63.3371 870.977 63.3371 870.365 Q63.3371 870.011 63.5303 869.818 Q63.6913 869.624 63.8523 869.592 L64.0456 869.592 Q64.6575 869.785 64.9796 869.914 L79.2145 875.969 Q80.0197 876.323 80.1807 876.613 Q80.3417 876.903 80.3417 878.03 L80.3417 912.265 Q80.3417 913.038 80.3095 913.36 Q80.2773 913.65 80.1163 913.875 Q79.9231 914.101 79.5366 914.101 Q78.9247 914.101 78.667 913.843 Q78.3772 913.585 78.345 913.296 Q78.3128 913.006 78.3128 912.265 Q78.3128 910.655 78.2162 909.688 Q78.1195 908.722 77.9907 908.11 Q77.8297 907.466 77.3788 907.144 Q76.9279 906.79 76.5415 906.629 Q76.1228 906.468 75.1888 906.242 L40.3099 897.547 Q39.1182 897.225 38.7318 897.225 Q38.3131 897.225 38.0555 897.515 Q37.7978 897.772 37.7012 898.481 Q37.5724 899.189 37.5724 899.769 Q37.5402 900.317 37.5402 901.508 Q37.5402 902.281 37.508 902.603 Q37.4757 902.893 37.3147 903.119 Q37.1537 903.344 36.7994 903.344 Q35.8977 903.344 35.7044 902.957 Q35.479 902.539 35.479 901.379 L35.479 868.079 Q35.479 866.758 35.7688 866.468 Q36.0265 866.146 37.2825 866.275 Z" fill="#000000" fill-rule="nonzero" fill-opacity="1" /><path clip-path="url(#clip010)" d="M72.2643 859.576 L70.8214 859.576 Q70.8214 854.03 67.8682 851.167 Q67.8682 850.378 68.0485 850.243 Q68.2289 850.108 69.063 850.108 L94.9662 850.108 Q96.3414 850.108 96.7697 849.431 Q97.198 848.755 97.198 845.802 L97.198 844.337 L98.6183 844.337 Q98.483 845.96 98.483 851.821 Q98.483 857.683 98.6183 859.283 L97.198 859.283 L97.198 857.818 Q97.198 854.91 96.7922 854.211 Q96.3639 853.512 94.9662 853.512 L71.0469 853.512 Q72.2643 855.924 72.2643 859.576 Z" fill="#000000" fill-rule="nonzero" fill-opacity="1" /><path clip-path="url(#clip010)" d="M63.8523 829.671 Q52.7091 829.671 43.7237 825.517 Q39.9556 823.746 36.7994 821.266 Q33.6432 818.786 32.2584 817.143 Q30.8735 815.501 30.8735 815.05 Q30.8735 814.406 31.5177 814.374 Q31.8397 814.374 32.6449 815.243 Q43.466 825.871 63.8523 825.839 Q84.3031 825.839 94.7056 815.501 Q95.8328 814.374 96.187 814.374 Q96.8311 814.374 96.8311 815.05 Q96.8311 815.501 95.5107 817.079 Q94.1903 818.657 91.1629 821.105 Q88.1356 823.552 84.4319 825.324 Q75.4465 829.671 63.8523 829.671 Z" fill="#000000" fill-rule="nonzero" fill-opacity="1" /><path clip-path="url(#clip010)" d="M36.0265 761.284 Q37.3469 761.284 37.3469 762.379 Q37.4113 764.311 37.7978 765.632 Q38.1521 766.952 38.8606 767.725 Q39.5691 768.466 40.3421 768.885 Q41.0828 769.271 42.21 769.529 L65.6237 775.39 Q72.2259 777.065 77.0245 782.475 Q81.791 787.886 81.791 794.037 Q81.791 797.548 80.3417 800.478 Q78.8925 803.377 75.9617 805.181 Q73.031 806.984 69.1341 806.984 Q67.2662 806.984 65.3016 806.501 L49.0054 802.507 L43.2084 801.026 Q38.925 799.931 38.5385 799.931 Q37.9266 799.931 37.7656 800.317 Q37.5724 800.672 37.4757 801.702 L37.3469 804.214 Q37.3469 804.987 37.3147 805.309 Q37.2825 805.599 37.1215 805.825 Q36.9605 806.05 36.6062 806.05 Q36.1553 806.05 35.8655 805.953 Q35.5434 805.825 35.4468 805.599 Q35.3502 805.374 35.318 805.213 Q35.2857 805.052 35.2857 804.794 L35.479 796.292 L35.2857 787.854 Q35.2857 786.92 36.0265 786.92 Q36.9605 786.92 37.1537 787.339 Q37.3469 787.757 37.3469 789.174 Q37.3469 791.59 37.669 792.685 Q37.9588 793.747 38.4741 794.07 Q38.9572 794.359 40.3743 794.714 L66.0423 801.123 Q67.3306 801.445 68.6188 801.638 Q69.8748 801.799 70.519 801.799 L71.1631 801.831 Q75.2532 801.831 77.5076 799.577 Q79.762 797.29 79.762 793.78 Q79.762 788.627 75.6719 783.828 Q71.5818 778.997 65.1728 777.355 L41.6303 771.429 Q41.0506 771.236 40.2454 771.236 Q38.9572 771.236 38.1843 772.202 Q37.3791 773.136 37.3469 775.712 Q37.3469 776.904 36.6062 776.904 Q35.9943 776.904 35.7044 776.678 Q35.3824 776.421 35.3502 776.227 Q35.2857 776.002 35.2857 775.712 Q35.2857 774.617 35.3824 772.298 Q35.479 769.98 35.479 768.852 Q35.479 767.725 35.3824 765.471 Q35.2857 763.216 35.2857 762.121 Q35.2857 761.735 35.479 761.542 Q35.64 761.316 35.8332 761.284 L36.0265 761.284 Z" fill="#000000" fill-rule="nonzero" fill-opacity="1" /><path clip-path="url(#clip010)" d="M96.187 756.318 Q95.865 756.318 95.0598 755.481 Q84.2387 744.853 63.8523 744.853 Q43.4016 744.853 33.0635 755.062 Q31.8719 756.318 31.5177 756.318 Q30.8735 756.318 30.8735 755.674 Q30.8735 755.223 32.194 753.645 Q33.5144 752.035 36.5418 749.619 Q39.5691 747.172 43.2728 745.368 Q52.2582 741.02 63.8523 741.02 Q74.9956 741.02 83.981 745.175 Q87.7491 746.946 90.9053 749.426 Q94.0614 751.906 95.4463 753.548 Q96.8311 755.191 96.8311 755.674 Q96.8311 756.318 96.187 756.318 Z" fill="#000000" fill-rule="nonzero" fill-opacity="1" /><path clip-path="url(#clip010)" d="M94.8022 727.295 L33.3856 727.295 Q30.938 727.295 30.938 725.974 Q30.938 724.654 32.9025 724.654 L94.3191 724.654 Q96.7667 724.654 96.7667 725.974 Q96.7667 727.295 94.8022 727.295 Z" fill="#000000" fill-rule="nonzero" fill-opacity="1" /><path clip-path="url(#clip010)" d="M37.2825 652.244 L48.6834 653.564 Q49.714 653.661 50.036 653.822 Q50.3259 653.983 50.3259 654.498 Q50.3259 654.884 50.1004 655.11 Q49.8428 655.303 49.5529 655.303 Q49.3919 655.303 48.9732 655.271 Q48.5546 655.239 48.3613 655.239 Q46.3646 654.949 44.8509 654.949 Q42.049 654.949 40.5353 655.786 Q38.9894 656.624 38.2809 658.781 Q37.5402 660.939 37.5402 664.997 L37.5402 674.272 Q37.5402 676.398 37.9266 676.913 Q38.3131 677.396 40.1166 677.847 L55.9941 681.808 L55.9941 675.593 Q55.9941 673.274 55.7043 671.889 Q55.4144 670.472 54.6093 669.538 Q53.7719 668.572 52.6447 668.057 Q51.5175 667.509 49.4885 666.962 Q48.8122 666.801 48.5546 666.64 Q48.2969 666.446 48.2969 666.028 Q48.2969 665.706 48.5224 665.48 Q48.7156 665.255 49.0054 665.255 L64.4321 669.023 Q65.205 669.216 65.4948 669.409 Q65.7525 669.602 65.7525 669.989 Q65.7525 670.408 65.527 670.633 Q65.3016 670.858 65.044 670.858 Q64.7863 670.858 64.3032 670.665 Q62.2098 670.182 61.0826 670.182 Q60.4385 670.182 60.1165 670.247 Q59.7944 670.279 59.3435 670.569 Q58.8604 670.826 58.635 671.406 Q58.4096 671.986 58.2485 673.081 Q58.0553 674.176 58.0553 675.818 L58.0553 682.324 L76.0584 686.833 Q77.25 687.155 77.572 687.155 Q77.9263 687.155 78.0551 686.994 Q78.1517 686.8 78.2162 686.285 Q78.3128 685.705 78.3128 684.836 L78.3128 675.206 Q78.3128 673.081 78.1195 671.374 Q77.9263 669.667 77.4432 668.25 Q76.9601 666.801 76.4126 665.706 Q75.8651 664.611 74.8667 663.58 Q73.8362 662.549 72.9344 661.841 Q72.0004 661.1 70.4223 660.231 Q68.8443 659.361 67.556 658.749 Q66.2356 658.137 64.11 657.203 Q63.3371 656.946 63.3371 656.334 Q63.3371 655.979 63.5303 655.786 Q63.6913 655.593 63.8523 655.561 L64.0456 655.561 Q64.6575 655.754 64.9796 655.883 L79.2145 661.937 Q80.0197 662.292 80.1807 662.582 Q80.3417 662.871 80.3417 663.999 L80.3417 698.233 Q80.3417 699.006 80.3095 699.328 Q80.2773 699.618 80.1163 699.844 Q79.9231 700.069 79.5366 700.069 Q78.9247 700.069 78.667 699.812 Q78.3772 699.554 78.345 699.264 Q78.3128 698.974 78.3128 698.233 Q78.3128 696.623 78.2162 695.657 Q78.1195 694.691 77.9907 694.079 Q77.8297 693.435 77.3788 693.113 Q76.9279 692.758 76.5415 692.597 Q76.1228 692.436 75.1888 692.211 L40.3099 683.515 Q39.1182 683.193 38.7318 683.193 Q38.3131 683.193 38.0555 683.483 Q37.7978 683.741 37.7012 684.449 Q37.5724 685.158 37.5724 685.738 Q37.5402 686.285 37.5402 687.477 Q37.5402 688.25 37.508 688.572 Q37.4757 688.862 37.3147 689.087 Q37.1537 689.312 36.7994 689.312 Q35.8977 689.312 35.7044 688.926 Q35.479 688.507 35.479 687.348 L35.479 654.047 Q35.479 652.727 35.7688 652.437 Q36.0265 652.115 37.2825 652.244 Z" fill="#000000" fill-rule="nonzero" fill-opacity="1" /><path clip-path="url(#clip010)" d="M72.2643 645.545 L70.8214 645.545 Q70.8214 639.999 67.8682 637.136 Q67.8682 636.347 68.0485 636.212 Q68.2289 636.076 69.063 636.076 L94.9662 636.076 Q96.3414 636.076 96.7697 635.4 Q97.198 634.724 97.198 631.77 L97.198 630.305 L98.6183 630.305 Q98.483 631.928 98.483 637.79 Q98.483 643.651 98.6183 645.252 L97.198 645.252 L97.198 643.786 Q97.198 640.878 96.7922 640.179 Q96.3639 639.48 94.9662 639.48 L71.0469 639.48 Q72.2643 641.893 72.2643 645.545 Z" fill="#000000" fill-rule="nonzero" fill-opacity="1" /><path clip-path="url(#clip010)" d="M63.8523 615.64 Q52.7091 615.64 43.7237 611.485 Q39.9556 609.714 36.7994 607.234 Q33.6432 604.754 32.2584 603.112 Q30.8735 601.469 30.8735 601.019 Q30.8735 600.374 31.5177 600.342 Q31.8397 600.342 32.6449 601.212 Q43.466 611.84 63.8523 611.807 Q84.3031 611.807 94.7056 601.469 Q95.8328 600.342 96.187 600.342 Q96.8311 600.342 96.8311 601.019 Q96.8311 601.469 95.5107 603.047 Q94.1903 604.626 91.1629 607.073 Q88.1356 609.521 84.4319 611.292 Q75.4465 615.64 63.8523 615.64 Z" fill="#000000" fill-rule="nonzero" fill-opacity="1" /><path clip-path="url(#clip010)" d="M36.0265 547.252 Q37.3469 547.252 37.3469 548.347 Q37.4113 550.28 37.7978 551.6 Q38.1521 552.921 38.8606 553.694 Q39.5691 554.434 40.3421 554.853 Q41.0828 555.24 42.21 555.497 L65.6237 561.359 Q72.2259 563.033 77.0245 568.444 Q81.791 573.855 81.791 580.006 Q81.791 583.516 80.3417 586.447 Q78.8925 589.346 75.9617 591.149 Q73.031 592.953 69.1341 592.953 Q67.2662 592.953 65.3016 592.469 L49.0054 588.476 L43.2084 586.994 Q38.925 585.899 38.5385 585.899 Q37.9266 585.899 37.7656 586.286 Q37.5724 586.64 37.4757 587.671 L37.3469 590.183 Q37.3469 590.956 37.3147 591.278 Q37.2825 591.568 37.1215 591.793 Q36.9605 592.019 36.6062 592.019 Q36.1553 592.019 35.8655 591.922 Q35.5434 591.793 35.4468 591.568 Q35.3502 591.342 35.318 591.181 Q35.2857 591.02 35.2857 590.763 L35.479 582.26 L35.2857 573.822 Q35.2857 572.888 36.0265 572.888 Q36.9605 572.888 37.1537 573.307 Q37.3469 573.726 37.3469 575.143 Q37.3469 577.558 37.669 578.653 Q37.9588 579.716 38.4741 580.038 Q38.9572 580.328 40.3743 580.682 L66.0423 587.091 Q67.3306 587.413 68.6188 587.606 Q69.8748 587.767 70.519 587.767 L71.1631 587.8 Q75.2532 587.8 77.5076 585.545 Q79.762 583.259 79.762 579.748 Q79.762 574.595 75.6719 569.797 Q71.5818 564.966 65.1728 563.323 L41.6303 557.397 Q41.0506 557.204 40.2454 557.204 Q38.9572 557.204 38.1843 558.17 Q37.3791 559.104 37.3469 561.681 Q37.3469 562.872 36.6062 562.872 Q35.9943 562.872 35.7044 562.647 Q35.3824 562.389 35.3502 562.196 Q35.2857 561.971 35.2857 561.681 Q35.2857 560.586 35.3824 558.267 Q35.479 555.948 35.479 554.821 Q35.479 553.694 35.3824 551.439 Q35.2857 549.185 35.2857 548.09 Q35.2857 547.703 35.479 547.51 Q35.64 547.285 35.8332 547.252 L36.0265 547.252 Z" fill="#000000" fill-rule="nonzero" fill-opacity="1" /><path clip-path="url(#clip010)" d="M70.3257 530.056 Q69.5206 529.991 69.5206 528.735 L69.5206 488.317 Q69.5206 486.417 70.2613 486.385 Q71.0665 486.385 71.0343 488.188 L71.0343 528.285 Q71.0665 530.056 70.3257 530.056 M57.4434 530.056 Q56.6382 530.056 56.6704 528.671 L56.6704 488.381 Q56.6704 486.417 57.4434 486.385 Q58.1841 486.385 58.1841 488.059 L58.1841 528.735 Q58.1841 530.056 57.4434 530.056 Z" fill="#000000" fill-rule="nonzero" fill-opacity="1" /><path clip-path="url(#clip010)" d="M59.2469 460.939 Q49.5529 460.939 44.2712 458.491 Q36.413 455.077 36.413 447.026 Q36.413 445.319 36.896 443.548 Q37.3469 441.744 39.1182 439.49 Q40.8896 437.203 43.7881 435.818 Q49.3919 433.178 59.2469 433.178 Q68.8765 433.178 74.126 435.625 Q81.791 439.2 81.791 447.09 Q81.791 450.053 80.2773 453.081 Q78.7637 456.076 75.1244 457.976 Q69.6816 460.939 59.2469 460.939 M58.4418 455.464 Q68.3934 455.464 72.3547 454.755 Q76.6381 453.95 78.506 451.76 Q80.3417 449.538 80.3417 447.09 Q80.3417 444.45 78.3772 442.26 Q76.3804 440.037 72.097 439.361 Q67.8781 438.62 58.4418 438.652 Q49.2631 438.652 45.5916 439.297 Q41.3082 440.166 39.6013 442.485 Q37.8622 444.772 37.8622 447.09 Q37.8622 447.96 38.1199 448.894 Q38.3775 449.796 39.1182 451.116 Q39.859 452.437 41.6947 453.467 Q43.5304 454.466 46.3002 454.949 Q49.875 455.464 58.4418 455.464 Z" fill="#000000" fill-rule="nonzero" fill-opacity="1" /><path clip-path="url(#clip010)" d="M96.187 426.691 Q95.865 426.691 95.0598 425.854 Q84.2387 415.226 63.8523 415.226 Q43.4016 415.226 33.0635 425.435 Q31.8719 426.691 31.5177 426.691 Q30.8735 426.691 30.8735 426.047 Q30.8735 425.596 32.194 424.018 Q33.5144 422.408 36.5418 419.992 Q39.5691 417.544 43.2728 415.741 Q52.2582 411.393 63.8523 411.393 Q74.9956 411.393 83.981 415.548 Q87.7491 417.319 90.9053 419.799 Q94.0614 422.279 95.4463 423.921 Q96.8311 425.564 96.8311 426.047 Q96.8311 426.691 96.187 426.691 Z" fill="#000000" fill-rule="nonzero" fill-opacity="1" /><path clip-path="url(#clip010)" d="M63.4015 386.549 Q63.5303 386.484 63.8523 386.484 Q64.1744 386.484 64.3032 386.549 L95.9616 398.819 Q96.8311 399.141 96.8311 400.043 Q96.8311 400.591 96.4447 400.977 Q96.0582 401.363 95.5107 401.363 Q95.1886 401.363 95.0598 401.299 L63.8523 389.19 L32.6449 401.299 Q32.516 401.363 32.194 401.363 Q31.6465 401.363 31.26 400.977 Q30.8735 400.591 30.8735 400.043 Q30.8735 399.141 31.7431 398.819 L63.4015 386.549 Z" fill="#000000" fill-rule="nonzero" fill-opacity="1" /><path clip-path="url(#clip010)" d="M94.8022 375.972 L33.3856 375.972 Q30.938 375.972 30.938 374.652 Q30.938 373.331 32.9025 373.331 L94.3191 373.331 Q96.7667 373.331 96.7667 374.652 Q96.7667 375.972 94.8022 375.972 Z" fill="#000000" fill-rule="nonzero" fill-opacity="1" /><path clip-path="url(#clip010)" d="M40.5425 366.323 Q39.7084 366.323 39.4604 366.255 Q39.2124 366.165 38.8292 365.804 L28.9549 356.945 Q23.4992 352.098 18.7424 352.098 Q15.6538 352.098 13.4445 353.721 Q11.2352 355.321 11.2352 358.275 Q11.2352 360.304 12.4751 362.017 Q13.715 363.73 15.9244 364.519 Q15.8793 364.384 15.8793 363.911 Q15.8793 362.761 16.6007 362.13 Q17.3221 361.476 18.2915 361.476 Q19.5314 361.476 20.1401 362.288 Q20.7263 363.077 20.7263 363.866 Q20.7263 364.181 20.6586 364.61 Q20.591 365.015 19.9598 365.669 Q19.306 366.323 18.1562 366.323 Q14.9324 366.323 12.3624 363.888 Q9.79237 361.431 9.79237 357.689 Q9.79237 353.45 12.3173 350.677 Q14.8197 347.882 18.7424 347.882 Q20.1176 347.882 21.38 348.31 Q22.62 348.716 23.5894 349.28 Q24.5588 349.821 26.1143 351.309 Q27.6698 352.796 28.7745 353.991 Q29.8792 355.186 32.2238 357.869 L36.9806 362.761 L36.9806 354.442 Q36.9806 350.384 36.6199 350.069 Q35.9661 349.618 32.5168 349.054 L32.5168 347.882 L40.5425 349.189 L40.5425 366.323 Z" fill="#000000" fill-rule="nonzero" fill-opacity="1" /><circle clip-path="url(#clip012)" cx="322.481" cy="1342.85" r="14.4" fill="#009af9" fill-rule="evenodd" fill-opacity="1" stroke="#000000" stroke-opacity="1" stroke-width="3.2"/>
<circle clip-path="url(#clip012)" cx="390.284" cy="1291.48" r="14.4" fill="#009af9" fill-rule="evenodd" fill-opacity="1" stroke="#000000" stroke-opacity="1" stroke-width="3.2"/>
<circle clip-path="url(#clip012)" cx="458.088" cy="1240.13" r="14.4" fill="#009af9" fill-rule="evenodd" fill-opacity="1" stroke="#000000" stroke-opacity="1" stroke-width="3.2"/>
<circle clip-path="url(#clip012)" cx="525.928" cy="1188.81" r="14.4" fill="#009af9" fill-rule="evenodd" fill-opacity="1" stroke="#000000" stroke-opacity="1" stroke-width="3.2"/>
<circle clip-path="url(#clip012)" cx="593.681" cy="1137.5" r="14.4" fill="#009af9" fill-rule="evenodd" fill-opacity="1" stroke="#000000" stroke-opacity="1" stroke-width="3.2"/>
<circle clip-path="url(#clip012)" cx="661.653" cy="1086.2" r="14.4" fill="#009af9" fill-rule="evenodd" fill-opacity="1" stroke="#000000" stroke-opacity="1" stroke-width="3.2"/>
<circle clip-path="url(#clip012)" cx="729.471" cy="1034.93" r="14.4" fill="#009af9" fill-rule="evenodd" fill-opacity="1" stroke="#000000" stroke-opacity="1" stroke-width="3.2"/>
<circle clip-path="url(#clip012)" cx="797.493" cy="983.678" r="14.4" fill="#009af9" fill-rule="evenodd" fill-opacity="1" stroke="#000000" stroke-opacity="1" stroke-width="3.2"/>
<circle clip-path="url(#clip012)" cx="865.441" cy="932.452" r="14.4" fill="#009af9" fill-rule="evenodd" fill-opacity="1" stroke="#000000" stroke-opacity="1" stroke-width="3.2"/>
<circle clip-path="url(#clip012)" cx="933.994" cy="881.259" r="14.4" fill="#009af9" fill-rule="evenodd" fill-opacity="1" stroke="#000000" stroke-opacity="1" stroke-width="3.2"/>
<circle clip-path="url(#clip012)" cx="1002.21" cy="830.111" r="14.4" fill="#009af9" fill-rule="evenodd" fill-opacity="1" stroke="#000000" stroke-opacity="1" stroke-width="3.2"/>
<circle clip-path="url(#clip012)" cx="1070.5" cy="779.023" r="14.4" fill="#009af9" fill-rule="evenodd" fill-opacity="1" stroke="#000000" stroke-opacity="1" stroke-width="3.2"/>
<circle clip-path="url(#clip012)" cx="1140.31" cy="728.017" r="14.4" fill="#009af9" fill-rule="evenodd" fill-opacity="1" stroke="#000000" stroke-opacity="1" stroke-width="3.2"/>
<circle clip-path="url(#clip012)" cx="1209.59" cy="677.126" r="14.4" fill="#009af9" fill-rule="evenodd" fill-opacity="1" stroke="#000000" stroke-opacity="1" stroke-width="3.2"/>
<circle clip-path="url(#clip012)" cx="1281.4" cy="626.398" r="14.4" fill="#009af9" fill-rule="evenodd" fill-opacity="1" stroke="#000000" stroke-opacity="1" stroke-width="3.2"/>
<circle clip-path="url(#clip012)" cx="1353.72" cy="575.902" r="14.4" fill="#009af9" fill-rule="evenodd" fill-opacity="1" stroke="#000000" stroke-opacity="1" stroke-width="3.2"/>
<circle clip-path="url(#clip012)" cx="1426.46" cy="525.741" r="14.4" fill="#009af9" fill-rule="evenodd" fill-opacity="1" stroke="#000000" stroke-opacity="1" stroke-width="3.2"/>
<circle clip-path="url(#clip012)" cx="1501.06" cy="476.074" r="14.4" fill="#009af9" fill-rule="evenodd" fill-opacity="1" stroke="#000000" stroke-opacity="1" stroke-width="3.2"/>
<circle clip-path="url(#clip012)" cx="1581.41" cy="427.137" r="14.4" fill="#009af9" fill-rule="evenodd" fill-opacity="1" stroke="#000000" stroke-opacity="1" stroke-width="3.2"/>
<circle clip-path="url(#clip012)" cx="1661.18" cy="379.288" r="14.4" fill="#009af9" fill-rule="evenodd" fill-opacity="1" stroke="#000000" stroke-opacity="1" stroke-width="3.2"/>
<circle clip-path="url(#clip012)" cx="1739.19" cy="336.977" r="14.4" fill="#009af9" fill-rule="evenodd" fill-opacity="1" stroke="#000000" stroke-opacity="1" stroke-width="3.2"/>
<circle clip-path="url(#clip012)" cx="1743.86" cy="333.049" r="14.4" fill="#009af9" fill-rule="evenodd" fill-opacity="1" stroke="#000000" stroke-opacity="1" stroke-width="3.2"/>
<circle clip-path="url(#clip012)" cx="1781.36" cy="312.793" r="14.4" fill="#009af9" fill-rule="evenodd" fill-opacity="1" stroke="#000000" stroke-opacity="1" stroke-width="3.2"/>
<circle clip-path="url(#clip012)" cx="1824.35" cy="292.574" r="14.4" fill="#009af9" fill-rule="evenodd" fill-opacity="1" stroke="#000000" stroke-opacity="1" stroke-width="3.2"/>
<circle clip-path="url(#clip012)" cx="1831.3" cy="289.149" r="14.4" fill="#009af9" fill-rule="evenodd" fill-opacity="1" stroke="#000000" stroke-opacity="1" stroke-width="3.2"/>
<circle clip-path="url(#clip012)" cx="1858.99" cy="275.369" r="14.4" fill="#009af9" fill-rule="evenodd" fill-opacity="1" stroke="#000000" stroke-opacity="1" stroke-width="3.2"/>
<circle clip-path="url(#clip012)" cx="1887.64" cy="260.528" r="14.4" fill="#009af9" fill-rule="evenodd" fill-opacity="1" stroke="#000000" stroke-opacity="1" stroke-width="3.2"/>
<circle clip-path="url(#clip012)" cx="1915.27" cy="248.513" r="14.4" fill="#009af9" fill-rule="evenodd" fill-opacity="1" stroke="#000000" stroke-opacity="1" stroke-width="3.2"/>
<circle clip-path="url(#clip012)" cx="1915.2" cy="247.587" r="14.4" fill="#009af9" fill-rule="evenodd" fill-opacity="1" stroke="#000000" stroke-opacity="1" stroke-width="3.2"/>
<circle clip-path="url(#clip012)" cx="1935.73" cy="236.201" r="14.4" fill="#009af9" fill-rule="evenodd" fill-opacity="1" stroke="#000000" stroke-opacity="1" stroke-width="3.2"/>
<circle clip-path="url(#clip012)" cx="1962.56" cy="226.109" r="14.4" fill="#009af9" fill-rule="evenodd" fill-opacity="1" stroke="#000000" stroke-opacity="1" stroke-width="3.2"/>
<circle clip-path="url(#clip012)" cx="1979.73" cy="217.107" r="14.4" fill="#009af9" fill-rule="evenodd" fill-opacity="1" stroke="#000000" stroke-opacity="1" stroke-width="3.2"/>
<circle clip-path="url(#clip012)" cx="1992.68" cy="212.155" r="14.4" fill="#009af9" fill-rule="evenodd" fill-opacity="1" stroke="#000000" stroke-opacity="1" stroke-width="3.2"/>
<circle clip-path="url(#clip012)" cx="1998.5" cy="209.031" r="14.4" fill="#009af9" fill-rule="evenodd" fill-opacity="1" stroke="#000000" stroke-opacity="1" stroke-width="3.2"/>
<circle clip-path="url(#clip012)" cx="2017.34" cy="201.75" r="14.4" fill="#009af9" fill-rule="evenodd" fill-opacity="1" stroke="#000000" stroke-opacity="1" stroke-width="3.2"/>
<circle clip-path="url(#clip012)" cx="2031.61" cy="195.157" r="14.4" fill="#009af9" fill-rule="evenodd" fill-opacity="1" stroke="#000000" stroke-opacity="1" stroke-width="3.2"/>
<circle clip-path="url(#clip012)" cx="2040.74" cy="189.163" r="14.4" fill="#009af9" fill-rule="evenodd" fill-opacity="1" stroke="#000000" stroke-opacity="1" stroke-width="3.2"/>
<circle clip-path="url(#clip012)" cx="2055.75" cy="183.692" r="14.4" fill="#009af9" fill-rule="evenodd" fill-opacity="1" stroke="#000000" stroke-opacity="1" stroke-width="3.2"/>
<circle clip-path="url(#clip012)" cx="2063.71" cy="180.935" r="14.4" fill="#009af9" fill-rule="evenodd" fill-opacity="1" stroke="#000000" stroke-opacity="1" stroke-width="3.2"/>
<circle clip-path="url(#clip012)" cx="2070.33" cy="178.683" r="14.4" fill="#009af9" fill-rule="evenodd" fill-opacity="1" stroke="#000000" stroke-opacity="1" stroke-width="3.2"/>
<circle clip-path="url(#clip012)" cx="2077.18" cy="174.081" r="14.4" fill="#009af9" fill-rule="evenodd" fill-opacity="1" stroke="#000000" stroke-opacity="1" stroke-width="3.2"/>
<circle clip-path="url(#clip012)" cx="2088.42" cy="169.842" r="14.4" fill="#009af9" fill-rule="evenodd" fill-opacity="1" stroke="#000000" stroke-opacity="1" stroke-width="3.2"/>
<circle clip-path="url(#clip012)" cx="2097.44" cy="165.926" r="14.4" fill="#009af9" fill-rule="evenodd" fill-opacity="1" stroke="#000000" stroke-opacity="1" stroke-width="3.2"/>
<circle clip-path="url(#clip012)" cx="2105.99" cy="162.3" r="14.4" fill="#009af9" fill-rule="evenodd" fill-opacity="1" stroke="#000000" stroke-opacity="1" stroke-width="3.2"/>
<circle clip-path="url(#clip012)" cx="2112.27" cy="158.933" r="14.4" fill="#009af9" fill-rule="evenodd" fill-opacity="1" stroke="#000000" stroke-opacity="1" stroke-width="3.2"/>
<circle clip-path="url(#clip012)" cx="2119.43" cy="155.275" r="14.4" fill="#009af9" fill-rule="evenodd" fill-opacity="1" stroke="#000000" stroke-opacity="1" stroke-width="3.2"/>
<circle clip-path="url(#clip012)" cx="2172.71" cy="135.018" r="14.4" fill="#009af9" fill-rule="evenodd" fill-opacity="1" stroke="#000000" stroke-opacity="1" stroke-width="3.2"/>
<circle clip-path="url(#clip012)" cx="2209.28" cy="119.525" r="14.4" fill="#009af9" fill-rule="evenodd" fill-opacity="1" stroke="#000000" stroke-opacity="1" stroke-width="3.2"/>
<circle clip-path="url(#clip012)" cx="2238.62" cy="107.925" r="14.4" fill="#009af9" fill-rule="evenodd" fill-opacity="1" stroke="#000000" stroke-opacity="1" stroke-width="3.2"/>
<circle clip-path="url(#clip012)" cx="2252.68" cy="99.344" r="14.4" fill="#009af9" fill-rule="evenodd" fill-opacity="1" stroke="#000000" stroke-opacity="1" stroke-width="3.2"/>
<circle clip-path="url(#clip012)" cx="2278.29" cy="93.0302" r="14.4" fill="#009af9" fill-rule="evenodd" fill-opacity="1" stroke="#000000" stroke-opacity="1" stroke-width="3.2"/>
<circle clip-path="url(#clip012)" cx="2284.34" cy="88.3912" r="14.4" fill="#009af9" fill-rule="evenodd" fill-opacity="1" stroke="#000000" stroke-opacity="1" stroke-width="3.2"/>
<circle clip-path="url(#clip012)" cx="2293.62" cy="84.9802" r="14.4" fill="#009af9" fill-rule="evenodd" fill-opacity="1" stroke="#000000" stroke-opacity="1" stroke-width="3.2"/>
</svg>
