<?xml version="1.0" encoding="utf-8"?>
<svg xmlns="http://www.w3.org/2000/svg" xmlns:xlink="http://www.w3.org/1999/xlink" width="600" height="400" viewBox="0 0 2400 1600">
<defs>
  <clipPath id="clip420">
    <rect x="0" y="0" width="2400" height="1600"/>
  </clipPath>
</defs>
<path clip-path="url(#clip420)" d="M0 1600 L2400 1600 L2400 0 L0 0  Z" fill="#ffffff" fill-rule="evenodd" fill-opacity="1"/>
<defs>
  <clipPath id="clip421">
    <rect x="480" y="0" width="1681" height="1600"/>
  </clipPath>
</defs>
<path clip-path="url(#clip420)" d="M263.552 1380.58 L2352.76 1380.58 L2352.76 47.2441 L263.552 47.2441  Z" fill="#ffffff" fill-rule="evenodd" fill-opacity="1"/>
<defs>
  <clipPath id="clip422">
    <rect x="263" y="47" width="2090" height="1334"/>
  </clipPath>
</defs>
<polyline clip-path="url(#clip422)" style="stroke:#000000; stroke-linecap:round; stroke-linejoin:round; stroke-width:2; stroke-opacity:0.1; fill:none" points="600.578,1380.58 600.578,47.2441 "/>
<polyline clip-path="url(#clip422)" style="stroke:#000000; stroke-linecap:round; stroke-linejoin:round; stroke-width:2; stroke-opacity:0.1; fill:none" points="1184.75,1380.58 1184.75,47.2441 "/>
<polyline clip-path="url(#clip422)" style="stroke:#000000; stroke-linecap:round; stroke-linejoin:round; stroke-width:2; stroke-opacity:0.1; fill:none" points="1768.91,1380.58 1768.91,47.2441 "/>
<polyline clip-path="url(#clip422)" style="stroke:#000000; stroke-linecap:round; stroke-linejoin:round; stroke-width:2; stroke-opacity:0.1; fill:none" points="600.578,1380.58 600.578,47.2441 "/>
<polyline clip-path="url(#clip422)" style="stroke:#000000; stroke-linecap:round; stroke-linejoin:round; stroke-width:2; stroke-opacity:0.1; fill:none" points="1184.75,1380.58 1184.75,47.2441 "/>
<polyline clip-path="url(#clip422)" style="stroke:#000000; stroke-linecap:round; stroke-linejoin:round; stroke-width:2; stroke-opacity:0.1; fill:none" points="1768.91,1380.58 1768.91,47.2441 "/>
<polyline clip-path="url(#clip422)" style="stroke:#000000; stroke-linecap:round; stroke-linejoin:round; stroke-width:2; stroke-opacity:0.1; fill:none" points="263.552,1013.86 2352.76,1013.86 "/>
<polyline clip-path="url(#clip422)" style="stroke:#000000; stroke-linecap:round; stroke-linejoin:round; stroke-width:2; stroke-opacity:0.1; fill:none" points="263.552,628.856 2352.76,628.856 "/>
<polyline clip-path="url(#clip422)" style="stroke:#000000; stroke-linecap:round; stroke-linejoin:round; stroke-width:2; stroke-opacity:0.1; fill:none" points="263.552,243.852 2352.76,243.852 "/>
<polyline clip-path="url(#clip422)" style="stroke:#000000; stroke-linecap:round; stroke-linejoin:round; stroke-width:2; stroke-opacity:0.1; fill:none" points="263.552,1013.86 2352.76,1013.86 "/>
<polyline clip-path="url(#clip422)" style="stroke:#000000; stroke-linecap:round; stroke-linejoin:round; stroke-width:2; stroke-opacity:0.1; fill:none" points="263.552,628.856 2352.76,628.856 "/>
<polyline clip-path="url(#clip422)" style="stroke:#000000; stroke-linecap:round; stroke-linejoin:round; stroke-width:2; stroke-opacity:0.1; fill:none" points="263.552,243.852 2352.76,243.852 "/>
<polyline clip-path="url(#clip420)" style="stroke:#000000; stroke-linecap:round; stroke-linejoin:round; stroke-width:4; stroke-opacity:1; fill:none" points="263.552,1380.58 2352.76,1380.58 "/>
<polyline clip-path="url(#clip420)" style="stroke:#000000; stroke-linecap:round; stroke-linejoin:round; stroke-width:4; stroke-opacity:1; fill:none" points="263.552,47.2441 2352.76,47.2441 "/>
<polyline clip-path="url(#clip420)" style="stroke:#000000; stroke-linecap:round; stroke-linejoin:round; stroke-width:4; stroke-opacity:1; fill:none" points="600.578,1380.58 600.578,1361.69 "/>
<polyline clip-path="url(#clip420)" style="stroke:#000000; stroke-linecap:round; stroke-linejoin:round; stroke-width:4; stroke-opacity:1; fill:none" points="1184.75,1380.58 1184.75,1361.69 "/>
<polyline clip-path="url(#clip420)" style="stroke:#000000; stroke-linecap:round; stroke-linejoin:round; stroke-width:4; stroke-opacity:1; fill:none" points="1768.91,1380.58 1768.91,1361.69 "/>
<polyline clip-path="url(#clip420)" style="stroke:#000000; stroke-linecap:round; stroke-linejoin:round; stroke-width:4; stroke-opacity:1; fill:none" points="600.578,47.2441 600.578,66.1417 "/>
<polyline clip-path="url(#clip420)" style="stroke:#000000; stroke-linecap:round; stroke-linejoin:round; stroke-width:4; stroke-opacity:1; fill:none" points="1184.75,47.2441 1184.75,66.1417 "/>
<polyline clip-path="url(#clip420)" style="stroke:#000000; stroke-linecap:round; stroke-linejoin:round; stroke-width:4; stroke-opacity:1; fill:none" points="1768.91,47.2441 1768.91,66.1417 "/>
<path clip-path="url(#clip420)" d="M565.56 1454.71 L573.199 1454.71 L573.199 1428.34 L564.889 1430.01 L564.889 1425.75 L573.153 1424.08 L577.829 1424.08 L577.829 1454.71 L585.468 1454.71 L585.468 1458.64 L565.56 1458.64 L565.56 1454.71 Z" fill="#000000" fill-rule="nonzero" fill-opacity="1" /><path clip-path="url(#clip420)" d="M604.912 1427.16 Q601.301 1427.16 599.472 1430.73 Q597.667 1434.27 597.667 1441.4 Q597.667 1448.51 599.472 1452.07 Q601.301 1455.61 604.912 1455.61 Q608.546 1455.61 610.352 1452.07 Q612.181 1448.51 612.181 1441.4 Q612.181 1434.27 610.352 1430.73 Q608.546 1427.16 604.912 1427.16 M604.912 1423.46 Q610.722 1423.46 613.778 1428.07 Q616.856 1432.65 616.856 1441.4 Q616.856 1450.13 613.778 1454.73 Q610.722 1459.32 604.912 1459.32 Q599.102 1459.32 596.023 1454.73 Q592.968 1450.13 592.968 1441.4 Q592.968 1432.65 596.023 1428.07 Q599.102 1423.46 604.912 1423.46 Z" fill="#000000" fill-rule="nonzero" fill-opacity="1" /><path clip-path="url(#clip420)" d="M626.561 1405.66 Q623.627 1405.66 622.141 1408.55 Q620.674 1411.43 620.674 1417.22 Q620.674 1423 622.141 1425.89 Q623.627 1428.77 626.561 1428.77 Q629.514 1428.77 630.981 1425.89 Q632.467 1423 632.467 1417.22 Q632.467 1411.43 630.981 1408.55 Q629.514 1405.66 626.561 1405.66 M626.561 1402.65 Q631.282 1402.65 633.765 1406.39 Q636.266 1410.11 636.266 1417.22 Q636.266 1424.31 633.765 1428.06 Q631.282 1431.78 626.561 1431.78 Q621.841 1431.78 619.339 1428.06 Q616.856 1424.31 616.856 1417.22 Q616.856 1410.11 619.339 1406.39 Q621.841 1402.65 626.561 1402.65 Z" fill="#000000" fill-rule="nonzero" fill-opacity="1" /><path clip-path="url(#clip420)" d="M1151.07 1454.71 L1158.71 1454.71 L1158.71 1428.34 L1150.4 1430.01 L1150.4 1425.75 L1158.67 1424.08 L1163.34 1424.08 L1163.34 1454.71 L1170.98 1454.71 L1170.98 1458.64 L1151.07 1458.64 L1151.07 1454.71 Z" fill="#000000" fill-rule="nonzero" fill-opacity="1" /><path clip-path="url(#clip420)" d="M1190.43 1427.16 Q1186.81 1427.16 1184.99 1430.73 Q1183.18 1434.27 1183.18 1441.4 Q1183.18 1448.51 1184.99 1452.07 Q1186.81 1455.61 1190.43 1455.61 Q1194.06 1455.61 1195.86 1452.07 Q1197.69 1448.51 1197.69 1441.4 Q1197.69 1434.27 1195.86 1430.73 Q1194.06 1427.16 1190.43 1427.16 M1190.43 1423.46 Q1196.24 1423.46 1199.29 1428.07 Q1202.37 1432.65 1202.37 1441.4 Q1202.37 1450.13 1199.29 1454.73 Q1196.24 1459.32 1190.43 1459.32 Q1184.62 1459.32 1181.54 1454.73 Q1178.48 1450.13 1178.48 1441.4 Q1178.48 1432.65 1181.54 1428.07 Q1184.62 1423.46 1190.43 1423.46 Z" fill="#000000" fill-rule="nonzero" fill-opacity="1" /><path clip-path="url(#clip420)" d="M1202.91 1428.04 L1209.12 1428.04 L1209.12 1406.62 L1202.37 1407.97 L1202.37 1404.51 L1209.08 1403.15 L1212.88 1403.15 L1212.88 1428.04 L1219.09 1428.04 L1219.09 1431.23 L1202.91 1431.23 L1202.91 1428.04 Z" fill="#000000" fill-rule="nonzero" fill-opacity="1" /><path clip-path="url(#clip420)" d="M1734.69 1454.71 L1742.33 1454.71 L1742.33 1428.34 L1734.02 1430.01 L1734.02 1425.75 L1742.28 1424.08 L1746.96 1424.08 L1746.96 1454.71 L1754.59 1454.71 L1754.59 1458.64 L1734.69 1458.64 L1734.69 1454.71 Z" fill="#000000" fill-rule="nonzero" fill-opacity="1" /><path clip-path="url(#clip420)" d="M1774.04 1427.16 Q1770.43 1427.16 1768.6 1430.73 Q1766.79 1434.27 1766.79 1441.4 Q1766.79 1448.51 1768.6 1452.07 Q1770.43 1455.61 1774.04 1455.61 Q1777.67 1455.61 1779.48 1452.07 Q1781.31 1448.51 1781.31 1441.4 Q1781.31 1434.27 1779.48 1430.73 Q1777.67 1427.16 1774.04 1427.16 M1774.04 1423.46 Q1779.85 1423.46 1782.9 1428.07 Q1785.98 1432.65 1785.98 1441.4 Q1785.98 1450.13 1782.9 1454.73 Q1779.85 1459.32 1774.04 1459.32 Q1768.23 1459.32 1765.15 1454.73 Q1762.09 1450.13 1762.09 1441.4 Q1762.09 1432.65 1765.15 1428.07 Q1768.23 1423.46 1774.04 1423.46 Z" fill="#000000" fill-rule="nonzero" fill-opacity="1" /><path clip-path="url(#clip420)" d="M1790.55 1428.04 L1803.81 1428.04 L1803.81 1431.23 L1785.98 1431.23 L1785.98 1428.04 Q1788.15 1425.8 1791.87 1422.04 Q1795.61 1418.26 1796.57 1417.17 Q1798.4 1415.12 1799.11 1413.71 Q1799.84 1412.28 1799.84 1410.9 Q1799.84 1408.67 1798.26 1407.25 Q1796.7 1405.84 1794.18 1405.84 Q1792.4 1405.84 1790.4 1406.46 Q1788.43 1407.09 1786.17 1408.35 L1786.17 1404.51 Q1788.47 1403.59 1790.46 1403.12 Q1792.45 1402.65 1794.11 1402.65 Q1798.47 1402.65 1801.07 1404.83 Q1803.66 1407.01 1803.66 1410.66 Q1803.66 1412.39 1803 1413.95 Q1802.36 1415.49 1800.65 1417.6 Q1800.18 1418.14 1797.66 1420.76 Q1795.14 1423.35 1790.55 1428.04 Z" fill="#000000" fill-rule="nonzero" fill-opacity="1" /><path clip-path="url(#clip420)" d="M1214.46 1571.84 L1214.46 1509.94 Q1214.46 1507.98 1215.78 1507.98 Q1217.1 1507.98 1217.1 1510.04 L1217.1 1571.68 Q1217.1 1573.81 1215.78 1573.81 Q1214.46 1573.81 1214.46 1571.84 M1221.74 1571.84 L1221.74 1510.42 Q1221.74 1507.98 1223.06 1507.98 Q1224.38 1507.98 1224.38 1510.04 L1224.38 1571.68 Q1224.38 1573.81 1223.06 1573.81 Q1221.74 1573.81 1221.74 1571.84 Z" fill="#000000" fill-rule="nonzero" fill-opacity="1" /><path clip-path="url(#clip420)" d="M1292.37 1556.06 Q1292.37 1556.67 1292.12 1556.99 Q1291.89 1557.28 1291.67 1557.35 Q1291.47 1557.38 1291.18 1557.38 Q1290.34 1557.38 1287.45 1557.28 Q1284.55 1557.19 1283.71 1557.19 Q1282.36 1557.19 1279.59 1557.28 Q1276.82 1557.38 1275.47 1557.38 Q1274.56 1557.38 1274.56 1556.64 Q1274.56 1556.16 1274.66 1555.9 Q1274.76 1555.61 1275.01 1555.51 Q1275.3 1555.38 1275.47 1555.38 Q1275.66 1555.35 1276.14 1555.35 Q1276.79 1555.35 1277.46 1555.29 Q1278.14 1555.19 1278.98 1555 Q1279.81 1554.8 1280.33 1554.32 Q1280.88 1553.84 1280.88 1553.16 Q1280.88 1552.87 1280.65 1550.49 Q1280.43 1548.11 1280.14 1545.34 Q1279.85 1542.53 1279.81 1542.15 L1263.26 1542.15 Q1261.75 1544.76 1260.68 1546.56 Q1259.62 1548.36 1259.23 1548.97 Q1258.85 1549.59 1258.62 1549.97 Q1258.4 1550.36 1258.27 1550.58 Q1257.33 1552.29 1257.33 1553.03 Q1257.33 1555.09 1260.43 1555.35 Q1261.49 1555.35 1261.49 1556.12 Q1261.49 1556.7 1261.23 1557.03 Q1260.97 1557.32 1260.75 1557.35 Q1260.55 1557.38 1260.23 1557.38 Q1259.17 1557.38 1256.95 1557.28 Q1254.73 1557.19 1253.63 1557.19 Q1252.7 1557.19 1250.76 1557.28 Q1248.83 1557.38 1247.96 1557.38 Q1247.58 1557.38 1247.35 1557.15 Q1247.12 1556.93 1247.12 1556.64 Q1247.12 1556.19 1247.19 1555.93 Q1247.29 1555.67 1247.54 1555.54 Q1247.8 1555.42 1247.93 1555.42 Q1248.06 1555.38 1248.51 1555.35 Q1250.96 1555.19 1252.86 1554.03 Q1254.79 1552.84 1256.63 1549.78 L1279.56 1511.26 Q1279.78 1510.88 1279.94 1510.68 Q1280.1 1510.49 1280.43 1510.33 Q1280.78 1510.17 1281.29 1510.17 Q1282.1 1510.17 1282.26 1510.42 Q1282.42 1510.65 1282.52 1511.74 L1286.54 1552.97 Q1286.64 1553.84 1286.71 1554.19 Q1286.8 1554.51 1287.22 1554.87 Q1287.67 1555.19 1288.48 1555.29 Q1289.31 1555.35 1290.86 1555.35 Q1291.44 1555.35 1291.67 1555.38 Q1291.89 1555.38 1292.12 1555.54 Q1292.37 1555.71 1292.37 1556.06 M1279.62 1540.09 L1277.53 1518.35 L1264.52 1540.09 L1279.62 1540.09 Z" fill="#000000" fill-rule="nonzero" fill-opacity="1" /><path clip-path="url(#clip420)" d="M1298.98 1497.93 Q1298.98 1490.13 1301.89 1483.84 Q1303.13 1481.2 1304.86 1479 Q1306.6 1476.79 1307.75 1475.82 Q1308.9 1474.85 1309.21 1474.85 Q1309.66 1474.85 1309.69 1475.3 Q1309.69 1475.52 1309.08 1476.09 Q1301.64 1483.66 1301.66 1497.93 Q1301.66 1512.25 1308.9 1519.53 Q1309.69 1520.32 1309.69 1520.57 Q1309.69 1521.02 1309.21 1521.02 Q1308.9 1521.02 1307.79 1520.09 Q1306.69 1519.17 1304.97 1517.05 Q1303.26 1514.93 1302.02 1512.34 Q1298.98 1506.05 1298.98 1497.93 Z" fill="#000000" fill-rule="nonzero" fill-opacity="1" /><path clip-path="url(#clip420)" d="M1314.12 1509.48 Q1314.12 1508.64 1314.19 1508.39 Q1314.28 1508.14 1314.64 1507.76 L1323.5 1497.89 Q1328.34 1492.43 1328.34 1487.67 Q1328.34 1484.59 1326.72 1482.38 Q1325.12 1480.17 1322.17 1480.17 Q1320.14 1480.17 1318.42 1481.41 Q1316.71 1482.65 1315.92 1484.86 Q1316.06 1484.81 1316.53 1484.81 Q1317.68 1484.81 1318.31 1485.53 Q1318.97 1486.25 1318.97 1487.22 Q1318.97 1488.46 1318.15 1489.07 Q1317.37 1489.66 1316.58 1489.66 Q1316.26 1489.66 1315.83 1489.59 Q1315.43 1489.52 1314.77 1488.89 Q1314.12 1488.24 1314.12 1487.09 Q1314.12 1483.86 1316.55 1481.29 Q1319.01 1478.72 1322.75 1478.72 Q1326.99 1478.72 1329.76 1481.25 Q1332.56 1483.75 1332.56 1487.67 Q1332.56 1489.05 1332.13 1490.31 Q1331.73 1491.55 1331.16 1492.52 Q1330.62 1493.49 1329.13 1495.05 Q1327.65 1496.6 1326.45 1497.71 Q1325.26 1498.81 1322.57 1501.16 L1317.68 1505.91 L1326 1505.91 Q1330.06 1505.91 1330.37 1505.55 Q1330.82 1504.9 1331.39 1501.45 L1332.56 1501.45 L1331.25 1509.48 L1314.12 1509.48 Z" fill="#000000" fill-rule="nonzero" fill-opacity="1" /><path clip-path="url(#clip420)" d="M1338.09 1520.57 Q1338.09 1520.34 1338.68 1519.78 Q1346.12 1512.2 1346.12 1497.93 Q1346.12 1483.62 1338.97 1476.38 Q1338.09 1475.55 1338.09 1475.3 Q1338.09 1474.85 1338.54 1474.85 Q1338.86 1474.85 1339.96 1475.77 Q1341.09 1476.7 1342.78 1478.82 Q1344.5 1480.93 1345.76 1483.53 Q1348.8 1489.82 1348.8 1497.93 Q1348.8 1505.73 1345.89 1512.02 Q1344.65 1514.66 1342.92 1516.87 Q1341.18 1519.08 1340.03 1520.05 Q1338.88 1521.02 1338.54 1521.02 Q1338.09 1521.02 1338.09 1520.57 Z" fill="#000000" fill-rule="nonzero" fill-opacity="1" /><path clip-path="url(#clip420)" d="M1362.86 1571.84 L1362.86 1509.94 Q1362.86 1507.98 1364.18 1507.98 Q1365.5 1507.98 1365.5 1510.04 L1365.5 1571.68 Q1365.5 1573.81 1364.18 1573.81 Q1362.86 1573.81 1362.86 1571.84 M1370.14 1571.84 L1370.14 1510.42 Q1370.14 1507.98 1371.46 1507.98 Q1372.78 1507.98 1372.78 1510.04 L1372.78 1571.68 Q1372.78 1573.81 1371.46 1573.81 Q1370.14 1573.81 1370.14 1571.84 Z" fill="#000000" fill-rule="nonzero" fill-opacity="1" /><path clip-path="url(#clip420)" d="M1379.71 1565.57 L1379.71 1564.13 Q1385.26 1564.13 1388.12 1561.17 Q1388.91 1561.17 1389.05 1561.35 Q1389.18 1561.53 1389.18 1562.37 L1389.18 1588.27 Q1389.18 1589.65 1389.86 1590.07 Q1390.54 1590.5 1393.49 1590.5 L1394.95 1590.5 L1394.95 1591.92 Q1393.33 1591.79 1387.47 1591.79 Q1381.61 1591.79 1380.01 1591.92 L1380.01 1590.5 L1381.47 1590.5 Q1384.38 1590.5 1385.08 1590.1 Q1385.78 1589.67 1385.78 1588.27 L1385.78 1564.35 Q1383.37 1565.57 1379.71 1565.57 Z" fill="#000000" fill-rule="nonzero" fill-opacity="1" /><polyline clip-path="url(#clip420)" style="stroke:#000000; stroke-linecap:round; stroke-linejoin:round; stroke-width:4; stroke-opacity:1; fill:none" points="263.552,1380.58 263.552,47.2441 "/>
<polyline clip-path="url(#clip420)" style="stroke:#000000; stroke-linecap:round; stroke-linejoin:round; stroke-width:4; stroke-opacity:1; fill:none" points="2352.76,1380.58 2352.76,47.2441 "/>
<polyline clip-path="url(#clip420)" style="stroke:#000000; stroke-linecap:round; stroke-linejoin:round; stroke-width:4; stroke-opacity:1; fill:none" points="263.552,1013.86 282.45,1013.86 "/>
<polyline clip-path="url(#clip420)" style="stroke:#000000; stroke-linecap:round; stroke-linejoin:round; stroke-width:4; stroke-opacity:1; fill:none" points="263.552,628.856 282.45,628.856 "/>
<polyline clip-path="url(#clip420)" style="stroke:#000000; stroke-linecap:round; stroke-linejoin:round; stroke-width:4; stroke-opacity:1; fill:none" points="263.552,243.852 282.45,243.852 "/>
<polyline clip-path="url(#clip420)" style="stroke:#000000; stroke-linecap:round; stroke-linejoin:round; stroke-width:4; stroke-opacity:1; fill:none" points="2352.76,1013.86 2333.86,1013.86 "/>
<polyline clip-path="url(#clip420)" style="stroke:#000000; stroke-linecap:round; stroke-linejoin:round; stroke-width:4; stroke-opacity:1; fill:none" points="2352.76,628.856 2333.86,628.856 "/>
<polyline clip-path="url(#clip420)" style="stroke:#000000; stroke-linecap:round; stroke-linejoin:round; stroke-width:4; stroke-opacity:1; fill:none" points="2352.76,243.852 2333.86,243.852 "/>
<path clip-path="url(#clip420)" d="M126.924 1033.65 L134.563 1033.65 L134.563 1007.29 L126.252 1008.95 L126.252 1004.69 L134.516 1003.03 L139.192 1003.03 L139.192 1033.65 L146.831 1033.65 L146.831 1037.59 L126.924 1037.59 L126.924 1033.65 Z" fill="#000000" fill-rule="nonzero" fill-opacity="1" /><path clip-path="url(#clip420)" d="M166.275 1006.11 Q162.664 1006.11 160.836 1009.67 Q159.03 1013.21 159.03 1020.34 Q159.03 1027.45 160.836 1031.01 Q162.664 1034.55 166.275 1034.55 Q169.91 1034.55 171.715 1031.01 Q173.544 1027.45 173.544 1020.34 Q173.544 1013.21 171.715 1009.67 Q169.91 1006.11 166.275 1006.11 M166.275 1002.4 Q172.085 1002.4 175.141 1007.01 Q178.22 1011.59 178.22 1020.34 Q178.22 1029.07 175.141 1033.67 Q172.085 1038.26 166.275 1038.26 Q160.465 1038.26 157.386 1033.67 Q154.331 1029.07 154.331 1020.34 Q154.331 1011.59 157.386 1007.01 Q160.465 1002.4 166.275 1002.4 Z" fill="#000000" fill-rule="nonzero" fill-opacity="1" /><path clip-path="url(#clip420)" d="M178.22 996.503 L202.331 996.503 L202.331 999.7 L178.22 999.7 L178.22 996.503 Z" fill="#000000" fill-rule="nonzero" fill-opacity="1" /><path clip-path="url(#clip420)" d="M210.569 982.096 L225.484 982.096 L225.484 985.294 L214.048 985.294 L214.048 992.177 Q214.876 991.895 215.704 991.763 Q216.531 991.613 217.359 991.613 Q222.061 991.613 224.807 994.19 Q227.552 996.766 227.552 1001.17 Q227.552 1005.7 224.731 1008.22 Q221.91 1010.72 216.776 1010.72 Q215.008 1010.72 213.165 1010.42 Q211.34 1010.12 209.384 1009.52 L209.384 1005.7 Q211.077 1006.62 212.882 1007.07 Q214.688 1007.52 216.7 1007.52 Q219.954 1007.52 221.854 1005.81 Q223.753 1004.1 223.753 1001.17 Q223.753 998.233 221.854 996.522 Q219.954 994.81 216.7 994.81 Q215.177 994.81 213.654 995.149 Q212.149 995.487 210.569 996.202 L210.569 982.096 Z" fill="#000000" fill-rule="nonzero" fill-opacity="1" /><path clip-path="url(#clip420)" d="M126.642 648.648 L134.28 648.648 L134.28 622.282 L125.97 623.949 L125.97 619.69 L134.234 618.023 L138.91 618.023 L138.91 648.648 L146.549 648.648 L146.549 652.583 L126.642 652.583 L126.642 648.648 Z" fill="#000000" fill-rule="nonzero" fill-opacity="1" /><path clip-path="url(#clip420)" d="M165.993 621.102 Q162.382 621.102 160.553 624.667 Q158.748 628.208 158.748 635.338 Q158.748 642.444 160.553 646.009 Q162.382 649.551 165.993 649.551 Q169.627 649.551 171.433 646.009 Q173.262 642.444 173.262 635.338 Q173.262 628.208 171.433 624.667 Q169.627 621.102 165.993 621.102 M165.993 617.398 Q171.803 617.398 174.859 622.005 Q177.938 626.588 177.938 635.338 Q177.938 644.065 174.859 648.671 Q171.803 653.255 165.993 653.255 Q160.183 653.255 157.104 648.671 Q154.049 644.065 154.049 635.338 Q154.049 626.588 157.104 622.005 Q160.183 617.398 165.993 617.398 Z" fill="#000000" fill-rule="nonzero" fill-opacity="1" /><path clip-path="url(#clip420)" d="M177.938 611.5 L202.049 611.5 L202.049 614.697 L177.938 614.697 L177.938 611.5 Z" fill="#000000" fill-rule="nonzero" fill-opacity="1" /><path clip-path="url(#clip420)" d="M221.76 610.033 Q224.487 610.616 226.01 612.459 Q227.552 614.302 227.552 617.01 Q227.552 621.167 224.694 623.443 Q221.835 625.718 216.569 625.718 Q214.801 625.718 212.92 625.361 Q211.058 625.022 209.064 624.326 L209.064 620.659 Q210.644 621.581 212.525 622.051 Q214.406 622.521 216.456 622.521 Q220.029 622.521 221.891 621.11 Q223.772 619.7 223.772 617.01 Q223.772 614.528 222.023 613.136 Q220.293 611.725 217.189 611.725 L213.917 611.725 L213.917 608.603 L217.34 608.603 Q220.142 608.603 221.628 607.494 Q223.114 606.365 223.114 604.259 Q223.114 602.096 221.572 600.948 Q220.048 599.782 217.189 599.782 Q215.628 599.782 213.842 600.121 Q212.055 600.459 209.911 601.174 L209.911 597.789 Q212.074 597.187 213.954 596.886 Q215.854 596.585 217.528 596.585 Q221.854 596.585 224.374 598.56 Q226.894 600.516 226.894 603.864 Q226.894 606.196 225.559 607.813 Q224.223 609.412 221.76 610.033 Z" fill="#000000" fill-rule="nonzero" fill-opacity="1" /><path clip-path="url(#clip420)" d="M127.112 263.645 L134.751 263.645 L134.751 237.279 L126.44 238.946 L126.44 234.686 L134.704 233.02 L139.38 233.02 L139.38 263.645 L147.019 263.645 L147.019 267.58 L127.112 267.58 L127.112 263.645 Z" fill="#000000" fill-rule="nonzero" fill-opacity="1" /><path clip-path="url(#clip420)" d="M166.463 236.098 Q162.852 236.098 161.024 239.663 Q159.218 243.205 159.218 250.335 Q159.218 257.441 161.024 261.006 Q162.852 264.547 166.463 264.547 Q170.098 264.547 171.903 261.006 Q173.732 257.441 173.732 250.335 Q173.732 243.205 171.903 239.663 Q170.098 236.098 166.463 236.098 M166.463 232.395 Q172.274 232.395 175.329 237.001 Q178.408 241.585 178.408 250.335 Q178.408 259.061 175.329 263.668 Q172.274 268.251 166.463 268.251 Q160.653 268.251 157.575 263.668 Q154.519 259.061 154.519 250.335 Q154.519 241.585 157.575 237.001 Q160.653 232.395 166.463 232.395 Z" fill="#000000" fill-rule="nonzero" fill-opacity="1" /><path clip-path="url(#clip420)" d="M178.408 226.496 L202.519 226.496 L202.519 229.693 L178.408 229.693 L178.408 226.496 Z" fill="#000000" fill-rule="nonzero" fill-opacity="1" /><path clip-path="url(#clip420)" d="M211.378 236.972 L217.584 236.972 L217.584 215.55 L210.832 216.904 L210.832 213.444 L217.547 212.089 L221.346 212.089 L221.346 236.972 L227.552 236.972 L227.552 240.169 L211.378 240.169 L211.378 236.972 Z" fill="#000000" fill-rule="nonzero" fill-opacity="1" /><path clip-path="url(#clip420)" d="M42.6211 1162.34 L40.56 1162.34 Q40.56 1154.42 36.341 1150.33 Q36.341 1149.2 36.5986 1149.01 Q36.8563 1148.82 38.0479 1148.82 L75.0524 1148.82 Q77.017 1148.82 77.6289 1147.85 Q78.2408 1146.89 78.2408 1142.67 L78.2408 1140.57 L80.2698 1140.57 Q80.0765 1142.89 80.0765 1151.27 Q80.0765 1159.64 80.2698 1161.93 L78.2408 1161.93 L78.2408 1159.83 Q78.2408 1155.68 77.6611 1154.68 Q77.0492 1153.68 75.0524 1153.68 L40.882 1153.68 Q42.6211 1157.13 42.6211 1162.34 Z" fill="#000000" fill-rule="nonzero" fill-opacity="1" /><path clip-path="url(#clip420)" d="M62.8464 1067.84 Q63.2329 1067.45 63.7804 1067.45 Q64.3279 1067.45 64.7143 1067.84 Q65.1008 1068.22 65.1008 1068.77 L65.1008 1110.06 Q65.1008 1110.61 64.7143 1110.99 Q64.3279 1111.38 63.7804 1111.38 Q63.2329 1111.38 62.8464 1110.99 Q62.4599 1110.61 62.4599 1110.06 L62.4599 1068.77 Q62.4599 1068.22 62.8464 1067.84 Z" fill="#000000" fill-rule="nonzero" fill-opacity="1" /><path clip-path="url(#clip420)" d="M94.7302 1042.26 L33.3136 1042.26 Q30.866 1042.26 30.866 1040.94 Q30.866 1039.62 32.8305 1039.62 L94.2471 1039.62 Q96.6948 1039.62 96.6948 1040.94 Q96.6948 1042.26 94.7302 1042.26 Z" fill="#000000" fill-rule="nonzero" fill-opacity="1" /><path clip-path="url(#clip420)" d="M95.4387 1000.12 Q95.9862 1000.12 96.3727 1000.51 Q96.7592 1000.9 96.7592 1001.44 Q96.7592 1002.38 95.8896 1002.7 L64.2313 1014.97 Q64.1024 1015.04 63.7804 1015.04 Q63.4583 1015.04 63.3295 1014.97 L31.6711 1002.7 Q30.8016 1002.38 30.8016 1001.44 Q30.8016 1000.9 31.188 1000.51 Q31.5745 1000.12 32.122 1000.12 Q32.4441 1000.12 32.5729 1000.19 L63.7804 1012.33 L94.9879 1000.19 Q95.1167 1000.12 95.4387 1000.12 Z" fill="#000000" fill-rule="nonzero" fill-opacity="1" /><path clip-path="url(#clip420)" d="M37.2105 941.819 L48.6114 943.139 Q49.642 943.236 49.9641 943.397 Q50.2539 943.558 50.2539 944.073 Q50.2539 944.46 50.0285 944.685 Q49.7708 944.878 49.481 944.878 Q49.3199 944.878 48.9013 944.846 Q48.4826 944.814 48.2894 944.814 Q46.2926 944.524 44.7789 944.524 Q41.977 944.524 40.4633 945.362 Q38.9175 946.199 38.2089 948.357 Q37.4682 950.514 37.4682 954.572 L37.4682 963.848 Q37.4682 965.973 37.8547 966.489 Q38.2411 966.972 40.0447 967.423 L55.9221 971.384 L55.9221 965.168 Q55.9221 962.849 55.6323 961.464 Q55.3424 960.047 54.5373 959.113 Q53.6999 958.147 52.5727 957.632 Q51.4455 957.084 49.4166 956.537 Q48.7402 956.376 48.4826 956.215 Q48.2249 956.022 48.2249 955.603 Q48.2249 955.281 48.4504 955.055 Q48.6436 954.83 48.9335 954.83 L64.3601 958.598 Q65.133 958.791 65.4229 958.985 Q65.6805 959.178 65.6805 959.564 Q65.6805 959.983 65.4551 960.208 Q65.2296 960.434 64.972 960.434 Q64.7143 960.434 64.2313 960.241 Q62.1379 959.758 61.0107 959.758 Q60.3666 959.758 60.0445 959.822 Q59.7224 959.854 59.2716 960.144 Q58.7885 960.402 58.563 960.981 Q58.3376 961.561 58.1766 962.656 Q57.9833 963.751 57.9833 965.394 L57.9833 971.899 L75.9864 976.408 Q77.178 976.73 77.5001 976.73 Q77.8543 976.73 77.9832 976.569 Q78.0798 976.376 78.1442 975.86 Q78.2408 975.281 78.2408 974.411 L78.2408 964.782 Q78.2408 962.656 78.0476 960.949 Q77.8543 959.242 77.3712 957.825 Q76.8882 956.376 76.3407 955.281 Q75.7932 954.186 74.7948 953.155 Q73.7642 952.125 72.8624 951.416 Q71.9285 950.675 70.3504 949.806 Q68.7723 948.936 67.4841 948.324 Q66.1636 947.713 64.038 946.779 Q63.2651 946.521 63.2651 945.909 Q63.2651 945.555 63.4583 945.362 Q63.6193 945.168 63.7804 945.136 L63.9736 945.136 Q64.5855 945.329 64.9076 945.458 L79.1426 951.513 Q79.9477 951.867 80.1087 952.157 Q80.2698 952.447 80.2698 953.574 L80.2698 987.809 Q80.2698 988.582 80.2376 988.904 Q80.2054 989.194 80.0443 989.419 Q79.8511 989.645 79.4646 989.645 Q78.8527 989.645 78.5951 989.387 Q78.3052 989.129 78.273 988.839 Q78.2408 988.55 78.2408 987.809 Q78.2408 986.199 78.1442 985.232 Q78.0476 984.266 77.9187 983.654 Q77.7577 983.01 77.3068 982.688 Q76.856 982.334 76.4695 982.173 Q76.0508 982.012 75.1168 981.786 L40.2379 973.091 Q39.0463 972.769 38.6598 972.769 Q38.2411 972.769 37.9835 973.059 Q37.7258 973.316 37.6292 974.025 Q37.5004 974.733 37.5004 975.313 Q37.4682 975.86 37.4682 977.052 Q37.4682 977.825 37.436 978.147 Q37.4038 978.437 37.2427 978.662 Q37.0817 978.888 36.7275 978.888 Q35.8257 978.888 35.6325 978.501 Q35.407 978.083 35.407 976.923 L35.407 943.622 Q35.407 942.302 35.6969 942.012 Q35.9545 941.69 37.2105 941.819 Z" fill="#000000" fill-rule="nonzero" fill-opacity="1" /><path clip-path="url(#clip420)" d="M98.8548 935.12 Q98.0206 935.12 97.7727 935.053 Q97.5247 934.962 97.1414 934.602 L87.2671 925.742 Q81.8114 920.895 77.0546 920.895 Q73.9661 920.895 71.7568 922.518 Q69.5474 924.119 69.5474 927.072 Q69.5474 929.101 70.7874 930.814 Q72.0273 932.528 74.2366 933.317 Q74.1915 933.181 74.1915 932.708 Q74.1915 931.558 74.9129 930.927 Q75.6344 930.273 76.6037 930.273 Q77.8437 930.273 78.4524 931.085 Q79.0385 931.874 79.0385 932.663 Q79.0385 932.979 78.9709 933.407 Q78.9032 933.813 78.272 934.466 Q77.6182 935.12 76.4685 935.12 Q73.2447 935.12 70.6746 932.685 Q68.1046 930.228 68.1046 926.486 Q68.1046 922.248 70.6296 919.475 Q73.132 916.679 77.0546 916.679 Q78.4298 916.679 79.6923 917.107 Q80.9322 917.513 81.9016 918.077 Q82.871 918.618 84.4266 920.106 Q85.9821 921.594 87.0868 922.789 Q88.1914 923.983 90.536 926.666 L95.2928 931.558 L95.2928 923.239 Q95.2928 919.182 94.9321 918.866 Q94.2783 918.415 90.8291 917.851 L90.8291 916.679 L98.8548 917.987 L98.8548 935.12 Z" fill="#000000" fill-rule="nonzero" fill-opacity="1" /><path clip-path="url(#clip420)" d="M72.5007 913.032 L71.0579 913.032 Q71.0579 907.487 68.1046 904.623 Q68.1046 903.834 68.285 903.699 Q68.4653 903.564 69.2995 903.564 L95.2026 903.564 Q96.5778 903.564 97.0062 902.888 Q97.4345 902.211 97.4345 899.258 L97.4345 897.793 L98.8548 897.793 Q98.7195 899.416 98.7195 905.277 Q98.7195 911.139 98.8548 912.739 L97.4345 912.739 L97.4345 911.274 Q97.4345 908.366 97.0287 907.667 Q96.6004 906.968 95.2026 906.968 L71.2833 906.968 Q72.5007 909.38 72.5007 913.032 Z" fill="#000000" fill-rule="nonzero" fill-opacity="1" /><path clip-path="url(#clip420)" d="M91.2349 897.48 L89.8146 897.48 L68.1497 883.299 Q67.5861 882.939 67.6087 882.375 Q67.6087 881.857 67.8115 881.744 Q68.0144 881.631 68.8035 881.631 L89.8146 881.631 L89.8146 877.01 L91.2349 877.01 L91.2349 881.631 L95.2477 881.631 Q96.5778 881.631 97.0062 881.09 Q97.4345 880.527 97.4345 878.137 L97.4345 877.167 L98.8548 877.167 Q98.7195 879.061 98.7195 883.435 Q98.7195 887.786 98.8548 889.679 L97.4345 889.679 L97.4345 888.71 Q97.4345 886.32 97.0287 885.757 Q96.6004 885.193 95.2477 885.193 L91.2349 885.193 L91.2349 897.48 M89.8146 896.172 L89.8146 884.923 L72.5909 884.923 L89.8146 896.172 Z" fill="#000000" fill-rule="nonzero" fill-opacity="1" /><path clip-path="url(#clip420)" d="M63.7804 867.575 Q52.6371 867.575 43.6517 863.42 Q39.8836 861.649 36.7275 859.169 Q33.5713 856.689 32.1864 855.047 Q30.8016 853.404 30.8016 852.953 Q30.8016 852.309 31.4457 852.277 Q31.7678 852.277 32.5729 853.147 Q43.3941 863.775 63.7804 863.742 Q84.2311 863.742 94.6336 853.404 Q95.7608 852.277 96.1151 852.277 Q96.7592 852.277 96.7592 852.953 Q96.7592 853.404 95.4387 854.982 Q94.1183 856.56 91.0909 859.008 Q88.0636 861.456 84.3599 863.227 Q75.3745 867.575 63.7804 867.575 Z" fill="#000000" fill-rule="nonzero" fill-opacity="1" /><path clip-path="url(#clip420)" d="M35.9545 799.187 Q37.275 799.187 37.275 800.282 Q37.3394 802.215 37.7258 803.535 Q38.0801 804.856 38.7886 805.629 Q39.4972 806.369 40.2701 806.788 Q41.0108 807.174 42.138 807.432 L65.5517 813.294 Q72.1539 814.968 76.9526 820.379 Q81.719 825.789 81.719 831.941 Q81.719 835.451 80.2698 838.382 Q78.8205 841.28 75.8898 843.084 Q72.959 844.887 69.0621 844.887 Q67.1942 844.887 65.2296 844.404 L48.9335 840.411 L43.1364 838.929 Q38.853 837.834 38.4666 837.834 Q37.8547 837.834 37.6936 838.221 Q37.5004 838.575 37.4038 839.606 L37.275 842.118 Q37.275 842.891 37.2427 843.213 Q37.2105 843.503 37.0495 843.728 Q36.8885 843.953 36.5342 843.953 Q36.0833 843.953 35.7935 843.857 Q35.4714 843.728 35.3748 843.503 Q35.2782 843.277 35.246 843.116 Q35.2138 842.955 35.2138 842.697 L35.407 834.195 L35.2138 825.757 Q35.2138 824.823 35.9545 824.823 Q36.8885 824.823 37.0817 825.242 Q37.275 825.661 37.275 827.078 Q37.275 829.493 37.597 830.588 Q37.8869 831.651 38.4022 831.973 Q38.8852 832.263 40.3023 832.617 L65.9704 839.026 Q67.2586 839.348 68.5468 839.541 Q69.8029 839.702 70.447 839.702 L71.0911 839.735 Q75.1813 839.735 77.4357 837.48 Q79.6901 835.193 79.6901 831.683 Q79.6901 826.53 75.5999 821.731 Q71.5098 816.901 65.1008 815.258 L41.5583 809.332 Q40.9786 809.139 40.1735 809.139 Q38.8852 809.139 38.1123 810.105 Q37.3072 811.039 37.275 813.616 Q37.275 814.807 36.5342 814.807 Q35.9223 814.807 35.6325 814.582 Q35.3104 814.324 35.2782 814.131 Q35.2138 813.905 35.2138 813.616 Q35.2138 812.521 35.3104 810.202 Q35.407 807.883 35.407 806.756 Q35.407 805.629 35.3104 803.374 Q35.2138 801.12 35.2138 800.025 Q35.2138 799.638 35.407 799.445 Q35.568 799.22 35.7613 799.187 L35.9545 799.187 Z" fill="#000000" fill-rule="nonzero" fill-opacity="1" /><path clip-path="url(#clip420)" d="M96.1151 794.221 Q95.793 794.221 94.9879 793.384 Q84.1667 782.756 63.7804 782.756 Q43.3297 782.756 32.9916 792.965 Q31.8 794.221 31.4457 794.221 Q30.8016 794.221 30.8016 793.577 Q30.8016 793.126 32.122 791.548 Q33.4425 789.938 36.4698 787.523 Q39.4972 785.075 43.2008 783.271 Q52.1863 778.924 63.7804 778.924 Q74.9236 778.924 83.909 783.078 Q87.6771 784.849 90.8333 787.329 Q93.9895 789.809 95.3743 791.452 Q96.7592 793.094 96.7592 793.577 Q96.7592 794.221 96.1151 794.221 Z" fill="#000000" fill-rule="nonzero" fill-opacity="1" /><path clip-path="url(#clip420)" d="M94.7302 765.198 L33.3136 765.198 Q30.866 765.198 30.866 763.878 Q30.866 762.557 32.8305 762.557 L94.2471 762.557 Q96.6948 762.557 96.6948 763.878 Q96.6948 765.198 94.7302 765.198 Z" fill="#000000" fill-rule="nonzero" fill-opacity="1" /><path clip-path="url(#clip420)" d="M34.8917 694.237 Q35.6325 695.783 36.341 696.685 Q37.4038 698.166 39.4327 699.519 Q41.3007 700.839 44.1348 702.16 Q52.8626 706.024 64.2957 708.826 Q69.0299 710.018 72.0251 710.082 Q75.149 710.082 76.4373 709.084 Q77.178 708.633 77.178 707.506 Q77.178 706.218 76.244 705.058 Q75.2779 703.802 72.8302 701.902 L73.732 700.775 Q77.0492 703.158 78.6273 705.123 Q80.8495 707.989 80.8495 710.726 Q80.8495 712.82 79.6257 713.625 Q77.6289 715.203 73.2167 715.074 L75.922 718.327 Q81.3326 725.155 81.3326 731.306 Q81.3326 734.881 78.4985 736.974 Q77.5645 737.715 75.4389 737.844 Q73.4743 737.844 70.7046 737.167 Q65.7449 735.911 58.3054 732.562 Q50.2539 728.923 45.4552 727.763 Q43.9738 727.409 43.1364 727.28 Q42.2991 727.119 41.2041 727.28 Q40.1091 727.409 39.3039 728.021 Q38.8852 728.246 38.5954 728.858 Q38.3055 729.438 38.3055 730.05 Q38.3055 731.081 39.2395 732.433 Q41.0108 734.527 43.7161 735.203 Q44.7145 735.461 47.8707 735.944 L48.4826 737.973 Q45.4552 737.586 43.3297 737.103 Q39.1429 736.072 36.5342 732.82 Q34.6341 730.469 34.6341 727.28 Q34.6341 724.285 36.2122 723.126 Q37.1139 722.417 39.4972 722.288 Q41.9126 722.288 44.5213 722.932 Q49.5132 724.221 58.1766 728.15 Q64.5211 731.081 67.7417 731.853 Q70.7368 732.594 73.2811 732.498 Q75.4067 732.498 76.856 731.564 Q78.4985 730.308 78.4985 727.828 Q78.4985 724.092 74.4727 719.1 Q71.9607 716.073 70.6402 714.688 Q59.6902 712.015 38.6598 704.543 Q35.7613 699.487 34.151 695.171 L34.8917 694.237 Z" fill="#000000" fill-rule="nonzero" fill-opacity="1" /><path clip-path="url(#clip420)" d="M94.7302 689.391 L33.3136 689.391 Q30.866 689.391 30.866 688.071 Q30.866 686.75 32.8305 686.75 L94.2471 686.75 Q96.6948 686.75 96.6948 688.071 Q96.6948 689.391 94.7302 689.391 Z" fill="#000000" fill-rule="nonzero" fill-opacity="1" /><path clip-path="url(#clip420)" d="M37.2105 614.34 L48.6114 615.661 Q49.642 615.757 49.9641 615.918 Q50.2539 616.079 50.2539 616.595 Q50.2539 616.981 50.0285 617.206 Q49.7708 617.4 49.481 617.4 Q49.3199 617.4 48.9013 617.367 Q48.4826 617.335 48.2894 617.335 Q46.2926 617.045 44.7789 617.045 Q41.977 617.045 40.4633 617.883 Q38.9175 618.72 38.2089 620.878 Q37.4682 623.036 37.4682 627.094 L37.4682 636.369 Q37.4682 638.495 37.8547 639.01 Q38.2411 639.493 40.0447 639.944 L55.9221 643.905 L55.9221 637.689 Q55.9221 635.371 55.6323 633.986 Q55.3424 632.569 54.5373 631.635 Q53.6999 630.668 52.5727 630.153 Q51.4455 629.606 49.4166 629.058 Q48.7402 628.897 48.4826 628.736 Q48.2249 628.543 48.2249 628.124 Q48.2249 627.802 48.4504 627.577 Q48.6436 627.351 48.9335 627.351 L64.3601 631.119 Q65.133 631.313 65.4229 631.506 Q65.6805 631.699 65.6805 632.086 Q65.6805 632.504 65.4551 632.73 Q65.2296 632.955 64.972 632.955 Q64.7143 632.955 64.2313 632.762 Q62.1379 632.279 61.0107 632.279 Q60.3666 632.279 60.0445 632.343 Q59.7224 632.375 59.2716 632.665 Q58.7885 632.923 58.563 633.503 Q58.3376 634.082 58.1766 635.177 Q57.9833 636.272 57.9833 637.915 L57.9833 644.42 L75.9864 648.929 Q77.178 649.251 77.5001 649.251 Q77.8543 649.251 77.9832 649.09 Q78.0798 648.897 78.1442 648.382 Q78.2408 647.802 78.2408 646.932 L78.2408 637.303 Q78.2408 635.177 78.0476 633.47 Q77.8543 631.763 77.3712 630.346 Q76.8882 628.897 76.3407 627.802 Q75.7932 626.707 74.7948 625.677 Q73.7642 624.646 72.8624 623.937 Q71.9285 623.197 70.3504 622.327 Q68.7723 621.458 67.4841 620.846 Q66.1636 620.234 64.038 619.3 Q63.2651 619.042 63.2651 618.43 Q63.2651 618.076 63.4583 617.883 Q63.6193 617.69 63.7804 617.657 L63.9736 617.657 Q64.5855 617.851 64.9076 617.979 L79.1426 624.034 Q79.9477 624.388 80.1087 624.678 Q80.2698 624.968 80.2698 626.095 L80.2698 660.33 Q80.2698 661.103 80.2376 661.425 Q80.2054 661.715 80.0443 661.94 Q79.8511 662.166 79.4646 662.166 Q78.8527 662.166 78.5951 661.908 Q78.3052 661.651 78.273 661.361 Q78.2408 661.071 78.2408 660.33 Q78.2408 658.72 78.1442 657.754 Q78.0476 656.787 77.9187 656.176 Q77.7577 655.531 77.3068 655.209 Q76.856 654.855 76.4695 654.694 Q76.0508 654.533 75.1168 654.308 L40.2379 645.612 Q39.0463 645.29 38.6598 645.29 Q38.2411 645.29 37.9835 645.58 Q37.7258 645.837 37.6292 646.546 Q37.5004 647.255 37.5004 647.834 Q37.4682 648.382 37.4682 649.573 Q37.4682 650.346 37.436 650.668 Q37.4038 650.958 37.2427 651.184 Q37.0817 651.409 36.7275 651.409 Q35.8257 651.409 35.6325 651.023 Q35.407 650.604 35.407 649.445 L35.407 616.144 Q35.407 614.823 35.6969 614.533 Q35.9545 614.211 37.2105 614.34 Z" fill="#000000" fill-rule="nonzero" fill-opacity="1" /><path clip-path="url(#clip420)" d="M98.8548 607.641 Q98.0206 607.641 97.7727 607.574 Q97.5247 607.484 97.1414 607.123 L87.2671 598.263 Q81.8114 593.416 77.0546 593.416 Q73.9661 593.416 71.7568 595.039 Q69.5474 596.64 69.5474 599.593 Q69.5474 601.622 70.7874 603.336 Q72.0273 605.049 74.2366 605.838 Q74.1915 605.703 74.1915 605.229 Q74.1915 604.079 74.9129 603.448 Q75.6344 602.794 76.6037 602.794 Q77.8437 602.794 78.4524 603.606 Q79.0385 604.395 79.0385 605.184 Q79.0385 605.5 78.9709 605.928 Q78.9032 606.334 78.272 606.988 Q77.6182 607.641 76.4685 607.641 Q73.2447 607.641 70.6746 605.207 Q68.1046 602.749 68.1046 599.007 Q68.1046 594.769 70.6296 591.996 Q73.132 589.2 77.0546 589.2 Q78.4298 589.2 79.6923 589.629 Q80.9322 590.035 81.9016 590.598 Q82.871 591.139 84.4266 592.627 Q85.9821 594.115 87.0868 595.31 Q88.1914 596.505 90.536 599.187 L95.2928 604.079 L95.2928 595.761 Q95.2928 591.703 94.9321 591.387 Q94.2783 590.936 90.8291 590.373 L90.8291 589.2 L98.8548 590.508 L98.8548 607.641 Z" fill="#000000" fill-rule="nonzero" fill-opacity="1" /><path clip-path="url(#clip420)" d="M72.5007 585.554 L71.0579 585.554 Q71.0579 580.008 68.1046 577.145 Q68.1046 576.356 68.285 576.22 Q68.4653 576.085 69.2995 576.085 L95.2026 576.085 Q96.5778 576.085 97.0062 575.409 Q97.4345 574.732 97.4345 571.779 L97.4345 570.314 L98.8548 570.314 Q98.7195 571.937 98.7195 577.798 Q98.7195 583.66 98.8548 585.261 L97.4345 585.261 L97.4345 583.795 Q97.4345 580.887 97.0287 580.188 Q96.6004 579.489 95.2026 579.489 L71.2833 579.489 Q72.5007 581.901 72.5007 585.554 Z" fill="#000000" fill-rule="nonzero" fill-opacity="1" /><path clip-path="url(#clip420)" d="M91.2349 570.001 L89.8146 570.001 L68.1497 555.821 Q67.5861 555.46 67.6087 554.896 Q67.6087 554.378 67.8115 554.265 Q68.0144 554.152 68.8035 554.152 L89.8146 554.152 L89.8146 549.531 L91.2349 549.531 L91.2349 554.152 L95.2477 554.152 Q96.5778 554.152 97.0062 553.611 Q97.4345 553.048 97.4345 550.658 L97.4345 549.689 L98.8548 549.689 Q98.7195 551.582 98.7195 555.956 Q98.7195 560.307 98.8548 562.201 L97.4345 562.201 L97.4345 561.231 Q97.4345 558.842 97.0287 558.278 Q96.6004 557.714 95.2477 557.714 L91.2349 557.714 L91.2349 570.001 M89.8146 568.693 L89.8146 557.444 L72.5909 557.444 L89.8146 568.693 Z" fill="#000000" fill-rule="nonzero" fill-opacity="1" /><path clip-path="url(#clip420)" d="M63.7804 540.096 Q52.6371 540.096 43.6517 535.942 Q39.8836 534.17 36.7275 531.69 Q33.5713 529.211 32.1864 527.568 Q30.8016 525.926 30.8016 525.475 Q30.8016 524.831 31.4457 524.798 Q31.7678 524.798 32.5729 525.668 Q43.3941 536.296 63.7804 536.264 Q84.2311 536.264 94.6336 525.926 Q95.7608 524.798 96.1151 524.798 Q96.7592 524.798 96.7592 525.475 Q96.7592 525.926 95.4387 527.504 Q94.1183 529.082 91.0909 531.529 Q88.0636 533.977 84.3599 535.748 Q75.3745 540.096 63.7804 540.096 Z" fill="#000000" fill-rule="nonzero" fill-opacity="1" /><path clip-path="url(#clip420)" d="M35.9545 471.709 Q37.275 471.709 37.275 472.804 Q37.3394 474.736 37.7258 476.056 Q38.0801 477.377 38.7886 478.15 Q39.4972 478.891 40.2701 479.309 Q41.0108 479.696 42.138 479.953 L65.5517 485.815 Q72.1539 487.489 76.9526 492.9 Q81.719 498.311 81.719 504.462 Q81.719 507.972 80.2698 510.903 Q78.8205 513.802 75.8898 515.605 Q72.959 517.409 69.0621 517.409 Q67.1942 517.409 65.2296 516.926 L48.9335 512.932 L43.1364 511.451 Q38.853 510.356 38.4666 510.356 Q37.8547 510.356 37.6936 510.742 Q37.5004 511.096 37.4038 512.127 L37.275 514.639 Q37.275 515.412 37.2427 515.734 Q37.2105 516.024 37.0495 516.249 Q36.8885 516.475 36.5342 516.475 Q36.0833 516.475 35.7935 516.378 Q35.4714 516.249 35.3748 516.024 Q35.2782 515.798 35.246 515.637 Q35.2138 515.476 35.2138 515.219 L35.407 506.716 L35.2138 498.278 Q35.2138 497.344 35.9545 497.344 Q36.8885 497.344 37.0817 497.763 Q37.275 498.182 37.275 499.599 Q37.275 502.014 37.597 503.109 Q37.8869 504.172 38.4022 504.494 Q38.8852 504.784 40.3023 505.138 L65.9704 511.547 Q67.2586 511.869 68.5468 512.063 Q69.8029 512.224 70.447 512.224 L71.0911 512.256 Q75.1813 512.256 77.4357 510.001 Q79.6901 507.715 79.6901 504.204 Q79.6901 499.051 75.5999 494.253 Q71.5098 489.422 65.1008 487.779 L41.5583 481.853 Q40.9786 481.66 40.1735 481.66 Q38.8852 481.66 38.1123 482.626 Q37.3072 483.56 37.275 486.137 Q37.275 487.328 36.5342 487.328 Q35.9223 487.328 35.6325 487.103 Q35.3104 486.845 35.2782 486.652 Q35.2138 486.427 35.2138 486.137 Q35.2138 485.042 35.3104 482.723 Q35.407 480.404 35.407 479.277 Q35.407 478.15 35.3104 475.895 Q35.2138 473.641 35.2138 472.546 Q35.2138 472.159 35.407 471.966 Q35.568 471.741 35.7613 471.709 L35.9545 471.709 Z" fill="#000000" fill-rule="nonzero" fill-opacity="1" /><path clip-path="url(#clip420)" d="M70.2538 454.512 Q69.4486 454.448 69.4486 453.192 L69.4486 412.773 Q69.4486 410.873 70.1893 410.841 Q70.9945 410.841 70.9623 412.644 L70.9623 452.741 Q70.9945 454.512 70.2538 454.512 M57.3714 454.512 Q56.5663 454.512 56.5985 453.127 L56.5985 412.838 Q56.5985 410.873 57.3714 410.841 Q58.1121 410.841 58.1121 412.516 L58.1121 453.192 Q58.1121 454.512 57.3714 454.512 Z" fill="#000000" fill-rule="nonzero" fill-opacity="1" /><path clip-path="url(#clip420)" d="M59.1749 385.395 Q49.481 385.395 44.1992 382.947 Q36.341 379.534 36.341 371.482 Q36.341 369.775 36.8241 368.004 Q37.275 366.2 39.0463 363.946 Q40.8176 361.659 43.7161 360.275 Q49.3199 357.634 59.1749 357.634 Q68.8045 357.634 74.054 360.081 Q81.719 363.656 81.719 371.547 Q81.719 374.51 80.2054 377.537 Q78.6917 380.532 75.0524 382.432 Q69.6096 385.395 59.1749 385.395 M58.3698 379.92 Q68.3214 379.92 72.2827 379.212 Q76.5661 378.406 78.434 376.216 Q80.2698 373.994 80.2698 371.547 Q80.2698 368.906 78.3052 366.716 Q76.3085 364.493 72.0251 363.817 Q67.8061 363.076 58.3698 363.109 Q49.1911 363.109 45.5197 363.753 Q41.2363 364.622 39.5294 366.941 Q37.7902 369.228 37.7902 371.547 Q37.7902 372.416 38.0479 373.35 Q38.3055 374.252 39.0463 375.572 Q39.787 376.893 41.6227 377.923 Q43.4585 378.922 46.2282 379.405 Q49.803 379.92 58.3698 379.92 Z" fill="#000000" fill-rule="nonzero" fill-opacity="1" /><path clip-path="url(#clip420)" d="M96.1151 351.147 Q95.793 351.147 94.9879 350.31 Q84.1667 339.682 63.7804 339.682 Q43.3297 339.682 32.9916 349.891 Q31.8 351.147 31.4457 351.147 Q30.8016 351.147 30.8016 350.503 Q30.8016 350.052 32.122 348.474 Q33.4425 346.864 36.4698 344.448 Q39.4972 342.001 43.2008 340.197 Q52.1863 335.849 63.7804 335.849 Q74.9236 335.849 83.909 340.004 Q87.6771 341.775 90.8333 344.255 Q93.9895 346.735 95.3743 348.377 Q96.7592 350.02 96.7592 350.503 Q96.7592 351.147 96.1151 351.147 Z" fill="#000000" fill-rule="nonzero" fill-opacity="1" /><path clip-path="url(#clip420)" d="M63.3295 311.005 Q63.4583 310.941 63.7804 310.941 Q64.1024 310.941 64.2313 311.005 L95.8896 323.275 Q96.7592 323.597 96.7592 324.499 Q96.7592 325.047 96.3727 325.433 Q95.9862 325.82 95.4387 325.82 Q95.1167 325.82 94.9879 325.755 L63.7804 313.646 L32.5729 325.755 Q32.4441 325.82 32.122 325.82 Q31.5745 325.82 31.188 325.433 Q30.8016 325.047 30.8016 324.499 Q30.8016 323.597 31.6711 323.275 L63.3295 311.005 Z" fill="#000000" fill-rule="nonzero" fill-opacity="1" /><path clip-path="url(#clip420)" d="M94.7302 300.428 L33.3136 300.428 Q30.866 300.428 30.866 299.108 Q30.866 297.788 32.8305 297.788 L94.2471 297.788 Q96.6948 297.788 96.6948 299.108 Q96.6948 300.428 94.7302 300.428 Z" fill="#000000" fill-rule="nonzero" fill-opacity="1" /><path clip-path="url(#clip420)" d="M40.4706 290.779 Q39.6364 290.779 39.3884 290.711 Q39.1405 290.621 38.7572 290.261 L28.8829 281.401 Q23.4272 276.554 18.6704 276.554 Q15.5819 276.554 13.3725 278.177 Q11.1632 279.778 11.1632 282.731 Q11.1632 284.76 12.4032 286.473 Q13.6431 288.186 15.8524 288.976 Q15.8073 288.84 15.8073 288.367 Q15.8073 287.217 16.5287 286.586 Q17.2501 285.932 18.2195 285.932 Q19.4595 285.932 20.0681 286.744 Q20.6543 287.533 20.6543 288.322 Q20.6543 288.637 20.5867 289.066 Q20.519 289.471 19.8878 290.125 Q19.234 290.779 18.0843 290.779 Q14.8605 290.779 12.2904 288.344 Q9.7204 285.887 9.7204 282.145 Q9.7204 277.906 12.2453 275.133 Q14.7477 272.338 18.6704 272.338 Q20.0456 272.338 21.3081 272.766 Q22.548 273.172 23.5174 273.736 Q24.4868 274.277 26.0423 275.765 Q27.5979 277.253 28.7025 278.447 Q29.8072 279.642 32.1518 282.325 L36.9086 287.217 L36.9086 278.898 Q36.9086 274.84 36.5479 274.525 Q35.8941 274.074 32.4449 273.51 L32.4449 272.338 L40.4706 273.646 L40.4706 290.779 Z" fill="#000000" fill-rule="nonzero" fill-opacity="1" /><circle clip-path="url(#clip422)" cx="322.681" cy="1342.85" r="14.4" fill="#009af9" fill-rule="evenodd" fill-opacity="1" stroke="#000000" stroke-opacity="1" stroke-width="3.2"/>
<circle clip-path="url(#clip422)" cx="397.785" cy="1293.41" r="14.4" fill="#009af9" fill-rule="evenodd" fill-opacity="1" stroke="#000000" stroke-opacity="1" stroke-width="3.2"/>
<circle clip-path="url(#clip422)" cx="472.811" cy="1243.98" r="14.4" fill="#009af9" fill-rule="evenodd" fill-opacity="1" stroke="#000000" stroke-opacity="1" stroke-width="3.2"/>
<circle clip-path="url(#clip422)" cx="547.886" cy="1194.56" r="14.4" fill="#009af9" fill-rule="evenodd" fill-opacity="1" stroke="#000000" stroke-opacity="1" stroke-width="3.2"/>
<circle clip-path="url(#clip422)" cx="622.963" cy="1145.14" r="14.4" fill="#009af9" fill-rule="evenodd" fill-opacity="1" stroke="#000000" stroke-opacity="1" stroke-width="3.2"/>
<circle clip-path="url(#clip422)" cx="698.124" cy="1095.72" r="14.4" fill="#009af9" fill-rule="evenodd" fill-opacity="1" stroke="#000000" stroke-opacity="1" stroke-width="3.2"/>
<circle clip-path="url(#clip422)" cx="773.315" cy="1046.3" r="14.4" fill="#009af9" fill-rule="evenodd" fill-opacity="1" stroke="#000000" stroke-opacity="1" stroke-width="3.2"/>
<circle clip-path="url(#clip422)" cx="848.589" cy="996.858" r="14.4" fill="#009af9" fill-rule="evenodd" fill-opacity="1" stroke="#000000" stroke-opacity="1" stroke-width="3.2"/>
<circle clip-path="url(#clip422)" cx="923.942" cy="947.401" r="14.4" fill="#009af9" fill-rule="evenodd" fill-opacity="1" stroke="#000000" stroke-opacity="1" stroke-width="3.2"/>
<circle clip-path="url(#clip422)" cx="999.637" cy="897.918" r="14.4" fill="#009af9" fill-rule="evenodd" fill-opacity="1" stroke="#000000" stroke-opacity="1" stroke-width="3.2"/>
<circle clip-path="url(#clip422)" cx="1075.59" cy="848.397" r="14.4" fill="#009af9" fill-rule="evenodd" fill-opacity="1" stroke="#000000" stroke-opacity="1" stroke-width="3.2"/>
<circle clip-path="url(#clip422)" cx="1151.79" cy="798.828" r="14.4" fill="#009af9" fill-rule="evenodd" fill-opacity="1" stroke="#000000" stroke-opacity="1" stroke-width="3.2"/>
<circle clip-path="url(#clip422)" cx="1229.07" cy="749.194" r="14.4" fill="#009af9" fill-rule="evenodd" fill-opacity="1" stroke="#000000" stroke-opacity="1" stroke-width="3.2"/>
<circle clip-path="url(#clip422)" cx="1306.13" cy="699.477" r="14.4" fill="#009af9" fill-rule="evenodd" fill-opacity="1" stroke="#000000" stroke-opacity="1" stroke-width="3.2"/>
<circle clip-path="url(#clip422)" cx="1385.5" cy="649.658" r="14.4" fill="#009af9" fill-rule="evenodd" fill-opacity="1" stroke="#000000" stroke-opacity="1" stroke-width="3.2"/>
<circle clip-path="url(#clip422)" cx="1465.31" cy="599.714" r="14.4" fill="#009af9" fill-rule="evenodd" fill-opacity="1" stroke="#000000" stroke-opacity="1" stroke-width="3.2"/>
<circle clip-path="url(#clip422)" cx="1546.75" cy="549.633" r="14.4" fill="#009af9" fill-rule="evenodd" fill-opacity="1" stroke="#000000" stroke-opacity="1" stroke-width="3.2"/>
<circle clip-path="url(#clip422)" cx="1631.68" cy="499.418" r="14.4" fill="#009af9" fill-rule="evenodd" fill-opacity="1" stroke="#000000" stroke-opacity="1" stroke-width="3.2"/>
<circle clip-path="url(#clip422)" cx="1721.59" cy="449.121" r="14.4" fill="#009af9" fill-rule="evenodd" fill-opacity="1" stroke="#000000" stroke-opacity="1" stroke-width="3.2"/>
<circle clip-path="url(#clip422)" cx="1815.96" cy="398.894" r="14.4" fill="#009af9" fill-rule="evenodd" fill-opacity="1" stroke="#000000" stroke-opacity="1" stroke-width="3.2"/>
<circle clip-path="url(#clip422)" cx="1905.96" cy="353.373" r="14.4" fill="#009af9" fill-rule="evenodd" fill-opacity="1" stroke="#000000" stroke-opacity="1" stroke-width="3.2"/>
<circle clip-path="url(#clip422)" cx="1912.91" cy="349.086" r="14.4" fill="#009af9" fill-rule="evenodd" fill-opacity="1" stroke="#000000" stroke-opacity="1" stroke-width="3.2"/>
<circle clip-path="url(#clip422)" cx="1965.61" cy="326.8" r="14.4" fill="#009af9" fill-rule="evenodd" fill-opacity="1" stroke="#000000" stroke-opacity="1" stroke-width="3.2"/>
<circle clip-path="url(#clip422)" cx="2009.99" cy="304.249" r="14.4" fill="#009af9" fill-rule="evenodd" fill-opacity="1" stroke="#000000" stroke-opacity="1" stroke-width="3.2"/>
<circle clip-path="url(#clip422)" cx="2023.83" cy="300.398" r="14.4" fill="#009af9" fill-rule="evenodd" fill-opacity="1" stroke="#000000" stroke-opacity="1" stroke-width="3.2"/>
<circle clip-path="url(#clip422)" cx="2055.75" cy="284.817" r="14.4" fill="#009af9" fill-rule="evenodd" fill-opacity="1" stroke="#000000" stroke-opacity="1" stroke-width="3.2"/>
<circle clip-path="url(#clip422)" cx="2097.35" cy="267.883" r="14.4" fill="#009af9" fill-rule="evenodd" fill-opacity="1" stroke="#000000" stroke-opacity="1" stroke-width="3.2"/>
<circle clip-path="url(#clip422)" cx="2129.63" cy="254.071" r="14.4" fill="#009af9" fill-rule="evenodd" fill-opacity="1" stroke="#000000" stroke-opacity="1" stroke-width="3.2"/>
<circle clip-path="url(#clip422)" cx="2131.06" cy="253.002" r="14.4" fill="#009af9" fill-rule="evenodd" fill-opacity="1" stroke="#000000" stroke-opacity="1" stroke-width="3.2"/>
<circle clip-path="url(#clip422)" cx="2170.94" cy="239.84" r="14.4" fill="#009af9" fill-rule="evenodd" fill-opacity="1" stroke="#000000" stroke-opacity="1" stroke-width="3.2"/>
<circle clip-path="url(#clip422)" cx="2191.48" cy="228.136" r="14.4" fill="#009af9" fill-rule="evenodd" fill-opacity="1" stroke="#000000" stroke-opacity="1" stroke-width="3.2"/>
<circle clip-path="url(#clip422)" cx="2220.43" cy="217.684" r="14.4" fill="#009af9" fill-rule="evenodd" fill-opacity="1" stroke="#000000" stroke-opacity="1" stroke-width="3.2"/>
<circle clip-path="url(#clip422)" cx="2204.68" cy="211.936" r="14.4" fill="#009af9" fill-rule="evenodd" fill-opacity="1" stroke="#000000" stroke-opacity="1" stroke-width="3.2"/>
<circle clip-path="url(#clip422)" cx="2197" cy="208.313" r="14.4" fill="#009af9" fill-rule="evenodd" fill-opacity="1" stroke="#000000" stroke-opacity="1" stroke-width="3.2"/>
<circle clip-path="url(#clip422)" cx="2185.9" cy="199.884" r="14.4" fill="#009af9" fill-rule="evenodd" fill-opacity="1" stroke="#000000" stroke-opacity="1" stroke-width="3.2"/>
<circle clip-path="url(#clip422)" cx="2172.38" cy="192.279" r="14.4" fill="#009af9" fill-rule="evenodd" fill-opacity="1" stroke="#000000" stroke-opacity="1" stroke-width="3.2"/>
<circle clip-path="url(#clip422)" cx="2163.35" cy="185.399" r="14.4" fill="#009af9" fill-rule="evenodd" fill-opacity="1" stroke="#000000" stroke-opacity="1" stroke-width="3.2"/>
<circle clip-path="url(#clip422)" cx="2149.09" cy="179.157" r="14.4" fill="#009af9" fill-rule="evenodd" fill-opacity="1" stroke="#000000" stroke-opacity="1" stroke-width="3.2"/>
<circle clip-path="url(#clip422)" cx="2138.19" cy="176.028" r="14.4" fill="#009af9" fill-rule="evenodd" fill-opacity="1" stroke="#000000" stroke-opacity="1" stroke-width="3.2"/>
<circle clip-path="url(#clip422)" cx="2138.73" cy="173.481" r="14.4" fill="#009af9" fill-rule="evenodd" fill-opacity="1" stroke="#000000" stroke-opacity="1" stroke-width="3.2"/>
<circle clip-path="url(#clip422)" cx="2124.98" cy="168.306" r="14.4" fill="#009af9" fill-rule="evenodd" fill-opacity="1" stroke="#000000" stroke-opacity="1" stroke-width="3.2"/>
<circle clip-path="url(#clip422)" cx="2122.82" cy="163.577" r="14.4" fill="#009af9" fill-rule="evenodd" fill-opacity="1" stroke="#000000" stroke-opacity="1" stroke-width="3.2"/>
<circle clip-path="url(#clip422)" cx="2112.95" cy="159.246" r="14.4" fill="#009af9" fill-rule="evenodd" fill-opacity="1" stroke="#000000" stroke-opacity="1" stroke-width="3.2"/>
<circle clip-path="url(#clip422)" cx="2112.44" cy="155.27" r="14.4" fill="#009af9" fill-rule="evenodd" fill-opacity="1" stroke="#000000" stroke-opacity="1" stroke-width="3.2"/>
<circle clip-path="url(#clip422)" cx="2108.77" cy="151.613" r="14.4" fill="#009af9" fill-rule="evenodd" fill-opacity="1" stroke="#000000" stroke-opacity="1" stroke-width="3.2"/>
<circle clip-path="url(#clip422)" cx="2110.56" cy="147.679" r="14.4" fill="#009af9" fill-rule="evenodd" fill-opacity="1" stroke="#000000" stroke-opacity="1" stroke-width="3.2"/>
<circle clip-path="url(#clip422)" cx="2115.29" cy="126.814" r="14.4" fill="#009af9" fill-rule="evenodd" fill-opacity="1" stroke="#000000" stroke-opacity="1" stroke-width="3.2"/>
<circle clip-path="url(#clip422)" cx="2149.63" cy="112.182" r="14.4" fill="#009af9" fill-rule="evenodd" fill-opacity="1" stroke="#000000" stroke-opacity="1" stroke-width="3.2"/>
<circle clip-path="url(#clip422)" cx="2188.37" cy="102.152" r="14.4" fill="#009af9" fill-rule="evenodd" fill-opacity="1" stroke="#000000" stroke-opacity="1" stroke-width="3.2"/>
<circle clip-path="url(#clip422)" cx="2226.74" cy="95.2989" r="14.4" fill="#009af9" fill-rule="evenodd" fill-opacity="1" stroke="#000000" stroke-opacity="1" stroke-width="3.2"/>
<circle clip-path="url(#clip422)" cx="2249.89" cy="90.5823" r="14.4" fill="#009af9" fill-rule="evenodd" fill-opacity="1" stroke="#000000" stroke-opacity="1" stroke-width="3.2"/>
<circle clip-path="url(#clip422)" cx="2275.67" cy="87.2971" r="14.4" fill="#009af9" fill-rule="evenodd" fill-opacity="1" stroke="#000000" stroke-opacity="1" stroke-width="3.2"/>
<circle clip-path="url(#clip422)" cx="2293.63" cy="84.9802" r="14.4" fill="#009af9" fill-rule="evenodd" fill-opacity="1" stroke="#000000" stroke-opacity="1" stroke-width="3.2"/>
</svg>
