<?xml version="1.0" encoding="utf-8"?>
<svg xmlns="http://www.w3.org/2000/svg" xmlns:xlink="http://www.w3.org/1999/xlink" width="600" height="400" viewBox="0 0 2400 1600">
<defs>
  <clipPath id="clip380">
    <rect x="0" y="0" width="2400" height="1600"/>
  </clipPath>
</defs>
<path clip-path="url(#clip380)" d="M0 1600 L2400 1600 L2400 0 L0 0  Z" fill="#ffffff" fill-rule="evenodd" fill-opacity="1"/>
<defs>
  <clipPath id="clip381">
    <rect x="480" y="0" width="1681" height="1600"/>
  </clipPath>
</defs>
<path clip-path="url(#clip380)" d="M122.222 1380.58 L2352.76 1380.58 L2352.76 47.2441 L122.222 47.2441  Z" fill="#ffffff" fill-rule="evenodd" fill-opacity="1"/>
<defs>
  <clipPath id="clip382">
    <rect x="122" y="47" width="2232" height="1334"/>
  </clipPath>
</defs>
<polyline clip-path="url(#clip382)" style="stroke:#000000; stroke-linecap:round; stroke-linejoin:round; stroke-width:2; stroke-opacity:0.1; fill:none" points="426.764,1380.58 426.764,47.2441 "/>
<polyline clip-path="url(#clip382)" style="stroke:#000000; stroke-linecap:round; stroke-linejoin:round; stroke-width:2; stroke-opacity:0.1; fill:none" points="869.292,1380.58 869.292,47.2441 "/>
<polyline clip-path="url(#clip382)" style="stroke:#000000; stroke-linecap:round; stroke-linejoin:round; stroke-width:2; stroke-opacity:0.1; fill:none" points="1311.82,1380.58 1311.82,47.2441 "/>
<polyline clip-path="url(#clip382)" style="stroke:#000000; stroke-linecap:round; stroke-linejoin:round; stroke-width:2; stroke-opacity:0.1; fill:none" points="1754.35,1380.58 1754.35,47.2441 "/>
<polyline clip-path="url(#clip382)" style="stroke:#000000; stroke-linecap:round; stroke-linejoin:round; stroke-width:2; stroke-opacity:0.1; fill:none" points="2196.88,1380.58 2196.88,47.2441 "/>
<polyline clip-path="url(#clip382)" style="stroke:#000000; stroke-linecap:round; stroke-linejoin:round; stroke-width:2; stroke-opacity:0.1; fill:none" points="426.764,1380.58 426.764,47.2441 "/>
<polyline clip-path="url(#clip382)" style="stroke:#000000; stroke-linecap:round; stroke-linejoin:round; stroke-width:2; stroke-opacity:0.1; fill:none" points="869.292,1380.58 869.292,47.2441 "/>
<polyline clip-path="url(#clip382)" style="stroke:#000000; stroke-linecap:round; stroke-linejoin:round; stroke-width:2; stroke-opacity:0.1; fill:none" points="1311.82,1380.58 1311.82,47.2441 "/>
<polyline clip-path="url(#clip382)" style="stroke:#000000; stroke-linecap:round; stroke-linejoin:round; stroke-width:2; stroke-opacity:0.1; fill:none" points="1754.35,1380.58 1754.35,47.2441 "/>
<polyline clip-path="url(#clip382)" style="stroke:#000000; stroke-linecap:round; stroke-linejoin:round; stroke-width:2; stroke-opacity:0.1; fill:none" points="2196.88,1380.58 2196.88,47.2441 "/>
<polyline clip-path="url(#clip380)" style="stroke:#000000; stroke-linecap:round; stroke-linejoin:round; stroke-width:4; stroke-opacity:1; fill:none" points="122.222,1380.58 2352.76,1380.58 "/>
<polyline clip-path="url(#clip380)" style="stroke:#000000; stroke-linecap:round; stroke-linejoin:round; stroke-width:4; stroke-opacity:1; fill:none" points="122.222,47.2441 2352.76,47.2441 "/>
<polyline clip-path="url(#clip380)" style="stroke:#000000; stroke-linecap:round; stroke-linejoin:round; stroke-width:4; stroke-opacity:1; fill:none" points="426.764,1380.58 426.764,1361.69 "/>
<polyline clip-path="url(#clip380)" style="stroke:#000000; stroke-linecap:round; stroke-linejoin:round; stroke-width:4; stroke-opacity:1; fill:none" points="869.292,1380.58 869.292,1361.69 "/>
<polyline clip-path="url(#clip380)" style="stroke:#000000; stroke-linecap:round; stroke-linejoin:round; stroke-width:4; stroke-opacity:1; fill:none" points="1311.82,1380.58 1311.82,1361.69 "/>
<polyline clip-path="url(#clip380)" style="stroke:#000000; stroke-linecap:round; stroke-linejoin:round; stroke-width:4; stroke-opacity:1; fill:none" points="1754.35,1380.58 1754.35,1361.69 "/>
<polyline clip-path="url(#clip380)" style="stroke:#000000; stroke-linecap:round; stroke-linejoin:round; stroke-width:4; stroke-opacity:1; fill:none" points="2196.88,1380.58 2196.88,1361.69 "/>
<polyline clip-path="url(#clip380)" style="stroke:#000000; stroke-linecap:round; stroke-linejoin:round; stroke-width:4; stroke-opacity:1; fill:none" points="426.764,47.2441 426.764,66.1417 "/>
<polyline clip-path="url(#clip380)" style="stroke:#000000; stroke-linecap:round; stroke-linejoin:round; stroke-width:4; stroke-opacity:1; fill:none" points="869.292,47.2441 869.292,66.1417 "/>
<polyline clip-path="url(#clip380)" style="stroke:#000000; stroke-linecap:round; stroke-linejoin:round; stroke-width:4; stroke-opacity:1; fill:none" points="1311.82,47.2441 1311.82,66.1417 "/>
<polyline clip-path="url(#clip380)" style="stroke:#000000; stroke-linecap:round; stroke-linejoin:round; stroke-width:4; stroke-opacity:1; fill:none" points="1754.35,47.2441 1754.35,66.1417 "/>
<polyline clip-path="url(#clip380)" style="stroke:#000000; stroke-linecap:round; stroke-linejoin:round; stroke-width:4; stroke-opacity:1; fill:none" points="2196.88,47.2441 2196.88,66.1417 "/>
<path clip-path="url(#clip380)" d="M391.747 1454.71 L399.386 1454.71 L399.386 1428.34 L391.076 1430.01 L391.076 1425.75 L399.339 1424.08 L404.015 1424.08 L404.015 1454.71 L411.654 1454.71 L411.654 1458.64 L391.747 1458.64 L391.747 1454.71 Z" fill="#000000" fill-rule="nonzero" fill-opacity="1" /><path clip-path="url(#clip380)" d="M431.098 1427.16 Q427.487 1427.16 425.659 1430.73 Q423.853 1434.27 423.853 1441.4 Q423.853 1448.51 425.659 1452.07 Q427.487 1455.61 431.098 1455.61 Q434.733 1455.61 436.538 1452.07 Q438.367 1448.51 438.367 1441.4 Q438.367 1434.27 436.538 1430.73 Q434.733 1427.16 431.098 1427.16 M431.098 1423.46 Q436.909 1423.46 439.964 1428.07 Q443.043 1432.65 443.043 1441.4 Q443.043 1450.13 439.964 1454.73 Q436.909 1459.32 431.098 1459.32 Q425.288 1459.32 422.21 1454.73 Q419.154 1450.13 419.154 1441.4 Q419.154 1432.65 422.21 1428.07 Q425.288 1423.46 431.098 1423.46 Z" fill="#000000" fill-rule="nonzero" fill-opacity="1" /><path clip-path="url(#clip380)" d="M452.748 1405.66 Q449.814 1405.66 448.328 1408.55 Q446.861 1411.43 446.861 1417.22 Q446.861 1423 448.328 1425.89 Q449.814 1428.77 452.748 1428.77 Q455.7 1428.77 457.167 1425.89 Q458.653 1423 458.653 1417.22 Q458.653 1411.43 457.167 1408.55 Q455.7 1405.66 452.748 1405.66 M452.748 1402.65 Q457.468 1402.65 459.951 1406.39 Q462.452 1410.11 462.452 1417.22 Q462.452 1424.31 459.951 1428.06 Q457.468 1431.78 452.748 1431.78 Q448.027 1431.78 445.525 1428.06 Q443.043 1424.31 443.043 1417.22 Q443.043 1410.11 445.525 1406.39 Q448.027 1402.65 452.748 1402.65 Z" fill="#000000" fill-rule="nonzero" fill-opacity="1" /><path clip-path="url(#clip380)" d="M835.62 1454.71 L843.259 1454.71 L843.259 1428.34 L834.948 1430.01 L834.948 1425.75 L843.212 1424.08 L847.888 1424.08 L847.888 1454.71 L855.527 1454.71 L855.527 1458.64 L835.62 1458.64 L835.62 1454.71 Z" fill="#000000" fill-rule="nonzero" fill-opacity="1" /><path clip-path="url(#clip380)" d="M874.971 1427.16 Q871.36 1427.16 869.532 1430.73 Q867.726 1434.27 867.726 1441.4 Q867.726 1448.51 869.532 1452.07 Q871.36 1455.61 874.971 1455.61 Q878.606 1455.61 880.411 1452.07 Q882.24 1448.51 882.24 1441.4 Q882.24 1434.27 880.411 1430.73 Q878.606 1427.16 874.971 1427.16 M874.971 1423.46 Q880.782 1423.46 883.837 1428.07 Q886.916 1432.65 886.916 1441.4 Q886.916 1450.13 883.837 1454.73 Q880.782 1459.32 874.971 1459.32 Q869.161 1459.32 866.083 1454.73 Q863.027 1450.13 863.027 1441.4 Q863.027 1432.65 866.083 1428.07 Q869.161 1423.46 874.971 1423.46 Z" fill="#000000" fill-rule="nonzero" fill-opacity="1" /><path clip-path="url(#clip380)" d="M887.461 1428.04 L893.668 1428.04 L893.668 1406.62 L886.916 1407.97 L886.916 1404.51 L893.63 1403.15 L897.429 1403.15 L897.429 1428.04 L903.636 1428.04 L903.636 1431.23 L887.461 1431.23 L887.461 1428.04 Z" fill="#000000" fill-rule="nonzero" fill-opacity="1" /><path clip-path="url(#clip380)" d="M1277.59 1454.71 L1285.23 1454.71 L1285.23 1428.34 L1276.92 1430.01 L1276.92 1425.75 L1285.19 1424.08 L1289.86 1424.08 L1289.86 1454.71 L1297.5 1454.71 L1297.5 1458.64 L1277.59 1458.64 L1277.59 1454.71 Z" fill="#000000" fill-rule="nonzero" fill-opacity="1" /><path clip-path="url(#clip380)" d="M1316.94 1427.16 Q1313.33 1427.16 1311.5 1430.73 Q1309.7 1434.27 1309.7 1441.4 Q1309.7 1448.51 1311.5 1452.07 Q1313.33 1455.61 1316.94 1455.61 Q1320.58 1455.61 1322.38 1452.07 Q1324.21 1448.51 1324.21 1441.4 Q1324.21 1434.27 1322.38 1430.73 Q1320.58 1427.16 1316.94 1427.16 M1316.94 1423.46 Q1322.75 1423.46 1325.81 1428.07 Q1328.89 1432.65 1328.89 1441.4 Q1328.89 1450.13 1325.81 1454.73 Q1322.75 1459.32 1316.94 1459.32 Q1311.13 1459.32 1308.06 1454.73 Q1305 1450.13 1305 1441.4 Q1305 1432.65 1308.06 1428.07 Q1311.13 1423.46 1316.94 1423.46 Z" fill="#000000" fill-rule="nonzero" fill-opacity="1" /><path clip-path="url(#clip380)" d="M1333.46 1428.04 L1346.72 1428.04 L1346.72 1431.23 L1328.89 1431.23 L1328.89 1428.04 Q1331.05 1425.8 1334.78 1422.04 Q1338.52 1418.26 1339.48 1417.17 Q1341.3 1415.12 1342.02 1413.71 Q1342.75 1412.28 1342.75 1410.9 Q1342.75 1408.67 1341.17 1407.25 Q1339.61 1405.84 1337.09 1405.84 Q1335.3 1405.84 1333.31 1406.46 Q1331.33 1407.09 1329.08 1408.35 L1329.08 1404.51 Q1331.37 1403.59 1333.37 1403.12 Q1335.36 1402.65 1337.01 1402.65 Q1341.38 1402.65 1343.97 1404.83 Q1346.57 1407.01 1346.57 1410.66 Q1346.57 1412.39 1345.91 1413.95 Q1345.27 1415.49 1343.56 1417.6 Q1343.09 1418.14 1340.57 1420.76 Q1338.05 1423.35 1333.46 1428.04 Z" fill="#000000" fill-rule="nonzero" fill-opacity="1" /><path clip-path="url(#clip380)" d="M1719.79 1454.71 L1727.43 1454.71 L1727.43 1428.34 L1719.12 1430.01 L1719.12 1425.75 L1727.38 1424.08 L1732.06 1424.08 L1732.06 1454.71 L1739.7 1454.71 L1739.7 1458.64 L1719.79 1458.64 L1719.79 1454.71 Z" fill="#000000" fill-rule="nonzero" fill-opacity="1" /><path clip-path="url(#clip380)" d="M1759.14 1427.16 Q1755.53 1427.16 1753.7 1430.73 Q1751.9 1434.27 1751.9 1441.4 Q1751.9 1448.51 1753.7 1452.07 Q1755.53 1455.61 1759.14 1455.61 Q1762.78 1455.61 1764.58 1452.07 Q1766.41 1448.51 1766.41 1441.4 Q1766.41 1434.27 1764.58 1430.73 Q1762.78 1427.16 1759.14 1427.16 M1759.14 1423.46 Q1764.95 1423.46 1768.01 1428.07 Q1771.09 1432.65 1771.09 1441.4 Q1771.09 1450.13 1768.01 1454.73 Q1764.95 1459.32 1759.14 1459.32 Q1753.33 1459.32 1750.25 1454.73 Q1747.2 1450.13 1747.2 1441.4 Q1747.2 1432.65 1750.25 1428.07 Q1753.33 1423.46 1759.14 1423.46 Z" fill="#000000" fill-rule="nonzero" fill-opacity="1" /><path clip-path="url(#clip380)" d="M1783.78 1416.09 Q1786.51 1416.68 1788.03 1418.52 Q1789.58 1420.36 1789.58 1423.07 Q1789.58 1427.23 1786.72 1429.5 Q1783.86 1431.78 1778.59 1431.78 Q1776.82 1431.78 1774.94 1431.42 Q1773.08 1431.08 1771.09 1430.39 L1771.09 1426.72 Q1772.67 1427.64 1774.55 1428.11 Q1776.43 1428.58 1778.48 1428.58 Q1782.05 1428.58 1783.91 1427.17 Q1785.8 1425.76 1785.8 1423.07 Q1785.8 1420.59 1784.05 1419.2 Q1782.32 1417.79 1779.21 1417.79 L1775.94 1417.79 L1775.94 1414.66 L1779.36 1414.66 Q1782.17 1414.66 1783.65 1413.56 Q1785.14 1412.43 1785.14 1410.32 Q1785.14 1408.16 1783.6 1407.01 Q1782.07 1405.84 1779.21 1405.84 Q1777.65 1405.84 1775.87 1406.18 Q1774.08 1406.52 1771.93 1407.24 L1771.93 1403.85 Q1774.1 1403.25 1775.98 1402.95 Q1777.88 1402.65 1779.55 1402.65 Q1783.88 1402.65 1786.4 1404.62 Q1788.92 1406.58 1788.92 1409.93 Q1788.92 1412.26 1787.58 1413.88 Q1786.25 1415.47 1783.78 1416.09 Z" fill="#000000" fill-rule="nonzero" fill-opacity="1" /><path clip-path="url(#clip380)" d="M2161.33 1454.71 L2168.97 1454.71 L2168.97 1428.34 L2160.66 1430.01 L2160.66 1425.75 L2168.93 1424.08 L2173.6 1424.08 L2173.6 1454.71 L2181.24 1454.71 L2181.24 1458.64 L2161.33 1458.64 L2161.33 1454.71 Z" fill="#000000" fill-rule="nonzero" fill-opacity="1" /><path clip-path="url(#clip380)" d="M2200.68 1427.16 Q2197.07 1427.16 2195.24 1430.73 Q2193.44 1434.27 2193.44 1441.4 Q2193.44 1448.51 2195.24 1452.07 Q2197.07 1455.61 2200.68 1455.61 Q2204.32 1455.61 2206.12 1452.07 Q2207.95 1448.51 2207.95 1441.4 Q2207.95 1434.27 2206.12 1430.73 Q2204.32 1427.16 2200.68 1427.16 M2200.68 1423.46 Q2206.49 1423.46 2209.55 1428.07 Q2212.63 1432.65 2212.63 1441.4 Q2212.63 1450.13 2209.55 1454.73 Q2206.49 1459.32 2200.68 1459.32 Q2194.87 1459.32 2191.8 1454.73 Q2188.74 1450.13 2188.74 1441.4 Q2188.74 1432.65 2191.8 1428.07 Q2194.87 1423.46 2200.68 1423.46 Z" fill="#000000" fill-rule="nonzero" fill-opacity="1" /><path clip-path="url(#clip380)" d="M2225.31 1406.46 L2215.71 1421.45 L2225.31 1421.45 L2225.31 1406.46 M2224.31 1403.15 L2229.09 1403.15 L2229.09 1421.45 L2233.09 1421.45 L2233.09 1424.61 L2229.09 1424.61 L2229.09 1431.23 L2225.31 1431.23 L2225.31 1424.61 L2212.63 1424.61 L2212.63 1420.95 L2224.31 1403.15 Z" fill="#000000" fill-rule="nonzero" fill-opacity="1" /><path clip-path="url(#clip380)" d="M1143.8 1571.84 L1143.8 1509.94 Q1143.8 1507.98 1145.12 1507.98 Q1146.44 1507.98 1146.44 1510.04 L1146.44 1571.68 Q1146.44 1573.81 1145.12 1573.81 Q1143.8 1573.81 1143.8 1571.84 M1151.07 1571.84 L1151.07 1510.42 Q1151.07 1507.98 1152.39 1507.98 Q1153.71 1507.98 1153.71 1510.04 L1153.71 1571.68 Q1153.71 1573.81 1152.39 1573.81 Q1151.07 1573.81 1151.07 1571.84 Z" fill="#000000" fill-rule="nonzero" fill-opacity="1" /><path clip-path="url(#clip380)" d="M1221.71 1556.06 Q1221.71 1556.67 1221.45 1556.99 Q1221.23 1557.28 1221 1557.35 Q1220.81 1557.38 1220.52 1557.38 Q1219.68 1557.38 1216.78 1557.28 Q1213.88 1557.19 1213.05 1557.19 Q1211.69 1557.19 1208.92 1557.28 Q1206.15 1557.38 1204.8 1557.38 Q1203.9 1557.38 1203.9 1556.64 Q1203.9 1556.16 1204 1555.9 Q1204.09 1555.61 1204.35 1555.51 Q1204.64 1555.38 1204.8 1555.38 Q1204.99 1555.35 1205.48 1555.35 Q1206.12 1555.35 1206.8 1555.29 Q1207.47 1555.19 1208.31 1555 Q1209.15 1554.8 1209.66 1554.32 Q1210.21 1553.84 1210.21 1553.16 Q1210.21 1552.87 1209.99 1550.49 Q1209.76 1548.11 1209.47 1545.34 Q1209.18 1542.53 1209.15 1542.15 L1192.59 1542.15 Q1191.08 1544.76 1190.02 1546.56 Q1188.96 1548.36 1188.57 1548.97 Q1188.18 1549.59 1187.96 1549.97 Q1187.73 1550.36 1187.6 1550.58 Q1186.67 1552.29 1186.67 1553.03 Q1186.67 1555.09 1189.76 1555.35 Q1190.82 1555.35 1190.82 1556.12 Q1190.82 1556.7 1190.57 1557.03 Q1190.31 1557.32 1190.08 1557.35 Q1189.89 1557.38 1189.57 1557.38 Q1188.5 1557.38 1186.28 1557.28 Q1184.06 1557.19 1182.96 1557.19 Q1182.03 1557.19 1180.1 1557.28 Q1178.17 1557.38 1177.3 1557.38 Q1176.91 1557.38 1176.68 1557.15 Q1176.46 1556.93 1176.46 1556.64 Q1176.46 1556.19 1176.52 1555.93 Q1176.62 1555.67 1176.88 1555.54 Q1177.14 1555.42 1177.26 1555.42 Q1177.39 1555.38 1177.84 1555.35 Q1180.29 1555.19 1182.19 1554.03 Q1184.12 1552.84 1185.96 1549.78 L1208.89 1511.26 Q1209.12 1510.88 1209.28 1510.68 Q1209.44 1510.49 1209.76 1510.33 Q1210.11 1510.17 1210.63 1510.17 Q1211.43 1510.17 1211.6 1510.42 Q1211.76 1510.65 1211.85 1511.74 L1215.88 1552.97 Q1215.98 1553.84 1216.04 1554.19 Q1216.14 1554.51 1216.56 1554.87 Q1217.01 1555.19 1217.81 1555.29 Q1218.65 1555.35 1220.19 1555.35 Q1220.77 1555.35 1221 1555.38 Q1221.23 1555.38 1221.45 1555.54 Q1221.71 1555.71 1221.71 1556.06 M1208.96 1540.09 L1206.86 1518.35 L1193.85 1540.09 L1208.96 1540.09 Z" fill="#000000" fill-rule="nonzero" fill-opacity="1" /><path clip-path="url(#clip380)" d="M1228.31 1497.93 Q1228.31 1490.13 1231.22 1483.84 Q1232.46 1481.2 1234.2 1479 Q1235.93 1476.79 1237.08 1475.82 Q1238.23 1474.85 1238.55 1474.85 Q1239 1474.85 1239.02 1475.3 Q1239.02 1475.52 1238.41 1476.09 Q1230.97 1483.66 1230.99 1497.93 Q1230.99 1512.25 1238.23 1519.53 Q1239.02 1520.32 1239.02 1520.57 Q1239.02 1521.02 1238.55 1521.02 Q1238.23 1521.02 1237.13 1520.09 Q1236.02 1519.17 1234.31 1517.05 Q1232.6 1514.93 1231.36 1512.34 Q1228.31 1506.05 1228.31 1497.93 Z" fill="#000000" fill-rule="nonzero" fill-opacity="1" /><path clip-path="url(#clip380)" d="M1243.45 1509.48 Q1243.45 1508.64 1243.52 1508.39 Q1243.61 1508.14 1243.97 1507.76 L1252.83 1497.89 Q1257.68 1492.43 1257.68 1487.67 Q1257.68 1484.59 1256.06 1482.38 Q1254.46 1480.17 1251.5 1480.17 Q1249.47 1480.17 1247.76 1481.41 Q1246.05 1482.65 1245.26 1484.86 Q1245.39 1484.81 1245.87 1484.81 Q1247.02 1484.81 1247.65 1485.53 Q1248.3 1486.25 1248.3 1487.22 Q1248.3 1488.46 1247.49 1489.07 Q1246.7 1489.66 1245.91 1489.66 Q1245.6 1489.66 1245.17 1489.59 Q1244.76 1489.52 1244.11 1488.89 Q1243.45 1488.24 1243.45 1487.09 Q1243.45 1483.86 1245.89 1481.29 Q1248.35 1478.72 1252.09 1478.72 Q1256.33 1478.72 1259.1 1481.25 Q1261.89 1483.75 1261.89 1487.67 Q1261.89 1489.05 1261.47 1490.31 Q1261.06 1491.55 1260.5 1492.52 Q1259.96 1493.49 1258.47 1495.05 Q1256.98 1496.6 1255.79 1497.71 Q1254.59 1498.81 1251.91 1501.16 L1247.02 1505.91 L1255.33 1505.91 Q1259.39 1505.91 1259.71 1505.55 Q1260.16 1504.9 1260.72 1501.45 L1261.89 1501.45 L1260.59 1509.48 L1243.45 1509.48 Z" fill="#000000" fill-rule="nonzero" fill-opacity="1" /><path clip-path="url(#clip380)" d="M1267.43 1520.57 Q1267.43 1520.34 1268.01 1519.78 Q1275.45 1512.2 1275.45 1497.93 Q1275.45 1483.62 1268.31 1476.38 Q1267.43 1475.55 1267.43 1475.3 Q1267.43 1474.85 1267.88 1474.85 Q1268.19 1474.85 1269.3 1475.77 Q1270.43 1476.7 1272.12 1478.82 Q1273.83 1480.93 1275.09 1483.53 Q1278.14 1489.82 1278.14 1497.93 Q1278.14 1505.73 1275.23 1512.02 Q1273.99 1514.66 1272.25 1516.87 Q1270.52 1519.08 1269.37 1520.05 Q1268.22 1521.02 1267.88 1521.02 Q1267.43 1521.02 1267.43 1520.57 Z" fill="#000000" fill-rule="nonzero" fill-opacity="1" /><path clip-path="url(#clip380)" d="M1292.2 1571.84 L1292.2 1509.94 Q1292.2 1507.98 1293.52 1507.98 Q1294.84 1507.98 1294.84 1510.04 L1294.84 1571.68 Q1294.84 1573.81 1293.52 1573.81 Q1292.2 1573.81 1292.2 1571.84 M1299.48 1571.84 L1299.48 1510.42 Q1299.48 1507.98 1300.8 1507.98 Q1302.12 1507.98 1302.12 1510.04 L1302.12 1571.68 Q1302.12 1573.81 1300.8 1573.81 Q1299.48 1573.81 1299.48 1571.84 Z" fill="#000000" fill-rule="nonzero" fill-opacity="1" /><path clip-path="url(#clip380)" d="M1309.05 1565.57 L1309.05 1564.13 Q1314.59 1564.13 1317.46 1561.17 Q1318.25 1561.17 1318.38 1561.35 Q1318.52 1561.53 1318.52 1562.37 L1318.52 1588.27 Q1318.52 1589.65 1319.19 1590.07 Q1319.87 1590.5 1322.82 1590.5 L1324.29 1590.5 L1324.29 1591.92 Q1322.67 1591.79 1316.8 1591.79 Q1310.94 1591.79 1309.34 1591.92 L1309.34 1590.5 L1310.81 1590.5 Q1313.72 1590.5 1314.41 1590.1 Q1315.11 1589.67 1315.11 1588.27 L1315.11 1564.35 Q1312.7 1565.57 1309.05 1565.57 Z" fill="#000000" fill-rule="nonzero" fill-opacity="1" /><polyline clip-path="url(#clip380)" style="stroke:#000000; stroke-linecap:round; stroke-linejoin:round; stroke-width:4; stroke-opacity:1; fill:none" points="122.222,1380.58 122.222,47.2441 "/>
<polyline clip-path="url(#clip380)" style="stroke:#000000; stroke-linecap:round; stroke-linejoin:round; stroke-width:4; stroke-opacity:1; fill:none" points="2352.76,1380.58 2352.76,47.2441 "/>
<path clip-path="url(#clip380)" d="M2.87309 1124.7 L0.811919 1124.7 Q0.811919 1116.78 -3.40705 1112.69 Q-3.40705 1111.56 -3.1494 1111.37 Q-2.89176 1111.18 -1.70014 1111.18 L35.3044 1111.18 Q37.269 1111.18 37.8809 1110.21 Q38.4928 1109.25 38.4928 1105.03 L38.4928 1102.93 L40.5217 1102.93 Q40.3285 1105.25 40.3285 1113.63 Q40.3285 1122 40.5217 1124.29 L38.4928 1124.29 L38.4928 1122.19 Q38.4928 1118.04 37.9131 1117.04 Q37.3012 1116.04 35.3044 1116.04 L1.13398 1116.04 Q2.87309 1119.49 2.87309 1124.7 Z" fill="#000000" fill-rule="nonzero" fill-opacity="1" /><path clip-path="url(#clip380)" d="M23.0984 1030.2 Q23.4848 1029.81 24.0323 1029.81 Q24.5798 1029.81 24.9663 1030.2 Q25.3528 1030.58 25.3528 1031.13 L25.3528 1072.42 Q25.3528 1072.96 24.9663 1073.35 Q24.5798 1073.74 24.0323 1073.74 Q23.4848 1073.74 23.0984 1073.35 Q22.7119 1072.96 22.7119 1072.42 L22.7119 1031.13 Q22.7119 1030.58 23.0984 1030.2 Z" fill="#000000" fill-rule="nonzero" fill-opacity="1" /><path clip-path="url(#clip380)" d="M54.9822 1004.62 L-6.4344 1004.62 Q-8.88205 1004.62 -8.88205 1003.3 Q-8.88205 1001.98 -6.91749 1001.98 L54.4991 1001.98 Q56.9467 1001.98 56.9467 1003.3 Q56.9467 1004.62 54.9822 1004.62 Z" fill="#000000" fill-rule="nonzero" fill-opacity="1" /><path clip-path="url(#clip380)" d="M55.6907 962.484 Q56.2382 962.484 56.6247 962.87 Q57.0111 963.257 57.0111 963.804 Q57.0111 964.738 56.1416 965.06 L24.4832 977.331 Q24.3544 977.395 24.0323 977.395 Q23.7103 977.395 23.5815 977.331 L-8.0769 965.06 Q-8.94646 964.738 -8.94646 963.804 Q-8.94646 963.257 -8.55999 962.87 Q-8.17352 962.484 -7.62602 962.484 Q-7.30396 962.484 -7.17513 962.548 L24.0323 974.69 L55.2398 962.548 Q55.3686 962.484 55.6907 962.484 Z" fill="#000000" fill-rule="nonzero" fill-opacity="1" /><path clip-path="url(#clip380)" d="M-2.53749 904.178 L8.86338 905.499 Q9.89397 905.595 10.216 905.756 Q10.5059 905.917 10.5059 906.433 Q10.5059 906.819 10.2804 907.045 Q10.0228 907.238 9.73294 907.238 Q9.57191 907.238 9.15324 907.206 Q8.73456 907.174 8.54133 907.174 Q6.54456 906.884 5.03089 906.884 Q2.22898 906.884 0.715301 907.721 Q-0.83058 908.558 -1.53911 910.716 Q-2.27984 912.874 -2.27984 916.932 L-2.27984 926.207 Q-2.27984 928.333 -1.89337 928.848 Q-1.5069 929.331 0.296625 929.782 L16.1741 933.743 L16.1741 927.528 Q16.1741 925.209 15.8843 923.824 Q15.5944 922.407 14.7893 921.473 Q13.9519 920.507 12.8247 919.991 Q11.6975 919.444 9.66853 918.896 Q8.99221 918.735 8.73456 918.574 Q8.47691 918.381 8.47691 917.962 Q8.47691 917.64 8.70235 917.415 Q8.89559 917.19 9.18544 917.19 L24.6121 920.958 Q25.385 921.151 25.6748 921.344 Q25.9325 921.537 25.9325 921.924 Q25.9325 922.342 25.707 922.568 Q25.4816 922.793 25.224 922.793 Q24.9663 922.793 24.4832 922.6 Q22.3898 922.117 21.2626 922.117 Q20.6185 922.117 20.2965 922.181 Q19.9744 922.214 19.5235 922.504 Q19.0404 922.761 18.815 923.341 Q18.5896 923.921 18.4285 925.016 Q18.2353 926.111 18.2353 927.753 L18.2353 934.259 L36.2384 938.767 Q37.43 939.09 37.752 939.09 Q38.1063 939.09 38.2351 938.929 Q38.3317 938.735 38.3962 938.22 Q38.4928 937.64 38.4928 936.771 L38.4928 927.141 Q38.4928 925.016 38.2995 923.309 Q38.1063 921.602 37.6232 920.185 Q37.1401 918.735 36.5926 917.64 Q36.0451 916.545 35.0467 915.515 Q34.0162 914.484 33.1144 913.776 Q32.1804 913.035 30.6023 912.165 Q29.0243 911.296 27.736 910.684 Q26.4156 910.072 24.29 909.138 Q23.5171 908.88 23.5171 908.269 Q23.5171 907.914 23.7103 907.721 Q23.8713 907.528 24.0323 907.496 L24.2256 907.496 Q24.8375 907.689 25.1595 907.818 L39.3945 913.872 Q40.1997 914.227 40.3607 914.516 Q40.5217 914.806 40.5217 915.934 L40.5217 950.168 Q40.5217 950.941 40.4895 951.263 Q40.4573 951.553 40.2963 951.779 Q40.1031 952.004 39.7166 952.004 Q39.1047 952.004 38.847 951.746 Q38.5572 951.489 38.525 951.199 Q38.4928 950.909 38.4928 950.168 Q38.4928 948.558 38.3962 947.592 Q38.2995 946.626 38.1707 946.014 Q38.0097 945.37 37.5588 945.048 Q37.1079 944.693 36.7215 944.532 Q36.3028 944.371 35.3688 944.146 L0.48986 935.45 Q-0.701757 935.128 -1.08823 935.128 Q-1.5069 935.128 -1.76455 935.418 Q-2.0222 935.676 -2.11881 936.384 Q-2.24764 937.093 -2.24764 937.672 Q-2.27984 938.22 -2.27984 939.412 Q-2.27984 940.185 -2.31205 940.507 Q-2.34426 940.796 -2.50528 941.022 Q-2.66631 941.247 -3.02058 941.247 Q-3.92234 941.247 -4.11558 940.861 Q-4.34102 940.442 -4.34102 939.283 L-4.34102 905.982 Q-4.34102 904.661 -4.05117 904.372 Q-3.79352 904.05 -2.53749 904.178 Z" fill="#000000" fill-rule="nonzero" fill-opacity="1" /><path clip-path="url(#clip380)" d="M58.7983 897.48 Q57.9642 897.48 57.7162 897.412 Q57.4682 897.322 57.085 896.961 L47.2106 888.101 Q41.755 883.254 36.9982 883.254 Q33.9096 883.254 31.7003 884.878 Q29.491 886.478 29.491 889.431 Q29.491 891.46 30.7309 893.174 Q31.9708 894.887 34.1801 895.676 Q34.1351 895.541 34.1351 895.067 Q34.1351 893.918 34.8565 893.287 Q35.5779 892.633 36.5473 892.633 Q37.7872 892.633 38.3959 893.444 Q38.982 894.233 38.982 895.022 Q38.982 895.338 38.9144 895.766 Q38.8468 896.172 38.2155 896.826 Q37.5618 897.48 36.412 897.48 Q33.1882 897.48 30.6182 895.045 Q28.0482 892.588 28.0482 888.845 Q28.0482 884.607 30.5731 881.834 Q33.0755 879.039 36.9982 879.039 Q38.3734 879.039 39.6358 879.467 Q40.8757 879.873 41.8451 880.436 Q42.8145 880.977 44.3701 882.465 Q45.9256 883.953 47.0303 885.148 Q48.1349 886.343 50.4795 889.026 L55.2363 893.918 L55.2363 885.599 Q55.2363 881.541 54.8756 881.225 Q54.2219 880.775 50.7726 880.211 L50.7726 879.039 L58.7983 880.346 L58.7983 897.48 Z" fill="#000000" fill-rule="nonzero" fill-opacity="1" /><path clip-path="url(#clip380)" d="M24.0323 867.575 Q12.8891 867.575 3.90368 863.42 Q0.135596 861.649 -3.02058 859.169 Q-6.17675 856.689 -7.56161 855.047 Q-8.94646 853.404 -8.94646 852.953 Q-8.94646 852.309 -8.30234 852.277 Q-7.98028 852.277 -7.17513 853.147 Q3.64603 863.775 24.0323 863.742 Q44.4831 863.742 54.8856 853.404 Q56.0128 852.277 56.367 852.277 Q57.0111 852.277 57.0111 852.953 Q57.0111 853.404 55.6907 854.982 Q54.3703 856.56 51.3429 859.008 Q48.3156 861.456 44.6119 863.227 Q35.6265 867.575 24.0323 867.575 Z" fill="#000000" fill-rule="nonzero" fill-opacity="1" /><path clip-path="url(#clip380)" d="M-3.79352 799.187 Q-2.47308 799.187 -2.47308 800.282 Q-2.40867 802.215 -2.0222 803.535 Q-1.66793 804.856 -0.959404 805.629 Q-0.250875 806.369 0.522066 806.788 Q1.2628 807.174 2.39001 807.432 L25.8037 813.294 Q32.4059 814.968 37.2045 820.379 Q41.971 825.789 41.971 831.941 Q41.971 835.451 40.5217 838.382 Q39.0725 841.28 36.1417 843.084 Q33.211 844.887 29.3141 844.887 Q27.4462 844.887 25.4816 844.404 L9.18544 840.411 L3.38839 838.929 Q-0.894992 837.834 -1.28146 837.834 Q-1.89337 837.834 -2.0544 838.221 Q-2.24764 838.575 -2.34426 839.606 L-2.47308 842.118 Q-2.47308 842.891 -2.50528 843.213 Q-2.53749 843.503 -2.69852 843.728 Q-2.85955 843.953 -3.21381 843.953 Q-3.6647 843.953 -3.95455 843.857 Q-4.27661 843.728 -4.37322 843.503 Q-4.46984 843.277 -4.50205 843.116 Q-4.53425 842.955 -4.53425 842.697 L-4.34102 834.195 L-4.53425 825.757 Q-4.53425 824.823 -3.79352 824.823 Q-2.85955 824.823 -2.66631 825.242 Q-2.47308 825.661 -2.47308 827.078 Q-2.47308 829.493 -2.15102 830.588 Q-1.86117 831.651 -1.34587 831.973 Q-0.862786 832.263 0.554272 832.617 L26.2223 839.026 Q27.5106 839.348 28.7988 839.541 Q30.0548 839.702 30.699 839.702 L31.3431 839.735 Q35.4332 839.735 37.6876 837.48 Q39.942 835.193 39.942 831.683 Q39.942 826.53 35.8519 821.731 Q31.7618 816.901 25.3528 815.258 L1.8103 809.332 Q1.23059 809.139 0.425448 809.139 Q-0.862786 809.139 -1.63573 810.105 Q-2.44087 811.039 -2.47308 813.616 Q-2.47308 814.807 -3.21381 814.807 Q-3.82573 814.807 -4.11558 814.582 Q-4.43764 814.324 -4.46984 814.131 Q-4.53425 813.905 -4.53425 813.616 Q-4.53425 812.521 -4.43764 810.202 Q-4.34102 807.883 -4.34102 806.756 Q-4.34102 805.629 -4.43764 803.374 Q-4.53425 801.12 -4.53425 800.025 Q-4.53425 799.638 -4.34102 799.445 Q-4.17999 799.22 -3.98675 799.187 L-3.79352 799.187 Z" fill="#000000" fill-rule="nonzero" fill-opacity="1" /><path clip-path="url(#clip380)" d="M56.367 794.221 Q56.045 794.221 55.2398 793.384 Q44.4187 782.756 24.0323 782.756 Q3.58162 782.756 -6.75646 792.965 Q-7.94808 794.221 -8.30234 794.221 Q-8.94646 794.221 -8.94646 793.577 Q-8.94646 793.126 -7.62602 791.548 Q-6.30558 789.938 -3.27823 787.523 Q-0.250875 785.075 3.4528 783.271 Q12.4382 778.924 24.0323 778.924 Q35.1756 778.924 44.161 783.078 Q47.9291 784.849 51.0853 787.329 Q54.2414 789.809 55.6263 791.452 Q57.0111 793.094 57.0111 793.577 Q57.0111 794.221 56.367 794.221 Z" fill="#000000" fill-rule="nonzero" fill-opacity="1" /><path clip-path="url(#clip380)" d="M54.9822 765.198 L-6.4344 765.198 Q-8.88205 765.198 -8.88205 763.878 Q-8.88205 762.557 -6.91749 762.557 L54.4991 762.557 Q56.9467 762.557 56.9467 763.878 Q56.9467 765.198 54.9822 765.198 Z" fill="#000000" fill-rule="nonzero" fill-opacity="1" /><path clip-path="url(#clip380)" d="M-4.85631 694.237 Q-4.11558 695.783 -3.40705 696.685 Q-2.34426 698.166 -0.315286 699.519 Q1.55265 700.839 4.38677 702.16 Q13.1146 706.024 24.5476 708.826 Q29.2819 710.018 32.277 710.082 Q35.401 710.082 36.6892 709.084 Q37.43 708.633 37.43 707.506 Q37.43 706.218 36.496 705.058 Q35.5298 703.802 33.0822 701.902 L33.984 700.775 Q37.3012 703.158 38.8792 705.123 Q41.1015 707.989 41.1015 710.726 Q41.1015 712.82 39.8776 713.625 Q37.8809 715.203 33.4687 715.074 L36.174 718.327 Q41.5845 725.155 41.5845 731.306 Q41.5845 734.881 38.7504 736.974 Q37.8165 737.715 35.6909 737.844 Q33.7263 737.844 30.9566 737.167 Q25.9969 735.911 18.5573 732.562 Q10.5059 728.923 5.70721 727.763 Q4.22574 727.409 3.38839 727.28 Q2.55104 727.119 1.45604 727.28 Q0.361037 727.409 -0.44411 728.021 Q-0.862786 728.246 -1.15264 728.858 Q-1.44249 729.438 -1.44249 730.05 Q-1.44249 731.081 -0.508522 732.433 Q1.2628 734.527 3.96809 735.203 Q4.96647 735.461 8.12265 735.944 L8.73456 737.973 Q5.70721 737.586 3.58162 737.103 Q-0.605139 736.072 -3.21381 732.82 Q-5.11396 730.469 -5.11396 727.28 Q-5.11396 724.285 -3.53587 723.126 Q-2.63411 722.417 -0.250875 722.288 Q2.16456 722.288 4.77324 722.932 Q9.76515 724.221 18.4285 728.15 Q24.7731 731.081 27.9937 731.853 Q30.9888 732.594 33.5331 732.498 Q35.6587 732.498 37.1079 731.564 Q38.7504 730.308 38.7504 727.828 Q38.7504 724.092 34.7247 719.1 Q32.2126 716.073 30.8922 714.688 Q19.9422 712.015 -1.08823 704.543 Q-3.98675 699.487 -5.59705 695.171 L-4.85631 694.237 Z" fill="#000000" fill-rule="nonzero" fill-opacity="1" /><path clip-path="url(#clip380)" d="M54.9822 689.391 L-6.4344 689.391 Q-8.88205 689.391 -8.88205 688.071 Q-8.88205 686.75 -6.91749 686.75 L54.4991 686.75 Q56.9467 686.75 56.9467 688.071 Q56.9467 689.391 54.9822 689.391 Z" fill="#000000" fill-rule="nonzero" fill-opacity="1" /><path clip-path="url(#clip380)" d="M-2.53749 614.34 L8.86338 615.661 Q9.89397 615.757 10.216 615.918 Q10.5059 616.079 10.5059 616.595 Q10.5059 616.981 10.2804 617.206 Q10.0228 617.4 9.73294 617.4 Q9.57191 617.4 9.15324 617.367 Q8.73456 617.335 8.54133 617.335 Q6.54456 617.045 5.03089 617.045 Q2.22898 617.045 0.715301 617.883 Q-0.83058 618.72 -1.53911 620.878 Q-2.27984 623.036 -2.27984 627.094 L-2.27984 636.369 Q-2.27984 638.495 -1.89337 639.01 Q-1.5069 639.493 0.296625 639.944 L16.1741 643.905 L16.1741 637.689 Q16.1741 635.371 15.8843 633.986 Q15.5944 632.569 14.7893 631.635 Q13.9519 630.668 12.8247 630.153 Q11.6975 629.606 9.66853 629.058 Q8.99221 628.897 8.73456 628.736 Q8.47691 628.543 8.47691 628.124 Q8.47691 627.802 8.70235 627.577 Q8.89559 627.351 9.18544 627.351 L24.6121 631.119 Q25.385 631.313 25.6748 631.506 Q25.9325 631.699 25.9325 632.086 Q25.9325 632.504 25.707 632.73 Q25.4816 632.955 25.224 632.955 Q24.9663 632.955 24.4832 632.762 Q22.3898 632.279 21.2626 632.279 Q20.6185 632.279 20.2965 632.343 Q19.9744 632.375 19.5235 632.665 Q19.0404 632.923 18.815 633.503 Q18.5896 634.082 18.4285 635.177 Q18.2353 636.272 18.2353 637.915 L18.2353 644.42 L36.2384 648.929 Q37.43 649.251 37.752 649.251 Q38.1063 649.251 38.2351 649.09 Q38.3317 648.897 38.3962 648.382 Q38.4928 647.802 38.4928 646.932 L38.4928 637.303 Q38.4928 635.177 38.2995 633.47 Q38.1063 631.763 37.6232 630.346 Q37.1401 628.897 36.5926 627.802 Q36.0451 626.707 35.0467 625.677 Q34.0162 624.646 33.1144 623.937 Q32.1804 623.197 30.6023 622.327 Q29.0243 621.458 27.736 620.846 Q26.4156 620.234 24.29 619.3 Q23.5171 619.042 23.5171 618.43 Q23.5171 618.076 23.7103 617.883 Q23.8713 617.69 24.0323 617.657 L24.2256 617.657 Q24.8375 617.851 25.1595 617.979 L39.3945 624.034 Q40.1997 624.388 40.3607 624.678 Q40.5217 624.968 40.5217 626.095 L40.5217 660.33 Q40.5217 661.103 40.4895 661.425 Q40.4573 661.715 40.2963 661.94 Q40.1031 662.166 39.7166 662.166 Q39.1047 662.166 38.847 661.908 Q38.5572 661.651 38.525 661.361 Q38.4928 661.071 38.4928 660.33 Q38.4928 658.72 38.3962 657.754 Q38.2995 656.787 38.1707 656.176 Q38.0097 655.531 37.5588 655.209 Q37.1079 654.855 36.7215 654.694 Q36.3028 654.533 35.3688 654.308 L0.48986 645.612 Q-0.701757 645.29 -1.08823 645.29 Q-1.5069 645.29 -1.76455 645.58 Q-2.0222 645.837 -2.11881 646.546 Q-2.24764 647.255 -2.24764 647.834 Q-2.27984 648.382 -2.27984 649.573 Q-2.27984 650.346 -2.31205 650.668 Q-2.34426 650.958 -2.50528 651.184 Q-2.66631 651.409 -3.02058 651.409 Q-3.92234 651.409 -4.11558 651.023 Q-4.34102 650.604 -4.34102 649.445 L-4.34102 616.144 Q-4.34102 614.823 -4.05117 614.533 Q-3.79352 614.211 -2.53749 614.34 Z" fill="#000000" fill-rule="nonzero" fill-opacity="1" /><path clip-path="url(#clip380)" d="M51.4868 607.641 L50.0666 607.641 L28.4017 593.461 Q27.8381 593.101 27.8606 592.537 Q27.8606 592.018 28.0635 591.906 Q28.2664 591.793 29.0555 591.793 L50.0666 591.793 L50.0666 587.171 L51.4868 587.171 L51.4868 591.793 L55.4997 591.793 Q56.8298 591.793 57.2581 591.252 Q57.6865 590.688 57.6865 588.299 L57.6865 587.329 L59.1067 587.329 Q58.9715 589.223 58.9715 593.596 Q58.9715 597.947 59.1067 599.841 L57.6865 599.841 L57.6865 598.872 Q57.6865 596.482 57.2807 595.919 Q56.8523 595.355 55.4997 595.355 L51.4868 595.355 L51.4868 607.641 M50.0666 606.334 L50.0666 595.084 L32.8429 595.084 L50.0666 606.334 Z" fill="#000000" fill-rule="nonzero" fill-opacity="1" /><path clip-path="url(#clip380)" d="M24.0323 577.737 Q12.8891 577.737 3.90368 573.582 Q0.135596 571.811 -3.02058 569.331 Q-6.17675 566.851 -7.56161 565.209 Q-8.94646 563.566 -8.94646 563.115 Q-8.94646 562.471 -8.30234 562.439 Q-7.98028 562.439 -7.17513 563.308 Q3.64603 573.936 24.0323 573.904 Q44.4831 573.904 54.8856 563.566 Q56.0128 562.439 56.367 562.439 Q57.0111 562.439 57.0111 563.115 Q57.0111 563.566 55.6907 565.144 Q54.3703 566.722 51.3429 569.17 Q48.3156 571.617 44.6119 573.389 Q35.6265 577.737 24.0323 577.737 Z" fill="#000000" fill-rule="nonzero" fill-opacity="1" /><path clip-path="url(#clip380)" d="M-3.79352 509.349 Q-2.47308 509.349 -2.47308 510.444 Q-2.40867 512.376 -2.0222 513.697 Q-1.66793 515.017 -0.959404 515.79 Q-0.250875 516.531 0.522066 516.95 Q1.2628 517.336 2.39001 517.594 L25.8037 523.455 Q32.4059 525.13 37.2045 530.541 Q41.971 535.951 41.971 542.102 Q41.971 545.613 40.5217 548.544 Q39.0725 551.442 36.1417 553.246 Q33.211 555.049 29.3141 555.049 Q27.4462 555.049 25.4816 554.566 L9.18544 550.573 L3.38839 549.091 Q-0.894992 547.996 -1.28146 547.996 Q-1.89337 547.996 -2.0544 548.383 Q-2.24764 548.737 -2.34426 549.767 L-2.47308 552.279 Q-2.47308 553.052 -2.50528 553.374 Q-2.53749 553.664 -2.69852 553.89 Q-2.85955 554.115 -3.21381 554.115 Q-3.6647 554.115 -3.95455 554.019 Q-4.27661 553.89 -4.37322 553.664 Q-4.46984 553.439 -4.50205 553.278 Q-4.53425 553.117 -4.53425 552.859 L-4.34102 544.357 L-4.53425 535.919 Q-4.53425 534.985 -3.79352 534.985 Q-2.85955 534.985 -2.66631 535.404 Q-2.47308 535.822 -2.47308 537.239 Q-2.47308 539.655 -2.15102 540.75 Q-1.86117 541.813 -1.34587 542.135 Q-0.862786 542.425 0.554272 542.779 L26.2223 549.188 Q27.5106 549.51 28.7988 549.703 Q30.0548 549.864 30.699 549.864 L31.3431 549.896 Q35.4332 549.896 37.6876 547.642 Q39.942 545.355 39.942 541.845 Q39.942 536.692 35.8519 531.893 Q31.7618 527.062 25.3528 525.42 L1.8103 519.494 Q1.23059 519.301 0.425448 519.301 Q-0.862786 519.301 -1.63573 520.267 Q-2.44087 521.201 -2.47308 523.777 Q-2.47308 524.969 -3.21381 524.969 Q-3.82573 524.969 -4.11558 524.743 Q-4.43764 524.486 -4.46984 524.293 Q-4.53425 524.067 -4.53425 523.777 Q-4.53425 522.682 -4.43764 520.363 Q-4.34102 518.045 -4.34102 516.917 Q-4.34102 515.79 -4.43764 513.536 Q-4.53425 511.281 -4.53425 510.186 Q-4.53425 509.8 -4.34102 509.607 Q-4.17999 509.381 -3.98675 509.349 L-3.79352 509.349 Z" fill="#000000" fill-rule="nonzero" fill-opacity="1" /><path clip-path="url(#clip380)" d="M30.5057 492.152 Q29.7006 492.088 29.7006 490.832 L29.7006 450.414 Q29.7006 448.514 30.4413 448.481 Q31.2465 448.481 31.2143 450.285 L31.2143 490.381 Q31.2465 492.152 30.5057 492.152 M17.6234 492.152 Q16.8182 492.152 16.8504 490.768 L16.8504 450.478 Q16.8504 448.514 17.6234 448.481 Q18.3641 448.481 18.3641 450.156 L18.3641 490.832 Q18.3641 492.152 17.6234 492.152 Z" fill="#000000" fill-rule="nonzero" fill-opacity="1" /><path clip-path="url(#clip380)" d="M19.4269 423.036 Q9.73294 423.036 4.45118 420.588 Q-3.40705 417.174 -3.40705 409.123 Q-3.40705 407.416 -2.92396 405.644 Q-2.47308 403.841 -0.701757 401.586 Q1.06957 399.3 3.96809 397.915 Q9.57191 395.274 19.4269 395.274 Q29.0565 395.274 34.306 397.722 Q41.971 401.297 41.971 409.187 Q41.971 412.15 40.4573 415.177 Q38.9437 418.172 35.3044 420.073 Q29.8616 423.036 19.4269 423.036 M18.6218 417.561 Q28.5734 417.561 32.5347 416.852 Q36.8181 416.047 38.686 413.857 Q40.5217 411.635 40.5217 409.187 Q40.5217 406.546 38.5572 404.356 Q36.5604 402.134 32.277 401.458 Q28.0581 400.717 18.6218 400.749 Q9.44309 400.749 5.77162 401.393 Q1.48824 402.263 -0.218669 404.582 Q-1.95779 406.868 -1.95779 409.187 Q-1.95779 410.057 -1.70014 410.991 Q-1.44249 411.892 -0.701757 413.213 Q0.0389781 414.533 1.87471 415.564 Q3.71045 416.562 6.48015 417.045 Q10.055 417.561 18.6218 417.561 Z" fill="#000000" fill-rule="nonzero" fill-opacity="1" /><path clip-path="url(#clip380)" d="M56.367 388.788 Q56.045 388.788 55.2398 387.95 Q44.4187 377.322 24.0323 377.322 Q3.58162 377.322 -6.75646 387.531 Q-7.94808 388.788 -8.30234 388.788 Q-8.94646 388.788 -8.94646 388.143 Q-8.94646 387.693 -7.62602 386.114 Q-6.30558 384.504 -3.27823 382.089 Q-0.250875 379.641 3.4528 377.838 Q12.4382 373.49 24.0323 373.49 Q35.1756 373.49 44.161 377.644 Q47.9291 379.416 51.0853 381.895 Q54.2414 384.375 55.6263 386.018 Q57.0111 387.66 57.0111 388.143 Q57.0111 388.788 56.367 388.788 Z" fill="#000000" fill-rule="nonzero" fill-opacity="1" /><path clip-path="url(#clip380)" d="M23.5815 348.645 Q23.7103 348.581 24.0323 348.581 Q24.3544 348.581 24.4832 348.645 L56.1416 360.916 Q57.0111 361.238 57.0111 362.14 Q57.0111 362.687 56.6247 363.074 Q56.2382 363.46 55.6907 363.46 Q55.3686 363.46 55.2398 363.396 L24.0323 351.286 L-7.17513 363.396 Q-7.30396 363.46 -7.62602 363.46 Q-8.17352 363.46 -8.55999 363.074 Q-8.94646 362.687 -8.94646 362.14 Q-8.94646 361.238 -8.0769 360.916 L23.5815 348.645 Z" fill="#000000" fill-rule="nonzero" fill-opacity="1" /><path clip-path="url(#clip380)" d="M54.9822 338.069 L-6.4344 338.069 Q-8.88205 338.069 -8.88205 336.748 Q-8.88205 335.428 -6.91749 335.428 L54.4991 335.428 Q56.9467 335.428 56.9467 336.748 Q56.9467 338.069 54.9822 338.069 Z" fill="#000000" fill-rule="nonzero" fill-opacity="1" /><path clip-path="url(#clip380)" d="M0.722527 328.42 Q-0.111605 328.42 -0.35959 328.352 Q-0.607575 328.262 -0.990825 327.901 L-10.8651 319.041 Q-16.3208 314.194 -21.0776 314.194 Q-24.1662 314.194 -26.3755 315.817 Q-28.5848 317.418 -28.5848 320.371 Q-28.5848 322.4 -27.3449 324.114 Q-26.105 325.827 -23.8956 326.616 Q-23.9407 326.481 -23.9407 326.007 Q-23.9407 324.858 -23.2193 324.226 Q-22.4979 323.573 -21.5285 323.573 Q-20.2886 323.573 -19.6799 324.384 Q-19.0937 325.173 -19.0937 325.962 Q-19.0937 326.278 -19.1614 326.706 Q-19.229 327.112 -19.8602 327.766 Q-20.514 328.42 -21.6638 328.42 Q-24.8876 328.42 -27.4576 325.985 Q-30.0276 323.527 -30.0276 319.785 Q-30.0276 315.547 -27.5027 312.774 Q-25.0003 309.978 -21.0776 309.978 Q-19.7024 309.978 -18.44 310.407 Q-17.2 310.813 -16.2306 311.376 Q-15.2612 311.917 -13.7057 313.405 Q-12.1502 314.893 -11.0455 316.088 Q-9.94083 317.283 -7.59625 319.965 L-2.83944 324.858 L-2.83944 316.539 Q-2.83944 312.481 -3.20015 312.165 Q-3.85393 311.714 -7.30317 311.151 L-7.30317 309.978 L0.722527 311.286 L0.722527 328.42 Z" fill="#000000" fill-rule="nonzero" fill-opacity="1" /><circle clip-path="url(#clip382)" cx="1783.7" cy="1342.85" r="14.4" fill="#009af9" fill-rule="evenodd" fill-opacity="1" stroke="#000000" stroke-opacity="1" stroke-width="3.2"/>
<circle clip-path="url(#clip382)" cx="1783.05" cy="1342.85" r="14.4" fill="#009af9" fill-rule="evenodd" fill-opacity="1" stroke="#000000" stroke-opacity="1" stroke-width="3.2"/>
<circle clip-path="url(#clip382)" cx="2048.83" cy="1342.85" r="14.4" fill="#009af9" fill-rule="evenodd" fill-opacity="1" stroke="#000000" stroke-opacity="1" stroke-width="3.2"/>
<circle clip-path="url(#clip382)" cx="185.351" cy="1342.85" r="14.4" fill="#009af9" fill-rule="evenodd" fill-opacity="1" stroke="#000000" stroke-opacity="1" stroke-width="3.2"/>
<circle clip-path="url(#clip382)" cx="1782.3" cy="1342.85" r="14.4" fill="#009af9" fill-rule="evenodd" fill-opacity="1" stroke="#000000" stroke-opacity="1" stroke-width="3.2"/>
<circle clip-path="url(#clip382)" cx="1784.29" cy="1342.85" r="14.4" fill="#009af9" fill-rule="evenodd" fill-opacity="1" stroke="#000000" stroke-opacity="1" stroke-width="3.2"/>
<circle clip-path="url(#clip382)" cx="1780.67" cy="1342.85" r="14.4" fill="#009af9" fill-rule="evenodd" fill-opacity="1" stroke="#000000" stroke-opacity="1" stroke-width="3.2"/>
<circle clip-path="url(#clip382)" cx="1781.31" cy="1342.85" r="14.4" fill="#009af9" fill-rule="evenodd" fill-opacity="1" stroke="#000000" stroke-opacity="1" stroke-width="3.2"/>
<circle clip-path="url(#clip382)" cx="1776.68" cy="1342.85" r="14.4" fill="#009af9" fill-rule="evenodd" fill-opacity="1" stroke="#000000" stroke-opacity="1" stroke-width="3.2"/>
<circle clip-path="url(#clip382)" cx="2166.34" cy="1342.85" r="14.4" fill="#009af9" fill-rule="evenodd" fill-opacity="1" stroke="#000000" stroke-opacity="1" stroke-width="3.2"/>
<circle clip-path="url(#clip382)" cx="1784.05" cy="1342.85" r="14.4" fill="#009af9" fill-rule="evenodd" fill-opacity="1" stroke="#000000" stroke-opacity="1" stroke-width="3.2"/>
<circle clip-path="url(#clip382)" cx="1813.8" cy="1342.85" r="14.4" fill="#009af9" fill-rule="evenodd" fill-opacity="1" stroke="#000000" stroke-opacity="1" stroke-width="3.2"/>
<circle clip-path="url(#clip382)" cx="1781.54" cy="1342.85" r="14.4" fill="#009af9" fill-rule="evenodd" fill-opacity="1" stroke="#000000" stroke-opacity="1" stroke-width="3.2"/>
<circle clip-path="url(#clip382)" cx="1802.5" cy="1342.85" r="14.4" fill="#009af9" fill-rule="evenodd" fill-opacity="1" stroke="#000000" stroke-opacity="1" stroke-width="3.2"/>
<circle clip-path="url(#clip382)" cx="783.238" cy="1342.85" r="14.4" fill="#009af9" fill-rule="evenodd" fill-opacity="1" stroke="#000000" stroke-opacity="1" stroke-width="3.2"/>
<circle clip-path="url(#clip382)" cx="2132.98" cy="1342.85" r="14.4" fill="#009af9" fill-rule="evenodd" fill-opacity="1" stroke="#000000" stroke-opacity="1" stroke-width="3.2"/>
<circle clip-path="url(#clip382)" cx="2187.55" cy="1342.85" r="14.4" fill="#009af9" fill-rule="evenodd" fill-opacity="1" stroke="#000000" stroke-opacity="1" stroke-width="3.2"/>
<circle clip-path="url(#clip382)" cx="1784.12" cy="1342.85" r="14.4" fill="#009af9" fill-rule="evenodd" fill-opacity="1" stroke="#000000" stroke-opacity="1" stroke-width="3.2"/>
<circle clip-path="url(#clip382)" cx="1794.63" cy="1342.85" r="14.4" fill="#009af9" fill-rule="evenodd" fill-opacity="1" stroke="#000000" stroke-opacity="1" stroke-width="3.2"/>
<circle clip-path="url(#clip382)" cx="1883.91" cy="1342.85" r="14.4" fill="#009af9" fill-rule="evenodd" fill-opacity="1" stroke="#000000" stroke-opacity="1" stroke-width="3.2"/>
<circle clip-path="url(#clip382)" cx="1142.77" cy="1342.85" r="14.4" fill="#009af9" fill-rule="evenodd" fill-opacity="1" stroke="#000000" stroke-opacity="1" stroke-width="3.2"/>
<circle clip-path="url(#clip382)" cx="1208.92" cy="1342.85" r="14.4" fill="#009af9" fill-rule="evenodd" fill-opacity="1" stroke="#000000" stroke-opacity="1" stroke-width="3.2"/>
<circle clip-path="url(#clip382)" cx="1784.78" cy="1342.85" r="14.4" fill="#009af9" fill-rule="evenodd" fill-opacity="1" stroke="#000000" stroke-opacity="1" stroke-width="3.2"/>
<circle clip-path="url(#clip382)" cx="1788.49" cy="1342.85" r="14.4" fill="#009af9" fill-rule="evenodd" fill-opacity="1" stroke="#000000" stroke-opacity="1" stroke-width="3.2"/>
<circle clip-path="url(#clip382)" cx="1386.49" cy="1342.85" r="14.4" fill="#009af9" fill-rule="evenodd" fill-opacity="1" stroke="#000000" stroke-opacity="1" stroke-width="3.2"/>
<circle clip-path="url(#clip382)" cx="1793.11" cy="1342.85" r="14.4" fill="#009af9" fill-rule="evenodd" fill-opacity="1" stroke="#000000" stroke-opacity="1" stroke-width="3.2"/>
<circle clip-path="url(#clip382)" cx="1794.13" cy="1342.85" r="14.4" fill="#009af9" fill-rule="evenodd" fill-opacity="1" stroke="#000000" stroke-opacity="1" stroke-width="3.2"/>
<circle clip-path="url(#clip382)" cx="1817.14" cy="1342.85" r="14.4" fill="#009af9" fill-rule="evenodd" fill-opacity="1" stroke="#000000" stroke-opacity="1" stroke-width="3.2"/>
<circle clip-path="url(#clip382)" cx="1800.51" cy="1342.85" r="14.4" fill="#009af9" fill-rule="evenodd" fill-opacity="1" stroke="#000000" stroke-opacity="1" stroke-width="3.2"/>
<circle clip-path="url(#clip382)" cx="1498.49" cy="1342.85" r="14.4" fill="#009af9" fill-rule="evenodd" fill-opacity="1" stroke="#000000" stroke-opacity="1" stroke-width="3.2"/>
<circle clip-path="url(#clip382)" cx="1526.87" cy="1342.85" r="14.4" fill="#009af9" fill-rule="evenodd" fill-opacity="1" stroke="#000000" stroke-opacity="1" stroke-width="3.2"/>
<circle clip-path="url(#clip382)" cx="1803.92" cy="1342.85" r="14.4" fill="#009af9" fill-rule="evenodd" fill-opacity="1" stroke="#000000" stroke-opacity="1" stroke-width="3.2"/>
<circle clip-path="url(#clip382)" cx="1802.23" cy="1342.85" r="14.4" fill="#009af9" fill-rule="evenodd" fill-opacity="1" stroke="#000000" stroke-opacity="1" stroke-width="3.2"/>
<circle clip-path="url(#clip382)" cx="1567.73" cy="1342.85" r="14.4" fill="#009af9" fill-rule="evenodd" fill-opacity="1" stroke="#000000" stroke-opacity="1" stroke-width="3.2"/>
<circle clip-path="url(#clip382)" cx="1806.61" cy="1342.85" r="14.4" fill="#009af9" fill-rule="evenodd" fill-opacity="1" stroke="#000000" stroke-opacity="1" stroke-width="3.2"/>
<circle clip-path="url(#clip382)" cx="1812.52" cy="1342.85" r="14.4" fill="#009af9" fill-rule="evenodd" fill-opacity="1" stroke="#000000" stroke-opacity="1" stroke-width="3.2"/>
<circle clip-path="url(#clip382)" cx="1611.59" cy="1342.85" r="14.4" fill="#009af9" fill-rule="evenodd" fill-opacity="1" stroke="#000000" stroke-opacity="1" stroke-width="3.2"/>
<circle clip-path="url(#clip382)" cx="1813.62" cy="1342.85" r="14.4" fill="#009af9" fill-rule="evenodd" fill-opacity="1" stroke="#000000" stroke-opacity="1" stroke-width="3.2"/>
<circle clip-path="url(#clip382)" cx="1818.92" cy="1342.85" r="14.4" fill="#009af9" fill-rule="evenodd" fill-opacity="1" stroke="#000000" stroke-opacity="1" stroke-width="3.2"/>
<circle clip-path="url(#clip382)" cx="1642.36" cy="1342.85" r="14.4" fill="#009af9" fill-rule="evenodd" fill-opacity="1" stroke="#000000" stroke-opacity="1" stroke-width="3.2"/>
<circle clip-path="url(#clip382)" cx="1931.72" cy="1342.85" r="14.4" fill="#009af9" fill-rule="evenodd" fill-opacity="1" stroke="#000000" stroke-opacity="1" stroke-width="3.2"/>
<circle clip-path="url(#clip382)" cx="1658.59" cy="1342.85" r="14.4" fill="#009af9" fill-rule="evenodd" fill-opacity="1" stroke="#000000" stroke-opacity="1" stroke-width="3.2"/>
<circle clip-path="url(#clip382)" cx="1830" cy="1342.85" r="14.4" fill="#009af9" fill-rule="evenodd" fill-opacity="1" stroke="#000000" stroke-opacity="1" stroke-width="3.2"/>
<circle clip-path="url(#clip382)" cx="1672.48" cy="1342.85" r="14.4" fill="#009af9" fill-rule="evenodd" fill-opacity="1" stroke="#000000" stroke-opacity="1" stroke-width="3.2"/>
<circle clip-path="url(#clip382)" cx="1962.05" cy="1342.85" r="14.4" fill="#009af9" fill-rule="evenodd" fill-opacity="1" stroke="#000000" stroke-opacity="1" stroke-width="3.2"/>
<circle clip-path="url(#clip382)" cx="2289.63" cy="1342.85" r="14.4" fill="#009af9" fill-rule="evenodd" fill-opacity="1" stroke="#000000" stroke-opacity="1" stroke-width="3.2"/>
<circle clip-path="url(#clip382)" cx="1695.01" cy="1342.85" r="14.4" fill="#009af9" fill-rule="evenodd" fill-opacity="1" stroke="#000000" stroke-opacity="1" stroke-width="3.2"/>
<circle clip-path="url(#clip382)" cx="1700.9" cy="1342.85" r="14.4" fill="#009af9" fill-rule="evenodd" fill-opacity="1" stroke="#000000" stroke-opacity="1" stroke-width="3.2"/>
<circle clip-path="url(#clip382)" cx="1841.06" cy="1342.85" r="14.4" fill="#009af9" fill-rule="evenodd" fill-opacity="1" stroke="#000000" stroke-opacity="1" stroke-width="3.2"/>
<circle clip-path="url(#clip382)" cx="1849.49" cy="1342.85" r="14.4" fill="#009af9" fill-rule="evenodd" fill-opacity="1" stroke="#000000" stroke-opacity="1" stroke-width="3.2"/>
<circle clip-path="url(#clip382)" cx="1721.06" cy="1342.85" r="14.4" fill="#009af9" fill-rule="evenodd" fill-opacity="1" stroke="#000000" stroke-opacity="1" stroke-width="3.2"/>
<circle clip-path="url(#clip382)" cx="1758.09" cy="1342.85" r="14.4" fill="#009af9" fill-rule="evenodd" fill-opacity="1" stroke="#000000" stroke-opacity="1" stroke-width="3.2"/>
<circle clip-path="url(#clip382)" cx="1866.77" cy="1342.85" r="14.4" fill="#009af9" fill-rule="evenodd" fill-opacity="1" stroke="#000000" stroke-opacity="1" stroke-width="3.2"/>
<circle clip-path="url(#clip382)" cx="1808.2" cy="1342.85" r="14.4" fill="#009af9" fill-rule="evenodd" fill-opacity="1" stroke="#000000" stroke-opacity="1" stroke-width="3.2"/>
<circle clip-path="url(#clip382)" cx="1880.12" cy="1342.85" r="14.4" fill="#009af9" fill-rule="evenodd" fill-opacity="1" stroke="#000000" stroke-opacity="1" stroke-width="3.2"/>
<circle clip-path="url(#clip382)" cx="1837.82" cy="1342.85" r="14.4" fill="#009af9" fill-rule="evenodd" fill-opacity="1" stroke="#000000" stroke-opacity="1" stroke-width="3.2"/>
<circle clip-path="url(#clip382)" cx="1845.52" cy="1342.85" r="14.4" fill="#009af9" fill-rule="evenodd" fill-opacity="1" stroke="#000000" stroke-opacity="1" stroke-width="3.2"/>
<circle clip-path="url(#clip382)" cx="1859.49" cy="1342.85" r="14.4" fill="#009af9" fill-rule="evenodd" fill-opacity="1" stroke="#000000" stroke-opacity="1" stroke-width="3.2"/>
</svg>
