<?xml version="1.0" encoding="utf-8"?>
<svg xmlns="http://www.w3.org/2000/svg" xmlns:xlink="http://www.w3.org/1999/xlink" width="600" height="400" viewBox="0 0 2400 1600">
<defs>
  <clipPath id="clip260">
    <rect x="0" y="0" width="2400" height="1600"/>
  </clipPath>
</defs>
<path clip-path="url(#clip260)" d="M0 1600 L2400 1600 L2400 0 L0 0  Z" fill="#ffffff" fill-rule="evenodd" fill-opacity="1"/>
<defs>
  <clipPath id="clip261">
    <rect x="480" y="0" width="1681" height="1600"/>
  </clipPath>
</defs>
<path clip-path="url(#clip260)" d="M251.027 1410.9 L2352.76 1410.9 L2352.76 47.2441 L251.027 47.2441  Z" fill="#ffffff" fill-rule="evenodd" fill-opacity="1"/>
<defs>
  <clipPath id="clip262">
    <rect x="251" y="47" width="2103" height="1365"/>
  </clipPath>
</defs>
<polyline clip-path="url(#clip262)" style="stroke:#000000; stroke-linecap:round; stroke-linejoin:round; stroke-width:2; stroke-opacity:0.1; fill:none" points="256.922,1410.9 256.922,47.2441 "/>
<polyline clip-path="url(#clip262)" style="stroke:#000000; stroke-linecap:round; stroke-linejoin:round; stroke-width:2; stroke-opacity:0.1; fill:none" points="674.91,1410.9 674.91,47.2441 "/>
<polyline clip-path="url(#clip262)" style="stroke:#000000; stroke-linecap:round; stroke-linejoin:round; stroke-width:2; stroke-opacity:0.1; fill:none" points="1092.9,1410.9 1092.9,47.2441 "/>
<polyline clip-path="url(#clip262)" style="stroke:#000000; stroke-linecap:round; stroke-linejoin:round; stroke-width:2; stroke-opacity:0.1; fill:none" points="1510.89,1410.9 1510.89,47.2441 "/>
<polyline clip-path="url(#clip262)" style="stroke:#000000; stroke-linecap:round; stroke-linejoin:round; stroke-width:2; stroke-opacity:0.1; fill:none" points="1928.87,1410.9 1928.87,47.2441 "/>
<polyline clip-path="url(#clip262)" style="stroke:#000000; stroke-linecap:round; stroke-linejoin:round; stroke-width:2; stroke-opacity:0.1; fill:none" points="2346.86,1410.9 2346.86,47.2441 "/>
<polyline clip-path="url(#clip262)" style="stroke:#000000; stroke-linecap:round; stroke-linejoin:round; stroke-width:2; stroke-opacity:0.1; fill:none" points="256.922,1410.9 256.922,47.2441 "/>
<polyline clip-path="url(#clip262)" style="stroke:#000000; stroke-linecap:round; stroke-linejoin:round; stroke-width:2; stroke-opacity:0.1; fill:none" points="674.91,1410.9 674.91,47.2441 "/>
<polyline clip-path="url(#clip262)" style="stroke:#000000; stroke-linecap:round; stroke-linejoin:round; stroke-width:2; stroke-opacity:0.1; fill:none" points="1092.9,1410.9 1092.9,47.2441 "/>
<polyline clip-path="url(#clip262)" style="stroke:#000000; stroke-linecap:round; stroke-linejoin:round; stroke-width:2; stroke-opacity:0.1; fill:none" points="1510.89,1410.9 1510.89,47.2441 "/>
<polyline clip-path="url(#clip262)" style="stroke:#000000; stroke-linecap:round; stroke-linejoin:round; stroke-width:2; stroke-opacity:0.1; fill:none" points="1928.87,1410.9 1928.87,47.2441 "/>
<polyline clip-path="url(#clip262)" style="stroke:#000000; stroke-linecap:round; stroke-linejoin:round; stroke-width:2; stroke-opacity:0.1; fill:none" points="2346.86,1410.9 2346.86,47.2441 "/>
<polyline clip-path="url(#clip262)" style="stroke:#000000; stroke-linecap:round; stroke-linejoin:round; stroke-width:2; stroke-opacity:0.1; fill:none" points="251.027,1140.84 2352.76,1140.84 "/>
<polyline clip-path="url(#clip262)" style="stroke:#000000; stroke-linecap:round; stroke-linejoin:round; stroke-width:2; stroke-opacity:0.1; fill:none" points="251.027,841.32 2352.76,841.32 "/>
<polyline clip-path="url(#clip262)" style="stroke:#000000; stroke-linecap:round; stroke-linejoin:round; stroke-width:2; stroke-opacity:0.1; fill:none" points="251.027,541.798 2352.76,541.798 "/>
<polyline clip-path="url(#clip262)" style="stroke:#000000; stroke-linecap:round; stroke-linejoin:round; stroke-width:2; stroke-opacity:0.1; fill:none" points="251.027,242.276 2352.76,242.276 "/>
<polyline clip-path="url(#clip262)" style="stroke:#000000; stroke-linecap:round; stroke-linejoin:round; stroke-width:2; stroke-opacity:0.1; fill:none" points="251.027,1140.84 2352.76,1140.84 "/>
<polyline clip-path="url(#clip262)" style="stroke:#000000; stroke-linecap:round; stroke-linejoin:round; stroke-width:2; stroke-opacity:0.1; fill:none" points="251.027,841.32 2352.76,841.32 "/>
<polyline clip-path="url(#clip262)" style="stroke:#000000; stroke-linecap:round; stroke-linejoin:round; stroke-width:2; stroke-opacity:0.1; fill:none" points="251.027,541.798 2352.76,541.798 "/>
<polyline clip-path="url(#clip262)" style="stroke:#000000; stroke-linecap:round; stroke-linejoin:round; stroke-width:2; stroke-opacity:0.1; fill:none" points="251.027,242.276 2352.76,242.276 "/>
<polyline clip-path="url(#clip260)" style="stroke:#000000; stroke-linecap:round; stroke-linejoin:round; stroke-width:4; stroke-opacity:1; fill:none" points="251.027,1410.9 2352.76,1410.9 "/>
<polyline clip-path="url(#clip260)" style="stroke:#000000; stroke-linecap:round; stroke-linejoin:round; stroke-width:4; stroke-opacity:1; fill:none" points="251.027,47.2441 2352.76,47.2441 "/>
<polyline clip-path="url(#clip260)" style="stroke:#000000; stroke-linecap:round; stroke-linejoin:round; stroke-width:4; stroke-opacity:1; fill:none" points="256.922,1410.9 256.922,1392 "/>
<polyline clip-path="url(#clip260)" style="stroke:#000000; stroke-linecap:round; stroke-linejoin:round; stroke-width:4; stroke-opacity:1; fill:none" points="674.91,1410.9 674.91,1392 "/>
<polyline clip-path="url(#clip260)" style="stroke:#000000; stroke-linecap:round; stroke-linejoin:round; stroke-width:4; stroke-opacity:1; fill:none" points="1092.9,1410.9 1092.9,1392 "/>
<polyline clip-path="url(#clip260)" style="stroke:#000000; stroke-linecap:round; stroke-linejoin:round; stroke-width:4; stroke-opacity:1; fill:none" points="1510.89,1410.9 1510.89,1392 "/>
<polyline clip-path="url(#clip260)" style="stroke:#000000; stroke-linecap:round; stroke-linejoin:round; stroke-width:4; stroke-opacity:1; fill:none" points="1928.87,1410.9 1928.87,1392 "/>
<polyline clip-path="url(#clip260)" style="stroke:#000000; stroke-linecap:round; stroke-linejoin:round; stroke-width:4; stroke-opacity:1; fill:none" points="2346.86,1410.9 2346.86,1392 "/>
<polyline clip-path="url(#clip260)" style="stroke:#000000; stroke-linecap:round; stroke-linejoin:round; stroke-width:4; stroke-opacity:1; fill:none" points="256.922,47.2441 256.922,66.1417 "/>
<polyline clip-path="url(#clip260)" style="stroke:#000000; stroke-linecap:round; stroke-linejoin:round; stroke-width:4; stroke-opacity:1; fill:none" points="674.91,47.2441 674.91,66.1417 "/>
<polyline clip-path="url(#clip260)" style="stroke:#000000; stroke-linecap:round; stroke-linejoin:round; stroke-width:4; stroke-opacity:1; fill:none" points="1092.9,47.2441 1092.9,66.1417 "/>
<polyline clip-path="url(#clip260)" style="stroke:#000000; stroke-linecap:round; stroke-linejoin:round; stroke-width:4; stroke-opacity:1; fill:none" points="1510.89,47.2441 1510.89,66.1417 "/>
<polyline clip-path="url(#clip260)" style="stroke:#000000; stroke-linecap:round; stroke-linejoin:round; stroke-width:4; stroke-opacity:1; fill:none" points="1928.87,47.2441 1928.87,66.1417 "/>
<polyline clip-path="url(#clip260)" style="stroke:#000000; stroke-linecap:round; stroke-linejoin:round; stroke-width:4; stroke-opacity:1; fill:none" points="2346.86,47.2441 2346.86,66.1417 "/>
<path clip-path="url(#clip260)" d="M206.802 1485.02 L214.441 1485.02 L214.441 1458.66 L206.131 1460.32 L206.131 1456.06 L214.395 1454.4 L219.071 1454.4 L219.071 1485.02 L226.709 1485.02 L226.709 1488.96 L206.802 1488.96 L206.802 1485.02 Z" fill="#000000" fill-rule="nonzero" fill-opacity="1" /><path clip-path="url(#clip260)" d="M246.154 1457.48 Q242.543 1457.48 240.714 1461.04 Q238.908 1464.58 238.908 1471.71 Q238.908 1478.82 240.714 1482.38 Q242.543 1485.92 246.154 1485.92 Q249.788 1485.92 251.593 1482.38 Q253.422 1478.82 253.422 1471.71 Q253.422 1464.58 251.593 1461.04 Q249.788 1457.48 246.154 1457.48 M246.154 1453.77 Q251.964 1453.77 255.019 1458.38 Q258.098 1462.96 258.098 1471.71 Q258.098 1480.44 255.019 1485.04 Q251.964 1489.63 246.154 1489.63 Q240.344 1489.63 237.265 1485.04 Q234.209 1480.44 234.209 1471.71 Q234.209 1462.96 237.265 1458.38 Q240.344 1453.77 246.154 1453.77 Z" fill="#000000" fill-rule="nonzero" fill-opacity="1" /><path clip-path="url(#clip260)" d="M258.098 1447.87 L282.21 1447.87 L282.21 1451.07 L258.098 1451.07 L258.098 1447.87 Z" fill="#000000" fill-rule="nonzero" fill-opacity="1" /><path clip-path="url(#clip260)" d="M301.92 1446.41 Q304.647 1446.99 306.171 1448.83 Q307.713 1450.68 307.713 1453.38 Q307.713 1457.54 304.854 1459.82 Q301.995 1462.09 296.729 1462.09 Q294.961 1462.09 293.081 1461.73 Q291.219 1461.4 289.225 1460.7 L289.225 1457.03 Q290.805 1457.95 292.686 1458.42 Q294.566 1458.89 296.616 1458.89 Q300.19 1458.89 302.052 1457.48 Q303.933 1456.07 303.933 1453.38 Q303.933 1450.9 302.183 1449.51 Q300.453 1448.1 297.35 1448.1 L294.077 1448.1 L294.077 1444.98 L297.5 1444.98 Q300.303 1444.98 301.789 1443.87 Q303.274 1442.74 303.274 1440.63 Q303.274 1438.47 301.732 1437.32 Q300.209 1436.16 297.35 1436.16 Q295.789 1436.16 294.002 1436.49 Q292.215 1436.83 290.071 1437.55 L290.071 1434.16 Q292.234 1433.56 294.115 1433.26 Q296.015 1432.96 297.688 1432.96 Q302.014 1432.96 304.534 1434.93 Q307.055 1436.89 307.055 1440.24 Q307.055 1442.57 305.719 1444.19 Q304.384 1445.79 301.92 1446.41 Z" fill="#000000" fill-rule="nonzero" fill-opacity="1" /><path clip-path="url(#clip260)" d="M625.175 1485.02 L632.814 1485.02 L632.814 1458.66 L624.504 1460.32 L624.504 1456.06 L632.768 1454.4 L637.444 1454.4 L637.444 1485.02 L645.083 1485.02 L645.083 1488.96 L625.175 1488.96 L625.175 1485.02 Z" fill="#000000" fill-rule="nonzero" fill-opacity="1" /><path clip-path="url(#clip260)" d="M664.527 1457.48 Q660.916 1457.48 659.087 1461.04 Q657.282 1464.58 657.282 1471.71 Q657.282 1478.82 659.087 1482.38 Q660.916 1485.92 664.527 1485.92 Q668.161 1485.92 669.967 1482.38 Q671.796 1478.82 671.796 1471.71 Q671.796 1464.58 669.967 1461.04 Q668.161 1457.48 664.527 1457.48 M664.527 1453.77 Q670.337 1453.77 673.393 1458.38 Q676.472 1462.96 676.472 1471.71 Q676.472 1480.44 673.393 1485.04 Q670.337 1489.63 664.527 1489.63 Q658.717 1489.63 655.638 1485.04 Q652.583 1480.44 652.583 1471.71 Q652.583 1462.96 655.638 1458.38 Q658.717 1453.77 664.527 1453.77 Z" fill="#000000" fill-rule="nonzero" fill-opacity="1" /><path clip-path="url(#clip260)" d="M676.472 1447.87 L700.583 1447.87 L700.583 1451.07 L676.472 1451.07 L676.472 1447.87 Z" fill="#000000" fill-rule="nonzero" fill-opacity="1" /><path clip-path="url(#clip260)" d="M712.056 1458.35 L725.315 1458.35 L725.315 1461.55 L707.486 1461.55 L707.486 1458.35 Q709.648 1456.11 713.372 1452.35 Q717.115 1448.57 718.074 1447.48 Q719.899 1445.43 720.613 1444.02 Q721.347 1442.59 721.347 1441.22 Q721.347 1438.98 719.767 1437.57 Q718.206 1436.16 715.686 1436.16 Q713.899 1436.16 711.905 1436.78 Q709.931 1437.4 707.674 1438.66 L707.674 1434.82 Q709.968 1433.9 711.962 1433.43 Q713.955 1432.96 715.61 1432.96 Q719.974 1432.96 722.569 1435.14 Q725.165 1437.32 725.165 1440.97 Q725.165 1442.7 724.507 1444.26 Q723.867 1445.8 722.156 1447.91 Q721.685 1448.46 719.165 1451.07 Q716.645 1453.67 712.056 1458.35 Z" fill="#000000" fill-rule="nonzero" fill-opacity="1" /><path clip-path="url(#clip260)" d="M1043.01 1485.02 L1050.65 1485.02 L1050.65 1458.66 L1042.34 1460.32 L1042.34 1456.06 L1050.61 1454.4 L1055.28 1454.4 L1055.28 1485.02 L1062.92 1485.02 L1062.92 1488.96 L1043.01 1488.96 L1043.01 1485.02 Z" fill="#000000" fill-rule="nonzero" fill-opacity="1" /><path clip-path="url(#clip260)" d="M1082.36 1457.48 Q1078.75 1457.48 1076.92 1461.04 Q1075.12 1464.58 1075.12 1471.71 Q1075.12 1478.82 1076.92 1482.38 Q1078.75 1485.92 1082.36 1485.92 Q1086 1485.92 1087.8 1482.38 Q1089.63 1478.82 1089.63 1471.71 Q1089.63 1464.58 1087.8 1461.04 Q1086 1457.48 1082.36 1457.48 M1082.36 1453.77 Q1088.17 1453.77 1091.23 1458.38 Q1094.31 1462.96 1094.31 1471.71 Q1094.31 1480.44 1091.23 1485.04 Q1088.17 1489.63 1082.36 1489.63 Q1076.55 1489.63 1073.48 1485.04 Q1070.42 1480.44 1070.42 1471.71 Q1070.42 1462.96 1073.48 1458.38 Q1076.55 1453.77 1082.36 1453.77 Z" fill="#000000" fill-rule="nonzero" fill-opacity="1" /><path clip-path="url(#clip260)" d="M1094.31 1447.87 L1118.42 1447.87 L1118.42 1451.07 L1094.31 1451.07 L1094.31 1447.87 Z" fill="#000000" fill-rule="nonzero" fill-opacity="1" /><path clip-path="url(#clip260)" d="M1127.28 1458.35 L1133.49 1458.35 L1133.49 1436.93 L1126.73 1438.28 L1126.73 1434.82 L1133.45 1433.47 L1137.25 1433.47 L1137.25 1458.35 L1143.45 1458.35 L1143.45 1461.55 L1127.28 1461.55 L1127.28 1458.35 Z" fill="#000000" fill-rule="nonzero" fill-opacity="1" /><path clip-path="url(#clip260)" d="M1475.87 1485.02 L1483.51 1485.02 L1483.51 1458.66 L1475.2 1460.32 L1475.2 1456.06 L1483.46 1454.4 L1488.14 1454.4 L1488.14 1485.02 L1495.78 1485.02 L1495.78 1488.96 L1475.87 1488.96 L1475.87 1485.02 Z" fill="#000000" fill-rule="nonzero" fill-opacity="1" /><path clip-path="url(#clip260)" d="M1515.22 1457.48 Q1511.61 1457.48 1509.78 1461.04 Q1507.97 1464.58 1507.97 1471.71 Q1507.97 1478.82 1509.78 1482.38 Q1511.61 1485.92 1515.22 1485.92 Q1518.85 1485.92 1520.66 1482.38 Q1522.49 1478.82 1522.49 1471.71 Q1522.49 1464.58 1520.66 1461.04 Q1518.85 1457.48 1515.22 1457.48 M1515.22 1453.77 Q1521.03 1453.77 1524.09 1458.38 Q1527.16 1462.96 1527.16 1471.71 Q1527.16 1480.44 1524.09 1485.04 Q1521.03 1489.63 1515.22 1489.63 Q1509.41 1489.63 1506.33 1485.04 Q1503.28 1480.44 1503.28 1471.71 Q1503.28 1462.96 1506.33 1458.38 Q1509.41 1453.77 1515.22 1453.77 Z" fill="#000000" fill-rule="nonzero" fill-opacity="1" /><path clip-path="url(#clip260)" d="M1536.87 1435.97 Q1533.94 1435.97 1532.45 1438.86 Q1530.98 1441.74 1530.98 1447.53 Q1530.98 1453.31 1532.45 1456.2 Q1533.94 1459.08 1536.87 1459.08 Q1539.82 1459.08 1541.29 1456.2 Q1542.77 1453.31 1542.77 1447.53 Q1542.77 1441.74 1541.29 1438.86 Q1539.82 1435.97 1536.87 1435.97 M1536.87 1432.96 Q1541.59 1432.96 1544.07 1436.7 Q1546.57 1440.43 1546.57 1447.53 Q1546.57 1454.62 1544.07 1458.37 Q1541.59 1462.09 1536.87 1462.09 Q1532.15 1462.09 1529.65 1458.37 Q1527.16 1454.62 1527.16 1447.53 Q1527.16 1440.43 1529.65 1436.7 Q1532.15 1432.96 1536.87 1432.96 Z" fill="#000000" fill-rule="nonzero" fill-opacity="1" /><path clip-path="url(#clip260)" d="M1895.2 1485.02 L1902.84 1485.02 L1902.84 1458.66 L1894.53 1460.32 L1894.53 1456.06 L1902.79 1454.4 L1907.47 1454.4 L1907.47 1485.02 L1915.11 1485.02 L1915.11 1488.96 L1895.2 1488.96 L1895.2 1485.02 Z" fill="#000000" fill-rule="nonzero" fill-opacity="1" /><path clip-path="url(#clip260)" d="M1934.55 1457.48 Q1930.94 1457.48 1929.11 1461.04 Q1927.31 1464.58 1927.31 1471.71 Q1927.31 1478.82 1929.11 1482.38 Q1930.94 1485.92 1934.55 1485.92 Q1938.19 1485.92 1939.99 1482.38 Q1941.82 1478.82 1941.82 1471.71 Q1941.82 1464.58 1939.99 1461.04 Q1938.19 1457.48 1934.55 1457.48 M1934.55 1453.77 Q1940.36 1453.77 1943.42 1458.38 Q1946.5 1462.96 1946.5 1471.71 Q1946.5 1480.44 1943.42 1485.04 Q1940.36 1489.63 1934.55 1489.63 Q1928.74 1489.63 1925.66 1485.04 Q1922.61 1480.44 1922.61 1471.71 Q1922.61 1462.96 1925.66 1458.38 Q1928.74 1453.77 1934.55 1453.77 Z" fill="#000000" fill-rule="nonzero" fill-opacity="1" /><path clip-path="url(#clip260)" d="M1947.04 1458.35 L1953.25 1458.35 L1953.25 1436.93 L1946.5 1438.28 L1946.5 1434.82 L1953.21 1433.47 L1957.01 1433.47 L1957.01 1458.35 L1963.22 1458.35 L1963.22 1461.55 L1947.04 1461.55 L1947.04 1458.35 Z" fill="#000000" fill-rule="nonzero" fill-opacity="1" /><path clip-path="url(#clip260)" d="M2312.63 1485.02 L2320.27 1485.02 L2320.27 1458.66 L2311.96 1460.32 L2311.96 1456.06 L2320.23 1454.4 L2324.9 1454.4 L2324.9 1485.02 L2332.54 1485.02 L2332.54 1488.96 L2312.63 1488.96 L2312.63 1485.02 Z" fill="#000000" fill-rule="nonzero" fill-opacity="1" /><path clip-path="url(#clip260)" d="M2351.99 1457.48 Q2348.37 1457.48 2346.55 1461.04 Q2344.74 1464.58 2344.74 1471.71 Q2344.74 1478.82 2346.55 1482.38 Q2348.37 1485.92 2351.99 1485.92 Q2355.62 1485.92 2357.43 1482.38 Q2359.25 1478.82 2359.25 1471.71 Q2359.25 1464.58 2357.43 1461.04 Q2355.62 1457.48 2351.99 1457.48 M2351.99 1453.77 Q2357.8 1453.77 2360.85 1458.38 Q2363.93 1462.96 2363.93 1471.71 Q2363.93 1480.44 2360.85 1485.04 Q2357.8 1489.63 2351.99 1489.63 Q2346.18 1489.63 2343.1 1485.04 Q2340.04 1480.44 2340.04 1471.71 Q2340.04 1462.96 2343.1 1458.38 Q2346.18 1453.77 2351.99 1453.77 Z" fill="#000000" fill-rule="nonzero" fill-opacity="1" /><path clip-path="url(#clip260)" d="M2368.5 1458.35 L2381.76 1458.35 L2381.76 1461.55 L2363.93 1461.55 L2363.93 1458.35 Q2366.09 1456.11 2369.82 1452.35 Q2373.56 1448.57 2374.52 1447.48 Q2376.34 1445.43 2377.06 1444.02 Q2377.79 1442.59 2377.79 1441.22 Q2377.79 1438.98 2376.21 1437.57 Q2374.65 1436.16 2372.13 1436.16 Q2370.34 1436.16 2368.35 1436.78 Q2366.37 1437.4 2364.12 1438.66 L2364.12 1434.82 Q2366.41 1433.9 2368.41 1433.43 Q2370.4 1432.96 2372.05 1432.96 Q2376.42 1432.96 2379.01 1435.14 Q2381.61 1437.32 2381.61 1440.97 Q2381.61 1442.7 2380.95 1444.26 Q2380.31 1445.8 2378.6 1447.91 Q2378.13 1448.46 2375.61 1451.07 Q2373.09 1453.67 2368.5 1458.35 Z" fill="#000000" fill-rule="nonzero" fill-opacity="1" /><path clip-path="url(#clip260)" d="M1325.29 1522.95 Q1325.29 1524.27 1324.2 1524.27 Q1322.27 1524.34 1320.95 1524.72 Q1319.63 1525.08 1318.85 1525.79 Q1318.11 1526.49 1317.69 1527.27 Q1317.31 1528.01 1317.05 1529.14 L1311.19 1552.55 Q1309.51 1559.15 1304.1 1563.95 Q1298.69 1568.72 1292.54 1568.72 Q1289.03 1568.72 1286.1 1567.27 Q1283.2 1565.82 1281.4 1562.89 Q1279.59 1559.96 1279.59 1556.06 Q1279.59 1554.19 1280.08 1552.23 L1284.07 1535.93 L1285.55 1530.13 Q1286.65 1525.85 1286.65 1525.46 Q1286.65 1524.85 1286.26 1524.69 Q1285.91 1524.5 1284.88 1524.4 L1282.36 1524.27 Q1281.59 1524.27 1281.27 1524.24 Q1280.98 1524.21 1280.75 1524.05 Q1280.53 1523.89 1280.53 1523.53 Q1280.53 1523.08 1280.63 1522.79 Q1280.75 1522.47 1280.98 1522.37 Q1281.2 1522.28 1281.37 1522.24 Q1281.53 1522.21 1281.78 1522.21 L1290.29 1522.4 L1298.72 1522.21 Q1299.66 1522.21 1299.66 1522.95 Q1299.66 1523.89 1299.24 1524.08 Q1298.82 1524.27 1297.4 1524.27 Q1294.99 1524.27 1293.89 1524.59 Q1292.83 1524.88 1292.51 1525.4 Q1292.22 1525.88 1291.86 1527.3 L1285.46 1552.97 Q1285.13 1554.26 1284.94 1555.54 Q1284.78 1556.8 1284.78 1557.44 L1284.75 1558.09 Q1284.75 1562.18 1287 1564.43 Q1289.29 1566.69 1292.8 1566.69 Q1297.95 1566.69 1302.75 1562.6 Q1307.58 1558.51 1309.22 1552.1 L1315.15 1528.56 Q1315.34 1527.98 1315.34 1527.17 Q1315.34 1525.88 1314.38 1525.11 Q1313.44 1524.3 1310.87 1524.27 Q1309.67 1524.27 1309.67 1523.53 Q1309.67 1522.92 1309.9 1522.63 Q1310.16 1522.31 1310.35 1522.28 Q1310.58 1522.21 1310.87 1522.21 Q1311.96 1522.21 1314.28 1522.31 Q1316.6 1522.4 1317.73 1522.4 Q1318.85 1522.4 1321.11 1522.31 Q1323.36 1522.21 1324.46 1522.21 Q1324.84 1522.21 1325.04 1522.4 Q1325.26 1522.57 1325.29 1522.76 L1325.29 1522.95 Z" fill="#000000" fill-rule="nonzero" fill-opacity="1" /><polyline clip-path="url(#clip260)" style="stroke:#000000; stroke-linecap:round; stroke-linejoin:round; stroke-width:4; stroke-opacity:1; fill:none" points="251.027,1410.9 251.027,47.2441 "/>
<polyline clip-path="url(#clip260)" style="stroke:#000000; stroke-linecap:round; stroke-linejoin:round; stroke-width:4; stroke-opacity:1; fill:none" points="2352.76,1410.9 2352.76,47.2441 "/>
<polyline clip-path="url(#clip260)" style="stroke:#000000; stroke-linecap:round; stroke-linejoin:round; stroke-width:4; stroke-opacity:1; fill:none" points="251.027,1140.84 269.925,1140.84 "/>
<polyline clip-path="url(#clip260)" style="stroke:#000000; stroke-linecap:round; stroke-linejoin:round; stroke-width:4; stroke-opacity:1; fill:none" points="251.027,841.32 269.925,841.32 "/>
<polyline clip-path="url(#clip260)" style="stroke:#000000; stroke-linecap:round; stroke-linejoin:round; stroke-width:4; stroke-opacity:1; fill:none" points="251.027,541.798 269.925,541.798 "/>
<polyline clip-path="url(#clip260)" style="stroke:#000000; stroke-linecap:round; stroke-linejoin:round; stroke-width:4; stroke-opacity:1; fill:none" points="251.027,242.276 269.925,242.276 "/>
<polyline clip-path="url(#clip260)" style="stroke:#000000; stroke-linecap:round; stroke-linejoin:round; stroke-width:4; stroke-opacity:1; fill:none" points="2352.76,1140.84 2333.86,1140.84 "/>
<polyline clip-path="url(#clip260)" style="stroke:#000000; stroke-linecap:round; stroke-linejoin:round; stroke-width:4; stroke-opacity:1; fill:none" points="2352.76,841.32 2333.86,841.32 "/>
<polyline clip-path="url(#clip260)" style="stroke:#000000; stroke-linecap:round; stroke-linejoin:round; stroke-width:4; stroke-opacity:1; fill:none" points="2352.76,541.798 2333.86,541.798 "/>
<polyline clip-path="url(#clip260)" style="stroke:#000000; stroke-linecap:round; stroke-linejoin:round; stroke-width:4; stroke-opacity:1; fill:none" points="2352.76,242.276 2333.86,242.276 "/>
<path clip-path="url(#clip260)" d="M147.011 1160.63 L154.65 1160.63 L154.65 1134.27 L146.34 1135.94 L146.34 1131.68 L154.604 1130.01 L159.279 1130.01 L159.279 1160.63 L166.918 1160.63 L166.918 1164.57 L147.011 1164.57 L147.011 1160.63 Z" fill="#000000" fill-rule="nonzero" fill-opacity="1" /><path clip-path="url(#clip260)" d="M186.363 1133.09 Q182.752 1133.09 180.923 1136.65 Q179.117 1140.19 179.117 1147.32 Q179.117 1154.43 180.923 1158 Q182.752 1161.54 186.363 1161.54 Q189.997 1161.54 191.802 1158 Q193.631 1154.43 193.631 1147.32 Q193.631 1140.19 191.802 1136.65 Q189.997 1133.09 186.363 1133.09 M186.363 1129.38 Q192.173 1129.38 195.228 1133.99 Q198.307 1138.57 198.307 1147.32 Q198.307 1156.05 195.228 1160.66 Q192.173 1165.24 186.363 1165.24 Q180.553 1165.24 177.474 1160.66 Q174.418 1156.05 174.418 1147.32 Q174.418 1138.57 177.474 1133.99 Q180.553 1129.38 186.363 1129.38 Z" fill="#000000" fill-rule="nonzero" fill-opacity="1" /><path clip-path="url(#clip260)" d="M198.852 1133.96 L205.059 1133.96 L205.059 1112.54 L198.307 1113.89 L198.307 1110.43 L205.021 1109.08 L208.821 1109.08 L208.821 1133.96 L215.027 1133.96 L215.027 1137.16 L198.852 1137.16 L198.852 1133.96 Z" fill="#000000" fill-rule="nonzero" fill-opacity="1" /><path clip-path="url(#clip260)" d="M145.243 861.113 L152.882 861.113 L152.882 834.747 L144.572 836.414 L144.572 832.154 L152.836 830.488 L157.512 830.488 L157.512 861.113 L165.15 861.113 L165.15 865.048 L145.243 865.048 L145.243 861.113 Z" fill="#000000" fill-rule="nonzero" fill-opacity="1" /><path clip-path="url(#clip260)" d="M184.595 833.566 Q180.984 833.566 179.155 837.131 Q177.349 840.673 177.349 847.802 Q177.349 854.909 179.155 858.474 Q180.984 862.015 184.595 862.015 Q188.229 862.015 190.035 858.474 Q191.863 854.909 191.863 847.802 Q191.863 840.673 190.035 837.131 Q188.229 833.566 184.595 833.566 M184.595 829.863 Q190.405 829.863 193.46 834.469 Q196.539 839.053 196.539 847.802 Q196.539 856.529 193.46 861.136 Q190.405 865.719 184.595 865.719 Q178.785 865.719 175.706 861.136 Q172.65 856.529 172.65 847.802 Q172.65 839.053 175.706 834.469 Q178.785 829.863 184.595 829.863 Z" fill="#000000" fill-rule="nonzero" fill-opacity="1" /><path clip-path="url(#clip260)" d="M209.234 822.497 Q211.962 823.08 213.485 824.923 Q215.027 826.766 215.027 829.475 Q215.027 833.631 212.168 835.907 Q209.31 838.183 204.043 838.183 Q202.276 838.183 200.395 837.825 Q198.533 837.487 196.539 836.791 L196.539 833.123 Q198.119 834.045 200 834.515 Q201.881 834.985 203.931 834.985 Q207.504 834.985 209.366 833.575 Q211.247 832.164 211.247 829.475 Q211.247 826.992 209.498 825.6 Q207.767 824.19 204.664 824.19 L201.392 824.19 L201.392 821.068 L204.815 821.068 Q207.617 821.068 209.103 819.958 Q210.589 818.83 210.589 816.723 Q210.589 814.56 209.046 813.413 Q207.523 812.247 204.664 812.247 Q203.103 812.247 201.316 812.585 Q199.53 812.924 197.385 813.639 L197.385 810.253 Q199.548 809.651 201.429 809.35 Q203.329 809.05 205.003 809.05 Q209.328 809.05 211.849 811.024 Q214.369 812.98 214.369 816.328 Q214.369 818.66 213.034 820.278 Q211.698 821.876 209.234 822.497 Z" fill="#000000" fill-rule="nonzero" fill-opacity="1" /><path clip-path="url(#clip260)" d="M145.563 561.591 L153.202 561.591 L153.202 535.225 L144.892 536.892 L144.892 532.632 L153.155 530.966 L157.831 530.966 L157.831 561.591 L165.47 561.591 L165.47 565.526 L145.563 565.526 L145.563 561.591 Z" fill="#000000" fill-rule="nonzero" fill-opacity="1" /><path clip-path="url(#clip260)" d="M184.914 534.044 Q181.303 534.044 179.475 537.609 Q177.669 541.151 177.669 548.28 Q177.669 555.387 179.475 558.952 Q181.303 562.493 184.914 562.493 Q188.549 562.493 190.354 558.952 Q192.183 555.387 192.183 548.28 Q192.183 541.151 190.354 537.609 Q188.549 534.044 184.914 534.044 M184.914 530.341 Q190.725 530.341 193.78 534.947 Q196.859 539.53 196.859 548.28 Q196.859 557.007 193.78 561.614 Q190.725 566.197 184.914 566.197 Q179.104 566.197 176.026 561.614 Q172.97 557.007 172.97 548.28 Q172.97 539.53 176.026 534.947 Q179.104 530.341 184.914 530.341 Z" fill="#000000" fill-rule="nonzero" fill-opacity="1" /><path clip-path="url(#clip260)" d="M198.044 510.035 L212.958 510.035 L212.958 513.233 L201.523 513.233 L201.523 520.116 Q202.351 519.834 203.178 519.702 Q204.006 519.552 204.833 519.552 Q209.535 519.552 212.281 522.129 Q215.027 524.705 215.027 529.106 Q215.027 533.639 212.206 536.159 Q209.385 538.661 204.25 538.661 Q202.482 538.661 200.639 538.36 Q198.815 538.059 196.859 537.457 L196.859 533.639 Q198.552 534.561 200.357 535.012 Q202.163 535.463 204.175 535.463 Q207.429 535.463 209.328 533.752 Q211.228 532.04 211.228 529.106 Q211.228 526.172 209.328 524.461 Q207.429 522.749 204.175 522.749 Q202.652 522.749 201.128 523.088 Q199.624 523.426 198.044 524.141 L198.044 510.035 Z" fill="#000000" fill-rule="nonzero" fill-opacity="1" /><path clip-path="url(#clip260)" d="M145.676 262.068 L153.315 262.068 L153.315 235.703 L145.004 237.37 L145.004 233.11 L153.268 231.444 L157.944 231.444 L157.944 262.068 L165.583 262.068 L165.583 266.004 L145.676 266.004 L145.676 262.068 Z" fill="#000000" fill-rule="nonzero" fill-opacity="1" /><path clip-path="url(#clip260)" d="M185.027 234.522 Q181.416 234.522 179.588 238.087 Q177.782 241.629 177.782 248.758 Q177.782 255.865 179.588 259.43 Q181.416 262.971 185.027 262.971 Q188.662 262.971 190.467 259.43 Q192.296 255.865 192.296 248.758 Q192.296 241.629 190.467 238.087 Q188.662 234.522 185.027 234.522 M185.027 230.819 Q190.837 230.819 193.893 235.425 Q196.972 240.008 196.972 248.758 Q196.972 257.485 193.893 262.092 Q190.837 266.675 185.027 266.675 Q179.217 266.675 176.138 262.092 Q173.083 257.485 173.083 248.758 Q173.083 240.008 176.138 235.425 Q179.217 230.819 185.027 230.819 Z" fill="#000000" fill-rule="nonzero" fill-opacity="1" /><path clip-path="url(#clip260)" d="M196.972 210.513 L215.027 210.513 L215.027 212.131 L204.833 238.593 L200.865 238.593 L210.457 213.711 L196.972 213.711 L196.972 210.513 Z" fill="#000000" fill-rule="nonzero" fill-opacity="1" /><path clip-path="url(#clip260)" d="M100.165 824.949 L38.2652 824.949 Q36.3006 824.949 36.3006 823.629 Q36.3006 822.308 38.3618 822.308 L100.004 822.308 Q102.129 822.308 102.129 823.629 Q102.129 824.949 100.165 824.949 M100.165 817.671 L38.7482 817.671 Q36.3006 817.671 36.3006 816.35 Q36.3006 815.03 38.3618 815.03 L100.004 815.03 Q102.129 815.03 102.129 816.35 Q102.129 817.671 100.165 817.671 Z" fill="#000000" fill-rule="nonzero" fill-opacity="1" /><path clip-path="url(#clip260)" d="M84.3839 747.036 Q84.9959 747.036 85.3179 747.294 Q85.6078 747.519 85.6722 747.745 Q85.7044 747.938 85.7044 748.228 Q85.7044 749.065 85.6078 751.964 Q85.5112 754.862 85.5112 755.699 Q85.5112 757.052 85.6078 759.822 Q85.7044 762.591 85.7044 763.944 Q85.7044 764.846 84.9637 764.846 Q84.4806 764.846 84.2229 764.749 Q83.9331 764.653 83.8364 764.395 Q83.7076 764.105 83.7076 763.944 Q83.6754 763.751 83.6754 763.268 Q83.6754 762.624 83.611 761.947 Q83.5144 761.271 83.3212 760.434 Q83.1279 759.596 82.6448 759.081 Q82.1617 758.534 81.4854 758.534 Q81.1956 758.534 78.8123 758.759 Q76.4291 758.984 73.6594 759.274 Q70.8575 759.564 70.471 759.596 L70.471 776.15 Q73.0797 777.664 74.8832 778.727 Q76.6867 779.789 77.2987 780.176 Q77.9106 780.562 78.297 780.788 Q78.6835 781.013 78.9089 781.142 Q80.6159 782.076 81.3566 782.076 Q83.4178 782.076 83.6754 778.984 Q83.6754 777.921 84.4484 777.921 Q85.0281 777.921 85.3501 778.179 Q85.64 778.437 85.6722 778.662 Q85.7044 778.855 85.7044 779.177 Q85.7044 780.24 85.6078 782.462 Q85.5112 784.685 85.5112 785.78 Q85.5112 786.714 85.6078 788.646 Q85.7044 790.578 85.7044 791.448 Q85.7044 791.834 85.4789 792.06 Q85.2535 792.285 84.9637 792.285 Q84.5128 792.285 84.2551 792.221 Q83.9975 792.124 83.8687 791.867 Q83.7398 791.609 83.7398 791.48 Q83.7076 791.351 83.6754 790.9 Q83.5144 788.453 82.355 786.553 Q81.1634 784.62 78.1038 782.785 L39.5856 759.854 Q39.1991 759.629 39.0059 759.467 Q38.8127 759.306 38.6516 758.984 Q38.4906 758.63 38.4906 758.115 Q38.4906 757.31 38.7482 757.149 Q38.9737 756.988 40.0687 756.891 L81.2922 752.865 Q82.1617 752.769 82.516 752.704 Q82.8381 752.608 83.1923 752.189 Q83.5144 751.738 83.611 750.933 Q83.6754 750.096 83.6754 748.55 Q83.6754 747.97 83.7076 747.745 Q83.7076 747.519 83.8687 747.294 Q84.0297 747.036 84.3839 747.036 M68.4098 759.79 L46.6709 761.883 L68.4098 774.894 L68.4098 759.79 Z" fill="#000000" fill-rule="nonzero" fill-opacity="1" /><path clip-path="url(#clip260)" d="M26.2565 740.433 Q18.4562 740.433 12.1664 737.525 Q9.52877 736.285 7.31945 734.549 Q5.11012 732.813 4.14073 731.663 Q3.17133 730.513 3.17133 730.198 Q3.17133 729.747 3.62221 729.724 Q3.84766 729.724 4.41126 730.333 Q11.9861 737.773 26.2565 737.75 Q40.572 737.75 47.8537 730.513 Q48.6428 729.724 48.8908 729.724 Q49.3417 729.724 49.3417 730.198 Q49.3417 730.513 48.4173 731.618 Q47.493 732.723 45.3739 734.436 Q43.2547 736.149 40.6622 737.389 Q34.3724 740.433 26.2565 740.433 Z" fill="#000000" fill-rule="nonzero" fill-opacity="1" /><path clip-path="url(#clip260)" d="M31.1937 701.376 Q31.374 701.376 32.0729 701.579 Q32.7717 701.781 33.8539 702.277 Q34.936 702.751 35.9279 703.405 Q36.8973 704.058 37.6187 705.14 Q38.3176 706.2 38.3176 707.417 Q38.3176 709.041 37.2355 710.123 Q36.1534 711.205 34.5302 711.205 Q33.6284 711.205 32.3885 710.731 Q24.3853 707.733 21.635 707.733 Q18.4111 707.733 18.4111 710.235 Q18.4111 711.475 18.8846 712.648 Q19.3355 713.797 19.9667 714.586 Q20.5979 715.376 21.4771 716.097 Q22.3338 716.796 22.92 717.157 Q23.4836 717.495 24.0472 717.765 L26.3467 718.351 Q26.9779 718.487 29.4352 719.14 L33.6059 720.155 Q36.717 720.876 37.01 721.034 Q37.6413 721.26 37.9794 721.756 Q38.3176 722.251 38.3176 722.747 Q38.3176 723.311 37.9794 723.694 Q37.6413 724.078 37.0551 724.078 Q36.9649 724.078 36.6268 724.01 Q36.2886 723.942 35.8152 723.83 Q35.3418 723.717 35.0712 723.672 L24.4079 720.989 Q22.4691 720.493 21.8604 720.38 Q21.2292 720.245 20.5303 720.245 Q18.4111 720.245 18.4111 721.688 Q18.4111 722.86 19.8089 723.627 Q21.2066 724.393 23.9119 725.047 Q24.6559 725.25 24.8137 725.385 Q24.9715 725.498 24.9715 725.836 Q24.9489 726.4 24.4981 726.4 Q24.3853 726.4 23.6414 726.219 Q22.8974 726.039 21.8378 725.701 Q20.7557 725.34 20.0343 725.002 Q19.4933 724.709 19.2453 724.551 Q18.9747 724.371 18.4562 723.942 Q17.9152 723.491 17.6672 722.905 Q17.3967 722.297 17.3967 721.553 Q17.3967 719.884 18.4788 718.667 Q19.5384 717.45 21.4095 717.292 Q17.3967 714.293 17.3967 710.1 Q17.3967 707.62 18.7042 706.2 Q20.0118 704.78 22.3338 704.78 Q22.8749 704.78 23.5737 704.893 Q24.2501 704.983 25.1067 705.208 Q25.9634 705.411 26.6172 705.591 Q27.271 705.772 28.3306 706.132 Q29.3676 706.493 29.8185 706.651 Q30.2693 706.809 31.3289 707.192 Q32.3659 707.553 32.4787 707.598 Q34.5753 708.432 35.7701 708.432 Q36.5591 708.432 36.9199 708.184 Q37.2806 707.913 37.2806 707.327 Q37.2806 705.749 35.725 704.577 Q34.1469 703.382 31.5769 702.616 Q31.0133 702.435 30.878 702.345 Q30.7428 702.232 30.7428 701.917 Q30.7428 701.376 31.1937 701.376 Z" fill="#000000" fill-rule="nonzero" fill-opacity="1" /><path clip-path="url(#clip260)" d="M48.8908 696.947 Q48.6653 696.947 48.1017 696.361 Q40.5269 688.921 26.2565 688.921 Q11.941 688.921 4.70433 696.068 Q3.8702 696.947 3.62221 696.947 Q3.17133 696.947 3.17133 696.496 Q3.17133 696.18 4.09564 695.076 Q5.01995 693.948 7.13909 692.258 Q9.25824 690.544 11.8508 689.282 Q18.1406 686.238 26.2565 686.238 Q34.0568 686.238 40.3466 689.147 Q42.9842 690.387 45.1935 692.122 Q47.4029 693.858 48.3723 695.008 Q49.3417 696.158 49.3417 696.496 Q49.3417 696.947 48.8908 696.947 Z" fill="#000000" fill-rule="nonzero" fill-opacity="1" /><path clip-path="url(#clip260)" d="M100.165 672.178 L38.2652 672.178 Q36.3006 672.178 36.3006 670.857 Q36.3006 669.537 38.3618 669.537 L100.004 669.537 Q102.129 669.537 102.129 670.857 Q102.129 672.178 100.165 672.178 M100.165 664.899 L38.7482 664.899 Q36.3006 664.899 36.3006 663.579 Q36.3006 662.258 38.3618 662.258 L100.004 662.258 Q102.129 662.258 102.129 663.579 Q102.129 664.899 100.165 664.899 Z" fill="#000000" fill-rule="nonzero" fill-opacity="1" /><path clip-path="url(#clip260)" d="M93.8925 655.325 L92.4497 655.325 Q92.4497 649.779 89.4964 646.916 Q89.4964 646.127 89.6768 645.992 Q89.8571 645.857 90.6913 645.857 L116.594 645.857 Q117.97 645.857 118.398 645.18 Q118.826 644.504 118.826 641.551 L118.826 640.085 L120.247 640.085 Q120.111 641.709 120.111 647.57 Q120.111 653.431 120.247 655.032 L118.826 655.032 L118.826 653.567 Q118.826 650.659 118.421 649.96 Q117.992 649.261 116.594 649.261 L92.6751 649.261 Q93.8925 651.673 93.8925 655.325 Z" fill="#000000" fill-rule="nonzero" fill-opacity="1" /><circle clip-path="url(#clip262)" cx="310.51" cy="821.395" r="14.4" fill="#de8f05" fill-rule="evenodd" fill-opacity="1" stroke="#000000" stroke-opacity="1" stroke-width="3.2"/>
<circle clip-path="url(#clip262)" cx="364.098" cy="819.131" r="14.4" fill="#de8f05" fill-rule="evenodd" fill-opacity="1" stroke="#000000" stroke-opacity="1" stroke-width="3.2"/>
<circle clip-path="url(#clip262)" cx="417.686" cy="638.196" r="14.4" fill="#de8f05" fill-rule="evenodd" fill-opacity="1" stroke="#000000" stroke-opacity="1" stroke-width="3.2"/>
<circle clip-path="url(#clip262)" cx="471.275" cy="818.531" r="14.4" fill="#de8f05" fill-rule="evenodd" fill-opacity="1" stroke="#000000" stroke-opacity="1" stroke-width="3.2"/>
<circle clip-path="url(#clip262)" cx="524.863" cy="817.744" r="14.4" fill="#de8f05" fill-rule="evenodd" fill-opacity="1" stroke="#000000" stroke-opacity="1" stroke-width="3.2"/>
<circle clip-path="url(#clip262)" cx="578.451" cy="822.723" r="14.4" fill="#de8f05" fill-rule="evenodd" fill-opacity="1" stroke="#000000" stroke-opacity="1" stroke-width="3.2"/>
<circle clip-path="url(#clip262)" cx="632.039" cy="819.093" r="14.4" fill="#de8f05" fill-rule="evenodd" fill-opacity="1" stroke="#000000" stroke-opacity="1" stroke-width="3.2"/>
<circle clip-path="url(#clip262)" cx="685.627" cy="821" r="14.4" fill="#de8f05" fill-rule="evenodd" fill-opacity="1" stroke="#000000" stroke-opacity="1" stroke-width="3.2"/>
<circle clip-path="url(#clip262)" cx="739.216" cy="820.336" r="14.4" fill="#de8f05" fill-rule="evenodd" fill-opacity="1" stroke="#000000" stroke-opacity="1" stroke-width="3.2"/>
<circle clip-path="url(#clip262)" cx="792.804" cy="495.771" r="14.4" fill="#de8f05" fill-rule="evenodd" fill-opacity="1" stroke="#000000" stroke-opacity="1" stroke-width="3.2"/>
<circle clip-path="url(#clip262)" cx="846.392" cy="817.547" r="14.4" fill="#de8f05" fill-rule="evenodd" fill-opacity="1" stroke="#000000" stroke-opacity="1" stroke-width="3.2"/>
<circle clip-path="url(#clip262)" cx="899.98" cy="758.583" r="14.4" fill="#de8f05" fill-rule="evenodd" fill-opacity="1" stroke="#000000" stroke-opacity="1" stroke-width="3.2"/>
<circle clip-path="url(#clip262)" cx="953.568" cy="817.906" r="14.4" fill="#de8f05" fill-rule="evenodd" fill-opacity="1" stroke="#000000" stroke-opacity="1" stroke-width="3.2"/>
<circle clip-path="url(#clip262)" cx="1007.16" cy="798.685" r="14.4" fill="#de8f05" fill-rule="evenodd" fill-opacity="1" stroke="#000000" stroke-opacity="1" stroke-width="3.2"/>
<circle clip-path="url(#clip262)" cx="1060.74" cy="844.909" r="14.4" fill="#de8f05" fill-rule="evenodd" fill-opacity="1" stroke="#000000" stroke-opacity="1" stroke-width="3.2"/>
<circle clip-path="url(#clip262)" cx="1114.33" cy="85.838" r="14.4" fill="#de8f05" fill-rule="evenodd" fill-opacity="1" stroke="#000000" stroke-opacity="1" stroke-width="3.2"/>
<circle clip-path="url(#clip262)" cx="1167.92" cy="575.676" r="14.4" fill="#de8f05" fill-rule="evenodd" fill-opacity="1" stroke="#000000" stroke-opacity="1" stroke-width="3.2"/>
<circle clip-path="url(#clip262)" cx="1221.51" cy="823.89" r="14.4" fill="#de8f05" fill-rule="evenodd" fill-opacity="1" stroke="#000000" stroke-opacity="1" stroke-width="3.2"/>
<circle clip-path="url(#clip262)" cx="1275.1" cy="795.153" r="14.4" fill="#de8f05" fill-rule="evenodd" fill-opacity="1" stroke="#000000" stroke-opacity="1" stroke-width="3.2"/>
<circle clip-path="url(#clip262)" cx="1328.69" cy="717.505" r="14.4" fill="#de8f05" fill-rule="evenodd" fill-opacity="1" stroke="#000000" stroke-opacity="1" stroke-width="3.2"/>
<circle clip-path="url(#clip262)" cx="1382.27" cy="829.157" r="14.4" fill="#de8f05" fill-rule="evenodd" fill-opacity="1" stroke="#000000" stroke-opacity="1" stroke-width="3.2"/>
<circle clip-path="url(#clip262)" cx="1435.86" cy="817.655" r="14.4" fill="#de8f05" fill-rule="evenodd" fill-opacity="1" stroke="#000000" stroke-opacity="1" stroke-width="3.2"/>
<circle clip-path="url(#clip262)" cx="1489.45" cy="820.78" r="14.4" fill="#de8f05" fill-rule="evenodd" fill-opacity="1" stroke="#000000" stroke-opacity="1" stroke-width="3.2"/>
<circle clip-path="url(#clip262)" cx="1543.04" cy="822.514" r="14.4" fill="#de8f05" fill-rule="evenodd" fill-opacity="1" stroke="#000000" stroke-opacity="1" stroke-width="3.2"/>
<circle clip-path="url(#clip262)" cx="1596.63" cy="815.96" r="14.4" fill="#de8f05" fill-rule="evenodd" fill-opacity="1" stroke="#000000" stroke-opacity="1" stroke-width="3.2"/>
<circle clip-path="url(#clip262)" cx="1645.57" cy="819.351" r="14.4" fill="#de8f05" fill-rule="evenodd" fill-opacity="1" stroke="#000000" stroke-opacity="1" stroke-width="3.2"/>
<circle clip-path="url(#clip262)" cx="1650.21" cy="819.871" r="14.4" fill="#de8f05" fill-rule="evenodd" fill-opacity="1" stroke="#000000" stroke-opacity="1" stroke-width="3.2"/>
<circle clip-path="url(#clip262)" cx="1674.52" cy="789.109" r="14.4" fill="#de8f05" fill-rule="evenodd" fill-opacity="1" stroke="#000000" stroke-opacity="1" stroke-width="3.2"/>
<circle clip-path="url(#clip262)" cx="1699.49" cy="808.558" r="14.4" fill="#de8f05" fill-rule="evenodd" fill-opacity="1" stroke="#000000" stroke-opacity="1" stroke-width="3.2"/>
<circle clip-path="url(#clip262)" cx="1703.8" cy="846.881" r="14.4" fill="#de8f05" fill-rule="evenodd" fill-opacity="1" stroke="#000000" stroke-opacity="1" stroke-width="3.2"/>
<circle clip-path="url(#clip262)" cx="1721.43" cy="829.884" r="14.4" fill="#de8f05" fill-rule="evenodd" fill-opacity="1" stroke="#000000" stroke-opacity="1" stroke-width="3.2"/>
<circle clip-path="url(#clip262)" cx="1741.01" cy="814.156" r="14.4" fill="#de8f05" fill-rule="evenodd" fill-opacity="1" stroke="#000000" stroke-opacity="1" stroke-width="3.2"/>
<circle clip-path="url(#clip262)" cx="1757.39" cy="813.096" r="14.4" fill="#de8f05" fill-rule="evenodd" fill-opacity="1" stroke="#000000" stroke-opacity="1" stroke-width="3.2"/>
<circle clip-path="url(#clip262)" cx="1758.68" cy="820.989" r="14.4" fill="#de8f05" fill-rule="evenodd" fill-opacity="1" stroke="#000000" stroke-opacity="1" stroke-width="3.2"/>
<circle clip-path="url(#clip262)" cx="1774.78" cy="810.897" r="14.4" fill="#de8f05" fill-rule="evenodd" fill-opacity="1" stroke="#000000" stroke-opacity="1" stroke-width="3.2"/>
<circle clip-path="url(#clip262)" cx="1789.56" cy="810.848" r="14.4" fill="#de8f05" fill-rule="evenodd" fill-opacity="1" stroke="#000000" stroke-opacity="1" stroke-width="3.2"/>
<circle clip-path="url(#clip262)" cx="1803.24" cy="845.212" r="14.4" fill="#de8f05" fill-rule="evenodd" fill-opacity="1" stroke="#000000" stroke-opacity="1" stroke-width="3.2"/>
<circle clip-path="url(#clip262)" cx="1810.98" cy="808.65" r="14.4" fill="#de8f05" fill-rule="evenodd" fill-opacity="1" stroke="#000000" stroke-opacity="1" stroke-width="3.2"/>
<circle clip-path="url(#clip262)" cx="1815.95" cy="819.513" r="14.4" fill="#de8f05" fill-rule="evenodd" fill-opacity="1" stroke="#000000" stroke-opacity="1" stroke-width="3.2"/>
<circle clip-path="url(#clip262)" cx="1827.83" cy="813.669" r="14.4" fill="#de8f05" fill-rule="evenodd" fill-opacity="1" stroke="#000000" stroke-opacity="1" stroke-width="3.2"/>
<circle clip-path="url(#clip262)" cx="1838.99" cy="729.907" r="14.4" fill="#de8f05" fill-rule="evenodd" fill-opacity="1" stroke="#000000" stroke-opacity="1" stroke-width="3.2"/>
<circle clip-path="url(#clip262)" cx="1849.49" cy="822.167" r="14.4" fill="#de8f05" fill-rule="evenodd" fill-opacity="1" stroke="#000000" stroke-opacity="1" stroke-width="3.2"/>
<circle clip-path="url(#clip262)" cx="1859.43" cy="811.066" r="14.4" fill="#de8f05" fill-rule="evenodd" fill-opacity="1" stroke="#000000" stroke-opacity="1" stroke-width="3.2"/>
<circle clip-path="url(#clip262)" cx="1864.57" cy="819.711" r="14.4" fill="#de8f05" fill-rule="evenodd" fill-opacity="1" stroke="#000000" stroke-opacity="1" stroke-width="3.2"/>
<circle clip-path="url(#clip262)" cx="1868.84" cy="705.731" r="14.4" fill="#de8f05" fill-rule="evenodd" fill-opacity="1" stroke="#000000" stroke-opacity="1" stroke-width="3.2"/>
<circle clip-path="url(#clip262)" cx="1877.79" cy="251.237" r="14.4" fill="#de8f05" fill-rule="evenodd" fill-opacity="1" stroke="#000000" stroke-opacity="1" stroke-width="3.2"/>
<circle clip-path="url(#clip262)" cx="1886.32" cy="828.724" r="14.4" fill="#de8f05" fill-rule="evenodd" fill-opacity="1" stroke="#000000" stroke-opacity="1" stroke-width="3.2"/>
<circle clip-path="url(#clip262)" cx="1894.47" cy="826.074" r="14.4" fill="#de8f05" fill-rule="evenodd" fill-opacity="1" stroke="#000000" stroke-opacity="1" stroke-width="3.2"/>
<circle clip-path="url(#clip262)" cx="1902.27" cy="807.935" r="14.4" fill="#de8f05" fill-rule="evenodd" fill-opacity="1" stroke="#000000" stroke-opacity="1" stroke-width="3.2"/>
<circle clip-path="url(#clip262)" cx="1909.75" cy="792.308" r="14.4" fill="#de8f05" fill-rule="evenodd" fill-opacity="1" stroke="#000000" stroke-opacity="1" stroke-width="3.2"/>
<circle clip-path="url(#clip262)" cx="1918.16" cy="838.387" r="14.4" fill="#de8f05" fill-rule="evenodd" fill-opacity="1" stroke="#000000" stroke-opacity="1" stroke-width="3.2"/>
<circle clip-path="url(#clip262)" cx="1971.74" cy="828.968" r="14.4" fill="#de8f05" fill-rule="evenodd" fill-opacity="1" stroke="#000000" stroke-opacity="1" stroke-width="3.2"/>
<circle clip-path="url(#clip262)" cx="2025.33" cy="808.734" r="14.4" fill="#de8f05" fill-rule="evenodd" fill-opacity="1" stroke="#000000" stroke-opacity="1" stroke-width="3.2"/>
<circle clip-path="url(#clip262)" cx="2078.92" cy="816.446" r="14.4" fill="#de8f05" fill-rule="evenodd" fill-opacity="1" stroke="#000000" stroke-opacity="1" stroke-width="3.2"/>
<circle clip-path="url(#clip262)" cx="2132.51" cy="796.422" r="14.4" fill="#de8f05" fill-rule="evenodd" fill-opacity="1" stroke="#000000" stroke-opacity="1" stroke-width="3.2"/>
<circle clip-path="url(#clip262)" cx="2186.1" cy="817.762" r="14.4" fill="#de8f05" fill-rule="evenodd" fill-opacity="1" stroke="#000000" stroke-opacity="1" stroke-width="3.2"/>
<circle clip-path="url(#clip262)" cx="2239.68" cy="830.619" r="14.4" fill="#de8f05" fill-rule="evenodd" fill-opacity="1" stroke="#000000" stroke-opacity="1" stroke-width="3.2"/>
<circle clip-path="url(#clip262)" cx="2293.27" cy="815.459" r="14.4" fill="#de8f05" fill-rule="evenodd" fill-opacity="1" stroke="#000000" stroke-opacity="1" stroke-width="3.2"/>
<circle clip-path="url(#clip262)" cx="310.51" cy="831.387" r="14.4" fill="#029e73" fill-rule="evenodd" fill-opacity="1" stroke="#000000" stroke-opacity="1" stroke-width="3.2"/>
<circle clip-path="url(#clip262)" cx="364.098" cy="831.607" r="14.4" fill="#029e73" fill-rule="evenodd" fill-opacity="1" stroke="#000000" stroke-opacity="1" stroke-width="3.2"/>
<circle clip-path="url(#clip262)" cx="417.686" cy="741.661" r="14.4" fill="#029e73" fill-rule="evenodd" fill-opacity="1" stroke="#000000" stroke-opacity="1" stroke-width="3.2"/>
<circle clip-path="url(#clip262)" cx="471.275" cy="1372.3" r="14.4" fill="#029e73" fill-rule="evenodd" fill-opacity="1" stroke="#000000" stroke-opacity="1" stroke-width="3.2"/>
<circle clip-path="url(#clip262)" cx="524.863" cy="831.86" r="14.4" fill="#029e73" fill-rule="evenodd" fill-opacity="1" stroke="#000000" stroke-opacity="1" stroke-width="3.2"/>
<circle clip-path="url(#clip262)" cx="578.451" cy="831.187" r="14.4" fill="#029e73" fill-rule="evenodd" fill-opacity="1" stroke="#000000" stroke-opacity="1" stroke-width="3.2"/>
<circle clip-path="url(#clip262)" cx="632.039" cy="832.411" r="14.4" fill="#029e73" fill-rule="evenodd" fill-opacity="1" stroke="#000000" stroke-opacity="1" stroke-width="3.2"/>
<circle clip-path="url(#clip262)" cx="685.627" cy="832.196" r="14.4" fill="#029e73" fill-rule="evenodd" fill-opacity="1" stroke="#000000" stroke-opacity="1" stroke-width="3.2"/>
<circle clip-path="url(#clip262)" cx="739.216" cy="833.762" r="14.4" fill="#029e73" fill-rule="evenodd" fill-opacity="1" stroke="#000000" stroke-opacity="1" stroke-width="3.2"/>
<circle clip-path="url(#clip262)" cx="792.804" cy="701.894" r="14.4" fill="#029e73" fill-rule="evenodd" fill-opacity="1" stroke="#000000" stroke-opacity="1" stroke-width="3.2"/>
<circle clip-path="url(#clip262)" cx="846.392" cy="831.269" r="14.4" fill="#029e73" fill-rule="evenodd" fill-opacity="1" stroke="#000000" stroke-opacity="1" stroke-width="3.2"/>
<circle clip-path="url(#clip262)" cx="899.98" cy="821.199" r="14.4" fill="#029e73" fill-rule="evenodd" fill-opacity="1" stroke="#000000" stroke-opacity="1" stroke-width="3.2"/>
<circle clip-path="url(#clip262)" cx="953.568" cy="832.116" r="14.4" fill="#029e73" fill-rule="evenodd" fill-opacity="1" stroke="#000000" stroke-opacity="1" stroke-width="3.2"/>
<circle clip-path="url(#clip262)" cx="1007.16" cy="825.024" r="14.4" fill="#029e73" fill-rule="evenodd" fill-opacity="1" stroke="#000000" stroke-opacity="1" stroke-width="3.2"/>
<circle clip-path="url(#clip262)" cx="1060.74" cy="1169.96" r="14.4" fill="#029e73" fill-rule="evenodd" fill-opacity="1" stroke="#000000" stroke-opacity="1" stroke-width="3.2"/>
<circle clip-path="url(#clip262)" cx="1114.33" cy="713.183" r="14.4" fill="#029e73" fill-rule="evenodd" fill-opacity="1" stroke="#000000" stroke-opacity="1" stroke-width="3.2"/>
<circle clip-path="url(#clip262)" cx="1167.92" cy="694.717" r="14.4" fill="#029e73" fill-rule="evenodd" fill-opacity="1" stroke="#000000" stroke-opacity="1" stroke-width="3.2"/>
<circle clip-path="url(#clip262)" cx="1221.51" cy="831.243" r="14.4" fill="#029e73" fill-rule="evenodd" fill-opacity="1" stroke="#000000" stroke-opacity="1" stroke-width="3.2"/>
<circle clip-path="url(#clip262)" cx="1275.1" cy="827.687" r="14.4" fill="#029e73" fill-rule="evenodd" fill-opacity="1" stroke="#000000" stroke-opacity="1" stroke-width="3.2"/>
<circle clip-path="url(#clip262)" cx="1328.69" cy="797.474" r="14.4" fill="#029e73" fill-rule="evenodd" fill-opacity="1" stroke="#000000" stroke-opacity="1" stroke-width="3.2"/>
<circle clip-path="url(#clip262)" cx="1382.27" cy="1048.29" r="14.4" fill="#029e73" fill-rule="evenodd" fill-opacity="1" stroke="#000000" stroke-opacity="1" stroke-width="3.2"/>
<circle clip-path="url(#clip262)" cx="1435.86" cy="1025.91" r="14.4" fill="#029e73" fill-rule="evenodd" fill-opacity="1" stroke="#000000" stroke-opacity="1" stroke-width="3.2"/>
<circle clip-path="url(#clip262)" cx="1489.45" cy="831.021" r="14.4" fill="#029e73" fill-rule="evenodd" fill-opacity="1" stroke="#000000" stroke-opacity="1" stroke-width="3.2"/>
<circle clip-path="url(#clip262)" cx="1543.04" cy="829.767" r="14.4" fill="#029e73" fill-rule="evenodd" fill-opacity="1" stroke="#000000" stroke-opacity="1" stroke-width="3.2"/>
<circle clip-path="url(#clip262)" cx="1596.63" cy="965.811" r="14.4" fill="#029e73" fill-rule="evenodd" fill-opacity="1" stroke="#000000" stroke-opacity="1" stroke-width="3.2"/>
<circle clip-path="url(#clip262)" cx="1645.57" cy="828.202" r="14.4" fill="#029e73" fill-rule="evenodd" fill-opacity="1" stroke="#000000" stroke-opacity="1" stroke-width="3.2"/>
<circle clip-path="url(#clip262)" cx="1650.21" cy="827.856" r="14.4" fill="#029e73" fill-rule="evenodd" fill-opacity="1" stroke="#000000" stroke-opacity="1" stroke-width="3.2"/>
<circle clip-path="url(#clip262)" cx="1674.52" cy="820.069" r="14.4" fill="#029e73" fill-rule="evenodd" fill-opacity="1" stroke="#000000" stroke-opacity="1" stroke-width="3.2"/>
<circle clip-path="url(#clip262)" cx="1699.49" cy="825.697" r="14.4" fill="#029e73" fill-rule="evenodd" fill-opacity="1" stroke="#000000" stroke-opacity="1" stroke-width="3.2"/>
<circle clip-path="url(#clip262)" cx="1703.8" cy="927.908" r="14.4" fill="#029e73" fill-rule="evenodd" fill-opacity="1" stroke="#000000" stroke-opacity="1" stroke-width="3.2"/>
<circle clip-path="url(#clip262)" cx="1721.43" cy="918.304" r="14.4" fill="#029e73" fill-rule="evenodd" fill-opacity="1" stroke="#000000" stroke-opacity="1" stroke-width="3.2"/>
<circle clip-path="url(#clip262)" cx="1741.01" cy="824.545" r="14.4" fill="#029e73" fill-rule="evenodd" fill-opacity="1" stroke="#000000" stroke-opacity="1" stroke-width="3.2"/>
<circle clip-path="url(#clip262)" cx="1757.39" cy="825.118" r="14.4" fill="#029e73" fill-rule="evenodd" fill-opacity="1" stroke="#000000" stroke-opacity="1" stroke-width="3.2"/>
<circle clip-path="url(#clip262)" cx="1758.68" cy="904.476" r="14.4" fill="#029e73" fill-rule="evenodd" fill-opacity="1" stroke="#000000" stroke-opacity="1" stroke-width="3.2"/>
<circle clip-path="url(#clip262)" cx="1774.78" cy="823.633" r="14.4" fill="#029e73" fill-rule="evenodd" fill-opacity="1" stroke="#000000" stroke-opacity="1" stroke-width="3.2"/>
<circle clip-path="url(#clip262)" cx="1789.56" cy="821.633" r="14.4" fill="#029e73" fill-rule="evenodd" fill-opacity="1" stroke="#000000" stroke-opacity="1" stroke-width="3.2"/>
<circle clip-path="url(#clip262)" cx="1803.24" cy="889.632" r="14.4" fill="#029e73" fill-rule="evenodd" fill-opacity="1" stroke="#000000" stroke-opacity="1" stroke-width="3.2"/>
<circle clip-path="url(#clip262)" cx="1810.98" cy="821.263" r="14.4" fill="#029e73" fill-rule="evenodd" fill-opacity="1" stroke="#000000" stroke-opacity="1" stroke-width="3.2"/>
<circle clip-path="url(#clip262)" cx="1815.95" cy="819.469" r="14.4" fill="#029e73" fill-rule="evenodd" fill-opacity="1" stroke="#000000" stroke-opacity="1" stroke-width="3.2"/>
<circle clip-path="url(#clip262)" cx="1827.83" cy="879.22" r="14.4" fill="#029e73" fill-rule="evenodd" fill-opacity="1" stroke="#000000" stroke-opacity="1" stroke-width="3.2"/>
<circle clip-path="url(#clip262)" cx="1838.99" cy="781.292" r="14.4" fill="#029e73" fill-rule="evenodd" fill-opacity="1" stroke="#000000" stroke-opacity="1" stroke-width="3.2"/>
<circle clip-path="url(#clip262)" cx="1849.49" cy="873.726" r="14.4" fill="#029e73" fill-rule="evenodd" fill-opacity="1" stroke="#000000" stroke-opacity="1" stroke-width="3.2"/>
<circle clip-path="url(#clip262)" cx="1859.43" cy="815.72" r="14.4" fill="#029e73" fill-rule="evenodd" fill-opacity="1" stroke="#000000" stroke-opacity="1" stroke-width="3.2"/>
<circle clip-path="url(#clip262)" cx="1864.57" cy="869.028" r="14.4" fill="#029e73" fill-rule="evenodd" fill-opacity="1" stroke="#000000" stroke-opacity="1" stroke-width="3.2"/>
<circle clip-path="url(#clip262)" cx="1868.84" cy="771.029" r="14.4" fill="#029e73" fill-rule="evenodd" fill-opacity="1" stroke="#000000" stroke-opacity="1" stroke-width="3.2"/>
<circle clip-path="url(#clip262)" cx="1877.79" cy="660.17" r="14.4" fill="#029e73" fill-rule="evenodd" fill-opacity="1" stroke="#000000" stroke-opacity="1" stroke-width="3.2"/>
<circle clip-path="url(#clip262)" cx="1886.32" cy="861.4" r="14.4" fill="#029e73" fill-rule="evenodd" fill-opacity="1" stroke="#000000" stroke-opacity="1" stroke-width="3.2"/>
<circle clip-path="url(#clip262)" cx="1894.47" cy="859.409" r="14.4" fill="#029e73" fill-rule="evenodd" fill-opacity="1" stroke="#000000" stroke-opacity="1" stroke-width="3.2"/>
<circle clip-path="url(#clip262)" cx="1902.27" cy="811.974" r="14.4" fill="#029e73" fill-rule="evenodd" fill-opacity="1" stroke="#000000" stroke-opacity="1" stroke-width="3.2"/>
<circle clip-path="url(#clip262)" cx="1909.75" cy="809.121" r="14.4" fill="#029e73" fill-rule="evenodd" fill-opacity="1" stroke="#000000" stroke-opacity="1" stroke-width="3.2"/>
<circle clip-path="url(#clip262)" cx="1918.16" cy="852.584" r="14.4" fill="#029e73" fill-rule="evenodd" fill-opacity="1" stroke="#000000" stroke-opacity="1" stroke-width="3.2"/>
<circle clip-path="url(#clip262)" cx="1971.74" cy="840.055" r="14.4" fill="#029e73" fill-rule="evenodd" fill-opacity="1" stroke="#000000" stroke-opacity="1" stroke-width="3.2"/>
<circle clip-path="url(#clip262)" cx="2025.33" cy="803.275" r="14.4" fill="#029e73" fill-rule="evenodd" fill-opacity="1" stroke="#000000" stroke-opacity="1" stroke-width="3.2"/>
<circle clip-path="url(#clip262)" cx="2078.92" cy="823.097" r="14.4" fill="#029e73" fill-rule="evenodd" fill-opacity="1" stroke="#000000" stroke-opacity="1" stroke-width="3.2"/>
<circle clip-path="url(#clip262)" cx="2132.51" cy="798.757" r="14.4" fill="#029e73" fill-rule="evenodd" fill-opacity="1" stroke="#000000" stroke-opacity="1" stroke-width="3.2"/>
<circle clip-path="url(#clip262)" cx="2186.1" cy="813.073" r="14.4" fill="#029e73" fill-rule="evenodd" fill-opacity="1" stroke="#000000" stroke-opacity="1" stroke-width="3.2"/>
<circle clip-path="url(#clip262)" cx="2239.68" cy="810.465" r="14.4" fill="#029e73" fill-rule="evenodd" fill-opacity="1" stroke="#000000" stroke-opacity="1" stroke-width="3.2"/>
<circle clip-path="url(#clip262)" cx="2293.27" cy="805.737" r="14.4" fill="#029e73" fill-rule="evenodd" fill-opacity="1" stroke="#000000" stroke-opacity="1" stroke-width="3.2"/>
<path clip-path="url(#clip260)" d="M321.085 248.219 L647.046 248.219 L647.046 92.6992 L321.085 92.6992  Z" fill="#ffffff" fill-rule="evenodd" fill-opacity="1"/>
<polyline clip-path="url(#clip260)" style="stroke:#000000; stroke-linecap:round; stroke-linejoin:round; stroke-width:4; stroke-opacity:1; fill:none" points="321.085,248.219 647.046,248.219 647.046,92.6992 321.085,92.6992 321.085,248.219 "/>
<circle clip-path="url(#clip260)" cx="414.495" cy="144.539" r="20.48" fill="#de8f05" fill-rule="evenodd" fill-opacity="1" stroke="#000000" stroke-opacity="1" stroke-width="4.55111"/>
<path clip-path="url(#clip260)" d="M533.904 153.231 Q533.904 153.418 533.693 154.145 Q533.482 154.871 532.967 155.995 Q532.475 157.119 531.796 158.15 Q531.117 159.157 529.992 159.906 Q528.892 160.633 527.627 160.633 Q525.94 160.633 524.816 159.508 Q523.692 158.384 523.692 156.698 Q523.692 155.761 524.184 154.472 Q527.299 146.158 527.299 143.3 Q527.299 139.951 524.699 139.951 Q523.411 139.951 522.193 140.442 Q520.998 140.911 520.178 141.567 Q519.359 142.223 518.609 143.136 Q517.883 144.026 517.508 144.635 Q517.157 145.221 516.876 145.806 L516.267 148.195 Q516.126 148.851 515.447 151.404 L514.393 155.737 Q513.644 158.97 513.48 159.274 Q513.245 159.93 512.73 160.281 Q512.215 160.633 511.7 160.633 Q511.114 160.633 510.716 160.281 Q510.318 159.93 510.318 159.321 Q510.318 159.227 510.388 158.876 Q510.458 158.525 510.575 158.033 Q510.692 157.541 510.739 157.26 L513.527 146.181 Q514.042 144.167 514.159 143.534 Q514.299 142.878 514.299 142.152 Q514.299 139.951 512.8 139.951 Q511.582 139.951 510.786 141.403 Q509.99 142.855 509.31 145.666 Q509.1 146.439 508.959 146.603 Q508.842 146.766 508.491 146.766 Q507.905 146.743 507.905 146.275 Q507.905 146.158 508.093 145.385 Q508.28 144.612 508.631 143.511 Q509.006 142.386 509.357 141.637 Q509.662 141.075 509.826 140.817 Q510.013 140.536 510.458 139.997 Q510.927 139.435 511.536 139.178 Q512.168 138.897 512.941 138.897 Q514.674 138.897 515.939 140.021 Q517.204 141.122 517.368 143.066 Q520.483 138.897 524.84 138.897 Q527.416 138.897 528.892 140.255 Q530.367 141.614 530.367 144.026 Q530.367 144.588 530.25 145.314 Q530.156 146.017 529.922 146.907 Q529.711 147.797 529.524 148.476 Q529.337 149.156 528.962 150.256 Q528.587 151.334 528.423 151.802 Q528.259 152.271 527.861 153.372 Q527.486 154.449 527.439 154.566 Q526.573 156.744 526.573 157.986 Q526.573 158.806 526.83 159.18 Q527.112 159.555 527.721 159.555 Q529.36 159.555 530.578 157.939 Q531.819 156.299 532.616 153.629 Q532.803 153.044 532.897 152.903 Q533.014 152.763 533.342 152.763 Q533.904 152.763 533.904 153.231 Z" fill="#000000" fill-rule="nonzero" fill-opacity="1" /><path clip-path="url(#clip260)" d="M549.691 152.809 Q549.738 152.224 550.652 152.224 L580.047 152.224 Q581.429 152.224 581.452 152.763 Q581.452 153.348 580.14 153.325 L550.98 153.325 Q549.691 153.348 549.691 152.809 M549.691 143.441 Q549.691 142.855 550.698 142.878 L580 142.878 Q581.429 142.878 581.452 143.441 Q581.452 143.979 580.234 143.979 L550.652 143.979 Q549.691 143.979 549.691 143.441 Z" fill="#000000" fill-rule="nonzero" fill-opacity="1" /><path clip-path="url(#clip260)" d="M599.943 132.713 L599.943 131.214 Q605.705 131.214 608.68 128.146 Q609.499 128.146 609.64 128.333 Q609.78 128.52 609.78 129.387 L609.78 156.299 Q609.78 157.728 610.483 158.173 Q611.186 158.618 614.254 158.618 L615.777 158.618 L615.777 160.094 Q614.09 159.953 608 159.953 Q601.91 159.953 600.247 160.094 L600.247 158.618 L601.77 158.618 Q604.791 158.618 605.518 158.197 Q606.244 157.752 606.244 156.299 L606.244 131.448 Q603.737 132.713 599.943 132.713 Z" fill="#000000" fill-rule="nonzero" fill-opacity="1" /><circle clip-path="url(#clip260)" cx="414.495" cy="196.379" r="20.48" fill="#029e73" fill-rule="evenodd" fill-opacity="1" stroke="#000000" stroke-opacity="1" stroke-width="4.55111"/>
<path clip-path="url(#clip260)" d="M533.904 205.071 Q533.904 205.258 533.693 205.985 Q533.482 206.711 532.967 207.835 Q532.475 208.959 531.796 209.99 Q531.117 210.997 529.992 211.746 Q528.892 212.473 527.627 212.473 Q525.94 212.473 524.816 211.348 Q523.692 210.224 523.692 208.538 Q523.692 207.601 524.184 206.312 Q527.299 197.998 527.299 195.14 Q527.299 191.791 524.699 191.791 Q523.411 191.791 522.193 192.282 Q520.998 192.751 520.178 193.407 Q519.359 194.063 518.609 194.976 Q517.883 195.866 517.508 196.475 Q517.157 197.061 516.876 197.646 L516.267 200.035 Q516.126 200.691 515.447 203.244 L514.393 207.577 Q513.644 210.81 513.48 211.114 Q513.245 211.77 512.73 212.121 Q512.215 212.473 511.7 212.473 Q511.114 212.473 510.716 212.121 Q510.318 211.77 510.318 211.161 Q510.318 211.067 510.388 210.716 Q510.458 210.365 510.575 209.873 Q510.692 209.381 510.739 209.1 L513.527 198.021 Q514.042 196.007 514.159 195.374 Q514.299 194.718 514.299 193.992 Q514.299 191.791 512.8 191.791 Q511.582 191.791 510.786 193.243 Q509.99 194.695 509.31 197.506 Q509.1 198.279 508.959 198.443 Q508.842 198.606 508.491 198.606 Q507.905 198.583 507.905 198.115 Q507.905 197.998 508.093 197.225 Q508.28 196.452 508.631 195.351 Q509.006 194.226 509.357 193.477 Q509.662 192.915 509.826 192.657 Q510.013 192.376 510.458 191.837 Q510.927 191.275 511.536 191.018 Q512.168 190.737 512.941 190.737 Q514.674 190.737 515.939 191.861 Q517.204 192.962 517.368 194.906 Q520.483 190.737 524.84 190.737 Q527.416 190.737 528.892 192.095 Q530.367 193.454 530.367 195.866 Q530.367 196.428 530.25 197.154 Q530.156 197.857 529.922 198.747 Q529.711 199.637 529.524 200.316 Q529.337 200.996 528.962 202.096 Q528.587 203.174 528.423 203.642 Q528.259 204.111 527.861 205.212 Q527.486 206.289 527.439 206.406 Q526.573 208.584 526.573 209.826 Q526.573 210.646 526.83 211.02 Q527.112 211.395 527.721 211.395 Q529.36 211.395 530.578 209.779 Q531.819 208.139 532.616 205.469 Q532.803 204.884 532.897 204.743 Q533.014 204.603 533.342 204.603 Q533.904 204.603 533.904 205.071 Z" fill="#000000" fill-rule="nonzero" fill-opacity="1" /><path clip-path="url(#clip260)" d="M549.691 204.649 Q549.738 204.064 550.652 204.064 L580.047 204.064 Q581.429 204.064 581.452 204.603 Q581.452 205.188 580.14 205.165 L550.98 205.165 Q549.691 205.188 549.691 204.649 M549.691 195.281 Q549.691 194.695 550.698 194.718 L580 194.718 Q581.429 194.718 581.452 195.281 Q581.452 195.819 580.234 195.819 L550.652 195.819 Q549.691 195.819 549.691 195.281 Z" fill="#000000" fill-rule="nonzero" fill-opacity="1" /><path clip-path="url(#clip260)" d="M599.943 211.934 Q599.943 211.067 600.013 210.81 Q600.107 210.552 600.482 210.154 L609.687 199.895 Q614.723 194.226 614.723 189.284 Q614.723 186.075 613.036 183.78 Q611.373 181.485 608.305 181.485 Q606.197 181.485 604.417 182.773 Q602.637 184.061 601.817 186.357 Q601.957 186.31 602.449 186.31 Q603.644 186.31 604.3 187.059 Q604.979 187.809 604.979 188.816 Q604.979 190.104 604.136 190.737 Q603.316 191.346 602.496 191.346 Q602.168 191.346 601.723 191.275 Q601.301 191.205 600.622 190.549 Q599.943 189.87 599.943 188.675 Q599.943 185.326 602.473 182.656 Q605.026 179.986 608.914 179.986 Q613.317 179.986 616.198 182.609 Q619.103 185.209 619.103 189.284 Q619.103 190.713 618.658 192.025 Q618.236 193.313 617.65 194.32 Q617.088 195.327 615.542 196.944 Q613.996 198.56 612.755 199.707 Q611.514 200.855 608.726 203.291 L603.644 208.233 L612.287 208.233 Q616.503 208.233 616.831 207.858 Q617.299 207.179 617.885 203.595 L619.103 203.595 L617.744 211.934 L599.943 211.934 Z" fill="#000000" fill-rule="nonzero" fill-opacity="1" /></svg>
