<?xml version="1.0" encoding="utf-8"?>
<svg xmlns="http://www.w3.org/2000/svg" xmlns:xlink="http://www.w3.org/1999/xlink" width="600" height="400" viewBox="0 0 2400 1600">
<defs>
  <clipPath id="clip890">
    <rect x="0" y="0" width="2400" height="1600"/>
  </clipPath>
</defs>
<path clip-path="url(#clip890)" d="M0 1600 L2400 1600 L2400 0 L0 0  Z" fill="#ffffff" fill-rule="evenodd" fill-opacity="1"/>
<defs>
  <clipPath id="clip891">
    <rect x="480" y="0" width="1681" height="1600"/>
  </clipPath>
</defs>
<path clip-path="url(#clip890)" d="M282.154 1410.9 L2352.76 1410.9 L2352.76 47.2441 L282.154 47.2441  Z" fill="#ffffff" fill-rule="evenodd" fill-opacity="1"/>
<defs>
  <clipPath id="clip892">
    <rect x="282" y="47" width="2072" height="1365"/>
  </clipPath>
</defs>
<polyline clip-path="url(#clip892)" style="stroke:#000000; stroke-linecap:round; stroke-linejoin:round; stroke-width:2; stroke-opacity:0.1; fill:none" points="450.635,1410.9 450.635,47.2441 "/>
<polyline clip-path="url(#clip892)" style="stroke:#000000; stroke-linecap:round; stroke-linejoin:round; stroke-width:2; stroke-opacity:0.1; fill:none" points="926.775,1410.9 926.775,47.2441 "/>
<polyline clip-path="url(#clip892)" style="stroke:#000000; stroke-linecap:round; stroke-linejoin:round; stroke-width:2; stroke-opacity:0.1; fill:none" points="1402.92,1410.9 1402.92,47.2441 "/>
<polyline clip-path="url(#clip892)" style="stroke:#000000; stroke-linecap:round; stroke-linejoin:round; stroke-width:2; stroke-opacity:0.1; fill:none" points="1879.06,1410.9 1879.06,47.2441 "/>
<polyline clip-path="url(#clip892)" style="stroke:#000000; stroke-linecap:round; stroke-linejoin:round; stroke-width:2; stroke-opacity:0.1; fill:none" points="450.635,1410.9 450.635,47.2441 "/>
<polyline clip-path="url(#clip892)" style="stroke:#000000; stroke-linecap:round; stroke-linejoin:round; stroke-width:2; stroke-opacity:0.1; fill:none" points="926.775,1410.9 926.775,47.2441 "/>
<polyline clip-path="url(#clip892)" style="stroke:#000000; stroke-linecap:round; stroke-linejoin:round; stroke-width:2; stroke-opacity:0.1; fill:none" points="1402.92,1410.9 1402.92,47.2441 "/>
<polyline clip-path="url(#clip892)" style="stroke:#000000; stroke-linecap:round; stroke-linejoin:round; stroke-width:2; stroke-opacity:0.1; fill:none" points="1879.06,1410.9 1879.06,47.2441 "/>
<polyline clip-path="url(#clip892)" style="stroke:#000000; stroke-linecap:round; stroke-linejoin:round; stroke-width:2; stroke-opacity:0.1; fill:none" points="282.154,1142.01 2352.76,1142.01 "/>
<polyline clip-path="url(#clip892)" style="stroke:#000000; stroke-linecap:round; stroke-linejoin:round; stroke-width:2; stroke-opacity:0.1; fill:none" points="282.154,800.071 2352.76,800.071 "/>
<polyline clip-path="url(#clip892)" style="stroke:#000000; stroke-linecap:round; stroke-linejoin:round; stroke-width:2; stroke-opacity:0.1; fill:none" points="282.154,458.135 2352.76,458.135 "/>
<polyline clip-path="url(#clip892)" style="stroke:#000000; stroke-linecap:round; stroke-linejoin:round; stroke-width:2; stroke-opacity:0.1; fill:none" points="282.154,116.2 2352.76,116.2 "/>
<polyline clip-path="url(#clip892)" style="stroke:#000000; stroke-linecap:round; stroke-linejoin:round; stroke-width:2; stroke-opacity:0.1; fill:none" points="282.154,1142.01 2352.76,1142.01 "/>
<polyline clip-path="url(#clip892)" style="stroke:#000000; stroke-linecap:round; stroke-linejoin:round; stroke-width:2; stroke-opacity:0.1; fill:none" points="282.154,800.071 2352.76,800.071 "/>
<polyline clip-path="url(#clip892)" style="stroke:#000000; stroke-linecap:round; stroke-linejoin:round; stroke-width:2; stroke-opacity:0.1; fill:none" points="282.154,458.135 2352.76,458.135 "/>
<polyline clip-path="url(#clip892)" style="stroke:#000000; stroke-linecap:round; stroke-linejoin:round; stroke-width:2; stroke-opacity:0.1; fill:none" points="282.154,116.2 2352.76,116.2 "/>
<polyline clip-path="url(#clip890)" style="stroke:#000000; stroke-linecap:round; stroke-linejoin:round; stroke-width:4; stroke-opacity:1; fill:none" points="282.154,1410.9 2352.76,1410.9 "/>
<polyline clip-path="url(#clip890)" style="stroke:#000000; stroke-linecap:round; stroke-linejoin:round; stroke-width:4; stroke-opacity:1; fill:none" points="282.154,47.2441 2352.76,47.2441 "/>
<polyline clip-path="url(#clip890)" style="stroke:#000000; stroke-linecap:round; stroke-linejoin:round; stroke-width:4; stroke-opacity:1; fill:none" points="450.635,1410.9 450.635,1392 "/>
<polyline clip-path="url(#clip890)" style="stroke:#000000; stroke-linecap:round; stroke-linejoin:round; stroke-width:4; stroke-opacity:1; fill:none" points="926.775,1410.9 926.775,1392 "/>
<polyline clip-path="url(#clip890)" style="stroke:#000000; stroke-linecap:round; stroke-linejoin:round; stroke-width:4; stroke-opacity:1; fill:none" points="1402.92,1410.9 1402.92,1392 "/>
<polyline clip-path="url(#clip890)" style="stroke:#000000; stroke-linecap:round; stroke-linejoin:round; stroke-width:4; stroke-opacity:1; fill:none" points="1879.06,1410.9 1879.06,1392 "/>
<polyline clip-path="url(#clip890)" style="stroke:#000000; stroke-linecap:round; stroke-linejoin:round; stroke-width:4; stroke-opacity:1; fill:none" points="450.635,47.2441 450.635,66.1417 "/>
<polyline clip-path="url(#clip890)" style="stroke:#000000; stroke-linecap:round; stroke-linejoin:round; stroke-width:4; stroke-opacity:1; fill:none" points="926.775,47.2441 926.775,66.1417 "/>
<polyline clip-path="url(#clip890)" style="stroke:#000000; stroke-linecap:round; stroke-linejoin:round; stroke-width:4; stroke-opacity:1; fill:none" points="1402.92,47.2441 1402.92,66.1417 "/>
<polyline clip-path="url(#clip890)" style="stroke:#000000; stroke-linecap:round; stroke-linejoin:round; stroke-width:4; stroke-opacity:1; fill:none" points="1879.06,47.2441 1879.06,66.1417 "/>
<path clip-path="url(#clip890)" d="M400.9 1485.02 L408.539 1485.02 L408.539 1458.66 L400.229 1460.32 L400.229 1456.06 L408.493 1454.4 L413.169 1454.4 L413.169 1485.02 L420.808 1485.02 L420.808 1488.96 L400.9 1488.96 L400.9 1485.02 Z" fill="#000000" fill-rule="nonzero" fill-opacity="1" /><path clip-path="url(#clip890)" d="M440.252 1457.48 Q436.641 1457.48 434.812 1461.04 Q433.007 1464.58 433.007 1471.71 Q433.007 1478.82 434.812 1482.38 Q436.641 1485.92 440.252 1485.92 Q443.886 1485.92 445.692 1482.38 Q447.52 1478.82 447.52 1471.71 Q447.52 1464.58 445.692 1461.04 Q443.886 1457.48 440.252 1457.48 M440.252 1453.77 Q446.062 1453.77 449.118 1458.38 Q452.196 1462.96 452.196 1471.71 Q452.196 1480.44 449.118 1485.04 Q446.062 1489.63 440.252 1489.63 Q434.442 1489.63 431.363 1485.04 Q428.308 1480.44 428.308 1471.71 Q428.308 1462.96 431.363 1458.38 Q434.442 1453.77 440.252 1453.77 Z" fill="#000000" fill-rule="nonzero" fill-opacity="1" /><path clip-path="url(#clip890)" d="M452.196 1447.87 L476.308 1447.87 L476.308 1451.07 L452.196 1451.07 L452.196 1447.87 Z" fill="#000000" fill-rule="nonzero" fill-opacity="1" /><path clip-path="url(#clip890)" d="M487.781 1458.35 L501.04 1458.35 L501.04 1461.55 L483.21 1461.55 L483.21 1458.35 Q485.373 1456.11 489.097 1452.35 Q492.84 1448.57 493.799 1447.48 Q495.624 1445.43 496.338 1444.02 Q497.072 1442.59 497.072 1441.22 Q497.072 1438.98 495.492 1437.57 Q493.931 1436.16 491.411 1436.16 Q489.624 1436.16 487.63 1436.78 Q485.655 1437.4 483.398 1438.66 L483.398 1434.82 Q485.693 1433.9 487.687 1433.43 Q489.68 1432.96 491.335 1432.96 Q495.699 1432.96 498.294 1435.14 Q500.89 1437.32 500.89 1440.97 Q500.89 1442.7 500.231 1444.26 Q499.592 1445.8 497.88 1447.91 Q497.41 1448.46 494.89 1451.07 Q492.37 1453.67 487.781 1458.35 Z" fill="#000000" fill-rule="nonzero" fill-opacity="1" /><path clip-path="url(#clip890)" d="M876.891 1485.02 L884.53 1485.02 L884.53 1458.66 L876.219 1460.32 L876.219 1456.06 L884.483 1454.4 L889.159 1454.4 L889.159 1485.02 L896.798 1485.02 L896.798 1488.96 L876.891 1488.96 L876.891 1485.02 Z" fill="#000000" fill-rule="nonzero" fill-opacity="1" /><path clip-path="url(#clip890)" d="M916.242 1457.48 Q912.631 1457.48 910.803 1461.04 Q908.997 1464.58 908.997 1471.71 Q908.997 1478.82 910.803 1482.38 Q912.631 1485.92 916.242 1485.92 Q919.877 1485.92 921.682 1482.38 Q923.511 1478.82 923.511 1471.71 Q923.511 1464.58 921.682 1461.04 Q919.877 1457.48 916.242 1457.48 M916.242 1453.77 Q922.052 1453.77 925.108 1458.38 Q928.187 1462.96 928.187 1471.71 Q928.187 1480.44 925.108 1485.04 Q922.052 1489.63 916.242 1489.63 Q910.432 1489.63 907.353 1485.04 Q904.298 1480.44 904.298 1471.71 Q904.298 1462.96 907.353 1458.38 Q910.432 1453.77 916.242 1453.77 Z" fill="#000000" fill-rule="nonzero" fill-opacity="1" /><path clip-path="url(#clip890)" d="M928.187 1447.87 L952.298 1447.87 L952.298 1451.07 L928.187 1451.07 L928.187 1447.87 Z" fill="#000000" fill-rule="nonzero" fill-opacity="1" /><path clip-path="url(#clip890)" d="M961.157 1458.35 L967.363 1458.35 L967.363 1436.93 L960.611 1438.28 L960.611 1434.82 L967.326 1433.47 L971.125 1433.47 L971.125 1458.35 L977.331 1458.35 L977.331 1461.55 L961.157 1461.55 L961.157 1458.35 Z" fill="#000000" fill-rule="nonzero" fill-opacity="1" /><path clip-path="url(#clip890)" d="M1367.9 1485.02 L1375.54 1485.02 L1375.54 1458.66 L1367.23 1460.32 L1367.23 1456.06 L1375.49 1454.4 L1380.17 1454.4 L1380.17 1485.02 L1387.81 1485.02 L1387.81 1488.96 L1367.9 1488.96 L1367.9 1485.02 Z" fill="#000000" fill-rule="nonzero" fill-opacity="1" /><path clip-path="url(#clip890)" d="M1407.25 1457.48 Q1403.64 1457.48 1401.81 1461.04 Q1400.01 1464.58 1400.01 1471.71 Q1400.01 1478.82 1401.81 1482.38 Q1403.64 1485.92 1407.25 1485.92 Q1410.88 1485.92 1412.69 1482.38 Q1414.52 1478.82 1414.52 1471.71 Q1414.52 1464.58 1412.69 1461.04 Q1410.88 1457.48 1407.25 1457.48 M1407.25 1453.77 Q1413.06 1453.77 1416.12 1458.38 Q1419.19 1462.96 1419.19 1471.71 Q1419.19 1480.44 1416.12 1485.04 Q1413.06 1489.63 1407.25 1489.63 Q1401.44 1489.63 1398.36 1485.04 Q1395.31 1480.44 1395.31 1471.71 Q1395.31 1462.96 1398.36 1458.38 Q1401.44 1453.77 1407.25 1453.77 Z" fill="#000000" fill-rule="nonzero" fill-opacity="1" /><path clip-path="url(#clip890)" d="M1428.9 1435.97 Q1425.97 1435.97 1424.48 1438.86 Q1423.01 1441.74 1423.01 1447.53 Q1423.01 1453.31 1424.48 1456.2 Q1425.97 1459.08 1428.9 1459.08 Q1431.85 1459.08 1433.32 1456.2 Q1434.81 1453.31 1434.81 1447.53 Q1434.81 1441.74 1433.32 1438.86 Q1431.85 1435.97 1428.9 1435.97 M1428.9 1432.96 Q1433.62 1432.96 1436.1 1436.7 Q1438.6 1440.43 1438.6 1447.53 Q1438.6 1454.62 1436.1 1458.37 Q1433.62 1462.09 1428.9 1462.09 Q1424.18 1462.09 1421.68 1458.37 Q1419.19 1454.62 1419.19 1447.53 Q1419.19 1440.43 1421.68 1436.7 Q1424.18 1432.96 1428.9 1432.96 Z" fill="#000000" fill-rule="nonzero" fill-opacity="1" /><path clip-path="url(#clip890)" d="M1845.38 1485.02 L1853.02 1485.02 L1853.02 1458.66 L1844.71 1460.32 L1844.71 1456.06 L1852.98 1454.4 L1857.65 1454.4 L1857.65 1485.02 L1865.29 1485.02 L1865.29 1488.96 L1845.38 1488.96 L1845.38 1485.02 Z" fill="#000000" fill-rule="nonzero" fill-opacity="1" /><path clip-path="url(#clip890)" d="M1884.74 1457.48 Q1881.13 1457.48 1879.3 1461.04 Q1877.49 1464.58 1877.49 1471.71 Q1877.49 1478.82 1879.3 1482.38 Q1881.13 1485.92 1884.74 1485.92 Q1888.37 1485.92 1890.18 1482.38 Q1892 1478.82 1892 1471.71 Q1892 1464.58 1890.18 1461.04 Q1888.37 1457.48 1884.74 1457.48 M1884.74 1453.77 Q1890.55 1453.77 1893.6 1458.38 Q1896.68 1462.96 1896.68 1471.71 Q1896.68 1480.44 1893.6 1485.04 Q1890.55 1489.63 1884.74 1489.63 Q1878.93 1489.63 1875.85 1485.04 Q1872.79 1480.44 1872.79 1471.71 Q1872.79 1462.96 1875.85 1458.38 Q1878.93 1453.77 1884.74 1453.77 Z" fill="#000000" fill-rule="nonzero" fill-opacity="1" /><path clip-path="url(#clip890)" d="M1897.23 1458.35 L1903.43 1458.35 L1903.43 1436.93 L1896.68 1438.28 L1896.68 1434.82 L1903.39 1433.47 L1907.19 1433.47 L1907.19 1458.35 L1913.4 1458.35 L1913.4 1461.55 L1897.23 1461.55 L1897.23 1458.35 Z" fill="#000000" fill-rule="nonzero" fill-opacity="1" /><path clip-path="url(#clip890)" d="M1340.86 1522.95 Q1340.86 1524.27 1339.76 1524.27 Q1337.83 1524.34 1336.51 1524.72 Q1335.19 1525.08 1334.42 1525.79 Q1333.68 1526.49 1333.26 1527.27 Q1332.87 1528.01 1332.61 1529.14 L1326.75 1552.55 Q1325.08 1559.15 1319.67 1563.95 Q1314.26 1568.72 1308.1 1568.72 Q1304.59 1568.72 1301.66 1567.27 Q1298.76 1565.82 1296.96 1562.89 Q1295.16 1559.96 1295.16 1556.06 Q1295.16 1554.19 1295.64 1552.23 L1299.63 1535.93 L1301.12 1530.13 Q1302.21 1525.85 1302.21 1525.46 Q1302.21 1524.85 1301.82 1524.69 Q1301.47 1524.5 1300.44 1524.4 L1297.93 1524.27 Q1297.15 1524.27 1296.83 1524.24 Q1296.54 1524.21 1296.32 1524.05 Q1296.09 1523.89 1296.09 1523.53 Q1296.09 1523.08 1296.19 1522.79 Q1296.32 1522.47 1296.54 1522.37 Q1296.77 1522.28 1296.93 1522.24 Q1297.09 1522.21 1297.35 1522.21 L1305.85 1522.4 L1314.29 1522.21 Q1315.22 1522.21 1315.22 1522.95 Q1315.22 1523.89 1314.8 1524.08 Q1314.38 1524.27 1312.97 1524.27 Q1310.55 1524.27 1309.46 1524.59 Q1308.39 1524.88 1308.07 1525.4 Q1307.78 1525.88 1307.43 1527.3 L1301.02 1552.97 Q1300.7 1554.26 1300.5 1555.54 Q1300.34 1556.8 1300.34 1557.44 L1300.31 1558.09 Q1300.31 1562.18 1302.57 1564.43 Q1304.85 1566.69 1308.36 1566.69 Q1313.52 1566.69 1318.31 1562.6 Q1323.14 1558.51 1324.79 1552.1 L1330.71 1528.56 Q1330.91 1527.98 1330.91 1527.17 Q1330.91 1525.88 1329.94 1525.11 Q1329.01 1524.3 1326.43 1524.27 Q1325.24 1524.27 1325.24 1523.53 Q1325.24 1522.92 1325.46 1522.63 Q1325.72 1522.31 1325.91 1522.28 Q1326.14 1522.21 1326.43 1522.21 Q1327.52 1522.21 1329.84 1522.31 Q1332.16 1522.4 1333.29 1522.4 Q1334.42 1522.4 1336.67 1522.31 Q1338.93 1522.21 1340.02 1522.21 Q1340.41 1522.21 1340.6 1522.4 Q1340.83 1522.57 1340.86 1522.76 L1340.86 1522.95 Z" fill="#000000" fill-rule="nonzero" fill-opacity="1" /><polyline clip-path="url(#clip890)" style="stroke:#000000; stroke-linecap:round; stroke-linejoin:round; stroke-width:4; stroke-opacity:1; fill:none" points="282.154,1410.9 282.154,47.2441 "/>
<polyline clip-path="url(#clip890)" style="stroke:#000000; stroke-linecap:round; stroke-linejoin:round; stroke-width:4; stroke-opacity:1; fill:none" points="2352.76,1410.9 2352.76,47.2441 "/>
<polyline clip-path="url(#clip890)" style="stroke:#000000; stroke-linecap:round; stroke-linejoin:round; stroke-width:4; stroke-opacity:1; fill:none" points="282.154,1142.01 301.052,1142.01 "/>
<polyline clip-path="url(#clip890)" style="stroke:#000000; stroke-linecap:round; stroke-linejoin:round; stroke-width:4; stroke-opacity:1; fill:none" points="282.154,800.071 301.052,800.071 "/>
<polyline clip-path="url(#clip890)" style="stroke:#000000; stroke-linecap:round; stroke-linejoin:round; stroke-width:4; stroke-opacity:1; fill:none" points="282.154,458.135 301.052,458.135 "/>
<polyline clip-path="url(#clip890)" style="stroke:#000000; stroke-linecap:round; stroke-linejoin:round; stroke-width:4; stroke-opacity:1; fill:none" points="282.154,116.2 301.052,116.2 "/>
<polyline clip-path="url(#clip890)" style="stroke:#000000; stroke-linecap:round; stroke-linejoin:round; stroke-width:4; stroke-opacity:1; fill:none" points="2352.76,1142.01 2333.86,1142.01 "/>
<polyline clip-path="url(#clip890)" style="stroke:#000000; stroke-linecap:round; stroke-linejoin:round; stroke-width:4; stroke-opacity:1; fill:none" points="2352.76,800.071 2333.86,800.071 "/>
<polyline clip-path="url(#clip890)" style="stroke:#000000; stroke-linecap:round; stroke-linejoin:round; stroke-width:4; stroke-opacity:1; fill:none" points="2352.76,458.135 2333.86,458.135 "/>
<polyline clip-path="url(#clip890)" style="stroke:#000000; stroke-linecap:round; stroke-linejoin:round; stroke-width:4; stroke-opacity:1; fill:none" points="2352.76,116.2 2333.86,116.2 "/>
<path clip-path="url(#clip890)" d="M145.243 1161.8 L152.882 1161.8 L152.882 1135.43 L144.572 1137.1 L144.572 1132.84 L152.836 1131.17 L157.512 1131.17 L157.512 1161.8 L165.15 1161.8 L165.15 1165.73 L145.243 1165.73 L145.243 1161.8 Z" fill="#000000" fill-rule="nonzero" fill-opacity="1" /><path clip-path="url(#clip890)" d="M184.595 1134.25 Q180.984 1134.25 179.155 1137.82 Q177.349 1141.36 177.349 1148.49 Q177.349 1155.6 179.155 1159.16 Q180.984 1162.7 184.595 1162.7 Q188.229 1162.7 190.035 1159.16 Q191.863 1155.6 191.863 1148.49 Q191.863 1141.36 190.035 1137.82 Q188.229 1134.25 184.595 1134.25 M184.595 1130.55 Q190.405 1130.55 193.46 1135.16 Q196.539 1139.74 196.539 1148.49 Q196.539 1157.22 193.46 1161.82 Q190.405 1166.41 184.595 1166.41 Q178.785 1166.41 175.706 1161.82 Q172.65 1157.22 172.65 1148.49 Q172.65 1139.74 175.706 1135.16 Q178.785 1130.55 184.595 1130.55 Z" fill="#000000" fill-rule="nonzero" fill-opacity="1" /><path clip-path="url(#clip890)" d="M196.539 1124.65 L220.651 1124.65 L220.651 1127.85 L196.539 1127.85 L196.539 1124.65 Z" fill="#000000" fill-rule="nonzero" fill-opacity="1" /><path clip-path="url(#clip890)" d="M240.361 1123.18 Q243.088 1123.77 244.612 1125.61 Q246.154 1127.45 246.154 1130.16 Q246.154 1134.32 243.295 1136.59 Q240.436 1138.87 235.17 1138.87 Q233.402 1138.87 231.522 1138.51 Q229.66 1138.17 227.666 1137.48 L227.666 1133.81 Q229.246 1134.73 231.127 1135.2 Q233.007 1135.67 235.057 1135.67 Q238.631 1135.67 240.493 1134.26 Q242.374 1132.85 242.374 1130.16 Q242.374 1127.68 240.625 1126.29 Q238.894 1124.88 235.791 1124.88 L232.518 1124.88 L232.518 1121.75 L235.941 1121.75 Q238.744 1121.75 240.23 1120.64 Q241.715 1119.52 241.715 1117.41 Q241.715 1115.25 240.173 1114.1 Q238.65 1112.93 235.791 1112.93 Q234.23 1112.93 232.443 1113.27 Q230.656 1113.61 228.512 1114.32 L228.512 1110.94 Q230.675 1110.34 232.556 1110.04 Q234.456 1109.74 236.129 1109.74 Q240.455 1109.74 242.976 1111.71 Q245.496 1113.67 245.496 1117.01 Q245.496 1119.35 244.16 1120.96 Q242.825 1122.56 240.361 1123.18 Z" fill="#000000" fill-rule="nonzero" fill-opacity="1" /><path clip-path="url(#clip890)" d="M145.713 819.863 L153.352 819.863 L153.352 793.498 L145.042 795.164 L145.042 790.905 L153.306 789.238 L157.982 789.238 L157.982 819.863 L165.621 819.863 L165.621 823.798 L145.713 823.798 L145.713 819.863 Z" fill="#000000" fill-rule="nonzero" fill-opacity="1" /><path clip-path="url(#clip890)" d="M185.065 792.317 Q181.454 792.317 179.625 795.882 Q177.82 799.424 177.82 806.553 Q177.82 813.66 179.625 817.224 Q181.454 820.766 185.065 820.766 Q188.699 820.766 190.505 817.224 Q192.333 813.66 192.333 806.553 Q192.333 799.424 190.505 795.882 Q188.699 792.317 185.065 792.317 M185.065 788.613 Q190.875 788.613 193.931 793.22 Q197.009 797.803 197.009 806.553 Q197.009 815.28 193.931 819.886 Q190.875 824.47 185.065 824.47 Q179.255 824.47 176.176 819.886 Q173.121 815.28 173.121 806.553 Q173.121 797.803 176.176 793.22 Q179.255 788.613 185.065 788.613 Z" fill="#000000" fill-rule="nonzero" fill-opacity="1" /><path clip-path="url(#clip890)" d="M197.009 782.715 L221.121 782.715 L221.121 785.912 L197.009 785.912 L197.009 782.715 Z" fill="#000000" fill-rule="nonzero" fill-opacity="1" /><path clip-path="url(#clip890)" d="M229.979 793.191 L236.186 793.191 L236.186 771.769 L229.434 773.123 L229.434 769.662 L236.148 768.308 L239.947 768.308 L239.947 793.191 L246.154 793.191 L246.154 796.388 L229.979 796.388 L229.979 793.191 Z" fill="#000000" fill-rule="nonzero" fill-opacity="1" /><path clip-path="url(#clip890)" d="M178.138 477.928 L185.777 477.928 L185.777 451.562 L177.467 453.229 L177.467 448.97 L185.73 447.303 L190.406 447.303 L190.406 477.928 L198.045 477.928 L198.045 481.863 L178.138 481.863 L178.138 477.928 Z" fill="#000000" fill-rule="nonzero" fill-opacity="1" /><path clip-path="url(#clip890)" d="M217.49 450.382 Q213.878 450.382 212.05 453.946 Q210.244 457.488 210.244 464.618 Q210.244 471.724 212.05 475.289 Q213.878 478.831 217.49 478.831 Q221.124 478.831 222.929 475.289 Q224.758 471.724 224.758 464.618 Q224.758 457.488 222.929 453.946 Q221.124 450.382 217.49 450.382 M217.49 446.678 Q223.3 446.678 226.355 451.284 Q229.434 455.868 229.434 464.618 Q229.434 473.345 226.355 477.951 Q223.3 482.534 217.49 482.534 Q211.679 482.534 208.601 477.951 Q205.545 473.345 205.545 464.618 Q205.545 455.868 208.601 451.284 Q211.679 446.678 217.49 446.678 Z" fill="#000000" fill-rule="nonzero" fill-opacity="1" /><path clip-path="url(#clip890)" d="M229.979 451.255 L236.186 451.255 L236.186 429.833 L229.434 431.187 L229.434 427.727 L236.148 426.373 L239.947 426.373 L239.947 451.255 L246.154 451.255 L246.154 454.453 L229.979 454.453 L229.979 451.255 Z" fill="#000000" fill-rule="nonzero" fill-opacity="1" /><path clip-path="url(#clip890)" d="M176.37 135.992 L184.009 135.992 L184.009 109.627 L175.699 111.293 L175.699 107.034 L183.963 105.368 L188.638 105.368 L188.638 135.992 L196.277 135.992 L196.277 139.928 L176.37 139.928 L176.37 135.992 Z" fill="#000000" fill-rule="nonzero" fill-opacity="1" /><path clip-path="url(#clip890)" d="M215.722 108.446 Q212.111 108.446 210.282 112.011 Q208.476 115.553 208.476 122.682 Q208.476 129.789 210.282 133.354 Q212.111 136.895 215.722 136.895 Q219.356 136.895 221.161 133.354 Q222.99 129.789 222.99 122.682 Q222.99 115.553 221.161 112.011 Q219.356 108.446 215.722 108.446 M215.722 104.743 Q221.532 104.743 224.587 109.349 Q227.666 113.932 227.666 122.682 Q227.666 131.409 224.587 136.016 Q221.532 140.599 215.722 140.599 Q209.911 140.599 206.833 136.016 Q203.777 131.409 203.777 122.682 Q203.777 113.932 206.833 109.349 Q209.911 104.743 215.722 104.743 Z" fill="#000000" fill-rule="nonzero" fill-opacity="1" /><path clip-path="url(#clip890)" d="M240.361 97.3769 Q243.088 97.9599 244.612 99.8031 Q246.154 101.646 246.154 104.355 Q246.154 108.511 243.295 110.787 Q240.436 113.063 235.17 113.063 Q233.402 113.063 231.522 112.705 Q229.66 112.367 227.666 111.671 L227.666 108.003 Q229.246 108.925 231.127 109.395 Q233.007 109.865 235.057 109.865 Q238.631 109.865 240.493 108.455 Q242.374 107.044 242.374 104.355 Q242.374 101.872 240.625 100.48 Q238.894 99.0696 235.791 99.0696 L232.518 99.0696 L232.518 95.9475 L235.941 95.9475 Q238.744 95.9475 240.23 94.8379 Q241.715 93.7094 241.715 91.6029 Q241.715 89.44 240.173 88.2928 Q238.65 87.1267 235.791 87.1267 Q234.23 87.1267 232.443 87.4652 Q230.656 87.8038 228.512 88.5184 L228.512 85.133 Q230.675 84.5312 232.556 84.2303 Q234.456 83.9294 236.129 83.9294 Q240.455 83.9294 242.976 85.9042 Q245.496 87.8602 245.496 91.208 Q245.496 93.5401 244.16 95.1576 Q242.825 96.7563 240.361 97.3769 Z" fill="#000000" fill-rule="nonzero" fill-opacity="1" /><path clip-path="url(#clip890)" d="M100.165 824.949 L38.2652 824.949 Q36.3006 824.949 36.3006 823.629 Q36.3006 822.308 38.3618 822.308 L100.004 822.308 Q102.129 822.308 102.129 823.629 Q102.129 824.949 100.165 824.949 M100.165 817.671 L38.7482 817.671 Q36.3006 817.671 36.3006 816.35 Q36.3006 815.03 38.3618 815.03 L100.004 815.03 Q102.129 815.03 102.129 816.35 Q102.129 817.671 100.165 817.671 Z" fill="#000000" fill-rule="nonzero" fill-opacity="1" /><path clip-path="url(#clip890)" d="M84.3839 747.036 Q84.9959 747.036 85.3179 747.294 Q85.6078 747.519 85.6722 747.745 Q85.7044 747.938 85.7044 748.228 Q85.7044 749.065 85.6078 751.964 Q85.5112 754.862 85.5112 755.699 Q85.5112 757.052 85.6078 759.822 Q85.7044 762.591 85.7044 763.944 Q85.7044 764.846 84.9637 764.846 Q84.4806 764.846 84.2229 764.749 Q83.9331 764.653 83.8364 764.395 Q83.7076 764.105 83.7076 763.944 Q83.6754 763.751 83.6754 763.268 Q83.6754 762.624 83.611 761.947 Q83.5144 761.271 83.3212 760.434 Q83.1279 759.596 82.6448 759.081 Q82.1617 758.534 81.4854 758.534 Q81.1956 758.534 78.8123 758.759 Q76.4291 758.984 73.6594 759.274 Q70.8575 759.564 70.471 759.596 L70.471 776.15 Q73.0797 777.664 74.8832 778.727 Q76.6867 779.789 77.2987 780.176 Q77.9106 780.562 78.297 780.788 Q78.6835 781.013 78.9089 781.142 Q80.6159 782.076 81.3566 782.076 Q83.4178 782.076 83.6754 778.984 Q83.6754 777.921 84.4484 777.921 Q85.0281 777.921 85.3501 778.179 Q85.64 778.437 85.6722 778.662 Q85.7044 778.855 85.7044 779.177 Q85.7044 780.24 85.6078 782.462 Q85.5112 784.685 85.5112 785.78 Q85.5112 786.714 85.6078 788.646 Q85.7044 790.578 85.7044 791.448 Q85.7044 791.834 85.4789 792.06 Q85.2535 792.285 84.9637 792.285 Q84.5128 792.285 84.2551 792.221 Q83.9975 792.124 83.8687 791.867 Q83.7398 791.609 83.7398 791.48 Q83.7076 791.351 83.6754 790.9 Q83.5144 788.453 82.355 786.553 Q81.1634 784.62 78.1038 782.785 L39.5856 759.854 Q39.1991 759.629 39.0059 759.467 Q38.8127 759.306 38.6516 758.984 Q38.4906 758.63 38.4906 758.115 Q38.4906 757.31 38.7482 757.149 Q38.9737 756.988 40.0687 756.891 L81.2922 752.865 Q82.1617 752.769 82.516 752.704 Q82.8381 752.608 83.1923 752.189 Q83.5144 751.738 83.611 750.933 Q83.6754 750.096 83.6754 748.55 Q83.6754 747.97 83.7076 747.745 Q83.7076 747.519 83.8687 747.294 Q84.0297 747.036 84.3839 747.036 M68.4098 759.79 L46.6709 761.883 L68.4098 774.894 L68.4098 759.79 Z" fill="#000000" fill-rule="nonzero" fill-opacity="1" /><path clip-path="url(#clip890)" d="M26.2565 740.433 Q18.4562 740.433 12.1664 737.525 Q9.52877 736.285 7.31945 734.549 Q5.11012 732.813 4.14073 731.663 Q3.17133 730.513 3.17133 730.198 Q3.17133 729.747 3.62221 729.724 Q3.84766 729.724 4.41126 730.333 Q11.9861 737.773 26.2565 737.75 Q40.572 737.75 47.8537 730.513 Q48.6428 729.724 48.8908 729.724 Q49.3417 729.724 49.3417 730.198 Q49.3417 730.513 48.4173 731.618 Q47.493 732.723 45.3739 734.436 Q43.2547 736.149 40.6622 737.389 Q34.3724 740.433 26.2565 740.433 Z" fill="#000000" fill-rule="nonzero" fill-opacity="1" /><path clip-path="url(#clip890)" d="M31.1937 701.376 Q31.374 701.376 32.0729 701.579 Q32.7717 701.781 33.8539 702.277 Q34.936 702.751 35.9279 703.405 Q36.8973 704.058 37.6187 705.14 Q38.3176 706.2 38.3176 707.417 Q38.3176 709.041 37.2355 710.123 Q36.1534 711.205 34.5302 711.205 Q33.6284 711.205 32.3885 710.731 Q24.3853 707.733 21.635 707.733 Q18.4111 707.733 18.4111 710.235 Q18.4111 711.475 18.8846 712.648 Q19.3355 713.797 19.9667 714.586 Q20.5979 715.376 21.4771 716.097 Q22.3338 716.796 22.92 717.157 Q23.4836 717.495 24.0472 717.765 L26.3467 718.351 Q26.9779 718.487 29.4352 719.14 L33.6059 720.155 Q36.717 720.876 37.01 721.034 Q37.6413 721.26 37.9794 721.756 Q38.3176 722.251 38.3176 722.747 Q38.3176 723.311 37.9794 723.694 Q37.6413 724.078 37.0551 724.078 Q36.9649 724.078 36.6268 724.01 Q36.2886 723.942 35.8152 723.83 Q35.3418 723.717 35.0712 723.672 L24.4079 720.989 Q22.4691 720.493 21.8604 720.38 Q21.2292 720.245 20.5303 720.245 Q18.4111 720.245 18.4111 721.688 Q18.4111 722.86 19.8089 723.627 Q21.2066 724.393 23.9119 725.047 Q24.6559 725.25 24.8137 725.385 Q24.9715 725.498 24.9715 725.836 Q24.9489 726.4 24.4981 726.4 Q24.3853 726.4 23.6414 726.219 Q22.8974 726.039 21.8378 725.701 Q20.7557 725.34 20.0343 725.002 Q19.4933 724.709 19.2453 724.551 Q18.9747 724.371 18.4562 723.942 Q17.9152 723.491 17.6672 722.905 Q17.3967 722.297 17.3967 721.553 Q17.3967 719.884 18.4788 718.667 Q19.5384 717.45 21.4095 717.292 Q17.3967 714.293 17.3967 710.1 Q17.3967 707.62 18.7042 706.2 Q20.0118 704.78 22.3338 704.78 Q22.8749 704.78 23.5737 704.893 Q24.2501 704.983 25.1067 705.208 Q25.9634 705.411 26.6172 705.591 Q27.271 705.772 28.3306 706.132 Q29.3676 706.493 29.8185 706.651 Q30.2693 706.809 31.3289 707.192 Q32.3659 707.553 32.4787 707.598 Q34.5753 708.432 35.7701 708.432 Q36.5591 708.432 36.9199 708.184 Q37.2806 707.913 37.2806 707.327 Q37.2806 705.749 35.725 704.577 Q34.1469 703.382 31.5769 702.616 Q31.0133 702.435 30.878 702.345 Q30.7428 702.232 30.7428 701.917 Q30.7428 701.376 31.1937 701.376 Z" fill="#000000" fill-rule="nonzero" fill-opacity="1" /><path clip-path="url(#clip890)" d="M48.8908 696.947 Q48.6653 696.947 48.1017 696.361 Q40.5269 688.921 26.2565 688.921 Q11.941 688.921 4.70433 696.068 Q3.8702 696.947 3.62221 696.947 Q3.17133 696.947 3.17133 696.496 Q3.17133 696.18 4.09564 695.076 Q5.01995 693.948 7.13909 692.258 Q9.25824 690.544 11.8508 689.282 Q18.1406 686.238 26.2565 686.238 Q34.0568 686.238 40.3466 689.147 Q42.9842 690.387 45.1935 692.122 Q47.4029 693.858 48.3723 695.008 Q49.3417 696.158 49.3417 696.496 Q49.3417 696.947 48.8908 696.947 Z" fill="#000000" fill-rule="nonzero" fill-opacity="1" /><path clip-path="url(#clip890)" d="M100.165 672.178 L38.2652 672.178 Q36.3006 672.178 36.3006 670.857 Q36.3006 669.537 38.3618 669.537 L100.004 669.537 Q102.129 669.537 102.129 670.857 Q102.129 672.178 100.165 672.178 M100.165 664.899 L38.7482 664.899 Q36.3006 664.899 36.3006 663.579 Q36.3006 662.258 38.3618 662.258 L100.004 662.258 Q102.129 662.258 102.129 663.579 Q102.129 664.899 100.165 664.899 Z" fill="#000000" fill-rule="nonzero" fill-opacity="1" /><path clip-path="url(#clip890)" d="M93.8925 655.325 L92.4497 655.325 Q92.4497 649.779 89.4964 646.916 Q89.4964 646.127 89.6768 645.992 Q89.8571 645.857 90.6913 645.857 L116.594 645.857 Q117.97 645.857 118.398 645.18 Q118.826 644.504 118.826 641.551 L118.826 640.085 L120.247 640.085 Q120.111 641.709 120.111 647.57 Q120.111 653.431 120.247 655.032 L118.826 655.032 L118.826 653.567 Q118.826 650.659 118.421 649.96 Q117.992 649.261 116.594 649.261 L92.6751 649.261 Q93.8925 651.673 93.8925 655.325 Z" fill="#000000" fill-rule="nonzero" fill-opacity="1" /><circle clip-path="url(#clip892)" cx="340.756" cy="1372.3" r="14.4" fill="#de8f05" fill-rule="evenodd" fill-opacity="1" stroke="#000000" stroke-opacity="1" stroke-width="3.2"/>
<circle clip-path="url(#clip892)" cx="401.8" cy="1317.48" r="14.4" fill="#de8f05" fill-rule="evenodd" fill-opacity="1" stroke="#000000" stroke-opacity="1" stroke-width="3.2"/>
<circle clip-path="url(#clip892)" cx="462.843" cy="1306.89" r="14.4" fill="#de8f05" fill-rule="evenodd" fill-opacity="1" stroke="#000000" stroke-opacity="1" stroke-width="3.2"/>
<circle clip-path="url(#clip892)" cx="523.887" cy="1301.35" r="14.4" fill="#de8f05" fill-rule="evenodd" fill-opacity="1" stroke="#000000" stroke-opacity="1" stroke-width="3.2"/>
<circle clip-path="url(#clip892)" cx="584.931" cy="1227.02" r="14.4" fill="#de8f05" fill-rule="evenodd" fill-opacity="1" stroke="#000000" stroke-opacity="1" stroke-width="3.2"/>
<circle clip-path="url(#clip892)" cx="645.974" cy="1178.22" r="14.4" fill="#de8f05" fill-rule="evenodd" fill-opacity="1" stroke="#000000" stroke-opacity="1" stroke-width="3.2"/>
<circle clip-path="url(#clip892)" cx="707.018" cy="1134.34" r="14.4" fill="#de8f05" fill-rule="evenodd" fill-opacity="1" stroke="#000000" stroke-opacity="1" stroke-width="3.2"/>
<circle clip-path="url(#clip892)" cx="768.062" cy="1092.18" r="14.4" fill="#de8f05" fill-rule="evenodd" fill-opacity="1" stroke="#000000" stroke-opacity="1" stroke-width="3.2"/>
<circle clip-path="url(#clip892)" cx="829.105" cy="1043.11" r="14.4" fill="#de8f05" fill-rule="evenodd" fill-opacity="1" stroke="#000000" stroke-opacity="1" stroke-width="3.2"/>
<circle clip-path="url(#clip892)" cx="890.149" cy="1031.49" r="14.4" fill="#de8f05" fill-rule="evenodd" fill-opacity="1" stroke="#000000" stroke-opacity="1" stroke-width="3.2"/>
<circle clip-path="url(#clip892)" cx="951.193" cy="1011.75" r="14.4" fill="#de8f05" fill-rule="evenodd" fill-opacity="1" stroke="#000000" stroke-opacity="1" stroke-width="3.2"/>
<circle clip-path="url(#clip892)" cx="1012.24" cy="938.849" r="14.4" fill="#de8f05" fill-rule="evenodd" fill-opacity="1" stroke="#000000" stroke-opacity="1" stroke-width="3.2"/>
<circle clip-path="url(#clip892)" cx="1073.28" cy="883.656" r="14.4" fill="#de8f05" fill-rule="evenodd" fill-opacity="1" stroke="#000000" stroke-opacity="1" stroke-width="3.2"/>
<circle clip-path="url(#clip892)" cx="1134.32" cy="818.015" r="14.4" fill="#de8f05" fill-rule="evenodd" fill-opacity="1" stroke="#000000" stroke-opacity="1" stroke-width="3.2"/>
<circle clip-path="url(#clip892)" cx="1195.37" cy="831.145" r="14.4" fill="#de8f05" fill-rule="evenodd" fill-opacity="1" stroke="#000000" stroke-opacity="1" stroke-width="3.2"/>
<circle clip-path="url(#clip892)" cx="1256.41" cy="736.233" r="14.4" fill="#de8f05" fill-rule="evenodd" fill-opacity="1" stroke="#000000" stroke-opacity="1" stroke-width="3.2"/>
<circle clip-path="url(#clip892)" cx="1317.45" cy="730.982" r="14.4" fill="#de8f05" fill-rule="evenodd" fill-opacity="1" stroke="#000000" stroke-opacity="1" stroke-width="3.2"/>
<circle clip-path="url(#clip892)" cx="1378.5" cy="662.286" r="14.4" fill="#de8f05" fill-rule="evenodd" fill-opacity="1" stroke="#000000" stroke-opacity="1" stroke-width="3.2"/>
<circle clip-path="url(#clip892)" cx="1439.54" cy="643.656" r="14.4" fill="#de8f05" fill-rule="evenodd" fill-opacity="1" stroke="#000000" stroke-opacity="1" stroke-width="3.2"/>
<circle clip-path="url(#clip892)" cx="1500.59" cy="573.261" r="14.4" fill="#de8f05" fill-rule="evenodd" fill-opacity="1" stroke="#000000" stroke-opacity="1" stroke-width="3.2"/>
<circle clip-path="url(#clip892)" cx="1556.34" cy="532.597" r="14.4" fill="#de8f05" fill-rule="evenodd" fill-opacity="1" stroke="#000000" stroke-opacity="1" stroke-width="3.2"/>
<circle clip-path="url(#clip892)" cx="1561.63" cy="545.964" r="14.4" fill="#de8f05" fill-rule="evenodd" fill-opacity="1" stroke="#000000" stroke-opacity="1" stroke-width="3.2"/>
<circle clip-path="url(#clip892)" cx="1589.32" cy="526.234" r="14.4" fill="#de8f05" fill-rule="evenodd" fill-opacity="1" stroke="#000000" stroke-opacity="1" stroke-width="3.2"/>
<circle clip-path="url(#clip892)" cx="1617.76" cy="494.718" r="14.4" fill="#de8f05" fill-rule="evenodd" fill-opacity="1" stroke="#000000" stroke-opacity="1" stroke-width="3.2"/>
<circle clip-path="url(#clip892)" cx="1622.67" cy="475.246" r="14.4" fill="#de8f05" fill-rule="evenodd" fill-opacity="1" stroke="#000000" stroke-opacity="1" stroke-width="3.2"/>
<circle clip-path="url(#clip892)" cx="1642.76" cy="491.345" r="14.4" fill="#de8f05" fill-rule="evenodd" fill-opacity="1" stroke="#000000" stroke-opacity="1" stroke-width="3.2"/>
<circle clip-path="url(#clip892)" cx="1665.06" cy="461.202" r="14.4" fill="#de8f05" fill-rule="evenodd" fill-opacity="1" stroke="#000000" stroke-opacity="1" stroke-width="3.2"/>
<circle clip-path="url(#clip892)" cx="1683.72" cy="452.394" r="14.4" fill="#de8f05" fill-rule="evenodd" fill-opacity="1" stroke="#000000" stroke-opacity="1" stroke-width="3.2"/>
<circle clip-path="url(#clip892)" cx="1685.18" cy="425.541" r="14.4" fill="#de8f05" fill-rule="evenodd" fill-opacity="1" stroke="#000000" stroke-opacity="1" stroke-width="3.2"/>
<circle clip-path="url(#clip892)" cx="1703.52" cy="462.764" r="14.4" fill="#de8f05" fill-rule="evenodd" fill-opacity="1" stroke="#000000" stroke-opacity="1" stroke-width="3.2"/>
<circle clip-path="url(#clip892)" cx="1720.37" cy="450.818" r="14.4" fill="#de8f05" fill-rule="evenodd" fill-opacity="1" stroke="#000000" stroke-opacity="1" stroke-width="3.2"/>
<circle clip-path="url(#clip892)" cx="1735.94" cy="422.318" r="14.4" fill="#de8f05" fill-rule="evenodd" fill-opacity="1" stroke="#000000" stroke-opacity="1" stroke-width="3.2"/>
<circle clip-path="url(#clip892)" cx="1744.76" cy="439.783" r="14.4" fill="#de8f05" fill-rule="evenodd" fill-opacity="1" stroke="#000000" stroke-opacity="1" stroke-width="3.2"/>
<circle clip-path="url(#clip892)" cx="1750.43" cy="413.472" r="14.4" fill="#de8f05" fill-rule="evenodd" fill-opacity="1" stroke="#000000" stroke-opacity="1" stroke-width="3.2"/>
<circle clip-path="url(#clip892)" cx="1763.96" cy="408.115" r="14.4" fill="#de8f05" fill-rule="evenodd" fill-opacity="1" stroke="#000000" stroke-opacity="1" stroke-width="3.2"/>
<circle clip-path="url(#clip892)" cx="1776.67" cy="422.76" r="14.4" fill="#de8f05" fill-rule="evenodd" fill-opacity="1" stroke="#000000" stroke-opacity="1" stroke-width="3.2"/>
<circle clip-path="url(#clip892)" cx="1788.63" cy="405.714" r="14.4" fill="#de8f05" fill-rule="evenodd" fill-opacity="1" stroke="#000000" stroke-opacity="1" stroke-width="3.2"/>
<circle clip-path="url(#clip892)" cx="1799.95" cy="382.719" r="14.4" fill="#de8f05" fill-rule="evenodd" fill-opacity="1" stroke="#000000" stroke-opacity="1" stroke-width="3.2"/>
<circle clip-path="url(#clip892)" cx="1805.8" cy="400.744" r="14.4" fill="#de8f05" fill-rule="evenodd" fill-opacity="1" stroke="#000000" stroke-opacity="1" stroke-width="3.2"/>
<circle clip-path="url(#clip892)" cx="1810.67" cy="412.008" r="14.4" fill="#de8f05" fill-rule="evenodd" fill-opacity="1" stroke="#000000" stroke-opacity="1" stroke-width="3.2"/>
<circle clip-path="url(#clip892)" cx="1820.87" cy="415.825" r="14.4" fill="#de8f05" fill-rule="evenodd" fill-opacity="1" stroke="#000000" stroke-opacity="1" stroke-width="3.2"/>
<circle clip-path="url(#clip892)" cx="1830.59" cy="398.412" r="14.4" fill="#de8f05" fill-rule="evenodd" fill-opacity="1" stroke="#000000" stroke-opacity="1" stroke-width="3.2"/>
<circle clip-path="url(#clip892)" cx="1839.87" cy="364.526" r="14.4" fill="#de8f05" fill-rule="evenodd" fill-opacity="1" stroke="#000000" stroke-opacity="1" stroke-width="3.2"/>
<circle clip-path="url(#clip892)" cx="1848.75" cy="378.317" r="14.4" fill="#de8f05" fill-rule="evenodd" fill-opacity="1" stroke="#000000" stroke-opacity="1" stroke-width="3.2"/>
<circle clip-path="url(#clip892)" cx="1857.27" cy="411.071" r="14.4" fill="#de8f05" fill-rule="evenodd" fill-opacity="1" stroke="#000000" stroke-opacity="1" stroke-width="3.2"/>
<circle clip-path="url(#clip892)" cx="1866.85" cy="359.813" r="14.4" fill="#de8f05" fill-rule="evenodd" fill-opacity="1" stroke="#000000" stroke-opacity="1" stroke-width="3.2"/>
<circle clip-path="url(#clip892)" cx="1927.89" cy="368.324" r="14.4" fill="#de8f05" fill-rule="evenodd" fill-opacity="1" stroke="#000000" stroke-opacity="1" stroke-width="3.2"/>
<circle clip-path="url(#clip892)" cx="1988.94" cy="346.581" r="14.4" fill="#de8f05" fill-rule="evenodd" fill-opacity="1" stroke="#000000" stroke-opacity="1" stroke-width="3.2"/>
<circle clip-path="url(#clip892)" cx="2049.98" cy="326.352" r="14.4" fill="#de8f05" fill-rule="evenodd" fill-opacity="1" stroke="#000000" stroke-opacity="1" stroke-width="3.2"/>
<circle clip-path="url(#clip892)" cx="2111.02" cy="359.817" r="14.4" fill="#de8f05" fill-rule="evenodd" fill-opacity="1" stroke="#000000" stroke-opacity="1" stroke-width="3.2"/>
<circle clip-path="url(#clip892)" cx="2172.07" cy="336.335" r="14.4" fill="#de8f05" fill-rule="evenodd" fill-opacity="1" stroke="#000000" stroke-opacity="1" stroke-width="3.2"/>
<circle clip-path="url(#clip892)" cx="2233.11" cy="345.984" r="14.4" fill="#de8f05" fill-rule="evenodd" fill-opacity="1" stroke="#000000" stroke-opacity="1" stroke-width="3.2"/>
<circle clip-path="url(#clip892)" cx="2294.15" cy="320.842" r="14.4" fill="#de8f05" fill-rule="evenodd" fill-opacity="1" stroke="#000000" stroke-opacity="1" stroke-width="3.2"/>
<circle clip-path="url(#clip892)" cx="340.756" cy="724.292" r="14.4" fill="#029e73" fill-rule="evenodd" fill-opacity="1" stroke="#000000" stroke-opacity="1" stroke-width="3.2"/>
<circle clip-path="url(#clip892)" cx="401.8" cy="702.331" r="14.4" fill="#029e73" fill-rule="evenodd" fill-opacity="1" stroke="#000000" stroke-opacity="1" stroke-width="3.2"/>
<circle clip-path="url(#clip892)" cx="462.843" cy="680.369" r="14.4" fill="#029e73" fill-rule="evenodd" fill-opacity="1" stroke="#000000" stroke-opacity="1" stroke-width="3.2"/>
<circle clip-path="url(#clip892)" cx="523.887" cy="658.395" r="14.4" fill="#029e73" fill-rule="evenodd" fill-opacity="1" stroke="#000000" stroke-opacity="1" stroke-width="3.2"/>
<circle clip-path="url(#clip892)" cx="584.931" cy="636.45" r="14.4" fill="#029e73" fill-rule="evenodd" fill-opacity="1" stroke="#000000" stroke-opacity="1" stroke-width="3.2"/>
<circle clip-path="url(#clip892)" cx="645.974" cy="614.434" r="14.4" fill="#029e73" fill-rule="evenodd" fill-opacity="1" stroke="#000000" stroke-opacity="1" stroke-width="3.2"/>
<circle clip-path="url(#clip892)" cx="707.018" cy="592.468" r="14.4" fill="#029e73" fill-rule="evenodd" fill-opacity="1" stroke="#000000" stroke-opacity="1" stroke-width="3.2"/>
<circle clip-path="url(#clip892)" cx="768.062" cy="570.435" r="14.4" fill="#029e73" fill-rule="evenodd" fill-opacity="1" stroke="#000000" stroke-opacity="1" stroke-width="3.2"/>
<circle clip-path="url(#clip892)" cx="829.105" cy="548.427" r="14.4" fill="#029e73" fill-rule="evenodd" fill-opacity="1" stroke="#000000" stroke-opacity="1" stroke-width="3.2"/>
<circle clip-path="url(#clip892)" cx="890.149" cy="526.222" r="14.4" fill="#029e73" fill-rule="evenodd" fill-opacity="1" stroke="#000000" stroke-opacity="1" stroke-width="3.2"/>
<circle clip-path="url(#clip892)" cx="951.193" cy="504.126" r="14.4" fill="#029e73" fill-rule="evenodd" fill-opacity="1" stroke="#000000" stroke-opacity="1" stroke-width="3.2"/>
<circle clip-path="url(#clip892)" cx="1012.24" cy="482.008" r="14.4" fill="#029e73" fill-rule="evenodd" fill-opacity="1" stroke="#000000" stroke-opacity="1" stroke-width="3.2"/>
<circle clip-path="url(#clip892)" cx="1073.28" cy="459.398" r="14.4" fill="#029e73" fill-rule="evenodd" fill-opacity="1" stroke="#000000" stroke-opacity="1" stroke-width="3.2"/>
<circle clip-path="url(#clip892)" cx="1134.32" cy="436.956" r="14.4" fill="#029e73" fill-rule="evenodd" fill-opacity="1" stroke="#000000" stroke-opacity="1" stroke-width="3.2"/>
<circle clip-path="url(#clip892)" cx="1195.37" cy="413.697" r="14.4" fill="#029e73" fill-rule="evenodd" fill-opacity="1" stroke="#000000" stroke-opacity="1" stroke-width="3.2"/>
<circle clip-path="url(#clip892)" cx="1256.41" cy="390.274" r="14.4" fill="#029e73" fill-rule="evenodd" fill-opacity="1" stroke="#000000" stroke-opacity="1" stroke-width="3.2"/>
<circle clip-path="url(#clip892)" cx="1317.45" cy="366.712" r="14.4" fill="#029e73" fill-rule="evenodd" fill-opacity="1" stroke="#000000" stroke-opacity="1" stroke-width="3.2"/>
<circle clip-path="url(#clip892)" cx="1378.5" cy="342.548" r="14.4" fill="#029e73" fill-rule="evenodd" fill-opacity="1" stroke="#000000" stroke-opacity="1" stroke-width="3.2"/>
<circle clip-path="url(#clip892)" cx="1439.54" cy="316.524" r="14.4" fill="#029e73" fill-rule="evenodd" fill-opacity="1" stroke="#000000" stroke-opacity="1" stroke-width="3.2"/>
<circle clip-path="url(#clip892)" cx="1500.59" cy="290.686" r="14.4" fill="#029e73" fill-rule="evenodd" fill-opacity="1" stroke="#000000" stroke-opacity="1" stroke-width="3.2"/>
<circle clip-path="url(#clip892)" cx="1556.34" cy="265.42" r="14.4" fill="#029e73" fill-rule="evenodd" fill-opacity="1" stroke="#000000" stroke-opacity="1" stroke-width="3.2"/>
<circle clip-path="url(#clip892)" cx="1561.63" cy="263.906" r="14.4" fill="#029e73" fill-rule="evenodd" fill-opacity="1" stroke="#000000" stroke-opacity="1" stroke-width="3.2"/>
<circle clip-path="url(#clip892)" cx="1589.32" cy="251.76" r="14.4" fill="#029e73" fill-rule="evenodd" fill-opacity="1" stroke="#000000" stroke-opacity="1" stroke-width="3.2"/>
<circle clip-path="url(#clip892)" cx="1617.76" cy="237.835" r="14.4" fill="#029e73" fill-rule="evenodd" fill-opacity="1" stroke="#000000" stroke-opacity="1" stroke-width="3.2"/>
<circle clip-path="url(#clip892)" cx="1622.67" cy="235.586" r="14.4" fill="#029e73" fill-rule="evenodd" fill-opacity="1" stroke="#000000" stroke-opacity="1" stroke-width="3.2"/>
<circle clip-path="url(#clip892)" cx="1642.76" cy="226.614" r="14.4" fill="#029e73" fill-rule="evenodd" fill-opacity="1" stroke="#000000" stroke-opacity="1" stroke-width="3.2"/>
<circle clip-path="url(#clip892)" cx="1665.06" cy="217.336" r="14.4" fill="#029e73" fill-rule="evenodd" fill-opacity="1" stroke="#000000" stroke-opacity="1" stroke-width="3.2"/>
<circle clip-path="url(#clip892)" cx="1683.72" cy="208.388" r="14.4" fill="#029e73" fill-rule="evenodd" fill-opacity="1" stroke="#000000" stroke-opacity="1" stroke-width="3.2"/>
<circle clip-path="url(#clip892)" cx="1685.18" cy="208.409" r="14.4" fill="#029e73" fill-rule="evenodd" fill-opacity="1" stroke="#000000" stroke-opacity="1" stroke-width="3.2"/>
<circle clip-path="url(#clip892)" cx="1703.52" cy="201.76" r="14.4" fill="#029e73" fill-rule="evenodd" fill-opacity="1" stroke="#000000" stroke-opacity="1" stroke-width="3.2"/>
<circle clip-path="url(#clip892)" cx="1720.37" cy="193.069" r="14.4" fill="#029e73" fill-rule="evenodd" fill-opacity="1" stroke="#000000" stroke-opacity="1" stroke-width="3.2"/>
<circle clip-path="url(#clip892)" cx="1735.94" cy="187.508" r="14.4" fill="#029e73" fill-rule="evenodd" fill-opacity="1" stroke="#000000" stroke-opacity="1" stroke-width="3.2"/>
<circle clip-path="url(#clip892)" cx="1744.76" cy="183.314" r="14.4" fill="#029e73" fill-rule="evenodd" fill-opacity="1" stroke="#000000" stroke-opacity="1" stroke-width="3.2"/>
<circle clip-path="url(#clip892)" cx="1750.43" cy="181.429" r="14.4" fill="#029e73" fill-rule="evenodd" fill-opacity="1" stroke="#000000" stroke-opacity="1" stroke-width="3.2"/>
<circle clip-path="url(#clip892)" cx="1763.96" cy="175.325" r="14.4" fill="#029e73" fill-rule="evenodd" fill-opacity="1" stroke="#000000" stroke-opacity="1" stroke-width="3.2"/>
<circle clip-path="url(#clip892)" cx="1776.67" cy="170.705" r="14.4" fill="#029e73" fill-rule="evenodd" fill-opacity="1" stroke="#000000" stroke-opacity="1" stroke-width="3.2"/>
<circle clip-path="url(#clip892)" cx="1788.63" cy="167.747" r="14.4" fill="#029e73" fill-rule="evenodd" fill-opacity="1" stroke="#000000" stroke-opacity="1" stroke-width="3.2"/>
<circle clip-path="url(#clip892)" cx="1799.95" cy="162.884" r="14.4" fill="#029e73" fill-rule="evenodd" fill-opacity="1" stroke="#000000" stroke-opacity="1" stroke-width="3.2"/>
<circle clip-path="url(#clip892)" cx="1805.8" cy="160.305" r="14.4" fill="#029e73" fill-rule="evenodd" fill-opacity="1" stroke="#000000" stroke-opacity="1" stroke-width="3.2"/>
<circle clip-path="url(#clip892)" cx="1810.67" cy="158.164" r="14.4" fill="#029e73" fill-rule="evenodd" fill-opacity="1" stroke="#000000" stroke-opacity="1" stroke-width="3.2"/>
<circle clip-path="url(#clip892)" cx="1820.87" cy="155.944" r="14.4" fill="#029e73" fill-rule="evenodd" fill-opacity="1" stroke="#000000" stroke-opacity="1" stroke-width="3.2"/>
<circle clip-path="url(#clip892)" cx="1830.59" cy="152.302" r="14.4" fill="#029e73" fill-rule="evenodd" fill-opacity="1" stroke="#000000" stroke-opacity="1" stroke-width="3.2"/>
<circle clip-path="url(#clip892)" cx="1839.87" cy="149.381" r="14.4" fill="#029e73" fill-rule="evenodd" fill-opacity="1" stroke="#000000" stroke-opacity="1" stroke-width="3.2"/>
<circle clip-path="url(#clip892)" cx="1848.75" cy="146.614" r="14.4" fill="#029e73" fill-rule="evenodd" fill-opacity="1" stroke="#000000" stroke-opacity="1" stroke-width="3.2"/>
<circle clip-path="url(#clip892)" cx="1857.27" cy="144.579" r="14.4" fill="#029e73" fill-rule="evenodd" fill-opacity="1" stroke="#000000" stroke-opacity="1" stroke-width="3.2"/>
<circle clip-path="url(#clip892)" cx="1866.85" cy="142.258" r="14.4" fill="#029e73" fill-rule="evenodd" fill-opacity="1" stroke="#000000" stroke-opacity="1" stroke-width="3.2"/>
<circle clip-path="url(#clip892)" cx="1927.89" cy="125" r="14.4" fill="#029e73" fill-rule="evenodd" fill-opacity="1" stroke="#000000" stroke-opacity="1" stroke-width="3.2"/>
<circle clip-path="url(#clip892)" cx="1988.94" cy="113.155" r="14.4" fill="#029e73" fill-rule="evenodd" fill-opacity="1" stroke="#000000" stroke-opacity="1" stroke-width="3.2"/>
<circle clip-path="url(#clip892)" cx="2049.98" cy="103.652" r="14.4" fill="#029e73" fill-rule="evenodd" fill-opacity="1" stroke="#000000" stroke-opacity="1" stroke-width="3.2"/>
<circle clip-path="url(#clip892)" cx="2111.02" cy="99.1005" r="14.4" fill="#029e73" fill-rule="evenodd" fill-opacity="1" stroke="#000000" stroke-opacity="1" stroke-width="3.2"/>
<circle clip-path="url(#clip892)" cx="2172.07" cy="90.8033" r="14.4" fill="#029e73" fill-rule="evenodd" fill-opacity="1" stroke="#000000" stroke-opacity="1" stroke-width="3.2"/>
<circle clip-path="url(#clip892)" cx="2233.11" cy="88.8433" r="14.4" fill="#029e73" fill-rule="evenodd" fill-opacity="1" stroke="#000000" stroke-opacity="1" stroke-width="3.2"/>
<circle clip-path="url(#clip892)" cx="2294.15" cy="85.838" r="14.4" fill="#029e73" fill-rule="evenodd" fill-opacity="1" stroke="#000000" stroke-opacity="1" stroke-width="3.2"/>
<path clip-path="url(#clip890)" d="M351.174 248.219 L674.022 248.219 L674.022 92.6992 L351.174 92.6992  Z" fill="#ffffff" fill-rule="evenodd" fill-opacity="1"/>
<polyline clip-path="url(#clip890)" style="stroke:#000000; stroke-linecap:round; stroke-linejoin:round; stroke-width:4; stroke-opacity:1; fill:none" points="351.174,248.219 674.022,248.219 674.022,92.6992 351.174,92.6992 351.174,248.219 "/>
<circle clip-path="url(#clip890)" cx="443.201" cy="144.539" r="20.48" fill="#de8f05" fill-rule="evenodd" fill-opacity="1" stroke="#000000" stroke-opacity="1" stroke-width="4.55111"/>
<path clip-path="url(#clip890)" d="M561.227 153.231 Q561.227 153.418 561.016 154.145 Q560.805 154.871 560.29 155.995 Q559.798 157.119 559.118 158.15 Q558.439 159.157 557.315 159.906 Q556.214 160.633 554.949 160.633 Q553.263 160.633 552.139 159.508 Q551.014 158.384 551.014 156.698 Q551.014 155.761 551.506 154.472 Q554.621 146.158 554.621 143.3 Q554.621 139.951 552.021 139.951 Q550.733 139.951 549.515 140.442 Q548.321 140.911 547.501 141.567 Q546.681 142.223 545.932 143.136 Q545.206 144.026 544.831 144.635 Q544.479 145.221 544.198 145.806 L543.589 148.195 Q543.449 148.851 542.77 151.404 L541.716 155.737 Q540.966 158.97 540.802 159.274 Q540.568 159.93 540.053 160.281 Q539.537 160.633 539.022 160.633 Q538.436 160.633 538.038 160.281 Q537.64 159.93 537.64 159.321 Q537.64 159.227 537.71 158.876 Q537.781 158.525 537.898 158.033 Q538.015 157.541 538.062 157.26 L540.849 146.181 Q541.364 144.167 541.481 143.534 Q541.622 142.878 541.622 142.152 Q541.622 139.951 540.123 139.951 Q538.905 139.951 538.109 141.403 Q537.312 142.855 536.633 145.666 Q536.422 146.439 536.282 146.603 Q536.164 146.766 535.813 146.766 Q535.228 146.743 535.228 146.275 Q535.228 146.158 535.415 145.385 Q535.602 144.612 535.954 143.511 Q536.328 142.386 536.68 141.637 Q536.984 141.075 537.148 140.817 Q537.336 140.536 537.781 139.997 Q538.249 139.435 538.858 139.178 Q539.49 138.897 540.263 138.897 Q541.997 138.897 543.261 140.021 Q544.526 141.122 544.69 143.066 Q547.805 138.897 552.162 138.897 Q554.738 138.897 556.214 140.255 Q557.69 141.614 557.69 144.026 Q557.69 144.588 557.573 145.314 Q557.479 146.017 557.245 146.907 Q557.034 147.797 556.847 148.476 Q556.659 149.156 556.284 150.256 Q555.91 151.334 555.746 151.802 Q555.582 152.271 555.184 153.372 Q554.809 154.449 554.762 154.566 Q553.895 156.744 553.895 157.986 Q553.895 158.806 554.153 159.18 Q554.434 159.555 555.043 159.555 Q556.683 159.555 557.901 157.939 Q559.142 156.299 559.938 153.629 Q560.126 153.044 560.219 152.903 Q560.336 152.763 560.664 152.763 Q561.227 152.763 561.227 153.231 Z" fill="#000000" fill-rule="nonzero" fill-opacity="1" /><path clip-path="url(#clip890)" d="M577.014 152.809 Q577.061 152.224 577.974 152.224 L607.369 152.224 Q608.751 152.224 608.775 152.763 Q608.775 153.348 607.463 153.325 L578.302 153.325 Q577.014 153.348 577.014 152.809 M577.014 143.441 Q577.014 142.855 578.021 142.878 L607.322 142.878 Q608.751 142.878 608.775 143.441 Q608.775 143.979 607.557 143.979 L577.974 143.979 Q577.014 143.979 577.014 143.441 Z" fill="#000000" fill-rule="nonzero" fill-opacity="1" /><path clip-path="url(#clip890)" d="M627.265 132.713 L627.265 131.214 Q633.027 131.214 636.002 128.146 Q636.822 128.146 636.962 128.333 Q637.103 128.52 637.103 129.387 L637.103 156.299 Q637.103 157.728 637.806 158.173 Q638.508 158.618 641.577 158.618 L643.099 158.618 L643.099 160.094 Q641.413 159.953 635.323 159.953 Q629.233 159.953 627.57 160.094 L627.57 158.618 L629.092 158.618 Q632.114 158.618 632.84 158.197 Q633.566 157.752 633.566 156.299 L633.566 131.448 Q631.06 132.713 627.265 132.713 Z" fill="#000000" fill-rule="nonzero" fill-opacity="1" /><circle clip-path="url(#clip890)" cx="443.201" cy="196.379" r="20.48" fill="#029e73" fill-rule="evenodd" fill-opacity="1" stroke="#000000" stroke-opacity="1" stroke-width="4.55111"/>
<path clip-path="url(#clip890)" d="M561.227 205.071 Q561.227 205.258 561.016 205.985 Q560.805 206.711 560.29 207.835 Q559.798 208.959 559.118 209.99 Q558.439 210.997 557.315 211.746 Q556.214 212.473 554.949 212.473 Q553.263 212.473 552.139 211.348 Q551.014 210.224 551.014 208.538 Q551.014 207.601 551.506 206.312 Q554.621 197.998 554.621 195.14 Q554.621 191.791 552.021 191.791 Q550.733 191.791 549.515 192.282 Q548.321 192.751 547.501 193.407 Q546.681 194.063 545.932 194.976 Q545.206 195.866 544.831 196.475 Q544.479 197.061 544.198 197.646 L543.589 200.035 Q543.449 200.691 542.77 203.244 L541.716 207.577 Q540.966 210.81 540.802 211.114 Q540.568 211.77 540.053 212.121 Q539.537 212.473 539.022 212.473 Q538.436 212.473 538.038 212.121 Q537.64 211.77 537.64 211.161 Q537.64 211.067 537.71 210.716 Q537.781 210.365 537.898 209.873 Q538.015 209.381 538.062 209.1 L540.849 198.021 Q541.364 196.007 541.481 195.374 Q541.622 194.718 541.622 193.992 Q541.622 191.791 540.123 191.791 Q538.905 191.791 538.109 193.243 Q537.312 194.695 536.633 197.506 Q536.422 198.279 536.282 198.443 Q536.164 198.606 535.813 198.606 Q535.228 198.583 535.228 198.115 Q535.228 197.998 535.415 197.225 Q535.602 196.452 535.954 195.351 Q536.328 194.226 536.68 193.477 Q536.984 192.915 537.148 192.657 Q537.336 192.376 537.781 191.837 Q538.249 191.275 538.858 191.018 Q539.49 190.737 540.263 190.737 Q541.997 190.737 543.261 191.861 Q544.526 192.962 544.69 194.906 Q547.805 190.737 552.162 190.737 Q554.738 190.737 556.214 192.095 Q557.69 193.454 557.69 195.866 Q557.69 196.428 557.573 197.154 Q557.479 197.857 557.245 198.747 Q557.034 199.637 556.847 200.316 Q556.659 200.996 556.284 202.096 Q555.91 203.174 555.746 203.642 Q555.582 204.111 555.184 205.212 Q554.809 206.289 554.762 206.406 Q553.895 208.584 553.895 209.826 Q553.895 210.646 554.153 211.02 Q554.434 211.395 555.043 211.395 Q556.683 211.395 557.901 209.779 Q559.142 208.139 559.938 205.469 Q560.126 204.884 560.219 204.743 Q560.336 204.603 560.664 204.603 Q561.227 204.603 561.227 205.071 Z" fill="#000000" fill-rule="nonzero" fill-opacity="1" /><path clip-path="url(#clip890)" d="M577.014 204.649 Q577.061 204.064 577.974 204.064 L607.369 204.064 Q608.751 204.064 608.775 204.603 Q608.775 205.188 607.463 205.165 L578.302 205.165 Q577.014 205.188 577.014 204.649 M577.014 195.281 Q577.014 194.695 578.021 194.718 L607.322 194.718 Q608.751 194.718 608.775 195.281 Q608.775 195.819 607.557 195.819 L577.974 195.819 Q577.014 195.819 577.014 195.281 Z" fill="#000000" fill-rule="nonzero" fill-opacity="1" /><path clip-path="url(#clip890)" d="M627.265 211.934 Q627.265 211.067 627.336 210.81 Q627.429 210.552 627.804 210.154 L637.009 199.895 Q642.045 194.226 642.045 189.284 Q642.045 186.075 640.359 183.78 Q638.696 181.485 635.627 181.485 Q633.519 181.485 631.739 182.773 Q629.959 184.061 629.139 186.357 Q629.28 186.31 629.772 186.31 Q630.966 186.31 631.622 187.059 Q632.301 187.809 632.301 188.816 Q632.301 190.104 631.458 190.737 Q630.638 191.346 629.819 191.346 Q629.491 191.346 629.046 191.275 Q628.624 191.205 627.945 190.549 Q627.265 189.87 627.265 188.675 Q627.265 185.326 629.795 182.656 Q632.348 179.986 636.236 179.986 Q640.64 179.986 643.521 182.609 Q646.425 185.209 646.425 189.284 Q646.425 190.713 645.98 192.025 Q645.558 193.313 644.973 194.32 Q644.411 195.327 642.865 196.944 Q641.319 198.56 640.078 199.707 Q638.836 200.855 636.049 203.291 L630.966 208.233 L639.609 208.233 Q643.825 208.233 644.153 207.858 Q644.621 207.179 645.207 203.595 L646.425 203.595 L645.067 211.934 L627.265 211.934 Z" fill="#000000" fill-rule="nonzero" fill-opacity="1" /></svg>
